<?xml version="1.0" standalone="no"?>
<!DOCTYPE svg PUBLIC "-//W3C//DTD SVG 1.1//EN" "http://www.w3.org/Graphics/SVG/1.1/DTD/svg11.dtd" >
<svg xmlns="http://www.w3.org/2000/svg" xmlns:xlink="http://www.w3.org/1999/xlink" version="1.1">
<metadata>
Created by FontForge 20170910 at Wed Feb 28 16:53:47 2018
 By Jimmy Wärting
Copyright 2015 Indian Type Foundry. All rights reserved.
</metadata>
<defs>
<font id="KohinoorBangla-Semibold" horiz-adv-x="0" >
  <font-face 
    font-family="Kohinoor Bangla"
    font-weight="600"
    font-stretch="normal"
    units-per-em="1000"
    panose-1="2 0 0 0 0 0 0 0 0 0"
    ascent="800"
    descent="-200"
    x-height="557"
    cap-height="701"
    bbox="-598 -413 1501 1188"
    underline-thickness="50"
    underline-position="-100"
    stemh="92"
    stemv="114"
    unicode-range="U+000D-FB02"
  />
<missing-glyph horiz-adv-x="500" 
d="M0 0v700h500v-700h-500zM250 395l170 255h-340zM280 350l170 -255v510zM80 50h340l-170 255zM50 605v-510l170 255z" />
    <glyph glyph-name="fi" unicode="fi" horiz-adv-x="626" 
d="M533 745l-28 -92c-40 15 -111 24 -173 24c-82 0 -99 -29 -99 -80v-40h320v-557h-123v469h-199v-469h-123v469h-86v88h88v49c0 109 70 170 229 170c65 0 149 -8 194 -31z" />
    <glyph glyph-name="fl" unicode="fl" horiz-adv-x="658" 
d="M553 738v-579c0 -44 18 -60 50 -60c15 0 24 2 31 5v-99c-19 -8 -42 -13 -71 -13c-86 0 -133 50 -133 135v543c-29 5 -62 7 -98 7c-81 0 -99 -29 -99 -80v-40h106v-88h-108v-469h-123v469h-86v88h88v49c0 109 70 170 229 170c105 0 180 -18 214 -38z" />
    <glyph glyph-name="f_f" unicode="ff" horiz-adv-x="701" 
d="M432 557v56c0 17 2 34 6 50c-30 8 -66 14 -106 14c-82 0 -99 -29 -99 -80v-40h199zM705 766l-19 -101c-22 7 -45 10 -68 10c-46 0 -63 -21 -63 -64v-54h130v-88h-132v-469h-123v469h-199v-469h-123v469h-86v88h88v49c0 109 69 170 229 170c54 0 125 -13 160 -29
c29 19 68 30 117 30c40 0 66 -5 89 -11z" />
    <glyph glyph-name="f_f_i" unicode="ffi" horiz-adv-x="948" 
d="M432 557v49c0 20 2 39 7 56c-31 9 -65 15 -107 15c-82 0 -99 -29 -99 -80v-40h199zM855 745l-28 -92c-40 15 -111 24 -173 24c-82 0 -99 -29 -99 -80v-40h320v-557h-123v469h-199v-469h-123v469h-199v-469h-123v469h-86v88h88v49c0 109 69 170 229 170
c56 0 129 -14 165 -32c37 21 89 32 157 32c65 0 149 -8 194 -31z" />
    <glyph glyph-name="f_f_l" unicode="ffl" horiz-adv-x="980" 
d="M432 557v49c0 20 2 39 7 56c-31 9 -65 15 -107 15c-82 0 -99 -29 -99 -80v-40h199zM875 738v-579c0 -44 18 -60 50 -60c15 0 24 2 31 5v-99c-19 -8 -42 -13 -71 -13c-86 0 -133 50 -133 135v543c-29 5 -62 7 -98 7c-81 0 -99 -29 -99 -80v-40h106v-88h-108v-469h-123v469
h-199v-469h-123v469h-86v88h88v49c0 109 69 170 229 170c56 0 129 -14 165 -32c37 21 89 32 157 32c105 0 180 -18 214 -38z" />
    <glyph glyph-name=".notdef" horiz-adv-x="500" 
d="M0 0v700h500v-700h-500zM250 395l170 255h-340zM280 350l170 -255v510zM80 50h340l-170 255zM50 605v-510l170 255z" />
    <glyph glyph-name="NULL" 
 />
    <glyph glyph-name="NULL" 
 />
    <glyph glyph-name="CR" unicode="&#xd;" horiz-adv-x="283" 
 />
    <glyph glyph-name="space" unicode=" " horiz-adv-x="283" 
 />
    <glyph glyph-name="bnA" unicode="&#x985;" horiz-adv-x="927" 
d="M-20 568v92h967v-92h-107v-481l45 -28l-76 -74l-236 151c-44 -41 -106 -65 -182 -65c-199 0 -316 162 -369 385l103 48c39 -188 123 -331 266 -331c92 0 143 61 143 145c0 64 -32 103 -79 103c-36 0 -58 -22 -58 -55c0 -24 13 -45 40 -57l-76 -58c-51 20 -79 71 -79 124
c0 82 66 150 165 150c117 0 198 -89 198 -208c0 -35 -6 -68 -17 -97l106 -69l3 1c-7 41 -10 114 -10 172v244h-747z" />
    <glyph glyph-name="bnAA" unicode="&#x986;" horiz-adv-x="1217" 
d="M1019 744v17h110v-101h108v-92h-108v-568h-114v464c0 83 -31 104 -90 104h-85v-481l45 -28l-76 -74l-236 151c-44 -41 -106 -65 -182 -65c-199 0 -316 162 -369 385l103 48c39 -188 123 -331 266 -331c92 0 143 61 143 145c0 64 -32 103 -79 103c-36 0 -58 -22 -58 -55
c0 -24 13 -45 40 -57l-76 -58c-51 20 -79 71 -79 124c0 82 66 150 165 150c117 0 198 -89 198 -208c0 -35 -6 -68 -17 -97l106 -69l3 1c-7 41 -10 114 -10 172v244h-747v92h972c48 0 70 -22 81 -35h6c-10 26 -20 68 -20 119z" />
    <glyph glyph-name="bnI" unicode="&#x987;" horiz-adv-x="508" 
d="M62 370c0 86 68 155 180 155c119 0 198 -82 198 -196c0 -116 -79 -178 -186 -192v-4c36 -9 73 -26 137 -64l85 -50l-76 -76c-224 135 -249 155 -340 163v93h67c135 0 202 51 202 132c0 54 -33 92 -87 92c-40 0 -67 -24 -67 -61c0 -24 14 -45 41 -57l-78 -58
c-51 23 -76 70 -76 123zM6 941l109 19c-3 -12 -5 -25 -5 -37c0 -36 17 -72 96 -72h43c105 0 193 -54 193 -163c0 -9 0 -18 -2 -28h88v-92h-548v92h349c1 8 2 15 2 21c0 55 -33 74 -103 74h-28c-152 0 -196 78 -196 156c0 10 1 20 2 30z" />
    <glyph glyph-name="bnII" unicode="&#x988;" horiz-adv-x="683" 
d="M58 385c0 79 63 139 160 139c100 0 162 -61 180 -157l143 126l91 -40c-32 -75 -49 -176 -49 -292c0 -76 9 -125 18 -172h-102c-13 41 -21 107 -21 166c0 68 10 134 27 181l-107 -101c-21 -122 -97 -187 -188 -187c-96 0 -154 60 -175 116l86 55c15 -36 40 -72 90 -72
c64 0 93 68 93 159c0 77 -27 126 -81 126c-36 0 -58 -22 -58 -53c0 -25 11 -46 34 -57l-74 -55c-41 20 -67 64 -67 118zM703 568h-723v92h520c1 8 2 15 2 21c0 55 -34 74 -104 74h-145c-154 0 -205 80 -205 160c0 8 1 18 2 26l109 19c-2 -10 -3 -20 -3 -29
c0 -39 19 -80 103 -80h160c105 0 193 -54 193 -163c0 -9 0 -18 -2 -28h93v-92z" />
    <glyph glyph-name="bnU" unicode="&#x989;" horiz-adv-x="704" 
d="M38 941l109 19c-1 -10 -3 -20 -3 -29c0 -39 19 -80 103 -80h197c105 0 193 -54 193 -163c0 -9 -1 -18 -2 -28h84v-92h-349v-139c0 -30 12 -41 33 -41c29 0 105 34 169 86c46 -29 91 -97 91 -176c0 -141 -107 -251 -279 -251c-214 0 -343 175 -348 379l108 24
c3 -204 117 -300 240 -300c104 0 169 63 169 142c0 19 -5 37 -12 50c-38 -31 -96 -58 -153 -58c-86 0 -132 57 -132 140v144h-272v92h540c1 8 2 15 2 21c0 55 -34 74 -103 74h-181c-155 0 -206 80 -206 160c0 8 1 18 2 26z" />
    <glyph glyph-name="bnUU" unicode="&#x98a;" horiz-adv-x="720" 
d="M49 941l109 19c-2 -10 -3 -20 -3 -29c0 -39 18 -80 103 -80h199c105 0 193 -54 193 -163c0 -9 0 -18 -1 -28h91v-92h-350v-135c0 -31 13 -42 36 -42c22 0 69 15 161 85c49 -33 92 -104 92 -187c0 -132 -100 -240 -269 -240c-231 0 -362 168 -389 317l70 22
c12 -88 62 -208 183 -257l4 6c-98 54 -154 183 -155 309l76 20c-7 -205 80 -320 213 -320c105 0 160 66 160 142c0 25 -4 46 -12 60c-43 -33 -98 -58 -152 -58c-89 0 -132 59 -132 139v139h-296v92h558c1 8 1 15 1 21c0 55 -33 74 -103 74h-184c-154 0 -205 80 -205 160
c0 8 0 18 2 26z" />
    <glyph glyph-name="bnvR" unicode="&#x98b;" horiz-adv-x="779" 
d="M354 150h4c-3 41 -8 101 -8 164v57c-77 -22 -151 -72 -184 -106zM593 761h110v-101h96v-92h-96v-373l-98 -48l-145 89v-147l46 -28l-74 -76l-378 229v99c83 83 210 146 307 166v4c-34 28 -68 52 -87 69c-33 -55 -86 -87 -152 -87c-92 0 -144 60 -144 129c0 26 5 47 15 66
h105c-9 -15 -16 -34 -16 -52c0 -32 22 -51 53 -51c36 0 76 18 110 110h37c26 -17 53 -37 75 -56c-5 24 -8 57 -8 120v30h111v-406l140 -87l4 1c-6 23 -11 84 -11 155v337z" />
    <glyph glyph-name="bnvRR" unicode="&#x9e0;" horiz-adv-x="779" 
d="M354 150h4c-3 41 -8 101 -8 164v57c-77 -22 -151 -72 -184 -106zM593 761h110v-101h96v-92h-96v-373l-98 -48l-145 89v-147l46 -28l-74 -76l-110 66l-58 -59l203 -124l-71 -73l-288 174l131 133l-185 112v99c83 83 210 146 307 166v4c-34 28 -68 52 -87 69
c-33 -55 -86 -87 -152 -87c-92 0 -144 60 -144 129c0 26 5 47 15 66h105c-9 -15 -16 -34 -16 -52c0 -32 22 -51 53 -51c36 0 76 18 110 110h37c26 -17 53 -37 75 -56c-5 24 -8 57 -8 120v30h111v-406l140 -87l4 1c-6 23 -11 84 -11 155v337z" />
    <glyph glyph-name="bnvL" unicode="&#x98c;" horiz-adv-x="640" 
d="M136 700c0 15 2 30 5 41l110 19c-1 -2 -6 -16 -6 -36c0 -180 355 -111 355 -446c0 -182 -145 -276 -324 -284l-50 73c54 45 82 104 82 173c0 57 -26 96 -79 96c-38 0 -66 -21 -66 -61s30 -58 68 -61l-25 -88c-83 5 -150 51 -150 149c0 105 77 158 167 158
c115 0 181 -83 181 -191c0 -50 -11 -96 -36 -140c79 24 123 87 123 177c0 254 -355 176 -355 421z" />
    <glyph glyph-name="bnvLL" unicode="&#x9e1;" horiz-adv-x="640" 
d="M491 279c0 254 -355 176 -355 421c0 15 2 30 5 41l110 19c-1 -2 -6 -16 -6 -36c0 -180 355 -111 355 -446c0 -182 -145 -276 -324 -284l-50 73c54 45 82 104 82 173c0 57 -26 96 -79 96c-38 0 -66 -21 -66 -61s30 -58 68 -61l-25 -88c-83 5 -150 51 -150 149
c0 105 77 158 167 158c115 0 181 -83 181 -191c0 -50 -11 -96 -36 -140c79 24 123 87 123 177zM545 -1c0 35 16 62 37 82l67 -41c-13 -14 -18 -28 -18 -48c0 -56 41 -88 41 -160c0 -116 -84 -157 -230 -157c-22 0 -44 2 -67 4l-16 73c69 7 115 26 115 88c0 24 -11 43 -39 43
c-23 0 -36 -14 -36 -34c0 -10 5 -23 15 -33l-55 -33c-22 22 -34 49 -34 75c0 64 48 100 103 100c77 0 114 -57 114 -117c0 -37 -11 -68 -35 -93c53 8 86 32 86 86c0 63 -48 102 -48 165z" />
    <glyph glyph-name="bnE" unicode="&#x98f;" horiz-adv-x="736" 
d="M509 569c19 0 30 -10 30 -32v-189c0 -149 5 -189 10 -214h-4c-31 25 -74 32 -134 32c-32 0 -71 -2 -106 -2c-109 0 -146 40 -146 88c0 30 12 56 31 75l-106 43c-14 -18 -40 -61 -40 -118c0 -114 85 -187 232 -187c31 0 90 2 123 2c109 0 138 -30 144 -67h106v546
c0 77 -41 124 -133 124c-151 0 -274 -148 -274 -259c0 -83 51 -140 144 -140c36 0 75 12 99 33l-38 82c-8 -8 -27 -20 -51 -20c-29 0 -45 13 -45 47c0 64 90 156 158 156z" />
    <glyph glyph-name="bnAI" unicode="&#x990;" horiz-adv-x="818" 
d="M543 0c-6 37 -35 67 -144 67c-33 0 -92 -2 -123 -2c-147 0 -232 73 -232 187c0 57 26 100 40 118l106 -43c-19 -19 -31 -45 -31 -75c0 -48 37 -88 146 -88c35 0 74 2 106 2c60 0 103 -7 134 -32h4c-5 25 -10 65 -10 214v189c0 22 -11 32 -30 32c-68 0 -158 -92 -158 -156
c0 -34 16 -47 45 -47c24 0 43 12 51 20l38 -82c-24 -21 -63 -33 -99 -33c-93 0 -144 57 -144 140c0 111 123 259 274 259c92 0 133 -47 133 -124v-31c35 10 64 39 64 86c0 57 -44 90 -114 111l-198 61c-96 30 -175 90 -175 185c0 42 18 75 38 98l103 -41
c-17 -18 -25 -36 -25 -59c0 -46 41 -72 118 -96l159 -49c140 -44 205 -112 205 -210c0 -89 -67 -171 -175 -184v-417h-106z" />
    <glyph glyph-name="bnO" unicode="&#x993;" horiz-adv-x="623" 
d="M151 587c42 46 101 82 183 82c101 0 191 -64 191 -174c0 -52 -20 -96 -53 -130c51 -31 104 -84 104 -171c0 -103 -74 -194 -210 -194c-194 0 -302 208 -344 375l103 42c36 -175 129 -311 240 -311c64 0 98 40 98 93s-41 89 -80 107c-21 -9 -44 -17 -69 -23l-56 92
c108 23 156 68 156 122c0 47 -34 71 -78 71s-82 -26 -111 -57z" />
    <glyph glyph-name="bnAU" unicode="&#x994;" horiz-adv-x="766" 
d="M622 570c0 165 -342 157 -342 374c0 40 14 70 34 94l104 -42c-16 -17 -23 -33 -23 -55c0 -133 341 -138 341 -372c0 -136 -108 -200 -219 -200c-12 0 -27 0 -40 2c-2 -2 -4 -4 -5 -6c51 -31 104 -84 104 -171c0 -103 -74 -194 -210 -194c-194 0 -302 208 -344 375l103 42
c36 -175 129 -311 240 -311c64 0 98 40 98 93s-41 89 -80 107c-21 -9 -44 -17 -69 -23l-56 92c108 23 156 68 156 122c0 47 -34 71 -78 71s-82 -26 -111 -57l-74 76c42 46 101 82 183 82c101 0 191 -64 191 -174c0 -15 -2 -29 -5 -42c63 12 102 54 102 117z" />
    <glyph glyph-name="bnmAA" unicode="&#x9be;" horiz-adv-x="290" 
d="M92 744v17h110v-101h108v-92h-108v-568h-114v464c0 83 -31 104 -90 104h-18v92h45c48 0 70 -22 81 -35h6c-10 26 -20 68 -20 119z" />
    <glyph glyph-name="bnmI" unicode="&#x9bf;" horiz-adv-x="289" 
d="M626 753l65 81c-76 62 -201 123 -347 123c-166 0 -256 -102 -256 -226v-71h-108v-92h108v-568h114v568h107v92h-107v63c0 78 50 132 144 132c100 0 204 -41 280 -102z" />
    <glyph glyph-name="bnmII" unicode="&#x9c0;" horiz-adv-x="290" 
d="M-99 830l12 -9v-161h-104v66c-26 -9 -78 -17 -123 -17c-126 0 -208 55 -208 144c0 91 90 155 244 155c266 0 466 -139 480 -348h108v-92h-108v-568h-114v568h-108v92h107c-14 173 -166 252 -358 252c-96 0 -134 -26 -134 -61c0 -27 24 -52 116 -52c82 0 141 16 190 31z
" />
    <glyph glyph-name="bnmU" unicode="&#x9c1;" 
d="M-285 -257c54 0 85 49 85 113v14c-27 12 -55 19 -83 19c-53 0 -85 -30 -85 -76c0 -42 33 -70 83 -70zM24 -324c-39 46 -78 89 -119 125c-19 -86 -77 -148 -193 -148c-115 0 -186 71 -186 161c0 100 77 165 174 165c35 0 68 -5 100 -15v86h112v-140
c69 -45 131 -108 187 -173z" />
    <glyph glyph-name="bnmUU" unicode="&#x9c2;" 
d="M-58 -287c24 -22 68 -65 89 -89l74 61c-47 55 -116 119 -169 158c-38 -58 -83 -101 -154 -101c-51 0 -83 30 -83 73c0 49 40 81 108 81c38 0 83 -7 105 -14v168h-112v-71c-16 1 -37 1 -50 0c-90 -7 -158 -73 -158 -165c0 -90 71 -161 186 -161c88 0 135 32 164 60z" />
    <glyph glyph-name="bnmvR" unicode="&#x9c3;" 
d="M-88 0l-92 48l-180 -185l346 -172l65 75l-245 122z" />
    <glyph glyph-name="bnmvRR" unicode="&#x9c4;" 
d="M14 -20l-128 -137l168 -118l60 52l-108 76l80 87zM-252 -39l-161 -164l247 -175l75 64l-174 124l95 98z" />
    <glyph glyph-name="bnmvL" unicode="&#x9e2;" 
d="M-40 -90c0 35 16 62 37 82l67 -41c-13 -13 -18 -28 -18 -47c0 -56 41 -89 41 -160c0 -117 -84 -157 -230 -157c-22 0 -44 1 -67 4l-16 72c69 8 115 27 115 89c0 23 -11 43 -39 43c-23 0 -36 -15 -36 -34c0 -11 5 -23 15 -33l-55 -33c-22 22 -34 49 -34 75
c0 63 48 100 103 100c77 0 114 -57 114 -117c0 -38 -11 -69 -36 -94c54 8 87 32 87 86c0 63 -48 102 -48 165z" />
    <glyph glyph-name="bnmvLL" unicode="&#x9e3;" 
d="M-40 -90c0 35 16 62 37 82l67 -41c-13 -13 -18 -28 -18 -47c0 -25 8 -45 17 -66c15 12 35 23 60 23c58 0 86 -45 86 -89c0 -22 -6 -39 -17 -53c36 8 58 27 58 61c0 48 -36 77 -36 124c0 27 11 46 27 61l51 -30c-10 -10 -14 -21 -14 -36c0 -41 31 -66 31 -120
c0 -80 -58 -116 -170 -116h-19l-3 14l-8 39c25 7 49 24 49 56c0 21 -14 32 -34 32c-16 0 -30 -7 -42 -18c3 -13 5 -26 5 -42c0 -117 -84 -157 -230 -157c-22 0 -44 1 -67 4l-16 72c69 8 115 27 115 89c0 23 -11 43 -39 43c-23 0 -36 -15 -36 -34c0 -11 5 -23 15 -33l-55 -33
c-22 22 -34 49 -34 75c0 63 48 100 103 100c77 0 114 -57 114 -117c0 -38 -11 -69 -36 -94c54 8 87 32 87 86c0 63 -48 102 -48 165z" />
    <glyph glyph-name="bnmE" unicode="&#x9c7;" horiz-adv-x="294" 
d="M294 68l-53 -91c-116 40 -193 151 -193 314c0 105 31 204 70 277h-138v92h334v-92h-74c-43 -71 -79 -169 -79 -278c0 -112 45 -185 133 -222z" />
    <glyph glyph-name="bnmAI" unicode="&#x9c8;" horiz-adv-x="294" 
d="M-31 960c-2 -10 -3 -20 -3 -29c0 -39 24 -70 117 -81c125 -14 193 -63 193 -164c0 -8 0 -17 -1 -26h39v-92h-74c-43 -71 -79 -169 -79 -278c0 -112 45 -185 133 -222l-53 -91c-116 40 -193 151 -193 314c0 105 31 204 70 277h-138v92h184c1 7 1 13 1 19
c0 46 -29 66 -99 74c-161 17 -209 82 -209 162c0 8 1 18 2 26z" />
    <glyph glyph-name="bnmO" unicode="&#x9cb;" horiz-adv-x="1244" 
d="M294 68l-53 -91c-116 40 -193 151 -193 314c0 105 31 204 70 277h-138v92h334v-92h-74c-43 -71 -79 -169 -79 -278c0 -112 45 -185 133 -222zM433 517c0 25 18 44 44 44s44 -19 44 -44c0 -26 -18 -45 -44 -45s-44 19 -44 45zM351 407c0 25 20 44 46 44
c24 0 44 -19 44 -44s-20 -44 -44 -44c-26 0 -46 19 -46 44zM338 281c0 26 19 45 44 45c26 0 44 -19 44 -45c0 -25 -18 -43 -44 -43c-25 0 -44 18 -44 43zM390 165c0 25 18 44 44 44c25 0 44 -19 44 -44c0 -26 -19 -44 -44 -44c-26 0 -44 18 -44 44zM491 90c0 24 19 44 45 44
c25 0 44 -20 44 -44c0 -26 -19 -46 -44 -46c-26 0 -45 20 -45 46zM618 74c0 26 18 44 44 44s45 -18 45 -44s-19 -44 -45 -44s-44 18 -44 44zM739 127c0 25 19 44 44 44s45 -19 45 -44c0 -26 -20 -44 -45 -44s-44 18 -44 44zM812 225c0 26 19 45 45 45c24 0 43 -19 43 -45
c0 -25 -19 -44 -43 -44c-26 0 -45 19 -45 44zM822 359c0 26 18 44 44 44c25 0 44 -18 44 -44s-19 -44 -44 -44c-26 0 -44 18 -44 44zM772 477c0 26 19 45 44 45c26 0 44 -19 44 -45c0 -25 -18 -44 -44 -44c-25 0 -44 19 -44 44zM677 545c0 26 19 45 45 45
c25 0 43 -19 43 -45c0 -24 -18 -44 -43 -44c-26 0 -45 20 -45 44zM551 560c0 26 18 44 44 44s44 -18 44 -44s-18 -44 -44 -44s-44 18 -44 44zM1046 744v17h110v-101h108v-92h-108v-568h-114v464c0 83 -31 104 -90 104h-18v92h45c48 0 70 -22 81 -35h6c-10 26 -20 68 -20 119
z" />
    <glyph glyph-name="bnmAU" unicode="&#x9cc;" horiz-adv-x="1244" 
d="M294 68l-53 -91c-116 40 -193 151 -193 314c0 105 31 204 70 277h-138v92h334v-92h-74c-43 -71 -79 -169 -79 -278c0 -112 45 -185 133 -222zM433 517c0 25 18 44 44 44s44 -19 44 -44c0 -26 -18 -45 -44 -45s-44 19 -44 45zM351 407c0 25 20 44 46 44
c24 0 44 -19 44 -44s-20 -44 -44 -44c-26 0 -46 19 -46 44zM338 281c0 26 19 45 44 45c26 0 44 -19 44 -45c0 -25 -18 -43 -44 -43c-25 0 -44 18 -44 43zM390 165c0 25 18 44 44 44c25 0 44 -19 44 -44c0 -26 -19 -44 -44 -44c-26 0 -44 18 -44 44zM491 90c0 24 19 44 45 44
c25 0 44 -20 44 -44c0 -26 -19 -46 -44 -46c-26 0 -45 20 -45 46zM618 74c0 26 18 44 44 44s45 -18 45 -44s-19 -44 -45 -44s-44 18 -44 44zM739 127c0 25 19 44 44 44s45 -19 45 -44c0 -26 -20 -44 -45 -44s-44 18 -44 44zM812 225c0 26 19 45 45 45c24 0 43 -19 43 -45
c0 -25 -19 -44 -43 -44c-26 0 -45 19 -45 44zM822 359c0 26 18 44 44 44c25 0 44 -18 44 -44s-19 -44 -44 -44c-26 0 -44 18 -44 44zM772 477c0 26 19 45 44 45c26 0 44 -19 44 -45c0 -25 -18 -44 -44 -44c-25 0 -44 19 -44 44zM677 545c0 26 19 45 45 45
c25 0 43 -19 43 -45c0 -24 -18 -44 -43 -44c-26 0 -45 20 -45 44zM551 560c0 26 18 44 44 44s44 -18 44 -44s-18 -44 -44 -44s-44 18 -44 44zM1042 683v-23h-108v-92h108v-568h114v568h108v92h-108v31c0 109 -88 167 -195 167h-58c-84 0 -103 41 -103 80c0 9 2 19 3 29
l-109 -19c-1 -8 -2 -18 -2 -26c0 -80 51 -160 206 -160h49c74 0 95 -25 95 -79z" />
    <glyph glyph-name="bnAUlengthmark" unicode="&#x9d7;" horiz-adv-x="290" 
d="M88 683v-23h-108v-92h108v-568h114v568h108v92h-108v31c0 109 -88 167 -195 167h-58c-84 0 -103 41 -103 80c0 9 2 19 3 29l-109 -19c-1 -8 -2 -18 -2 -26c0 -80 51 -160 206 -160h49c74 0 95 -25 95 -79z" />
    <glyph glyph-name="bnKA" unicode="&#x995;" horiz-adv-x="720" 
d="M497 192l72 -82c67 34 110 99 110 179c0 102 -79 200 -234 207v72h295v92h-760v-92h354v-78c-113 -17 -212 -70 -293 -134v-99l372 -268l81 67l-49 34v306c83 -4 128 -48 128 -104c0 -47 -34 -85 -76 -100zM150 303c50 36 113 70 184 84v-38c0 -57 2 -127 8 -185h-4z" />
    <glyph glyph-name="bnKHA" unicode="&#x996;" horiz-adv-x="701" 
d="M500 369v392h113v-101h108v-92h-108v-477l51 -24l-72 -83l-547 251v97c197 11 272 75 272 150c0 21 -6 38 -18 50c-25 -56 -73 -100 -149 -100c-86 0 -152 59 -152 139c0 40 14 72 27 89h110c-15 -24 -25 -53 -25 -81c0 -29 17 -50 52 -50c46 0 76 42 108 131h49
c51 -37 102 -100 102 -180c0 -105 -64 -178 -194 -207v-4l277 -129l3 1c-5 75 -7 136 -7 228z" />
    <glyph glyph-name="bnGA" unicode="&#x997;" horiz-adv-x="666" 
d="M464 761h115v-101h107v-92h-107v-568h-115v367c0 112 -71 187 -179 187c-64 0 -113 -33 -139 -66c20 8 48 11 70 11c73 0 146 -48 146 -142c0 -89 -69 -175 -173 -233l-85 85c89 45 143 99 143 152c0 36 -26 60 -69 60c-29 0 -60 -6 -85 -16l-73 79
c37 93 133 176 256 176c107 0 173 -51 205 -91h4c-12 33 -21 92 -21 156v36z" />
    <glyph glyph-name="bnGHA" unicode="&#x998;" horiz-adv-x="639" 
d="M534 -15l-478 215v93l47 29c45 27 78 36 81 37v5c-77 11 -133 52 -133 125c0 32 12 60 28 79h-99v92h679v-92h-108v-479l51 -23zM445 136l4 1c-7 41 -12 103 -12 162v269h-233c-24 -18 -38 -45 -38 -74c0 -40 30 -71 85 -71c26 0 51 7 85 29l44 -90l-191 -109z" />
    <glyph glyph-name="bnNGA" unicode="&#x999;" horiz-adv-x="711" 
d="M364 529v-44c12 -3 24 -4 37 -4c46 0 68 22 68 58c0 26 -19 48 -53 48c-33 0 -52 -20 -52 -58zM392 -3c-216 0 -352 172 -355 368l102 21c4 -200 128 -287 254 -287c107 0 170 64 170 131c0 21 -3 35 -10 46c-48 -29 -96 -50 -158 -50c-90 0 -138 57 -138 140v72
c-53 31 -95 78 -125 130h-152v92h224c12 -41 32 -83 61 -117c3 73 58 129 148 129c89 0 156 -58 156 -137c0 -87 -69 -136 -167 -136c-13 0 -26 1 -38 2v-34c0 -28 12 -42 38 -42c35 0 89 17 184 82c47 -32 87 -91 87 -170c0 -126 -103 -240 -281 -240z" />
    <glyph glyph-name="bnCA" unicode="&#x99a;" horiz-adv-x="536" 
d="M346 430l-54 20c-76 27 -104 57 -104 105v13h368v92h-576v-92h104v-427c0 -88 53 -146 155 -146c146 0 255 135 255 258c0 97 -56 144 -148 177zM189 393h4c13 -13 34 -29 75 -44l42 -15c53 -19 74 -43 74 -81c0 -84 -81 -157 -140 -157c-34 0 -49 18 -49 45v111
c0 86 -6 138 -6 141z" />
    <glyph glyph-name="bnCHA" unicode="&#x99b;" horiz-adv-x="612" 
d="M173 568c11 -31 78 -37 132 -64c21 5 43 7 60 7c106 0 191 -70 191 -188c0 -111 -75 -191 -235 -207v-4c35 -9 73 -25 129 -52l129 -63l-69 -81c-319 164 -338 170 -440 182v92h135c167 0 240 56 240 134c0 50 -25 81 -72 88c1 -4 1 -9 1 -14c0 -82 -69 -156 -169 -156
c-87 0 -138 46 -138 117v209h-87v92h652v-92h-459zM274 401c0 44 -73 40 -101 64v-101c0 -18 10 -31 33 -31c41 0 68 33 68 68z" />
    <glyph glyph-name="bnJA" unicode="&#x99c;" horiz-adv-x="855" 
d="M125 420l-105 -37c20 -193 150 -357 337 -357c144 0 220 95 220 190c0 53 -25 98 -57 129l-113 9c-33 3 -45 14 -45 34c0 36 34 77 97 121c24 -73 102 -153 232 -164c-26 -39 -49 -119 -49 -204v-151h113v143c0 88 21 167 54 225l-43 84h-28c-125 0 -179 66 -195 126h332
v92h-895v-92h398c-71 -49 -137 -117 -137 -198c0 -64 42 -102 124 -110l85 -7c6 -8 12 -20 12 -41c0 -42 -34 -82 -106 -82c-131 0 -219 130 -231 290z" />
    <glyph glyph-name="bnJHA" unicode="&#x99d;" horiz-adv-x="801" 
d="M360 152h4c-7 41 -10 111 -10 173v77c-85 -29 -165 -87 -198 -122zM599 761h114v-101h108v-92h-108v-375l-101 -48l-145 95v-151l46 -28l-75 -76l-398 245v94c51 53 171 149 314 187v57h-374v92h487v-301l138 -92h4c-7 41 -10 111 -10 174v320z" />
    <glyph glyph-name="bnNYA" unicode="&#x99e;" horiz-adv-x="995" 
d="M501 667c71 0 106 -33 119 -68c20 28 70 71 152 71c98 0 156 -57 156 -136c0 -55 -32 -98 -80 -112v-4c55 -13 93 -53 93 -116c0 -75 -55 -142 -157 -142c-53 0 -117 28 -141 60c8 -35 9 -101 9 -140v-80h-110c0 85 -56 113 -206 121c-210 11 -303 91 -303 211
c0 45 16 85 36 116l105 -37c-14 -20 -26 -47 -26 -80c0 -64 51 -104 196 -111c142 -7 174 -31 208 -57h4c-10 43 -17 111 -17 194v156c0 35 -16 52 -50 52c-70 0 -136 -67 -136 -130c0 -30 15 -50 47 -50c24 0 43 12 52 21l38 -81c-25 -21 -67 -31 -103 -31
c-97 0 -146 54 -146 134c0 116 109 239 260 239zM758 577c-52 0 -110 -48 -110 -159c0 -98 47 -163 121 -163c37 0 62 23 62 56c0 39 -31 60 -81 60h-25v92h24c45 0 69 24 69 63c0 31 -21 51 -60 51z" />
    <glyph glyph-name="bnTTA" unicode="&#x99f;" horiz-adv-x="554" 
d="M3 941l109 19c-2 -10 -3 -20 -3 -29c0 -39 18 -80 103 -80h77c105 0 193 -54 193 -163c0 -9 -1 -18 -2 -28h94v-92h-379v-360c0 -34 17 -59 57 -59c73 0 141 69 141 143c0 41 -19 66 -54 66c-18 0 -36 -9 -46 -23l-51 89c21 21 62 39 102 39c88 0 159 -60 159 -170
c0 -118 -107 -248 -260 -248c-105 0 -159 67 -159 154v369h-104v92h389c1 8 2 15 2 21c0 55 -34 74 -103 74h-62c-154 0 -205 80 -205 160c0 8 0 18 2 26z" />
    <glyph glyph-name="bnTTHA" unicode="&#x9a0;" horiz-adv-x="577" 
d="M535 237c0 117 -86 211 -199 331h261v92h-333c-34 44 -55 84 -55 125c0 47 34 76 92 70l-21 100c-112 6 -184 -65 -184 -164c0 -45 17 -90 49 -131h-165v-92h230l15 -18v-76c0 -111 -70 -171 -193 -203c2 -143 107 -266 265 -266c147 0 238 102 238 232zM161 215
c55 19 156 74 157 223c55 -63 106 -121 106 -202c0 -74 -50 -131 -125 -131c-89 0 -133 70 -138 110z" />
    <glyph glyph-name="bnDDA" unicode="&#x9a1;" horiz-adv-x="704" 
d="M724 568h-354v-139c0 -30 12 -41 33 -41c29 0 105 34 169 86c46 -29 91 -97 91 -176c0 -141 -107 -251 -279 -251c-214 0 -343 175 -348 379l108 24c3 -204 117 -300 240 -300c104 0 169 63 169 142c0 19 -5 37 -12 50c-38 -31 -96 -58 -153 -58c-86 0 -132 57 -132 140
v144h-276v92h744v-92z" />
    <glyph glyph-name="bnDDHA" unicode="&#x9a2;" horiz-adv-x="561" 
d="M195 568v-367c0 -34 18 -59 60 -59c73 0 146 68 146 147c0 41 -19 69 -55 69c-20 0 -39 -10 -49 -20l-46 90c21 17 56 35 99 35c91 0 160 -66 160 -174c0 -126 -105 -251 -255 -251c-115 0 -171 67 -171 154v376h-104v92h599v-92h-384z" />
    <glyph glyph-name="bnNNA" unicode="&#x9a3;" horiz-adv-x="643" 
d="M155 446c0 -60 40 -96 98 -96c31 0 58 13 75 27l37 -98c-28 -20 -71 -33 -114 -33c-133 0 -209 90 -209 200c0 122 80 213 222 213c100 0 161 -50 191 -96l4 2c-14 38 -16 87 -16 156v40h113v-101h107v-92h-107v-568h-116v304c0 128 -36 254 -165 254
c-77 0 -120 -45 -120 -112z" />
    <glyph glyph-name="bnTA" unicode="&#x9a4;" horiz-adv-x="706" 
d="M381 228l73 67c-26 11 -41 34 -41 60c0 35 25 56 58 56c52 0 79 -47 79 -113c0 -86 -54 -158 -148 -158c-148 0 -227 159 -262 357l-104 -46c48 -236 160 -413 367 -413c154 0 259 104 259 258c0 121 -71 218 -199 218c-98 0 -164 -63 -164 -151c0 -62 34 -113 82 -135z
M726 660h-746v-92h746v92z" />
    <glyph glyph-name="bnTHA" unicode="&#x9a5;" horiz-adv-x="699" 
d="M98 388l95 47c-15 14 -28 34 -28 60c0 39 27 67 73 67c50 0 80 -35 80 -81c0 -67 -57 -147 -263 -153v-106l535 -238l72 84l-51 23v477h108v92h-108v101h-114v-440c0 -56 2 -127 7 -185h-4l-279 126v4c144 28 208 121 208 216c0 118 -92 182 -194 182
c-109 0 -184 -69 -184 -167c0 -42 17 -83 47 -109z" />
    <glyph glyph-name="bnDA" unicode="&#x9a6;" horiz-adv-x="570" 
d="M476 0h-115v172c0 84 16 149 32 191c-68 -44 -149 -127 -202 -209l-110 42v372h-101v92h610v-92h-394v-243c47 58 142 134 228 167l91 -53c-28 -77 -39 -179 -39 -267v-172z" />
    <glyph glyph-name="bnDHA" unicode="&#x9a7;" horiz-adv-x="616" 
d="M304 553c-23 11 -47 15 -69 15c-42 0 -71 -20 -71 -61c0 -43 37 -69 101 -69c47 0 100 23 151 55v167h220v-92h-108v-477l48 -23l-67 -82l-445 215v96l56 33c36 22 74 37 74 37v5c-67 7 -141 50 -141 140c0 93 67 154 170 154c36 0 77 -8 113 -26zM427 141
c-7 58 -11 136 -11 194v47l-227 -126l234 -115h4z" />
    <glyph glyph-name="bnNA" unicode="&#x9a8;" horiz-adv-x="658" 
d="M189 213l-103 -43c-27 25 -46 61 -46 110c0 110 78 175 192 175c106 0 184 -60 229 -140h4c-3 26 -9 82 -9 163v90h-475v92h697v-92h-107v-568h-115v12c0 148 -87 338 -218 338c-52 0 -82 -26 -82 -71c0 -28 13 -51 33 -66z" />
    <glyph glyph-name="bnPA" unicode="&#x9aa;" horiz-adv-x="681" 
d="M159 520c67 -15 118 -60 145 -141l142 95c-31 59 -83 97 -157 97c-64 0 -107 -30 -130 -51zM593 0h-113v313c0 22 -1 44 -4 64l-293 -198l-55 83l93 62c-17 49 -45 105 -111 119c-11 3 -22 5 -35 5l-56 81c46 66 137 139 263 139c117 0 185 -62 215 -108l3 2
c-18 51 -21 117 -21 169v30h114v-101h108v-92h-108v-568z" />
    <glyph glyph-name="bnPHA" unicode="&#x9ab;" horiz-adv-x="787" 
d="M490 86v321c15 4 30 7 45 7c54 0 98 -29 98 -92c0 -52 -40 -83 -78 -95l60 -89c57 25 125 78 125 183c0 125 -96 194 -215 194c-55 0 -111 -14 -147 -33v-139c0 -58 4 -138 10 -196h-4l-220 131l128 98v79l-117 109v4h632v92h-827v-92h78v-32l126 -117l-130 -99v-97
l408 -239l73 76z" />
    <glyph glyph-name="bnBA" unicode="&#x9ac;" horiz-adv-x="562" 
d="M361 568v-51c-139 -40 -271 -141 -320 -192v-94l404 -246l75 76l-46 28v479h108v92h-602v-92h381zM361 408v-84c0 -62 3 -132 11 -173h-4l-211 129c32 34 122 97 204 128z" />
    <glyph glyph-name="bnBHA" unicode="&#x9ad;" horiz-adv-x="764" 
d="M25 434l99 50c38 -154 126 -346 317 -346c115 0 173 66 173 146c0 38 -11 65 -23 83h-4c-23 -59 -72 -113 -157 -113c-96 0 -150 62 -150 138c0 36 11 62 20 77l107 -15c-10 -15 -17 -36 -17 -55c0 -29 16 -47 48 -47c42 0 76 39 110 136h86c38 -33 90 -112 90 -208
c0 -137 -95 -249 -285 -249c-241 0 -360 206 -414 403zM784 568h-804v92h804v-92z" />
    <glyph glyph-name="bnMA" unicode="&#x9ae;" horiz-adv-x="609" 
d="M629 568h-107v-568h-106c-21 93 -85 187 -170 229c-22 -51 -61 -73 -96 -73c-45 0 -83 28 -83 79c0 48 33 89 88 102c-5 97 -65 180 -122 213v18h-53v92h649v-92zM416 210l3 1c0 18 -8 74 -8 185v172h-238v-5c30 -29 87 -114 90 -233c66 -21 121 -71 153 -120z" />
    <glyph glyph-name="bnYA" unicode="&#x9af;" horiz-adv-x="582" 
d="M175 568v-4l117 -109v-79l-128 -98l225 -132h4c-6 59 -11 138 -11 196v226h-207zM466 -16l-412 239v97l130 99l-126 117v32h-78v92h622v-92h-107v-482l44 -26z" />
    <glyph glyph-name="bnRA" unicode="&#x9b0;" horiz-adv-x="562" 
d="M77 -28c0 43 31 70 70 70s69 -27 69 -70s-30 -71 -69 -71s-70 28 -70 71zM361 568v-51c-139 -40 -271 -141 -320 -192v-94l404 -246l75 76l-46 28v479h108v92h-602v-92h381zM361 408v-84c0 -62 3 -132 11 -173h-4l-211 129c32 34 122 97 204 128z" />
    <glyph glyph-name="bnLA" unicode="&#x9b2;" horiz-adv-x="766" 
d="M348 89l-14 100c-18 -8 -39 -12 -59 -12c-65 0 -116 41 -116 114c0 60 38 90 78 90s72 -24 72 -84v-34h106v34c0 55 32 88 76 88c38 0 65 -24 74 -45v-340h113v568h108v92h-806v-92h585v-113h-5c-8 10 -37 31 -83 31c-60 0 -101 -42 -110 -84h-4c-12 35 -54 82 -136 82
c-94 0 -181 -72 -181 -195c0 -124 86 -211 224 -211c30 0 56 4 78 11z" />
    <glyph glyph-name="bnSHA" unicode="&#x9b6;" horiz-adv-x="711" 
d="M67 568h-87v92h91c70 0 127 -26 162 -70c38 44 94 71 159 71c81 0 119 -39 129 -53h4c-5 22 -12 72 -12 118v35h110v-101h108v-92h-108v-568h-113v433c0 86 -51 128 -118 128c-55 0 -104 -38 -104 -105c0 -63 47 -99 106 -99c13 0 26 1 39 6v-101c-3 -1 -18 -6 -45 -6
c-63 0 -121 26 -156 72c-35 -47 -90 -74 -155 -74c-29 0 -55 8 -59 9v100c14 -6 35 -8 54 -8c65 0 104 37 104 102c0 68 -40 111 -109 111z" />
    <glyph glyph-name="bnSSA" unicode="&#x9b7;" horiz-adv-x="600" 
d="M475 -15l-422 239v95l130 113l-132 104v32h-71v92h640v-92h-116v-484l44 -24zM168 568v-4l224 -175v179h-224zM402 143c-4 38 -7 86 -9 131l-123 96l-107 -92l235 -135h4z" />
    <glyph glyph-name="bnSA" unicode="&#x9b8;" horiz-adv-x="683" 
d="M171 123c-96 0 -151 60 -173 116l87 54c14 -33 36 -69 86 -69c49 0 73 38 73 84c0 73 -39 121 -93 178l-47 50v32h-124v92h722v-92h-106v-568h-116v257c0 28 -15 45 -42 45c-39 0 -68 -47 -109 -92c-44 -51 -99 -87 -158 -87zM483 399c-2 36 -3 92 -3 103v66h-256v-4
l37 -43c37 -46 63 -85 70 -132c2 -12 4 -26 4 -37c23 25 57 60 100 60c22 0 35 -5 48 -13z" />
    <glyph glyph-name="bnHA" unicode="&#x9b9;" horiz-adv-x="502" 
d="M255 132v4c106 14 186 77 186 193c0 114 -79 196 -198 196c-113 0 -182 -69 -182 -154c0 -53 26 -101 77 -123l77 58c-27 12 -40 33 -40 56c0 37 28 61 68 61c54 0 87 -38 87 -92c0 -81 -67 -132 -202 -132h-67v-93c91 -8 116 -28 339 -163l77 77l-84 50
c-65 38 -102 53 -138 62zM-20 568h542v92h-542v-92z" />
    <glyph glyph-name="bnK_SSA" horiz-adv-x="931" 
d="M951 568h-275v-131h22c135 0 200 -72 200 -169c0 -91 -57 -144 -113 -167l-60 83c33 11 68 40 68 85c0 49 -34 67 -89 67h-28v-347h-104c-19 84 -104 156 -209 171c-19 -60 -61 -84 -96 -84c-43 0 -77 27 -77 74c0 41 32 79 84 96c-7 53 -34 91 -75 112
c-20 -50 -58 -72 -92 -72c-43 0 -77 27 -77 75c0 44 31 80 82 93c-6 49 -29 87 -57 114h-75v92h971v-92zM576 152c-7 54 -11 127 -12 184h-45c-115 0 -179 59 -179 180v52h-166c21 -31 36 -72 38 -116c81 -23 154 -95 161 -199c101 -11 176 -64 203 -101zM513 436h51v132
h-117v-55c0 -61 28 -77 66 -77z" />
    <glyph glyph-name="bnJ_NYA" horiz-adv-x="876" 
d="M407 568c-42 -41 -81 -117 -81 -167c0 -30 27 -38 59 -42l121 -12c-62 46 -91 128 -95 221h-4zM695 47c-64 0 -111 25 -143 64c-33 -53 -96 -91 -189 -91c-187 0 -314 165 -334 359l101 35c12 -160 101 -290 231 -290c73 0 111 39 111 84c0 22 -6 34 -11 45l-104 10
c-84 9 -139 48 -139 127c0 64 31 134 61 178h-299v92h916v-92h-384c3 -49 16 -87 36 -118c30 40 75 65 136 65c89 0 141 -57 141 -127c0 -49 -28 -86 -70 -101v-4c44 -12 81 -48 81 -105c0 -67 -49 -131 -141 -131zM726 382c0 27 -20 45 -54 45c-47 0 -96 -43 -96 -143
c0 -89 40 -148 106 -148c33 0 55 21 55 50c0 36 -28 55 -72 55h-22v83h21c39 0 62 22 62 58z" />
    <glyph glyph-name="asRA" unicode="&#x9f0;" horiz-adv-x="574" 
d="M379 568v-46c-153 -41 -291 -148 -338 -198v-93l412 -250l78 80l-44 26v481h107v92h-614v-92h399zM156 283c12 12 32 29 57 46l170 -106c2 -30 4 -60 9 -81h-4zM382 420c-2 -37 -2 -78 -2 -116l-105 65c33 19 77 41 107 51z" />
    <glyph glyph-name="asWA" unicode="&#x9f1;" horiz-adv-x="562" 
d="M361 568v-51c-139 -40 -271 -141 -320 -192v-94l404 -246l75 76l-46 28v479h108v92h-602v-92h381zM361 408v-84c0 -62 3 -132 11 -173h-4l-211 129c32 34 122 97 204 128zM187 -62l70 77l-150 90l-67 -78z" />
    <glyph glyph-name="bnDDxA" unicode="&#x9dc;" horiz-adv-x="704" 
d="M311 -98c0 43 30 70 69 70c40 0 69 -27 69 -70s-29 -71 -69 -71c-39 0 -69 28 -69 71zM724 568h-354v-139c0 -30 12 -41 33 -41c29 0 105 34 169 86c46 -29 91 -97 91 -176c0 -141 -107 -251 -279 -251c-214 0 -343 175 -348 379l108 24c3 -204 117 -300 240 -300
c104 0 169 63 169 142c0 19 -5 37 -12 50c-38 -31 -96 -58 -153 -58c-86 0 -132 57 -132 140v144h-276v92h744v-92z" />
    <glyph glyph-name="bnDDHxA" unicode="&#x9dd;" horiz-adv-x="561" 
d="M179 -98c0 43 30 70 70 70c39 0 69 -27 69 -70s-30 -71 -69 -71c-40 0 -70 28 -70 71zM195 568v-367c0 -34 18 -59 60 -59c73 0 146 68 146 147c0 41 -19 69 -55 69c-20 0 -39 -10 -49 -20l-46 90c21 17 56 35 99 35c91 0 160 -66 160 -174c0 -126 -105 -251 -255 -251
c-115 0 -171 67 -171 154v376h-104v92h599v-92h-384z" />
    <glyph glyph-name="bnYxA" unicode="&#x9df;" horiz-adv-x="582" 
d="M85 -23c0 41 29 66 67 66c36 0 64 -25 64 -66c0 -40 -28 -67 -64 -67c-38 0 -67 27 -67 67zM175 568v-4l117 -109v-79l-128 -98l225 -132h4c-6 59 -11 138 -11 196v226h-207zM466 -16l-412 239v97l130 99l-126 117v32h-78v92h622v-92h-107v-482l44 -26z" />
    <glyph glyph-name="bnAnusvara" unicode="&#x982;" horiz-adv-x="471" 
d="M34 233l97 69l275 -248l-72 -59zM236 590c37 0 67 -33 67 -76c0 -42 -30 -69 -68 -69s-68 32 -68 75c1 43 30 70 69 70zM238 363c91 0 166 68 166 159c0 94 -76 149 -171 149c-91 0 -166 -67 -166 -159c0 -94 76 -149 171 -149z" />
    <glyph glyph-name="bnCandrabindu" unicode="&#x981;" 
d="M-140 820c66 0 110 31 134 79l81 -43c-35 -72 -112 -122 -215 -122c-102 0 -180 50 -215 122l80 43c25 -48 68 -79 135 -79zM-197 947c0 32 23 59 57 59s56 -27 56 -59c0 -33 -22 -59 -56 -59s-57 26 -57 59z" />
    <glyph glyph-name="bnVisarga" unicode="&#x983;" horiz-adv-x="455" 
d="M227 588c35 0 63 -31 63 -71s-29 -65 -64 -65s-63 30 -63 71c0 40 28 65 64 65zM229 371c88 0 160 66 160 154c0 91 -73 144 -165 144c-88 0 -160 -66 -160 -154c0 -91 73 -144 165 -144zM227 212c35 0 63 -31 63 -72c0 -40 -29 -65 -64 -65s-63 30 -63 71
c0 40 28 66 64 66zM229 -5c88 0 160 65 160 153c0 91 -73 144 -165 144c-88 0 -160 -66 -160 -154c0 -91 73 -143 165 -143z" />
    <glyph glyph-name="bnAvagraha" unicode="&#x9bd;" horiz-adv-x="484" 
d="M435 -4c-233 120 -295 155 -372 162v93h62c126 0 183 34 183 106c0 49 -28 84 -75 84c-38 0 -61 -24 -61 -58c0 -19 9 -40 35 -51l-69 -50c-48 21 -71 63 -71 110c0 51 27 95 75 120c-16 30 -48 56 -113 56h-22v92h22c117 0 184 -51 214 -129c103 -5 171 -77 171 -175
c0 -104 -70 -157 -171 -170v-4c31 -5 58 -16 128 -50l123 -58z" />
    <glyph glyph-name="bnVirama" unicode="&#x9cd;" 
d="M-150 -53l-60 -87l224 -155l60 81z" />
    <glyph glyph-name="bnNukta" unicode="&#x9bc;" 
d="M-542 -100c0 43 31 70 71 70c39 0 69 -27 69 -70c0 -44 -30 -72 -69 -72c-40 0 -71 28 -71 72z" />
    <glyph glyph-name="bnTAkhanda" unicode="&#x9ce;" horiz-adv-x="544" 
d="M264 428c54 0 84 27 84 67c0 41 -34 69 -84 69c-53 0 -90 -30 -108 -78c20 -37 61 -58 108 -58zM338 208c107 -38 176 -76 176 -178c0 -10 -1 -25 -2 -38l-110 -16c1 4 2 33 2 39c0 67 -51 80 -148 116c-136 52 -223 136 -223 276c0 150 85 251 227 251
c110 0 192 -62 192 -164c0 -99 -69 -156 -173 -156c-51 0 -98 14 -134 44c11 -99 91 -139 193 -174z" />
    <glyph glyph-name="bnZero" unicode="&#x9e6;" horiz-adv-x="628" 
d="M189 336c0 -103 45 -167 129 -167s124 60 124 160c0 104 -45 167 -130 167c-79 0 -123 -60 -123 -160zM313 70c-164 0 -236 114 -236 260c0 149 79 265 241 265c167 0 236 -113 236 -260c0 -152 -80 -265 -241 -265z" />
    <glyph glyph-name="bnOne" unicode="&#x9e7;" horiz-adv-x="535" 
d="M370 229c0 175 -282 180 -282 381c0 15 2 30 5 41l112 20c-1 -3 -6 -18 -6 -43c0 -160 283 -151 283 -399c0 -118 -69 -229 -233 -229c-133 0 -213 74 -213 171c0 73 41 112 91 130l58 -77c-21 -9 -34 -29 -34 -53c0 -37 32 -67 96 -67c86 0 123 59 123 125z" />
    <glyph glyph-name="bnTwo" unicode="&#x9e8;" horiz-adv-x="486" 
d="M76 610c1 -151 237 -149 237 -269c0 -56 -44 -88 -107 -88c-33 0 -70 11 -102 28l-27 14l-65 -84l382 -231l76 78l-81 49c-63 38 -95 53 -134 67v4c110 7 169 73 169 163c0 186 -239 190 -239 287c0 25 5 40 5 43l-110 -20c-2 -11 -4 -26 -4 -41z" />
    <glyph glyph-name="bnThree" unicode="&#x9e9;" horiz-adv-x="748" 
d="M384 276l81 61c-29 14 -49 39 -49 76c0 43 27 69 62 69c65 0 84 -74 84 -151c0 -103 -53 -190 -167 -190c-175 0 -231 184 -231 416l-103 -32c0 -293 111 -486 334 -486c178 0 279 126 279 290c0 135 -58 256 -203 256c-111 0 -166 -80 -166 -168c0 -66 32 -115 79 -141z
" />
    <glyph glyph-name="bnFour" unicode="&#x9ea;" horiz-adv-x="516" 
d="M363 491c0 47 -44 79 -105 79c-57 0 -103 -28 -103 -82c0 -55 45 -90 95 -106c61 26 113 54 113 109zM260 -10c-124 0 -228 63 -228 183c0 84 53 130 118 164c-61 29 -104 86 -104 153c0 116 97 178 211 178c117 0 215 -68 215 -177c0 -82 -46 -128 -105 -162
c67 -26 117 -79 117 -157c0 -121 -105 -182 -224 -182zM259 88c63 0 113 31 113 86c0 50 -44 89 -108 107c-63 -26 -118 -51 -118 -109c0 -55 49 -84 113 -84z" />
    <glyph glyph-name="bnFive" unicode="&#x9eb;" horiz-adv-x="633" 
d="M154 314c0 -136 122 -196 263 -212c-42 40 -63 97 -63 143c0 64 29 116 92 160c-78 22 -110 68 -111 132c-119 -40 -181 -119 -181 -223zM555 78l-19 -77c-326 0 -494 114 -494 316c0 186 148 314 357 347l36 -70c-2 -11 -4 -22 -4 -32c0 -70 48 -98 129 -104l28 -96
c-89 -27 -126 -75 -126 -136c0 -62 36 -108 93 -148z" />
    <glyph glyph-name="bnSix" unicode="&#x9ec;" horiz-adv-x="674" 
d="M114 622c21 20 62 38 102 38c86 0 151 -52 151 -163v-91c0 -30 12 -41 33 -41c35 0 87 32 152 86c46 -29 91 -100 91 -182c0 -149 -105 -250 -277 -250c-210 0 -347 173 -351 374l109 25c2 -206 125 -296 242 -296c104 0 167 57 167 142c0 18 -4 41 -12 55
c-37 -32 -78 -58 -136 -58c-86 0 -133 57 -133 140v92c0 41 -9 62 -39 62c-18 0 -37 -10 -48 -22z" />
    <glyph glyph-name="bnSeven" unicode="&#x9ed;" horiz-adv-x="586" 
d="M238 334c45 0 81 15 106 30v129c0 39 -21 62 -64 62c-71 0 -141 -64 -141 -140c0 -57 43 -81 99 -81zM344 164v94c-27 -15 -66 -27 -117 -27c-113 0 -198 61 -198 178c0 130 103 251 256 251c116 0 170 -68 170 -160v-333c0 -41 13 -62 43 -62c18 0 38 10 48 22l51 -89
c-20 -20 -62 -38 -102 -38c-89 0 -151 53 -151 164z" />
    <glyph glyph-name="bnEight" unicode="&#x9ee;" horiz-adv-x="740" 
d="M287 105c71 0 116 74 116 151c0 48 -25 82 -92 82c-36 0 -65 -12 -85 -25v-146c0 -39 22 -62 61 -62zM226 497v-79c27 14 61 25 101 25c57 0 102 -16 134 -45c14 21 39 33 81 33h10c46 0 62 14 62 60c0 7 -1 27 -6 38l107 -18c2 -10 6 -32 6 -56
c0 -82 -47 -129 -142 -129h-13c-33 0 -48 -13 -55 -29c2 -13 3 -28 3 -43c0 -124 -79 -254 -232 -254c-108 0 -168 68 -168 160v333c0 41 -12 62 -43 62c-17 0 -37 -10 -47 -22l-51 89c20 20 62 38 102 38c86 0 151 -50 151 -163z" />
    <glyph glyph-name="bnNine" unicode="&#x9ef;" horiz-adv-x="641" 
d="M495 240c0 201 -425 172 -425 377c0 15 1 30 4 41l112 20c0 -3 -5 -18 -5 -38c0 -139 424 -112 424 -399c0 -151 -111 -240 -258 -246l-58 61c20 32 29 73 29 105c0 74 -43 108 -99 108c-55 0 -91 -38 -91 -96c0 -50 25 -81 75 -83l-35 -95c-88 8 -146 75 -146 175
c0 115 73 196 193 196c118 0 199 -75 199 -188c0 -25 -2 -51 -11 -80c55 27 92 76 92 142z" />
    <glyph glyph-name="bnAnji" unicode="&#x980;" horiz-adv-x="586" 
d="M300 343l16 -96c-17 -6 -46 -13 -75 -13c-110 0 -192 58 -192 184c0 123 99 242 251 242c116 0 169 -68 169 -160v-333c0 -41 13 -62 43 -62c18 0 38 10 48 22l51 -89c-20 -20 -62 -38 -102 -38c-89 0 -151 53 -151 164v329c0 39 -19 62 -63 62c-71 0 -136 -61 -136 -138
c0 -55 36 -79 95 -79c15 0 33 2 46 5z" />
    <glyph glyph-name="bnTaka" unicode="&#x9f2;" horiz-adv-x="424" 
d="M12 428l23 102c227 -20 342 -184 370 -448l-100 -24c-33 235 -118 351 -293 370z" />
    <glyph glyph-name="bnBangladeshitaka" unicode="&#x9f3;" horiz-adv-x="659" 
d="M493 293c0 40 -21 63 -56 63c-16 0 -33 -7 -42 -17l-51 88c22 19 61 34 98 34c88 0 159 -57 159 -167c0 -155 -87 -294 -267 -294c-115 0 -197 57 -197 173v176h-88v90h88v49c0 53 -16 72 -63 72h-24v100c12 1 28 2 39 2c111 0 160 -64 160 -171v-52h55v-90h-55v-176
c0 -53 38 -73 85 -73c100 0 159 83 159 193z" />
    <glyph glyph-name="bnNumeratorone" unicode="&#x9f4;" horiz-adv-x="412" 
d="M102 22l-74 77c139 129 215 294 275 498l95 -33c-53 -206 -155 -422 -296 -542z" />
    <glyph glyph-name="bnNumeratortwo" unicode="&#x9f5;" horiz-adv-x="685" 
d="M355 22l-82 66c20 32 27 74 27 106c0 70 -35 108 -91 108c-39 0 -64 -23 -64 -61c0 -23 13 -44 41 -56l-77 -58c-50 24 -76 70 -76 123c0 85 59 154 172 154c115 0 181 -77 185 -179c76 108 124 232 166 372l95 -34c-53 -206 -164 -427 -296 -541z" />
    <glyph glyph-name="bnNumeratorthree" unicode="&#x9f6;" horiz-adv-x="650" 
d="M183 334l-87 -37c-20 20 -32 53 -32 85c0 81 57 139 151 139c101 0 152 -67 152 -151c0 -96 -44 -161 -157 -170c-47 -3 -72 -17 -72 -49c0 -38 39 -51 86 -51c212 0 279 269 279 523l102 -11c0 -267 -70 -609 -378 -609c-107 0 -192 49 -192 147c0 74 47 123 146 134
c68 8 90 34 90 88c0 34 -17 59 -54 59c-33 0 -51 -21 -51 -51c0 -18 5 -30 17 -46z" />
    <glyph glyph-name="bnNumeratorfour" unicode="&#x9f7;" horiz-adv-x="290" 
d="M202 660h-114v-660h114v660z" />
    <glyph glyph-name="bnNumeratoroneless" unicode="&#x9f8;" horiz-adv-x="595" 
d="M81 584h115v-276l228 183l90 -52v-391h-119v271l-205 -165l-109 43v387z" />
    <glyph glyph-name="bnDenominatorsixteen" unicode="&#x9f9;" horiz-adv-x="577" 
d="M90 333c0 120 81 200 199 200c119 0 202 -80 202 -200c0 -119 -83 -200 -202 -200c-118 0 -199 81 -199 200zM200 333c0 -58 33 -95 89 -95c58 0 90 38 90 95s-32 95 -90 95c-56 0 -89 -38 -89 -95z" />
    <glyph glyph-name="bnIsshar" unicode="&#x9fa;" horiz-adv-x="658" 
d="M208 427c0 41 30 71 68 71c40 0 70 -30 70 -71c0 -37 -30 -67 -70 -67c-38 0 -68 30 -68 67zM277 157c-132 0 -222 80 -258 167l89 52c26 -53 76 -117 169 -117c136 0 204 126 259 265l92 -47c-56 -158 -142 -320 -351 -320z" />
    <glyph glyph-name="bnGanda" unicode="&#x9fb;" horiz-adv-x="292" 
d="M404 -94l-64 -85l-215 157c-72 53 -110 108 -110 186c0 94 55 183 203 198l27 -101c-80 -10 -119 -46 -119 -99c0 -45 26 -71 65 -100z" />
    <glyph glyph-name="danda" unicode="&#x964;" horiz-adv-x="517" 
d="M317 0h-117v661h117v-661z" />
    <glyph glyph-name="doubledanda" unicode="&#x965;" horiz-adv-x="773" 
d="M317 0h-117v661h117v-661zM573 0h-118v661h118v-661z" />
    <glyph glyph-name="indianrupee" unicode="&#x20b9;" horiz-adv-x="523" 
d="M401 10v-10h-145l-157 189l-66 65l25 92c88 -22 187 -5 208 80h-224v88h219c-16 41 -56 62 -116 62h-103v88h483l-41 -88h-150v-4c15 -9 35 -27 48 -58h143l-41 -88h-93c-16 -117 -135 -166 -213 -163l-1 -4c27 -24 55 -54 81 -84z" />
    <glyph glyph-name="uni200C" unicode="&#x200c;" 
d="M24 -230h-47v1041h47v-1041z" />
    <glyph glyph-name="uni200D" unicode="&#x200d;" 
d="M128 593l-33 -33l-72 75v-865h-47v865l-69 -73l-33 33l93 93l-95 95l33 33l95 -95l96 95l32 -32l-96 -96z" />
    <glyph glyph-name="uni25CC" unicode="&#x25cc;" horiz-adv-x="660" 
d="M139 517c0 25 18 44 44 44s44 -19 44 -44c0 -26 -18 -45 -44 -45s-44 19 -44 45zM57 407c0 25 20 44 46 44c24 0 44 -19 44 -44s-20 -44 -44 -44c-26 0 -46 19 -46 44zM44 281c0 26 19 45 44 45c26 0 44 -19 44 -45c0 -25 -18 -43 -44 -43c-25 0 -44 18 -44 43zM96 165
c0 25 18 44 44 44c25 0 44 -19 44 -44c0 -26 -19 -44 -44 -44c-26 0 -44 18 -44 44zM197 90c0 24 19 44 45 44c25 0 44 -20 44 -44c0 -26 -19 -46 -44 -46c-26 0 -45 20 -45 46zM324 74c0 26 18 44 44 44s45 -18 45 -44s-19 -44 -45 -44s-44 18 -44 44zM445 127
c0 25 19 44 44 44s45 -19 45 -44c0 -26 -20 -44 -45 -44s-44 18 -44 44zM518 225c0 26 19 45 45 45c24 0 43 -19 43 -45c0 -25 -19 -44 -43 -44c-26 0 -45 19 -45 44zM528 359c0 26 18 44 44 44c25 0 44 -18 44 -44s-19 -44 -44 -44c-26 0 -44 18 -44 44zM478 477
c0 26 19 45 44 45c26 0 44 -19 44 -45c0 -25 -18 -44 -44 -44c-25 0 -44 19 -44 44zM383 545c0 26 19 45 45 45c25 0 43 -19 43 -45c0 -24 -18 -44 -43 -44c-26 0 -45 20 -45 44zM257 560c0 26 18 44 44 44s44 -18 44 -44s-18 -44 -44 -44s-44 18 -44 44z" />
    <glyph glyph-name="bnNull" 
 />
    <glyph glyph-name="bnReph" 
d="M-201 794l315 222l54 -78l-316 -228z" />
    <glyph glyph-name="bnRAc2" 
d="M-196 132h109v-329h-106c-7 56 -36 90 -99 90c-40 0 -59 -3 -110 -3c-153 0 -194 107 -196 208l111 19c-2 -60 17 -129 95 -129c31 0 66 4 95 4c43 0 84 -15 110 -47h4c-8 29 -13 78 -13 119v68z" />
    <glyph glyph-name="bnYAc2" horiz-adv-x="271" 
d="M98 568v-4c-21 -20 -47 -56 -47 -119c0 -106 61 -172 61 -269c0 -52 -23 -99 -88 -145l82 -67c73 46 118 125 118 208c0 109 -58 176 -58 274c0 83 50 122 102 122h23v92h-311v-92h118z" />
    <glyph glyph-name="bnBAc2" 
d="M-195 139h107v-348l57 -25l-69 -77l-376 179v105c92 64 189 114 281 145v21zM-192 -159h5c-6 54 -8 114 -8 169c-56 -23 -112 -51 -170 -85z" />
    <glyph glyph-name="bnK" horiz-adv-x="707" 
d="M727 568h-298v-34c161 -8 228 -94 228 -175c0 -91 -58 -140 -115 -162l-56 83c33 9 68 32 68 79c0 49 -45 76 -125 80v-285l-86 1l-292 129v100c53 52 150 120 271 143v41h-342v92h747v-92zM330 266c-5 51 -8 109 -8 162c-65 -18 -124 -54 -166 -88l169 -74h5z" />
    <glyph glyph-name="bnKH" horiz-adv-x="633" 
d="M550 142h-94l-443 147v92c194 1 270 51 270 128c0 19 -6 34 -16 44c-23 -54 -68 -92 -138 -92c-85 0 -136 53 -136 129c0 24 6 49 15 70h99c-12 -20 -18 -43 -18 -64c0 -29 17 -48 52 -48c42 0 69 41 91 112h70c40 -35 75 -90 75 -153c0 -95 -50 -156 -178 -179v-6
l243 -80l4 2c-5 70 -8 127 -8 214v303h112v-101h103v-92h-103v-426z" />
    <glyph glyph-name="bnG" horiz-adv-x="610" 
d="M522 761v-101h111v-92h-111v-366h-100v205c0 101 -65 170 -163 170c-59 0 -103 -31 -126 -62c18 7 44 11 64 11c66 0 130 -43 130 -126c0 -73 -56 -141 -138 -189l-72 76c66 35 109 74 109 117c0 31 -23 51 -61 51c-34 0 -67 -7 -94 -21l-67 68c31 82 125 168 247 168
c98 0 157 -48 185 -83h4c-10 29 -18 82 -18 140v34h100z" />
    <glyph glyph-name="bnGH" horiz-adv-x="580" 
d="M384 119l-337 125v86l42 25c41 25 71 33 74 35v4c-69 9 -120 46 -120 112c0 24 8 45 19 62h-82v92h620v-92h-108v-449h-108zM397 211l4 1c-7 39 -10 96 -10 150v206h-220c-16 -15 -25 -35 -25 -57c0 -38 27 -64 74 -64c27 0 49 7 80 27l40 -81l-173 -99z" />
    <glyph glyph-name="bnNG" horiz-adv-x="672" 
d="M342 546v-42c11 -2 22 -3 34 -3c43 0 65 23 65 55c0 26 -20 44 -50 44c-31 0 -49 -18 -49 -54zM370 91c-198 0 -320 150 -326 324l93 19c7 -177 117 -254 234 -254c98 0 153 51 153 110c0 19 -3 32 -10 42c-41 -28 -86 -51 -143 -51c-81 0 -122 51 -122 125v55
c-46 25 -83 63 -110 107h-159v92h215l2 1c11 -37 29 -76 57 -106c0 68 49 120 133 120c81 0 141 -45 141 -121c0 -83 -62 -125 -152 -125c-12 0 -23 1 -34 2v-24c0 -26 11 -39 38 -39c34 0 87 23 165 79c42 -30 78 -81 78 -152c0 -111 -92 -204 -253 -204z" />
    <glyph glyph-name="bnC" horiz-adv-x="478" 
d="M498 568h-330c12 -23 39 -40 86 -57l45 -17c83 -30 132 -68 132 -155c0 -103 -93 -202 -222 -202c-92 0 -140 52 -140 130v301h-89v92h518v-92zM167 460h-4c1 -11 6 -49 6 -127v-62c0 -25 12 -42 44 -42c53 0 120 40 120 110c0 35 -17 52 -65 70l-34 13
c-38 14 -55 27 -67 38z" />
    <glyph glyph-name="bnCH" horiz-adv-x="541" 
d="M148 568c10 -28 72 -33 121 -58c18 5 38 7 53 7c96 0 173 -64 173 -169c0 -101 -70 -173 -216 -188v-3c33 -8 67 -22 118 -48l123 -60l-66 -68c-288 148 -305 153 -396 164v81h120c152 0 218 50 218 123c0 45 -23 73 -65 80c1 -4 1 -9 1 -14c0 -73 -62 -140 -152 -140
c-77 0 -124 41 -124 103v190h-76v92h581v-92h-413zM245 417c0 40 -70 37 -96 60v-93c0 -17 9 -29 31 -29c40 0 65 31 65 62z" />
    <glyph glyph-name="bnJ" horiz-adv-x="747" 
d="M102 445l-92 -31c17 -174 133 -319 299 -319c128 0 195 83 195 167c0 47 -22 87 -50 115l-97 10c-34 3 -46 12 -46 32c0 32 39 66 83 97c22 -66 97 -139 212 -148c-17 -36 -36 -103 -36 -181v-110h93v104c0 79 17 149 45 199l-37 73h-25c-113 0 -164 61 -178 115h299v92
h-787v-92h345c-55 -38 -119 -94 -119 -166c0 -58 38 -90 111 -98l75 -8c7 -7 12 -18 12 -36c0 -40 -31 -74 -96 -74c-117 0 -196 115 -206 259z" />
    <glyph glyph-name="bnJH" horiz-adv-x="645" 
d="M293 273h4c-5 37 -9 94 -9 146v35c-66 -26 -123 -65 -156 -92zM577 761v-101h88v-92h-88v-322l-77 -22l-122 74v-126h-85l-256 143v87c47 41 141 110 251 145v21h-308v92h398v-262l108 -63v426h91z" />
    <glyph glyph-name="bnNY" horiz-adv-x="821" 
d="M416 667c58 0 86 -24 97 -51c19 23 60 54 123 54c82 0 129 -47 129 -113c0 -42 -23 -77 -63 -91v-3c46 -12 74 -45 74 -94c0 -62 -45 -118 -129 -118c-39 0 -92 19 -114 45c7 -32 8 -82 8 -109v-66h-94c0 70 -44 91 -165 98c-172 10 -248 76 -248 174c0 37 12 71 29 97
l90 -31c-12 -18 -21 -40 -21 -67c0 -50 40 -82 157 -88c106 -5 136 -22 165 -42h4c-9 38 -13 95 -13 151v127c0 27 -12 40 -39 40c-55 0 -107 -52 -107 -103c0 -23 11 -38 35 -38c20 0 36 10 43 18l33 -71c-22 -17 -56 -26 -87 -26c-79 0 -120 45 -120 111
c0 95 89 196 213 196zM625 591c-42 0 -88 -40 -88 -128c0 -78 38 -131 97 -131c29 0 48 18 48 44c0 31 -25 46 -64 46h-21v79h20c35 0 54 20 54 50c0 23 -16 40 -46 40z" />
    <glyph glyph-name="bnTT" horiz-adv-x="499" 
d="M2 918l99 17c-2 -9 -3 -18 -3 -27c0 -35 17 -73 94 -73h69c97 0 177 -49 177 -148c0 -8 -1 -18 -2 -27h82v-92h-346v-275c0 -35 20 -54 57 -54c68 0 124 50 124 113c0 38 -16 59 -49 59c-17 0 -34 -9 -44 -22l-46 87c20 20 57 36 95 36c80 0 145 -59 145 -159
c0 -109 -96 -216 -232 -216c-96 0 -149 59 -149 141v290h-93v92h356c1 7 2 14 2 20c0 51 -31 68 -96 68h-55c-141 0 -187 73 -187 146c0 8 1 16 2 24z" />
    <glyph glyph-name="bnTTH" horiz-adv-x="538" 
d="M493 277c0 106 -69 182 -173 292h235v91h-299c-32 40 -51 77 -51 114c0 43 32 71 85 65l-19 89c-101 5 -168 -59 -168 -149c0 -40 17 -82 46 -119h-169v-91h228l7 -7v-70c0 -101 -64 -156 -175 -185c1 -128 97 -240 239 -240c133 0 214 93 214 210zM155 257
c49 17 141 68 143 205c50 -59 98 -111 98 -186c0 -67 -47 -120 -115 -120c-81 0 -122 65 -126 101z" />
    <glyph glyph-name="bnDD" horiz-adv-x="609" 
d="M628 569h-312v-97c0 -27 11 -37 31 -37c27 0 90 32 146 75c39 -24 79 -81 79 -153c0 -121 -94 -215 -244 -215c-186 0 -298 154 -302 332l93 21c3 -178 100 -265 210 -265c91 0 149 57 149 123c0 17 -4 32 -12 45c-33 -26 -82 -51 -131 -51c-75 0 -116 50 -116 121v101
h-239v91h648v-91z" />
    <glyph glyph-name="bnDDH" horiz-adv-x="499" 
d="M172 568v-275c0 -35 20 -54 57 -54c68 0 124 50 124 113c0 38 -16 59 -49 59c-17 0 -34 -9 -44 -22l-46 87c20 20 57 36 95 36c80 0 145 -59 145 -159c0 -109 -96 -216 -232 -216c-96 0 -149 59 -149 141v290h-93v92h538v-92h-346z" />
    <glyph glyph-name="bnNN" horiz-adv-x="563" 
d="M125 473c0 -52 33 -84 85 -84c33 0 57 17 73 32l33 -83c-24 -21 -62 -38 -108 -38c-113 0 -180 76 -180 173c0 108 71 189 195 189c88 0 139 -46 165 -85l4 2c-11 32 -13 76 -13 137v45h96v-101h108v-92h-108v-305h-99v89c0 114 -31 224 -144 224
c-69 0 -107 -42 -107 -103z" />
    <glyph glyph-name="bnT" horiz-adv-x="706" 
d="M423 -41l-60 -87l224 -155l60 81zM381 228l73 67c-26 11 -41 34 -41 60c0 35 25 56 58 56c52 0 79 -47 79 -113c0 -86 -54 -158 -148 -158c-148 0 -227 159 -262 357l-104 -46c48 -236 160 -413 367 -413c154 0 259 104 259 258c0 121 -71 218 -199 218
c-98 0 -164 -63 -164 -151c0 -62 34 -113 82 -135zM726 660h-746v-92h746v92z" />
    <glyph glyph-name="bnTH" horiz-adv-x="602" 
d="M86 426l81 41c-14 12 -26 30 -26 54c0 34 25 60 66 60c46 0 72 -29 72 -71c0 -59 -48 -121 -229 -124v-92l370 -156h100v430h96v92h-96v101h-98v-365c0 -51 2 -113 7 -165h-4l-233 97v4c133 22 183 98 183 180c0 103 -81 156 -170 156c-95 0 -162 -60 -162 -146
c0 -37 15 -73 43 -96z" />
    <glyph glyph-name="bnD" horiz-adv-x="496" 
d="M513 569h-344v-175c44 48 124 109 197 137l84 -44c-24 -66 -33 -135 -33 -211v-83h-97v83c0 52 8 111 22 149c-59 -39 -126 -102 -176 -173l-99 39v278h-86v91h532v-91z" />
    <glyph glyph-name="bnDH" horiz-adv-x="532" 
d="M261 568c-18 12 -40 18 -59 18c-32 0 -56 -17 -56 -51c0 -37 36 -55 85 -55c41 0 85 18 129 46v135h190v-92h-97v-421h-95l-299 129v81l48 28c32 20 65 33 65 33v4c-60 6 -121 42 -121 116c0 77 56 129 141 129c34 0 73 -9 96 -29zM369 238c-5 50 -9 116 -9 167v27
l-198 -109l203 -85h4z" />
    <glyph glyph-name="bnN" horiz-adv-x="570" 
d="M-20 568v92h610v-92h-103v-333l-109 1c-38 113 -95 178 -165 178c-42 0 -65 -22 -65 -55c0 -28 14 -45 32 -58l-86 -39c-28 21 -50 56 -50 102c0 86 59 147 158 147c83 0 150 -53 180 -112l4 1c-3 22 -9 70 -9 147v21h-397z" />
    <glyph glyph-name="bnP" horiz-adv-x="681" 
d="M162 520c53 -10 105 -44 132 -103l133 91c-31 40 -76 63 -135 63c-64 0 -107 -30 -130 -51zM596 215h-113v98c0 39 -4 75 -13 107l-284 -197l-55 82l79 54c-14 35 -39 64 -82 77c-14 6 -30 11 -51 12l-56 81c46 66 138 139 264 139c117 0 185 -62 215 -108l3 2
c-18 51 -21 117 -21 169v30h114v-101h105v-92h-105v-353z" />
    <glyph glyph-name="bnPH" horiz-adv-x="822" 
d="M540 105v306c14 5 29 7 47 7c53 0 96 -29 96 -85c0 -53 -41 -81 -79 -93l60 -89c57 25 126 75 126 181c0 123 -97 187 -215 187c-56 0 -111 -14 -148 -33v-79c0 -58 4 -138 11 -196h-4l-217 83l125 89v80l-117 101v4h617v92h-862v-92h128v-32l126 -110l-131 -94v-97
l334 -130h103z" />
    <glyph glyph-name="bnB" horiz-adv-x="536" 
d="M556 568h-104v-417h-103l-285 134v104c98 63 190 112 283 152v27h-367v92h576v-92zM350 260h6c-6 55 -9 119 -9 172c-54 -26 -111 -57 -170 -91z" />
    <glyph glyph-name="bnBH" horiz-adv-x="666" 
d="M23 454l84 43c33 -136 120 -295 276 -295c100 0 149 57 149 124c0 31 -10 55 -21 72h-4c-22 -55 -64 -101 -137 -101c-82 0 -129 55 -129 120c0 30 10 53 17 67l92 -13c-9 -13 -15 -32 -15 -48c0 -26 13 -43 42 -43c37 0 68 34 98 120h72c34 -30 78 -94 78 -178
c0 -118 -80 -210 -243 -210c-205 0 -313 174 -359 342zM686 568h-706v92h706v-92z" />
    <glyph glyph-name="bnM" horiz-adv-x="632" 
d="M416 437c45 0 62 30 62 68c0 32 -18 63 -64 63h-187c7 -16 11 -34 14 -52c73 -22 116 -79 175 -79zM-20 660h672v-92h-90c12 -17 23 -44 23 -83c0 -68 -35 -151 -154 -151c-122 0 -162 92 -237 92c-29 0 -51 -17 -51 -46c0 -22 10 -37 22 -49l-87 -38
c-21 19 -40 50 -40 93c0 61 30 111 90 130c-5 20 -12 37 -22 52h-126v92z" />
    <glyph glyph-name="bnY" horiz-adv-x="484" 
d="M312 149h100v419h88v92h-520v-92h62v-26l109 -96l-113 -81v-81zM142 568h173v-161c0 -51 4 -117 9 -168l-4 -1l-192 92l112 79v68l-98 87v4z" />
    <glyph glyph-name="bnR" horiz-adv-x="536" 
d="M556 568h-104v-417h-103l-285 134v104c98 63 190 112 283 152v27h-367v92h576v-92zM75 109c0 39 28 67 64 67c39 0 67 -28 67 -67c0 -36 -28 -65 -67 -65c-36 0 -64 29 -64 65zM350 260h6c-6 55 -9 119 -9 172c-54 -26 -111 -57 -170 -91z" />
    <glyph glyph-name="bnL" horiz-adv-x="696" 
d="M716 568h-103v-431h-106v244c-8 21 -33 44 -68 44c-42 0 -71 -32 -71 -85v-33h-98v33c0 58 -30 82 -68 82s-73 -28 -73 -85c0 -61 40 -88 91 -88c8 0 16 0 25 2l7 -95c-14 -3 -29 -5 -44 -5c-97 0 -184 64 -184 184c0 118 80 185 169 185c77 0 115 -46 125 -79h5
c9 41 47 81 103 81c43 0 68 -21 77 -31h4v77h-527v92h736v-92z" />
    <glyph glyph-name="bnSH" horiz-adv-x="687" 
d="M63 568h-83v92h87c71 0 123 -23 158 -69c35 45 89 70 154 70c78 0 112 -38 122 -52h4c-6 22 -13 72 -13 118v34h111v-101h104v-92h-104v-369h-114v234c0 86 -44 128 -110 128c-55 0 -99 -35 -99 -100c0 -64 42 -98 100 -98c17 0 33 2 47 7v-101c-4 -1 -23 -7 -52 -7
c-63 0 -116 24 -152 70c-34 -48 -85 -72 -150 -72c-28 0 -54 8 -58 9v100c13 -5 34 -8 53 -8c65 0 100 35 100 100s-35 107 -105 107z" />
    <glyph glyph-name="bnSS" horiz-adv-x="533" 
d="M553 568h-94c19 -29 30 -66 30 -110c0 -136 -95 -213 -221 -213s-220 78 -220 213c0 44 11 81 30 110h-98v92h573v-92zM268 570c-22 0 -42 -5 -58 -14l160 -149c7 15 10 32 10 51c0 65 -44 112 -112 112zM268 343c23 0 43 5 60 15l-162 147c-6 -14 -9 -30 -9 -47
c0 -69 45 -115 111 -115z" />
    <glyph glyph-name="bnS" horiz-adv-x="671" 
d="M75 500l-60 -73c35 -39 87 -66 139 -66c71 0 120 37 147 113c33 -72 94 -113 168 -113c100 0 163 60 163 150c0 18 -3 41 -8 57h67v92h-711v-92h251c-6 -53 -25 -120 -77 -120c-32 0 -57 22 -79 52zM510 568c5 -10 9 -27 9 -49c0 -30 -12 -70 -58 -70
c-52 0 -82 57 -96 119h145z" />
    <glyph glyph-name="bnH" horiz-adv-x="484" 
d="M243 186v-4c31 -5 58 -16 128 -50l123 -58l-59 -78c-233 120 -295 155 -372 162v93h62c126 0 183 34 183 106c0 49 -28 84 -77 84c-36 0 -62 -23 -62 -58c0 -19 9 -40 34 -51l-68 -50c-48 21 -71 63 -71 110c0 77 64 139 167 139c110 0 183 -73 183 -175
c0 -104 -70 -157 -171 -170zM504 568h-524v92h524v-92z" />
    <glyph glyph-name="bnK_SS" horiz-adv-x="922" 
d="M522 -151l60 87l224 -161l-60 -81zM951 568h-275v-131h22c135 0 200 -72 200 -169c0 -91 -57 -144 -113 -167l-60 83c33 11 68 40 68 85c0 49 -34 67 -89 67h-28v-347h-104c-19 84 -104 156 -209 171c-19 -60 -61 -84 -96 -84c-43 0 -77 27 -77 74c0 41 32 79 84 96
c-7 53 -34 91 -75 112c-20 -50 -58 -72 -92 -72c-43 0 -77 27 -77 75c0 44 31 80 82 93c-6 49 -29 87 -57 114h-75v92h971v-92zM576 152c-7 54 -11 127 -12 184h-45c-115 0 -179 59 -179 180v52h-166c21 -31 36 -72 38 -116c81 -23 154 -95 161 -199
c101 -11 176 -64 203 -101zM513 436h51v132h-117v-55c0 -61 28 -77 66 -77z" />
    <glyph glyph-name="bnJ_NY" horiz-adv-x="876" 
d="M407 568c-42 -41 -81 -117 -81 -167c0 -30 27 -38 59 -42l121 -12c-62 46 -91 128 -95 221h-4zM695 47c-64 0 -111 25 -143 64c-33 -53 -96 -91 -189 -91c-187 0 -314 165 -334 359l101 35c12 -160 101 -290 231 -290c73 0 111 39 111 84c0 22 -6 34 -11 45l-104 10
c-84 9 -139 48 -139 127c0 64 31 134 61 178h-299v92h916v-92h-384c3 -49 16 -87 36 -118c30 40 75 65 136 65c89 0 141 -57 141 -127c0 -49 -28 -86 -70 -101v-4c44 -12 81 -48 81 -105c0 -67 -49 -131 -141 -131zM726 382c0 27 -20 45 -54 45c-47 0 -96 -43 -96 -143
c0 -89 40 -148 106 -148c33 0 55 21 55 50c0 36 -28 55 -72 55h-22v83h21c39 0 62 22 62 58zM384 -140l60 87l224 -161l-60 -81z" />
    <glyph glyph-name="asR" horiz-adv-x="496" 
d="M320 568v-31c-131 -35 -248 -127 -289 -169v-83l280 -171h103v454h97v92h-531v-92h340zM129 331c12 10 30 26 51 41l143 -90c2 -27 4 -52 7 -70h-3zM323 448c-3 -31 -3 -64 -3 -96l-86 54c27 16 63 33 89 42z" />
    <glyph glyph-name="asW" horiz-adv-x="540" 
d="M49 113l55 83l154 -75l-55 -83zM560 568h-108v-417h-103l-285 134v104c98 63 190 112 283 152v27h-367v92h580v-92zM350 260h6c-6 55 -9 119 -9 172c-54 -26 -111 -57 -170 -91z" />
    <glyph glyph-name="bnDDx" horiz-adv-x="608" 
d="M628 569h-312v-91c0 -27 11 -37 31 -37c27 0 90 32 146 75c39 -24 79 -81 79 -153c0 -121 -94 -215 -244 -215c-186 0 -298 154 -302 332l93 21c3 -178 100 -265 210 -265c91 0 149 57 149 123c0 17 -4 32 -12 45c-33 -26 -82 -51 -131 -51c-75 0 -116 50 -116 121v95
h-239v91h648v-91zM253 16c0 40 28 68 64 68c39 0 67 -28 67 -68c0 -36 -28 -64 -67 -64c-36 0 -64 28 -64 64z" />
    <glyph glyph-name="bnDDHx" horiz-adv-x="499" 
d="M172 568v-275c0 -35 20 -54 57 -54c68 0 124 50 124 113c0 38 -16 59 -49 59c-17 0 -34 -9 -44 -22l-46 87c20 20 57 36 95 36c80 0 145 -59 145 -159c0 -109 -96 -216 -232 -216c-96 0 -149 59 -149 141v290h-93v92h538v-92h-346zM157 8c0 39 28 68 65 68
c39 0 67 -29 67 -68c0 -36 -28 -64 -67 -64c-37 0 -65 28 -65 64z" />
    <glyph glyph-name="bnYx" horiz-adv-x="485" 
d="M312 149h100v419h88v92h-520v-92h62v-26l109 -96l-113 -81v-81zM139 568h176v-161c0 -51 3 -117 8 -169h-3l-192 92l112 79v68l-101 88v3zM68 91c0 39 28 67 64 67c39 0 67 -28 67 -67c0 -36 -28 -65 -67 -65c-36 0 -64 29 -64 65z" />
    <glyph glyph-name="bnK_KA" horiz-adv-x="713" 
d="M733 568h-300v-29c162 -8 226 -99 226 -179c0 -50 -18 -91 -47 -118l-87 54c17 14 31 37 31 64c0 48 -43 78 -123 82v-179c162 -8 226 -100 226 -179c0 -85 -54 -136 -113 -160l-56 83c34 12 66 35 66 77c0 48 -43 78 -123 82v-230l48 -23l-71 -78l-355 167v107
c33 32 84 71 147 102l-147 67v107c53 51 151 121 271 145v38h-346v92h753v-92zM334 -17c-5 53 -8 115 -8 168v2c-65 -19 -124 -55 -167 -89l170 -81h5zM334 262c-5 54 -8 115 -8 167c-65 -19 -124 -55 -167 -88l170 -79h5z" />
    <glyph glyph-name="bnNG_KA" horiz-adv-x="730" 
d="M491 568c0 -71 24 -107 66 -107c40 0 50 34 50 65c0 18 -3 33 -6 42h-110zM-20 568v92h770v-92h-55c5 -18 7 -38 7 -55c0 -80 -48 -140 -144 -140c-92 0 -168 65 -168 195h-410zM410 -13l49 -23l-70 -77l-351 165v105c52 52 150 121 270 145v27c0 73 -31 115 -87 115
c-38 0 -64 -25 -64 -63c0 -21 11 -45 34 -59l-74 -54c-48 32 -66 74 -66 119c0 84 61 151 164 151c126 0 195 -94 195 -209v-18c166 -6 231 -99 231 -184c0 -79 -54 -130 -113 -154l-55 83c34 12 65 34 65 77c0 49 -46 79 -128 82v-228zM317 32c-5 53 -9 114 -9 168v2
c-65 -19 -123 -55 -166 -89l170 -81h5z" />
    <glyph glyph-name="bnL_KA" horiz-adv-x="906" 
d="M-20 568v92h946v-92h-272v-259c162 -8 226 -99 226 -179c0 -85 -54 -136 -113 -159l-55 82c33 13 65 35 65 77c0 49 -44 78 -123 82v-230l49 -23l-71 -77l-355 166v107c52 51 150 121 270 145v63c-8 22 -34 44 -71 44c-43 0 -73 -32 -73 -86v-34h-104v34
c0 57 -32 83 -71 83c-42 0 -74 -33 -74 -92c0 -66 35 -95 81 -106l-36 -94c-97 19 -157 96 -157 201c0 120 85 191 178 191c79 0 118 -42 131 -77h4c11 42 49 80 107 80c43 0 71 -19 81 -28h4v89h-567zM555 29c-5 54 -8 115 -8 168v2c-65 -19 -123 -55 -167 -88l171 -82h4z
" />
    <glyph glyph-name="bnSS_KA" horiz-adv-x="671" 
d="M691 568h-212c19 -29 30 -66 30 -110c0 -46 -11 -86 -31 -118c118 -24 166 -103 166 -171c0 -85 -54 -136 -113 -159l-55 82c33 12 65 35 65 77c0 49 -44 78 -123 82v-230l49 -23l-71 -78l-355 167v107c27 27 67 59 117 87c-55 35 -88 96 -88 177c0 44 11 81 29 110h-119
v92h711v-92zM288 570c-22 0 -41 -5 -58 -14l162 -151c7 16 11 34 11 53c0 65 -46 112 -115 112zM315 68h4c-5 53 -8 115 -8 168v2c-65 -19 -123 -55 -167 -89zM288 341c24 0 44 6 62 16l-164 149c-6 -15 -9 -31 -9 -48c0 -69 46 -117 111 -117z" />
    <glyph glyph-name="bnS_KA" horiz-adv-x="713" 
d="M82 494c24 -28 49 -49 83 -49c54 0 76 61 83 123h-268v92h753v-92h-108c4 -20 6 -38 6 -57c0 -75 -37 -132 -103 -153c110 -27 155 -103 155 -169c0 -85 -54 -136 -113 -159l-55 82c33 12 65 35 65 77c0 48 -43 78 -123 82v-230l48 -23l-70 -77l-356 166v107
c58 56 170 134 306 151c-35 15 -62 42 -80 84c-24 -59 -70 -98 -140 -98c-52 0 -107 26 -143 73zM525 520c0 19 -3 36 -7 48h-154c4 -67 36 -124 96 -124c46 0 65 34 65 76zM358 88c-5 53 -8 115 -8 168v2c-65 -19 -124 -55 -167 -89l170 -81h5z" />
    <glyph glyph-name="bnNG_KHA" horiz-adv-x="779" 
d="M271 566v-35c11 -2 22 -3 33 -3c39 0 53 20 53 44c0 18 -13 38 -44 38c-27 0 -42 -17 -42 -44zM181 -170v88c167 2 252 39 252 120c0 23 -6 39 -14 48c-22 -73 -73 -111 -145 -111c-89 0 -139 54 -139 132c0 12 2 26 4 39h101c-3 -11 -6 -23 -6 -34c0 -26 13 -47 45 -47
c45 0 68 47 81 107c-18 -3 -37 -5 -57 -5c-174 0 -273 124 -287 270l86 27c14 -141 96 -207 201 -207c83 0 128 39 128 87c0 14 -2 20 -6 26c-33 -24 -70 -40 -125 -40c-75 0 -127 46 -127 116v37c-43 20 -79 49 -104 85h-89v92h142c11 -32 31 -61 57 -84
c4 51 39 106 129 106c83 0 134 -52 134 -116s-56 -109 -139 -109c-11 0 -22 0 -32 1v-13c0 -23 16 -31 36 -31c29 0 71 11 151 59c37 -25 67 -71 67 -130c0 -54 -26 -104 -77 -138c45 -37 81 -99 81 -168c0 -83 -46 -140 -137 -165v-4l196 -57l3 2c-4 61 -7 123 -7 196v752
h107v-101h109v-92h-109v-786l49 -14l-64 -78z" />
    <glyph glyph-name="bnS_KHA" horiz-adv-x="881" 
d="M251 76c176 3 266 48 266 134c0 24 -7 39 -15 47c-24 -71 -83 -109 -155 -109c-92 0 -150 55 -150 144c0 15 1 30 4 46h110c-3 -12 -6 -27 -6 -41c0 -26 13 -49 47 -49c47 0 73 46 87 110c-67 5 -118 42 -147 107c-27 -71 -74 -107 -144 -107c-52 0 -104 27 -140 66
l61 73c22 -30 47 -52 79 -52c54 0 71 75 78 123h-246v92h607c23 -41 38 -93 38 -141c0 -69 -30 -119 -81 -144c40 -37 78 -98 78 -166c0 -91 -48 -152 -145 -178v-4l208 -64l5 2c-6 65 -9 132 -9 213v583h112v-101h108v-92h-108v-636l48 -14l-69 -87l-521 154v91zM513 519
c0 20 -4 37 -9 49h-153c7 -69 44 -122 99 -122c43 0 63 32 63 73z" />
    <glyph glyph-name="bnG_GA" horiz-adv-x="691" 
d="M388 359c0 -10 -1 -20 -3 -30c46 -12 81 -35 105 -59v98c0 114 -71 188 -179 188c-63 0 -112 -31 -139 -66c21 7 46 11 68 11c75 0 148 -48 148 -142zM604 -175h-114v221c0 114 -70 188 -178 188c-63 0 -112 -30 -140 -66c21 7 48 11 69 11c74 0 146 -47 146 -141
c0 -79 -53 -153 -135 -209l-84 81c64 40 104 84 104 131c0 37 -27 59 -69 59c-37 0 -73 -9 -103 -24l-75 78c32 84 123 169 242 184c3 8 5 16 5 24c0 36 -27 59 -69 59c-37 0 -73 -9 -103 -24l-75 79c36 92 141 185 277 185c106 0 171 -47 204 -88h4c-12 33 -21 91 -21 156
v32h115v-101h108v-92h-108v-743z" />
    <glyph glyph-name="bnNG_GA" horiz-adv-x="726" 
d="M747 660v-92h-74c5 -15 7 -37 7 -54c0 -87 -56 -139 -144 -139c-92 0 -167 65 -167 193h-389v92h767zM401 286v-14c94 37 184 66 203 75l71 -69c-29 -60 -43 -122 -43 -194v-142h-105v134c0 55 10 106 27 147l-176 -71c-34 -85 -100 -128 -171 -128
c-96 0 -154 60 -175 116l86 55c15 -36 40 -72 90 -72c61 0 93 68 93 161c0 79 -27 142 -84 142c-35 0 -58 -22 -58 -57c0 -20 9 -42 34 -55l-75 -55c-42 21 -67 67 -67 113c0 87 61 147 160 147c123 0 189 -103 190 -233zM469 568c0 -71 25 -107 67 -107c40 0 51 31 51 65
c0 17 -3 32 -7 42h-111z" />
    <glyph glyph-name="bnDD_GA" horiz-adv-x="1208" 
d="M826 554c-64 0 -112 -33 -138 -66c20 8 48 11 69 11c74 0 147 -48 147 -142c0 -82 -58 -161 -147 -219l-85 84c72 42 117 90 117 139c0 36 -27 59 -70 59c-30 0 -59 -6 -85 -16c11 -26 18 -55 18 -86c0 -143 -105 -251 -277 -251c-214 0 -338 175 -343 379l108 24
c3 -204 112 -300 235 -300c104 0 167 63 167 142c0 18 -4 36 -12 50c-38 -31 -89 -57 -146 -57c-87 0 -132 58 -132 141v122h-272v92h838c106 0 173 -51 205 -91h4c-12 33 -22 92 -22 156v36h115v-101h107v-92h-107v-568h-114v367c0 112 -72 187 -180 187zM457 568h-91v-118
c0 -30 12 -41 33 -41c29 0 97 33 160 83c13 29 34 58 59 83l-2 3c-39 -5 -105 -10 -159 -10z" />
    <glyph glyph-name="bnD_GA" horiz-adv-x="1080" 
d="M195 568v-243c47 58 142 134 227 167c14 29 35 57 61 83l-2 3c-38 -5 -107 -10 -155 -10h-131zM699 554c-64 0 -112 -33 -139 -66c21 8 49 11 70 11c74 0 147 -48 147 -142c0 -89 -70 -176 -174 -234l-85 85c89 46 143 99 143 153c0 36 -26 59 -69 59
c-32 0 -63 -7 -90 -18c-19 -71 -27 -156 -27 -230v-172h-115v172c0 84 16 149 31 191c-67 -44 -148 -127 -201 -209l-110 42v372h-100v92h710c107 0 174 -51 206 -91h4c-12 33 -22 92 -22 156v36h115v-101h107v-92h-107v-568h-114v367c0 112 -72 187 -180 187z" />
    <glyph glyph-name="bnDDx_GA" horiz-adv-x="1210" 
d="M302 -91c0 42 30 72 69 72c42 0 72 -30 72 -72c0 -39 -30 -69 -72 -69c-39 0 -69 30 -69 69zM460 568h-92v-118c0 -30 12 -41 33 -41c29 0 98 33 159 82c14 29 34 58 60 84l-2 3c-38 -5 -105 -10 -158 -10zM829 554c-64 0 -113 -33 -139 -66c20 8 48 11 70 11
c73 0 146 -48 146 -142c0 -82 -58 -161 -147 -219l-85 84c73 42 117 90 117 139c0 36 -27 59 -70 59c-29 0 -59 -6 -85 -16c11 -26 18 -55 18 -86c0 -143 -105 -251 -277 -251c-214 0 -338 175 -343 379l108 24c3 -204 112 -300 235 -300c104 0 167 63 167 142
c0 18 -3 36 -12 50c-38 -31 -88 -57 -146 -57c-86 0 -132 58 -132 141v122h-274v92h840c106 0 173 -51 205 -91h4c-12 33 -21 92 -21 156v36h114v-101h108v-92h-108v-568h-114v367c0 112 -72 187 -179 187z" />
    <glyph glyph-name="bnL_GA" horiz-adv-x="762" 
d="M-20 568v92h802v-92h-107v-785h-116v171c0 111 -55 179 -154 179c-59 0 -101 -34 -123 -64c25 13 58 16 85 13c63 -6 113 -48 113 -125c1 -81 -69 -153 -139 -191l-79 81c73 35 102 72 102 109c0 38 -26 56 -63 57c-30 1 -61 -9 -92 -30l-69 74c34 82 130 174 255 175
c80 1 134 -31 164 -64v198c-9 21 -34 44 -72 44c-44 0 -75 -35 -75 -87v-19h-106v17c0 53 -30 86 -73 86c-45 0 -75 -29 -75 -71c0 -36 21 -70 64 -86l-62 -84c-60 20 -116 85 -116 173c0 96 77 172 181 172c82 0 122 -46 135 -80h4c9 40 47 81 109 81c43 0 72 -18 81 -29h5
v85h-579z" />
    <glyph glyph-name="bnNG_GHA" horiz-adv-x="1200" 
d="M333 539v-44c11 -2 23 -3 35 -3c44 0 66 22 66 55c0 25 -17 48 -52 48c-30 0 -49 -20 -49 -56zM1095 -15l-480 220c-27 -93 -116 -150 -253 -150c-211 0 -334 164 -339 343l96 19c7 -181 122 -263 243 -263c102 0 159 47 159 107c0 19 -3 33 -11 42
c-45 -27 -89 -45 -146 -45c-86 0 -135 51 -135 127v69c-49 28 -89 69 -118 114h-131v92h194c12 -38 32 -79 63 -110c2 69 56 121 143 121c22 0 43 -4 62 -11h778v-92h-108v-479l51 -23zM544 427c38 -27 71 -70 78 -131l43 26c44 27 78 36 81 38v4c-77 11 -134 52 -134 125
c0 32 12 60 28 79h-116c2 -8 3 -17 3 -26c0 -79 -65 -125 -158 -125c-12 0 -24 1 -36 2v-28c0 -26 11 -39 36 -39c33 0 86 16 175 75zM1006 136l4 1c-7 41 -12 103 -12 162v269h-234c-24 -18 -38 -45 -38 -74c0 -40 30 -71 86 -71c26 0 51 7 84 29l45 -90l-191 -109z" />
    <glyph glyph-name="bnD_GHA" horiz-adv-x="1080" 
d="M1100 568h-108v-479l51 -23l-68 -81l-467 210v105l36 22c45 27 78 36 81 37v5c-55 8 -100 31 -120 71c-25 -74 -34 -149 -34 -228v-124h-110v124c0 59 10 133 29 176c-69 -47 -123 -103 -195 -189l-110 59v315h-105v92h1120v-92zM200 354c55 58 144 126 222 158l71 -42
c-1 6 -1 13 -1 19c0 32 12 60 28 79h-320v-214zM886 136l4 1c-7 41 -12 103 -12 162v269h-234c-23 -18 -37 -45 -37 -74c0 -40 30 -71 85 -71c26 0 51 7 84 29l45 -90l-191 -109z" />
    <glyph glyph-name="bnL_GHA" horiz-adv-x="1073" 
d="M968 -41l-477 215v93l47 29c45 27 78 36 81 38v5c-36 5 -68 16 -91 35c-11 9 -29 21 -57 21c-45 0 -71 -32 -71 -87v-35h-106v34c0 58 -30 85 -72 85c-41 0 -74 -36 -74 -95c0 -75 43 -110 107 -110c22 0 43 4 60 12l15 -102c-23 -7 -49 -11 -78 -11
c-138 0 -218 90 -218 212c0 123 82 196 179 196c80 0 117 -45 132 -81h4c10 42 46 84 106 84c13 0 24 -2 34 -5c6 31 22 57 39 76h-548v92h1113v-92h-107v-505l51 -23zM880 110l3 1c-7 41 -11 104 -11 162v295h-216c-28 -22 -56 -57 -56 -100c0 -40 30 -71 85 -71
c26 0 51 7 85 29l44 -90l-191 -109z" />
    <glyph glyph-name="bnC_CA" horiz-adv-x="907" 
d="M717 430c92 -33 148 -80 148 -177c0 -123 -110 -258 -255 -258c-102 0 -155 58 -155 146v115c-26 -93 -114 -166 -222 -166c-105 0 -161 58 -161 146v332h-92v92h947v-92h-368v-13c0 -48 28 -78 104 -105zM563 393h-4c1 -3 6 -55 6 -141v-111c0 -27 16 -45 50 -45
c58 0 140 73 140 157c0 38 -22 62 -74 81l-42 15c-41 15 -63 31 -76 44zM180 439h-4c0 -3 6 -55 6 -141v-60c0 -29 14 -48 52 -48c58 0 120 57 120 123c0 35 -21 55 -70 73l-29 10c-41 14 -61 29 -75 43zM320 481c71 -25 117 -59 135 -113v200h-278c9 -32 39 -49 103 -72z
" />
    <glyph glyph-name="bnNY_CA" horiz-adv-x="816" 
d="M532 31l-70 -77l-384 174v118c90 59 179 109 258 150c-32 70 -74 119 -132 119c-41 0 -64 -23 -64 -57c0 -21 9 -37 20 -51l-89 -33c-19 22 -35 52 -35 91c0 86 59 147 158 147c84 0 147 -49 179 -109l4 1c-3 22 -8 79 -8 137v19h111v-9c0 -29 -5 -69 -8 -88l3 -1
c29 32 71 51 128 51c99 0 157 -63 157 -144c0 -56 -30 -97 -77 -115v-4c50 -15 90 -55 90 -119c0 -76 -54 -150 -156 -150c-61 0 -106 19 -137 52v-79zM378 102h5c-6 55 -9 119 -9 176v25c-58 -30 -124 -68 -194 -111zM589 516c-55 0 -109 -52 -109 -166
c0 -101 46 -170 121 -170c38 0 62 24 62 60c0 40 -30 63 -81 63h-25v92h23c47 0 71 26 71 67c0 32 -23 54 -62 54z" />
    <glyph glyph-name="bnSH_CA" horiz-adv-x="969" 
d="M626 393h-4c0 -3 6 -55 6 -141v-111c0 -27 15 -45 49 -45c59 0 140 73 140 157c0 38 -21 62 -74 81l-42 15c-41 15 -62 31 -75 44zM779 430c92 -33 148 -80 148 -177c0 -123 -109 -258 -254 -258c-103 0 -156 58 -156 146v427h-112c-64 0 -104 -48 -104 -117
c0 -63 47 -102 105 -102c16 0 33 3 47 9v-103c-5 -1 -24 -7 -52 -7c-64 0 -120 28 -157 75c-35 -47 -91 -75 -155 -75c-28 0 -54 8 -58 9v100c13 -5 34 -8 53 -8c62 0 105 43 105 102c0 72 -41 117 -110 117h-99v92h103c70 0 127 -28 163 -73c36 45 90 73 155 73h588v-92
h-367v-13c0 -48 27 -78 103 -105z" />
    <glyph glyph-name="bnC_CHA" horiz-adv-x="990" 
d="M554 568c11 -31 78 -37 132 -64c20 5 43 7 60 7c106 0 191 -70 191 -188c0 -111 -77 -191 -235 -208v-4c35 -9 73 -24 129 -51l129 -63l-70 -81c-308 157 -331 168 -431 180v94h127c166 0 239 56 239 134c0 49 -26 81 -72 88c1 -4 1 -9 1 -14c0 -82 -69 -156 -168 -156
c-67 0 -111 26 -129 70c-6 -108 -98 -205 -223 -205c-105 0 -161 59 -161 146v315h-93v92h1030v-92h-456zM655 401c0 44 -73 40 -101 64v-101c0 -18 10 -31 32 -31c41 0 69 33 69 68zM180 446h-4c1 -3 7 -55 7 -141v-52c0 -29 13 -47 52 -47c58 0 112 54 112 116
c0 36 -17 55 -67 72l-23 8c-42 15 -62 30 -77 44zM317 489c69 -25 113 -57 131 -108v187h-268c11 -28 40 -45 101 -67z" />
    <glyph glyph-name="bnNY_CHA" horiz-adv-x="731" 
d="M668 -198l-53 -85c-271 94 -408 140 -512 141v96h140c102 0 182 21 182 80c0 23 -8 38 -21 51c-34 -32 -88 -58 -157 -58c-110 0 -201 59 -201 170c0 204 283 192 283 303c0 42 -32 73 -87 73c-50 0 -80 -28 -80 -68c0 -21 9 -42 29 -55l-76 -55c-41 27 -58 70 -58 111
c0 93 75 161 183 161c69 0 122 -26 153 -66c31 41 78 65 137 65c89 0 147 -53 147 -131c0 -45 -24 -84 -67 -100v-4c47 -15 79 -52 79 -106c0 -71 -51 -133 -146 -133c-108 0 -171 69 -191 166c-16 -11 -33 -21 -51 -30c61 -161 231 -163 231 -301c0 -72 -56 -123 -153 -138
v-4c0 -1 61 -1 164 -38zM575 528c0 30 -20 48 -54 48c-50 0 -98 -48 -98 -145c0 -92 43 -148 108 -148c33 0 55 19 55 51c0 35 -25 53 -74 53h-22v86h22c44 0 63 22 63 55zM244 126c32 0 57 9 77 22c-34 28 -70 68 -101 138c-37 -22 -64 -47 -64 -90c0 -44 32 -70 88 -70z
" />
    <glyph glyph-name="bnSH_CHA" horiz-adv-x="1032" 
d="M596 568c11 -31 78 -37 132 -64c21 5 43 7 60 7c106 0 191 -70 191 -188c0 -111 -76 -191 -235 -207v-4c35 -9 73 -25 129 -52l135 -66l-76 -78c-319 163 -337 169 -439 181v93h135c167 0 239 56 239 134c0 50 -25 81 -71 88c1 -4 1 -9 1 -14c0 -82 -69 -156 -169 -156
c-87 0 -138 46 -138 117v209h-98c-63 0 -104 -48 -104 -117c0 -63 47 -102 105 -102c17 0 33 3 47 9v-103c-4 -1 -23 -7 -52 -7c-63 0 -120 28 -157 75c-35 -47 -90 -75 -154 -75c-29 0 -55 8 -59 9v100c14 -5 34 -8 54 -8c61 0 104 43 104 102c0 72 -41 117 -109 117h-87
v92h91c69 0 127 -28 162 -73c36 45 91 73 155 73h664v-92h-456zM697 401c0 44 -73 40 -101 64v-101c0 -18 10 -31 33 -31c41 0 68 33 68 68z" />
    <glyph glyph-name="bnNY_JA" horiz-adv-x="816" 
d="M614 -136v155c0 59 6 112 28 173c-13 -3 -26 -5 -41 -5c-110 0 -171 65 -193 156c-34 -39 -68 -73 -68 -108c0 -26 20 -44 66 -49l91 -12c32 -31 52 -69 52 -122c0 -95 -60 -174 -199 -174c-190 0 -307 164 -328 357l104 37c12 -160 90 -290 222 -290c62 0 94 29 94 72
c0 13 -2 24 -8 34l-72 10c-89 13 -133 66 -133 131c0 130 153 185 153 270c0 44 -32 75 -87 75c-47 0 -79 -29 -79 -72c0 -24 12 -48 33 -63l-78 -57c-39 27 -61 71 -61 119c0 107 82 167 184 167c69 0 121 -25 152 -67c31 41 79 66 143 66c92 0 146 -58 146 -129
c0 -51 -28 -89 -71 -104v-4c45 -14 83 -48 83 -106c0 -22 -5 -43 -15 -62l37 -31c-34 -66 -49 -139 -49 -219v-148h-106zM632 526c0 30 -22 48 -57 48c-50 0 -99 -42 -99 -144c0 -91 42 -149 110 -149c35 0 57 20 57 52c0 37 -28 53 -74 53h-23v85h22c40 0 64 19 64 55z" />
    <glyph glyph-name="bnJ_JA" horiz-adv-x="1255" 
d="M768 24c73 0 107 40 107 82c0 21 -7 34 -13 43l-83 8c-83 8 -126 50 -126 113c0 40 20 80 48 114c-118 5 -207 54 -239 122c-53 -36 -93 -79 -93 -115c0 -20 12 -31 45 -34l113 -12c32 -31 56 -77 56 -130c0 -17 -2 -33 -7 -49c39 -84 106 -142 192 -142zM-20 568v92
h1295v-92h-729c28 -67 95 -95 221 -95h158c37 -72 80 -127 214 -127h39l42 -84c-33 -58 -54 -138 -54 -225v-143h-105v150c0 86 22 161 42 204c-106 10 -198 42 -249 135c-39 -28 -80 -66 -80 -97c0 -20 13 -31 46 -34l113 -12c32 -31 56 -78 56 -131
c0 -95 -75 -189 -219 -189c-113 0 -205 59 -264 147c-35 -25 -83 -41 -142 -41c-187 0 -317 164 -337 357l105 37c12 -160 100 -290 231 -290c72 0 106 40 106 82c0 21 -6 33 -12 41l-81 8c-82 9 -126 53 -126 118c0 76 62 143 129 189h-399z" />
    <glyph glyph-name="bnN_JA" horiz-adv-x="927" 
d="M948 568h-494v-54c65 -63 208 -110 351 -110h45l43 -84c-35 -65 -53 -143 -53 -235v-195h-105v203c0 93 21 174 41 216c-109 2 -234 29 -322 87v-110c0 -32 18 -43 49 -46l101 -11c32 -32 57 -77 57 -130c0 -104 -74 -192 -224 -192c-165 0 -286 124 -339 256l90 60
c43 -117 127 -212 248 -212c77 0 111 39 111 85c0 20 -7 33 -13 41l-70 7c-56 6 -94 28 -111 69c-38 92 -85 184 -158 184c-39 0 -62 -23 -62 -56c0 -27 12 -46 24 -60l-83 -40c-25 22 -45 60 -45 107c0 86 62 147 160 147c80 0 129 -45 159 -92l4 1c-3 22 -8 63 -8 140v24
h-364v92h968v-92z" />
    <glyph glyph-name="bnB_JA" horiz-adv-x="886" 
d="M906 568h-493v-53c65 -64 207 -111 351 -111h46l42 -84c-35 -65 -53 -143 -53 -235v-195h-105v203c0 93 21 174 41 216c-108 2 -234 29 -322 87v-110c0 -32 19 -43 49 -46l102 -11c31 -32 56 -77 56 -130c0 -104 -74 -192 -224 -192c-157 0 -276 110 -331 236l89 62
c43 -111 126 -194 241 -194c77 0 111 39 111 85c0 20 -6 33 -13 41l-66 7c-25 3 -46 9 -64 18l-323 139v89c38 37 140 113 264 154v24h-324v92h926v-92zM304 291v151c-52 -23 -112 -59 -147 -85z" />
    <glyph glyph-name="bnNY_JHA" horiz-adv-x="865" 
d="M667 13h4c-6 44 -8 102 -8 164v3c-47 2 -100 27 -121 54c5 -28 7 -78 7 -115v-48zM404 667c66 0 101 -32 117 -70c18 26 64 70 138 70c85 0 142 -56 142 -131c0 -49 -25 -89 -69 -107v-4c46 -13 81 -51 81 -109c0 -43 -18 -82 -51 -107v-269l-91 -34l-122 58v-105l52 -23
l-68 -76l-360 168v111c44 35 128 85 212 118c-28 8 -65 13 -112 18c-173 17 -245 86 -245 193c0 45 15 84 34 111l96 -35c-14 -18 -25 -44 -25 -73c0 -56 44 -86 146 -96c112 -10 141 -26 173 -54h5c-9 38 -15 100 -15 177v126c0 32 -14 48 -46 48c-64 0 -108 -54 -108 -111
c0 -28 14 -46 43 -46c22 0 40 11 47 18l31 -74c-21 -19 -54 -30 -87 -30c-83 0 -135 53 -135 131c0 107 85 207 217 207zM645 571c-48 0 -99 -42 -99 -145c0 -91 40 -149 108 -149c38 0 58 23 58 53c0 34 -26 53 -68 53h-27v83h21c40 0 63 21 63 56c0 29 -19 49 -56 49z
M448 -94h5c-5 53 -8 103 -8 163v7c-59 -25 -126 -62 -166 -90z" />
    <glyph glyph-name="bnJ_JHA" horiz-adv-x="1072" 
d="M890 -60c-5 44 -7 111 -7 173v455h-349c17 -60 75 -126 200 -126h28l42 -84c-32 -58 -51 -137 -51 -225v-126l133 -67h4zM753 -211l52 -23l-68 -76l-360 168v111c54 44 169 108 269 139v33c0 86 19 161 40 204c-130 11 -211 90 -235 164c-50 -35 -92 -67 -92 -103
c0 -19 13 -30 50 -34l108 -11c32 -31 57 -77 57 -130c0 -94 -70 -181 -214 -181c-187 0 -316 163 -337 356l105 36c12 -160 100 -288 230 -288c73 0 102 31 102 74c0 21 -6 33 -13 41l-84 9c-83 9 -124 45 -124 109c0 82 68 139 130 181h-389v92h1112v-92h-108v-703l-94 -35
l-137 66v-107zM654 -163c-5 53 -8 103 -8 163v5c-58 -25 -123 -61 -163 -89l166 -79h5z" />
    <glyph glyph-name="bnC_NYA" horiz-adv-x="1020" 
d="M-20 568v92h1060v-92h-870c12 -23 39 -41 88 -58l49 -18c44 -16 80 -35 103 -63c39 34 93 57 156 57c65 0 97 -27 113 -65c19 26 64 66 134 66c85 0 143 -56 143 -131c0 -50 -26 -90 -70 -107v-4c46 -12 82 -51 82 -109c0 -74 -53 -136 -144 -136c-48 0 -105 27 -127 54
c6 -26 7 -69 7 -107v-37h-99c0 75 -53 87 -177 98c-125 11 -181 47 -210 98h-6c-92 0 -139 59 -139 137v325h-93zM170 460h-4c1 -3 6 -50 6 -128v-85c0 -25 13 -42 44 -42c53 0 126 56 126 130c0 35 -18 55 -67 72l-38 13c-38 14 -54 27 -67 40zM617 55
c-8 37 -15 97 -15 173v121c0 31 -14 47 -46 47c-64 0 -118 -52 -118 -108c0 -28 14 -45 43 -45c22 0 40 11 48 18l33 -74c-21 -19 -60 -27 -93 -27c-38 0 -67 10 -88 27c-16 -17 -33 -33 -53 -46c15 -21 46 -36 116 -42c109 -9 139 -19 168 -44h5zM856 342
c0 29 -19 49 -56 49c-48 0 -99 -42 -99 -145c0 -91 40 -150 108 -150c38 0 58 24 58 54c0 34 -26 54 -69 54h-26v82h21c40 0 63 21 63 56z" />
    <glyph glyph-name="bnK_TTA" horiz-adv-x="698" 
d="M70 941l109 19c-2 -10 -3 -20 -3 -29c0 -39 18 -80 103 -80h139c105 0 193 -54 193 -163c0 -9 0 -18 -2 -28h109v-92h-292v-30c161 -7 228 -87 228 -168c0 -91 -57 -139 -115 -162l-56 83c33 9 68 32 68 79c0 49 -45 71 -125 74v-244c-95 -19 -178 -67 -178 -163
c0 -66 50 -107 134 -107c72 0 113 31 113 71c0 27 -20 44 -48 44c-17 0 -37 -7 -48 -17l-47 87c21 20 56 35 99 35c83 0 153 -54 153 -152c0 -106 -96 -173 -222 -173c-160 0 -246 95 -246 210c0 86 41 145 92 183l-179 84v101c53 52 149 110 270 129v36h-339v92h518
c1 8 2 15 2 21c0 55 -33 74 -103 74h-124c-154 0 -205 80 -205 160c0 8 0 18 2 26zM323 278h4c-5 49 -8 106 -8 157c-64 -15 -120 -45 -162 -79z" />
    <glyph glyph-name="bnTT_TTA" horiz-adv-x="650" 
d="M10 941l109 19c-1 -10 -3 -20 -3 -29c0 -39 19 -80 103 -80h136c105 0 193 -54 193 -163c0 -9 0 -18 -2 -28h124v-92h-412v-303c0 -37 24 -59 66 -59c70 0 133 56 133 125c0 36 -19 59 -54 59c-18 0 -37 -9 -47 -23l-51 89c22 21 62 39 103 39c88 0 159 -58 159 -163
c0 -36 -8 -71 -24 -101c34 -38 52 -86 52 -139c0 -136 -98 -222 -250 -222c-150 0 -271 90 -335 229l83 71c52 -120 134 -197 251 -197c85 0 138 47 138 120c0 21 -4 38 -12 53c-39 -28 -89 -44 -145 -44c-117 0 -177 66 -177 154v312h-168v92h456c1 8 2 15 2 21
c0 55 -34 74 -104 74h-120c-155 0 -206 80 -206 160c0 8 1 18 2 26z" />
    <glyph glyph-name="bnNN_TTA" horiz-adv-x="891" 
d="M280 941l109 19c-2 -10 -3 -20 -3 -29c0 -39 18 -80 103 -80h139c105 0 193 -54 193 -163c0 -9 0 -18 -2 -28h92v-92h-377v-360c0 -34 17 -59 57 -59c73 0 142 69 142 143c0 41 -20 66 -55 66c-17 0 -36 -9 -46 -23l-51 89c21 21 62 39 102 39c89 0 159 -60 159 -170
c0 -118 -107 -248 -260 -248c-105 0 -159 67 -159 154v105c0 128 -30 254 -159 254c-77 0 -121 -45 -121 -112c0 -60 40 -95 99 -95c31 0 57 13 75 27l37 -98c-28 -21 -72 -34 -114 -34c-133 0 -210 90 -210 200c0 122 81 213 223 213c78 0 134 -31 166 -73h4v74h285
c1 8 2 15 2 21c0 55 -33 74 -103 74h-124c-154 0 -205 80 -205 160c0 8 0 18 2 26z" />
    <glyph glyph-name="bnN_TTA" horiz-adv-x="841" 
d="M227 941l109 19c-1 -10 -3 -20 -3 -29c0 -39 19 -80 103 -80h140c105 0 193 -54 193 -163c0 -9 -1 -18 -2 -28h94v-92h-379v-360c0 -35 17 -59 57 -59c72 0 141 69 141 143c0 41 -19 65 -54 65c-18 0 -36 -9 -46 -22l-51 88c21 21 62 39 102 39c88 0 159 -59 159 -170
c0 -117 -107 -248 -260 -248c-98 0 -152 59 -158 138c-23 93 -71 198 -157 198c-41 0 -64 -23 -64 -57c0 -21 9 -37 21 -51l-90 -33c-19 22 -35 52 -35 91c0 86 59 147 158 147c79 0 134 -39 167 -92h4c-3 23 -9 74 -9 150v33h-387v92h676c1 8 2 15 2 21
c0 55 -34 74 -103 74h-124c-155 0 -206 80 -206 160c0 8 1 18 2 26z" />
    <glyph glyph-name="bnL_TTA" horiz-adv-x="1029" 
d="M418 941l109 19c-1 -10 -3 -20 -3 -29c0 -39 19 -80 103 -80h140c105 0 193 -54 193 -163c0 -9 -1 -18 -2 -28h91v-92h-376v-360c0 -34 17 -59 57 -59c73 0 141 69 141 143c0 41 -19 66 -54 66c-18 0 -36 -9 -46 -23l-51 89c21 21 62 39 102 39c88 0 159 -60 159 -170
c0 -118 -107 -248 -260 -248c-105 0 -159 67 -159 154v141c-9 21 -34 45 -72 45c-44 0 -75 -33 -75 -88v-34h-106v34c0 60 -31 84 -72 84c-39 0 -76 -30 -76 -90c0 -73 51 -114 116 -114c22 0 45 4 64 14l16 -99c-24 -10 -53 -14 -85 -14c-136 0 -225 89 -225 211
c0 123 87 195 181 195c81 0 122 -43 134 -78h4c11 42 50 80 110 80c43 0 72 -18 81 -29h5v111h-582v92h867c1 8 2 15 2 21c0 55 -34 74 -103 74h-124c-155 0 -206 80 -206 160c0 8 1 18 2 26z" />
    <glyph glyph-name="bnSS_TTA" horiz-adv-x="571" 
d="M4 941l109 19c-2 -10 -3 -20 -3 -29c0 -39 18 -80 103 -80h102c105 0 193 -54 193 -163c0 -9 0 -18 -2 -28h85v-92h-115c19 -30 30 -67 30 -111c0 -115 -71 -190 -173 -207c-90 -29 -166 -67 -166 -159c0 -70 53 -110 134 -110c72 0 113 32 113 72c0 27 -20 44 -48 44
c-17 0 -37 -7 -48 -16l-47 87c21 19 56 34 99 34c83 0 153 -53 153 -151c0 -107 -96 -175 -222 -175c-160 0 -246 92 -246 213c0 94 46 155 102 192c-55 35 -90 96 -90 176c0 44 11 81 29 111h-116v92h415c1 8 2 15 2 21c0 55 -33 74 -103 74h-87c-154 0 -205 80 -205 160
c0 8 0 18 2 26zM286 343c23 0 43 5 60 15l-163 148c-6 -14 -10 -31 -10 -49c0 -67 47 -114 113 -114zM286 571c-22 0 -41 -5 -58 -15l161 -150c7 15 11 32 11 51c0 64 -47 114 -114 114z" />
    <glyph glyph-name="bnP_TTA" horiz-adv-x="953" 
d="M339 941l109 19c-2 -10 -3 -20 -3 -29c0 -39 19 -80 103 -80h139c105 0 193 -54 193 -163c0 -9 0 -18 -2 -28h95v-92h-380v-364c0 -35 18 -59 58 -59c72 0 141 68 141 142c0 41 -19 66 -54 66c-18 0 -37 -9 -47 -23l-50 89c21 21 61 39 102 39c88 0 159 -59 159 -170
c0 -117 -107 -248 -260 -248c-105 0 -159 67 -159 155v117c0 25 -2 50 -6 74l-285 -188l-54 83l90 59c-13 42 -38 73 -76 90c-15 8 -31 13 -56 15l-53 87c45 65 137 134 252 134c116 0 174 -58 204 -104l3 1c-8 19 -15 54 -15 88v9h281c1 8 2 15 2 21c0 55 -34 74 -104 74
h-124c-154 0 -205 80 -205 160c0 8 1 18 2 26zM172 519c62 -11 117 -53 140 -124l134 87c-29 53 -76 87 -144 87c-64 0 -108 -29 -130 -50z" />
    <glyph glyph-name="bnPH_TTA" horiz-adv-x="831" 
d="M322 960c-1 -10 -3 -20 -3 -29c0 -39 19 -80 103 -80h140c105 0 193 -54 193 -163c0 -9 -1 -18 -2 -28h98v-92h-678v-4l117 -101v-82l-123 -88l214 -104h4c-6 58 -10 137 -10 195v102c37 19 92 33 154 33c112 0 209 -50 209 -173c0 -106 -69 -151 -128 -174l-58 89
c38 12 79 33 79 82s-39 75 -88 75c-23 0 -41 -2 -55 -7v-456c0 -46 22 -71 69 -71c64 0 129 40 129 103c0 34 -20 55 -54 55c-18 0 -36 -9 -46 -22l-51 88c21 21 62 39 102 39c87 0 159 -53 159 -160c0 -119 -99 -208 -239 -208c-119 0 -180 64 -180 170v132l-326 156v95
l131 94l-126 110v32h-76v92h662c1 8 2 15 2 21c0 55 -34 74 -103 74h-124c-155 0 -206 80 -206 160c0 8 1 18 2 26z" />
    <glyph glyph-name="bnS_TTA" horiz-adv-x="704" 
d="M196 960c-2 -10 -3 -20 -3 -29c0 -39 19 -80 103 -80h139c105 0 193 -54 193 -163c0 -9 0 -18 -2 -28h98v-92h-100c4 -20 6 -38 6 -57c0 -80 -41 -140 -117 -157c-95 -32 -222 -69 -222 -183c0 -68 55 -106 134 -106c72 0 113 31 113 71c0 27 -19 44 -48 44
c-17 0 -36 -7 -48 -16l-47 87c21 19 57 34 99 34c83 0 154 -53 154 -151c0 -107 -97 -175 -223 -175c-160 0 -247 97 -247 212c0 120 89 187 168 218c-17 15 -31 35 -42 60c-26 -51 -70 -94 -140 -94c-52 0 -107 26 -142 73l59 71c25 -29 50 -49 83 -49c55 0 76 56 84 118
h-268v92h536c1 8 2 15 2 21c0 55 -34 74 -104 74h-124c-154 0 -205 80 -205 160c0 8 1 18 2 26zM525 520c0 19 -3 36 -8 48h-153c4 -67 35 -124 96 -124c46 0 65 34 65 76z" />
    <glyph glyph-name="bnNN_TTHA" horiz-adv-x="878" 
d="M837 230c0 -130 -90 -232 -237 -232c-162 0 -263 121 -263 272c19 5 36 10 52 16c0 109 -12 281 -146 281c-61 0 -99 -37 -99 -97c0 -50 34 -85 88 -85c23 0 45 6 61 16l23 -91c-23 -12 -55 -21 -93 -21c-116 0 -186 79 -186 182c0 109 70 196 205 196
c153 0 251 -119 251 -310v-1c23 29 35 65 35 111v82c-123 120 -130 197 -130 242c0 89 60 156 151 163h32l22 -99c-5 1 -11 1 -16 1c-49 0 -76 -29 -76 -71c0 -41 20 -81 55 -125h332v-92h-260c112 -120 199 -221 199 -338zM608 373c-22 -104 -97 -144 -144 -159
c5 -47 47 -116 138 -116c75 0 125 57 125 131c0 81 -53 147 -108 210c-1 -23 -5 -48 -11 -66z" />
    <glyph glyph-name="bnN_TTHA" horiz-adv-x="770" 
d="M729 230c0 -130 -91 -232 -237 -232c-160 0 -265 120 -266 272c42 11 77 24 106 42c-38 61 -83 94 -133 94c-41 0 -64 -21 -64 -54c0 -23 8 -39 20 -53l-90 -33c-19 22 -34 52 -34 91c0 86 58 147 157 147c79 0 156 -36 214 -121c12 23 18 51 18 84v82l-17 19h-423v92
h357c-34 48 -47 90 -47 131c0 100 72 169 183 164l22 -100c-56 5 -92 -22 -92 -70c0 -39 18 -77 55 -125h332v-92h-258c110 -122 197 -221 197 -338zM508 389c-18 -117 -102 -159 -152 -175c5 -47 49 -116 138 -116c74 0 125 57 125 131c0 81 -52 144 -107 208
c0 -15 -1 -34 -4 -48z" />
    <glyph glyph-name="bnSS_TTHA" horiz-adv-x="708" 
d="M30 448c0 -101 52 -173 136 -198c13 -147 116 -245 265 -245c147 0 238 102 238 232c0 117 -86 211 -199 331h258v92h-330c-35 44 -55 84 -55 125c0 47 34 76 92 70l-22 100c-111 6 -182 -65 -182 -164c0 -45 16 -90 48 -131h-299v-92h82c-21 -31 -32 -71 -32 -120z
M286 242c63 12 161 65 166 196c55 -64 106 -121 106 -202c0 -74 -50 -131 -125 -131c-88 0 -137 62 -147 137zM361 455c0 -21 -4 -40 -11 -57l-167 153c18 15 40 23 66 23c67 0 112 -52 112 -119zM140 455c0 14 2 28 6 40l162 -146c-17 -10 -37 -15 -59 -15
c-65 0 -109 50 -109 121z" />
    <glyph glyph-name="bnDD_DDA" horiz-adv-x="1182" 
d="M1202 568h-364v-153c0 -30 12 -41 35 -41c27 0 103 34 168 86c46 -29 90 -97 90 -176c0 -141 -107 -251 -279 -251c-115 0 -206 51 -266 130c-47 -51 -121 -82 -215 -82c-214 0 -334 170 -339 374l108 24c2 -204 108 -295 231 -295c104 0 167 58 167 137
c0 18 -3 33 -11 47c-38 -31 -89 -54 -147 -54c-86 0 -132 57 -132 141v113h-268v92h1222v-92zM852 136c104 0 169 63 169 142c0 18 -3 36 -11 50c-38 -31 -96 -58 -152 -58c-88 0 -134 57 -134 140v158h-362v-109c0 -30 12 -41 33 -41c29 0 98 30 163 82
c50 -34 90 -97 90 -173c0 -17 -1 -33 -4 -48c42 -97 123 -143 208 -143z" />
    <glyph glyph-name="bnNN_DDA" horiz-adv-x="811" 
d="M66 469c0 116 71 194 209 194c91 0 152 -35 191 -100c23 34 44 71 59 97h59c72 -42 142 -112 142 -203c0 -51 -14 -96 -47 -138c38 -32 66 -81 66 -141c0 -158 -136 -235 -289 -235c-200 0 -339 105 -423 268l92 61c80 -156 198 -223 332 -223c110 0 174 57 174 129
c0 29 -9 55 -27 74c-25 -16 -53 -32 -86 -47l-65 90c102 40 166 91 166 164c0 34 -22 64 -45 82c-14 -24 -43 -72 -68 -103h-77c-15 70 -60 124 -143 124c-67 0 -107 -34 -107 -95c0 -57 38 -91 96 -91c32 0 58 11 76 25l36 -96c-28 -20 -73 -33 -115 -33
c-134 0 -206 88 -206 197z" />
    <glyph glyph-name="bnN_DDA" horiz-adv-x="803" 
d="M-20 568v92h843v-92h-350v-220c0 -29 12 -41 34 -41c28 0 104 35 169 87c46 -29 90 -97 90 -176c0 -143 -107 -251 -279 -251c-162 0 -287 105 -341 237l88 68c57 -139 150 -202 253 -202c104 0 169 63 169 142c0 18 -3 35 -11 50c-38 -31 -96 -58 -153 -58
c-58 0 -98 25 -118 67c-47 78 -101 146 -173 146c-42 0 -65 -23 -65 -55c0 -23 10 -39 21 -53l-90 -34c-19 22 -34 53 -34 92c0 86 59 147 158 147c82 0 140 -40 176 -89l4 1c-3 22 -8 68 -8 142h-383z" />
    <glyph glyph-name="bnB_DDA" horiz-adv-x="752" 
d="M772 568h-351v-263c0 -30 12 -41 33 -41c29 0 104 34 169 86c46 -29 91 -97 91 -176c0 -143 -107 -251 -279 -251c-147 0 -270 89 -331 205l82 75c55 -123 152 -177 249 -177c104 0 169 63 169 142c0 18 -3 34 -11 49c-38 -31 -97 -57 -146 -57c-23 0 -44 4 -61 11v-1
l-339 131v102c54 48 157 118 265 150v15h-332v92h792v-92zM312 304v148c-55 -22 -120 -62 -157 -89z" />
    <glyph glyph-name="bnL_DDA" horiz-adv-x="959" 
d="M979 568h-346v-198c0 -30 12 -42 33 -42c29 0 105 35 169 87c46 -29 91 -97 91 -176c0 -143 -107 -251 -279 -251c-140 0 -243 74 -300 182l86 75c42 -103 126 -154 214 -154c104 0 169 63 169 142c0 18 -3 36 -12 50c-38 -31 -96 -58 -152 -58c-84 0 -130 54 -133 133
c-8 21 -33 44 -68 44c-42 0 -71 -31 -71 -84v-34h-98v33c0 59 -30 82 -68 82c-40 0 -73 -30 -73 -90c0 -71 41 -108 101 -108c18 0 30 2 46 7l11 -94c-17 -6 -41 -9 -61 -9c-127 0 -202 84 -202 202c0 120 80 190 169 190c76 0 111 -40 125 -75h5c10 41 47 78 103 78
c40 0 67 -18 77 -29h4v97h-539v92h999v-92z" />
    <glyph glyph-name="bnNN_DDHA" horiz-adv-x="891" 
d="M534 568v-360c0 -34 17 -59 57 -59c73 0 142 69 142 143c0 41 -20 66 -55 66c-17 0 -36 -9 -46 -23l-51 89c21 21 62 39 102 39c89 0 159 -60 159 -170c0 -118 -107 -248 -260 -248c-105 0 -159 67 -159 154v105c0 128 -28 254 -157 254c-81 0 -123 -47 -123 -114
c0 -58 40 -94 99 -94c31 0 57 13 75 27l37 -98c-28 -20 -72 -33 -114 -33c-133 0 -210 90 -210 200c0 122 81 213 223 213c78 0 134 -31 166 -73h4v74h488v-92h-377z" />
    <glyph glyph-name="bnN_DDHA" horiz-adv-x="843" 
d="M-20 568v92h883v-92h-385v-367c0 -35 19 -59 61 -59c72 0 146 67 146 147c0 41 -19 68 -53 68c-21 0 -40 -12 -50 -26l-51 89c21 20 55 42 104 42c89 0 159 -66 159 -173c0 -127 -107 -252 -256 -252c-115 0 -171 68 -171 155v5c-30 99 -81 193 -164 193
c-41 0 -65 -22 -65 -56c0 -22 9 -37 21 -51l-89 -34c-20 22 -35 53 -35 92c0 86 59 147 158 147c83 0 146 -47 179 -107l4 1c-3 22 -9 73 -9 150v36h-387z" />
    <glyph glyph-name="bnB_DDHA" horiz-adv-x="800" 
d="M820 568h-383v-388c0 -34 20 -59 64 -59c73 0 143 68 143 147c0 41 -19 69 -56 69c-19 0 -38 -10 -48 -20l-46 90c21 17 56 35 99 35c90 0 161 -66 161 -174c0 -126 -105 -251 -254 -251c-90 0 -143 41 -162 100l-301 160v97c72 64 197 139 293 171v23h-350v92h840v-92z
M330 238v199c-52 -23 -126 -62 -182 -104z" />
    <glyph glyph-name="bnNN_NNA" horiz-adv-x="655" 
d="M451 387c-9 98 -50 181 -159 181c-81 0 -123 -47 -123 -114c0 -44 23 -81 63 -99c15 3 31 4 47 4c99 0 153 -50 183 -96l5 2c-7 27 -11 70 -16 122zM568 -64h-116v68c0 128 -33 254 -162 254c-77 0 -121 -45 -121 -112c0 -60 40 -96 99 -96c31 0 57 13 75 28l36 -99
c-27 -20 -71 -33 -113 -33c-134 0 -210 90 -210 200c0 66 23 122 67 161c-42 33 -67 84 -67 149c0 122 81 213 223 213c99 0 157 -50 187 -96l5 2c-14 38 -16 87 -16 156v30h113v-101h107v-92h-107v-632z" />
    <glyph glyph-name="bnH_NNA" horiz-adv-x="572" 
d="M112 234h57c128 0 200 42 200 118c0 51 -35 84 -88 84c-43 0 -73 -25 -73 -62c0 -19 10 -37 27 -48l-73 -55c-42 23 -62 64 -62 107c0 91 75 153 181 153c114 0 191 -73 191 -180c0 -106 -71 -156 -153 -172v-4c37 -9 76 -20 142 -47l121 -53l-58 -81
c-18 8 -35 15 -51 22v-337h-106v38c0 116 -24 231 -137 231c-53 0 -90 -32 -90 -87c0 -51 36 -76 81 -76c23 0 43 5 60 14l21 -92c-24 -11 -50 -17 -86 -17c-113 0 -181 71 -181 171c0 105 65 181 178 181c87 0 142 -45 166 -88l4 2c-10 30 -13 68 -14 103
c-154 63 -194 70 -257 77v98zM591 568h-611v92h611v-92z" />
    <glyph glyph-name="bnSS_NNA" horiz-adv-x="833" 
d="M544 60l-74 -75l-421 239v95l130 117l-132 100v32h-67v92h520v-54c29 29 70 46 123 46c99 0 157 -63 157 -144c0 -56 -30 -97 -77 -115v-4c50 -15 90 -55 90 -119c0 -76 -54 -150 -158 -150c-60 0 -104 19 -135 51v-87zM164 568v-3l224 -165v168h-224zM671 501
c0 32 -22 54 -61 54c-55 0 -110 -52 -110 -166c0 -101 46 -170 121 -170c38 0 63 24 63 60c0 40 -31 63 -82 63h-25v92h23c47 0 71 26 71 67zM398 143c-5 43 -8 98 -9 147l-119 87l-111 -99l235 -135h4z" />
    <glyph glyph-name="bnK_SS_NNA" horiz-adv-x="935" 
d="M565 152c-7 54 -10 127 -11 184h-46c-115 0 -179 59 -179 180v52h-166c21 -31 37 -72 39 -116c81 -23 154 -95 161 -199c101 -12 176 -64 202 -101zM502 436h52v132h-118v-55c0 -61 28 -77 66 -77zM955 568h-289v-131h22c134 0 199 -72 199 -169
c0 -91 -57 -144 -113 -167l-59 83c32 11 67 40 67 85c0 49 -33 67 -88 67h-28v-658h-106v43c0 121 -24 239 -140 239c-56 0 -96 -33 -96 -92c0 -52 36 -79 86 -79c30 0 52 12 68 24l24 -91c-24 -15 -53 -29 -97 -29c-116 0 -185 72 -185 176c0 107 66 184 183 184
c91 0 144 -46 169 -90l4 2c-4 12 -7 25 -9 39c-36 78 -117 142 -214 155c-20 -59 -62 -83 -97 -83c-42 0 -77 27 -77 74c0 42 33 80 85 96c-7 53 -35 91 -75 112c-20 -50 -59 -72 -93 -72c-42 0 -76 27 -76 75c0 44 31 79 81 93c-6 49 -29 87 -57 114h-64v92h975v-92z" />
    <glyph glyph-name="bnK_TA" horiz-adv-x="956" 
d="M976 568h-996v92h996v-92zM355 229c100 38 156 83 156 140c0 34 -23 58 -67 58c-60 0 -101 -55 -113 -96l-89 56c26 82 104 141 201 141c78 0 131 -35 157 -85c39 43 88 64 144 64c104 0 186 -72 186 -180c0 -107 -73 -175 -165 -175c-34 0 -63 6 -87 18l21 90
c16 -7 35 -10 51 -10c46 0 73 31 73 76c0 50 -34 80 -84 80c-59 0 -98 -49 -139 -119c-8 -15 -17 -28 -28 -41c44 -30 80 -76 80 -142c0 -116 -90 -194 -225 -194c-230 0 -349 224 -406 476l100 43c53 -243 154 -413 306 -413c72 0 112 42 112 93c0 29 -17 57 -44 75
c-20 -12 -42 -23 -68 -34z" />
    <glyph glyph-name="bnT_TA" horiz-adv-x="701" 
d="M721 568h-741v92h741v-92zM351 229c101 38 156 83 156 140c0 34 -23 58 -66 58c-61 0 -101 -55 -113 -96l-89 56c26 82 104 141 200 141c115 0 175 -75 175 -162c0 -42 -13 -81 -43 -117c46 -29 86 -76 86 -145c0 -116 -90 -194 -222 -194c-234 0 -353 224 -409 476
l100 43c53 -243 154 -413 306 -413c72 0 111 42 111 93c0 30 -18 60 -47 78c-21 -13 -45 -25 -73 -37z" />
    <glyph glyph-name="bnN_TA" horiz-adv-x="638" 
d="M-20 660h678v-92h-103c11 -17 22 -43 22 -83c0 -36 -11 -77 -40 -107c36 -37 55 -91 55 -152c0 -145 -98 -242 -246 -242c-147 0 -244 101 -300 218l83 61c44 -106 117 -183 216 -183c92 0 144 62 144 148c0 58 -23 104 -74 104c-30 0 -54 -19 -54 -53
c0 -24 14 -46 39 -56l-67 -62c-45 21 -77 68 -77 126c0 36 12 68 33 92c-33 21 -61 42 -95 42s-53 -21 -53 -50c0 -23 9 -39 20 -53l-90 -33c-19 19 -35 52 -35 93c0 80 48 143 146 143c111 0 154 -83 225 -83c45 0 64 31 64 65c0 35 -21 65 -67 65h-424v92z" />
    <glyph glyph-name="bnP_TA" horiz-adv-x="709" 
d="M163 520c56 -11 109 -47 135 -113l136 93c-32 44 -79 71 -141 71c-64 0 -107 -30 -130 -51zM431 -128c-156 0 -269 110 -330 254l92 60c53 -136 131 -214 238 -214c92 0 144 58 144 144c0 59 -24 104 -75 104c-30 0 -54 -19 -54 -52c0 -25 15 -47 40 -58l-69 -62
c-46 24 -77 69 -77 127c0 80 58 140 144 145c0 32 -4 63 -11 91l-289 -203l-56 83l87 60c-14 42 -41 78 -95 91c-11 4 -23 6 -42 6l-56 81c46 66 138 139 264 139c117 0 185 -62 215 -108l3 2c-18 51 -22 117 -22 169v30h115v-101h123v-92h-123v-277c55 -36 84 -102 84 -176
c0 -147 -101 -243 -250 -243z" />
    <glyph glyph-name="bnM_TA" horiz-adv-x="636" 
d="M-20 660h675v-92h-93c11 -17 22 -43 22 -83c0 -38 -12 -80 -43 -110c34 -37 52 -90 52 -148c0 -146 -99 -242 -246 -242c-145 0 -248 98 -305 228l85 61c46 -117 120 -193 219 -193c89 0 143 62 143 148c0 57 -23 104 -74 104c-29 0 -53 -20 -53 -55c0 -22 11 -44 35 -57
l-65 -60c-45 26 -75 69 -75 127c0 37 13 69 35 94c-31 20 -59 39 -92 39c-34 0 -53 -21 -53 -50c0 -23 10 -39 21 -53l-91 -33c-19 19 -35 52 -35 93c0 58 26 107 77 129c-5 24 -12 44 -24 61h-115v92zM413 438c46 0 64 31 64 65c0 35 -21 65 -66 65h-196
c6 -16 11 -33 14 -51c82 -16 122 -79 184 -79z" />
    <glyph glyph-name="bnL_TA" horiz-adv-x="781" 
d="M508 -121c-113 0 -204 60 -262 143l68 75c45 -75 113 -122 193 -122c91 0 143 62 143 148c0 58 -22 104 -74 104c-29 0 -53 -19 -53 -53c0 -24 13 -46 38 -56l-67 -62c-45 21 -76 68 -76 126c0 66 40 116 102 134v53c-7 18 -31 43 -66 43c-40 0 -64 -32 -64 -85v-26h-101
v26c0 56 -28 82 -70 82c-40 0 -69 -33 -69 -88c0 -68 45 -99 94 -99c19 0 38 4 54 11l17 -100c-21 -9 -48 -13 -74 -13c-117 0 -198 82 -198 201c0 116 78 191 168 191c76 0 112 -38 128 -71h4c14 39 45 72 98 72c39 0 63 -19 75 -33h4v88h-540v92h821v-92h-170v-254
c80 -25 123 -102 123 -193c0 -145 -99 -242 -246 -242z" />
    <glyph glyph-name="bnSH_TA" horiz-adv-x="786" 
d="M77 568h-97v92h101c69 0 122 -24 157 -70c33 45 86 71 151 71c78 0 119 -38 130 -52h4c-6 22 -13 72 -13 118v34h111v-101h185v-92h-185v-268c90 -23 140 -105 140 -203c0 -152 -103 -250 -257 -250c-180 0 -299 143 -357 314l92 65c54 -174 141 -276 264 -276
c95 0 149 59 149 149c0 59 -25 106 -77 106c-30 0 -55 -21 -55 -54c0 -25 15 -48 40 -59l-70 -64c-47 21 -80 71 -80 132c0 65 37 116 97 136v135c0 86 -47 128 -114 128c-55 0 -99 -38 -99 -101c0 -64 42 -101 101 -101c10 0 23 1 32 4v-101c-10 -2 -24 -4 -38 -4
c-62 0 -115 25 -151 71c-34 -47 -87 -73 -151 -73c-29 0 -55 8 -59 9v101c14 -6 34 -9 54 -9c61 0 100 41 100 101c0 68 -37 112 -105 112z" />
    <glyph glyph-name="bnS_TA" horiz-adv-x="706" 
d="M83 494c25 -28 50 -49 83 -49c54 0 76 61 84 123h-270v92h746v-92h-100c4 -20 6 -38 6 -57c0 -50 -16 -93 -47 -121c36 -37 54 -91 54 -150c0 -146 -98 -242 -246 -242c-161 0 -262 119 -316 250l85 61c43 -124 122 -216 231 -216c91 0 143 63 143 148
c0 58 -23 105 -74 105c-30 0 -54 -20 -54 -53c0 -25 14 -47 39 -57l-67 -61c-45 20 -77 68 -77 125c0 38 14 72 38 97c-14 14 -25 31 -35 52c-24 -59 -70 -98 -140 -98c-52 0 -107 26 -142 73zM526 520c0 19 -2 36 -7 48h-153c3 -67 35 -124 95 -124c47 0 65 34 65 76z" />
    <glyph glyph-name="bnT_THA" horiz-adv-x="839" 
d="M468 431c0 45 -13 75 -29 95c-16 -30 -38 -71 -56 -99h-82c0 78 -18 139 -81 139c-47 0 -72 -40 -72 -87c0 -52 29 -83 76 -83c15 0 31 3 44 11l18 -90c-21 -12 -49 -17 -78 -17c-96 0 -166 64 -166 179c0 109 62 189 171 189c63 0 117 -36 142 -97c19 32 39 67 50 89h53
c69 -51 120 -122 120 -230c0 -151 -88 -238 -263 -274v-4l326 -107h4c-6 59 -8 129 -8 186v530h114v-101h108v-92h-108v-559l52 -18l-72 -84l-619 205v112c239 6 356 76 356 207z" />
    <glyph glyph-name="bnN_THA" horiz-adv-x="623" 
d="M-20 660h662v-92h-85c11 -17 22 -43 22 -83c0 -39 -13 -83 -47 -113c28 -33 44 -78 44 -129c0 -116 -79 -176 -183 -189v-4c36 -9 69 -24 134 -62l75 -45l-77 -76c-213 131 -239 149 -329 158v92h67c134 0 201 46 201 126c0 54 -32 92 -87 92c-39 0 -68 -23 -68 -61
c0 -23 13 -44 41 -56l-77 -58c-52 23 -77 70 -77 123c0 47 21 90 60 118c-20 12 -39 20 -61 20c-34 0 -53 -21 -53 -50c0 -23 9 -39 21 -53l-91 -33c-19 19 -35 52 -35 93c0 80 49 143 147 143c111 0 153 -83 224 -83c45 0 64 31 64 65c0 35 -21 65 -66 65h-426v92z" />
    <glyph glyph-name="bnM_THA" horiz-adv-x="623" 
d="M-20 660h662v-92h-86c11 -17 22 -43 22 -83c0 -39 -13 -83 -46 -113c28 -33 44 -78 44 -129c0 -116 -79 -176 -183 -189v-4c36 -9 69 -24 134 -62l75 -45l-77 -76c-213 131 -239 149 -329 158v92h67c134 0 201 46 201 126c0 54 -32 92 -87 92c-39 0 -68 -23 -68 -61
c0 -23 13 -44 41 -56l-77 -58c-52 23 -77 70 -77 123c0 47 21 90 60 118c-20 11 -39 20 -61 20c-34 0 -53 -21 -53 -50c0 -23 9 -39 20 -53l-90 -33c-19 19 -35 52 -35 93c0 60 27 111 83 132c-5 22 -13 42 -24 58h-116v92zM408 438c45 0 64 31 64 65c0 35 -21 65 -67 65
h-189c7 -16 11 -34 14 -52c78 -19 118 -78 178 -78z" />
    <glyph glyph-name="bnS_THA" horiz-adv-x="695" 
d="M70 494c25 -28 50 -49 83 -49c54 0 76 61 84 123h-257v92h735v-92h-102c4 -20 6 -38 6 -57c0 -48 -15 -88 -42 -117c42 -34 66 -86 66 -149c0 -117 -81 -176 -185 -190v-4c36 -8 71 -24 136 -62l71 -42l-77 -77c-213 131 -236 147 -325 156v93h67c134 0 201 46 201 126
c0 54 -32 91 -87 91c-39 0 -67 -23 -67 -60c0 -24 13 -44 40 -57l-78 -57c-51 22 -76 70 -76 123c0 47 21 89 59 117c-11 13 -21 29 -29 47c-24 -59 -70 -98 -140 -98c-52 0 -107 26 -142 73zM513 520c0 19 -2 36 -7 48h-153c3 -67 35 -124 95 -124c47 0 65 34 65 76z" />
    <glyph glyph-name="bnG_DA" horiz-adv-x="915" 
d="M434 660h501v-92h-396v-243c47 58 143 134 228 167l92 -53c-28 -77 -39 -179 -39 -267v-172h-115v172c0 84 15 149 31 191c-68 -44 -148 -127 -201 -209l-110 42v189c0 107 -56 179 -157 179c-59 0 -104 -28 -130 -60c19 6 42 10 63 10c74 0 144 -46 144 -135
c0 -77 -51 -144 -121 -193l-79 77c52 33 91 73 91 120c0 33 -27 56 -73 56c-22 0 -48 -5 -69 -13l-76 81c36 79 124 158 245 158c89 0 145 -44 177 -82h4c-5 12 -10 41 -10 73v4z" />
    <glyph glyph-name="bnD_DA" horiz-adv-x="845" 
d="M472 235v-21c47 57 146 145 231 177l92 -53c-28 -77 -39 -179 -39 -267v-166h-115v166c0 85 10 147 26 188c-67 -44 -145 -124 -198 -205l-111 45v86c0 89 11 157 25 196c-67 -44 -140 -122 -193 -204l-110 45v346h-100v92h886v-92h-672v-220c47 58 143 134 228 167
l93 -53c-23 -64 -43 -152 -43 -227z" />
    <glyph glyph-name="bnN_DA" horiz-adv-x="855" 
d="M875 568h-394v-243c47 58 142 134 228 167l91 -53c-28 -77 -39 -179 -39 -267v-172h-115v172c0 84 16 149 31 191c-67 -44 -148 -127 -201 -209l-110 42c-30 89 -81 184 -162 184c-41 0 -64 -23 -64 -57c0 -21 9 -37 20 -51l-89 -33c-19 22 -35 52 -35 91
c0 86 59 147 158 147c84 0 145 -45 177 -103l4 1c-4 22 -9 73 -9 150v43h-386v92h895v-92z" />
    <glyph glyph-name="bnB_DA" horiz-adv-x="823" 
d="M720 0h-109v180c0 59 10 127 26 169c-68 -44 -149 -141 -202 -223l-382 168v89c40 38 145 117 272 157v28h-345v92h863v-92h-403v-266c47 58 142 143 228 176l91 -53c-28 -77 -39 -158 -39 -246v-179zM325 282v157c-55 -22 -120 -62 -153 -88z" />
    <glyph glyph-name="bnM_DA" horiz-adv-x="844" 
d="M-20 660h884v-92h-315c11 -17 22 -43 22 -83c0 -59 -30 -130 -119 -146v-87c52 51 150 126 232 156l92 -53c-28 -77 -39 -158 -39 -246v-156h-109v157c0 59 7 120 22 162c-67 -44 -128 -99 -203 -184l-110 42v220c-62 25 -98 71 -150 71c-34 0 -53 -21 -53 -50
c0 -23 9 -39 21 -53l-91 -33c-19 19 -35 52 -35 93c0 61 28 112 85 133c-5 22 -13 41 -24 57h-110v92zM400 438c45 0 64 31 64 65c0 35 -21 65 -66 65h-188c7 -17 12 -34 15 -53c76 -19 116 -77 175 -77z" />
    <glyph glyph-name="bnL_DA" horiz-adv-x="1058" 
d="M953 0h-109v194c0 59 9 127 25 169c-68 -44 -148 -127 -201 -209l-110 42v149c-9 22 -34 45 -69 45c-44 0 -71 -34 -71 -88v-34h-107v34c0 61 -30 85 -71 85c-39 0 -74 -31 -74 -94c0 -69 40 -111 105 -111c22 0 45 5 64 15l17 -100c-25 -9 -53 -14 -86 -14
c-136 0 -214 90 -214 211c0 123 84 195 179 195c77 0 116 -38 134 -75h4c12 42 46 78 106 78c39 0 66 -18 78 -29h5v105h-578v92h1098v-92h-406v-243c47 58 143 134 228 167l91 -53c-28 -77 -38 -158 -38 -246v-193z" />
    <glyph glyph-name="bnG_DHA" horiz-adv-x="810" 
d="M523 761v-101h307v-92h-307v-278c86 36 145 54 159 57l78 -69s-22 -49 -22 -224v-100h-106v101c0 89 9 141 19 172c-29 -11 -72 -28 -128 -52v-255l49 -22l-66 -74l-360 168v102c97 61 190 110 270 148v143c0 107 -54 179 -154 179c-59 0 -104 -28 -130 -60
c19 6 42 10 62 10c83 0 145 -53 145 -141c0 -73 -42 -138 -108 -187l-87 71c45 31 85 67 85 117c0 34 -27 55 -73 55c-22 0 -47 -5 -68 -12l-76 90c36 79 124 158 244 158c90 0 145 -44 178 -82h4c-11 30 -20 88 -20 150v28h105zM420 -33h5c-5 54 -8 102 -8 159
c-48 -23 -101 -50 -158 -82z" />
    <glyph glyph-name="bnN_DHA" horiz-adv-x="773" 
d="M-20 568v92h813v-92h-310v-180c86 36 145 55 159 58l78 -70s-22 -48 -22 -223v-100h-106v100c0 90 10 142 19 172c-29 -10 -72 -27 -128 -51v-256l49 -22l-66 -74l-360 168v103c82 51 161 94 232 129c-36 48 -77 83 -130 83c-42 0 -64 -22 -64 -55c0 -23 9 -38 20 -52
l-90 -34c-19 22 -34 53 -34 92c0 86 59 147 158 147c83 0 144 -41 179 -97l4 1c-3 22 -8 73 -8 149v12h-393zM380 65h5c-5 54 -8 102 -8 160c-48 -24 -101 -51 -158 -83z" />
    <glyph glyph-name="bnD_DHA" horiz-adv-x="753" 
d="M773 568h-593v-195c62 52 150 109 230 140l86 -52c-17 -47 -28 -103 -34 -160c84 34 140 52 153 55l79 -69s-22 -49 -22 -224v-114h-106v115c0 89 9 141 19 171c-29 -10 -73 -27 -128 -51v-256l49 -22l-66 -73l-360 168v102c98 62 192 111 273 149c3 57 12 102 24 133
c-71 -43 -123 -80 -201 -158l-107 42v299h-89v92h793v-92zM354 -24h5c-5 53 -9 102 -9 159c-48 -24 -100 -51 -157 -82z" />
    <glyph glyph-name="bnB_DHA" horiz-adv-x="746" 
d="M-20 568v92h786v-92h-309v-281c84 35 144 56 157 59l78 -70s-22 -49 -22 -224v-100h-105v101c0 91 6 141 13 170c-29 -10 -69 -26 -121 -49v-272l48 -19l-68 -77l-382 156v115c61 40 125 76 186 108l-186 76v108c88 69 200 129 295 165v34h-370zM358 -57
c-5 54 -8 115 -8 168v13c-55 -27 -118 -60 -187 -99l191 -82h4zM354 241c2 1 3 1 4 2c-5 53 -8 114 -8 167v17c-68 -31 -141 -74 -185 -105z" />
    <glyph glyph-name="bnL_DHA" horiz-adv-x="941" 
d="M-20 568v92h981v-92h-305v-209c84 36 144 56 157 59l79 -70s-23 -48 -23 -224v-99h-105v100c0 91 6 142 13 170c-28 -10 -69 -26 -121 -49v-266l48 -22l-71 -78l-355 167v116c92 59 187 109 271 149v52c-9 21 -34 44 -71 44c-43 0 -74 -32 -74 -86v-34h-103v33
c0 58 -32 84 -70 84c-44 0 -76 -34 -76 -92c0 -62 31 -91 74 -104l-39 -94c-91 24 -146 98 -146 198c0 120 83 192 178 192c76 0 118 -41 130 -75h4c12 41 54 77 109 77c42 0 70 -18 79 -28h5v89h-569zM557 28c-5 53 -8 101 -8 161v7c-49 -24 -105 -53 -166 -87l169 -81h5z
" />
    <glyph glyph-name="bnK_NA" horiz-adv-x="715" 
d="M735 568h-290v-25c161 -8 228 -103 228 -187c0 -88 -54 -141 -115 -168l-56 83c34 13 68 41 68 88s-48 83 -125 88v-543h-103c-29 81 -73 161 -151 161c-37 0 -61 -20 -61 -55c0 -18 8 -32 18 -45l-92 -32c-17 22 -28 54 -28 90c0 81 60 142 151 142
c77 0 135 -41 167 -96h4c-3 16 -9 52 -11 97l-271 121v105c53 53 149 121 270 144v32h-358v92h755v-92zM346 273c-5 51 -8 110 -8 163c-65 -18 -123 -53 -166 -88l170 -75h4z" />
    <glyph glyph-name="bnG_NA" horiz-adv-x="611" 
d="M523 761v-101h108v-92h-108v-652h-101c-28 80 -73 160 -150 160c-37 0 -61 -20 -61 -55c0 -17 7 -32 18 -45l-93 -31c-16 22 -28 53 -28 90c0 81 61 141 151 141c78 0 136 -40 168 -96l4 1c-5 21 -13 73 -13 137v167c0 107 -56 179 -156 179c-59 0 -102 -24 -133 -60
c19 6 45 10 61 10c94 0 152 -54 152 -142c0 -67 -37 -134 -102 -180l-86 68c50 32 79 74 79 115c0 36 -28 55 -76 55c-25 0 -48 -5 -69 -13l-76 90c38 86 124 158 244 158c90 0 145 -44 178 -82h4c-11 30 -20 88 -20 150v28h105z" />
    <glyph glyph-name="bnGH_NA" horiz-adv-x="610" 
d="M419 -139c-29 80 -84 158 -161 158c-38 0 -62 -20 -62 -55c0 -17 6 -32 17 -46l-92 -30c-16 22 -28 53 -28 89c0 84 64 142 155 142c82 0 141 -41 175 -96l4 1c-3 16 -9 54 -11 102l-357 103v99l33 21c44 27 76 37 79 38v5c-68 8 -121 44 -121 116c0 23 6 43 15 60h-85
v92h650v-92h-108v-707h-103zM420 230l3 1c-5 46 -9 103 -9 162v175h-232c-12 -15 -19 -33 -19 -52c0 -42 36 -61 75 -61c28 0 56 7 89 29l44 -91l-172 -100z" />
    <glyph glyph-name="bnC_NA" horiz-adv-x="516" 
d="M536 568h-349c13 -23 43 -35 97 -55l43 -15c92 -33 138 -73 138 -159c0 -34 -9 -66 -25 -94v-398h-104c-28 78 -80 155 -155 155c-36 0 -57 -21 -57 -53c0 -19 8 -34 18 -47l-90 -32c-18 21 -32 53 -32 89c0 78 55 143 149 143c77 0 140 -40 171 -95l4 1
c-3 21 -12 70 -12 133v13c-28 -11 -58 -17 -91 -17c-104 0 -165 57 -165 153v278h-96v92h556v-92zM185 455h-4c0 -11 6 -46 6 -133v-33c0 -34 16 -53 54 -53c58 0 116 47 116 102c0 35 -16 46 -66 64l-31 11c-41 14 -62 29 -75 42z" />
    <glyph glyph-name="bnD_NA" horiz-adv-x="526" 
d="M546 568h-364v-185c45 44 131 105 209 134l85 -52c-26 -70 -29 -137 -29 -215v-309h-102c-28 78 -80 161 -155 161c-35 0 -57 -21 -57 -53c0 -19 8 -34 19 -47l-91 -32c-18 21 -32 53 -32 90c0 77 55 142 149 142c77 0 139 -42 171 -98l4 1c-3 21 -12 70 -12 133v13
c0 54 8 109 22 148c-63 -41 -126 -91 -185 -153l-105 38v284h-93v92h566v-92z" />
    <glyph glyph-name="bnDH_NA" horiz-adv-x="579" 
d="M150 518c0 -42 43 -57 80 -57c55 0 106 28 153 59v140h216v-92h-107v-703h-104c-28 78 -89 155 -167 155c-36 0 -59 -21 -59 -53c0 -19 8 -34 19 -47l-91 -32c-18 21 -32 53 -32 89c0 78 55 143 149 143c77 0 145 -39 185 -103l4 1c-3 18 -9 55 -11 105l-332 112v103
l25 14c44 25 82 38 82 38v5c-66 8 -123 50 -123 127c0 90 64 150 162 150c40 0 84 -11 111 -33l-31 -85c-23 15 -46 20 -67 20c-36 0 -62 -19 -62 -56zM390 229l3 1c-6 45 -10 100 -10 157v14l-196 -103z" />
    <glyph glyph-name="bnT_NA" horiz-adv-x="653" 
d="M-20 660h693v-92h-693v92zM122 501c34 -167 115 -310 249 -310c90 0 138 63 138 143c0 60 -24 101 -72 101c-30 0 -53 -20 -53 -52c0 -24 14 -44 38 -53l-68 -62c-44 20 -75 67 -75 124c0 79 62 139 151 139c119 0 183 -88 183 -199c0 -79 -30 -144 -83 -186v-341h-104
c-28 78 -89 160 -167 160c-36 0 -59 -20 -59 -52c0 -19 8 -34 19 -47l-91 -33c-18 22 -32 54 -32 90c0 78 55 143 149 143c77 0 145 -42 185 -106h4c-3 21 -12 70 -12 133v7c-16 -3 -33 -4 -50 -4c-201 0 -303 183 -343 352z" />
    <glyph glyph-name="bnN_NA" horiz-adv-x="574" 
d="M-20 568v92h614v-92h-108v-595h-96c-38 87 -97 180 -180 180c-41 0 -64 -23 -64 -55c0 -23 9 -39 20 -53l-90 -34c-19 22 -34 53 -34 92c0 86 61 147 160 147c83 0 145 -43 180 -99l4 1c-2 17 -6 51 -7 100c-38 79 -94 155 -169 155c-41 0 -64 -23 -64 -55
c0 -23 9 -39 20 -52l-90 -35c-19 22 -34 54 -34 93c0 86 61 146 160 146c83 0 145 -44 180 -99l4 1c-3 22 -8 74 -8 151v11h-398z" />
    <glyph glyph-name="bnP_NA" horiz-adv-x="655" 
d="M150 520c51 -10 100 -41 129 -96l129 85c-29 39 -71 62 -128 62c-64 0 -107 -30 -130 -51zM74 447l-53 87c45 64 137 134 252 134c116 0 174 -59 204 -105l4 2c-17 41 -22 117 -22 169v27h109v-101h107v-92h-107v-603h-97c-41 88 -98 173 -179 173c-41 0 -64 -23 -64 -55
c0 -23 9 -39 21 -52l-90 -35c-20 22 -35 54 -35 93c0 86 61 146 160 146c84 0 146 -43 181 -99l4 1c-4 23 -8 81 -8 151v25c0 37 -4 73 -12 106l-289 -192l-54 83l88 58c-14 29 -37 51 -69 64c-13 7 -27 13 -51 15z" />
    <glyph glyph-name="bnM_NA" horiz-adv-x="621" 
d="M-20 660h660v-92h-84c11 -17 22 -43 22 -83c0 -44 -16 -96 -62 -125v-360h-103c-22 80 -80 177 -164 177c-38 0 -62 -20 -62 -52c0 -19 8 -34 18 -47l-90 -32c-18 21 -32 53 -32 89c0 78 59 143 152 143c77 0 140 -38 182 -102l4 1c-4 21 -12 70 -12 144v15
c-105 6 -148 85 -214 85c-34 0 -53 -21 -53 -50c0 -23 9 -39 20 -53l-90 -33c-19 19 -35 52 -35 93c0 60 27 111 83 132c-5 22 -13 42 -24 58h-116v92zM408 438c45 0 64 31 64 65c0 35 -21 65 -67 65h-189c7 -16 11 -34 14 -52c78 -19 118 -78 178 -78z" />
    <glyph glyph-name="bnSH_NA" horiz-adv-x="641" 
d="M32 293v94c12 -2 24 -3 37 -3c62 0 93 33 93 92c0 57 -31 92 -99 92h-83v92h89c61 0 109 -19 143 -59c32 39 74 61 131 61c68 0 100 -30 114 -47h4c-5 20 -12 69 -12 112v34h104v-101h108v-92h-108v-578h-103c-26 73 -85 160 -166 160c-37 0 -60 -20 -60 -53
c0 -18 8 -33 19 -47l-91 -32c-18 22 -32 54 -32 90c0 77 56 142 149 142c77 0 145 -39 185 -103l4 1c-3 21 -12 71 -12 131v167c0 82 -34 121 -95 121c-53 0 -89 -31 -89 -92c0 -58 41 -90 97 -90c9 0 19 1 29 3v-94c-8 -2 -20 -3 -34 -3c-59 0 -108 21 -142 63
c-34 -44 -78 -66 -138 -66c-16 0 -31 3 -42 5z" />
    <glyph glyph-name="bnS_NA" horiz-adv-x="667" 
d="M75 494c24 -28 49 -49 83 -49c54 0 76 61 84 123h-262v92h707v-92h-69c4 -20 6 -38 6 -57c0 -66 -29 -119 -81 -145v-366h-102c-26 78 -86 185 -167 185c-37 0 -60 -20 -60 -53c0 -18 8 -34 19 -47l-91 -32c-18 22 -32 54 -32 90c0 77 56 142 149 142
c77 0 145 -39 185 -103h4c-3 21 -12 77 -12 137v31c-64 8 -111 42 -138 99c-24 -59 -70 -98 -140 -98c-52 0 -107 26 -143 73zM518 520c0 19 -3 36 -7 48h-153c3 -67 35 -124 95 -124c46 0 65 34 65 76z" />
    <glyph glyph-name="bnH_NA" horiz-adv-x="778" 
d="M246 132c36 -9 72 -24 137 -62l85 -50l-77 -77c-222 134 -249 155 -338 163v93h66c134 0 201 51 201 130c0 56 -32 94 -87 94c-39 0 -68 -24 -68 -61c0 -23 13 -44 41 -56l-77 -58c-52 22 -77 70 -77 123c0 85 69 154 182 154c80 0 142 -37 174 -96c38 56 88 82 153 82
c104 0 182 -68 182 -183c0 -103 -69 -171 -166 -171c-34 0 -70 6 -97 18l22 92c26 -10 43 -13 63 -13c44 0 75 29 75 77c0 50 -32 79 -82 79c-68 0 -103 -58 -132 -134c-21 -83 -92 -128 -180 -140v-4zM798 568h-818v92h818v-92z" />
    <glyph glyph-name="bnK_SS_NA" horiz-adv-x="935" 
d="M565 152c-7 54 -10 127 -11 184h-46c-115 0 -179 59 -179 180v52h-166c21 -31 37 -72 39 -116c81 -23 154 -95 161 -199c101 -12 176 -64 202 -101zM502 436h52v132h-118v-55c0 -61 28 -77 66 -77zM955 568h-289v-131h22c134 0 199 -72 199 -169
c0 -91 -57 -144 -113 -167l-59 83c32 11 67 40 67 85c0 49 -33 67 -88 67h-28v-574h-103c-37 76 -104 158 -188 158c-38 0 -60 -21 -60 -53c0 -23 13 -40 30 -52l-88 -37c-26 20 -46 56 -46 100c0 77 55 142 153 142c73 0 152 -39 202 -114l4 1c-3 21 -11 59 -11 113
c-39 70 -116 127 -206 139c-20 -59 -62 -83 -97 -83c-42 0 -77 27 -77 74c0 42 33 80 85 96c-7 53 -35 91 -75 112c-20 -50 -59 -72 -93 -72c-42 0 -76 27 -76 75c0 44 31 79 81 93c-6 49 -29 87 -57 114h-64v92h975v-92z" />
    <glyph glyph-name="bnM_PA" horiz-adv-x="1090" 
d="M569 520c64 -12 124 -58 144 -141l143 94c-31 60 -83 98 -157 98c-64 0 -108 -30 -130 -51zM1003 0h-113v313c0 22 -1 44 -4 64l-293 -198l-56 83l91 61c-8 44 -28 84 -70 107c-17 -50 -60 -94 -147 -94c-115 0 -158 85 -227 85c-34 0 -53 -21 -53 -50
c0 -23 9 -39 20 -53l-90 -33c-19 19 -35 52 -35 93c0 61 28 112 84 133c-4 22 -12 41 -23 57h-107v92h499c21 -13 37 -29 50 -45c41 31 100 53 166 53c113 0 181 -62 211 -108l3 2c-17 51 -21 117 -21 169v30h115v-101h107v-92h-107v-568zM397 438c45 0 64 31 64 65
c0 35 -21 65 -67 65h-187c6 -16 11 -34 14 -53c77 -19 116 -77 176 -77z" />
    <glyph glyph-name="bnL_PA" horiz-adv-x="731" 
d="M-20 568v92h772v-92h-108v-798h-110v107c0 36 -4 70 -11 101l-288 -196l-57 82l91 61c-17 37 -45 69 -94 80c-9 3 -21 6 -40 6l-56 81c45 66 138 140 262 139c116 0 180 -62 210 -107l3 1c-16 41 -22 117 -22 180v61c-8 21 -29 45 -63 45c-41 0 -67 -33 -67 -88v-19h-100
v19c0 52 -27 84 -69 84c-41 0 -68 -26 -68 -69c0 -30 16 -54 39 -70l-76 -66c-43 26 -75 81 -75 136c0 102 71 171 169 172c69 0 112 -35 130 -73h4c13 41 47 75 99 75c41 0 63 -18 73 -29h4v85h-552zM219 84c56 -13 103 -45 133 -104l132 87c-31 42 -76 67 -136 67
c-64 0 -106 -30 -129 -50z" />
    <glyph glyph-name="bnSS_PA" horiz-adv-x="1009" 
d="M254 570c-22 0 -41 -5 -58 -14l160 -147c6 14 9 31 9 49c0 67 -45 112 -111 112zM254 345c23 0 43 5 59 15l-160 144c-5 -14 -8 -29 -8 -46c0 -69 44 -113 109 -113zM479 518c69 -11 144 -54 171 -135l127 87c-31 62 -84 101 -159 101c-64 0 -117 -32 -139 -53zM922 0
h-113v313c0 20 -1 40 -4 59l-286 -200l-56 83l102 70c-16 42 -51 81 -99 96c-15 -109 -98 -172 -212 -172c-126 0 -215 78 -215 209c0 43 11 80 29 110h-88v92h274c65 0 123 -21 162 -61c56 45 123 69 198 69c113 0 181 -62 211 -108l3 2c-17 51 -21 117 -21 169v30h115
v-101h107v-92h-107v-568z" />
    <glyph glyph-name="bnS_PA" horiz-adv-x="1150" 
d="M1062 0h-113v313c0 22 -1 44 -4 64l-293 -198l-56 83l91 61c-9 47 -31 91 -80 111c-24 -53 -75 -85 -146 -85c-77 0 -134 41 -164 100c-24 -59 -70 -98 -140 -98c-52 0 -107 26 -142 73l59 70c25 -28 50 -49 83 -49c54 0 76 61 84 123h-261v92h605c8 -14 14 -27 19 -39
c40 29 90 47 150 47c113 0 181 -62 211 -108l4 2c-18 51 -22 117 -22 169v30h115v-101h108v-92h-108v-568zM510 568h-153c3 -67 35 -124 95 -124c47 0 65 34 65 76c0 19 -2 36 -7 48zM628 520c64 -12 124 -58 144 -141l143 95c-31 59 -83 97 -157 97
c-64 0 -107 -30 -130 -51z" />
    <glyph glyph-name="bnP_PA" horiz-adv-x="683" 
d="M165 174c54 -12 101 -46 131 -105l134 92c-31 40 -76 63 -135 63c-64 0 -107 -29 -130 -50zM165 520c61 -13 112 -51 140 -120l134 99c-32 45 -81 72 -144 72c-64 0 -107 -30 -130 -51zM90 448l-57 84c48 69 134 136 255 136c117 0 185 -62 215 -108l3 2
c-18 51 -21 117 -21 169v30h111v-101h107v-92h-107v-704h-110v102c0 39 -4 75 -13 107l-291 -201l-55 82l87 59c-18 37 -46 67 -94 79c-7 2 -16 4 -30 5l-57 84c18 24 41 48 69 69l121 89c-16 45 -45 89 -103 103c-8 3 -16 5 -30 6zM503 209l3 2c-10 34 -17 87 -19 134
c-1 23 -4 44 -8 64l-49 -35c-30 -22 -66 -44 -102 -64c93 -11 149 -60 175 -101z" />
    <glyph glyph-name="bnM_PHA" horiz-adv-x="1039" 
d="M-20 660h1079v-92h-513c12 -23 20 -52 20 -83c0 -36 -11 -77 -39 -106l41 -49v-79l-123 -94l192 -92h4c-7 59 -11 139 -11 197v218c37 19 89 33 144 33c119 0 216 -68 216 -193c0 -105 -67 -160 -126 -185l-60 88c39 14 79 44 79 99c0 62 -45 90 -99 90
c-15 0 -30 -3 -44 -7v-388l47 -23l-77 -77l-386 184v100l132 99l-31 37c-5 -1 -11 -1 -16 -1c-114 0 -149 85 -218 85c-34 0 -53 -21 -53 -50c0 -23 9 -39 20 -53l-90 -33c-19 19 -35 52 -35 93c0 57 25 106 75 129c-5 23 -12 44 -24 61h-104v92zM395 438c46 0 64 31 64 65
c0 35 -21 65 -66 65h-189c6 -16 11 -33 14 -51c82 -16 115 -79 177 -79z" />
    <glyph glyph-name="bnS_PHA" horiz-adv-x="1094" 
d="M23 424l59 70c25 -28 50 -49 83 -49c55 0 77 61 84 123h-269v92h1134v-92h-488c4 -20 6 -38 6 -57c0 -54 -19 -98 -54 -127l46 -54v-79l-124 -94l192 -92h4c-7 59 -10 139 -10 197v218c37 19 89 33 144 33c119 0 215 -68 215 -193c0 -105 -67 -160 -126 -185l-60 88
c40 14 79 44 79 99c0 62 -45 90 -98 90c-15 0 -31 -3 -45 -7v-388l47 -23l-76 -77l-387 184v100l132 99l-41 49c-77 0 -133 29 -164 100c-24 -59 -70 -98 -141 -98c-52 0 -106 26 -142 73zM518 568h-153c4 -67 35 -124 96 -124c46 0 65 34 65 76c0 19 -3 36 -8 48z" />
    <glyph glyph-name="bnL_PHA" horiz-adv-x="1152" 
d="M-20 568v92h1192v-92h-536v-152l50 -64v-75l-129 -99l203 -107h4c-6 58 -10 137 -10 196v213c36 19 92 33 147 33c119 0 215 -68 215 -193c0 -105 -67 -160 -126 -185l-59 88c39 14 78 44 78 99c0 62 -44 90 -98 90c-15 0 -30 -3 -45 -7v-392l45 -25l-73 -76l-395 213v96
l129 99l-48 60c-17 22 -36 42 -69 42c-40 0 -67 -31 -67 -84v-34h-98v33c0 59 -30 82 -68 82s-73 -30 -73 -88c0 -69 43 -111 109 -111c15 0 31 3 46 8l11 -94c-22 -7 -44 -10 -65 -10c-121 0 -206 84 -206 205c0 118 80 188 169 188c76 0 114 -43 125 -76h5
c9 40 45 79 102 79c39 0 65 -19 74 -29h5v77h-544z" />
    <glyph glyph-name="bnSS_PHA" horiz-adv-x="986" 
d="M254 572c-21 0 -40 -5 -56 -14l157 -144c6 14 9 30 9 47c0 64 -46 111 -110 111zM254 348c23 0 43 6 60 17l-159 144c-7 -15 -10 -31 -10 -48c0 -65 46 -113 109 -113zM1006 568h-565c19 -29 29 -65 29 -107s-10 -79 -29 -110l77 -75v-79l-113 -84l181 -86h4
c-7 58 -10 145 -10 203v245c36 19 89 33 143 33c120 0 216 -68 216 -193c0 -105 -67 -160 -126 -185l-60 88c40 13 79 44 79 98c0 63 -45 91 -98 91c-16 0 -31 -3 -45 -7v-421l47 -23l-76 -77l-376 178v97l120 87l-39 38c-32 -16 -70 -25 -111 -25c-122 0 -215 80 -215 207
c0 42 10 78 29 107h-88v92h1026v-92z" />
    <glyph glyph-name="bnD_BHA" horiz-adv-x="671" 
d="M691 568h-390v-169c47 42 131 94 209 123l84 -52c-25 -69 -28 -137 -28 -215v-16c35 -31 77 -100 77 -188c0 -127 -85 -230 -259 -230c-211 0 -318 181 -367 364l90 45c34 -139 111 -307 278 -307c107 0 159 57 159 132c0 31 -9 57 -20 75h-4c-22 -57 -67 -106 -144 -106
c-88 0 -141 58 -141 127c0 33 9 57 17 72l102 -14c-10 -13 -16 -34 -16 -52c0 -26 14 -44 45 -44c32 0 57 28 77 85v58c0 53 7 110 22 148c-59 -35 -121 -78 -186 -141l-105 38v267h-211v92h711v-92z" />
    <glyph glyph-name="bnM_BHA" horiz-adv-x="671" 
d="M-20 660h711v-92h-110c11 -17 22 -43 22 -83c0 -45 -17 -97 -64 -126c37 -35 87 -102 87 -200c0 -127 -86 -230 -259 -230c-177 0 -281 126 -338 274l85 56c42 -118 118 -228 254 -228c106 0 158 57 158 132c0 31 -8 57 -19 75h-4c-22 -57 -68 -106 -145 -106
c-88 0 -141 58 -141 127c0 33 10 57 18 72l101 -14c-10 -13 -16 -34 -16 -52c0 -26 15 -44 45 -44c38 0 65 38 87 115h-5c-115 0 -158 85 -227 85c-34 0 -53 -21 -53 -50c0 -23 9 -39 21 -53l-91 -33c-19 19 -35 52 -35 93c0 58 25 107 77 130c-5 23 -13 43 -25 60h-134v92z
M433 438c45 0 64 31 64 65c0 35 -21 65 -67 65h-196c7 -16 11 -33 15 -51c83 -16 122 -79 184 -79z" />
    <glyph glyph-name="bnB_BHA" horiz-adv-x="653" 
d="M673 568h-124v-380c36 -31 78 -100 78 -188c0 -127 -84 -230 -257 -230c-212 0 -317 183 -364 355l89 49c33 -130 106 -302 275 -302c107 0 158 57 158 132c0 31 -9 57 -20 75h-4c-22 -57 -67 -107 -144 -107c-89 0 -141 58 -141 128c0 32 9 57 17 71l101 -14
c-9 -13 -16 -34 -16 -51c0 -27 15 -44 45 -44c33 0 57 29 78 87l-298 121v113c96 78 198 131 296 166v19h-462v92h693v-92zM446 255h5c-5 53 -9 117 -9 170v18c-64 -28 -136 -69 -189 -108z" />
    <glyph glyph-name="bnL_BHA" horiz-adv-x="733" 
d="M753 568h-118v-374c35 -31 76 -100 76 -187c0 -127 -85 -230 -259 -230c-182 0 -307 138 -364 284l85 57c44 -118 136 -239 282 -239c105 0 157 57 157 132c0 31 -9 56 -20 74h-4c-16 -56 -62 -106 -139 -106c-87 0 -139 58 -139 128c0 44 14 75 22 90l101 -14
c-9 -13 -20 -43 -20 -70s14 -44 43 -44c35 0 58 34 74 87v223c-8 20 -33 44 -69 44c-42 0 -70 -32 -70 -85v-34h-99v34c0 58 -30 81 -68 81c-37 0 -72 -30 -72 -87c0 -61 38 -91 89 -91c10 0 20 2 30 4l8 -95c-16 -4 -34 -6 -50 -6c-97 0 -182 66 -182 186
c0 118 80 187 169 187c75 0 113 -41 125 -75h4c11 41 48 78 104 78c40 0 67 -18 76 -29h5v77h-550v92h773v-92z" />
    <glyph glyph-name="bnK_MA" horiz-adv-x="933" 
d="M952 568h-120v-670h-105c-67 92 -194 152 -304 173c-17 -61 -61 -86 -102 -86c-45 0 -82 28 -82 79c0 42 25 77 68 94l-254 119v106c53 52 151 121 271 145v40h-344v92h972v-92zM327 258h5c-5 53 -8 114 -8 168v2c-65 -19 -124 -55 -167 -89zM730 44c-1 18 -7 66 -7 176
v348h-292v-31c162 -8 226 -99 226 -178c0 -85 -55 -136 -113 -160l-56 83c34 12 66 34 66 77c0 48 -43 78 -123 82v-276c108 -12 213 -56 299 -121z" />
    <glyph glyph-name="bnG_MA" horiz-adv-x="889" 
d="M420 761h109v-101h378v-92h-108v-640h-105c-31 78 -95 143 -175 169c-19 -57 -60 -82 -99 -82c-45 0 -82 27 -82 78c0 47 31 86 83 100v192c0 107 -56 179 -157 179c-57 0 -103 -27 -129 -59c19 6 42 9 62 9c74 0 143 -46 143 -135c0 -77 -50 -144 -119 -193l-80 77
c52 33 91 73 91 120c0 33 -26 56 -72 56c-22 0 -48 -5 -70 -13l-76 81c37 79 125 158 245 158c89 0 144 -40 177 -81h4c-11 30 -20 88 -20 149v28zM697 96c-1 18 -6 66 -6 177v295h-162v-376c73 -15 134 -55 168 -96z" />
    <glyph glyph-name="bnNG_MA" horiz-adv-x="888" 
d="M364 498c43 0 64 22 64 52c0 25 -20 46 -52 46c-31 0 -49 -19 -49 -55v-39c12 -3 24 -4 37 -4zM801 -208h-106c-44 88 -120 149 -207 171c-18 -59 -60 -85 -100 -85c-45 0 -83 27 -83 78c0 47 31 86 82 100v27c-10 -1 -20 -1 -31 -1c-210 0 -330 154 -334 331l96 19
c5 -177 117 -255 238 -255c94 0 159 40 159 103c0 16 -5 33 -11 41c-43 -29 -89 -50 -145 -50c-87 0 -137 53 -137 129v59c-49 27 -88 66 -117 109h-125v92h188c11 -37 32 -75 62 -106c3 68 53 119 140 119c25 0 49 -5 69 -13h469v-92h-107v-776zM699 -45
c-1 18 -7 70 -7 181v432h-173c1 -7 2 -14 2 -22c0 -73 -60 -123 -156 -123c-13 0 -26 1 -38 2v-18c0 -26 12 -39 38 -39c34 0 84 15 173 74c43 -31 80 -82 80 -157c0 -86 -43 -147 -121 -179v-50c78 -13 153 -49 202 -101z" />
    <glyph glyph-name="bnTT_MA" horiz-adv-x="787" 
d="M598 22c-1 18 -7 66 -7 177v369h-400v-275c0 -37 25 -59 68 -59c70 0 128 52 128 119c0 37 -19 59 -54 59c-18 0 -37 -9 -47 -22l-50 88c21 21 61 39 102 39c88 0 158 -55 158 -166c0 -58 -25 -112 -67 -152v-81c73 -15 134 -55 169 -96zM478 688c0 -9 0 -18 -2 -28h330
v-92h-106v-714h-106c-30 77 -95 141 -176 168c-19 -57 -59 -81 -98 -81c-45 0 -83 27 -83 78c0 47 31 86 82 100v21c-19 -5 -39 -7 -60 -7c-114 0 -178 62 -178 158v277h-101v92h386c1 8 2 15 2 21c0 55 -34 74 -104 74h-61c-155 0 -206 80 -206 160c0 8 1 18 2 26l109 19
c-1 -10 -3 -20 -3 -29c0 -39 19 -80 103 -80h77c105 0 193 -54 193 -163z" />
    <glyph glyph-name="bnDD_MA" horiz-adv-x="938" 
d="M748 -26c-1 18 -6 70 -6 181v413h-372v-101c0 -30 11 -41 34 -41c30 0 90 35 153 84c46 -29 91 -95 91 -177c0 -67 -24 -124 -69 -165v-83c69 -20 135 -66 169 -111zM958 568h-108v-758h-105c-32 78 -98 143 -179 175c-19 -53 -58 -76 -95 -76c-45 0 -83 29 -83 79
c0 49 32 90 86 103v21c-28 -8 -60 -12 -94 -12c-212 0 -336 168 -341 368l109 25c3 -201 109 -290 233 -290c95 0 159 50 159 125c0 19 -4 35 -12 49c-38 -29 -86 -55 -139 -55c-87 0 -134 57 -134 140v106h-275v92h978v-92z" />
    <glyph glyph-name="bnNN_MA" horiz-adv-x="881" 
d="M699 108c0 18 -6 66 -6 176v284h-162v-364c73 -15 134 -55 168 -96zM424 729v32h107v-101h369v-92h-98v-628h-106c-31 78 -95 142 -176 168c-18 -57 -59 -81 -98 -81c-45 0 -83 27 -83 78c0 47 31 86 82 100v106c0 128 -32 252 -161 252c-76 0 -117 -48 -117 -112
c0 -59 39 -96 102 -96c21 0 43 5 62 14l27 -89c-27 -16 -61 -25 -102 -25c-125 0 -202 85 -202 196c0 123 80 215 219 215c100 0 156 -50 186 -96l5 2c-11 39 -16 88 -16 157z" />
    <glyph glyph-name="bnT_MA" horiz-adv-x="898" 
d="M920 568h-109v-755h-106c-40 82 -118 145 -208 170c-18 -58 -59 -83 -99 -83c-45 0 -83 27 -83 78c0 47 31 86 82 100v27c-13 -1 -26 -2 -39 -2c-202 0 -300 184 -341 352l93 53c36 -165 112 -311 247 -311c91 0 140 62 140 144c0 58 -24 101 -72 101
c-30 0 -51 -19 -51 -51c0 -23 10 -43 35 -57l-70 -62c-44 23 -72 67 -72 122c0 87 65 143 153 143c119 0 180 -93 180 -198c0 -86 -34 -154 -93 -194v-67c79 -14 156 -53 201 -103c0 18 -6 66 -6 177v416h-722v92h940v-92z" />
    <glyph glyph-name="bnD_MA" horiz-adv-x="814" 
d="M624 87c-1 18 -6 66 -6 176v305h-431v-188c60 50 144 105 224 136l86 -52c-28 -77 -39 -173 -39 -260v-21c72 -16 132 -55 166 -96zM834 568h-108v-649h-105c-31 77 -94 140 -174 167c-19 -56 -59 -80 -98 -80c-45 0 -83 27 -83 78c0 47 31 86 82 100v23
c0 84 11 142 27 184c-64 -39 -119 -79 -192 -155l-107 42v290h-96v92h854v-92z" />
    <glyph glyph-name="bnDH_MA" horiz-adv-x="845" 
d="M656 62c-1 18 -7 66 -7 177v329h-161v-410c72 -16 133 -55 168 -96zM865 568h-107v-674h-105c-32 78 -95 143 -175 169c-19 -57 -60 -82 -99 -82c-45 0 -83 27 -83 78c0 31 14 59 39 79l-286 97v103l25 14c44 25 82 38 82 38v5c-68 8 -123 50 -123 127
c0 90 64 150 162 150c40 0 84 -11 111 -33l-31 -85c-23 15 -46 20 -67 20c-36 0 -62 -19 -62 -56c0 -42 43 -57 80 -57c52 0 106 26 153 55v144h486v-92zM386 227l3 1c-6 44 -10 100 -10 157v16l-199 -104z" />
    <glyph glyph-name="bnN_MA" horiz-adv-x="833" 
d="M643 120c-1 18 -6 66 -6 177v271h-162v-352c73 -15 134 -55 168 -96zM926 568h-181v-616h-105c-31 80 -94 145 -175 170c-18 -58 -60 -83 -99 -83c-45 0 -83 27 -83 78c0 47 31 86 82 100v64l-39 32c-48 39 -82 60 -119 60c-40 0 -66 -23 -66 -56c0 -27 13 -46 26 -59
l-85 -42c-23 22 -44 61 -44 107c0 82 63 147 160 147c62 0 110 -25 167 -69v167h-389v92h950v-92z" />
    <glyph glyph-name="bnP_MA" horiz-adv-x="926" 
d="M737 108c-1 18 -7 66 -7 177v283h-162v-364c73 -15 134 -55 169 -96zM150 520c57 -11 113 -48 138 -117l133 87c-29 49 -75 81 -140 81c-64 0 -108 -30 -131 -51zM839 -60h-105c-31 78 -96 142 -176 168c-19 -57 -59 -81 -99 -81c-45 0 -83 27 -83 78c0 47 32 87 85 101
v107c0 28 -2 56 -7 82l-294 -193l-54 83l97 63c-13 40 -39 69 -79 84c-12 7 -26 13 -50 15l-53 87c46 64 137 134 252 134c117 0 175 -59 205 -105l3 2c-17 41 -21 117 -21 169v27h108v-101h377v-92h-106v-628z" />
    <glyph glyph-name="bnM_MA" horiz-adv-x="845" 
d="M393 438c45 0 64 31 64 65c0 35 -21 65 -66 65h-179c7 -16 12 -34 16 -53c75 -18 105 -77 165 -77zM656 114c-1 18 -6 66 -6 177v277h-109c12 -17 23 -43 23 -83c0 -48 -20 -105 -76 -132v-143c73 -15 134 -55 168 -96zM866 568h-108v-622h-105c-32 79 -94 145 -175 170
c-19 -58 -60 -83 -99 -83c-45 0 -83 27 -83 78c0 47 30 86 82 100l-1 127c-88 14 -124 83 -185 83c-34 0 -53 -21 -53 -50c0 -23 9 -39 21 -53l-91 -33c-19 19 -35 52 -35 93c0 61 28 111 84 133c-5 21 -12 41 -24 57h-114v92h886v-92z" />
    <glyph glyph-name="bnL_MA" horiz-adv-x="995" 
d="M805 87c-1 18 -6 66 -6 176v305h-162v-385c73 -15 134 -55 168 -96zM1018 568h-111v-649h-105c-31 78 -95 142 -175 168c-19 -56 -60 -81 -99 -81c-45 0 -83 27 -83 78c0 46 30 85 81 100v181c-10 19 -34 38 -66 38c-42 0 -70 -32 -70 -85v-34h-99v34c0 58 -30 81 -68 81
c-37 0 -72 -32 -72 -89c0 -74 50 -107 109 -107c14 0 29 3 44 8l10 -94c-22 -7 -45 -11 -66 -11c-109 0 -202 75 -202 202c0 117 78 187 167 187c76 0 115 -39 127 -73h4c11 41 47 77 102 77c40 0 69 -17 78 -28h2v97h-546v92h1038v-92z" />
    <glyph glyph-name="bnSH_MA" horiz-adv-x="915" 
d="M725 108c0 18 -6 66 -6 177v283h-161v-364c72 -16 133 -55 167 -96zM828 -60h-106c-30 77 -95 141 -175 168c-19 -57 -59 -81 -99 -81c-45 0 -82 27 -82 78c0 47 31 86 82 100v241c0 82 -36 121 -96 121c-53 0 -90 -31 -90 -92c0 -58 41 -90 97 -90c9 0 19 1 29 3v-94
c-8 -2 -20 -3 -34 -3c-59 0 -108 21 -142 63c-34 -44 -79 -66 -140 -66c-16 0 -31 3 -42 5v94c12 -2 25 -3 38 -3c61 0 94 33 94 92c0 57 -33 92 -101 92h-81v92h87c62 0 111 -19 145 -59c32 39 75 61 132 61c68 0 101 -30 115 -47h4c-5 20 -12 69 -12 112v34h107v-101h369
v-92h-99v-628z" />
    <glyph glyph-name="bnS_MA" horiz-adv-x="913" 
d="M358 568c3 -67 35 -124 95 -124c46 0 65 34 65 76c0 19 -3 36 -7 48h-153zM624 511c0 -61 -25 -111 -70 -139v-156c73 -15 135 -55 169 -96c-1 18 -6 66 -6 177v271h-99c4 -20 6 -38 6 -57zM825 -48h-105c-31 79 -95 143 -176 169c-19 -57 -59 -82 -99 -82
c-45 0 -83 27 -83 78c0 47 31 86 82 100v133c-68 5 -118 39 -146 99c-24 -59 -70 -98 -140 -98c-52 0 -107 26 -143 73l60 70c24 -28 49 -49 83 -49c54 0 76 61 84 123h-262v92h951v-92h-106v-616z" />
    <glyph glyph-name="bnSS_MA" horiz-adv-x="779" 
d="M266 570c-22 0 -42 -5 -58 -15l157 -157c9 17 14 37 14 60c0 67 -47 112 -113 112zM266 341c23 0 44 6 61 16l-158 159c-9 -16 -14 -36 -14 -58c0 -69 47 -117 111 -117zM589 108c-1 18 -6 66 -6 177v283h-128c19 -30 30 -66 30 -110c0 -67 -24 -121 -65 -158v-96
c73 -15 135 -55 169 -96zM799 568h-108v-628h-105c-31 77 -96 141 -177 168c-18 -57 -58 -81 -98 -81c-45 0 -83 27 -83 78c0 47 31 86 82 100v44c-14 -3 -29 -4 -44 -4c-126 0 -218 82 -218 213c0 44 11 80 30 110h-98v92h819v-92z" />
    <glyph glyph-name="bnH_MA" horiz-adv-x="923" 
d="M943 568h-314v-112c68 13 124 33 170 56l73 -77s-19 -71 -19 -213v-162h-108v162c0 74 3 128 8 165c-35 -13 -77 -24 -124 -32v-366h-105c-16 71 -65 153 -162 170c-20 -59 -62 -83 -97 -83c-42 0 -77 27 -77 74c0 42 33 80 85 96c-7 53 -35 91 -75 112
c-20 -50 -59 -72 -93 -72c-42 0 -76 27 -76 75c0 44 31 79 81 93c-6 49 -29 87 -57 114h-73v92h963v-92zM528 161c-7 58 -11 128 -11 182c-28 -1 -57 -2 -87 -2c-29 0 -57 1 -84 3c15 -27 24 -57 26 -92c84 -12 137 -59 156 -91zM422 437c34 0 65 1 95 4v127h-345
c21 -31 37 -72 39 -116c3 -1 5 -1 7 -2c71 -9 136 -13 204 -13z" />
    <glyph glyph-name="bnK_SS_MA" horiz-adv-x="1153" 
d="M576 152c-7 54 -11 127 -12 184h-45c-115 0 -179 59 -179 180v52h-166c21 -31 36 -72 38 -116c81 -23 154 -95 161 -199c101 -11 176 -64 203 -101zM513 436h51v132h-117v-55c0 -61 28 -77 66 -77zM963 -78c-1 18 -6 72 -6 182v464h-281v-131h22c135 0 200 -72 200 -169
c0 -91 -57 -144 -113 -167l-60 83c33 11 68 40 68 85c0 49 -34 67 -89 67h-28v-290c108 -14 204 -61 287 -124zM1185 568h-120v-789h-105c-71 94 -179 159 -290 177c-16 -65 -59 -90 -102 -90c-45 0 -82 29 -82 79c0 42 25 77 66 94c-35 62 -105 109 -189 121
c-19 -60 -61 -84 -96 -84c-43 0 -77 27 -77 74c0 41 32 79 84 96c-7 53 -34 91 -75 112c-20 -50 -58 -72 -92 -72c-43 0 -77 27 -77 75c0 44 31 80 82 93c-6 49 -29 87 -57 114h-75v92h1205v-92z" />
    <glyph glyph-name="bnK_LA" horiz-adv-x="852" 
d="M872 568h-298v-32c164 -7 232 -101 232 -189c0 -83 -44 -146 -115 -176l-56 83c41 16 68 46 68 93c0 54 -47 89 -129 94v-681h-106v236c-8 18 -26 42 -58 42c-37 0 -59 -32 -59 -82v-25h-96v25c0 53 -25 78 -62 78c-36 0 -62 -30 -62 -83c0 -65 42 -89 89 -89
c16 0 35 3 49 8l17 -95c-20 -9 -44 -12 -69 -12c-117 0 -187 75 -187 188c0 111 70 177 156 177c71 0 102 -35 117 -66h4c13 36 41 67 90 67c37 0 56 -16 67 -26h4v49l-310 127v107c69 58 186 121 309 143v39h-487v92h892v-92zM475 255c-5 54 -8 115 -8 168v7
c-71 -17 -142 -51 -202 -89l205 -86h5z" />
    <glyph glyph-name="bnG_LA" horiz-adv-x="658" 
d="M570 761v-101h108v-92h-108v-748h-108v233c-7 17 -27 42 -59 42c-37 0 -57 -30 -57 -81v-26h-96v25c0 54 -26 79 -62 79c-37 0 -63 -30 -63 -84c0 -65 42 -89 90 -89c16 0 34 4 48 8l16 -96c-20 -7 -43 -10 -67 -10c-117 0 -188 74 -188 187c0 111 70 178 156 178
c71 0 102 -36 117 -66h4c13 35 42 67 90 67c37 0 57 -16 68 -26h3v224c0 107 -60 179 -163 179c-61 0 -107 -32 -132 -64c19 7 45 11 64 11c73 0 142 -46 142 -136c0 -67 -41 -133 -109 -185l-79 77c50 35 79 73 79 112c0 35 -26 57 -71 57c-22 0 -48 -5 -71 -14l-76 81
c36 79 128 162 248 162c96 0 153 -47 183 -84h4c-11 30 -20 87 -20 149v31h109z" />
    <glyph glyph-name="bnT_LA" horiz-adv-x="663" 
d="M-20 660h703v-92h-703v92zM121 497c35 -161 106 -315 252 -315c91 0 145 59 145 142c0 63 -27 104 -74 104c-31 0 -55 -20 -55 -53c0 -23 13 -45 37 -57l-66 -60c-45 24 -76 68 -76 124c0 82 62 141 153 141c116 0 185 -87 185 -201c0 -60 -17 -110 -48 -149v-492h-108
v233c-7 17 -27 42 -59 42c-37 0 -58 -31 -58 -82v-25h-96v25c0 53 -25 78 -62 78c-36 0 -62 -30 -62 -83c0 -65 42 -89 89 -89c16 0 35 3 49 8l16 -97c-20 -7 -43 -10 -68 -10c-117 0 -187 75 -187 188c0 111 70 177 156 177c71 0 102 -35 117 -66h4c13 36 42 67 90 67
c37 0 56 -16 67 -26h4v80c-28 -9 -59 -14 -93 -14c-208 0 -305 182 -345 360z" />
    <glyph glyph-name="bnP_LA" horiz-adv-x="684" 
d="M167 520c57 -11 112 -49 138 -117l132 100c-32 43 -78 68 -139 68c-64 0 -108 -30 -131 -51zM87 448l-55 80c45 67 132 140 258 140c117 0 185 -62 215 -108l3 2c-17 51 -21 117 -21 169v30h110v-101h107v-92h-107v-647h-108v229c-7 17 -27 42 -59 42
c-38 0 -58 -30 -58 -81v-19h-96v25c0 53 -25 78 -62 78c-36 0 -62 -30 -62 -81c0 -66 42 -91 89 -91c16 0 35 3 49 8l16 -97c-20 -7 -43 -11 -68 -11c-117 0 -187 76 -187 189c0 71 29 124 73 153l99 75c-14 44 -40 81 -93 97c-13 6 -24 9 -43 11zM328 223
c13 33 44 61 90 61c37 0 56 -16 67 -26h4v55c0 35 -4 68 -11 98l-95 -72c-31 -24 -67 -48 -100 -69c21 -13 33 -31 41 -47h4z" />
    <glyph glyph-name="bnPH_LA" horiz-adv-x="844" 
d="M455 -278v233c-7 18 -27 42 -59 42c-37 0 -58 -30 -58 -81v-25h-95v25c0 53 -26 78 -63 78c-36 0 -62 -30 -62 -84c0 -64 42 -89 89 -89c17 0 35 4 49 8l16 -96c-20 -7 -43 -11 -67 -11c-117 0 -188 75 -188 188c0 111 70 178 156 178c71 0 102 -35 117 -66h4
c13 35 42 67 90 67c37 0 57 -16 67 -26h4v51l-328 119v102l129 94l-125 107v32h-151v92h884v-92h-614v-4l115 -99v-80l-122 -88l214 -79h4c-6 58 -10 137 -10 195v73c36 19 92 33 150 33c117 0 212 -65 212 -188c0 -105 -67 -159 -126 -183l-59 89c38 12 78 42 78 95
c0 56 -41 86 -94 86c-18 0 -34 -2 -49 -7v-689h-108z" />
    <glyph glyph-name="bnB_LA" horiz-adv-x="653" 
d="M673 568h-107v-808h-109v233c-6 17 -26 42 -58 42c-37 0 -58 -31 -58 -82v-25h-96v25c0 53 -26 78 -62 78c-37 0 -63 -30 -63 -83c0 -65 43 -89 90 -89c16 0 34 3 49 8l15 -94c-19 -7 -42 -11 -67 -11c-117 0 -187 73 -187 186c0 111 70 177 156 177
c71 0 101 -35 117 -66h4c13 36 42 67 90 67c37 0 56 -16 67 -26h3v49l-307 114v124c111 85 215 132 310 165v16h-480v92h693v-92zM466 251l3 2c-6 56 -9 127 -9 183v13c-69 -27 -142 -66 -213 -117z" />
    <glyph glyph-name="bnBH_LA" horiz-adv-x="661" 
d="M575 -138h-110v233c-6 17 -26 42 -58 42c-37 0 -58 -30 -58 -81v-26h-96v25c0 54 -26 79 -62 79s-62 -31 -62 -84c0 -65 42 -89 89 -89c16 0 35 3 49 8l16 -94c-20 -7 -43 -10 -68 -10c-117 0 -187 72 -187 185c0 111 70 181 156 181c71 0 102 -35 117 -66h4
c13 35 42 67 90 67c36 0 56 -16 66 -26h4v68c0 48 -9 87 -23 105h-4c-23 -59 -72 -113 -157 -113c-95 0 -150 62 -150 138c0 36 11 62 20 77l108 -15c-11 -15 -18 -36 -18 -55c0 -29 16 -48 48 -48c42 0 76 41 107 137h89c44 -42 90 -115 90 -229v-409zM681 568h-701v92h701
v-92z" />
    <glyph glyph-name="bnM_LA" horiz-adv-x="667" 
d="M-20 660h707v-92h-100c11 -17 22 -43 22 -83c0 -32 -8 -67 -30 -95v-478h-108v233c-7 18 -27 42 -59 42c-37 0 -58 -30 -58 -81v-25h-95v25c0 53 -26 78 -63 78c-36 0 -62 -30 -62 -83c0 -65 42 -90 89 -90c17 0 35 4 50 9l15 -95c-20 -7 -43 -10 -67 -10
c-117 0 -188 72 -188 186c0 110 70 177 156 177c71 0 102 -35 117 -66h4c13 35 42 67 90 67c37 0 57 -16 67 -26h4v84c-6 -1 -12 -1 -18 -1c-115 0 -161 85 -230 85c-34 0 -53 -21 -53 -50c0 -18 5 -31 13 -43l-90 -35c-16 19 -28 50 -28 85c0 62 28 113 86 133
c-5 22 -12 41 -23 57h-148v92zM439 438c45 0 64 31 64 65c0 35 -21 65 -67 65h-188c6 -17 11 -34 14 -53c76 -20 118 -77 177 -77z" />
    <glyph glyph-name="bnL_LA" horiz-adv-x="741" 
d="M363 195c11 41 48 78 104 78c40 0 67 -18 76 -29h5v128c-8 20 -33 44 -69 44c-42 0 -70 -32 -70 -85v-27h-99v26c0 59 -30 82 -68 82c-37 0 -72 -30 -72 -87c0 -27 7 -47 20 -61c14 4 29 6 44 6c75 0 113 -41 125 -75h4zM761 568h-107v-676h-106v240c-8 20 -33 44 -69 44
c-42 0 -70 -32 -70 -85v-27h-99v27c0 58 -30 81 -68 81c-37 0 -72 -30 -72 -87c0 -65 45 -95 97 -95c17 0 39 3 55 10l15 -95c-20 -7 -47 -11 -71 -11c-119 0 -201 76 -201 189c0 50 14 91 38 122c-24 30 -38 69 -38 118c0 117 80 187 169 187c75 0 113 -41 125 -75h4
c11 41 48 78 104 78c40 0 67 -18 76 -29h5v84h-568v92h781v-92z" />
    <glyph glyph-name="bnSH_LA" horiz-adv-x="718" 
d="M630 -152h-113v236c-8 21 -32 44 -66 44c-41 0 -69 -32 -69 -85v-33h-98v33c0 58 -30 82 -66 82c-37 0 -70 -30 -70 -88c0 -64 39 -89 88 -89c16 0 34 3 50 8l10 -94c-24 -8 -47 -12 -71 -12c-99 0 -182 65 -182 185c0 118 78 188 166 188c75 0 111 -41 123 -73h5
c11 39 47 76 101 76c39 0 65 -18 74 -29h5v238c0 85 -42 126 -108 126c-56 0 -97 -32 -97 -98c0 -63 42 -95 100 -95c16 0 33 2 47 8v-101c-4 -1 -24 -7 -52 -7c-64 0 -116 24 -152 70c-35 -48 -81 -73 -146 -73c-28 0 -54 8 -59 9v101c14 -6 35 -9 54 -9c65 0 98 33 98 98
s-33 104 -103 104h-119v92h123c71 0 119 -23 154 -69c35 45 86 70 151 70c78 0 110 -38 121 -52h4c-6 22 -13 72 -13 118v34h110v-101h108v-92h-108v-720z" />
    <glyph glyph-name="bnS_LA" horiz-adv-x="680" 
d="M91 497c22 -30 46 -52 78 -52c54 0 71 75 78 123h-267v92h720v-92h-62c5 -17 8 -39 8 -57c0 -55 -22 -100 -63 -127v-437h-109v233c-7 18 -27 42 -59 42c-37 0 -57 -30 -57 -81v-25h-96v25c0 53 -26 78 -62 78c-37 0 -63 -30 -63 -84c0 -64 43 -89 90 -89c16 0 34 4 49 8
l15 -94c-20 -7 -43 -10 -67 -10c-117 0 -187 72 -187 185c0 111 70 178 155 178c72 0 102 -36 118 -66h4c13 35 41 67 89 67c38 0 57 -16 68 -26h3v68c-75 1 -131 39 -162 107c-26 -69 -73 -105 -143 -105c-52 0 -103 27 -139 66zM533 520c0 19 -3 36 -8 48h-155
c7 -70 45 -122 100 -122c44 0 63 32 63 74z" />
    <glyph glyph-name="bnH_LA" horiz-adv-x="624" 
d="M166 238h47c127 0 196 49 196 123c0 50 -39 78 -89 78c-41 0 -69 -24 -69 -60c0 -18 9 -36 27 -46l-71 -55c-40 22 -60 63 -60 104c0 89 70 149 172 149c109 0 189 -68 189 -171s-67 -153 -148 -170v-4c39 -7 77 -16 140 -41l126 -50l-57 -78c-16 6 -31 12 -46 18v-320
h-105v210c-5 16 -20 40 -49 40c-33 0 -49 -29 -49 -76v-21h-89v20c0 48 -21 75 -55 75s-55 -30 -55 -76c0 -62 39 -82 79 -82c13 0 26 3 38 7l15 -87c-16 -5 -35 -8 -56 -8c-102 0 -169 65 -169 170c0 99 61 162 141 162c60 0 91 -33 106 -61h4c12 32 38 61 79 61
c30 0 48 -14 57 -23h3v48c-148 55 -194 62 -252 67v97zM644 568h-664v92h664v-92z" />
    <glyph glyph-name="bnS_K_LA" horiz-adv-x="793" 
d="M98 498c22 -27 49 -49 83 -49c54 0 76 57 84 119h-285v92h833v-92h-172c4 -20 6 -38 6 -57c0 -45 -13 -83 -38 -112c111 -28 154 -109 154 -175c0 -85 -54 -136 -113 -159l-55 82c33 12 65 35 65 77c0 49 -41 84 -120 89v-639h-104v219c-6 16 -21 41 -51 41
c-34 0 -51 -30 -51 -80v-21h-93v21c0 50 -21 78 -56 78c-34 0 -56 -32 -56 -80c0 -62 39 -83 81 -83c14 0 27 2 39 6l16 -90c-17 -5 -36 -8 -58 -8c-107 0 -175 67 -175 175c0 104 63 169 146 169c63 0 94 -35 110 -63h4c13 33 39 63 82 63c30 0 49 -15 58 -24h4v39
l-273 108v112c43 42 116 96 207 128c-20 15 -36 37 -49 65c-24 -55 -70 -94 -140 -94c-52 0 -107 26 -142 73zM541 520c0 19 -3 36 -7 48h-153c3 -67 35 -124 95 -124c46 0 65 34 65 76zM442 140c-5 51 -8 109 -8 160c-66 -19 -124 -55 -167 -89l170 -71h5z" />
    <glyph glyph-name="bnM_P_LA" horiz-adv-x="1091" 
d="M570 520c57 -11 111 -49 137 -117l132 100c-32 43 -78 68 -139 68c-64 0 -108 -30 -130 -51zM1004 -79h-113v229c-7 17 -27 42 -59 42c-37 0 -58 -30 -58 -81v-19h-96v25c0 53 -25 78 -62 78c-36 0 -62 -30 -62 -83c0 -65 42 -89 89 -89c17 0 35 3 49 8l16 -94
c-20 -7 -43 -11 -68 -11c-116 0 -187 73 -187 186c0 71 29 124 73 153l98 75c-11 37 -31 68 -68 87c-19 -52 -63 -91 -141 -91c-123 0 -156 88 -232 88c-29 0 -51 -18 -51 -47c0 -23 9 -39 21 -52l-90 -34c-19 19 -36 51 -36 93c0 58 28 107 84 127c-4 22 -12 41 -23 57
h-108v92h501c18 -10 35 -24 48 -41c43 28 98 49 164 49c116 0 184 -62 214 -108l3 2c-17 51 -21 117 -21 169v30h115v-101h107v-92h-107v-647zM730 223c13 33 41 61 90 61c37 0 56 -16 67 -26h4v55c0 35 -4 68 -11 98l-95 -72c-31 -24 -67 -48 -100 -69
c21 -13 33 -31 41 -47h4zM400 437c46 0 62 32 62 65c0 35 -20 66 -67 66h-187c6 -17 11 -34 14 -53c77 -19 117 -78 178 -78z" />
    <glyph glyph-name="bnS_P_LA" horiz-adv-x="1150" 
d="M751 668c117 0 185 -62 215 -108l3 2c-17 51 -21 117 -21 169v30h114v-101h108v-92h-108v-667h-113v242c-7 24 -27 45 -57 45c-36 0 -59 -33 -59 -86v-33h-97v33c0 59 -26 83 -60 83c-33 0 -58 -31 -58 -89c0 -61 29 -89 75 -89c11 0 22 2 33 5l9 -95
c-16 -5 -36 -8 -55 -8c-94 0 -168 64 -168 185c0 74 27 129 68 160l104 86c-12 40 -33 75 -76 94c-24 -52 -74 -85 -146 -85c-77 0 -134 35 -164 100c-24 -59 -70 -98 -140 -98c-52 0 -107 26 -143 73l60 70c24 -28 49 -49 83 -49c54 0 76 61 84 123h-262v92h599
c8 -14 14 -28 20 -40c41 29 93 48 152 48zM787 214c11 39 42 72 92 72c34 0 55 -17 66 -28h4v55c0 41 -5 79 -15 113l-103 -87c-34 -29 -67 -53 -96 -72c23 -13 38 -32 48 -53h4zM518 520c0 19 -3 36 -7 48h-153c3 -67 35 -124 95 -124c46 0 65 34 65 76zM628 520
c56 -11 110 -48 136 -114l127 105c-31 38 -75 60 -132 60c-64 0 -108 -30 -131 -51z" />
    <glyph glyph-name="bnNG_K_SSA" horiz-adv-x="1481" 
d="M366 498c44 0 66 22 66 53c0 25 -19 45 -51 45c-31 0 -50 -18 -50 -54v-41c11 -2 23 -3 35 -3zM623 279c0 -129 -95 -211 -262 -211c-210 0 -334 161 -340 340l96 19c7 -181 122 -260 244 -260c102 0 160 44 160 104c0 19 -4 33 -11 42c-46 -27 -90 -46 -148 -46
c-85 0 -134 52 -134 128v63c-49 27 -89 66 -118 110h-130v92h192c12 -38 32 -77 63 -107c2 69 55 120 143 120c61 0 148 -51 148 -126c0 -79 -66 -124 -159 -124c-12 0 -24 1 -36 2v-24c0 -26 11 -39 37 -39c33 0 86 15 175 74c16 -11 31 -25 44 -42c11 28 37 50 74 60
c-6 49 -29 87 -57 114h-74v92h971v-92h-275v-131h22c134 0 199 -72 199 -169c0 -91 -57 -144 -113 -167l-59 83c32 11 67 40 67 85c0 49 -33 67 -88 67h-28v-347h-105c-18 84 -103 156 -208 170c-20 -59 -62 -83 -97 -83c-42 0 -77 27 -77 74c0 42 33 80 85 96
c-7 53 -35 91 -75 112c-20 -50 -59 -72 -93 -72c-12 0 -23 2 -33 6v-13zM1125 152c-7 54 -10 127 -11 184h-46c-115 0 -179 59 -179 180v52h-166c21 -31 37 -72 39 -116c81 -23 154 -95 161 -199c101 -12 176 -64 202 -101zM1062 436h52v132h-118v-55c0 -61 28 -77 66 -77z
" />
    <glyph glyph-name="bnK_SA" horiz-adv-x="950" 
d="M970 568h-107v-624h-107c-1 76 -43 101 -132 101c-102 0 -219 -42 -368 -42c-107 0 -195 49 -234 127l74 56c27 -47 79 -90 174 -90c18 0 37 2 58 4v47l-270 124v105c52 51 150 121 270 145v47h-348v92h990v-92zM770 99c-10 43 -18 111 -18 194v275h-317v-39
c162 -8 226 -108 226 -189c0 -83 -50 -137 -113 -166l-55 83c35 16 65 43 65 85c0 49 -44 86 -123 91v-315c68 12 138 26 196 26c62 0 105 -16 135 -45h4zM336 253c-5 54 -8 115 -8 167c-65 -19 -123 -55 -167 -88l171 -79h4z" />
    <glyph glyph-name="bnN_SA" horiz-adv-x="909" 
d="M-20 660h949v-92h-108v-568h-115v254c0 28 -16 45 -43 45c-38 0 -68 -36 -112 -100c-57 -86 -121 -115 -180 -115c-66 0 -128 28 -178 91l73 73c33 -48 72 -65 105 -65c11 0 22 2 31 6l-102 107c-46 48 -78 60 -114 60c-29 0 -50 -18 -50 -49c0 -24 8 -42 20 -56l-97 -35
c-21 22 -36 55 -36 95c0 85 65 143 155 144c72 0 129 -28 194 -99l89 -95c3 10 4 21 4 32c0 87 -59 133 -113 190l-50 53v32h-322v92zM706 499v69h-284v-4l41 -44c44 -45 78 -87 90 -144c3 -8 4 -18 5 -26c23 25 60 59 103 59c21 0 35 -5 48 -13c-3 36 -3 92 -3 103z" />
    <glyph glyph-name="bnP_SA" horiz-adv-x="1048" 
d="M382 660h686v-92h-107v-568h-116v254c0 28 -16 45 -43 45c-38 0 -68 -35 -111 -100c-47 -71 -114 -115 -183 -115c-54 0 -112 12 -167 56l57 80c26 -22 54 -32 79 -36l-50 94c-5 11 -11 22 -16 32l-276 -174l-55 77l85 52c-17 36 -45 69 -94 79c-10 3 -21 5 -34 6l-53 76
c44 61 122 121 237 121c160 0 238 -120 291 -227l64 -118c20 22 28 56 28 91c0 87 -58 134 -111 191l-52 52v32h-59v92zM120 418c48 -13 94 -46 124 -105l117 72c-35 41 -79 69 -137 69c-54 0 -84 -19 -104 -36zM845 499v69h-283v-4l40 -44c45 -46 80 -90 92 -147
c2 -7 3 -16 4 -23c23 25 59 59 102 59c22 0 35 -5 48 -13c-2 36 -3 92 -3 103z" />
    <glyph glyph-name="bnK_RA" horiz-adv-x="965" 
d="M326 329c0 -29 15 -48 45 -48c23 0 40 12 49 19l34 -81c-22 -20 -61 -29 -96 -29c-89 0 -135 58 -135 132c0 108 96 206 236 206c78 0 122 -41 134 -92c38 40 89 57 144 57c101 0 186 -68 186 -178c0 -105 -66 -178 -169 -178c-40 0 -77 9 -106 22l25 92
c23 -10 44 -14 70 -14c47 0 74 31 74 78c0 46 -35 78 -90 78c-80 0 -130 -68 -130 -169v-285h-99c0 79 -48 103 -186 113c-197 14 -279 83 -279 197c0 41 15 79 33 107l97 -34c-14 -19 -25 -44 -25 -75c0 -60 44 -93 182 -103c131 -10 157 -30 188 -55h4
c-9 40 -17 103 -17 182v114c0 33 -15 49 -47 49c-65 0 -122 -46 -122 -105zM-20 568v92h1005v-92h-1005z" />
    <glyph glyph-name="bnKH_RA" horiz-adv-x="709" 
d="M519 -102c-6 59 -41 90 -117 90c-41 0 -100 -2 -141 -2c-154 0 -224 91 -225 193l108 25c0 -59 27 -121 123 -121c39 0 95 3 130 3c59 0 103 -14 128 -46h4c-7 25 -12 64 -13 101l-418 128v107c176 8 259 50 259 124c0 19 -6 33 -14 41c-24 -53 -69 -91 -142 -91
c-86 0 -142 54 -142 130c0 38 12 69 24 85h105c-15 -24 -26 -50 -26 -79c0 -26 16 -46 50 -46c44 0 72 38 100 120h58c43 -35 88 -90 88 -167c0 -95 -59 -146 -180 -172v-4l240 -72l3 1c-5 72 -8 130 -8 217v298h108v-101h103v-92h-103v-670h-102z" />
    <glyph glyph-name="bnG_RA" horiz-adv-x="648" 
d="M560 761v-101h108v-92h-108v-621h-101c-6 59 -45 90 -118 90c-40 0 -67 -2 -106 -2c-149 0 -219 91 -221 193l108 25c0 -59 27 -121 124 -121c38 0 62 3 99 3c51 0 92 -14 120 -46h4c-8 29 -14 77 -14 118v178c0 107 -56 179 -156 179c-59 0 -104 -28 -130 -60
c19 6 42 10 62 10c83 0 145 -53 145 -141c0 -73 -42 -138 -108 -187l-87 71c45 31 85 67 85 117c0 34 -27 55 -73 55c-22 0 -47 -5 -68 -12l-76 90c36 79 124 158 244 158c90 0 145 -44 178 -82h4c-11 30 -20 88 -20 150v28h105z" />
    <glyph glyph-name="bnGH_RA" horiz-adv-x="640" 
d="M451 -125c-6 59 -45 90 -117 90c-41 0 -59 -2 -98 -2c-149 0 -219 91 -221 193l109 25c0 -59 27 -121 123 -121c38 0 53 3 90 3c51 0 93 -14 120 -46h4c-7 27 -12 69 -13 108l-359 104v99l34 21c44 27 76 37 79 38v5c-68 8 -121 44 -121 116c0 23 6 43 15 60h-116v92h680
v-92h-107v-693h-102zM450 230l4 1c-6 46 -9 103 -9 162v175h-233c-11 -15 -18 -33 -18 -52c0 -42 36 -61 75 -61c28 0 55 7 89 29l43 -91l-171 -100z" />
    <glyph glyph-name="bnNG_RA" horiz-adv-x="672" 
d="M342 546v-42c11 -2 22 -3 34 -3c43 0 65 23 65 55c0 26 -20 44 -50 44c-31 0 -49 -18 -49 -54zM527 -171h-102c-6 59 -34 90 -106 90c-41 0 -44 -2 -82 -2c-142 0 -202 87 -203 190l106 25c0 -59 22 -118 107 -118c35 0 41 3 75 3c51 0 82 -14 110 -46h4
c-8 28 -14 77 -14 118v5c-16 -2 -34 -3 -52 -3c-198 0 -320 150 -326 324l93 19c7 -177 117 -254 234 -254c98 0 153 51 153 110c0 19 -3 32 -10 42c-41 -28 -86 -51 -143 -51c-81 0 -122 51 -122 125v55c-46 25 -83 63 -110 107h-159v92h215l2 1c11 -37 29 -76 57 -106
c0 68 49 120 133 120c81 0 141 -45 141 -121c0 -83 -62 -125 -152 -125c-12 0 -23 1 -34 2v-24c0 -26 11 -39 38 -39c34 0 87 23 165 79c42 -30 78 -81 78 -152c0 -67 -34 -128 -96 -165v-301z" />
    <glyph glyph-name="bnC_RA" horiz-adv-x="574" 
d="M-20 568v92h614v-92h-323c15 -15 39 -27 73 -40l52 -19c82 -30 133 -61 133 -148c0 -33 -10 -66 -28 -96v-365h-102c-6 59 -34 89 -107 89c-40 0 -43 -2 -81 -2c-142 0 -202 88 -204 191l106 25c0 -59 23 -118 108 -118c34 0 41 2 75 2c51 0 82 -13 110 -46h4
c-8 29 -14 78 -14 119v13c-28 -12 -58 -19 -90 -19c-99 0 -154 59 -154 137v277h-172zM257 477h-4c0 -11 5 -49 5 -127v-55c0 -25 13 -42 49 -42c49 0 117 43 117 109c0 33 -15 46 -60 62l-41 14c-37 14 -54 28 -66 39z" />
    <glyph glyph-name="bnCH_RA" horiz-adv-x="665" 
d="M227 568c10 -28 69 -35 121 -58c21 7 48 11 71 11c106 0 191 -69 191 -186c0 -111 -76 -191 -235 -208v-4c35 -9 73 -24 129 -52l129 -62l-70 -81c-13 7 -26 13 -38 20v-191h-101c-6 59 -38 90 -111 90c-40 0 -50 -2 -88 -2c-144 0 -203 90 -205 193l106 25
c0 -59 22 -121 109 -121c38 0 48 3 82 3c51 0 85 -14 113 -46h4c-7 24 -12 65 -14 102c-184 93 -212 99 -296 108v93h135c167 0 239 55 239 134c0 50 -25 79 -72 85c1 -6 2 -13 2 -21c0 -82 -69 -156 -169 -156c-87 0 -138 46 -138 117v207h-141v92h705v-92h-458zM328 402
c0 44 -73 39 -101 63v-99c0 -18 10 -31 33 -31c41 0 68 32 68 67z" />
    <glyph glyph-name="bnJ_RA" horiz-adv-x="865" 
d="M658 -216c-6 63 -54 90 -135 90c-34 0 -219 -2 -257 -2c-158 0 -235 90 -237 193l106 25c0 -59 43 -121 141 -121c37 0 224 3 245 3c63 0 113 -17 143 -56h4c-8 29 -14 85 -14 126v99c0 86 17 161 38 204c-131 12 -199 90 -225 164c-50 -35 -92 -66 -92 -102
c0 -20 13 -31 50 -35l105 -11c32 -31 57 -77 57 -130c0 -94 -67 -181 -211 -181c-187 0 -317 162 -337 356l105 36c12 -160 100 -288 230 -288c73 0 102 31 102 74c0 21 -6 33 -13 41l-84 9c-83 9 -124 45 -124 109c0 81 69 138 130 181h-405v92h905v-92h-335
c17 -60 72 -126 197 -126h21l42 -84c-32 -58 -51 -137 -51 -225v-349h-101z" />
    <glyph glyph-name="bnJH_RA" horiz-adv-x="842" 
d="M407 262h4c-5 53 -8 117 -8 170v13c-58 -23 -122 -55 -183 -96zM646 464v297h108v-101h108v-92h-108v-331l-95 -47l-149 78v-341h-102c-5 56 -35 90 -107 90c-41 0 -44 -2 -82 -2c-144 0 -200 90 -202 193l106 25c0 -59 19 -121 106 -121c37 0 41 3 75 3
c51 0 83 -15 111 -47h4c-6 22 -11 54 -13 86l-292 136v108c105 75 202 122 289 151v19h-423v92h530v-275l144 -77l4 1c-6 21 -12 84 -12 155z" />
    <glyph glyph-name="bnNY_RA" horiz-adv-x="865" 
d="M404 667c66 0 101 -32 117 -70c18 26 64 70 138 70c85 0 142 -56 142 -131c0 -49 -25 -89 -69 -107v-4c46 -13 81 -51 81 -109c0 -74 -53 -136 -143 -136c-49 0 -106 26 -128 54c6 -31 7 -81 7 -118v-272h-101c-6 58 -34 89 -107 89c-40 0 -52 -3 -93 -3
c-142 0 -199 90 -201 195l106 24c1 -61 20 -121 105 -121c37 0 53 3 87 3c51 0 82 -14 110 -46h4c-8 29 -15 70 -15 112v1c0 50 -47 64 -171 77c-173 17 -245 86 -245 193c0 45 15 84 34 111l96 -35c-14 -18 -25 -44 -25 -73c0 -56 44 -86 146 -96c112 -10 141 -26 173 -54
h5c-9 38 -15 100 -15 177v126c0 32 -14 48 -46 48c-64 0 -108 -54 -108 -111c0 -28 14 -46 43 -46c22 0 40 11 47 18l31 -74c-21 -19 -54 -30 -87 -30c-83 0 -135 53 -135 131c0 107 85 207 217 207zM645 571c-48 0 -99 -42 -99 -145c0 -91 40 -149 108 -149
c38 0 58 23 58 53c0 34 -26 53 -68 53h-27v83h21c40 0 63 21 63 56c0 29 -19 49 -56 49z" />
    <glyph glyph-name="bnTT_RA" horiz-adv-x="590" 
d="M3 941l109 19c-2 -10 -3 -20 -3 -29c0 -39 18 -80 103 -80h113c105 0 193 -54 193 -163c0 -9 0 -18 -2 -28h94v-92h-379v-275c0 -37 25 -59 68 -59c70 0 128 52 128 119c0 38 -19 59 -54 59c-18 0 -37 -9 -47 -22l-50 88c21 21 61 39 102 39c88 0 159 -55 159 -166
c0 -39 -12 -77 -32 -109v-368h-101c-6 57 -36 90 -108 90c-41 0 -44 -2 -82 -2c-144 0 -200 90 -202 193l106 25c0 -59 19 -120 106 -120c38 0 41 2 75 2c51 0 83 -15 111 -46h4c-8 28 -14 77 -14 118v19c-30 -13 -65 -20 -101 -20c-114 0 -178 62 -178 158v277h-141v92h426
c1 8 2 15 2 21c0 55 -34 74 -104 74h-98c-154 0 -205 80 -205 160c0 8 0 18 2 26z" />
    <glyph glyph-name="bnTTH_RA" horiz-adv-x="590" 
d="M570 281c0 -54 -16 -103 -45 -141v-346h-101c-5 56 -36 89 -108 89c-41 0 -43 -2 -82 -2c-144 0 -200 91 -202 194l106 25c0 -59 20 -121 107 -121c37 0 41 2 75 2c50 0 82 -14 110 -46h4c-8 29 -14 78 -14 119v13c-26 -8 -55 -13 -87 -13c-158 0 -258 125 -260 268
c123 32 188 91 188 202v36l-7 8h-274v92h208c-31 41 -49 86 -49 131c0 99 73 170 184 164l22 -100c-59 6 -92 -23 -92 -70c0 -41 20 -81 55 -125h328v-92h-246c113 -119 180 -170 180 -287zM351 467c-5 -130 -99 -184 -154 -202c5 -40 49 -110 138 -110c75 0 125 51 125 125
c0 81 -54 123 -109 187z" />
    <glyph glyph-name="bnDD_RA" horiz-adv-x="704" 
d="M724 568h-352v-104c0 -30 12 -41 34 -41c31 0 89 35 152 84c46 -28 92 -97 92 -177c0 -64 -21 -118 -59 -157v-343h-102c-6 59 -37 89 -110 89c-41 0 -87 -2 -125 -2c-144 0 -203 91 -205 194l106 25c0 -59 22 -121 109 -121c37 0 85 2 119 2c50 0 85 -13 113 -46h4
c-8 29 -14 78 -14 119v22c-30 -9 -65 -14 -102 -14c-212 0 -335 166 -340 365l108 24c4 -200 110 -286 232 -286c95 0 156 48 156 123c0 19 -4 36 -13 51c-37 -29 -82 -55 -137 -55c-84 0 -132 57 -132 140v108h-278v92h744v-92z" />
    <glyph glyph-name="bnDDH_RA" horiz-adv-x="592" 
d="M233 568v-272c0 -37 24 -59 67 -59c70 0 128 50 128 117c0 38 -20 58 -55 58c-18 0 -36 -9 -46 -22l-51 89c21 20 62 39 102 39c88 0 160 -55 160 -165c0 -40 -12 -77 -32 -109v-376h-101c-5 57 -36 90 -108 90c-41 0 -43 -2 -82 -2c-144 0 -200 90 -202 193l106 25
c0 -59 20 -121 107 -121c37 0 41 3 75 3c50 0 82 -15 110 -47h4c-8 29 -14 78 -14 125v22c-30 -13 -65 -20 -101 -20c-114 0 -178 62 -178 158v274h-142v92h632v-92h-379z" />
    <glyph glyph-name="bnNN_RA" horiz-adv-x="580" 
d="M249 576c-69 0 -108 -43 -108 -103c0 -54 37 -84 89 -84c26 0 48 10 65 22l30 -84c-24 -17 -60 -27 -97 -27c-113 0 -184 75 -184 173c0 108 71 189 196 189c88 0 139 -46 165 -85l4 2c-12 32 -14 76 -14 137v45h97v-101h108v-92h-108v-620h-96c-6 59 -27 89 -99 89
c-34 0 -50 -2 -82 -2c-141 0 -195 88 -197 191l107 24c0 -58 25 -117 103 -117c29 0 40 2 72 2c51 0 75 -13 103 -46h4c-8 29 -14 77 -14 119v144c0 113 -31 224 -144 224z" />
    <glyph glyph-name="bnT_RA" horiz-adv-x="678" 
d="M320 329c0 59 58 105 120 105c36 0 49 -19 49 -49v-114c0 -79 7 -142 16 -182h-4c-29 24 -61 46 -194 55c-130 8 -175 43 -175 103c0 31 11 56 25 75l-98 34c-18 -28 -33 -66 -33 -107c0 -113 80 -185 274 -197c141 -9 192 -34 192 -113h98v464c0 66 -43 125 -137 125
c-140 0 -236 -98 -236 -206c0 -74 46 -132 135 -132c35 0 74 9 96 29l-35 81c-8 -7 -25 -19 -48 -19c-30 0 -45 19 -45 48zM-20 568v92h718v-92h-718z" />
    <glyph glyph-name="bnTH_RA" horiz-adv-x="656" 
d="M186 458l-91 -36c-24 24 -34 54 -34 90c0 92 71 155 172 155c95 0 181 -59 181 -170c0 -75 -43 -145 -163 -174v-4l211 -72h4c-2 24 -5 76 -5 160v354h107v-101h108v-92h-108v-663h-101c-5 57 -36 90 -108 90c-41 0 -93 -2 -131 -2c-144 0 -200 91 -202 193l106 25
c0 -59 19 -120 106 -120c37 0 91 2 124 2c51 0 83 -15 111 -46h4c-7 25 -12 65 -14 102l-387 132v101c157 2 235 39 235 117c0 44 -29 74 -76 74c-40 0 -69 -26 -69 -65c0 -22 8 -38 20 -50z" />
    <glyph glyph-name="bnD_RA" horiz-adv-x="603" 
d="M623 568h-396v-196c51 52 149 112 229 143l86 -52c-28 -77 -38 -179 -38 -267v-281h-102c-5 56 -35 89 -108 89c-41 0 -43 -1 -82 -1c-143 0 -200 90 -202 193l107 25c0 -59 19 -121 106 -121c37 0 41 3 75 3c50 0 82 -15 110 -47h4c-8 29 -13 78 -13 119v41
c0 84 9 130 24 172c-70 -44 -127 -87 -201 -165l-107 41v304h-135v92h643v-92z" />
    <glyph glyph-name="bnDH_RA" horiz-adv-x="613" 
d="M183 518c0 -42 44 -57 81 -57c52 0 106 26 153 55v144h216v-92h-107v-698h-102c-5 57 -35 90 -108 90c-41 0 -43 -2 -82 -2c-143 0 -200 91 -201 193l106 25c0 -59 19 -120 106 -120c37 0 41 2 75 2c50 0 82 -15 110 -46h4c-7 26 -12 73 -13 110l-334 113v103l24 14
c45 25 82 38 82 38v5c-67 8 -122 50 -122 127c0 90 64 150 162 150c40 0 84 -11 111 -33l-31 -85c-23 15 -46 20 -67 20c-36 0 -63 -19 -63 -56zM424 227l3 1c-6 45 -10 100 -10 157v16l-199 -104z" />
    <glyph glyph-name="bnN_RA" horiz-adv-x="586" 
d="M-20 568v92h626v-92h-104v-633h-101c-5 57 -36 90 -108 90c-41 0 -43 -2 -82 -2c-144 0 -200 90 -202 193l106 25c0 -59 19 -121 107 -121c37 0 41 3 74 3c51 0 83 -15 111 -47h4c-8 29 -14 78 -14 119v62c-44 78 -98 148 -170 148c-42 0 -64 -22 -64 -55
c0 -23 9 -38 20 -52l-90 -34c-19 22 -34 53 -34 92c0 86 61 147 160 147c83 0 145 -41 180 -97l4 1c-3 22 -8 73 -8 149v12h-415z" />
    <glyph glyph-name="bnP_RA" horiz-adv-x="665" 
d="M160 520c52 -10 103 -43 131 -101l130 86c-29 41 -72 66 -131 66c-64 0 -107 -30 -130 -51zM84 447l-53 87c45 64 137 134 252 134c116 0 174 -59 204 -105l4 2c-17 41 -22 117 -22 169v27h109v-101h107v-92h-107v-634h-104c-5 56 -37 89 -109 89c-41 0 -107 -1 -145 -1
c-144 0 -202 90 -204 193l107 25c0 -59 20 -121 107 -121c37 0 105 2 139 2c50 0 83 -14 111 -46h4c-8 29 -13 78 -13 119v119c0 35 -3 69 -11 100l-290 -193l-54 83l91 60c-14 31 -36 55 -69 68c-15 8 -31 14 -54 16z" />
    <glyph glyph-name="bnPH_RA" horiz-adv-x="821" 
d="M435 -127c-5 57 -35 90 -108 90c-41 0 -43 -2 -82 -2c-143 0 -200 91 -202 193l107 25c0 -59 19 -120 106 -120c37 0 41 2 75 2c50 0 82 -15 110 -46h4c-7 24 -11 62 -13 97l-331 121v102l128 94l-124 107v32h-125v92h861v-92h-617v-4l115 -99v-80l-123 -88l214 -79h4
c-6 58 -10 137 -10 195v73c37 19 92 33 150 33c118 0 213 -65 213 -188c0 -105 -68 -159 -127 -183l-59 89c39 12 79 42 79 95c0 56 -41 86 -95 86c-18 0 -34 -2 -48 -7v-538h-102z" />
    <glyph glyph-name="bnB_RA" horiz-adv-x="595" 
d="M615 568h-108v-643h-102c-5 56 -35 89 -107 89c-41 0 -39 -1 -77 -1c-144 0 -200 90 -202 193l106 25c0 -59 19 -121 106 -121c38 0 36 2 70 2c51 0 83 -14 111 -46h4c-6 22 -11 55 -13 88l-292 136v108c105 75 202 122 289 151v19h-420v92h635v-92zM404 262h4
c-5 53 -8 117 -8 170v13c-59 -23 -122 -56 -182 -95z" />
    <glyph glyph-name="bnBH_RA" horiz-adv-x="619" 
d="M532 -59h-101c-5 56 -36 89 -108 89c-41 0 -43 -2 -82 -2c-144 0 -200 91 -202 193l106 25c0 -59 20 -120 107 -120c37 0 41 2 75 2c50 0 82 -15 110 -46h4c-8 29 -14 82 -14 125v67c0 48 -9 87 -23 105h-4c-23 -59 -72 -113 -157 -113c-95 0 -150 62 -150 138
c0 36 11 62 20 77l108 -15c-11 -15 -18 -36 -18 -55c0 -29 16 -48 48 -48c42 0 76 41 107 137h89c44 -42 85 -115 85 -229v-330zM639 568h-659v92h659v-92z" />
    <glyph glyph-name="bnM_RA" horiz-adv-x="624" 
d="M-20 660h663v-92h-88c11 -17 22 -43 22 -83c0 -38 -12 -81 -44 -111v-413h-102c-5 57 -35 90 -108 90c-40 0 -43 -2 -82 -2c-136 0 -194 81 -201 177l107 25c2 -53 28 -104 105 -104c37 0 41 2 75 2c51 0 82 -15 111 -46h4c-9 29 -14 82 -14 125v108h-7
c-115 0 -158 85 -227 85c-34 0 -53 -21 -53 -50c0 -18 6 -32 14 -43l-91 -35c-16 19 -28 50 -28 85c0 58 25 107 76 130c-5 23 -12 43 -24 60h-108v92zM407 438c45 0 64 31 64 65c0 35 -21 65 -67 65h-196c7 -16 11 -33 15 -51c83 -16 122 -79 184 -79z" />
    <glyph glyph-name="bnSH_RA" horiz-adv-x="657" 
d="M48 293v94c12 -2 24 -3 37 -3c62 0 93 33 93 92c0 57 -31 92 -99 92h-99v92h105c61 0 109 -19 143 -59c32 39 74 61 131 61c68 0 100 -30 114 -47h4c-5 20 -12 69 -12 112v34h104v-101h108v-92h-108v-619h-103c-6 57 -37 90 -110 90c-41 0 -84 -2 -123 -2
c-144 0 -206 90 -207 193l106 25c0 -59 25 -121 112 -121c37 0 82 3 116 3c50 0 84 -15 112 -47h4c-8 30 -14 83 -14 126v230c0 82 -34 121 -95 121c-53 0 -89 -31 -89 -92c0 -58 41 -90 97 -90c9 0 19 1 29 3v-94c-8 -2 -20 -3 -34 -3c-59 0 -108 21 -142 63
c-34 -44 -78 -66 -138 -66c-16 0 -31 3 -42 5z" />
    <glyph glyph-name="bnS_RA" horiz-adv-x="686" 
d="M81 494c25 -28 50 -49 83 -49c54 0 76 61 84 123h-268v92h726v-92h-82c4 -20 6 -38 6 -57c0 -64 -27 -115 -75 -142v-369h-102c-5 56 -35 89 -108 89c-41 0 -54 -1 -93 -1c-144 0 -200 90 -202 193l106 25c0 -59 19 -121 107 -121c37 0 52 3 86 3c50 0 82 -15 110 -47h4
c-8 29 -13 83 -13 126v83c-68 4 -117 34 -146 99c-24 -59 -70 -98 -140 -98c-52 0 -107 26 -142 73zM524 520c0 19 -2 36 -7 48h-153c3 -67 35 -124 95 -124c47 0 65 34 65 76z" />
    <glyph glyph-name="bnSS_RA" horiz-adv-x="574" 
d="M594 568h-100c19 -30 30 -66 30 -110c0 -47 -12 -88 -33 -120v-368h-101c-5 56 -36 89 -108 89c-29 0 -40 -1 -64 -1c-144 0 -200 91 -202 194l106 25c0 -59 19 -121 106 -121c28 0 34 1 57 1c51 0 83 -14 111 -46h4c-9 29 -14 83 -14 126v21c-25 -9 -52 -13 -81 -13
c-126 0 -218 82 -218 213c0 44 11 80 30 110h-137v92h614v-92zM305 570c-21 0 -41 -5 -58 -14l162 -148c6 15 9 32 9 50c0 67 -47 112 -113 112zM305 341c23 0 44 6 61 17l-163 147c-6 -14 -9 -30 -9 -47c0 -69 47 -117 111 -117z" />
    <glyph glyph-name="bnY_RA" horiz-adv-x="625" 
d="M435 218c-6 58 -10 137 -10 195v155h-201v-4l115 -99v-80l-122 -88l214 -79h4zM435 -132c-5 56 -35 89 -108 89c-29 0 -66 -1 -90 -1c-143 0 -200 91 -201 194l106 25c0 -59 19 -121 106 -121c28 0 59 1 83 1c50 0 82 -14 110 -46h4c-7 24 -11 66 -13 104l-331 120v102
l129 94l-125 107v32h-125v92h665v-92h-108v-700h-102z" />
    <glyph glyph-name="bnL_RA" horiz-adv-x="699" 
d="M719 568h-103v-724h-102c-6 59 -34 89 -107 89c-40 0 -76 -2 -114 -2c-142 0 -202 88 -204 191l106 25c0 -59 23 -118 108 -118c34 0 74 2 108 2c51 0 82 -13 110 -46h4c-8 29 -15 78 -15 119v277c-8 21 -33 44 -68 44c-42 0 -71 -32 -71 -85v-26h-98v26
c0 58 -30 82 -68 82s-73 -28 -73 -85c0 -61 40 -84 91 -84c13 0 28 3 41 9l10 -95c-20 -7 -42 -11 -63 -11c-97 0 -184 59 -184 179c0 118 80 185 169 185c77 0 115 -46 125 -79h5c9 41 47 81 103 81c43 0 68 -21 77 -31h4v77h-530v92h739v-92z" />
    <glyph glyph-name="bnH_RA" horiz-adv-x="560" 
d="M-20 660h600v-92h-600v92zM301 190v-4c32 -8 84 -25 140 -54l122 -62l-64 -72c-11 6 -22 11 -32 17v-186h-102c-5 57 -30 90 -102 90c-29 0 -35 -1 -59 -1c-128 0 -188 73 -194 172l105 26c3 -55 23 -100 100 -100c28 0 28 1 51 1c51 0 80 -14 105 -45h4
c-6 23 -11 61 -12 98c-123 63 -174 85 -236 89v91h61c123 0 183 40 183 113c0 47 -30 78 -77 78c-36 0 -64 -22 -64 -58c0 -21 10 -40 34 -52l-74 -53c-46 27 -63 66 -63 109c0 82 62 144 164 144c108 0 183 -65 183 -168c0 -106 -76 -161 -173 -173z" />
    <glyph glyph-name="bnK_SS_RA" horiz-adv-x="931" 
d="M565 152c-7 54 -11 127 -12 184h-45c-115 0 -179 59 -179 180v52h-166c21 -31 36 -72 38 -116c81 -23 154 -95 161 -199c101 -11 176 -64 203 -101zM502 436h51v132h-117v-55c0 -61 28 -77 66 -77zM951 568h-286v-131h22c134 0 200 -72 200 -169
c0 -91 -57 -144 -114 -167l-59 83c33 11 68 40 68 85c0 49 -34 67 -89 67h-28v-548h-101c-6 57 -43 90 -115 90c-41 0 -156 -2 -194 -2c-129 0 -190 69 -201 160l104 33c5 -52 32 -96 107 -96c37 0 154 3 188 3c50 0 89 -15 117 -47h4c-4 16 -8 37 -11 61
c-30 90 -110 156 -211 170c-19 -60 -61 -84 -96 -84c-43 0 -77 27 -77 74c0 41 32 79 84 96c-7 53 -35 91 -75 112c-20 -50 -58 -72 -92 -72c-43 0 -77 27 -77 75c0 44 31 80 82 93c-6 49 -29 87 -58 114h-63v92h971v-92z" />
    <glyph glyph-name="bnJ_NY_RA" horiz-adv-x="876" 
d="M407 568c-42 -38 -81 -108 -81 -157c0 -30 27 -39 59 -42l121 -13v1c-62 45 -91 125 -95 211h-4zM419 -227c-6 59 -34 89 -106 89c-41 0 -44 -2 -82 -2c-142 0 -202 88 -203 191l106 25c0 -59 22 -118 107 -118c35 0 41 2 75 2c51 0 82 -13 110 -46h4
c-8 29 -14 78 -14 119v1c-16 -3 -34 -5 -53 -5c-187 0 -314 166 -334 359l101 35c12 -160 101 -289 231 -289c73 0 111 38 111 84c0 21 -6 34 -11 45l-104 10c-84 8 -139 47 -139 127c0 63 30 127 60 168h-298v92h916v-92h-383c2 -43 15 -79 35 -108c30 40 75 65 136 65
c89 0 141 -57 141 -127c0 -50 -28 -87 -70 -101v-4c44 -13 81 -48 81 -105c0 -68 -49 -132 -141 -132c-64 0 -112 25 -143 65c-9 -14 -19 -26 -31 -37v-311h-102zM726 391c0 28 -20 46 -54 46c-47 0 -96 -43 -96 -143c0 -89 40 -148 106 -148c33 0 55 21 55 50
c0 36 -28 55 -72 55h-22v82h21c39 0 62 22 62 58z" />
    <glyph glyph-name="bnNG_K_RA" horiz-adv-x="802" 
d="M563 568c0 -71 24 -107 66 -107c40 0 51 34 51 65c0 18 -3 33 -7 42h-110zM-20 568v92h842v-92h-55c6 -18 8 -38 8 -55c0 -80 -49 -140 -145 -140c-92 0 -168 65 -168 195h-482zM181 274c-40 30 -57 70 -57 113c0 84 61 151 164 151c125 0 195 -91 195 -206v-11
c166 -6 231 -99 231 -184c0 -79 -54 -130 -113 -154l-56 82c34 13 66 35 66 78c0 49 -45 79 -128 82v-501h-102c-5 56 -35 89 -107 89c-22 0 -39 -1 -61 -1c-136 0 -194 83 -201 181l106 27c2 -56 25 -110 106 -110c23 0 39 1 57 1c47 0 78 -14 107 -46h4
c-6 20 -10 51 -12 82l-263 123v106c53 48 146 114 264 137v19c0 72 -31 112 -88 112c-38 0 -64 -25 -64 -63c0 -19 9 -40 28 -54zM389 51c-5 54 -8 101 -8 154v8c-62 -16 -117 -48 -160 -82l163 -80h5z" />
    <glyph glyph-name="bnSS_K_RA" horiz-adv-x="1080" 
d="M1100 568h-651c15 -23 24 -49 28 -80c30 12 65 19 102 19c79 0 121 -41 133 -93c39 41 90 58 145 58c101 0 186 -68 186 -178c0 -105 -66 -178 -170 -178c-39 0 -77 9 -106 22l26 92c23 -10 44 -14 70 -14c46 0 74 31 74 78c0 46 -35 78 -91 78c-79 0 -130 -68 -130 -169
v-285h-98c0 79 -48 103 -186 113c-197 14 -280 83 -280 197c0 14 2 27 5 39c-69 32 -114 100 -114 191c0 44 11 80 30 110h-93v92h1120v-92zM260 570c-22 0 -41 -5 -57 -14l161 -149c7 15 10 32 10 51c0 67 -48 112 -114 112zM446 308c0 -29 14 -48 44 -48c24 0 41 12 49 19
l35 -81c-22 -20 -62 -29 -96 -29c-72 0 -116 38 -130 91c-26 -10 -56 -15 -88 -15c-1 -6 -2 -12 -2 -19c0 -60 44 -93 181 -103c132 -10 158 -30 188 -55h4c-9 40 -16 103 -16 182v114c0 33 -15 49 -47 49c-65 0 -122 -46 -122 -105zM260 341c23 0 44 6 62 17l-163 147
c-6 -14 -9 -30 -9 -47c0 -69 46 -117 110 -117z" />
    <glyph glyph-name="bnS_K_RA" horiz-adv-x="1167" 
d="M75 494c24 -28 49 -49 83 -49c54 0 76 61 84 123h-262v92h1207v-92h-569c4 -20 6 -38 6 -57v-7c14 2 28 3 43 3c77 0 121 -41 133 -93c38 41 89 58 145 58c100 0 185 -68 185 -178c0 -105 -66 -178 -169 -178c-40 0 -77 9 -106 22l25 92c23 -10 45 -14 70 -14
c47 0 74 31 74 78c0 46 -35 78 -90 78c-79 0 -130 -68 -130 -169v-285h-98c0 79 -48 103 -187 113c-197 14 -279 83 -279 197c0 36 13 68 28 91l96 -32c-10 -14 -18 -34 -18 -61c0 -60 43 -93 181 -103c131 -10 157 -30 188 -55h4c-9 40 -17 103 -17 182v114
c0 33 -15 49 -47 49c-65 0 -122 -46 -122 -105c0 -29 15 -48 45 -48c23 0 41 12 49 19l35 -81c-23 -20 -62 -29 -97 -29c-89 0 -135 58 -135 132c0 17 2 33 7 49c-64 7 -112 41 -139 99c-24 -59 -70 -98 -140 -98c-52 0 -107 26 -143 73zM518 520c0 19 -3 36 -7 48h-153
c3 -67 35 -124 95 -124c46 0 65 34 65 76z" />
    <glyph glyph-name="bnNG_GH_RA" horiz-adv-x="1157" 
d="M327 541v-39c12 -3 24 -4 37 -4c44 0 64 22 64 52c0 25 -19 46 -51 46s-50 -19 -50 -55zM1069 -116h-101c-6 57 -43 90 -115 90c-41 0 -122 -2 -160 -2c-118 0 -184 56 -208 129c-36 -12 -78 -19 -127 -19c-210 0 -331 154 -335 331l96 19c5 -177 117 -255 239 -255
c93 0 158 40 158 103c0 16 -5 33 -11 41c-43 -29 -89 -50 -145 -50c-88 0 -137 53 -137 129v59c-49 27 -88 66 -117 109h-126v92h189c11 -37 32 -75 61 -105c3 67 54 118 141 118c25 0 49 -5 69 -13h737v-92h-108v-684zM974 25h4c-6 24 -12 63 -13 100l-353 102
c-6 -21 -16 -40 -28 -57c5 -51 34 -101 119 -101c39 0 116 3 153 3c51 0 90 -15 118 -47zM538 442c34 -24 64 -60 76 -109l25 16c44 27 76 37 79 38v5c-68 8 -121 44 -121 116c0 23 6 43 15 60h-92c1 -7 2 -14 2 -22c0 -73 -60 -123 -156 -123c-13 0 -26 1 -39 2v-18
c0 -26 13 -39 39 -39c34 0 83 15 172 74zM967 230l3 1c-5 46 -9 103 -9 162v175h-232c-12 -15 -19 -33 -19 -52c0 -42 36 -61 75 -61c28 0 56 7 89 29l44 -91l-172 -100z" />
    <glyph glyph-name="bnC_CH_RA" horiz-adv-x="987" 
d="M177 446h-4c1 -3 7 -55 7 -141v-52c0 -29 13 -47 52 -47c58 0 112 54 112 116c0 36 -17 55 -67 72l-23 8c-42 15 -62 30 -77 44zM550 568c10 -28 69 -35 121 -58c21 7 49 11 71 11c106 0 191 -69 191 -186c0 -111 -75 -191 -235 -208v-4c35 -9 73 -24 129 -52l129 -62
l-69 -81c-19 10 -38 19 -55 28v-196h-101c-6 59 -38 90 -111 90c-28 0 -51 -2 -75 -2c-143 0 -203 92 -204 195l106 25c0 -59 22 -121 109 -121c28 0 45 1 68 1c51 0 85 -14 113 -46h4c-7 26 -13 69 -14 107c-170 86 -198 91 -280 100v93h135c167 0 240 55 240 134
c0 50 -26 79 -73 85c1 -6 2 -13 2 -21c0 -82 -69 -156 -169 -156c-66 0 -110 26 -128 70c-5 -109 -98 -207 -223 -207c-105 0 -161 59 -161 146v315h-90v92h1027v-92h-457zM651 402c0 44 -73 39 -101 63v-99c0 -18 10 -31 33 -31c41 0 68 32 68 67zM314 489
c69 -25 113 -57 131 -108v187h-268c11 -28 40 -45 101 -67z" />
    <glyph glyph-name="bnK_TT_RA" horiz-adv-x="685" 
d="M66 941l109 19c-2 -10 -3 -20 -3 -29c0 -39 18 -80 103 -80h139c105 0 193 -54 193 -163c0 -9 0 -18 -2 -28h100v-92h-283v-20c160 -7 225 -87 225 -165c0 -91 -57 -138 -115 -161l-55 83c32 9 67 31 67 78c0 49 -46 69 -122 72v-224c-89 -18 -168 -56 -168 -143
c0 -63 47 -104 130 -104c71 0 103 29 103 66c0 25 -19 42 -46 42c-16 0 -35 -6 -46 -15l-44 79c20 17 54 31 94 31c78 0 144 -49 144 -139c0 -49 -21 -89 -57 -116v-287h-101c-6 57 -36 90 -108 90c-29 0 -51 -1 -75 -1c-144 0 -200 91 -202 193l106 25
c0 -59 20 -120 107 -120c28 0 44 1 67 1c51 0 83 -15 111 -47h4c-7 25 -12 67 -14 106c-13 -2 -28 -3 -43 -3c-154 0 -235 91 -235 197c0 68 28 116 67 149l-171 77v101c53 52 149 110 270 129v26h-335v92h515c1 8 2 15 2 21c0 55 -34 74 -104 74h-124
c-154 0 -205 80 -205 160c0 8 1 18 2 26zM319 292h4c-5 48 -7 103 -8 153c-64 -15 -120 -45 -162 -79z" />
    <glyph glyph-name="bnNN_TT_RA" horiz-adv-x="894" 
d="M283 941l109 19c-2 -10 -3 -20 -3 -29c0 -39 18 -80 103 -80h136c105 0 193 -54 193 -163c0 -9 0 -18 -2 -28h95v-92h-380v-275c0 -37 24 -59 67 -59c71 0 129 52 129 119c0 38 -20 59 -55 59c-17 0 -36 -9 -46 -22l-51 88c21 21 62 39 102 39c89 0 159 -55 159 -166
c0 -51 -19 -98 -52 -136v-342h-102c-5 57 -35 90 -108 90c-29 0 -72 -1 -96 -1c-143 0 -200 91 -201 194l106 24c0 -58 19 -120 106 -120c28 0 65 1 89 1c50 0 82 -15 110 -46h4c-8 29 -13 82 -13 125v6c-25 -8 -52 -13 -81 -13c-114 0 -178 62 -178 158v13
c0 128 -30 254 -159 254c-77 0 -121 -45 -121 -112c0 -60 40 -95 99 -95c31 0 57 13 75 27l37 -98c-28 -21 -72 -34 -114 -34c-133 0 -210 90 -210 200c0 122 81 213 223 213c78 0 134 -31 166 -73h4v74h285c1 8 2 15 2 21c0 55 -33 74 -103 74h-121
c-154 0 -205 80 -205 160c0 8 0 18 2 26z" />
    <glyph glyph-name="bnTT_TT_RA" horiz-adv-x="644" 
d="M8 941l109 19c-2 -10 -3 -20 -3 -29c0 -39 19 -80 103 -80h139c105 0 193 -54 193 -163c0 -9 0 -18 -2 -28h115v-92h-403v-262c0 -40 31 -59 73 -59c71 0 126 42 126 103c0 36 -19 59 -54 59c-18 0 -37 -9 -47 -23l-50 89c21 21 61 39 102 39c88 0 158 -58 158 -163
c0 -25 -4 -48 -12 -69c28 -36 42 -79 42 -126c0 -67 -24 -123 -68 -162v-327h-102c-5 56 -35 89 -107 89c-29 0 -59 -1 -82 -1c-144 0 -202 91 -204 194l106 25c0 -59 21 -121 108 -121c28 0 52 1 75 1c51 0 83 -14 111 -46h4c-8 29 -14 82 -14 125v9c-24 -5 -49 -8 -77 -8
c-147 0 -264 83 -330 214l83 72c53 -113 133 -182 246 -182c85 0 137 46 137 119c0 10 -1 19 -3 28c-39 -27 -90 -43 -147 -43c-124 0 -184 67 -184 155v271h-169v92h457c1 8 2 15 2 21c0 55 -34 74 -104 74h-124c-154 0 -205 80 -205 160c0 8 1 18 2 26z" />
    <glyph glyph-name="bnN_TT_RA" horiz-adv-x="825" 
d="M210 941l109 19c-1 -10 -3 -20 -3 -29c0 -39 19 -80 103 -80h139c106 0 193 -54 193 -163c0 -9 0 -18 -1 -28h95v-92h-381v-307c0 -37 21 -59 61 -59c72 0 135 69 135 137c0 41 -19 63 -54 63c-18 0 -36 -9 -47 -23l-50 89c21 21 62 39 102 39c88 0 159 -57 159 -167
c0 -59 -26 -119 -70 -164v-329h-101c-5 57 -36 90 -108 90c-29 0 -61 -1 -85 -1c-143 0 -200 91 -202 194l107 25c0 -59 19 -121 106 -121c28 0 54 1 77 1c51 0 83 -15 111 -46h4c-8 29 -14 82 -14 121c-24 -8 -51 -12 -79 -12c-93 0 -148 51 -160 124
c-24 88 -73 191 -158 191c-41 0 -64 -22 -64 -56c0 -22 9 -37 20 -51l-89 -34c-19 22 -35 53 -35 92c0 86 59 146 158 146c79 0 134 -38 167 -92l4 1c-4 22 -9 73 -9 149h-370v92h659c1 8 2 15 2 21c0 55 -34 74 -104 74h-123c-155 0 -206 80 -206 160c0 8 1 18 2 26z" />
    <glyph glyph-name="bnL_TT_RA" horiz-adv-x="1028" 
d="M418 941l109 19c-1 -10 -3 -20 -3 -29c0 -39 19 -80 103 -80h140c105 0 193 -54 193 -163c0 -9 -1 -18 -2 -28h91v-92h-376v-275c0 -37 24 -59 67 -59c70 0 128 52 128 119c0 38 -19 59 -54 59c-18 0 -36 -9 -46 -22l-51 88c21 21 62 39 102 39c88 0 159 -55 159 -166
c0 -42 -13 -82 -37 -117v-359h-101c-5 56 -36 89 -108 89c-29 0 -73 -1 -97 -1c-143 0 -200 91 -201 194l106 25c0 -59 19 -121 106 -121c28 0 66 1 90 1c50 0 82 -14 110 -46h4c-8 29 -14 82 -14 125v10c-29 -11 -62 -18 -96 -18c-114 0 -178 62 -178 158v49
c-9 21 -34 45 -72 45c-44 0 -75 -33 -75 -88v-34h-106v34c0 60 -31 84 -72 84c-39 0 -76 -30 -76 -90c0 -73 51 -114 116 -114c22 0 45 4 64 14l16 -99c-24 -10 -53 -14 -85 -14c-136 0 -225 89 -225 211c0 123 87 195 181 195c81 0 122 -43 134 -78h4c11 42 50 80 110 80
c43 0 72 -18 81 -29h5v111h-582v92h867c1 8 2 15 2 21c0 55 -34 74 -103 74h-124c-155 0 -206 80 -206 160c0 8 1 18 2 26z" />
    <glyph glyph-name="bnSS_TT_RA" horiz-adv-x="597" 
d="M19 941l109 19c-2 -10 -3 -20 -3 -29c0 -39 18 -80 103 -80h116c105 0 193 -54 193 -163c0 -9 0 -18 -2 -28h79v-92h-107c18 -29 28 -65 28 -107c0 -119 -75 -191 -183 -204c-80 -24 -157 -54 -157 -138c0 -63 48 -103 131 -103c71 0 103 28 103 65c0 26 -18 43 -45 43
c-16 0 -35 -7 -45 -16l-45 79c20 17 54 31 94 31c78 0 143 -49 143 -138c0 -37 -12 -69 -33 -94v-318h-101c-6 57 -36 90 -108 90c-29 0 -52 -1 -76 -1c-144 0 -200 91 -202 193l106 25c0 -59 20 -120 107 -120c28 0 45 1 68 1c51 0 83 -15 111 -47h4c-8 27 -13 77 -14 119
c-21 -5 -43 -7 -67 -7c-154 0 -236 89 -236 196c0 83 45 137 98 170c-57 33 -92 92 -92 174c0 42 10 78 28 107h-144v92h444c1 8 2 15 2 21c0 55 -33 74 -103 74h-101c-154 0 -205 80 -205 160c0 8 0 18 2 26zM315 352c20 0 39 4 55 11l-159 144c-6 -13 -9 -29 -9 -46
c0 -67 47 -109 113 -109zM315 571c-22 0 -42 -5 -59 -14l161 -150c8 16 12 34 12 54c0 64 -47 110 -114 110z" />
    <glyph glyph-name="bnS_TT_RA" horiz-adv-x="678" 
d="M187 960c-1 -10 -3 -20 -3 -29c0 -39 19 -80 103 -80h140c105 0 193 -54 193 -163c0 -9 -1 -18 -2 -28h80v-92h-82c4 -20 6 -38 6 -57c0 -87 -50 -151 -138 -161c-98 -24 -192 -63 -192 -158c0 -62 48 -103 131 -103c71 0 104 27 104 65c0 25 -19 42 -46 42
c-16 0 -35 -7 -46 -16l-44 79c20 17 54 31 94 31c78 0 145 -49 145 -138c0 -52 -25 -94 -66 -122v-290h-101c-6 56 -36 89 -108 89c-29 0 -69 -1 -93 -1c-144 0 -200 91 -202 194l106 25c0 -59 20 -121 107 -121c28 0 62 1 85 1c51 0 83 -14 111 -46h4c-7 26 -13 73 -14 114
c-11 -1 -24 -2 -36 -2c-154 0 -237 91 -237 197c0 110 76 172 150 201c-16 15 -30 34 -40 58c-26 -51 -70 -94 -140 -94c-52 0 -107 26 -143 73l60 71c24 -29 49 -49 83 -49c54 0 76 56 83 118h-259v92h527c1 8 2 15 2 21c0 55 -34 74 -103 74h-124c-155 0 -206 80 -206 160
c0 8 1 18 2 26zM516 520c0 19 -3 36 -7 48h-154c4 -67 36 -124 96 -124c46 0 65 34 65 76z" />
    <glyph glyph-name="bnNN_TTH_RA" horiz-adv-x="878" 
d="M835 233c0 -66 -23 -124 -64 -166v-322h-102c-5 57 -35 90 -108 90c-29 0 -87 -1 -110 -1c-144 0 -200 91 -202 194l106 24c0 -59 19 -120 106 -120c28 0 80 1 104 1c50 0 82 -15 110 -47h4c-8 29 -13 83 -13 123c-20 -5 -42 -8 -66 -8c-162 0 -261 121 -261 272
c18 5 34 10 49 15c0 108 -13 279 -146 279c-61 0 -99 -37 -99 -97c0 -50 34 -85 88 -85c23 0 45 6 61 16l23 -91c-23 -12 -55 -21 -93 -21c-116 0 -186 79 -186 182c0 109 70 196 205 196c153 0 251 -119 251 -310v-2c23 29 35 65 35 112v82c-124 120 -132 197 -132 242
c0 86 57 151 141 161c13 2 23 2 44 2l22 -99c-5 1 -11 1 -16 1c-49 0 -76 -29 -76 -71c0 -41 20 -81 55 -125h333v-92h-261c112 -120 198 -218 198 -335zM607 373c-22 -104 -95 -141 -141 -156c5 -47 45 -116 136 -116c74 0 122 57 122 131c0 81 -51 144 -106 207
c-1 -23 -5 -48 -11 -66z" />
    <glyph glyph-name="bnNN_DD_RA" horiz-adv-x="759" 
d="M77 490c0 105 66 173 189 173c81 0 137 -33 173 -92c21 32 41 65 54 89h60c66 -38 128 -98 128 -179c0 -43 -11 -83 -37 -119c31 -29 54 -70 54 -122c0 -48 -15 -87 -40 -118v-360h-101c-5 56 -40 89 -112 89c-29 0 -157 -1 -181 -1c-144 0 -209 91 -211 194l107 25
c0 -59 27 -121 114 -121c28 0 151 1 174 1c51 0 87 -14 115 -46h4c-8 29 -14 83 -14 126v23c-38 -13 -80 -19 -123 -19c-181 0 -307 80 -383 228l82 59c73 -140 180 -186 302 -186c99 0 159 40 159 107c0 22 -6 40 -17 56c-24 -16 -53 -30 -87 -44l-59 90
c92 38 149 73 149 140c0 28 -15 51 -33 66c-13 -23 -37 -63 -59 -90h-90c-14 64 -55 108 -121 108c-59 0 -90 -30 -90 -78c0 -51 32 -78 82 -78c30 0 53 11 70 24l32 -90c-25 -19 -64 -31 -104 -31c-114 0 -186 72 -186 176z" />
    <glyph glyph-name="bnN_DD_RA" horiz-adv-x="805" 
d="M-20 568v92h845v-92h-350v-194c0 -30 12 -41 33 -41c29 0 104 34 169 86c46 -29 91 -97 91 -176c0 -68 -27 -130 -74 -175v-332h-102c-5 57 -38 90 -111 90c-28 0 -160 -1 -184 -1c-144 0 -206 91 -208 194l106 24c0 -58 26 -120 113 -120c28 0 154 1 177 1
c51 0 85 -15 113 -47h4c-8 30 -13 83 -13 126v6c-30 -9 -63 -14 -99 -14c-162 0 -288 107 -342 238l89 67c57 -140 150 -202 253 -202c104 0 168 64 168 139c0 19 -3 36 -12 50c-38 -31 -96 -58 -152 -58c-53 0 -91 21 -112 56c-58 79 -107 133 -180 133
c-41 0 -64 -22 -64 -55c0 -23 9 -38 21 -52l-90 -34c-20 22 -35 53 -35 92c0 86 59 147 158 147c83 0 141 -41 177 -89l4 1c-4 22 -9 67 -9 140h-384z" />
    <glyph glyph-name="bnL_DD_RA" horiz-adv-x="973" 
d="M993 568h-357v-178c0 -30 12 -41 33 -41c29 0 105 34 170 86c45 -29 90 -97 90 -176c0 -70 -26 -132 -72 -176v-343h-102c-5 56 -35 89 -108 89c-29 0 -175 -1 -199 -1c-144 0 -201 91 -203 194l106 25c0 -59 21 -121 108 -121c28 0 168 1 192 1c50 0 82 -14 110 -46h4
c-8 29 -13 83 -13 126v15c-31 -9 -65 -14 -102 -14c-139 0 -242 75 -299 183l85 75c42 -104 127 -155 214 -155c104 0 169 63 169 142c0 19 -3 36 -12 50c-38 -31 -95 -58 -152 -58c-84 0 -130 54 -133 133c-9 20 -34 42 -68 42c-42 0 -70 -32 -70 -85v-34h-99v34
c0 58 -30 81 -68 81c-40 0 -73 -30 -73 -90c0 -70 41 -108 102 -108c17 0 29 2 45 7l12 -93c-18 -7 -42 -10 -62 -10c-126 0 -202 85 -202 203c0 120 81 189 169 189c76 0 111 -40 125 -75h5c11 41 47 78 103 78c41 0 67 -18 77 -29h4v80h-542v92h1013v-92z" />
    <glyph glyph-name="bnNN_DDH_RA" horiz-adv-x="893" 
d="M534 568v-275c0 -37 24 -59 67 -59c71 0 129 52 129 119c0 38 -20 59 -55 59c-17 0 -36 -9 -46 -22l-51 88c21 21 62 39 102 39c89 0 159 -55 159 -166c0 -53 -21 -102 -56 -140v-338h-101c-5 56 -36 89 -108 89c-29 0 -49 -1 -73 -1c-144 0 -200 91 -202 194l106 25
c0 -59 19 -120 106 -120c28 0 43 1 67 1c50 0 82 -15 110 -47h4c-8 29 -14 83 -14 126v5c-24 -8 -50 -12 -77 -12c-114 0 -178 62 -178 158v13c0 128 -30 254 -159 254c-77 0 -121 -45 -121 -112c0 -60 40 -95 99 -95c31 0 57 13 75 27l37 -98c-28 -21 -72 -34 -114 -34
c-133 0 -210 90 -210 200c0 122 81 213 223 213c78 0 134 -31 166 -73h4v74h490v-92h-379z" />
    <glyph glyph-name="bnK_T_RA" horiz-adv-x="962" 
d="M982 568h-1002v92h1002v-92zM361 234c98 38 152 82 152 138c0 34 -22 57 -65 57c-59 0 -99 -54 -111 -93l-87 54c25 81 102 138 197 138c77 0 128 -34 153 -82c38 41 87 61 142 61c104 0 185 -73 185 -180c0 -106 -73 -175 -166 -175c-33 0 -62 6 -85 18l21 90
c16 -7 35 -10 51 -10c45 0 73 31 73 76c0 50 -34 80 -85 80c-61 0 -98 -55 -144 -129c-4 -6 -8 -11 -12 -17c39 -29 70 -72 70 -133c0 -60 -24 -108 -66 -141v-299h-102c-5 56 -35 89 -108 89c-28 0 -119 -1 -143 -1c-143 0 -201 91 -203 194l106 25c0 -59 21 -121 108 -121
c28 0 113 1 136 1c51 0 83 -15 111 -46h4c-8 27 -13 74 -14 115c-15 -2 -31 -3 -48 -3c-226 0 -342 216 -398 464l98 41c51 -238 151 -402 300 -402c71 0 109 38 109 89c0 25 -11 48 -31 66c-22 -15 -48 -28 -78 -41z" />
    <glyph glyph-name="bnN_T_RA" horiz-adv-x="861" 
d="M-20 660h901v-92h-331c10 -15 19 -36 21 -68c21 4 42 7 65 7c94 0 137 -59 137 -125v-464h-98c0 79 -51 104 -192 113c-194 12 -274 84 -274 197c0 38 14 73 30 98l97 -33c-12 -17 -21 -38 -21 -67c0 -60 45 -95 175 -103c132 -9 164 -31 194 -55h4
c-9 40 -16 103 -16 182v114c0 30 -13 49 -49 49c-63 0 -120 -46 -120 -105c0 -29 14 -48 44 -48c23 0 41 12 49 19l35 -81c-23 -20 -62 -29 -96 -29c-89 0 -135 58 -135 132c0 12 1 24 3 35c-105 6 -148 85 -214 85c-34 0 -53 -21 -53 -50c0 -23 9 -39 21 -53l-91 -33
c-19 19 -35 52 -35 93c0 80 48 143 146 143c112 0 154 -83 225 -83c45 0 64 31 64 65c0 35 -21 65 -67 65h-419v92z" />
    <glyph glyph-name="bnP_T_RA" horiz-adv-x="765" 
d="M139 520c53 -10 104 -43 132 -101l130 85c-30 41 -72 67 -131 67c-64 0 -108 -30 -131 -51zM63 447l-53 87c46 64 137 134 252 134c117 0 175 -59 205 -105l3 2c-17 41 -21 117 -21 169v27h108v-101h227v-92h-227v-203c89 -3 131 -60 131 -125v-464h-98
c0 79 -51 104 -193 113c-193 12 -273 84 -273 197c0 38 13 73 29 98l97 -33c-11 -17 -20 -38 -20 -67c0 -60 45 -95 175 -103c132 -9 164 -31 194 -55h4c-9 40 -16 103 -16 182v114c0 30 -13 49 -49 49c-63 0 -121 -46 -121 -105c0 -29 15 -48 45 -48c23 0 41 12 49 19
l35 -81c-23 -20 -62 -29 -96 -29c-90 0 -135 58 -135 132c0 79 51 153 134 187c-2 23 -5 46 -10 67l-290 -193l-54 83l92 60c-14 31 -37 55 -69 69c-17 7 -32 13 -55 15z" />
    <glyph glyph-name="bnS_T_RA" horiz-adv-x="888" 
d="M73 494c25 -28 50 -49 83 -49c55 0 76 61 84 123h-261v92h929v-92h-292c4 -20 6 -38 6 -57v-7c13 2 27 3 41 3c94 0 138 -59 138 -125v-464h-99c0 79 -51 104 -192 113c-194 12 -274 84 -274 197c0 38 14 73 30 98l97 -33c-11 -17 -21 -38 -21 -67c0 -60 46 -95 176 -103
c132 -9 164 -31 194 -55h4c-9 40 -17 103 -17 182v114c0 30 -13 49 -49 49c-28 0 -56 -10 -77 -26c-3 -2 -6 -5 -9 -7c-21 -18 -34 -44 -34 -72c0 -29 15 -48 45 -48c23 0 40 12 49 19l34 -81c-22 -20 -61 -29 -96 -29c-89 0 -135 58 -135 132c0 17 2 33 7 49
c-64 8 -111 42 -138 99c-24 -59 -70 -98 -140 -98c-52 0 -107 26 -142 73zM517 520c0 19 -3 36 -8 48h-153c4 -67 35 -124 96 -124c46 0 65 34 65 76z" />
    <glyph glyph-name="bnN_TH_RA" horiz-adv-x="649" 
d="M-20 660h689v-92h-105c12 -17 23 -43 23 -83c0 -38 -12 -82 -45 -112c27 -32 42 -75 42 -124c0 -113 -76 -170 -177 -183v-4c35 -9 67 -23 130 -60l74 -45l-73 -72c-14 9 -27 17 -40 24v-184h-102c-5 57 -35 90 -108 90c-29 0 -39 -1 -63 -1c-134 0 -191 82 -193 184
l106 25c0 -59 19 -111 98 -111c28 0 33 1 56 1c51 0 82 -15 111 -47h4c-8 25 -12 67 -14 106c-82 47 -116 59 -170 66v94h59c131 0 195 40 195 117c0 53 -32 87 -84 87c-39 0 -67 -20 -67 -57c0 -22 13 -43 39 -54l-74 -56c-49 22 -74 68 -74 119c0 43 19 82 52 110
c-21 13 -42 23 -66 23c-34 0 -53 -21 -53 -50c0 -23 9 -39 21 -53l-91 -33c-19 19 -35 52 -35 93c0 80 49 143 146 143c112 0 154 -83 225 -83c45 0 64 31 64 65c0 35 -21 65 -66 65h-434v92z" />
    <glyph glyph-name="bnG_D_RA" horiz-adv-x="907" 
d="M434 660h493v-92h-388v-191c52 51 150 112 230 143l86 -52c-28 -77 -39 -174 -39 -241v-306h-101c-5 56 -36 89 -111 89c-26 0 -60 -1 -84 -1c-143 0 -201 91 -203 194l106 25c0 -59 21 -121 108 -121c28 0 56 1 80 1c49 0 82 -14 110 -46h4c-8 29 -14 83 -14 126v33
c0 84 9 129 25 171c-71 -43 -127 -86 -201 -165l-110 42v116c0 107 -56 179 -157 179c-59 0 -104 -28 -130 -60c19 6 42 10 63 10c74 0 144 -46 144 -135c0 -77 -51 -144 -121 -193l-79 77c52 33 91 73 91 120c0 33 -27 56 -73 56c-22 0 -48 -5 -69 -13l-76 81
c36 79 124 158 245 158c89 0 145 -44 177 -82h4c-5 12 -10 41 -10 73v4z" />
    <glyph glyph-name="bnD_D_RA" horiz-adv-x="845" 
d="M197 194l-117 44v330h-100v92h885v-92h-671v-209c47 57 136 130 221 162l93 -53c-23 -64 -38 -142 -38 -206v-14c46 57 148 138 233 171l92 -53c-28 -77 -40 -180 -40 -267v-293h-111c-5 56 -35 89 -108 89c-29 0 -113 -1 -137 -1c-144 0 -202 91 -203 194l106 25
c0 -59 20 -121 108 -121c28 0 106 1 130 1c50 0 82 -14 110 -46h4c-8 29 -13 83 -13 126v26c0 84 10 146 26 188c-63 -42 -134 -113 -187 -188l-119 48v43c0 82 11 158 25 198c-65 -42 -136 -116 -189 -194z" />
    <glyph glyph-name="bnN_D_RA" horiz-adv-x="844" 
d="M-20 568v92h884v-92h-389v-213c49 53 148 120 228 151l88 -53c-28 -77 -40 -179 -40 -249v-283h-101c-5 56 -36 89 -108 89c-29 0 -122 -1 -140 -1c-150 0 -218 89 -220 192l106 27c2 -65 31 -121 124 -121c22 0 110 1 134 1c50 0 82 -14 110 -46h4c-8 29 -14 75 -14 118
v27c0 84 10 128 26 170c-72 -44 -132 -95 -202 -174l-102 42c-37 73 -87 156 -165 156c-42 0 -65 -23 -65 -55c0 -23 9 -39 21 -53l-90 -34c-20 22 -34 53 -34 92c0 86 61 147 160 147c83 0 143 -43 177 -97l4 1c-4 22 -9 73 -9 149v17h-387z" />
    <glyph glyph-name="bnB_D_RA" horiz-adv-x="818" 
d="M717 -152h-106c-5 56 -35 89 -108 89c-29 0 -133 -1 -157 -1c-143 0 -201 91 -203 194l106 25c0 -59 21 -120 108 -120c28 0 126 1 150 1c50 0 82 -15 110 -47h4c-8 29 -13 83 -13 126v65c0 59 10 127 26 169c-68 -44 -149 -141 -202 -223l-382 168v89
c40 38 145 117 272 157v28h-342v92h858v-92h-401v-266c47 58 142 143 228 176l91 -53c-28 -77 -39 -158 -39 -246v-331zM322 281v158c-55 -22 -121 -63 -154 -89z" />
    <glyph glyph-name="bnM_D_RA" horiz-adv-x="825" 
d="M-20 660h865v-92h-296c11 -17 22 -43 22 -83c0 -59 -29 -130 -118 -146v-87c52 51 149 126 232 156l91 -53c-28 -77 -39 -159 -39 -232v-292h-106c-5 57 -37 90 -110 90c-29 0 -119 -1 -143 -1c-144 0 -210 90 -212 193l106 25c0 -59 29 -120 116 -120c28 0 111 1 134 1
c53 0 87 -15 115 -47h4c-8 30 -13 83 -13 126v21c0 60 7 111 23 153c-68 -44 -128 -99 -203 -184l-110 42v220c-62 25 -99 71 -150 71c-34 0 -53 -21 -53 -50c0 -23 9 -39 20 -53l-90 -33c-19 19 -35 52 -35 93c0 61 28 112 84 133c-4 22 -12 41 -23 57h-111v92zM401 438
c45 0 64 31 64 65c0 35 -21 65 -67 65h-187c6 -16 11 -34 14 -53c77 -19 116 -77 176 -77z" />
    <glyph glyph-name="bnL_D_RA" horiz-adv-x="1045" 
d="M1065 568h-395v-191c51 51 149 112 229 143l86 -52c-28 -77 -38 -187 -38 -253v-299h-102c-5 56 -35 89 -108 89c-29 0 -84 -1 -108 -1c-144 0 -202 91 -203 194l106 25c0 -59 20 -121 108 -121c28 0 77 1 101 1c50 0 82 -14 110 -46h4c-8 29 -13 83 -13 126v38
c0 84 9 129 24 171c-70 -43 -127 -86 -201 -165l-107 42v83c-9 22 -34 45 -69 45c-44 0 -71 -34 -71 -88v-34h-107v34c0 61 -30 85 -71 85c-39 0 -74 -31 -74 -94c0 -69 40 -111 105 -111c22 0 45 5 64 15l17 -100c-25 -9 -53 -14 -86 -14c-136 0 -214 90 -214 211
c0 123 84 195 179 195c77 0 116 -38 134 -75h4c12 42 46 78 106 78c39 0 66 -18 78 -29h5v98h-578v92h1085v-92z" />
    <glyph glyph-name="bnN_DH_RA" horiz-adv-x="780" 
d="M-20 568v92h820v-92h-307v-189c86 37 145 55 158 58l79 -66s-22 -49 -22 -224v-114h-106v115c0 89 9 141 19 172c-29 -11 -72 -28 -128 -53v-530h-101c-5 56 -36 89 -108 89c-29 0 -40 -1 -64 -1c-144 0 -201 91 -203 194l106 25c0 -59 21 -121 108 -121c28 0 33 1 56 1
c51 0 83 -15 111 -46h4c-6 21 -11 55 -13 88l-262 119v103c79 50 154 91 222 125c-35 49 -78 85 -131 85c-42 0 -64 -22 -64 -55c0 -23 9 -38 20 -52l-90 -34c-19 22 -34 53 -34 92c0 86 61 147 160 147c83 0 145 -41 180 -97l4 1c-3 22 -8 73 -8 149v19h-406zM390 72h5
c-5 48 -7 93 -8 146c-45 -22 -94 -48 -147 -77z" />
    <glyph glyph-name="bnM_P_RA" horiz-adv-x="1086" 
d="M396 438c45 0 64 31 64 65c0 35 -21 65 -67 65h-187c6 -16 11 -34 14 -53c77 -19 116 -77 176 -77zM566 520c54 -10 106 -44 133 -106l128 90c-29 41 -72 67 -131 67c-64 0 -108 -30 -130 -51zM984 -45h-104c-5 56 -37 89 -109 89c-41 0 -130 -1 -168 -1
c-144 0 -202 90 -204 193l106 25c0 -59 21 -121 108 -121c37 0 127 2 161 2c51 0 84 -14 112 -46h4c-8 29 -14 78 -14 119v98c0 34 -3 67 -10 97l-273 -192l-55 84l78 54c-13 30 -32 54 -61 68c-19 -47 -62 -88 -145 -88c-115 0 -158 85 -227 85c-34 0 -53 -21 -53 -50
c0 -23 9 -39 21 -53l-91 -33c-19 19 -35 52 -35 93c0 61 28 112 84 133c-4 22 -12 41 -23 57h-106v92h498c20 -13 36 -27 48 -43c44 29 100 51 163 51c116 0 174 -59 204 -105l3 2c-16 41 -21 117 -21 169v27h109v-101h107v-92h-107v-613z" />
    <glyph glyph-name="bnSS_P_RA" horiz-adv-x="982" 
d="M265 570c-22 0 -42 -5 -58 -14l162 -148c6 15 9 32 9 50c0 67 -47 112 -113 112zM265 341c23 0 44 6 61 17l-163 147c-6 -14 -9 -30 -9 -47c0 -69 46 -117 111 -117zM477 520c60 -12 118 -53 142 -128l131 95c-29 51 -76 84 -143 84c-64 0 -107 -30 -130 -51zM895 -45
h-104c-5 56 -36 89 -109 89c-41 0 -121 -1 -159 -1c-128 0 -188 68 -199 159l104 33c5 -51 31 -95 105 -95c38 0 119 2 153 2c50 0 83 -14 111 -46h4c-8 29 -13 78 -13 119v98c0 26 -2 52 -6 76l-256 -187l-58 80l72 52c-9 39 -27 69 -60 86c-16 -109 -102 -175 -215 -175
c-126 0 -218 82 -218 213c0 44 11 80 30 110h-97v92h285c62 0 118 -19 158 -55c45 36 107 63 177 63c116 0 174 -59 204 -105l4 2c-17 41 -22 117 -22 169v27h109v-101h107v-92h-107v-613z" />
    <glyph glyph-name="bnS_P_RA" horiz-adv-x="1129" 
d="M510 568h-153c3 -67 35 -124 95 -124c47 0 65 34 65 76c0 19 -2 36 -7 48zM624 520c54 -10 106 -44 133 -106l129 90c-29 41 -73 67 -132 67c-64 0 -107 -30 -130 -51zM1042 -15h-104c-5 56 -36 89 -109 89c-41 0 -127 -1 -166 -1c-128 0 -188 68 -199 159l104 33
c5 -51 31 -95 106 -95c37 0 125 2 159 2c50 0 83 -14 112 -46h4c-8 29 -14 78 -14 119v68c0 34 -3 68 -10 98l-267 -186l-58 80l79 55c-13 33 -36 58 -75 69c-25 -50 -74 -80 -143 -80c-77 0 -134 41 -164 100c-24 -59 -70 -98 -140 -98c-52 0 -107 26 -142 73l59 70
c25 -28 50 -49 83 -49c54 0 76 61 84 123h-261v92h605c7 -12 12 -23 16 -33c41 24 90 41 146 41c117 0 175 -59 205 -105l3 2c-17 41 -22 117 -22 169v27h109v-101h107v-92h-107v-583z" />
    <glyph glyph-name="bnL_PH_RA" horiz-adv-x="1146" 
d="M-20 568v92h1184v-92h-531v-156l45 -56v-76l-116 -84l189 -80h4c-6 58 -10 137 -10 196v169c36 19 92 33 147 33c119 0 215 -68 215 -193c0 -105 -67 -160 -125 -185l-60 88c39 13 78 44 78 98c0 63 -44 91 -98 91c-15 0 -30 -3 -45 -7v-622h-108c-5 57 -37 90 -109 90
c-41 0 -77 -2 -116 -2c-128 0 -187 69 -199 160l104 33c5 -52 31 -95 106 -95c37 0 74 2 108 2c51 0 84 -15 112 -46h4c-6 21 -11 55 -13 87l-308 128v91l125 92l-45 56c-17 22 -36 42 -68 42c-40 0 -67 -31 -67 -84v-34h-99v33c0 59 -30 82 -68 82c-37 0 -73 -30 -73 -88
c0 -70 43 -110 103 -110c14 0 29 2 42 7l10 -94c-17 -6 -36 -9 -56 -9c-127 0 -203 86 -203 204s80 188 168 188c77 0 114 -43 125 -76h5c10 40 46 79 102 79c40 0 65 -19 75 -29h4v77h-538z" />
    <glyph glyph-name="bnS_PH_RA" horiz-adv-x="1086" 
d="M76 494c24 -28 49 -49 83 -49c54 0 76 61 83 123h-262v92h1126v-92h-487c4 -20 6 -38 6 -57c0 -47 -14 -87 -42 -116l39 -53v-80l-119 -81l189 -80h4c-6 58 -11 137 -11 195v184c37 19 93 33 147 33c120 0 216 -68 216 -193c0 -105 -67 -160 -126 -185l-60 88
c40 14 79 44 79 99c0 62 -45 90 -98 90c-16 0 -31 -3 -45 -7v-634h-109c-5 56 -36 89 -109 89c-41 0 -77 -1 -115 -1c-129 0 -188 68 -200 159l104 34c5 -52 32 -96 106 -96c37 0 75 2 109 2c50 0 83 -14 112 -46h4c-6 21 -11 54 -13 86l-308 128v93l135 96l-25 35
c-9 0 -17 -1 -26 -1c-77 0 -134 35 -164 100c-24 -59 -70 -98 -140 -98c-52 0 -107 26 -143 73zM519 520c0 19 -3 36 -7 48h-154c4 -67 36 -124 96 -124c46 0 65 34 65 76z" />
    <glyph glyph-name="bnM_PH_RA" horiz-adv-x="1034" 
d="M-20 660h1073v-92h-498c12 -23 20 -51 20 -83c0 -38 -12 -81 -44 -111l37 -53v-80l-118 -81l189 -80h4c-7 58 -11 137 -11 195v184c37 19 92 33 147 33c119 0 216 -68 216 -193c0 -105 -67 -160 -126 -185l-60 88c39 14 78 44 78 99c0 62 -44 90 -98 90
c-15 0 -30 -3 -45 -7v-636h-108c-5 56 -37 89 -109 89c-41 0 -77 -1 -116 -1c-128 0 -187 68 -199 159l104 33c5 -51 31 -95 106 -95c37 0 74 2 108 2c51 0 84 -14 112 -46h4c-6 22 -11 55 -13 88l-308 128v93l136 96l-30 42h-12c-115 0 -158 85 -227 85
c-34 0 -53 -21 -53 -50c0 -23 9 -39 20 -53l-90 -33c-19 19 -35 52 -35 93c0 61 28 112 84 133c-4 22 -12 41 -23 57h-115v92zM405 438c45 0 64 31 64 65c0 35 -21 65 -67 65h-188c7 -16 12 -34 15 -53c77 -19 116 -77 176 -77z" />
    <glyph glyph-name="bnM_B_RA" horiz-adv-x="619" 
d="M-20 660h659v-92h-83c11 -17 22 -43 22 -83c0 -44 -16 -95 -62 -125v-567h-109c-5 57 -36 90 -109 90c-36 0 -45 -2 -77 -2c-128 0 -187 69 -199 160l104 33c5 -52 31 -96 106 -96c34 0 36 3 70 3c50 0 83 -15 112 -46h4c-6 20 -11 52 -13 84l-276 126v108
c40 33 108 77 182 114c-43 24 -75 54 -117 54c-34 0 -53 -21 -53 -50c0 -20 7 -35 17 -47l-90 -35c-18 20 -32 51 -32 89c0 61 28 112 85 133c-5 22 -13 41 -24 57h-117v92zM412 123h5c-5 54 -8 115 -8 168v13c-67 -29 -126 -65 -175 -98zM407 438c46 0 64 31 64 65
c0 35 -21 65 -66 65h-188c7 -17 12 -34 15 -53c76 -19 116 -77 175 -77z" />
    <glyph glyph-name="bnD_BH_RA" horiz-adv-x="603" 
d="M623 568h-414v-169c47 42 131 94 209 123l84 -52c-25 -69 -28 -137 -28 -215v-18c38 -44 70 -112 70 -212v-305h-102c-5 57 -36 90 -109 90c-41 0 -63 -2 -102 -2c-128 0 -187 69 -199 160l104 33c5 -52 32 -95 106 -95c37 0 61 2 95 2c50 0 83 -15 111 -46h4
c-8 28 -13 77 -13 118v47c0 48 -10 87 -23 106h-4c-24 -60 -73 -114 -158 -114c-95 0 -150 63 -150 138c0 36 11 62 20 78l108 -16c-11 -14 -17 -36 -17 -55c0 -28 15 -48 47 -48c43 0 76 42 106 134v6c0 53 7 110 22 148c-59 -35 -121 -78 -186 -141l-105 38v267h-119v92
h643v-92z" />
    <glyph glyph-name="bnB_BH_RA" horiz-adv-x="604" 
d="M624 568h-163v-367c43 -42 81 -114 81 -224v-302h-102c-5 57 -37 90 -109 90c-41 0 -77 -2 -116 -2c-128 0 -187 69 -199 160l104 33c5 -52 31 -95 106 -95c37 0 75 2 108 2c51 0 84 -15 112 -46h4c-8 28 -13 77 -13 118v45c0 48 -10 87 -24 105h-4
c-23 -59 -75 -122 -159 -122c-102 0 -156 63 -156 139c0 35 11 61 20 77l107 -16c-10 -14 -17 -36 -17 -54c0 -29 17 -49 49 -49c40 0 67 32 91 94l-286 116v113c95 78 198 131 296 166v19h-374v92h644v-92zM358 255h4c-5 53 -8 117 -8 170v19c-63 -28 -134 -67 -189 -108z
" />
    <glyph glyph-name="bnM_BH_RA" horiz-adv-x="676" 
d="M-20 660h716v-92h-142c11 -17 22 -43 22 -83c0 -43 -15 -91 -56 -121c52 -50 94 -139 94 -248v-301h-101c-5 56 -37 89 -109 89c-41 0 -77 -1 -116 -1c-128 0 -187 68 -199 159l104 34c5 -52 31 -96 106 -96c37 0 74 3 108 3c51 0 84 -15 112 -47h4c-8 29 -14 78 -14 119
v44c0 47 -9 87 -23 105h-4c-23 -60 -72 -114 -157 -114c-95 0 -150 63 -150 139c0 35 11 61 20 77l108 -16c-11 -14 -18 -36 -18 -54c0 -29 16 -49 48 -49c41 0 74 40 103 130c-5 -1 -11 -1 -17 -1c-114 0 -157 85 -227 85c-33 0 -52 -21 -52 -50c0 -20 7 -35 16 -47
l-90 -35c-17 20 -31 51 -31 89c0 61 28 112 84 133c-4 22 -12 41 -24 57h-115v92zM405 438c46 0 64 31 64 65c0 35 -20 65 -66 65h-188c7 -17 12 -34 15 -53c76 -19 116 -77 175 -77z" />
    <glyph glyph-name="bnK_BA" horiz-adv-x="710" 
d="M730 568h-298v-30c161 -7 225 -107 225 -191c0 -89 -48 -149 -113 -174l-55 83c38 15 65 45 65 91c0 52 -43 90 -122 95v-508l48 -22l-70 -78l-356 167v107c34 28 93 66 158 100l-158 71v106c53 52 151 121 271 145v38h-345v92h750v-92zM328 -19h5c-5 54 -8 102 -8 162
v10c-62 -26 -119 -59 -166 -90zM328 263h5c-5 53 -8 114 -8 167c-65 -19 -124 -55 -167 -89z" />
    <glyph glyph-name="bnKH_BA" horiz-adv-x="648" 
d="M537 -173l-447 173v111c31 26 82 60 140 91l-193 62v107c180 8 259 55 259 129c0 19 -5 32 -14 41c-24 -53 -70 -91 -144 -91c-88 0 -146 57 -146 134c0 35 11 64 22 81h109c-19 -28 -27 -49 -27 -75c0 -28 17 -50 53 -50c45 0 74 38 102 120h58c44 -35 88 -90 88 -167
c0 -95 -59 -150 -180 -178v-4l240 -78l3 2c-5 71 -8 129 -8 217v309h108v-101h103v-92h-103v-642l47 -19zM464 -36c-5 54 -8 102 -8 162v4l-88 28c-65 -26 -123 -60 -171 -92l262 -102h5z" />
    <glyph glyph-name="bnG_BA" horiz-adv-x="608" 
d="M521 761v-101h107v-92h-107v-641l48 -23l-71 -78l-355 167v108c55 45 169 113 273 150v134c0 107 -56 179 -157 179c-59 0 -104 -28 -130 -60c20 6 42 10 63 10c82 0 144 -53 144 -141c0 -73 -41 -138 -107 -187l-88 71c45 31 86 67 86 117c0 34 -28 55 -74 55
c-22 0 -46 -5 -68 -12l-76 90c36 79 125 158 245 158c89 0 145 -44 177 -82h4c-11 30 -20 88 -20 150v28h106zM417 -26h5c-5 53 -8 102 -8 161v11c-63 -26 -119 -60 -166 -91z" />
    <glyph glyph-name="bnC_BA" horiz-adv-x="541" 
d="M561 568h-365c13 -23 42 -38 95 -57l43 -15c92 -33 143 -78 143 -165c0 -43 -15 -86 -42 -122v-299l49 -22l-71 -78l-355 166v108c20 17 49 37 82 57c-38 26 -57 67 -57 119v308h-103v92h581v-92zM192 453h-4c0 -11 6 -54 6 -140v-51c0 -29 13 -47 51 -47
c58 0 122 53 122 116c0 35 -19 51 -69 69l-31 10c-41 15 -62 30 -75 43zM336 -43c-5 54 -8 102 -8 162v10c-62 -26 -119 -60 -166 -91l170 -81h4z" />
    <glyph glyph-name="bnCH_BA" horiz-adv-x="605" 
d="M170 568c10 -28 69 -35 120 -58c22 7 49 11 72 11c106 0 191 -69 191 -186c0 -111 -76 -191 -235 -208v-4c35 -9 73 -24 129 -52l129 -62l-70 -81c-23 12 -45 23 -65 33v-128l49 -22l-71 -78l-355 166v108c26 23 69 51 117 78c-42 16 -71 19 -114 24v93h135
c166 0 239 55 239 134c0 50 -26 79 -73 86c1 -7 2 -14 2 -22c0 -82 -69 -156 -168 -156c-88 0 -138 46 -138 117v207h-84v92h645v-92h-455zM271 402c0 44 -73 39 -101 63v-99c0 -18 10 -31 33 -31c41 0 68 32 68 67zM338 -120h5c-4 46 -7 87 -8 135c-14 7 -27 14 -40 20
c-47 -23 -90 -49 -127 -74z" />
    <glyph glyph-name="bnJ_BA" horiz-adv-x="852" 
d="M752 -214l49 -22l-71 -78l-355 167v107c53 45 167 112 270 149v32c0 86 19 161 40 204c-130 11 -211 91 -235 164c-50 -35 -92 -66 -92 -102c0 -20 13 -31 50 -35l105 -11c32 -31 57 -77 57 -130c0 -94 -67 -181 -211 -181c-187 0 -317 162 -337 356l105 36
c12 -160 100 -288 230 -288c73 0 102 31 102 74c0 21 -6 33 -13 41l-84 9c-83 9 -124 45 -124 109c0 81 69 138 130 181h-388v92h892v-92h-339c17 -60 75 -126 200 -126h28l42 -84c-32 -58 -51 -137 -51 -225v-347zM654 -167c-5 54 -9 102 -9 162v11
c-63 -27 -119 -61 -166 -91l170 -82h5z" />
    <glyph glyph-name="bnTT_BA" horiz-adv-x="549" 
d="M3 941l109 19c-2 -10 -3 -20 -3 -29c0 -39 18 -80 103 -80h72c105 0 193 -54 193 -163c0 -9 0 -18 -2 -28h94v-92h-379v-275c0 -37 24 -59 67 -59c71 0 129 52 129 119c0 38 -20 59 -55 59c-17 0 -36 -9 -46 -22l-51 88c21 21 62 39 102 39c89 0 159 -55 159 -166
c0 -43 -14 -84 -38 -118v-304l48 -22l-70 -78l-356 166v108c19 16 45 34 75 53c-49 26 -75 74 -75 135v277h-99v92h384c1 8 2 15 2 21c0 55 -33 74 -103 74h-57c-154 0 -205 80 -205 160c0 8 0 18 2 26zM353 -24h5c-5 54 -8 102 -8 162v10c-62 -26 -119 -59 -166 -90z" />
    <glyph glyph-name="bnNN_BA" horiz-adv-x="618" 
d="M305 369l27 -89c-27 -16 -61 -25 -102 -25c-125 0 -202 85 -202 196c0 123 82 215 221 215c99 0 156 -50 186 -96l5 2c-11 39 -17 88 -17 157v32h108v-101h107v-92h-107v-610l48 -23l-71 -77l-355 166v108c54 44 165 111 268 148v31c0 128 -32 252 -161 252
c-77 0 -119 -48 -119 -112c0 -59 39 -96 102 -96c21 0 43 5 62 14zM427 5h5c-7 56 -11 102 -11 171c-62 -26 -118 -59 -164 -90z" />
    <glyph glyph-name="bnDD_BA" horiz-adv-x="699" 
d="M719 568h-351v-104c0 -30 12 -41 33 -41c31 0 90 35 153 84c46 -28 91 -97 91 -177c0 -86 -38 -154 -106 -194v-255l49 -22l-71 -78l-355 167v107c22 19 55 42 94 65c-135 51 -212 187 -216 343l108 24c3 -200 109 -286 232 -286c95 0 155 48 155 123c0 19 -4 36 -12 51
c-38 -29 -83 -55 -137 -55c-85 0 -132 57 -132 140v108h-274v92h739v-92zM436 -71h4c-5 53 -8 102 -8 161v11c-62 -27 -119 -60 -166 -91z" />
    <glyph glyph-name="bnT_BA" horiz-adv-x="652" 
d="M-20 660h692v-92h-692v92zM113 501c36 -165 112 -311 247 -311c91 0 140 62 140 144c0 58 -24 101 -72 101c-30 0 -51 -19 -51 -51c0 -23 10 -42 35 -57l-70 -62c-44 23 -72 66 -72 121c0 87 65 144 154 144c119 0 179 -93 179 -198c0 -77 -27 -138 -74 -179v-274l49 -22
l-71 -78l-355 166v108c23 19 57 42 96 65c-127 54 -195 197 -227 329zM430 -74c-5 54 -8 102 -8 162v10c-63 -26 -119 -60 -166 -91l170 -81h4z" />
    <glyph glyph-name="bnTH_BA" horiz-adv-x="636" 
d="M166 458l-91 -36c-24 24 -34 54 -34 90c0 92 71 155 172 155c95 0 181 -59 181 -170c0 -75 -43 -146 -163 -174v-4l211 -82h4c-2 23 -5 75 -5 160v364h107v-101h108v-92h-108v-623l49 -21l-71 -78l-415 176v109c28 23 73 53 124 82l-179 70v97c157 4 235 41 235 119
c0 44 -29 74 -76 74c-40 0 -69 -26 -69 -65c0 -22 8 -38 20 -50zM442 -11h5c-4 48 -7 91 -8 143l-82 32c-52 -24 -101 -52 -141 -78z" />
    <glyph glyph-name="bnD_BA" horiz-adv-x="570" 
d="M590 568h-396v-198c52 51 150 112 230 143l86 -52c-28 -77 -39 -179 -39 -267v-265l49 -22l-71 -78l-355 167v107c54 45 169 114 273 150c3 56 12 101 24 132c-71 -43 -127 -86 -201 -165l-107 42v306h-103v92h610v-92zM368 -24h5c-5 54 -8 102 -8 162v10
c-63 -26 -120 -59 -167 -90z" />
    <glyph glyph-name="bnDH_BA" horiz-adv-x="576" 
d="M147 518c0 -42 43 -57 80 -57c52 0 106 26 153 55v144h216v-92h-107v-633l50 -20l-70 -80l-419 164v109c29 24 76 55 128 84l-128 43v103l25 14c44 25 82 38 82 38v5c-68 8 -123 50 -123 127c0 90 64 150 162 150c40 0 84 -11 111 -33l-31 -85c-23 15 -46 20 -67 20
c-36 0 -62 -19 -62 -56zM390 -25c-5 49 -8 95 -8 148l-73 25c-54 -24 -104 -55 -148 -84l225 -89h4zM387 227l3 1c-6 45 -10 100 -10 157v16l-199 -104z" />
    <glyph glyph-name="bnN_BA" horiz-adv-x="562" 
d="M-20 568v92h602v-92h-103v-556l49 -22l-71 -78l-355 166v108c47 39 140 96 232 135c-35 48 -78 84 -130 84c-42 0 -65 -22 -65 -55c0 -23 9 -38 21 -52l-90 -34c-20 22 -34 53 -34 92c0 86 61 147 160 147c83 0 144 -41 180 -97l4 1c-4 22 -9 73 -9 149v12h-391zM376 59
h4c-5 54 -8 102 -8 162v10c-62 -26 -119 -60 -166 -91z" />
    <glyph glyph-name="bnP_BA" horiz-adv-x="645" 
d="M139 520c53 -10 104 -43 132 -101l130 85c-30 41 -72 67 -131 67c-64 0 -108 -30 -131 -51zM63 447l-53 87c46 64 137 134 252 134c117 0 175 -59 205 -105l3 2c-17 41 -21 117 -21 169v27h108v-101h108v-92h-108v-581l49 -23l-71 -77l-355 166v108
c53 45 167 112 270 149v3c0 35 -3 69 -11 100l-290 -193l-54 83l92 60c-15 32 -38 56 -71 69c-16 7 -31 13 -53 15zM454 34h5c-5 54 -9 102 -9 162v10c-63 -26 -119 -60 -166 -91z" />
    <glyph glyph-name="bnB_BA" horiz-adv-x="557" 
d="M448 -185l-395 162v110c51 40 110 77 169 108l-169 69v110c92 73 211 135 309 170v24h-382v92h597v-92h-108v-654l48 -20zM370 -46c-5 54 -8 115 -8 169v15l-16 6c-68 -32 -140 -73 -183 -103l203 -87h4zM370 241c-5 54 -8 115 -8 169v29c-71 -32 -152 -78 -199 -111
l203 -87h4z" />
    <glyph glyph-name="bnM_BA" horiz-adv-x="622" 
d="M-20 660h662v-92h-88c11 -17 22 -43 22 -83c0 -44 -16 -96 -62 -125v-304l49 -22l-71 -77l-364 167v108c44 36 121 85 202 124c-55 25 -90 65 -137 65c-34 0 -53 -21 -53 -50c0 -23 9 -39 21 -53l-91 -33c-19 19 -35 52 -35 93c0 61 28 112 84 133c-4 22 -12 41 -23 57
h-116v92zM411 102h5c-5 54 -8 115 -8 168v13c-68 -28 -126 -64 -176 -98zM406 438c45 0 64 31 64 65c0 35 -21 65 -67 65h-187c6 -16 11 -34 14 -53c77 -19 116 -77 176 -77z" />
    <glyph glyph-name="bnL_BA" horiz-adv-x="745" 
d="M-20 568v92h785v-92h-108v-588l49 -22l-71 -78l-355 167v109c53 45 167 112 270 149v59c-8 21 -34 44 -71 44c-43 0 -73 -32 -73 -86v-34h-104v33c0 58 -32 84 -70 84c-44 0 -75 -34 -75 -92c0 -76 46 -102 101 -109l-35 -95c-110 13 -178 93 -178 204
c0 120 84 192 179 192c75 0 117 -41 130 -75h4c11 41 51 77 107 77c43 0 71 -18 81 -28h4v89h-570zM558 28c-5 53 -8 101 -8 161v11c-63 -27 -119 -61 -166 -91l170 -81h4z" />
    <glyph glyph-name="bnSH_BA" horiz-adv-x="639" 
d="M30 293v94c12 -2 25 -3 38 -3c61 0 92 33 92 92c0 57 -31 92 -99 92h-81v92h87c62 0 110 -19 144 -59c32 39 73 61 130 61c69 0 101 -30 115 -47h4c-5 20 -12 69 -12 112v34h104v-101h107v-92h-107v-609l48 -22l-70 -78l-356 167v108c54 45 167 113 271 150v162
c0 82 -35 121 -96 121c-52 0 -88 -31 -88 -92c0 -58 41 -90 96 -90c10 0 20 1 30 3v-94c-9 -2 -21 -3 -34 -3c-59 0 -109 21 -142 63c-34 -44 -78 -66 -139 -66c-16 0 -31 3 -42 5zM448 6h5c-5 54 -8 102 -8 162v10c-62 -26 -119 -59 -166 -90z" />
    <glyph glyph-name="bnSS_BA" horiz-adv-x="538" 
d="M51 458c0 44 12 81 32 110h-103v92h578v-92h-102c20 -29 32 -66 32 -110c0 -53 -16 -99 -42 -133v-298l49 -22l-71 -77l-364 167v108c25 21 61 44 100 67c-66 32 -109 99 -109 188zM347 73c-5 50 -8 106 -8 157v20c-66 -27 -127 -61 -175 -94l179 -83h4zM158 458
c0 -69 47 -117 111 -117c23 0 44 6 61 17l-163 147c-6 -14 -9 -29 -9 -47zM269 570c-22 0 -41 -5 -58 -15l161 -147c7 15 10 32 10 50c0 67 -47 112 -113 112z" />
    <glyph glyph-name="bnS_BA" horiz-adv-x="667" 
d="M74 494c25 -28 50 -49 83 -49c54 0 76 61 84 123h-261v92h707v-92h-70c4 -20 6 -38 6 -57c0 -65 -27 -116 -77 -143v-302l48 -22l-70 -78l-365 167v108c45 39 124 91 207 131c-30 17 -53 43 -69 77c-24 -59 -70 -98 -140 -98c-52 0 -107 26 -142 73zM517 520
c0 19 -2 36 -7 48h-153c3 -67 35 -124 95 -124c47 0 65 34 65 76zM447 112c-5 54 -9 115 -9 168v16c-65 -29 -125 -66 -175 -101l179 -83h5z" />
    <glyph glyph-name="bnH_BA" horiz-adv-x="505" 
d="M-20 660h545v-92h-545v92zM245 190v-4c32 -8 84 -25 140 -54l123 -62l-65 -72c-14 7 -27 14 -39 21v-130l45 -21l-61 -69l-337 158v95c29 23 74 53 125 81c-40 16 -71 24 -105 26v91h61c123 0 183 40 183 113c0 47 -29 78 -76 78c-37 0 -64 -22 -64 -58
c0 -21 10 -40 34 -52l-75 -53c-45 27 -63 66 -63 109c0 82 63 144 165 144c107 0 182 -65 182 -168c0 -106 -76 -161 -173 -173zM308 -67h4c-4 47 -6 87 -7 138l-24 12c-48 -22 -93 -50 -130 -75z" />
    <glyph glyph-name="bnK_SS_BA" horiz-adv-x="935" 
d="M955 568h-289v-131h22c134 0 199 -72 199 -169c0 -91 -57 -144 -113 -167l-59 83c32 11 67 40 67 85c0 49 -33 67 -88 67h-28v-529l49 -22l-71 -78l-355 167v109c39 32 120 82 198 120c-37 29 -83 49 -134 56c-20 -59 -62 -83 -97 -83c-42 0 -77 27 -77 74
c0 42 33 80 85 96c-7 53 -35 91 -75 112c-20 -50 -59 -72 -93 -72c-42 0 -76 27 -76 75c0 44 31 79 81 93c-6 49 -29 87 -57 114h-64v92h975v-92zM563 -145h4c-4 47 -7 90 -8 142c-2 9 -6 18 -9 27c-52 -24 -115 -61 -157 -88zM565 152c-7 54 -10 127 -11 184h-46
c-115 0 -179 59 -179 180v52h-166c21 -31 37 -72 39 -116c81 -23 154 -95 161 -199c101 -12 176 -64 202 -101zM502 436h52v132h-118v-55c0 -61 28 -77 66 -77z" />
    <glyph glyph-name="bnC_CH_BA" horiz-adv-x="988" 
d="M180 446h-4c0 -3 6 -55 6 -141v-52c0 -29 14 -47 52 -47c58 0 113 54 113 116c0 36 -18 55 -67 72l-24 8c-41 15 -62 30 -76 44zM553 568c10 -28 69 -35 121 -58c21 7 49 11 71 11c106 0 192 -69 192 -186c0 -111 -76 -191 -236 -208v-4c36 -9 74 -24 130 -52l128 -62
l-69 -81c-23 12 -45 23 -65 33v-128l49 -22l-71 -78l-355 166v108c27 23 68 51 117 78c-43 16 -71 19 -114 24v93h134c167 0 240 55 240 134c0 50 -26 79 -73 85c1 -6 2 -13 2 -21c0 -82 -69 -156 -168 -156c-68 0 -113 27 -130 72c-4 -110 -97 -209 -223 -209
c-105 0 -161 59 -161 146v315h-92v92h1028v-92h-455zM655 402c0 44 -73 39 -101 63v-99c0 -18 10 -31 33 -31c41 0 68 32 68 67zM722 -120h4c-4 46 -7 87 -8 135c-14 7 -27 14 -39 20c-47 -23 -90 -49 -127 -74zM316 489c70 -25 115 -58 132 -111v190h-269
c11 -28 41 -45 101 -67z" />
    <glyph glyph-name="bnJ_J_BA" horiz-adv-x="1149" 
d="M697 81c58 0 85 31 85 70c0 19 -5 32 -11 39l-70 6c-74 8 -114 46 -114 102c0 36 16 69 39 98c-103 7 -182 50 -212 111c-49 -33 -85 -64 -85 -97c0 -19 11 -30 42 -33l100 -8c30 -29 52 -71 52 -120c0 -12 -1 -25 -4 -37c36 -78 98 -131 178 -131zM-20 568v92h1189v-92
h-680c26 -62 94 -88 210 -88h134c33 -66 73 -117 198 -117h35l39 -76c-30 -53 -50 -126 -50 -205v-320l45 -21l-60 -70l-319 146v102c39 32 157 104 239 140v29c0 79 21 149 39 186c-100 10 -183 38 -230 124c-35 -23 -74 -55 -74 -84c0 -19 13 -29 42 -32l97 -9
c29 -28 51 -71 51 -120c0 -87 -62 -165 -186 -165c-102 0 -185 51 -240 130c-33 -26 -77 -42 -133 -42c-172 0 -287 150 -305 328l95 33c11 -148 89 -267 208 -267c68 0 96 38 96 78c0 19 -6 30 -11 38l-71 6c-76 7 -116 47 -116 107c0 72 53 128 112 169h-354zM965 -195
c-4 49 -6 92 -6 147c-53 -26 -108 -58 -139 -80l141 -67h4z" />
    <glyph glyph-name="bnT_T_BA" horiz-adv-x="662" 
d="M682 568h-702v92h702v-92zM320 252c93 37 146 78 146 129c0 33 -21 56 -61 56c-57 0 -96 -53 -107 -92l-83 53c24 78 97 133 189 133c107 0 163 -70 163 -153c0 -36 -11 -70 -35 -100c41 -29 74 -72 74 -134c0 -70 -34 -124 -90 -154v-214l49 -22l-71 -78l-355 166v109
c22 18 54 41 92 63c-110 77 -174 228 -210 386l96 41c47 -214 135 -379 278 -379c66 0 105 37 105 86c0 26 -13 52 -37 69c-21 -14 -46 -27 -75 -39zM418 -177c-4 47 -8 90 -9 140h-11c-17 0 -33 1 -49 4c-39 -20 -74 -42 -106 -63l170 -81h5z" />
    <glyph glyph-name="bnS_T_BA" horiz-adv-x="708" 
d="M82 497c25 -28 51 -49 84 -49c54 0 77 58 85 120h-271v92h748v-92h-101c4 -20 6 -38 6 -54c0 -51 -16 -93 -47 -121c35 -36 54 -88 54 -146c0 -85 -34 -152 -91 -193v-231l48 -22l-71 -78l-355 166v109c19 15 44 33 74 52c-77 47 -130 126 -163 211l83 58
c44 -124 121 -215 230 -215c89 0 142 59 142 145c0 55 -25 100 -74 100c-30 0 -54 -21 -54 -53c0 -25 15 -47 39 -57l-67 -62c-45 21 -77 69 -77 126c0 38 14 72 38 96c-14 14 -25 32 -35 53c-24 -59 -70 -98 -141 -98c-52 0 -107 26 -143 73zM527 522c0 17 -2 34 -7 46
h-153c4 -67 35 -122 94 -122c44 0 66 32 66 76zM450 -130c-4 48 -8 91 -9 142c-14 -2 -29 -3 -45 -3c-7 0 -15 0 -22 1c-36 -19 -69 -39 -99 -59l170 -81h5z" />
    <glyph glyph-name="bnD_D_BA" horiz-adv-x="845" 
d="M190 197l-110 42v329h-100v92h885v-92h-671v-208c47 57 136 130 221 162l93 -53c-23 -64 -38 -142 -38 -205v-9c47 57 148 138 233 171l92 -53c-28 -77 -40 -179 -40 -267v-281l49 -22l-71 -78l-363 167v107c54 45 168 113 272 150c3 63 12 111 25 145
c-63 -41 -140 -111 -193 -186l-113 46v37c0 82 11 159 25 198c-65 -42 -140 -115 -196 -192zM644 -125h5c-5 53 -8 101 -8 161v6c-60 -24 -116 -56 -164 -88z" />
    <glyph glyph-name="bnD_DH_BA" horiz-adv-x="748" 
d="M768 568h-580v-167c75 52 148 92 228 117l88 -53c-11 -31 -20 -67 -26 -104c79 32 132 49 145 52l78 -65s-21 -48 -21 -228v-111h-106v112c0 90 9 144 18 175c-28 -11 -71 -28 -126 -52c-1 -15 -1 -31 -1 -46v-412l49 -23l-66 -73l-349 161v102c33 22 66 43 100 62
l-100 46v103c97 61 188 109 266 147c5 36 11 66 20 89c-71 -35 -126 -71 -196 -119l-112 43v244h-97v92h788v-92zM362 -167h4c-3 36 -6 71 -7 108l-48 23c-35 -18 -70 -38 -103 -58zM362 46h4c-4 46 -7 100 -8 148c-45 -23 -95 -49 -149 -78z" />
    <glyph glyph-name="bnN_DH_BA" horiz-adv-x="769" 
d="M-20 568v92h809v-92h-310v-191c86 36 144 54 158 57l78 -65s-21 -48 -21 -228v-111h-106v112c0 90 9 144 19 175c-29 -11 -73 -28 -128 -52v-458l49 -23l-66 -73l-349 161v102c33 22 66 43 100 62l-100 46v103c81 51 158 93 227 128c-37 52 -81 92 -136 92
c-42 0 -65 -22 -65 -55c0 -23 9 -38 21 -52l-90 -34c-20 22 -34 53 -34 92c0 86 61 147 160 147c83 0 144 -41 180 -97l4 1c-4 22 -9 73 -9 149v12h-391zM376 -146h4c-3 36 -6 71 -7 109l-46 21c-33 -17 -74 -39 -106 -57zM376 67h4c-4 46 -7 100 -8 148
c-45 -23 -95 -48 -148 -78z" />
    <glyph glyph-name="bnN_T_BA" horiz-adv-x="667" 
d="M419 -143h4c-4 47 -7 89 -8 139c-16 -3 -33 -4 -51 -4c-8 0 -16 0 -24 1c-33 -18 -64 -36 -91 -54zM-20 660h707v-92h-115c12 -17 24 -44 24 -83c0 -38 -11 -79 -41 -109c35 -35 54 -87 54 -146c0 -83 -32 -149 -87 -190v-230l49 -22l-71 -78l-355 167v108
c17 15 40 32 68 49c-66 40 -115 104 -149 172l82 60c45 -101 122 -178 217 -178c89 0 142 58 142 144c0 56 -24 100 -73 100c-30 0 -54 -21 -54 -53c0 -25 14 -47 38 -57l-67 -62c-45 21 -76 69 -76 126c0 36 12 68 34 92c-36 22 -66 45 -101 45c-34 0 -53 -20 -53 -49
c0 -23 11 -39 24 -52l-87 -39c-22 19 -42 54 -42 98c0 80 49 143 146 143c110 0 159 -86 230 -86c45 0 64 29 64 65c0 35 -21 65 -66 65h-442v92z" />
    <glyph glyph-name="bnN_D_BA" horiz-adv-x="849" 
d="M-20 568v92h889v-92h-388v-220c49 53 148 120 227 151l88 -53c-28 -77 -39 -179 -39 -267v-268l49 -23l-71 -78l-355 167v108c54 45 169 113 273 150c3 57 13 103 24 135c-72 -44 -131 -95 -201 -174l-107 42c-38 77 -86 163 -166 163c-42 0 -65 -23 -65 -55
c0 -23 9 -39 21 -53l-90 -34c-20 22 -34 53 -34 92c0 86 61 147 160 147c83 0 143 -43 177 -97l4 1c-4 22 -9 73 -9 149v17h-387zM654 -42h4c-5 53 -8 102 -8 161v11c-63 -27 -119 -61 -166 -91z" />
    </font>
</defs>
</svg>
