<?xml version="1.0" standalone="no"?>
<!DOCTYPE svg PUBLIC "-//W3C//DTD SVG 1.1//EN" "http://www.w3.org/Graphics/SVG/1.1/DTD/svg11.dtd" >
<svg xmlns="http://www.w3.org/2000/svg" xmlns:xlink="http://www.w3.org/1999/xlink" version="1.1">
<metadata>
Created by FontForge 20170910 at Wed Feb 28 16:53:46 2018
 By Jimmy Wärting
Copyright 2015 Indian Type Foundry. All rights reserved.
</metadata>
<defs>
<font id="KohinoorBangla-Regular" horiz-adv-x="0" >
  <font-face 
    font-family="Kohinoor Bangla"
    font-weight="400"
    font-stretch="normal"
    units-per-em="1000"
    panose-1="2 0 0 0 0 0 0 0 0 0"
    ascent="800"
    descent="-200"
    x-height="544"
    cap-height="701"
    bbox="-546 -379 1448 1119"
    underline-thickness="50"
    underline-position="-100"
    stemh="64"
    stemv="73"
    unicode-range="U+000D-FB02"
  />
<missing-glyph horiz-adv-x="500" 
d="M0 0v700h500v-700h-500zM250 395l170 255h-340zM280 350l170 -255v510zM80 50h340l-170 255zM50 605v-510l170 255z" />
    <glyph glyph-name="fi" unicode="fi" horiz-adv-x="596" 
d="M497 736l-21 -62c-24 10 -83 27 -159 27c-89 0 -120 -31 -120 -96v-61h316v-544h-78v483h-239v-483h-78v483h-90v61h91v61c0 102 65 162 206 162c74 0 144 -16 172 -31z" />
    <glyph glyph-name="fl" unicode="fl" horiz-adv-x="635" 
d="M513 726v-597c0 -48 16 -69 56 -69c21 0 36 6 46 11v-66c-20 -9 -47 -12 -68 -12c-75 0 -112 44 -112 115v578c-31 10 -67 15 -118 15c-89 0 -120 -31 -120 -96v-61h126v-61h-127v-483h-78v483h-90v61h91v61c0 102 65 162 206 162c89 0 158 -22 188 -41z" />
    <glyph glyph-name="f_f" unicode="ff" horiz-adv-x="676" 
d="M436 544v82c0 20 3 39 9 56c-29 9 -72 19 -128 19c-89 0 -120 -31 -120 -96v-61h239zM675 756l-16 -66c-20 7 -42 10 -73 10c-52 0 -72 -24 -72 -73v-83h141v-61h-142v-483h-78v483h-239v-483h-78v483h-90v61h91v61c0 102 65 162 206 162c67 0 132 -16 160 -29
c25 19 61 30 107 30c37 0 62 -5 83 -12z" />
    <glyph glyph-name="f_f_i" unicode="ffi" horiz-adv-x="913" 
d="M436 544v61c0 28 5 52 15 74c-29 11 -70 22 -134 22c-89 0 -120 -31 -120 -96v-61h239zM814 736l-21 -62c-23 10 -83 27 -159 27c-89 0 -120 -31 -120 -96v-61h316v-544h-77v483h-240v-483h-78v483h-239v-483h-78v483h-90v61h91v61c0 102 65 162 206 162
c69 0 137 -17 170 -36c34 23 82 36 147 36c74 0 144 -16 172 -31z" />
    <glyph glyph-name="f_f_l" unicode="ffl" horiz-adv-x="952" 
d="M436 544v61c0 28 5 52 15 74c-29 11 -70 22 -134 22c-89 0 -120 -31 -120 -96v-61h239zM830 726v-597c0 -48 16 -69 57 -69c20 0 35 6 45 11v-66c-19 -9 -47 -12 -68 -12c-75 0 -111 44 -111 115v578c-31 10 -68 15 -119 15c-88 0 -120 -31 -120 -96v-61h126v-61h-127
v-483h-78v483h-239v-483h-78v483h-90v61h91v61c0 102 65 162 206 162c69 0 137 -17 170 -36c34 23 82 36 147 36c89 0 158 -22 188 -41z" />
    <glyph glyph-name=".notdef" horiz-adv-x="500" 
d="M0 0v700h500v-700h-500zM250 395l170 255h-340zM280 350l170 -255v510zM80 50h340l-170 255zM50 605v-510l170 255z" />
    <glyph glyph-name="NULL" 
 />
    <glyph glyph-name="NULL" 
 />
    <glyph glyph-name="CR" unicode="&#xd;" horiz-adv-x="288" 
 />
    <glyph glyph-name="space" unicode=" " horiz-adv-x="288" 
 />
    <glyph glyph-name="bnA" unicode="&#x985;" horiz-adv-x="893" 
d="M-20 578v64h933v-64h-119v-519l38 -27l-55 -45l-231 171c-41 -40 -99 -65 -170 -65c-197 0 -305 161 -349 382l67 30c37 -195 121 -347 282 -347c101 0 160 71 160 163c0 81 -40 126 -100 126c-47 0 -78 -27 -78 -76c0 -27 14 -54 43 -70l-53 -39c-41 22 -64 67 -64 114
c0 77 55 140 150 140c103 0 175 -83 175 -196c0 -39 -9 -76 -24 -107l138 -105l4 1c-5 67 -6 135 -6 199v270h-741z" />
    <glyph glyph-name="bnAA" unicode="&#x986;" horiz-adv-x="1167" 
d="M994 712v29h72v-99h120v-64h-120v-578h-73v495c0 57 -27 83 -80 83h-119v-519l38 -27l-55 -45l-231 171c-41 -40 -99 -65 -170 -65c-197 0 -305 161 -349 382l67 30c37 -195 121 -347 282 -347c101 0 160 71 160 163c0 81 -40 126 -100 126c-47 0 -78 -27 -78 -76
c0 -27 14 -54 43 -70l-53 -39c-41 22 -64 67 -64 114c0 77 55 140 150 140c103 0 175 -83 175 -196c0 -39 -9 -76 -24 -107l138 -105l4 1c-5 67 -6 135 -6 199v270h-741v64h945c50 0 70 -24 78 -35h5c-3 8 -14 48 -14 105z" />
    <glyph glyph-name="bnI" unicode="&#x987;" horiz-adv-x="494" 
d="M71 365c0 87 66 151 166 151c108 0 183 -72 183 -176c0 -113 -77 -180 -198 -194v-4c30 -8 78 -34 140 -72l106 -64l-51 -49c-239 144 -265 162 -348 173v63h65c158 0 214 68 214 150c0 62 -44 105 -110 105c-57 0 -94 -34 -94 -86c0 -30 16 -55 43 -72l-53 -40
c-41 25 -63 68 -63 115zM19 920l69 15c-1 -11 -3 -24 -3 -35c0 -37 15 -73 96 -73h64c99 0 174 -47 174 -140c0 -13 -2 -29 -4 -45h99v-64h-534v64h362c3 14 4 31 4 40c0 57 -34 80 -112 80h-58c-125 0 -159 63 -159 128c0 10 0 20 2 30z" />
    <glyph glyph-name="bnII" unicode="&#x988;" horiz-adv-x="658" 
d="M65 383c0 78 58 132 148 132c100 0 153 -68 164 -168l168 150l63 -35c-38 -72 -59 -166 -59 -286c0 -47 7 -115 20 -177h-70c-14 53 -21 123 -21 175c0 90 12 154 32 204l-132 -120c-12 -100 -62 -190 -172 -190c-86 0 -139 58 -156 102l56 39c15 -35 46 -74 101 -74
c77 0 104 79 104 167c0 73 -19 149 -97 149c-48 0 -78 -29 -78 -71c0 -31 14 -52 32 -64l-52 -37c-30 18 -51 56 -51 104zM678 578h-698v64h523c3 14 4 31 4 40c0 57 -34 80 -112 80h-171c-125 0 -161 64 -161 129c0 10 0 19 2 29l70 15c-2 -11 -3 -22 -3 -33
c0 -37 16 -75 98 -75h176c99 0 174 -47 174 -140c0 -13 -2 -29 -5 -45h103v-64z" />
    <glyph glyph-name="bnU" unicode="&#x989;" horiz-adv-x="668" 
d="M34 920l70 15c-2 -11 -3 -22 -3 -33c0 -37 16 -75 98 -75h222c99 0 174 -47 174 -140c0 -13 -2 -29 -5 -45h86v-64h-352v-158c0 -34 13 -55 47 -55c31 0 100 21 171 87c33 -22 75 -81 75 -156c0 -138 -100 -235 -257 -235c-201 0 -313 166 -322 358l70 15
c7 -191 109 -305 253 -305c110 0 184 66 184 165c0 28 -7 52 -17 65c-48 -40 -108 -62 -162 -62c-73 0 -116 51 -116 119v162h-258v64h526c2 14 4 30 4 40c0 57 -34 80 -112 80h-216c-126 0 -162 64 -162 129c0 10 0 19 2 29z" />
    <glyph glyph-name="bnUU" unicode="&#x98a;" horiz-adv-x="683" 
d="M50 920l69 15c-1 -11 -3 -22 -3 -33c0 -37 16 -75 98 -75h231c99 0 173 -47 173 -140c0 -13 -1 -29 -4 -45h89v-64h-354v-151c0 -35 16 -55 53 -55c29 0 76 14 155 85c39 -31 75 -86 75 -167c0 -134 -93 -231 -249 -231c-244 0 -345 181 -353 319l53 14
c4 -88 39 -210 167 -266l4 4c-85 48 -143 170 -131 319l58 12c-19 -178 46 -335 204 -335c114 0 176 70 176 163c0 32 -6 59 -17 76c-45 -37 -95 -61 -148 -61c-78 0 -121 50 -121 120v154h-295v64h561c3 14 5 30 5 40c0 57 -35 80 -112 80h-225c-125 0 -161 64 -161 129
c0 10 0 19 2 29z" />
    <glyph glyph-name="bnvR" unicode="&#x98b;" horiz-adv-x="752" 
d="M360 106h4c-5 68 -7 130 -7 195v93c-88 -23 -181 -84 -230 -136zM595 741h72v-99h105v-64h-105v-415l-68 -35l-171 117v-181l42 -27l-51 -50l-366 236v69c71 72 193 149 312 178v4c-33 28 -66 55 -94 80c-36 -70 -89 -100 -152 -100c-80 0 -126 51 -126 113
c0 29 7 57 17 75h73c-9 -17 -20 -43 -20 -68c0 -33 21 -56 59 -56c47 0 88 25 120 126h28c31 -26 63 -54 92 -81c-1 8 -5 42 -5 126v52h71v-412l172 -119l3 2c-3 18 -8 66 -8 152v377z" />
    <glyph glyph-name="bnvRR" unicode="&#x9e0;" horiz-adv-x="752" 
d="M360 106h4c-5 68 -7 130 -7 195v93c-88 -23 -181 -84 -230 -136zM595 741h72v-99h105v-64h-105v-415l-68 -35l-171 117v-181l42 -27l-51 -50l-116 75l-69 -67l201 -131l-49 -49l-259 166l120 117l-194 125v69c71 72 193 149 312 178v4c-33 28 -66 55 -94 80
c-36 -70 -89 -100 -152 -100c-80 0 -126 51 -126 113c0 29 7 57 17 75h73c-9 -17 -20 -43 -20 -68c0 -33 21 -56 59 -56c47 0 88 25 120 126h28c31 -26 63 -54 92 -81c-1 8 -5 42 -5 126v52h71v-412l172 -119l3 2c-3 18 -8 66 -8 152v377z" />
    <glyph glyph-name="bnvL" unicode="&#x98c;" horiz-adv-x="614" 
d="M137 691c0 15 4 31 5 34l72 13c-2 -7 -5 -14 -5 -34c0 -200 350 -113 350 -442c0 -164 -119 -261 -286 -265l-40 52c55 58 79 121 79 191c0 66 -34 107 -96 107c-57 0 -96 -29 -96 -87c0 -53 39 -77 84 -84l-22 -63c-73 13 -134 60 -134 147c0 107 76 155 166 155
c97 0 167 -73 167 -174c0 -65 -15 -118 -48 -170c103 22 153 95 153 193c0 268 -349 180 -349 427z" />
    <glyph glyph-name="bnvLL" unicode="&#x9e1;" horiz-adv-x="614" 
d="M486 264c0 268 -349 180 -349 427c0 15 4 31 5 34l72 13c-2 -7 -5 -14 -5 -34c0 -200 350 -113 350 -442c0 -164 -119 -261 -286 -265l-40 52c55 58 79 121 79 191c0 66 -34 107 -96 107c-57 0 -96 -29 -96 -87c0 -53 39 -77 84 -84l-22 -63c-73 13 -134 60 -134 147
c0 107 76 155 166 155c97 0 167 -73 167 -174c0 -65 -15 -118 -48 -170c103 22 153 95 153 193zM513 -2c0 24 9 45 25 65l50 -25c-10 -13 -14 -25 -14 -39c0 -50 51 -82 51 -158c0 -101 -73 -151 -189 -151c-24 0 -44 2 -68 8l-7 55c59 8 100 36 100 90c0 25 -11 46 -43 46
c-24 0 -39 -16 -39 -39c0 -12 5 -28 15 -38l-44 -26c-19 20 -29 45 -29 67c0 57 41 94 94 94c67 0 103 -47 103 -102c0 -39 -13 -71 -44 -96c53 7 91 32 91 94c0 67 -52 97 -52 155z" />
    <glyph glyph-name="bnE" unicode="&#x98f;" horiz-adv-x="707" 
d="M490 584c33 0 45 -16 45 -43v-219c0 -139 3 -186 6 -207h-4c-24 22 -58 34 -131 34c-32 0 -81 -3 -122 -3c-113 0 -155 44 -155 99c0 28 8 56 29 79l-70 29c-18 -24 -33 -61 -33 -107c0 -98 78 -167 217 -167c34 0 95 3 125 3c100 0 139 -29 144 -82h66v540
c0 70 -40 112 -114 112c-134 0 -259 -141 -259 -249c0 -74 49 -125 132 -125c36 0 72 12 97 31l-29 58c-10 -9 -34 -23 -65 -23c-40 0 -61 20 -61 60c0 75 98 180 182 180z" />
    <glyph glyph-name="bnAI" unicode="&#x990;" horiz-adv-x="758" 
d="M541 0c-5 53 -44 82 -144 82c-30 0 -91 -3 -125 -3c-139 0 -217 69 -217 167c0 46 15 83 33 107l70 -29c-21 -23 -29 -51 -29 -79c0 -55 42 -99 155 -99c41 0 90 3 122 3c73 0 107 -12 131 -34h4c-3 21 -6 68 -6 207v219c0 27 -12 43 -45 43c-84 0 -182 -105 -182 -180
c0 -40 21 -60 61 -60c31 0 55 14 65 23l29 -58c-25 -19 -61 -31 -97 -31c-83 0 -132 51 -132 125c0 108 125 249 259 249c74 0 114 -42 114 -112v-52c50 8 95 42 95 103c0 66 -57 104 -128 126l-202 62c-101 32 -162 91 -162 175c0 37 16 67 31 84l68 -25
c-14 -15 -24 -37 -24 -61c0 -51 34 -85 136 -118l161 -50c129 -41 194 -104 194 -194c0 -85 -66 -159 -169 -168v-422h-66z" />
    <glyph glyph-name="bnO" unicode="&#x993;" horiz-adv-x="601" 
d="M156 576c39 42 92 75 166 75c93 0 170 -62 170 -155c0 -56 -22 -99 -58 -131c57 -35 107 -91 107 -171c0 -96 -67 -177 -190 -177c-170 0 -282 187 -327 350l66 27c41 -164 140 -308 261 -308c77 0 116 51 116 110c0 63 -45 103 -94 129c-23 -11 -48 -19 -74 -25l-36 62
c92 16 156 58 156 134c0 54 -38 89 -96 89c-50 0 -87 -28 -115 -59z" />
    <glyph glyph-name="bnAU" unicode="&#x994;" horiz-adv-x="711" 
d="M608 568c0 173 -321 183 -321 381c0 31 9 53 22 73l71 -25c-12 -15 -18 -32 -18 -53c0 -140 319 -161 319 -379c0 -133 -109 -195 -222 -195h-19c-2 -2 -4 -4 -6 -5c57 -35 107 -91 107 -171c0 -96 -67 -177 -190 -177c-170 0 -282 187 -327 350l66 27
c41 -164 140 -308 261 -308c77 0 116 51 116 110c0 63 -45 103 -94 129c-23 -11 -48 -19 -74 -25l-36 62c92 16 156 58 156 134c0 54 -38 89 -96 89c-50 0 -87 -28 -115 -59l-52 50c39 42 92 75 166 75c93 0 170 -62 170 -155c0 -25 -4 -47 -12 -67c74 11 128 58 128 139z
" />
    <glyph glyph-name="bnmAA" unicode="&#x9be;" horiz-adv-x="273" 
d="M101 712v29h72v-99h120v-64h-120v-578h-73v495c0 57 -27 83 -80 83h-40v64h52c50 0 70 -24 78 -35h5c-3 8 -14 48 -14 105z" />
    <glyph glyph-name="bnmI" unicode="&#x9bf;" horiz-adv-x="273" 
d="M640 753l44 52c-65 59 -194 135 -347 135c-152 0 -237 -102 -237 -214v-84h-120v-64h120v-578h73v578h120v64h-120v75c0 83 55 155 165 155c123 0 232 -57 302 -119z" />
    <glyph glyph-name="bnmII" unicode="&#x9c0;" horiz-adv-x="273" 
d="M-110 803l11 -5v-156h-68v80c-33 -11 -80 -21 -129 -21c-121 0 -190 55 -190 129c0 85 81 144 227 144c253 0 416 -132 431 -332h120v-64h-119v-578h-73v578h-120v64h118c-12 174 -157 268 -351 268c-113 0 -159 -33 -159 -79c0 -32 24 -68 122 -68c75 0 135 21 180 40z
" />
    <glyph glyph-name="bnmU" unicode="&#x9c1;" 
d="M-272 -261c67 0 99 56 99 131v12c-33 18 -66 28 -100 28c-60 0 -92 -38 -92 -88c0 -48 39 -83 93 -83zM27 -306c-40 50 -84 100 -130 139c-12 -94 -68 -155 -170 -155c-100 0 -162 63 -162 144c0 89 67 149 157 149c37 0 72 -8 105 -22v82h73v-123
c68 -47 128 -114 179 -174z" />
    <glyph glyph-name="bnmUU" unicode="&#x9c2;" 
d="M-62 -255c26 -21 71 -58 93 -86l50 41c-46 48 -107 105 -156 133c-32 -55 -76 -93 -144 -93c-55 0 -92 36 -92 85c0 48 35 89 105 89c43 0 84 -10 106 -18v135h-73v-61c-7 1 -28 4 -52 4c-91 -3 -156 -67 -156 -149c0 -81 61 -145 161 -145c79 0 124 29 158 65z" />
    <glyph glyph-name="bnmvR" unicode="&#x9c3;" 
d="M-100 0l-61 34l-163 -167l311 -156l45 51l-243 122z" />
    <glyph glyph-name="bnmvRR" unicode="&#x9c4;" 
d="M6 -19l-124 -122l171 -106l46 44l-117 72l79 79zM-232 -46l-153 -147l246 -153l50 47l-186 118l98 97z" />
    <glyph glyph-name="bnmvL" unicode="&#x9e2;" 
d="M-64 -71c0 24 9 45 25 65l50 -25c-10 -13 -13 -26 -13 -39c0 -50 50 -83 50 -158c0 -101 -73 -151 -188 -151c-25 0 -45 2 -69 8l-7 54c60 9 101 36 101 91c0 25 -11 46 -43 46c-25 0 -40 -16 -40 -39c0 -12 5 -28 15 -38l-44 -26c-19 20 -28 44 -28 67c0 57 40 94 94 94
c66 0 103 -48 103 -102c0 -39 -13 -71 -45 -97c53 7 91 33 91 95c0 66 -52 97 -52 155z" />
    <glyph glyph-name="bnmvLL" unicode="&#x9e3;" 
d="M-64 -71c0 24 9 45 25 65l50 -25c-10 -13 -13 -26 -13 -39c0 -28 15 -50 29 -77c14 14 34 26 61 26c50 0 80 -39 80 -80c0 -24 -7 -43 -21 -58c35 8 56 32 56 66c0 50 -39 73 -39 117c0 17 7 34 19 49l37 -20c-7 -9 -10 -19 -10 -29c0 -37 39 -62 39 -118
c0 -63 -41 -109 -135 -109c-16 0 -23 0 -35 1v4h-1l-3 36c24 7 50 26 50 62c0 22 -13 36 -37 36c-18 0 -34 -10 -45 -25c3 -12 5 -25 5 -39c0 -101 -73 -151 -188 -151c-25 0 -45 2 -69 8l-7 54c60 9 101 36 101 91c0 25 -11 46 -43 46c-25 0 -40 -16 -40 -39
c0 -12 5 -28 15 -38l-44 -26c-19 20 -28 44 -28 67c0 57 40 94 94 94c66 0 103 -48 103 -102c0 -39 -13 -71 -45 -97c53 7 91 33 91 95c0 66 -52 97 -52 155z" />
    <glyph glyph-name="bnmE" unicode="&#x9c7;" horiz-adv-x="271" 
d="M260 46l-37 -59c-111 43 -170 160 -170 306c0 104 33 211 77 285h-150v64h311v-64h-78c-53 -68 -87 -180 -87 -285c0 -118 42 -205 134 -247z" />
    <glyph glyph-name="bnmAI" unicode="&#x9c8;" horiz-adv-x="271" 
d="M-63 935c-1 -11 -3 -22 -3 -33c0 -37 22 -66 126 -79c111 -12 178 -56 178 -142c0 -12 -1 -25 -4 -39h57v-64h-78c-53 -68 -87 -180 -87 -285c0 -118 42 -205 134 -247l-37 -59c-111 43 -170 160 -170 306c0 104 33 211 77 285h-150v64h181c3 13 5 25 5 35
c0 52 -39 71 -115 80c-144 17 -188 69 -188 134c0 10 0 19 2 29z" />
    <glyph glyph-name="bnmO" unicode="&#x9cb;" horiz-adv-x="1204" 
d="M260 46l-37 -59c-111 43 -170 160 -170 306c0 104 33 211 77 285h-150v64h311v-64h-78c-53 -68 -87 -180 -87 -285c0 -118 42 -205 134 -247zM410 517c0 25 18 44 44 44s44 -19 44 -44c0 -26 -18 -45 -44 -45s-44 19 -44 45zM328 407c0 25 20 44 46 44
c24 0 44 -19 44 -44s-20 -44 -44 -44c-26 0 -46 19 -46 44zM315 281c0 26 19 45 44 45c26 0 44 -19 44 -45c0 -25 -18 -43 -44 -43c-25 0 -44 18 -44 43zM367 165c0 25 18 44 44 44c25 0 44 -19 44 -44c0 -26 -19 -44 -44 -44c-26 0 -44 18 -44 44zM468 90c0 24 19 44 45 44
c25 0 44 -20 44 -44c0 -26 -19 -46 -44 -46c-26 0 -45 20 -45 46zM595 74c0 26 18 44 44 44s45 -18 45 -44s-19 -44 -45 -44s-44 18 -44 44zM716 127c0 25 19 44 44 44s45 -19 45 -44c0 -26 -20 -44 -45 -44s-44 18 -44 44zM789 225c0 26 19 45 45 45c24 0 43 -19 43 -45
c0 -25 -19 -44 -43 -44c-26 0 -45 19 -45 44zM799 359c0 26 18 44 44 44c25 0 44 -18 44 -44s-19 -44 -44 -44c-26 0 -44 18 -44 44zM749 477c0 26 19 45 44 45c26 0 44 -19 44 -45c0 -25 -18 -44 -44 -44c-25 0 -44 19 -44 44zM654 545c0 26 19 45 45 45
c25 0 43 -19 43 -45c0 -24 -18 -44 -43 -44c-26 0 -45 20 -45 44zM528 560c0 26 18 44 44 44s44 -18 44 -44s-18 -44 -44 -44s-44 18 -44 44zM1032 712v29h72v-99h120v-64h-120v-578h-73v495c0 57 -27 83 -80 83h-40v64h52c50 0 70 -24 78 -35h5c-3 8 -14 48 -14 105z" />
    <glyph glyph-name="bnmAU" unicode="&#x9cc;" horiz-adv-x="1204" 
d="M260 46l-37 -59c-111 43 -170 160 -170 306c0 104 33 211 77 285h-150v64h311v-64h-78c-53 -68 -87 -180 -87 -285c0 -118 42 -205 134 -247zM410 517c0 25 18 44 44 44s44 -19 44 -44c0 -26 -18 -45 -44 -45s-44 19 -44 45zM328 407c0 25 20 44 46 44
c24 0 44 -19 44 -44s-20 -44 -44 -44c-26 0 -46 19 -46 44zM315 281c0 26 19 45 44 45c26 0 44 -19 44 -45c0 -25 -18 -43 -44 -43c-25 0 -44 18 -44 43zM367 165c0 25 18 44 44 44c25 0 44 -19 44 -44c0 -26 -19 -44 -44 -44c-26 0 -44 18 -44 44zM468 90c0 24 19 44 45 44
c25 0 44 -20 44 -44c0 -26 -19 -46 -44 -46c-26 0 -45 20 -45 46zM595 74c0 26 18 44 44 44s45 -18 45 -44s-19 -44 -45 -44s-44 18 -44 44zM716 127c0 25 19 44 44 44s45 -19 45 -44c0 -26 -20 -44 -45 -44s-44 18 -44 44zM789 225c0 26 19 45 45 45c24 0 43 -19 43 -45
c0 -25 -19 -44 -43 -44c-26 0 -45 19 -45 44zM799 359c0 26 18 44 44 44c25 0 44 -18 44 -44s-19 -44 -44 -44c-26 0 -44 18 -44 44zM749 477c0 26 19 45 44 45c26 0 44 -19 44 -45c0 -25 -18 -44 -44 -44c-25 0 -44 19 -44 44zM654 545c0 26 19 45 45 45
c25 0 43 -19 43 -45c0 -24 -18 -44 -43 -44c-26 0 -45 20 -45 44zM528 560c0 26 18 44 44 44s44 -18 44 -44s-18 -44 -44 -44s-44 18 -44 44zM1031 673v-31h-120v-64h120v-578h73v578h120v64h-120v35c0 96 -77 152 -179 152h-52c-82 0 -98 38 -98 75c0 11 2 22 3 33l-70 -15
c-2 -9 -2 -19 -2 -29c0 -65 37 -129 162 -129h48c81 0 115 -32 115 -91z" />
    <glyph glyph-name="bnAUlengthmark" unicode="&#x9d7;" horiz-adv-x="273" 
d="M100 673v-31h-120v-64h120v-578h73v578h120v64h-120v35c0 96 -77 152 -179 152h-52c-82 0 -98 38 -98 75c0 11 2 22 3 33l-70 -15c-2 -9 -2 -19 -2 -29c0 -65 37 -129 162 -129h48c81 0 115 -32 115 -91z" />
    <glyph glyph-name="bnKA" unicode="&#x995;" horiz-adv-x="691" 
d="M489 174l51 -53c57 31 101 93 101 171c0 98 -81 191 -226 194v92h296v64h-731v-64h363v-96c-107 -15 -208 -69 -292 -141v-64l348 -287l57 44l-41 33v351c100 -2 154 -55 154 -125c0 -55 -37 -101 -80 -119zM124 307c56 46 135 93 219 105v-91c0 -63 1 -129 7 -201h-4z
" />
    <glyph glyph-name="bnKHA" unicode="&#x996;" horiz-adv-x="657" 
d="M485 315v426h73v-99h119v-64h-119v-516l43 -22l-48 -53l-508 255v71c180 13 262 77 262 166c0 32 -13 56 -32 73c-32 -71 -88 -107 -150 -107c-79 0 -129 50 -129 115c0 34 11 64 21 82h75c-12 -20 -23 -49 -23 -79s18 -53 59 -53c47 0 85 32 119 132h33
c60 -43 96 -99 96 -163c0 -115 -82 -184 -217 -211v-4l328 -168l4 1c-5 77 -6 144 -6 218z" />
    <glyph glyph-name="bnGA" unicode="&#x997;" horiz-adv-x="632" 
d="M458 741h74v-99h120v-64h-120v-578h-73v370c0 105 -74 203 -194 203c-85 0 -140 -55 -163 -97c24 12 63 19 91 19c77 0 144 -49 144 -139c0 -84 -62 -161 -147 -213l-57 53c77 44 129 101 129 162c0 53 -38 77 -87 77c-35 0 -72 -9 -102 -25l-52 53
c29 98 126 179 240 179c129 0 190 -78 209 -111h4c-4 9 -16 74 -16 156v54z" />
    <glyph glyph-name="bnGHA" unicode="&#x998;" horiz-adv-x="624" 
d="M522 -13l-456 221v66l57 35c50 32 78 41 86 45v4c-99 9 -148 60 -148 132c0 34 12 66 31 88h-112v64h664v-64h-120v-515l43 -21zM458 96c-6 67 -8 139 -8 202v280h-273c-27 -22 -43 -54 -43 -87c0 -52 42 -85 106 -85c40 0 67 11 103 32l31 -59l-224 -134l304 -149h4z
" />
    <glyph glyph-name="bnNGA" unicode="&#x999;" horiz-adv-x="687" 
d="M324 494v-37c20 -8 42 -13 66 -13c55 0 83 27 83 72c0 35 -27 67 -76 67c-48 0 -73 -30 -73 -89zM377 -1c-200 0 -328 165 -333 346l70 14c5 -190 129 -290 264 -290c118 0 189 77 189 158c0 26 -3 47 -15 65c-58 -41 -112 -67 -174 -67c-78 0 -125 50 -125 124v76
c-58 39 -101 98 -125 153h-148v64h198c12 -43 38 -97 78 -138c3 93 58 141 140 141c83 0 146 -58 146 -131c0 -85 -64 -132 -151 -132c-24 0 -46 3 -67 10v-41c0 -39 17 -58 56 -58c52 0 115 35 185 94c36 -25 74 -81 74 -157c0 -124 -101 -231 -262 -231z" />
    <glyph glyph-name="bnCA" unicode="&#x99a;" horiz-adv-x="525" 
d="M338 410l-82 31c-53 20 -88 53 -88 110v27h377v64h-565v-64h119v-454c0 -76 50 -125 135 -125c127 0 239 127 239 249c0 83 -48 130 -135 162zM166 421h4c11 -13 34 -36 78 -52l65 -24c69 -25 86 -57 86 -96c0 -96 -95 -183 -164 -183c-45 0 -64 24 -64 60v138
c0 94 -3 148 -5 157z" />
    <glyph glyph-name="bnCHA" unicode="&#x99b;" horiz-adv-x="595" 
d="M138 578c17 -36 87 -46 143 -73c21 5 44 8 64 8c102 0 184 -69 184 -175c0 -127 -90 -199 -272 -207v-4c26 -7 67 -24 136 -60l157 -82l-48 -54c-315 173 -350 184 -425 192v63h116c180 0 264 56 264 152c0 70 -49 106 -111 110c6 -13 9 -27 9 -44
c0 -77 -64 -151 -158 -151c-78 0 -121 47 -121 112v213h-96v64h635v-64h-477zM287 405c0 60 -94 52 -141 92v-131c0 -29 15 -50 52 -50c53 0 89 44 89 89z" />
    <glyph glyph-name="bnJA" unicode="&#x99c;" horiz-adv-x="796" 
d="M105 437l-70 -20c6 -196 132 -364 308 -364c124 0 194 81 194 173c0 42 -19 87 -49 112l-119 3c-32 1 -55 13 -55 44c0 47 50 93 130 144c17 -86 102 -171 224 -175c-7 -12 -46 -88 -46 -193v-164h73v161c0 94 29 163 54 208l-33 52h-20c-139 0 -185 88 -197 160h317v64
h-836v-64h424c-91 -54 -167 -122 -167 -197c0 -68 51 -102 121 -104l88 -2c9 -12 16 -29 16 -52c0 -51 -39 -99 -120 -99c-137 0 -234 141 -237 313z" />
    <glyph glyph-name="bnJHA" unicode="&#x99d;" horiz-adv-x="769" 
d="M361 109h4c-6 67 -7 136 -7 201v105c-90 -27 -186 -90 -236 -142zM596 741h73v-99h120v-64h-120v-414l-68 -34l-171 117v-182l41 -28l-51 -50l-372 251v67c62 63 180 149 310 183v90h-378v64h450v-312l170 -117h4c-6 66 -8 136 -8 201v327z" />
    <glyph glyph-name="bnNYA" unicode="&#x99e;" horiz-adv-x="948" 
d="M474 644c71 0 107 -38 118 -80c15 30 64 82 145 82c83 0 138 -52 138 -125c0 -53 -32 -90 -73 -105v-4c41 -12 85 -47 85 -109c0 -75 -56 -132 -145 -132c-68 0 -123 46 -139 71c3 -11 5 -59 5 -109v-133h-70c0 77 -53 121 -213 124c-202 3 -287 76 -287 185
c0 33 10 68 26 99l73 -19c-15 -26 -24 -55 -24 -83c0 -68 49 -113 216 -115c149 -2 191 -41 216 -68h4c-4 26 -14 82 -14 202v177c0 48 -17 73 -65 73c-85 0 -170 -85 -170 -159c0 -39 23 -62 64 -62c31 0 55 14 65 23l29 -58c-24 -19 -62 -30 -98 -30
c-84 0 -134 51 -134 125c0 108 115 230 248 230zM729 581c-56 0 -124 -51 -124 -168c0 -104 49 -177 132 -177c50 0 76 33 76 69c0 46 -32 74 -90 74h-22v64h19c51 0 82 30 82 76c0 36 -25 62 -73 62z" />
    <glyph glyph-name="bnTTA" unicode="&#x99f;" horiz-adv-x="546" 
d="M4 920l69 15c-1 -11 -3 -22 -3 -33c0 -37 16 -75 98 -75h131c99 0 174 -47 174 -140c0 -13 -2 -29 -5 -45h98v-64h-395v-379c0 -45 24 -79 77 -79c89 0 164 81 164 174c0 51 -21 90 -71 90c-25 0 -49 -13 -62 -32l-41 58c20 22 55 44 103 44c86 0 145 -65 145 -160
c0 -120 -100 -242 -240 -242c-90 0 -147 57 -147 142v384h-118v64h415c3 14 4 31 4 40c0 57 -34 80 -112 80h-125c-125 0 -161 64 -161 129c0 10 0 19 2 29z" />
    <glyph glyph-name="bnTTHA" unicode="&#x9a0;" horiz-adv-x="543" 
d="M491 236c0 112 -81 197 -218 342h290v64h-338c-42 49 -68 95 -68 137c0 58 45 93 110 86l-14 68c-98 4 -169 -57 -169 -149c0 -43 16 -94 59 -142h-163v-64h208l31 -37v-76c0 -117 -59 -175 -179 -207c4 -123 104 -231 237 -231c135 0 214 97 214 209zM125 218
c53 18 168 75 158 250c66 -71 136 -140 136 -233c0 -75 -52 -141 -140 -141c-97 0 -150 78 -154 124z" />
    <glyph glyph-name="bnDDA" unicode="&#x9a1;" horiz-adv-x="668" 
d="M688 578h-364v-158c0 -34 13 -55 47 -55c31 0 100 21 171 87c33 -22 75 -81 75 -156c0 -138 -100 -235 -257 -235c-201 0 -313 166 -322 358l70 15c7 -191 109 -305 253 -305c110 0 184 66 184 165c0 28 -7 52 -17 65c-48 -40 -108 -62 -162 -62c-73 0 -116 51 -116 119
v162h-270v64h708v-64z" />
    <glyph glyph-name="bnDDHA" unicode="&#x9a2;" horiz-adv-x="547" 
d="M171 578v-381c0 -45 25 -79 79 -79c88 0 164 80 164 175c0 51 -22 91 -77 91c-24 0 -48 -8 -60 -17l-27 61c18 13 53 26 88 26c94 0 148 -67 148 -161c0 -122 -95 -243 -237 -243c-92 0 -150 57 -150 141v387h-119v64h586v-64h-395z" />
    <glyph glyph-name="bnNNA" unicode="&#x9a3;" horiz-adv-x="608" 
d="M116 440c0 -77 52 -117 118 -117c31 0 59 11 77 24l24 -64c-24 -17 -64 -28 -102 -28c-116 0 -190 80 -190 186c0 114 75 201 207 201c108 0 167 -65 191 -108h4c-5 24 -10 73 -10 152v55h73v-99h120v-64h-120v-578h-73v322c0 146 -63 253 -182 253
c-89 0 -137 -58 -137 -135z" />
    <glyph glyph-name="bnTA" unicode="&#x9a4;" horiz-adv-x="681" 
d="M371 250l50 43c-28 16 -43 43 -43 75c0 49 32 77 78 77c67 0 100 -56 100 -139c0 -98 -63 -179 -165 -179c-162 0 -241 171 -277 369l-68 -30c43 -225 146 -404 345 -404c141 0 238 100 238 243c0 114 -61 208 -175 208c-94 0 -149 -61 -149 -141c0 -54 26 -98 66 -122z
M701 642h-721v-64h721v64z" />
    <glyph glyph-name="bnTHA" unicode="&#x9a5;" horiz-adv-x="676" 
d="M112 388l59 34c-22 19 -35 43 -35 72c0 52 41 84 92 84c64 0 104 -42 104 -99c0 -84 -70 -164 -269 -174v-80l509 -238l48 54l-43 21v516h119v64h-119v99h-74v-445c0 -63 1 -131 7 -203h-4l-334 159v4c166 30 233 124 233 223c0 107 -85 167 -178 167
c-95 0 -164 -62 -164 -151c0 -35 11 -77 49 -107z" />
    <glyph glyph-name="bnDA" unicode="&#x9a6;" horiz-adv-x="547" 
d="M442 0h-75v206c0 73 13 140 28 192c-87 -57 -166 -140 -230 -229l-74 33v376h-111v64h587v-64h-403v-298c49 63 159 165 246 201l67 -37c-23 -71 -35 -158 -35 -240v-204z" />
    <glyph glyph-name="bnDHA" unicode="&#x9a7;" horiz-adv-x="607" 
d="M298 558c-26 14 -52 20 -82 20c-53 0 -87 -30 -87 -79c0 -56 43 -86 120 -86c58 0 127 36 185 73v156h193v-64h-120v-514l42 -22l-44 -55l-438 223v68l56 32c48 29 93 46 93 46v4c-89 2 -159 52 -159 141c0 82 59 143 155 143c41 0 78 -8 111 -27zM443 98
c-6 71 -9 142 -9 205v106l-286 -162l291 -149h4z" />
    <glyph glyph-name="bnNA" unicode="&#x9a8;" horiz-adv-x="629" 
d="M147 221l-65 -29c-24 23 -38 56 -38 97c0 96 63 159 170 159c129 0 208 -93 248 -178h4c-1 8 -10 72 -10 199v109h-476v64h669v-64h-119v-578h-74v21c0 157 -88 358 -238 358c-68 0 -101 -38 -101 -90c0 -26 12 -50 30 -68z" />
    <glyph glyph-name="bnPA" unicode="&#x9aa;" horiz-adv-x="654" 
d="M114 506c74 -7 138 -52 171 -153l168 110c-33 71 -94 118 -179 118c-84 0 -140 -48 -160 -75zM555 0h-74v326c0 25 -2 49 -7 71l-313 -204l-37 56l104 68c-19 61 -55 125 -142 130c-7 1 -15 2 -23 2l-42 58c40 64 123 141 250 141c124 0 192 -72 222 -129l3 1
c-5 15 -15 101 -15 179v42h74v-99h119v-64h-119v-578z" />
    <glyph glyph-name="bnPHA" unicode="&#x9ab;" horiz-adv-x="751" 
d="M452 60v373c18 5 35 8 54 8c64 0 123 -36 123 -115c0 -54 -39 -95 -91 -114l45 -57c57 25 117 79 117 172c0 115 -92 182 -203 182c-42 0 -84 -9 -118 -24v-185c0 -63 3 -125 8 -197h-4l-255 165l150 116v56l-127 134v4h620v64h-791v-64h92v-20l135 -143l-146 -112v-74
l381 -244l49 50z" />
    <glyph glyph-name="bnBA" unicode="&#x9ac;" horiz-adv-x="549" 
d="M376 578v-75c-120 -39 -267 -137 -325 -195v-67l389 -255l51 51l-41 27v514h119v64h-589v-64h396zM376 430v-121c0 -65 2 -134 8 -201h-4l-256 167c48 48 170 125 252 155z" />
    <glyph glyph-name="bnBHA" unicode="&#x9ad;" horiz-adv-x="720" 
d="M40 450l67 28c36 -185 118 -360 307 -360c115 0 183 73 183 165c0 58 -16 87 -31 113h-4c-40 -89 -94 -125 -156 -125c-82 0 -132 54 -132 122c0 27 9 53 22 72l72 -13c-13 -14 -22 -36 -22 -57c0 -34 21 -57 61 -57c44 0 80 33 124 142h58c40 -38 80 -113 80 -197
c0 -133 -97 -235 -256 -235c-230 0 -331 203 -373 402zM740 578h-760v64h760v-64z" />
    <glyph glyph-name="bnMA" unicode="&#x9ae;" horiz-adv-x="585" 
d="M605 578h-120v-578h-70c-13 105 -95 224 -196 254c-18 -57 -53 -78 -82 -78c-35 0 -59 23 -59 58c0 40 30 77 81 87v15c0 116 -77 205 -122 229v13h-57v64h625v-64zM416 168l2 1c-2 47 -6 106 -6 180v229h-277v-4c32 -32 94 -121 94 -239v-17c85 -18 154 -88 187 -150z
" />
    <glyph glyph-name="bnYA" unicode="&#x9af;" horiz-adv-x="563" 
d="M151 578v-4l127 -134v-56l-150 -116l267 -167h4c-5 72 -9 134 -9 198v279h-239zM453 -15l-392 244v74l146 112l-135 143v20h-92v64h603v-64h-120v-518l40 -25z" />
    <glyph glyph-name="bnRA" unicode="&#x9b0;" horiz-adv-x="549" 
d="M99 -8c0 29 21 49 49 49c29 0 50 -20 50 -49c0 -30 -21 -50 -50 -50c-28 0 -49 20 -49 50zM376 578v-75c-120 -39 -267 -137 -325 -195v-67l389 -255l51 51l-41 27v514h119v64h-589v-64h396zM376 430v-121c0 -65 2 -134 8 -201h-4l-256 167c48 48 170 125 252 155z" />
    <glyph glyph-name="bnLA" unicode="&#x9b2;" horiz-adv-x="738" 
d="M328 111l-11 67c-18 -8 -39 -12 -59 -12c-71 0 -128 47 -128 131c0 71 47 109 95 109c51 0 90 -31 90 -95v-38h71v39c0 62 39 98 88 98c50 0 83 -35 91 -60v-350h73v578h120v64h-778v-64h585v-143h-4c-10 12 -41 43 -95 43c-66 0 -104 -47 -112 -85h-4
c-9 31 -48 82 -128 82c-87 0 -165 -67 -165 -178c0 -121 82 -197 200 -197c25 0 49 4 71 11z" />
    <glyph glyph-name="bnSHA" unicode="&#x9b6;" horiz-adv-x="697" 
d="M72 578h-92v64h92c73 0 131 -30 165 -79c35 48 91 78 153 78c85 0 129 -43 142 -64h4c-2 7 -11 59 -11 125v39h72v-99h120v-64h-120v-578h-73v437c0 91 -58 137 -132 137c-59 0 -120 -42 -120 -124c0 -72 57 -113 124 -113c10 0 23 1 33 3v-66c-7 -1 -20 -3 -34 -3
c-67 0 -129 28 -161 80c-29 -53 -85 -82 -156 -82c-19 0 -44 5 -55 8v68c13 -7 37 -9 54 -9c77 0 123 48 123 116c0 87 -55 126 -128 126z" />
    <glyph glyph-name="bnSSA" unicode="&#x9b7;" horiz-adv-x="565" 
d="M132 578v-4l8 -7l251 -219v230h-259zM451 -14l-394 243v70l148 125l-153 134v20h-72v64h605v-64h-122v-519l40 -24zM398 100c-4 60 -6 113 -7 167l-131 114l-134 -114l268 -167h4z" />
    <glyph glyph-name="bnSA" unicode="&#x9b8;" horiz-adv-x="659" 
d="M157 144c-80 0 -128 51 -145 94l55 40c13 -29 36 -67 91 -67c56 0 83 47 83 99c0 72 -28 111 -89 178l-63 70v20h-109v64h698v-64h-119v-578h-74v278c0 38 -19 60 -56 60c-41 0 -78 -49 -119 -98c-43 -50 -91 -96 -153 -96zM488 387c-3 59 -3 123 -3 126v65h-315v-4
l50 -59c42 -50 80 -97 82 -163c1 -8 1 -19 1 -27c25 37 67 84 122 84c29 0 49 -10 63 -22z" />
    <glyph glyph-name="bnHA" unicode="&#x9b9;" horiz-adv-x="494" 
d="M224 140v4c122 14 199 83 199 196c0 104 -76 176 -184 176c-100 0 -169 -65 -169 -150c0 -47 22 -90 63 -114l53 40c-28 15 -43 43 -43 70c0 52 40 86 97 86c67 0 110 -43 110 -105c0 -82 -56 -150 -214 -150h-64v-63c82 -11 109 -29 347 -173l53 50l-106 64
c-62 38 -112 61 -142 69zM-20 578h534v64h-534v-64z" />
    <glyph glyph-name="bnK_SSA" horiz-adv-x="871" 
d="M660 348h-43v-351h-68c-22 87 -114 167 -228 178c-17 -58 -52 -77 -79 -77c-34 0 -56 20 -56 54c0 35 28 68 76 82v21c0 72 -46 117 -103 130c-15 -55 -51 -77 -79 -77c-33 0 -55 21 -55 55c0 36 27 69 75 82c-1 58 -25 101 -60 133h-60v64h911v-64h-274v-163h41
c108 0 176 -59 176 -150c0 -81 -43 -131 -97 -159l-47 54c40 17 73 51 73 105c0 58 -43 83 -103 83zM551 120c-5 60 -7 140 -7 200v28h-73c-87 0 -151 56 -151 157v73h-197c26 -37 43 -84 43 -129c86 -12 165 -84 165 -192v-18c104 -8 193 -76 220 -119zM470 415h74v163
h-153v-74c0 -60 28 -89 79 -89z" />
    <glyph glyph-name="bnJ_NYA" horiz-adv-x="829" 
d="M375 578c-41 -47 -87 -131 -87 -183c0 -34 30 -45 62 -47l129 -9c-65 48 -96 140 -101 239h-3zM650 73c-58 0 -100 25 -128 64c-27 -59 -86 -100 -174 -100c-176 0 -301 169 -307 364l69 20c3 -171 99 -313 236 -313c80 0 124 46 124 104c0 26 -5 43 -13 63l-115 6
c-76 5 -126 39 -126 110c0 65 40 137 73 187h-309v64h869v-64h-401c3 -71 23 -125 50 -161c26 59 74 99 147 99c75 0 124 -50 124 -116c0 -51 -29 -84 -65 -98v-4c36 -12 75 -44 75 -101c0 -69 -49 -124 -129 -124zM702 397c0 33 -21 56 -64 56c-50 0 -106 -46 -106 -153
c0 -97 40 -163 114 -163c43 0 67 30 67 63c0 42 -29 68 -80 68h-20v58h17c46 0 72 28 72 71z" />
    <glyph glyph-name="asRA" unicode="&#x9f0;" horiz-adv-x="553" 
d="M382 578v-73c-124 -39 -274 -140 -331 -198v-66l391 -256l52 52l-41 26v515h120v64h-593v-64h402zM124 275c17 17 44 39 75 60l185 -122c1 -35 2 -72 6 -108h-4zM383 433c-1 -49 -1 -100 -1 -150l-131 85c44 27 96 52 132 65z" />
    <glyph glyph-name="asWA" unicode="&#x9f1;" horiz-adv-x="549" 
d="M376 578v-75c-120 -39 -267 -137 -325 -195v-67l389 -255l51 51l-41 27v514h119v64h-589v-64h396zM376 430v-121c0 -65 2 -134 8 -201h-4l-256 167c48 48 170 125 252 155zM212 -36l47 51l-134 86l-47 -52z" />
    <glyph glyph-name="bnDDxA" unicode="&#x9dc;" horiz-adv-x="668" 
d="M308 -78c0 29 21 49 50 49c28 0 49 -20 49 -49c0 -30 -21 -50 -49 -50c-29 0 -50 20 -50 50zM688 578h-364v-158c0 -34 13 -55 47 -55c31 0 100 21 171 87c33 -22 75 -81 75 -156c0 -138 -100 -235 -257 -235c-201 0 -313 166 -322 358l70 15c7 -191 109 -305 253 -305
c110 0 184 66 184 165c0 28 -7 52 -17 65c-48 -40 -108 -62 -162 -62c-73 0 -116 51 -116 119v162h-270v64h708v-64z" />
    <glyph glyph-name="bnDDHxA" unicode="&#x9dd;" horiz-adv-x="547" 
d="M201 -78c0 29 21 49 50 49s49 -20 49 -49c0 -30 -20 -50 -49 -50s-50 20 -50 50zM171 578v-381c0 -45 25 -79 79 -79c88 0 164 80 164 175c0 51 -22 91 -77 91c-24 0 -48 -8 -60 -17l-27 61c18 13 53 26 88 26c94 0 148 -67 148 -161c0 -122 -95 -243 -237 -243
c-92 0 -150 57 -150 141v387h-119v64h586v-64h-395z" />
    <glyph glyph-name="bnYxA" unicode="&#x9df;" horiz-adv-x="563" 
d="M96 -7c0 29 20 49 48 49s48 -20 48 -49s-20 -49 -48 -49s-48 20 -48 49zM151 578v-4l127 -134v-56l-150 -116l267 -167h4c-5 72 -9 134 -9 198v279h-239zM453 -15l-392 244v74l146 112l-135 143v20h-92v64h603v-64h-120v-518l40 -25z" />
    <glyph glyph-name="bnAnusvara" unicode="&#x982;" horiz-adv-x="437" 
d="M36 229l68 46l289 -248l-51 -37zM218 588c51 0 86 -42 86 -91c0 -47 -34 -85 -83 -85c-53 0 -88 38 -88 91c1 46 35 85 85 85zM219 353c85 0 155 65 155 149c0 87 -69 145 -155 145c-84 0 -155 -66 -155 -150c0 -87 69 -144 155 -144z" />
    <glyph glyph-name="bnCandrabindu" unicode="&#x981;" 
d="M-136 782c72 0 120 37 148 83l55 -33c-39 -68 -112 -113 -203 -113c-92 0 -165 45 -204 113l55 33c28 -46 76 -83 149 -83zM-182 903c0 27 18 47 46 47c26 0 45 -20 45 -47c0 -26 -19 -46 -45 -46c-28 0 -46 20 -46 46z" />
    <glyph glyph-name="bnVisarga" unicode="&#x983;" horiz-adv-x="428" 
d="M213 583c45 0 75 -36 75 -79c0 -40 -30 -74 -72 -74c-46 0 -77 34 -77 79c0 40 31 74 74 74zM214 373c77 0 140 60 140 135c0 80 -62 132 -140 132c-77 0 -140 -60 -140 -136c0 -79 62 -131 140 -131zM213 204c45 0 75 -36 75 -79c0 -40 -30 -74 -72 -74
c-46 0 -77 34 -77 79c0 40 31 74 74 74zM214 -6c77 0 140 60 140 135c0 79 -62 132 -140 132c-77 0 -140 -60 -140 -136c0 -79 62 -131 140 -131z" />
    <glyph glyph-name="bnAvagraha" unicode="&#x9bd;" horiz-adv-x="462" 
d="M410 1c-242 140 -279 162 -357 172v64h63c155 0 208 48 208 128c0 61 -42 103 -106 103c-57 0 -95 -34 -95 -86c0 -26 13 -53 41 -68l-50 -37c-40 22 -62 64 -62 110c0 62 38 113 99 134c-17 31 -50 57 -114 57h-35v64h27c113 0 168 -49 193 -110
c102 -3 173 -72 173 -171c0 -108 -74 -158 -194 -172v-4c28 -7 73 -32 138 -68l117 -67z" />
    <glyph glyph-name="bnVirama" unicode="&#x9cd;" 
d="M-142 -71l-39 -56l227 -158l39 55z" />
    <glyph glyph-name="bnNukta" unicode="&#x9bc;" 
d="M-492 -86c0 30 21 50 50 50c28 0 49 -20 49 -50s-21 -50 -49 -50c-29 0 -50 20 -50 50z" />
    <glyph glyph-name="bnTAkhanda" unicode="&#x9ce;" horiz-adv-x="522" 
d="M258 417c59 0 94 30 94 78c0 46 -37 81 -101 81c-56 0 -100 -34 -122 -87c23 -44 71 -72 129 -72zM324 202c82 -28 163 -68 163 -167c0 -11 0 -25 -2 -37l-72 -14c1 10 2 31 2 39c0 78 -57 95 -155 128c-112 39 -218 107 -218 257c0 137 80 233 208 233
c96 0 173 -54 173 -146c0 -93 -69 -143 -162 -143c-54 0 -112 22 -147 62v-7c0 -130 103 -169 210 -205z" />
    <glyph glyph-name="bnZero" unicode="&#x9e6;" horiz-adv-x="594" 
d="M149 326c0 -124 54 -182 151 -182s145 60 145 175c0 125 -54 181 -151 181c-95 0 -145 -59 -145 -174zM294 76c-153 0 -221 102 -221 244c0 147 74 248 227 248s220 -101 220 -243c0 -148 -73 -249 -226 -249z" />
    <glyph glyph-name="bnOne" unicode="&#x9e7;" horiz-adv-x="526" 
d="M387 206c0 193 -283 181 -283 396c0 15 3 30 4 34l73 12c-1 -6 -4 -14 -4 -35c0 -179 282 -177 282 -408c0 -109 -64 -205 -214 -205c-128 0 -203 71 -203 160c0 56 26 91 65 109l43 -49c-21 -9 -35 -31 -35 -60c0 -48 46 -91 129 -91c92 0 143 55 143 137z" />
    <glyph glyph-name="bnTwo" unicode="&#x9e8;" horiz-adv-x="478" 
d="M95 602c2 -136 245 -140 245 -279c0 -71 -64 -100 -138 -100c-36 0 -79 9 -109 24l-18 10l-45 -59l368 -224l49 52l-96 61c-62 38 -100 56 -140 74v4c135 -3 202 68 202 158c0 187 -246 195 -246 290c0 21 3 29 4 35l-72 -12c-1 -4 -4 -19 -4 -34z" />
    <glyph glyph-name="bnThree" unicode="&#x9e9;" horiz-adv-x="725" 
d="M360 287l54 41c-28 19 -46 45 -46 86c0 51 31 87 81 87c83 0 108 -88 108 -174c0 -128 -67 -213 -182 -213c-183 0 -240 194 -240 428l-68 -21c0 -253 83 -473 308 -473c171 0 254 128 254 278c0 118 -46 243 -182 243c-101 0 -151 -73 -151 -153c0 -60 26 -104 64 -129z
" />
    <glyph glyph-name="bnFour" unicode="&#x9ea;" horiz-adv-x="501" 
d="M375 485c0 55 -49 95 -121 95c-69 0 -121 -36 -121 -96c0 -64 56 -105 111 -125c67 29 131 61 131 126zM258 -11c-124 0 -214 63 -214 171c0 86 57 132 127 167c-53 27 -109 79 -109 159c0 98 80 160 190 160c116 0 194 -70 194 -159c0 -84 -51 -127 -116 -162
c70 -30 130 -80 130 -166c0 -112 -90 -170 -202 -170zM256 56c76 0 131 38 131 105c0 55 -54 104 -129 129c-69 -30 -140 -55 -141 -131c0 -66 61 -103 139 -103z" />
    <glyph glyph-name="bnFive" unicode="&#x9eb;" horiz-adv-x="609" 
d="M124 308c0 -145 127 -222 306 -240c-43 40 -69 98 -69 155c0 69 32 125 100 172c-92 21 -130 89 -131 167c-140 -46 -206 -143 -206 -254zM531 56l-13 -56c-310 0 -468 119 -468 308c0 173 131 299 320 337l31 -52c-2 -11 -3 -22 -3 -32c0 -87 61 -114 144 -126l19 -67
c-84 -31 -128 -85 -128 -152c0 -72 43 -127 98 -160z" />
    <glyph glyph-name="bnSix" unicode="&#x9ec;" horiz-adv-x="636" 
d="M108 600c18 19 55 42 103 42c78 0 122 -47 122 -141v-109c0 -34 13 -54 47 -54c33 0 73 20 145 86c33 -21 76 -81 76 -163c0 -137 -95 -235 -253 -235c-191 0 -324 162 -331 347l74 16c6 -194 131 -293 258 -293c110 0 178 66 178 164c0 25 -3 54 -16 72
c-44 -43 -82 -63 -136 -63c-73 0 -117 51 -117 119v102c0 51 -5 82 -47 82c-26 0 -48 -13 -61 -28z" />
    <glyph glyph-name="bnSeven" unicode="&#x9ed;" horiz-adv-x="565" 
d="M237 302c56 0 99 22 125 40v143c0 59 -33 87 -90 87c-83 0 -153 -75 -153 -168c0 -66 43 -102 118 -102zM362 141v128c-30 -18 -76 -37 -133 -37c-102 0 -185 56 -185 172c0 131 92 238 231 238c103 0 161 -59 161 -155v-335c0 -51 6 -83 48 -83c26 0 48 14 61 29l42 -56
c-18 -20 -55 -42 -103 -42c-79 0 -122 47 -122 141z" />
    <glyph glyph-name="bnEight" unicode="&#x9ee;" horiz-adv-x="693" 
d="M257 70c84 0 145 85 145 182c0 60 -37 97 -115 97c-53 0 -93 -20 -119 -38v-154c0 -59 34 -87 89 -87zM168 501v-118c30 17 75 36 128 36c55 0 102 -15 134 -46c14 20 38 32 75 32h20c48 0 67 12 67 59c0 5 -2 16 -3 24l68 -17c1 -7 2 -19 2 -30
c0 -60 -27 -106 -109 -106h-21c-33 0 -50 -14 -58 -31c5 -17 7 -36 7 -57c0 -130 -85 -247 -224 -247c-100 0 -160 59 -160 154v336c0 51 -6 82 -48 82c-26 0 -48 -13 -61 -28l-42 56c18 19 55 42 103 42c78 0 122 -46 122 -141z" />
    <glyph glyph-name="bnNine" unicode="&#x9ef;" horiz-adv-x="631" 
d="M505 231c0 214 -433 180 -433 373c0 15 3 30 4 34l73 13c-2 -7 -4 -15 -4 -35c0 -145 433 -110 433 -386c0 -141 -95 -223 -224 -233l-45 46c19 32 26 72 26 108c0 83 -49 127 -119 127s-112 -48 -112 -116c0 -63 30 -97 81 -103l-25 -64c-76 11 -127 71 -127 167
c0 114 72 184 183 184s188 -70 188 -190c0 -24 -3 -53 -13 -84c72 25 114 80 114 159z" />
    <glyph glyph-name="bnAnji" unicode="&#x980;" horiz-adv-x="565" 
d="M303 329l14 -63c-23 -9 -54 -17 -87 -17c-93 0 -180 48 -180 166c0 122 94 227 233 227c102 0 157 -59 157 -155v-335c0 -51 6 -83 48 -83c26 0 48 14 61 29l42 -56c-18 -20 -55 -42 -102 -42c-79 0 -123 47 -123 141v344c0 59 -30 87 -86 87c-84 0 -155 -72 -155 -158
c0 -66 45 -95 114 -95c23 0 45 4 64 10z" />
    <glyph glyph-name="bnTaka" unicode="&#x9f2;" horiz-adv-x="414" 
d="M17 443l12 70c234 -15 339 -202 360 -439l-69 -16c-27 220 -113 373 -303 385z" />
    <glyph glyph-name="bnBangladeshitaka" unicode="&#x9f3;" horiz-adv-x="596" 
d="M461 294c0 51 -23 85 -72 85c-20 0 -38 -8 -51 -20l-39 57c21 18 51 32 90 32c85 0 144 -59 144 -153c0 -151 -84 -295 -246 -295c-95 0 -155 53 -155 146v223h-88v64h88v65c0 52 -17 77 -72 77h-16v67c10 1 21 1 30 1c91 0 131 -58 131 -142v-68h59v-64h-59v-223
c0 -53 32 -78 82 -78c109 0 174 103 174 226z" />
    <glyph glyph-name="bnNumeratorone" unicode="&#x9f4;" horiz-adv-x="398" 
d="M75 34l-43 51c140 135 218 283 285 483l63 -23c-57 -182 -150 -378 -305 -511z" />
    <glyph glyph-name="bnNumeratortwo" unicode="&#x9f5;" horiz-adv-x="682" 
d="M332 34l-53 46c19 32 25 71 25 107c0 82 -40 128 -109 128c-57 0 -88 -34 -88 -87c0 -27 14 -54 43 -70l-54 -39c-40 24 -62 67 -62 114c0 85 58 151 160 151c111 0 176 -72 176 -190c0 -8 0 -15 -1 -23c94 115 151 236 206 397l63 -23c-57 -183 -152 -380 -306 -511z
" />
    <glyph glyph-name="bnNumeratorthree" unicode="&#x9f6;" horiz-adv-x="632" 
d="M175 325l-58 -31c-20 22 -32 52 -32 85c0 73 48 128 132 128c97 0 136 -67 136 -140c0 -86 -43 -152 -144 -155c-59 -2 -87 -21 -87 -62c0 -47 51 -68 107 -68c214 0 275 278 275 521l65 -9c0 -221 -47 -577 -338 -577c-96 0 -179 40 -179 133c0 64 35 115 134 121
c77 5 100 44 100 97c0 39 -18 73 -68 73c-43 0 -63 -26 -63 -64c0 -21 7 -36 20 -52z" />
    <glyph glyph-name="bnNumeratorfour" unicode="&#x9f7;" horiz-adv-x="273" 
d="M173 642h-73v-642h73v642z" />
    <glyph glyph-name="bnNumeratoroneless" unicode="&#x9f8;" horiz-adv-x="566" 
d="M91 571h73v-305l246 215l66 -37v-381h-76v314l-238 -208l-71 33v369z" />
    <glyph glyph-name="bnDenominatorsixteen" unicode="&#x9f9;" horiz-adv-x="530" 
d="M89 325c0 111 74 179 179 179c106 0 181 -68 181 -179c0 -110 -75 -181 -181 -181c-105 0 -179 71 -179 181zM162 325c0 -70 44 -112 106 -112c66 0 108 43 108 112s-42 111 -108 111c-62 0 -106 -43 -106 -111z" />
    <glyph glyph-name="bnIsshar" unicode="&#x9fa;" horiz-adv-x="633" 
d="M217 414c0 30 21 50 49 50c29 0 50 -20 50 -50c0 -28 -21 -48 -50 -48c-28 0 -49 20 -49 48zM267 163c-121 0 -203 70 -243 156l60 33c23 -46 76 -121 183 -121c147 0 222 135 276 292l64 -27c-52 -152 -122 -333 -340 -333z" />
    <glyph glyph-name="bnGanda" unicode="&#x9fb;" horiz-adv-x="270" 
d="M373 -102l-42 -57l-210 151c-64 46 -103 102 -103 173c0 94 59 165 185 176l18 -67c-86 -10 -131 -47 -131 -110c0 -55 35 -88 77 -118z" />
    <glyph glyph-name="danda" unicode="&#x964;" horiz-adv-x="477" 
d="M277 0h-77v642h77v-642z" />
    <glyph glyph-name="doubledanda" unicode="&#x965;" horiz-adv-x="743" 
d="M277 0h-77v642h77v-642zM543 0h-77v642h77v-642z" />
    <glyph glyph-name="indianrupee" unicode="&#x20b9;" horiz-adv-x="479" 
d="M361 8v-8h-90l-181 226l-56 60l19 61c106 -24 202 5 212 107h-224v64h218c-17 48 -62 71 -113 71h-105v64h433l-30 -64h-159v-4c17 -11 37 -32 48 -67h141l-30 -64h-104c-8 -119 -115 -175 -209 -170l-1 -3c26 -27 52 -59 77 -88z" />
    <glyph glyph-name="uni200C" unicode="&#x200c;" 
d="M24 -230h-47v1041h47v-1041z" />
    <glyph glyph-name="uni200D" unicode="&#x200d;" 
d="M128 593l-33 -33l-72 75v-865h-47v865l-69 -73l-33 33l93 93l-95 95l33 33l95 -95l96 95l32 -32l-96 -96z" />
    <glyph glyph-name="uni25CC" unicode="&#x25cc;" horiz-adv-x="660" 
d="M139 517c0 25 18 44 44 44s44 -19 44 -44c0 -26 -18 -45 -44 -45s-44 19 -44 45zM57 407c0 25 20 44 46 44c24 0 44 -19 44 -44s-20 -44 -44 -44c-26 0 -46 19 -46 44zM44 281c0 26 19 45 44 45c26 0 44 -19 44 -45c0 -25 -18 -43 -44 -43c-25 0 -44 18 -44 43zM96 165
c0 25 18 44 44 44c25 0 44 -19 44 -44c0 -26 -19 -44 -44 -44c-26 0 -44 18 -44 44zM197 90c0 24 19 44 45 44c25 0 44 -20 44 -44c0 -26 -19 -46 -44 -46c-26 0 -45 20 -45 46zM324 74c0 26 18 44 44 44s45 -18 45 -44s-19 -44 -45 -44s-44 18 -44 44zM445 127
c0 25 19 44 44 44s45 -19 45 -44c0 -26 -20 -44 -45 -44s-44 18 -44 44zM518 225c0 26 19 45 45 45c24 0 43 -19 43 -45c0 -25 -19 -44 -43 -44c-26 0 -45 19 -45 44zM528 359c0 26 18 44 44 44c25 0 44 -18 44 -44s-19 -44 -44 -44c-26 0 -44 18 -44 44zM478 477
c0 26 19 45 44 45c26 0 44 -19 44 -45c0 -25 -18 -44 -44 -44c-25 0 -44 19 -44 44zM383 545c0 26 19 45 45 45c25 0 43 -19 43 -45c0 -24 -18 -44 -43 -44c-26 0 -45 20 -45 44zM257 560c0 26 18 44 44 44s44 -18 44 -44s-18 -44 -44 -44s-44 18 -44 44z" />
    <glyph glyph-name="bnNull" 
 />
    <glyph glyph-name="bnReph" 
d="M-173 751l272 190l37 -53l-272 -193z" />
    <glyph glyph-name="bnRAc2" 
d="M-172 90h72v-286h-68c-8 56 -29 107 -101 107c-39 0 -70 -6 -109 -6c-118 0 -163 75 -168 174l73 18c-1 -67 25 -124 95 -124c41 0 67 5 105 5c56 0 88 -23 108 -57h4c-3 17 -11 51 -11 114v55z" />
    <glyph glyph-name="bnYAc2" horiz-adv-x="253" 
d="M123 578v-4c-23 -19 -57 -58 -57 -129c0 -109 54 -182 54 -282c0 -59 -19 -106 -76 -153l57 -45c57 45 91 111 91 191c0 114 -51 187 -51 285c0 100 62 137 121 137h11v64h-293v-64h143z" />
    <glyph glyph-name="bnBAc2" 
d="M-171 131h71v-336l58 -30l-53 -50l-350 183v73c75 63 177 117 274 144v16zM-168 -170h4c-5 71 -7 135 -7 198v17c-72 -26 -140 -62 -203 -107z" />
    <glyph glyph-name="bnK" horiz-adv-x="654" 
d="M673 578h-285v-36c143 -6 220 -77 220 -168c0 -81 -44 -131 -99 -159l-45 54c40 16 74 51 74 105c0 66 -55 101 -150 104v-284l-43 1l-299 135v71c64 64 158 122 271 137v40h-337v64h693v-64zM324 281c-5 71 -7 134 -7 192c-79 -15 -153 -58 -201 -102l204 -90h4z" />
    <glyph glyph-name="bnKH" horiz-adv-x="588" 
d="M500 148h-61l-402 150v71c161 2 261 35 261 128c0 28 -11 49 -27 61c-31 -70 -86 -102 -144 -102c-75 0 -120 48 -120 116c0 23 5 45 14 70h69c-10 -19 -17 -49 -17 -68c0 -36 18 -58 58 -58c44 0 80 35 118 126h26c53 -33 89 -86 89 -145c0 -102 -69 -157 -204 -175v-4
l270 -103l4 1c-5 76 -6 141 -6 213v312h72v-99h108v-64h-108v-430z" />
    <glyph glyph-name="bnG" horiz-adv-x="608" 
d="M508 741v-99h128v-64h-128v-386h-69v190c0 102 -72 198 -189 198c-84 0 -137 -54 -159 -96c24 12 62 19 89 19c75 0 137 -45 137 -127c0 -76 -64 -137 -138 -176l-48 53c66 34 115 73 115 127c0 44 -32 65 -79 65c-37 0 -77 -10 -108 -26l-50 49c27 95 124 177 238 177
c126 0 185 -77 202 -109h4c-3 8 -14 71 -14 151v54h69z" />
    <glyph glyph-name="bnGH" horiz-adv-x="587" 
d="M419 129l-361 104v70l50 31c49 31 74 39 82 43v4c-89 5 -136 51 -136 121c0 29 9 55 24 76h-98v64h627v-64h-120v-449h-68zM425 196c-6 66 -8 136 -8 198v184h-259c-23 -18 -36 -45 -36 -75c0 -52 39 -76 92 -76c45 0 72 11 106 32l30 -58l-210 -126l281 -79h4z" />
    <glyph glyph-name="bnNG" horiz-adv-x="668" 
d="M311 506v-31c19 -7 41 -11 64 -11c54 0 83 28 83 68c0 35 -28 63 -73 63c-49 0 -74 -31 -74 -89zM367 77c-199 0 -318 150 -328 325l68 17c13 -184 127 -276 261 -276c116 0 176 57 176 131c0 25 -4 46 -15 62c-55 -41 -105 -65 -166 -65c-75 0 -117 48 -117 118v52
c-57 33 -99 86 -123 137h-143v64h190c11 -42 37 -93 78 -129c2 93 55 140 134 140c81 0 141 -50 141 -122c0 -84 -64 -125 -148 -125c-23 0 -44 3 -64 8v-22c0 -38 17 -58 56 -58c52 0 114 37 179 93c33 -26 69 -78 69 -151c0 -119 -91 -199 -248 -199z" />
    <glyph glyph-name="bnC" horiz-adv-x="475" 
d="M495 578h-346c13 -28 41 -43 78 -57l67 -25c84 -31 127 -67 127 -147c0 -98 -92 -194 -215 -194c-81 0 -130 47 -130 121v302h-96v64h515v-64zM145 500h-4c0 -29 4 -59 4 -150v-71c0 -36 19 -59 62 -59c67 0 144 54 144 129c0 39 -13 61 -81 85l-50 18
c-44 15 -65 35 -75 48z" />
    <glyph glyph-name="bnCH" horiz-adv-x="566" 
d="M131 578c16 -35 86 -45 142 -71c20 6 41 8 59 8c99 0 178 -68 178 -170c0 -123 -88 -193 -266 -200v-4c26 -7 66 -24 133 -59l155 -81l-47 -50c-306 167 -340 179 -412 186v60h112c175 0 257 54 257 148c0 67 -46 102 -104 107c6 -12 9 -26 9 -42
c0 -75 -63 -147 -156 -147c-73 0 -118 45 -118 104v211h-93v64h606v-64h-455zM284 410c0 57 -98 51 -146 90v-128c0 -29 16 -49 54 -49c57 0 92 46 92 87z" />
    <glyph glyph-name="bnJ" horiz-adv-x="743" 
d="M85 465l-66 -19c5 -189 128 -349 297 -349c119 0 187 74 187 164c0 40 -19 83 -47 107l-104 8c-43 3 -66 14 -66 45c0 46 70 84 112 110c16 -84 109 -167 228 -170c-6 -11 -37 -83 -37 -186v-94h66v91c0 92 23 158 47 200l-32 49h-19c-135 0 -189 87 -201 157h313v64
h-783v-64h381c-65 -37 -146 -89 -146 -163c0 -66 49 -94 116 -100l85 -7c9 -11 16 -28 16 -51c0 -50 -39 -94 -117 -94c-133 0 -227 135 -230 302z" />
    <glyph glyph-name="bnJH" horiz-adv-x="683" 
d="M329 265h4c-5 65 -7 127 -7 189v27c-70 -31 -142 -71 -202 -111zM600 741v-99h103v-64h-103v-333l-50 -13l-158 84v-132h-49l-282 149v73c69 50 165 106 265 146v26h-346v64h412v-255l142 -75v429h66z" />
    <glyph glyph-name="bnNY" horiz-adv-x="750" 
d="M396 643c54 0 82 -23 95 -54c17 26 57 56 113 56c71 0 116 -43 116 -105c0 -36 -19 -68 -55 -83v-4c39 -13 64 -43 64 -86c0 -63 -44 -110 -119 -110c-44 0 -89 27 -110 47c5 -18 7 -47 7 -73v-111h-65c0 63 -41 96 -165 98c-163 3 -233 64 -233 154c0 28 7 57 21 84
l68 -17c-14 -24 -18 -49 -18 -69c0 -52 36 -85 165 -87c97 -2 139 -23 164 -44h4c-5 29 -9 78 -9 145v141c0 34 -12 54 -47 54c-65 0 -128 -64 -128 -122c0 -27 16 -43 43 -43c24 0 46 11 55 20l28 -56c-22 -17 -54 -27 -86 -27c-68 0 -111 43 -111 104c0 88 93 188 203 188
zM598 583c-42 0 -93 -40 -93 -129c0 -79 38 -135 101 -135c35 0 54 23 54 50c0 34 -24 52 -66 52h-22v63h19c37 0 60 22 60 54c0 25 -18 45 -53 45z" />
    <glyph glyph-name="bnTT" horiz-adv-x="512" 
d="M3 913l66 14c-1 -10 -3 -21 -3 -32c0 -36 16 -73 96 -73h121c97 0 169 -45 169 -136c0 -12 -2 -29 -4 -44h84v-64h-375v-270c0 -51 31 -77 84 -77c87 0 144 60 144 137c0 50 -20 81 -69 81c-25 0 -48 -13 -61 -32l-40 58c20 22 54 43 101 43c83 0 140 -58 140 -150
c0 -117 -90 -205 -217 -205c-87 0 -151 50 -151 138v277h-108v64h398c3 14 5 31 5 40c0 55 -34 78 -110 78h-116c-121 0 -156 62 -156 125c0 9 0 19 2 28z" />
    <glyph glyph-name="bnTTH" horiz-adv-x="568" 
d="M507 271c0 109 -58 168 -192 307h272v64h-318c-41 47 -67 93 -67 134c0 56 44 91 108 85l-14 64c-94 4 -166 -55 -166 -145c0 -42 19 -91 60 -138h-210v-64h253l11 -11v-74c0 -114 -57 -170 -174 -201c5 -119 101 -224 229 -224c132 0 208 95 208 203zM151 253
c52 18 164 73 154 245c65 -70 133 -137 133 -228c0 -73 -50 -137 -137 -137c-94 0 -146 76 -150 120z" />
    <glyph glyph-name="bnDD" horiz-adv-x="638" 
d="M658 578h-353v-114c0 -33 13 -53 46 -53c36 0 95 27 159 84c31 -20 75 -71 75 -151c0 -131 -97 -219 -248 -219c-196 0 -301 166 -310 350l69 14c7 -183 103 -298 242 -298c107 0 178 67 178 152c0 27 -6 48 -18 66c-45 -36 -99 -62 -151 -62c-70 0 -111 49 -111 114v117
h-256v64h678v-64z" />
    <glyph glyph-name="bnDDH" horiz-adv-x="512" 
d="M157 578v-270c0 -51 31 -77 84 -77c87 0 144 60 144 137c0 50 -20 81 -69 81c-25 0 -48 -13 -61 -32l-40 58c20 22 54 43 101 43c83 0 140 -58 140 -150c0 -117 -90 -205 -217 -205c-87 0 -151 50 -151 138v277h-108v64h552v-64h-375z" />
    <glyph glyph-name="bnNN" horiz-adv-x="576" 
d="M106 452c0 -71 44 -111 107 -111c45 0 73 26 91 46l27 -58c-22 -24 -60 -51 -119 -51c-102 0 -175 73 -175 175c0 110 72 196 199 196c105 0 154 -63 177 -104h4c-5 22 -9 70 -9 147v49h68v-99h120v-64h-120v-328h-69v94c0 142 -54 243 -168 243
c-87 0 -133 -59 -133 -135z" />
    <glyph glyph-name="bnT" horiz-adv-x="681" 
d="M389 -39l-39 -56l227 -158l39 55zM371 250l50 43c-28 16 -43 43 -43 75c0 49 32 77 78 77c67 0 100 -56 100 -139c0 -98 -63 -179 -165 -179c-162 0 -241 171 -277 369l-68 -30c43 -225 146 -404 345 -404c141 0 238 100 238 243c0 114 -61 208 -175 208
c-94 0 -149 -61 -149 -141c0 -54 26 -98 66 -122zM701 642h-721v-64h721v64z" />
    <glyph glyph-name="bnTH" horiz-adv-x="609" 
d="M105 399l55 33c-22 18 -34 42 -34 70c0 50 39 82 89 82c63 0 100 -36 100 -91c0 -77 -60 -133 -251 -137v-76l383 -155h64v453h116v64h-116v99h-69v-352c0 -61 2 -126 7 -197h-4l-279 112v4c173 22 219 97 219 186c0 103 -82 154 -170 154c-92 0 -159 -60 -159 -146
c0 -32 11 -75 49 -103z" />
    <glyph glyph-name="bnD" horiz-adv-x="516" 
d="M535 578h-381v-221c53 56 152 136 236 171l65 -35c-22 -67 -33 -144 -33 -222v-63h-68v63c0 63 8 130 23 180c-81 -54 -149 -111 -222 -196l-71 38v285h-104v64h555v-64z" />
    <glyph glyph-name="bnDH" horiz-adv-x="557" 
d="M269 564c-20 15 -46 24 -74 24c-44 0 -73 -26 -73 -66c0 -53 52 -69 105 -69c55 0 115 29 168 63v126h181v-64h-116v-444h-66l-338 128v62l54 32c46 27 87 43 87 43v4c-86 4 -145 45 -145 121c0 71 52 125 140 125c39 0 80 -13 103 -33zM402 195c-5 68 -7 133 -7 193v58
l-267 -149l270 -102h4z" />
    <glyph glyph-name="bnN" horiz-adv-x="532" 
d="M-20 578v64h572v-64h-108v-347l-70 1c-30 124 -94 206 -180 206c-57 0 -83 -32 -83 -71c0 -41 24 -63 55 -77l-52 -41c-43 20 -74 61 -74 119c0 78 56 137 150 137c86 0 158 -60 189 -143h4c-1 7 -12 61 -12 187v29h-391z" />
    <glyph glyph-name="bnP" horiz-adv-x="655" 
d="M121 506c64 -4 134 -36 164 -118l157 110c-36 51 -90 83 -160 83c-84 0 -140 -48 -161 -75zM562 211h-72v115c0 40 -6 78 -18 112l-303 -213l-37 56l97 68c-19 54 -59 91 -133 96c-8 2 -17 3 -27 4l-42 58c39 64 125 141 252 141c124 0 192 -72 222 -129l3 1
c-5 15 -15 101 -15 179v42h73v-99h113v-64h-113v-367z" />
    <glyph glyph-name="bnPH" horiz-adv-x="762" 
d="M478 130v315c19 5 36 7 61 7c64 0 117 -37 117 -99c0 -54 -39 -88 -91 -107l44 -56c58 24 118 71 118 164c0 111 -92 166 -201 166c-44 0 -84 -8 -119 -23v-92c0 -64 2 -125 7 -198h-4l-252 96l147 99v57l-125 115v4h602v64h-802v-64h119v-20l136 -126l-147 -98v-74
l338 -130h52z" />
    <glyph glyph-name="bnB" horiz-adv-x="498" 
d="M518 578h-111v-395h-62l-283 141v78c85 57 180 106 274 147v29h-356v64h538v-64zM340 261h4c-5 71 -8 135 -8 198v15c-66 -31 -138 -69 -205 -110z" />
    <glyph glyph-name="bnBH" horiz-adv-x="696" 
d="M50 483l64 27c34 -178 140 -323 294 -323c111 0 170 64 170 145c0 48 -15 75 -31 101h-4c-39 -87 -91 -121 -152 -121c-75 0 -123 52 -123 117c0 25 8 50 20 68l68 -12c-12 -13 -20 -35 -20 -54c0 -34 18 -59 57 -59c43 0 79 34 123 139h52c38 -37 77 -100 77 -180
c0 -124 -86 -209 -237 -209c-207 0 -319 179 -358 361zM716 578h-736v64h736v-64z" />
    <glyph glyph-name="bnM" horiz-adv-x="618" 
d="M415 419c53 0 72 37 72 79c0 40 -21 80 -79 80h-208c9 -17 14 -37 17 -58c83 -20 122 -101 198 -101zM-20 642h658v-64h-108c15 -18 31 -49 31 -91c0 -69 -37 -138 -142 -138c-119 0 -158 109 -238 109c-34 0 -58 -22 -58 -57c0 -24 12 -41 29 -54l-54 -39
c-26 21 -46 52 -46 95c0 60 32 105 90 118c-7 22 -17 41 -31 57h-131v64z" />
    <glyph glyph-name="bnY" horiz-adv-x="494" 
d="M360 143h52v435h101v64h-533v-64h71v-19l131 -121l-142 -94v-69zM127 578h218v-173c0 -62 2 -119 7 -189h-4l-245 98l143 96v53l-119 111v4z" />
    <glyph glyph-name="bnR" horiz-adv-x="498" 
d="M518 578h-111v-395h-62l-283 141v78c85 57 180 106 274 147v29h-356v64h538v-64zM100 145c0 29 20 49 48 49c29 0 49 -20 49 -49c0 -27 -20 -48 -49 -48c-28 0 -48 21 -48 48zM340 261h4c-5 71 -8 135 -8 198v15c-66 -31 -138 -69 -205 -110z" />
    <glyph glyph-name="bnL" horiz-adv-x="679" 
d="M699 578h-108v-419h-70v240c-8 25 -36 60 -86 60c-49 0 -82 -36 -82 -97v-38h-69v37c0 64 -37 95 -88 95c-47 0 -89 -32 -89 -102c0 -81 53 -118 119 -118c7 0 16 0 23 2l7 -65c-10 -2 -21 -3 -32 -3c-102 0 -189 69 -189 184c0 109 73 169 158 169c79 0 115 -50 124 -81
h5c7 38 40 84 105 84c54 0 80 -30 90 -43h4v95h-541v64h719v-64z" />
    <glyph glyph-name="bnSH" horiz-adv-x="639" 
d="M67 578h-87v64h86c73 0 121 -23 152 -76c29 50 78 75 141 75c75 0 109 -40 122 -61h4c-1 6 -10 58 -10 125v36h72v-99h112v-64h-112v-348h-73v207c0 91 -39 137 -113 137c-60 0 -108 -33 -108 -111c0 -74 45 -111 112 -111c17 0 39 2 52 9v-67c-11 -3 -33 -7 -53 -7
c-67 0 -116 22 -149 74c-29 -53 -72 -76 -143 -76c-19 0 -44 5 -55 8v68c13 -6 37 -9 55 -9c76 0 109 43 109 111c0 78 -42 115 -114 115z" />
    <glyph glyph-name="bnSS" horiz-adv-x="513" 
d="M533 578h-121c29 -31 47 -73 47 -127c0 -127 -90 -192 -204 -192c-112 0 -201 70 -201 192c0 54 17 96 45 127h-119v64h553v-64zM255 578c-29 0 -54 -8 -74 -22l191 -165c8 18 13 39 13 61c0 68 -51 126 -130 126zM255 322c31 0 58 9 79 24l-192 165
c-9 -18 -14 -38 -14 -59c0 -75 52 -130 127 -130z" />
    <glyph glyph-name="bnS" horiz-adv-x="642" 
d="M66 492l-47 -45c30 -42 78 -76 135 -76c68 0 115 37 136 119c26 -69 76 -119 155 -119c97 0 145 65 145 150c0 18 -3 41 -8 57h80v64h-682v-64h266c-8 -62 -27 -145 -92 -145c-38 0 -66 29 -88 59zM509 578c5 -10 9 -30 9 -58c0 -30 -12 -87 -75 -87
c-69 0 -100 76 -110 145h176z" />
    <glyph glyph-name="bnH" horiz-adv-x="462" 
d="M201 189v-4c28 -7 73 -32 138 -68l117 -67l-46 -49c-242 140 -279 162 -357 172v64h63c155 0 208 48 208 128c0 61 -42 103 -107 103c-56 0 -95 -34 -95 -86c0 -26 13 -53 41 -68l-51 -37c-39 22 -61 64 -61 110c0 82 68 145 165 145c105 0 179 -70 179 -171
c0 -108 -74 -158 -194 -172zM482 578h-502v64h502v-64z" />
    <glyph glyph-name="bnK_SS" horiz-adv-x="889" 
d="M660 348h-43v-351h-68c-22 87 -114 167 -228 178c-17 -58 -52 -77 -79 -77c-34 0 -56 20 -56 54c0 35 28 68 76 82v21c0 72 -46 117 -103 130c-15 -55 -51 -77 -79 -77c-33 0 -55 21 -55 55c0 36 27 69 75 82c-1 58 -25 101 -60 133h-60v64h911v-64h-274v-163h41
c108 0 176 -59 176 -150c0 -81 -43 -131 -97 -159l-47 54c40 17 73 51 73 105c0 58 -43 83 -103 83zM524 -130l39 56l227 -159l-39 -55zM551 120c-5 60 -7 140 -7 200v28h-73c-87 0 -151 56 -151 157v73h-197c26 -37 43 -84 43 -129c86 -12 165 -84 165 -192v-18
c104 -8 193 -76 220 -119zM470 415h74v163h-153v-74c0 -60 28 -89 79 -89z" />
    <glyph glyph-name="bnJ_NY" horiz-adv-x="829" 
d="M375 578c-41 -47 -87 -131 -87 -183c0 -34 30 -45 62 -47l129 -9c-65 48 -96 140 -101 239h-3zM650 73c-58 0 -100 25 -128 64c-27 -59 -86 -100 -174 -100c-176 0 -301 169 -307 364l69 20c3 -171 99 -313 236 -313c80 0 124 46 124 104c0 26 -5 43 -13 63l-115 6
c-76 5 -126 39 -126 110c0 65 40 137 73 187h-309v64h869v-64h-401c3 -71 23 -125 50 -161c26 59 74 99 147 99c75 0 124 -50 124 -116c0 -51 -29 -84 -65 -98v-4c36 -12 75 -44 75 -101c0 -69 -49 -124 -129 -124zM702 397c0 33 -21 56 -64 56c-50 0 -106 -46 -106 -153
c0 -97 40 -163 114 -163c43 0 67 30 67 63c0 42 -29 68 -80 68h-20v58h17c46 0 72 28 72 71zM386 -127l39 56l227 -159l-39 -55z" />
    <glyph glyph-name="asR" horiz-adv-x="487" 
d="M324 578v-41c-104 -33 -228 -116 -276 -165v-63l285 -189h56v458h117v64h-526v-64h344zM109 342c14 14 37 32 63 50l153 -102c1 -29 3 -60 5 -90h-3zM325 473c-1 -41 -1 -82 -1 -123l-107 70c36 22 77 42 108 53z" />
    <glyph glyph-name="asW" horiz-adv-x="507" 
d="M62 184l43 52l143 -75l-43 -53zM527 578h-120v-395h-62l-283 141v78c85 57 180 106 274 147v29h-356v64h547v-64zM340 261h4c-5 71 -8 135 -8 198v15c-66 -31 -138 -69 -205 -110z" />
    <glyph glyph-name="bnDDx" horiz-adv-x="638" 
d="M658 578h-353v-98c0 -33 13 -53 46 -53c36 0 95 26 159 84c31 -20 75 -72 75 -151c0 -131 -97 -219 -248 -219c-196 0 -301 165 -310 349l69 15c7 -183 103 -298 242 -298c107 0 178 67 178 152c0 27 -6 47 -18 65c-45 -35 -99 -61 -151 -61c-70 0 -111 49 -111 114v101
h-256v64h678v-64zM275 17c0 28 20 49 48 49s48 -21 48 -49s-20 -48 -48 -48s-48 20 -48 48z" />
    <glyph glyph-name="bnDDHx" horiz-adv-x="512" 
d="M157 578v-270c0 -51 31 -77 84 -77c87 0 144 60 144 137c0 50 -20 81 -69 81c-25 0 -48 -13 -61 -32l-40 58c20 22 54 43 101 43c83 0 140 -58 140 -150c0 -117 -90 -205 -217 -205c-87 0 -151 50 -151 138v277h-108v64h552v-64h-375zM190 44c0 28 20 49 48 49
s49 -21 49 -49s-21 -48 -49 -48s-48 20 -48 48z" />
    <glyph glyph-name="bnYx" horiz-adv-x="495" 
d="M360 143h52v435h101v64h-533v-64h71v-19l131 -121l-142 -94v-69zM126 578h219v-173c0 -62 2 -119 7 -189h-4l-245 98l143 96v53l-120 111v4zM98 98c0 28 20 49 48 49c29 0 49 -21 49 -49s-20 -48 -49 -48c-28 0 -48 20 -48 48z" />
    <glyph glyph-name="bnK_KA" horiz-adv-x="670" 
d="M690 578h-292v-30c148 -2 215 -89 215 -174c0 -44 -16 -88 -43 -116l-62 37c21 19 35 48 35 79c0 64 -50 106 -145 107v-211c148 -2 215 -90 215 -174c0 -68 -35 -123 -94 -154l-44 53c43 25 68 57 68 101c0 65 -52 106 -145 106v-256l45 -22l-53 -52l-334 174v75
c44 43 106 87 177 116l-177 86v76c62 62 161 125 271 143v36h-347v64h710v-64zM334 -19c-5 70 -7 134 -7 196v17h-2l-2 -1h-1c-77 -18 -148 -63 -197 -104l205 -108h4zM334 268c-5 70 -7 134 -7 196v9c-80 -17 -152 -64 -202 -106l205 -99h4z" />
    <glyph glyph-name="bnNG_KA" horiz-adv-x="691" 
d="M443 578c0 -69 26 -120 81 -120c50 0 61 41 61 74c0 22 -3 36 -7 46h-135zM-20 578v64h731v-64h-68c5 -16 7 -37 7 -54c0 -72 -42 -128 -125 -128c-82 0 -153 57 -153 182h-392zM386 4l45 -23l-52 -51l-333 173v74c62 62 161 125 271 143v33c0 84 -40 130 -103 130
c-48 0 -80 -28 -80 -78c0 -27 14 -55 41 -71l-52 -39c-40 27 -60 69 -60 113c0 78 53 140 149 140c106 0 174 -84 174 -196v-26c150 -2 217 -89 217 -175c0 -66 -36 -121 -94 -153l-44 54c43 24 68 57 68 101c0 65 -53 106 -147 106v-255zM324 37c-5 71 -7 134 -7 197v17
c-80 -17 -152 -63 -202 -105l205 -109h4z" />
    <glyph glyph-name="bnL_KA" horiz-adv-x="858" 
d="M-20 578v64h898v-64h-268v-250c148 -2 215 -90 215 -174c0 -68 -35 -123 -94 -154l-44 53c43 25 68 57 68 101c0 65 -52 106 -145 106v-256l45 -22l-53 -52l-334 174v75c62 61 161 124 271 143v58c-8 25 -36 60 -87 60c-48 0 -83 -36 -83 -98v-38h-70v37
c0 64 -37 95 -89 95c-48 0 -90 -41 -90 -111c0 -75 44 -113 99 -124l-25 -64c-90 19 -148 90 -148 188c0 110 76 179 161 179c78 0 112 -38 126 -73h4c11 39 43 77 108 77c48 0 78 -24 90 -37h4v107h-559zM546 39c-5 70 -7 134 -7 196v17c-80 -17 -152 -63 -202 -105
l205 -108h4z" />
    <glyph glyph-name="bnSS_KA" horiz-adv-x="633" 
d="M653 578h-212c28 -31 45 -73 45 -126s-16 -96 -44 -128c108 -21 157 -95 157 -168c0 -67 -36 -122 -94 -154l-44 54c43 24 67 57 67 100c0 66 -52 107 -144 107v-256l44 -23l-52 -51l-334 174v74c36 36 85 73 142 101c-59 30 -97 88 -97 170c0 54 16 96 44 126h-151v64
h673v-64zM285 578c-30 0 -55 -9 -76 -23l193 -165c9 18 14 39 14 62c0 68 -52 126 -131 126zM316 41h4c-5 71 -7 134 -7 196v19c-79 -18 -152 -64 -203 -106zM285 323c31 0 58 9 79 23l-192 165c-9 -18 -14 -38 -14 -59c0 -75 52 -129 127 -129z" />
    <glyph glyph-name="bnS_KA" horiz-adv-x="674" 
d="M69 484c23 -30 49 -58 88 -58c65 0 85 87 90 152h-267v64h714v-64h-113c4 -19 6 -38 6 -58c0 -79 -37 -141 -111 -156c109 -21 159 -96 159 -169c0 -68 -35 -123 -93 -155l-45 54c43 25 68 57 68 101c0 65 -52 106 -144 106v-256l44 -23l-53 -51l-334 174v74
c70 69 184 139 308 149c-51 16 -84 54 -100 98c-20 -63 -62 -105 -129 -105c-57 0 -105 34 -134 78zM517 523c0 20 -3 38 -7 55h-186c3 -81 39 -153 113 -153c58 0 80 43 80 98zM357 80c-5 70 -7 133 -7 196v18c-80 -18 -153 -64 -203 -106l205 -108h5z" />
    <glyph glyph-name="bnNG_KHA" horiz-adv-x="738" 
d="M243 534v-30c16 -4 33 -7 50 -7c44 0 61 26 61 52s-18 53 -56 53c-37 0 -55 -27 -55 -68zM191 -155v74c144 6 246 44 246 136c0 28 -9 51 -23 65c-25 -79 -69 -132 -150 -132c-83 0 -123 53 -123 116c0 12 1 26 4 38h71c-3 -11 -6 -23 -6 -36c0 -30 18 -54 56 -54
c52 0 78 47 102 121c-22 -6 -48 -10 -76 -10c-150 0 -250 105 -267 254l63 20c14 -131 90 -209 205 -209c92 0 139 51 139 108c0 18 -4 28 -8 35c-39 -29 -80 -46 -134 -46c-72 0 -116 40 -116 106v39c-47 26 -85 66 -111 108h-83v64h127c16 -40 40 -75 70 -101
c4 62 33 119 117 119c79 0 124 -53 124 -113c0 -59 -46 -108 -126 -108c-17 0 -33 2 -49 5v-14c0 -33 20 -43 49 -43c43 0 87 20 152 66c29 -21 54 -66 54 -118s-24 -101 -69 -133c44 -35 76 -89 76 -148c0 -98 -71 -158 -186 -175v-4l250 -80l4 1c-5 72 -6 139 -6 208v737
h71v-99h120v-64h-120v-804l45 -14l-48 -55z" />
    <glyph glyph-name="bnS_KHA" horiz-adv-x="809" 
d="M244 95c156 3 260 43 260 136c0 27 -12 46 -24 59c-26 -63 -79 -108 -146 -108c-75 0 -124 43 -124 117c0 17 2 34 6 49h73c-5 -14 -8 -30 -8 -47c0 -29 16 -52 55 -52c46 0 77 38 105 114c-6 -1 -12 -1 -19 -1c-84 0 -131 54 -153 112c-22 -69 -64 -111 -132 -111
c-56 0 -105 35 -134 76l46 45c22 -30 50 -59 88 -59c64 0 84 92 90 153h-247v64h569c17 -45 24 -91 24 -119c0 -70 -27 -123 -80 -147c41 -32 82 -83 82 -145c0 -104 -75 -159 -189 -176v-4l253 -92l4 1c-5 74 -7 143 -7 213v568h73v-99h120v-64h-120v-642l43 -14l-49 -57
l-459 162v68zM500 521c0 22 -2 40 -6 57h-184c3 -89 39 -153 111 -153c54 0 79 43 79 96z" />
    <glyph glyph-name="bnG_GA" horiz-adv-x="654" 
d="M359 361c0 -9 -1 -18 -3 -27c66 -16 105 -53 125 -81v121c0 109 -71 202 -192 202c-82 0 -138 -48 -162 -95c24 12 56 18 85 18c80 0 147 -49 147 -138zM554 -143h-73v213c0 110 -69 203 -189 203c-83 0 -138 -45 -165 -96c24 12 61 18 88 18c77 0 143 -46 143 -135
c0 -81 -53 -150 -127 -198l-56 49c63 42 109 91 109 150c0 53 -38 74 -87 74c-37 0 -76 -10 -107 -27l-53 52c27 101 129 179 243 182c3 7 4 13 4 20c0 53 -38 75 -87 75c-37 0 -76 -10 -107 -27l-53 54c32 103 130 182 249 182c127 0 183 -69 206 -107h4
c-3 10 -15 75 -15 156v46h73v-99h120v-64h-120v-721z" />
    <glyph glyph-name="bnNG_GA" horiz-adv-x="702" 
d="M722 642v-64h-92c5 -15 7 -37 7 -54c0 -74 -45 -127 -125 -127c-82 0 -154 57 -154 181h-378v64h742zM383 289v-16c76 35 154 67 207 93l52 -47c-31 -62 -48 -137 -48 -213v-156h-71v152c0 65 12 125 32 174l-185 -86c-24 -82 -78 -140 -161 -140c-85 0 -139 59 -155 102
l55 39c15 -35 46 -74 101 -74c70 0 104 75 104 171c0 79 -22 161 -98 161c-47 0 -77 -28 -77 -77c0 -24 9 -47 31 -64l-53 -38c-32 24 -50 63 -50 104c0 80 52 139 147 139c115 0 169 -101 169 -224zM429 578c0 -69 27 -120 82 -120c50 0 61 39 61 74c0 22 -3 36 -7 46h-136
z" />
    <glyph glyph-name="bnDD_GA" horiz-adv-x="1136" 
d="M769 573c-85 0 -139 -55 -162 -97c24 12 63 19 91 19c77 0 144 -49 144 -139c0 -82 -59 -157 -140 -209l-57 53c73 43 121 99 121 158c0 53 -38 77 -86 77c-35 0 -70 -9 -100 -23c14 -27 24 -59 24 -96c0 -144 -99 -236 -256 -236c-202 0 -312 167 -321 359l70 15
c7 -191 108 -305 251 -305c111 0 183 66 183 165c0 25 -3 48 -16 66c-47 -41 -106 -63 -160 -63c-73 0 -116 51 -116 120v141h-259v64h786c129 0 190 -78 209 -111h4c-4 9 -16 74 -16 156v54h74v-99h119v-64h-119v-578h-74v370c0 105 -73 203 -194 203zM456 578h-143v-138
c0 -34 13 -54 47 -54c31 0 98 20 165 82c14 43 42 84 80 115l-2 2c-12 -2 -66 -7 -147 -7z" />
    <glyph glyph-name="bnD_GA" horiz-adv-x="1016" 
d="M161 578v-298c49 63 159 165 245 201c15 38 42 73 76 101l-2 3c-12 -2 -72 -7 -138 -7h-181zM649 573c-85 0 -140 -55 -163 -97c24 12 63 19 91 19c77 0 144 -49 144 -139c0 -84 -62 -162 -147 -213l-57 52c77 45 129 102 129 163c0 53 -38 77 -87 77
c-32 0 -65 -8 -94 -20c-17 -65 -26 -140 -26 -211v-204h-75v206c0 73 13 140 28 192c-87 -57 -166 -140 -230 -229l-74 33v376h-108v64h665c129 0 190 -78 209 -111h4c-4 9 -16 74 -16 156v54h74v-99h120v-64h-120v-578h-73v370c0 105 -74 203 -194 203z" />
    <glyph glyph-name="bnDDx_GA" horiz-adv-x="1143" 
d="M294 -67c0 29 21 50 50 50s50 -21 50 -50s-21 -50 -50 -50s-50 21 -50 50zM463 578h-144v-138c0 -34 13 -54 47 -54c31 0 98 20 165 82c14 43 43 84 80 115l-2 2c-12 -2 -66 -7 -146 -7zM776 573c-85 0 -140 -55 -163 -97c24 12 63 19 91 19c77 0 144 -49 144 -139
c0 -82 -59 -157 -139 -209l-57 53c72 43 121 99 121 158c0 53 -38 77 -87 77c-34 0 -70 -9 -100 -23c14 -27 24 -59 24 -96c0 -144 -99 -236 -256 -236c-201 0 -311 167 -321 359l71 15c7 -191 107 -305 251 -305c110 0 183 66 183 165c0 25 -4 48 -16 66
c-48 -41 -107 -63 -161 -63c-73 0 -115 51 -115 120v141h-266v64h792c129 0 190 -78 209 -111h4c-4 9 -16 74 -16 156v54h74v-99h120v-64h-120v-578h-73v370c0 105 -74 203 -194 203z" />
    <glyph glyph-name="bnL_GA" horiz-adv-x="723" 
d="M-20 578v64h763v-64h-120v-772h-74v165c0 105 -55 198 -178 198c-76 0 -130 -50 -152 -94c26 14 66 22 95 21c75 -2 132 -45 132 -125c1 -71 -55 -137 -125 -178l-51 53c66 40 103 77 102 125c0 52 -37 68 -84 68c-35 0 -72 -12 -104 -30l-51 51c28 96 119 175 235 176
c105 0 156 -50 181 -88v238c-8 25 -37 60 -87 60c-49 0 -84 -37 -84 -98v-24h-71v22c0 57 -34 96 -89 96c-50 0 -92 -30 -92 -93c0 -45 22 -81 76 -102l-36 -56c-63 18 -115 81 -115 159c0 99 74 161 163 161c76 0 112 -38 128 -76h4c9 38 41 79 108 79c49 0 79 -23 91 -36
h4v100h-569z" />
    <glyph glyph-name="bnNG_GHA" horiz-adv-x="1166" 
d="M309 497v-37c20 -8 42 -13 66 -13c54 0 81 27 81 71c0 35 -21 71 -75 71c-47 0 -72 -34 -72 -92zM1065 -13l-454 221c-17 -104 -107 -172 -245 -172c-202 0 -321 162 -331 339l67 15c13 -184 128 -285 264 -285c117 0 178 63 178 137c0 25 -4 46 -15 62
c-57 -41 -106 -64 -164 -64c-80 0 -124 49 -124 120v69c-58 38 -102 96 -125 149h-136v64h183c12 -43 39 -97 81 -138c2 93 55 145 137 145c16 0 32 -2 46 -7h759v-64h-119v-515l43 -21zM545 397c29 -22 59 -63 67 -121l55 34c50 31 78 40 86 44v5c-97 7 -149 59 -149 131
c0 34 12 66 31 88h-128c10 -19 16 -40 16 -62c0 -82 -63 -128 -148 -128c-23 0 -45 3 -66 10v-34c0 -38 17 -57 56 -57c51 0 112 33 180 90zM997 96h4c-6 67 -8 139 -8 202v280h-274c-27 -22 -43 -54 -43 -87c0 -52 41 -85 107 -85c40 0 67 11 103 32l31 -59l-224 -134z" />
    <glyph glyph-name="bnD_GHA" horiz-adv-x="1017" 
d="M1037 578h-120v-515l43 -21l-45 -55l-452 220v69l53 33c50 32 78 41 86 45v4c-74 7 -120 37 -139 82c-24 -75 -34 -151 -34 -225v-136h-73v135c0 65 10 148 33 204c-78 -56 -158 -137 -226 -223l-74 45v338h-109v64h1057v-64zM162 304c56 65 160 161 242 197l51 -28
c-1 6 -1 11 -1 17c0 34 12 66 31 88h-323v-274zM848 96h3c-5 67 -7 139 -7 202v280h-273c-27 -22 -43 -54 -43 -87c0 -52 42 -85 106 -85c39 0 67 11 102 32l32 -59l-224 -134z" />
    <glyph glyph-name="bnL_GHA" horiz-adv-x="1039" 
d="M938 -21l-456 222v65l58 36c51 32 78 41 86 45v4c-47 3 -83 17 -108 39h-1c-12 11 -31 23 -63 23c-50 0 -83 -36 -83 -98v-38h-71v37c0 61 -35 95 -89 95s-91 -45 -91 -113c0 -86 51 -126 121 -126c21 0 42 3 60 11l11 -67c-22 -8 -46 -12 -71 -12
c-118 0 -196 78 -196 194c0 111 70 182 163 182c79 0 116 -50 126 -82h4c8 39 40 86 106 86c12 0 23 -2 33 -4v4c0 38 15 72 35 96h-532v64h1079v-64h-119v-523l43 -21zM870 88l4 1c-6 67 -8 138 -8 201v288h-269c-27 -23 -47 -57 -47 -95c0 -17 4 -32 13 -45
c17 -25 49 -40 93 -40c40 0 67 11 103 32l31 -59l-224 -134z" />
    <glyph glyph-name="bnC_CA" horiz-adv-x="851" 
d="M664 410c87 -32 135 -79 135 -162c0 -122 -112 -249 -239 -249c-85 0 -135 49 -135 125v154c-24 -92 -106 -161 -204 -161c-85 0 -136 49 -136 126v335h-105v64h891v-64h-377v-27c0 -57 35 -90 88 -110zM497 421h-4c1 -9 4 -63 4 -157v-138c0 -36 20 -60 64 -60
c69 0 165 87 165 183c0 39 -18 71 -87 96l-64 24c-45 16 -68 39 -78 52zM155 494h-4c1 -10 6 -64 6 -158v-90c0 -38 19 -61 64 -61c69 0 140 64 140 148c0 39 -17 70 -85 94l-44 16c-45 15 -65 35 -77 51zM300 492c68 -25 109 -58 125 -109v195h-270c12 -31 42 -49 87 -65z
" />
    <glyph glyph-name="bnNY_CA" horiz-adv-x="766" 
d="M488 22l-51 -50l-358 170v84c86 61 181 119 266 162c-28 73 -76 136 -152 136c-57 0 -83 -32 -83 -71c0 -28 11 -47 25 -63l-60 -27c-21 22 -35 54 -35 92c0 77 55 136 149 136c86 0 151 -52 186 -127h4c-1 7 -9 85 -9 162v16h73v-9c0 -48 -5 -96 -6 -102l2 -1
c28 40 71 65 132 65c86 0 140 -58 140 -134c0 -58 -29 -98 -73 -115v-4c45 -15 85 -53 85 -119c0 -78 -52 -143 -142 -143c-64 0 -109 26 -138 67v-102zM375 77h4c-5 71 -7 135 -7 198v50c-66 -36 -146 -85 -228 -139zM563 529c-63 0 -120 -61 -120 -185
c0 -112 45 -198 131 -198c54 0 79 38 79 80c0 48 -31 81 -93 81h-23v67h19c56 0 84 34 84 85c0 40 -27 70 -77 70z" />
    <glyph glyph-name="bnSH_CA" horiz-adv-x="937" 
d="M582 421h-4c2 -9 5 -63 5 -157v-138c0 -36 19 -60 64 -60c69 0 165 87 165 183c0 39 -18 71 -87 96l-65 24c-44 16 -67 39 -78 52zM750 410c87 -32 135 -79 135 -162c0 -122 -112 -249 -239 -249c-85 0 -135 49 -135 125v454h-119c-61 0 -120 -47 -120 -129
c0 -72 57 -115 124 -115c17 0 39 5 53 11v-70c-11 -3 -34 -7 -54 -7c-67 0 -127 32 -161 81c-30 -50 -85 -81 -155 -81c-20 0 -45 4 -56 7v68c13 -6 37 -9 55 -9c76 0 122 50 122 116c0 88 -55 128 -127 128h-93v64h93c72 0 131 -30 164 -80c34 48 90 80 152 80h568v-64
h-377v-27c0 -57 35 -90 88 -110z" />
    <glyph glyph-name="bnC_CHA" horiz-adv-x="937" 
d="M487 578c17 -37 88 -47 145 -74c20 6 45 9 62 9c102 0 184 -69 184 -175c0 -127 -93 -200 -272 -208v-4c27 -7 67 -23 137 -59l156 -82l-49 -54c-286 155 -335 178 -403 188v67h95c180 0 264 56 264 152c0 71 -55 110 -111 110c6 -12 9 -27 9 -44
c0 -77 -64 -151 -157 -151c-61 0 -100 28 -114 70c-7 -110 -99 -201 -212 -201c-85 0 -136 49 -136 126v330h-105v64h977v-64h-470zM637 405c0 60 -94 52 -142 92v-131c0 -29 14 -50 51 -50c51 0 91 44 91 89zM155 496h-4c2 -10 6 -64 6 -157v-89c0 -37 19 -61 65 -61
c68 0 137 64 137 147c0 39 -16 70 -84 94l-41 13c-44 16 -66 35 -79 53zM299 494c68 -24 111 -58 127 -109v193h-270c14 -28 43 -47 86 -63z" />
    <glyph glyph-name="bnNY_CHA" horiz-adv-x="699" 
d="M606 -205l-41 -58c-246 101 -356 146 -452 150v67h119c105 0 192 22 192 89c0 25 -10 43 -26 60c-31 -31 -85 -60 -156 -60c-103 0 -185 53 -185 154c0 190 277 177 277 298c0 51 -42 84 -103 84c-58 0 -96 -30 -96 -84c0 -23 10 -47 29 -65l-54 -36
c-30 24 -46 63 -46 102c0 93 71 150 166 150c68 0 119 -28 146 -71c31 45 78 67 129 67c73 0 132 -42 132 -122c0 -37 -18 -75 -56 -92v-4c42 -16 65 -53 65 -98c0 -69 -46 -124 -133 -124c-98 0 -159 71 -173 172c-19 -15 -40 -26 -62 -37c63 -161 217 -168 217 -296
c0 -88 -77 -130 -180 -138v-4s52 -6 162 -51zM567 518c0 38 -25 59 -65 59c-58 0 -106 -54 -106 -153c0 -100 46 -156 114 -156c42 0 66 24 66 61c0 40 -23 62 -83 62h-19v64h19c54 0 74 27 74 63zM240 111c47 0 82 18 105 36c-42 33 -93 76 -125 161
c-50 -26 -91 -56 -91 -111s44 -86 111 -86z" />
    <glyph glyph-name="bnSH_CHA" horiz-adv-x="1007" 
d="M557 578c17 -36 87 -46 143 -73c22 5 44 8 64 8c102 0 184 -69 184 -175c0 -127 -90 -199 -272 -207v-4c27 -7 68 -24 137 -60l158 -83l-50 -54c-316 172 -350 184 -424 192v64h116c179 0 263 56 263 152c0 70 -50 106 -111 110c6 -13 9 -27 9 -44
c0 -77 -64 -151 -157 -151c-79 0 -121 47 -121 112v213h-108c-61 0 -120 -47 -120 -129c0 -72 57 -115 124 -115c17 0 40 5 53 11v-70c-11 -3 -34 -7 -53 -7c-68 0 -128 32 -162 81c-30 -50 -85 -81 -155 -81c-20 0 -45 4 -56 7v68c14 -6 37 -9 55 -9c76 0 122 50 122 116
c0 88 -55 128 -127 128h-88v64h88c72 0 131 -30 164 -80c35 48 90 80 152 80h642v-64h-470zM707 405c0 60 -94 52 -142 92v-131c0 -29 15 -50 53 -50c52 0 89 44 89 89z" />
    <glyph glyph-name="bnNY_JA" horiz-adv-x="763" 
d="M599 -115v177c0 53 7 99 21 142c-17 -8 -38 -12 -62 -12c-106 0 -160 75 -175 173c-40 -44 -87 -79 -87 -125c0 -30 25 -48 67 -53l105 -14c29 -26 45 -69 45 -111c0 -93 -56 -160 -176 -160c-173 0 -297 166 -303 362l70 20c3 -171 99 -313 233 -313c70 0 105 39 105 90
c0 21 -5 39 -14 51l-81 10c-72 9 -124 47 -124 117c0 114 151 165 151 254c0 54 -41 86 -103 86c-57 0 -96 -30 -96 -85c0 -24 12 -49 31 -67l-55 -37c-29 24 -47 64 -47 104c0 98 73 151 166 151c69 0 120 -27 147 -70c28 43 73 69 135 69c79 0 128 -53 128 -119
c0 -51 -26 -85 -63 -99v-4c37 -13 74 -47 74 -103c0 -22 -5 -43 -14 -61l29 -23c-23 -45 -37 -102 -37 -175v-175h-70zM612 518c0 37 -24 61 -68 61c-56 0 -106 -49 -106 -155c0 -99 40 -167 115 -167c45 0 70 26 70 66c0 43 -31 67 -82 67h-21v60h18c46 0 74 23 74 68z" />
    <glyph glyph-name="bnJ_JA" horiz-adv-x="1146" 
d="M700 16c81 0 120 49 120 99c0 24 -6 44 -16 56l-93 6c-69 5 -116 40 -116 106c0 44 31 92 75 133c-101 2 -190 34 -227 109c-54 -29 -127 -86 -127 -133c0 -31 23 -42 55 -44l120 -10c29 -25 47 -72 47 -114c0 -32 -8 -61 -24 -87c41 -73 106 -121 186 -121zM-20 578v64
h1186v-64h-671c29 -83 106 -101 222 -101h83c30 -70 70 -142 224 -142h47l33 -51c-25 -45 -55 -114 -55 -209v-160h-70v164c0 105 38 180 44 193c-118 3 -205 29 -263 129c-47 -36 -88 -78 -88 -114c0 -30 23 -41 55 -43l120 -10c29 -26 47 -76 47 -117
c0 -93 -69 -170 -193 -170c-101 0 -186 54 -241 138c-30 -19 -69 -30 -115 -30c-176 0 -302 166 -308 362l70 20c3 -172 100 -313 237 -313c81 0 120 48 120 99c0 23 -7 40 -16 52l-92 6c-70 6 -116 41 -116 106c0 74 80 146 163 191h-423z" />
    <glyph glyph-name="bnN_JA" horiz-adv-x="874" 
d="M898 578h-475v-79c80 -63 213 -100 344 -100h40l33 -53c-32 -61 -52 -128 -52 -233v-186h-71v190c0 124 36 204 42 217c-115 1 -245 28 -336 86v-123c0 -39 25 -50 57 -53l104 -10c27 -26 47 -72 47 -113c0 -104 -67 -178 -205 -178c-150 0 -266 110 -308 252l62 36
c34 -126 124 -219 245 -219c93 0 132 48 132 107c0 22 -6 41 -16 52l-73 6c-58 5 -100 28 -114 74c-38 89 -84 179 -167 179c-51 0 -78 -32 -78 -72c0 -29 12 -48 26 -65l-58 -28c-22 22 -38 56 -38 96c0 77 54 136 146 136c88 0 138 -53 171 -116h4c-1 7 -9 44 -9 170v27
h-371v64h918v-64z" />
    <glyph glyph-name="bnB_JA" horiz-adv-x="836" 
d="M856 578h-472v-79c80 -63 213 -100 344 -100h40l33 -53c-32 -61 -52 -128 -52 -233v-186h-70v190c0 124 35 204 41 217c-115 1 -244 28 -336 86v-123c0 -39 25 -50 57 -53l104 -10c27 -26 47 -72 47 -113c0 -104 -66 -178 -205 -178c-147 0 -263 106 -305 246l61 37
c34 -124 124 -214 244 -214c92 0 132 48 132 107c0 22 -7 41 -17 52l-72 6c-21 2 -41 6 -57 13l-317 136v74c44 39 145 109 256 148v30h-332v64h876v-64zM312 298v178c-62 -25 -141 -70 -187 -106l187 -82v10z" />
    <glyph glyph-name="bnNY_JHA" horiz-adv-x="856" 
d="M659 -24h4c-6 68 -6 133 -6 198v2h-6c-66 0 -121 45 -136 69c2 -9 5 -54 5 -102v-95zM389 644c68 0 105 -38 117 -81c14 30 62 82 140 82c79 0 134 -51 134 -123c0 -50 -27 -87 -67 -104v-4c38 -12 78 -46 78 -107c0 -50 -24 -91 -66 -114v-263l-65 -31l-140 72v-127
l45 -23l-52 -50l-334 173v77c52 41 145 94 227 127c-30 16 -76 26 -138 33c-158 19 -233 72 -233 170c0 40 13 78 33 108l63 -27c-16 -23 -25 -52 -25 -80c0 -61 58 -87 165 -101c121 -15 160 -37 187 -68h4c-3 24 -13 79 -13 196v126c0 47 -17 73 -64 73
c-82 0 -140 -68 -140 -140c0 -39 23 -61 62 -61c31 0 55 14 65 22l27 -55c-24 -19 -59 -30 -95 -30c-79 0 -130 51 -130 124c0 105 87 206 215 206zM638 579c-54 0 -120 -49 -120 -164c0 -102 47 -172 128 -172c50 0 75 33 75 68c0 45 -31 71 -86 71h-23v61h18
c50 0 80 30 80 75c0 35 -24 61 -72 61zM453 -122h4c-5 71 -7 100 -7 179v35c-70 -28 -150 -73 -200 -107z" />
    <glyph glyph-name="bnJ_JHA" horiz-adv-x="1000" 
d="M837 -54c-5 67 -6 136 -6 201v431h-356c12 -72 67 -160 206 -160h21l33 -52c-25 -45 -48 -114 -48 -208v-134l146 -78h4zM687 -188l45 -22l-52 -51l-335 173v77c61 49 181 114 271 144v28c0 105 32 180 38 193c-123 4 -217 88 -235 174c-44 -26 -114 -65 -114 -113
c0 -27 23 -40 67 -43l106 -9c29 -25 48 -70 48 -112c0 -92 -67 -166 -190 -166c-176 0 -301 165 -309 359l70 20c4 -171 100 -310 237 -310c81 0 119 43 119 94c0 23 -7 40 -16 52l-88 7c-70 7 -120 36 -120 102c0 80 80 133 149 169h-398v64h1040v-64h-120v-678l-67 -31
l-146 77v-134zM622 -153c-5 70 -6 100 -6 179v35c-70 -28 -150 -74 -200 -107l202 -107h4z" />
    <glyph glyph-name="bnC_NYA" horiz-adv-x="1040" 
d="M-20 578v64h1080v-64h-906c13 -27 41 -46 81 -60l61 -22c57 -21 96 -48 116 -88c40 41 98 69 166 69s104 -36 116 -79c14 29 62 81 139 81c79 0 134 -52 134 -124c0 -52 -30 -88 -70 -104v-4c39 -11 81 -46 81 -107c0 -74 -54 -130 -140 -130c-66 0 -120 46 -135 69
c2 -8 5 -49 5 -98v-79h-67c0 76 -59 98 -186 112c-141 16 -198 57 -225 109c-5 -1 -10 -1 -15 -1c-82 0 -130 49 -130 123v333h-105zM152 500h-4c1 -9 6 -62 6 -153v-99c0 -36 18 -59 62 -59c67 0 141 64 141 151c0 38 -16 70 -84 94l-44 15c-44 15 -65 34 -77 51zM651 15
c-4 24 -13 78 -13 195v130c0 47 -17 72 -64 72c-83 0 -150 -67 -150 -139c0 -38 23 -60 62 -60c31 0 55 14 65 22l27 -56c-23 -19 -61 -29 -96 -29c-49 0 -86 19 -107 50c-20 -24 -44 -43 -71 -57c18 -29 57 -54 157 -66c120 -14 163 -33 186 -62h4zM897 351
c0 35 -24 62 -72 62c-54 0 -120 -50 -120 -164c0 -102 47 -173 129 -173c49 0 74 33 74 68c0 45 -31 72 -86 72h-23v61h19c49 0 79 29 79 74z" />
    <glyph glyph-name="bnK_TTA" horiz-adv-x="654" 
d="M59 920l70 15c-1 -11 -3 -22 -3 -33c0 -37 16 -75 98 -75h171c99 0 173 -47 173 -140c0 -13 -2 -29 -4 -45h110v-64h-286v-33c143 -6 221 -76 221 -166c0 -81 -44 -131 -99 -159l-46 54c40 16 74 50 74 105c0 66 -55 98 -150 102v-272c-87 -20 -197 -65 -197 -172
c0 -74 64 -114 149 -114c91 0 136 42 136 92c0 38 -27 62 -63 62c-20 0 -43 -8 -57 -21l-38 58c21 18 54 32 95 32c71 0 135 -48 135 -133c0 -97 -85 -159 -208 -159c-133 0 -222 73 -222 182c0 102 65 162 133 194l-205 107v71c65 64 159 119 272 133v37h-338v64h511
c3 14 5 31 5 40c0 57 -35 80 -112 80h-165c-125 0 -162 64 -162 129c0 10 1 19 2 29zM320 270h4c-5 70 -6 133 -6 196v10c-79 -15 -153 -56 -200 -100z" />
    <glyph glyph-name="bnTT_TTA" horiz-adv-x="640" 
d="M34 920l70 15c-1 -11 -3 -22 -3 -33c0 -37 16 -75 98 -75h169c99 0 174 -47 174 -140c0 -13 -2 -29 -5 -45h123v-64h-428v-327c0 -50 31 -79 85 -79c88 0 156 72 156 163c0 45 -21 80 -71 80c-25 0 -49 -14 -62 -33l-40 59c19 22 54 43 102 43c86 0 145 -60 145 -148
c0 -36 -7 -69 -20 -99c32 -34 50 -78 50 -134c0 -130 -93 -214 -233 -214c-153 0 -274 109 -326 266l58 42c44 -137 137 -240 267 -240c100 0 161 59 161 147c0 31 -6 53 -18 71c-40 -44 -99 -71 -169 -71c-94 0 -157 53 -157 142v332h-180v64h485c3 14 4 31 4 40
c0 57 -34 80 -112 80h-163c-126 0 -162 64 -162 129c0 10 0 19 2 29z" />
    <glyph glyph-name="bnNN_TTA" horiz-adv-x="862" 
d="M281 920l69 15c-1 -11 -3 -22 -3 -33c0 -37 16 -75 98 -75h171c99 0 173 -47 173 -140c0 -13 -1 -29 -4 -45h97v-64h-394v-379c0 -45 24 -79 77 -79c88 0 164 81 164 174c0 51 -21 90 -71 90c-26 0 -49 -13 -62 -32l-41 58c20 22 55 44 103 44c85 0 144 -65 144 -160
c0 -120 -99 -242 -240 -242c-89 0 -147 57 -147 142v128c0 146 -46 253 -165 253c-90 0 -137 -58 -137 -134c0 -77 51 -118 118 -118c31 0 59 11 76 24l24 -64c-23 -17 -63 -28 -102 -28c-115 0 -190 80 -190 186c0 114 76 201 208 201c81 0 138 -38 164 -83h4v83h297
c3 14 5 31 5 40c0 57 -35 80 -112 80h-165c-125 0 -161 64 -161 129c0 10 0 19 2 29z" />
    <glyph glyph-name="bnN_TTA" horiz-adv-x="815" 
d="M233 920l69 15c-1 -11 -3 -22 -3 -33c0 -37 17 -75 99 -75h170c99 0 174 -47 174 -140c0 -13 -2 -29 -5 -45h98v-64h-395v-381c0 -45 24 -78 77 -78c89 0 164 80 164 174c0 50 -21 90 -71 90c-26 0 -49 -14 -62 -33l-41 58c20 23 55 44 103 44c85 0 144 -64 144 -159
c0 -120 -99 -243 -239 -243c-90 0 -148 58 -148 142v7c-15 97 -66 215 -174 215c-57 0 -83 -32 -83 -72c0 -27 11 -46 25 -63l-61 -26c-20 22 -35 53 -35 91c0 78 56 137 150 137c85 0 146 -44 183 -116h4c-1 7 -10 69 -10 195v18h-386v64h685c2 14 4 31 4 40
c0 57 -34 80 -112 80h-165c-125 0 -161 64 -161 129c0 10 0 19 2 29z" />
    <glyph glyph-name="bnL_TTA" horiz-adv-x="999" 
d="M417 920l70 15c-1 -11 -3 -22 -3 -33c0 -37 16 -75 98 -75h171c99 0 173 -47 173 -140c0 -13 -2 -29 -4 -45h97v-64h-394v-379c0 -45 24 -79 77 -79c88 0 164 81 164 174c0 51 -22 90 -71 90c-26 0 -49 -13 -63 -32l-40 58c20 22 55 44 103 44c85 0 144 -65 144 -160
c0 -120 -99 -242 -240 -242c-89 0 -147 57 -147 142v156c-8 25 -37 60 -87 60c-49 0 -84 -36 -84 -98v-39h-71v38c0 64 -37 95 -88 95c-48 0 -91 -38 -91 -109c0 -84 57 -131 127 -131c25 0 51 6 73 19l16 -66c-28 -13 -58 -19 -89 -19c-114 0 -202 81 -202 197
c0 111 76 178 162 178c78 0 113 -39 127 -73h4c11 39 43 76 108 76c49 0 79 -23 91 -36h4v136h-572v64h869c3 14 5 31 5 40c0 57 -35 80 -112 80h-165c-125 0 -162 64 -162 129c0 10 1 19 2 29z" />
    <glyph glyph-name="bnSS_TTA" horiz-adv-x="556" 
d="M9 920l70 15c-1 -11 -3 -22 -3 -33c0 -37 16 -75 98 -75h139c99 0 173 -47 173 -140c0 -13 -2 -29 -4 -45h94v-64h-143c28 -31 44 -73 44 -124c0 -93 -51 -155 -126 -178c-89 -36 -212 -61 -212 -174c0 -77 65 -117 149 -117c91 0 136 45 136 95c0 38 -26 62 -62 62
c-21 0 -43 -8 -57 -21l-38 58c20 18 54 32 95 32c71 0 134 -48 134 -133c0 -98 -84 -163 -208 -163c-133 0 -222 73 -222 185c0 95 58 151 122 181c-66 27 -110 87 -110 173c0 51 16 93 44 124h-142v64h429c3 14 5 31 5 40c0 57 -35 80 -112 80h-133
c-125 0 -162 64 -162 129c0 10 1 19 2 29zM277 330c30 0 55 7 76 21l-190 162c-9 -17 -14 -38 -14 -59c0 -74 52 -124 128 -124zM277 581c-30 0 -56 -9 -77 -24l191 -165c10 18 15 39 15 62c0 68 -52 127 -129 127z" />
    <glyph glyph-name="bnP_TTA" horiz-adv-x="924" 
d="M343 920l69 15c-1 -11 -3 -22 -3 -33c0 -37 16 -75 98 -75h171c99 0 173 -47 173 -140c0 -13 -1 -29 -4 -45h97v-64h-394v-392c0 -45 24 -78 77 -78c88 0 164 80 164 174c0 50 -22 90 -71 90c-26 0 -49 -14 -63 -33l-40 58c20 23 55 44 103 44c85 0 144 -65 144 -159
c0 -120 -99 -243 -240 -243c-89 0 -147 58 -147 142v141c0 28 -3 54 -8 79l-297 -202l-37 56l98 67c-12 60 -47 101 -105 115c-16 5 -31 7 -59 7l-41 61c39 63 125 139 248 139c124 0 181 -63 211 -120l4 1c-2 5 -13 52 -13 101v16h296c3 14 5 31 5 40c0 57 -35 80 -112 80
h-165c-125 0 -161 64 -161 129c0 10 0 19 2 29zM119 502c81 -4 149 -50 171 -142l158 107c-32 67 -88 110 -169 110c-84 0 -139 -48 -160 -75z" />
    <glyph glyph-name="bnPH_TTA" horiz-adv-x="793" 
d="M298 935c-1 -11 -3 -22 -3 -33c0 -37 16 -75 98 -75h171c99 0 173 -47 173 -140c0 -13 -1 -29 -4 -45h80v-64h-671v-4l125 -115v-61l-141 -95l245 -126h4c-5 72 -7 133 -7 197v123c35 15 77 23 122 23c108 0 200 -50 200 -162c0 -93 -63 -141 -124 -164l-38 59
c52 19 90 50 90 103c0 61 -51 96 -114 96c-27 0 -45 -2 -63 -7v-482c0 -49 25 -82 81 -82c86 0 160 60 160 143c0 45 -27 78 -71 78c-26 0 -49 -14 -62 -32l-41 58c20 22 55 44 103 44c82 0 144 -56 144 -148c0 -114 -96 -211 -233 -211c-94 0 -153 56 -153 146v143
l-319 164v68l148 98l-137 126v20h-81v64h680c3 14 5 31 5 40c0 57 -35 80 -112 80h-165c-125 0 -162 64 -162 129c0 10 1 19 2 29z" />
    <glyph glyph-name="bnS_TTA" horiz-adv-x="651" 
d="M137 935c-1 -11 -3 -22 -3 -33c0 -37 16 -75 98 -75h171c99 0 173 -47 173 -140c0 -13 -2 -29 -4 -45h99v-64h-90c4 -19 6 -38 6 -58c0 -70 -30 -127 -89 -150c-106 -43 -270 -66 -270 -201c0 -74 65 -117 149 -117c91 0 137 43 137 92c0 39 -27 63 -63 63
c-21 0 -43 -9 -57 -21l-38 58c20 18 54 32 95 32c71 0 137 -48 137 -133c0 -98 -87 -162 -211 -162c-133 0 -225 78 -225 186c0 129 106 190 194 219c-29 20 -49 48 -61 80c-21 -60 -61 -104 -129 -104c-57 0 -104 34 -134 78l46 45c23 -30 50 -58 88 -58c65 0 85 86 91 151
h-267v64h519c3 14 5 31 5 40c0 57 -35 80 -112 80h-165c-125 0 -162 64 -162 129c0 10 1 19 2 29zM516 523c0 20 -2 38 -7 55h-186c3 -81 39 -153 113 -153c58 0 80 43 80 98z" />
    <glyph glyph-name="bnNN_TTHA" horiz-adv-x="805" 
d="M759 218c0 -112 -79 -210 -214 -210c-143 0 -231 102 -231 248c24 6 45 13 64 21c0 110 -7 301 -158 301c-75 0 -115 -52 -115 -119c0 -61 39 -105 105 -105c29 0 53 7 72 19l21 -62c-23 -13 -57 -23 -95 -23c-106 0 -175 67 -175 171c0 101 61 185 187 185
c140 0 228 -113 228 -307v-14c27 30 39 69 39 124v90c-129 141 -137 204 -137 247c0 85 63 145 144 147c6 1 13 1 24 0l15 -66c-4 1 -10 1 -15 1c-58 0 -95 -34 -95 -87c0 -42 25 -88 67 -137h335v-64h-286c137 -145 220 -248 220 -360zM548 411
c-7 -143 -104 -181 -155 -196c4 -66 52 -139 154 -139c88 0 139 66 139 141c0 93 -69 176 -136 247c1 -14 0 -41 -2 -53z" />
    <glyph glyph-name="bnN_TTHA" horiz-adv-x="713" 
d="M667 218c0 -112 -79 -210 -214 -210c-137 0 -237 100 -237 247c58 15 101 33 131 61c-43 75 -98 119 -163 119c-55 0 -81 -32 -81 -71c0 -27 8 -46 24 -64l-62 -25c-20 23 -33 53 -33 90c0 78 53 137 148 137c87 0 157 -49 205 -126c7 20 10 43 10 71v90l-35 41h-380v64
h333c-49 68 -55 107 -55 142c0 94 70 151 168 149l15 -68c-59 2 -110 -26 -110 -86c0 -36 18 -76 67 -137h335v-64h-282c132 -149 216 -248 216 -360zM457 417c-5 -146 -104 -186 -156 -202c4 -66 57 -139 154 -139c88 0 140 66 140 141c0 93 -71 176 -137 248
c0 -12 0 -37 -1 -48z" />
    <glyph glyph-name="bnSS_TTHA" horiz-adv-x="678" 
d="M35 454c0 -99 57 -165 139 -185c11 -158 112 -242 238 -242c136 0 215 97 215 209s-81 197 -219 342h290v64h-338c-42 49 -67 95 -67 137c0 58 44 93 110 86l-15 68c-98 4 -166 -58 -166 -150c0 -43 14 -93 56 -141h-298v-64h96c-26 -30 -41 -71 -41 -124zM252 261
c55 9 171 48 166 207c66 -74 136 -140 136 -233c0 -75 -52 -141 -140 -141c-96 0 -153 71 -162 167zM357 456c0 -23 -6 -45 -15 -63l-191 162c21 18 48 28 80 28c74 0 126 -57 126 -127zM107 456c0 19 3 37 10 52l188 -159c-20 -14 -46 -23 -74 -23c-74 0 -124 54 -124 130z
" />
    <glyph glyph-name="bnDD_DDA" horiz-adv-x="1137" 
d="M1157 578h-367v-162c0 -35 13 -55 49 -55c29 0 98 21 169 87c33 -22 75 -81 75 -156c0 -140 -100 -236 -257 -236c-118 0 -205 57 -259 144c-43 -59 -117 -94 -213 -94c-201 0 -310 165 -319 357l70 15c7 -191 107 -304 250 -304c110 0 183 64 183 164c0 25 -4 47 -16 65
c-48 -41 -107 -62 -161 -62c-73 0 -115 50 -115 119v118h-266v64h1177v-64zM827 125c110 0 184 66 184 165c0 25 -4 48 -16 66c-48 -41 -109 -64 -159 -64c-77 0 -120 50 -120 120v166h-397v-114c0 -34 14 -54 47 -54c31 0 98 19 170 85c34 -24 74 -81 74 -155
c0 -20 -2 -39 -6 -57c41 -102 122 -158 223 -158z" />
    <glyph glyph-name="bnNN_DDA" horiz-adv-x="761" 
d="M70 463c0 109 68 180 189 180c93 0 144 -44 174 -112c28 41 57 94 67 111h46c66 -40 124 -102 124 -184c0 -56 -18 -102 -53 -141c39 -30 68 -79 68 -144c0 -132 -111 -209 -254 -209c-179 0 -310 109 -392 272l60 42c83 -167 194 -244 333 -244c112 0 179 61 179 140
c0 41 -18 75 -45 97c-23 -16 -50 -32 -80 -47l-47 57c102 49 160 97 160 177c0 44 -30 81 -62 104c-15 -26 -48 -83 -77 -120h-60c-16 81 -59 134 -138 134c-77 0 -118 -43 -118 -114c0 -70 44 -110 111 -110c34 0 61 10 79 22l24 -62c-24 -17 -66 -28 -105 -28
c-116 0 -183 81 -183 179z" />
    <glyph glyph-name="bnN_DDA" horiz-adv-x="764" 
d="M-20 578v64h804v-64h-358v-224c0 -34 14 -55 47 -55c31 0 100 21 171 87c33 -22 75 -81 75 -156c0 -144 -99 -236 -256 -236c-161 0 -262 106 -308 235l59 45c42 -129 129 -211 249 -211c111 0 184 66 184 165c0 25 -4 48 -16 66c-48 -41 -109 -64 -163 -64
c-51 0 -87 25 -104 64c-39 81 -97 152 -180 152c-57 0 -83 -32 -83 -71c0 -28 11 -47 25 -64l-60 -26c-21 22 -35 54 -35 91c0 78 55 137 149 137c83 0 141 -43 179 -97h4c-1 7 -8 50 -9 162h-374z" />
    <glyph glyph-name="bnB_DDA" horiz-adv-x="708" 
d="M728 578h-357v-258c0 -34 14 -54 47 -54c31 0 100 21 171 87c33 -22 75 -82 75 -157c0 -143 -99 -235 -256 -235c-150 0 -257 96 -303 222l58 48c40 -129 130 -201 245 -201c111 0 184 65 184 165c0 25 -4 47 -16 65c-48 -40 -109 -63 -161 -63c-19 0 -35 3 -50 9
l-314 129v77c62 55 168 119 248 147v19h-318v64h747v-64zM299 317v169c-60 -25 -132 -69 -179 -107l179 -73v11z" />
    <glyph glyph-name="bnL_DDA" horiz-adv-x="947" 
d="M967 578h-356v-211c0 -34 14 -54 47 -54c31 0 100 21 172 87c32 -22 74 -82 74 -157c0 -143 -99 -235 -256 -235c-132 0 -228 69 -279 173l58 50c42 -99 122 -155 221 -155c111 0 184 66 184 165c0 25 -4 48 -16 67c-48 -41 -109 -64 -160 -64c-76 0 -118 51 -118 120v8
c-8 25 -37 60 -86 60s-82 -36 -82 -97v-38h-69v37c0 64 -37 94 -88 94c-48 0 -89 -38 -89 -109c0 -84 53 -129 122 -129c24 0 46 5 68 17l14 -64c-26 -13 -55 -18 -82 -18c-111 0 -195 79 -195 194c0 110 74 177 159 177c76 0 110 -38 124 -73h4c11 39 43 76 106 76
c48 0 78 -23 90 -36h4v115h-558v64h987v-64z" />
    <glyph glyph-name="bnNN_DDHA" horiz-adv-x="862" 
d="M488 578v-379c0 -45 24 -79 77 -79c88 0 164 81 164 174c0 51 -21 90 -71 90c-26 0 -49 -13 -62 -32l-41 58c20 22 55 44 103 44c85 0 144 -65 144 -160c0 -120 -99 -242 -240 -242c-89 0 -147 57 -147 142v128c0 146 -45 253 -164 253c-91 0 -138 -58 -138 -135
c0 -76 51 -117 118 -117c31 0 59 11 76 24l24 -64c-23 -17 -63 -28 -102 -28c-115 0 -190 80 -190 186c0 114 76 201 208 201c81 0 138 -38 164 -83h4v83h467v-64h-394z" />
    <glyph glyph-name="bnN_DDHA" horiz-adv-x="816" 
d="M-20 578v64h856v-64h-397v-383c0 -45 24 -78 78 -78c89 0 165 79 165 175c0 51 -21 91 -70 91c-27 0 -50 -15 -64 -34l-40 58c20 23 53 45 103 45c86 0 145 -66 145 -160c0 -123 -100 -244 -239 -244c-93 0 -151 58 -151 142v5c-14 100 -66 222 -177 222
c-57 0 -83 -32 -83 -72c0 -27 11 -46 25 -63l-60 -26c-21 22 -35 54 -35 91c0 78 55 137 149 137c86 0 150 -46 187 -120h4c-1 6 -10 69 -10 194v20h-386z" />
    <glyph glyph-name="bnB_DDHA" horiz-adv-x="788" 
d="M808 578h-396v-387c0 -46 28 -79 85 -79c89 0 158 80 158 175c0 51 -22 91 -77 91c-24 0 -48 -8 -61 -18l-27 62c19 13 54 25 89 25c90 0 150 -66 150 -160c0 -123 -93 -244 -232 -244c-75 0 -128 35 -148 91l-311 161v78c100 83 230 147 303 172v33h-361v64h828v-64z
M341 218v253c-55 -22 -153 -70 -236 -134z" />
    <glyph glyph-name="bnNN_NNA" horiz-adv-x="619" 
d="M446 363c-3 118 -55 222 -173 222c-91 0 -138 -58 -138 -135c0 -61 32 -101 80 -116c17 3 35 5 54 5c108 0 158 -65 182 -108h4c-3 21 -8 68 -9 132zM520 -54h-74v73c0 147 -54 253 -174 253c-89 0 -137 -58 -137 -134c0 -77 52 -118 118 -118c31 0 59 11 77 24l24 -64
c-24 -17 -63 -28 -102 -28c-116 0 -190 80 -190 186c0 68 27 127 76 162c-48 31 -76 84 -76 151c0 114 75 201 207 201c108 0 159 -65 183 -108h4c-5 24 -9 73 -9 152v45h73v-99h119v-64h-119v-632z" />
    <glyph glyph-name="bnH_NNA" horiz-adv-x="512" 
d="M81 225h62c156 0 220 57 220 138c0 62 -44 103 -114 103c-59 0 -101 -34 -101 -86c0 -26 13 -53 39 -68l-52 -39c-38 24 -59 66 -59 109c0 87 72 150 173 150c109 0 185 -70 185 -172c0 -110 -78 -166 -186 -179v-4c30 -8 71 -21 137 -52l135 -64l-43 -54
c-16 8 -32 16 -47 23v-307h-71v37c0 131 -45 229 -153 229c-65 0 -103 -39 -103 -101c0 -58 41 -90 97 -90c27 0 49 5 67 14l18 -61c-25 -12 -50 -18 -86 -18c-96 0 -167 58 -167 155c0 93 59 166 168 166c92 0 144 -53 165 -93h4c-4 20 -7 56 -9 102
c-172 81 -213 88 -279 97v65zM532 578h-552v64h552v-64z" />
    <glyph glyph-name="bnSS_NNA" horiz-adv-x="792" 
d="M501 35l-51 -49l-394 243v70l148 126l-153 133v20h-71v64h481v-62c29 37 71 59 128 59c86 0 141 -58 141 -135c0 -57 -30 -97 -73 -114v-4c44 -15 84 -53 84 -119c0 -78 -52 -143 -147 -143c-60 0 -104 25 -133 65v-130zM130 578v-3l260 -224v227h-260zM659 503
c0 40 -25 70 -76 70c-62 0 -121 -61 -121 -185c0 -113 45 -198 130 -198c54 0 79 38 79 80c0 48 -31 81 -92 81h-24v67h20c55 0 84 34 84 85zM397 100c-4 62 -6 117 -7 172l-130 111l-135 -116l268 -167h4z" />
    <glyph glyph-name="bnK_SS_NNA" horiz-adv-x="872" 
d="M548 120c-5 60 -7 140 -7 200v28h-73c-88 0 -152 56 -152 157v73h-197c27 -37 44 -84 44 -130c85 -11 165 -83 165 -191v-18c104 -8 193 -76 220 -119zM467 415h74v163h-153v-74c0 -60 28 -89 79 -89zM892 578h-279v-163h42c108 0 175 -59 175 -150
c0 -81 -42 -131 -97 -159l-46 54c40 17 73 51 73 105c0 58 -43 83 -103 83h-44v-628h-71v51c0 144 -45 248 -160 248c-74 0 -117 -42 -117 -113c0 -60 38 -100 106 -100c45 0 72 24 90 44l25 -62c-22 -22 -58 -48 -116 -48c-104 0 -177 64 -177 167c0 99 63 177 183 177
c101 0 150 -57 172 -99h4c-1 6 -2 14 -3 23c-31 83 -123 157 -231 167c-17 -58 -53 -77 -79 -77c-34 0 -56 20 -56 54c0 35 28 68 76 82v21c0 72 -46 117 -103 130c-15 -55 -51 -77 -79 -77c-34 0 -55 21 -55 55c0 36 27 69 75 82c-1 58 -26 101 -60 133h-57v64h912v-64z
" />
    <glyph glyph-name="bnK_TA" horiz-adv-x="918" 
d="M938 578h-958v64h958v-64zM356 228c94 41 152 88 152 158c0 42 -28 73 -79 73c-64 0 -103 -51 -119 -94l-61 37c24 71 92 123 179 123c71 0 120 -35 141 -85c32 44 77 70 139 70c97 0 169 -62 169 -163c0 -110 -73 -164 -156 -164c-30 0 -61 6 -86 18l17 63
c24 -10 43 -13 64 -13c48 0 88 34 88 95c0 58 -36 96 -97 96c-78 0 -107 -70 -150 -145c-9 -16 -21 -31 -35 -45c52 -25 98 -74 98 -147c0 -100 -73 -175 -197 -175c-204 0 -328 205 -385 461l66 31c56 -261 167 -423 320 -423c80 0 122 50 122 108c0 47 -31 86 -77 103
c-19 -12 -40 -23 -64 -34z" />
    <glyph glyph-name="bnT_TA" horiz-adv-x="681" 
d="M701 578h-721v64h721v-64zM355 228c94 41 152 88 152 158c0 42 -28 73 -79 73c-64 0 -103 -51 -119 -94l-61 37c24 71 92 123 178 123c96 0 152 -63 152 -140c0 -50 -19 -94 -56 -132c52 -25 100 -74 100 -148c0 -100 -74 -175 -196 -175c-206 0 -330 205 -386 461l65 31
c56 -261 167 -423 321 -423c79 0 121 50 121 108c0 48 -32 86 -78 104c-19 -12 -41 -24 -65 -35z" />
    <glyph glyph-name="bnN_TA" horiz-adv-x="637" 
d="M-20 642h677v-64h-130c14 -17 28 -47 28 -89c0 -39 -13 -78 -43 -105c45 -35 67 -95 67 -163c0 -141 -91 -236 -229 -236c-149 0 -247 114 -299 247l59 43c41 -122 123 -224 239 -224c102 0 160 72 160 171c0 68 -27 127 -97 127c-42 0 -73 -27 -73 -75
c0 -32 14 -59 42 -75l-49 -41c-39 23 -64 67 -64 119c0 42 16 79 45 104c-44 29 -72 69 -122 69c-35 0 -59 -23 -59 -58c0 -28 11 -47 25 -63l-61 -27c-20 22 -35 54 -35 92c0 72 45 123 126 123c115 0 136 -98 222 -98c56 0 74 42 74 78c0 42 -23 81 -80 81h-423v64z" />
    <glyph glyph-name="bnP_TA" horiz-adv-x="711" 
d="M124 506c66 -4 140 -39 167 -130l160 111c-36 58 -93 94 -167 94c-84 0 -139 -48 -160 -75zM437 -104c-144 0 -250 108 -303 246l61 43c50 -136 133 -221 241 -221c102 0 161 67 161 166c0 69 -31 125 -98 125c-42 0 -73 -27 -73 -75c0 -32 15 -59 42 -75l-49 -41
c-39 24 -64 67 -64 119c0 76 50 135 137 139v4c0 35 -5 69 -14 99l-308 -216l-37 56l102 71c-16 58 -51 100 -121 110c-10 2 -18 3 -43 3l-42 58c40 64 125 141 252 141c124 0 192 -72 222 -129l4 1c-6 15 -16 101 -16 179v42h74v-99h142v-64h-142v-268
c68 -27 103 -97 103 -181c0 -141 -92 -233 -231 -233z" />
    <glyph glyph-name="bnM_TA" horiz-adv-x="630" 
d="M-20 642h670v-64h-122c14 -17 28 -47 28 -89c0 -41 -14 -81 -46 -108c42 -35 63 -94 63 -160c0 -141 -92 -236 -230 -236c-148 0 -248 113 -300 250l60 43c41 -125 124 -227 239 -227c101 0 160 72 160 171c0 68 -27 127 -97 127c-42 0 -73 -27 -73 -76
c0 -31 14 -58 41 -75l-48 -40c-39 25 -64 67 -64 119c0 44 17 82 48 107c-40 29 -68 66 -117 66c-35 0 -59 -23 -59 -58c0 -28 11 -47 25 -63l-61 -27c-20 22 -35 54 -35 92c0 55 26 97 74 115c-6 27 -18 50 -34 69h-122v64zM410 419c56 0 74 42 74 78c0 42 -22 81 -80 81
h-218c10 -19 17 -39 21 -62c100 -10 123 -97 203 -97z" />
    <glyph glyph-name="bnL_TA" horiz-adv-x="777" 
d="M507 -89c-108 0 -199 66 -256 158l51 48c47 -82 117 -141 205 -141c102 0 160 73 160 172c0 68 -27 127 -97 127c-42 0 -74 -27 -74 -76c0 -32 15 -58 43 -74l-49 -41c-39 23 -64 67 -64 119c0 66 38 119 107 133v54c-7 24 -36 60 -85 60c-48 0 -80 -36 -80 -98v-36h-70
v36c0 62 -36 94 -88 94c-49 0 -89 -39 -89 -108c0 -84 52 -126 118 -126c21 0 43 4 63 14l16 -66c-23 -11 -52 -16 -79 -16c-109 0 -190 79 -190 194c0 109 73 177 158 177c76 0 110 -37 124 -71h4c13 38 43 74 105 74c48 0 77 -23 89 -38h4v98h-553v64h817v-64h-192v-241
c89 -15 132 -95 132 -191c0 -140 -91 -235 -230 -235z" />
    <glyph glyph-name="bnSH_TA" horiz-adv-x="735" 
d="M74 578h-94v64h94c72 0 123 -23 153 -76c27 46 78 75 140 75c76 0 121 -40 134 -61h4c-2 6 -11 58 -11 125v36h72v-99h189v-64h-189v-291c86 -17 133 -95 133 -190c0 -142 -92 -235 -233 -235c-169 0 -276 143 -324 309l61 45c46 -174 137 -286 263 -286
c103 0 162 69 162 168c0 69 -31 126 -98 126c-42 0 -74 -30 -74 -76c0 -32 15 -59 42 -75l-50 -43c-39 23 -65 69 -65 122c0 68 39 123 110 136v148c0 91 -48 137 -122 137c-60 0 -108 -38 -108 -111s44 -111 112 -111c15 0 36 2 48 7v-66c-13 -4 -34 -7 -49 -7
c-67 0 -116 23 -149 75c-29 -54 -75 -77 -145 -77c-20 0 -44 5 -56 8v69c14 -7 37 -10 55 -10c76 0 112 45 112 111c0 80 -45 117 -117 117z" />
    <glyph glyph-name="bnS_TA" horiz-adv-x="657" 
d="M73 484c23 -30 49 -58 88 -58c65 0 85 87 90 152h-271v64h697v-64h-92c4 -19 6 -38 6 -58c0 -57 -20 -106 -59 -134c40 -36 59 -93 59 -157c0 -140 -91 -235 -230 -235c-153 0 -252 119 -303 257l59 43c41 -127 125 -235 244 -235c101 0 160 73 160 172
c0 68 -28 127 -98 127c-41 0 -73 -27 -73 -76c0 -31 15 -58 42 -74l-48 -41c-39 23 -65 67 -65 119c0 47 20 88 56 113c-21 18 -36 42 -45 67c-21 -63 -62 -105 -129 -105c-57 0 -105 34 -134 78zM521 523c0 20 -3 38 -7 55h-186c3 -81 39 -153 113 -153c58 0 80 43 80 98z
" />
    <glyph glyph-name="bnT_THA" horiz-adv-x="801" 
d="M477 430c0 58 -21 100 -46 125c-14 -33 -37 -84 -57 -119h-72c0 75 -15 147 -93 147c-59 0 -88 -46 -88 -105c0 -62 31 -106 95 -106c19 0 38 3 55 13l16 -61c-21 -11 -48 -17 -79 -17c-97 0 -159 64 -159 171c0 98 54 174 158 174c79 0 127 -54 142 -114
c18 36 38 80 48 104h46c61 -44 110 -108 110 -212c0 -152 -99 -245 -307 -270v-4l384 -126h4c-5 72 -6 139 -6 202v509h73v-99h120v-64h-120v-571l46 -16l-50 -57l-590 193v88c215 2 370 58 370 215z" />
    <glyph glyph-name="bnN_THA" horiz-adv-x="595" 
d="M-20 642h635v-64h-101c15 -17 29 -47 29 -89c0 -46 -19 -92 -60 -118c32 -31 51 -74 51 -126c0 -113 -75 -171 -191 -184v-4c30 -8 70 -30 133 -68l79 -49l-51 -49c-212 132 -239 147 -321 158v63h65c157 0 213 52 213 134c0 62 -43 105 -110 105c-57 0 -96 -34 -96 -86
c0 -27 14 -55 42 -70l-53 -40c-40 24 -63 67 -63 114c0 60 34 110 90 134c-29 24 -54 47 -92 47c-35 0 -59 -23 -59 -58c0 -28 11 -47 25 -63l-61 -27c-20 22 -35 54 -35 92c0 72 45 123 126 123c115 0 136 -98 222 -98c55 0 74 42 74 78c0 42 -23 81 -80 81h-411v64z" />
    <glyph glyph-name="bnM_THA" horiz-adv-x="595" 
d="M-20 642h635v-64h-102c14 -17 28 -47 28 -89c0 -46 -18 -91 -59 -117c33 -31 52 -75 52 -127c0 -113 -75 -171 -191 -184v-4c30 -8 70 -30 133 -68l79 -49l-51 -49c-212 132 -239 147 -321 158v63h65c157 0 213 52 213 134c0 62 -43 105 -110 105c-57 0 -96 -34 -96 -86
c0 -27 14 -55 42 -70l-53 -40c-40 24 -63 67 -63 114c0 60 34 110 89 134c-29 24 -54 47 -93 47c-35 0 -59 -23 -59 -58c0 -28 11 -47 25 -63l-61 -27c-20 22 -35 54 -35 92c0 55 27 98 76 115c-7 27 -18 50 -34 69h-109v64zM395 419c56 0 74 42 74 78c0 42 -22 81 -80 81
h-216c10 -19 17 -40 21 -62c98 -11 121 -97 201 -97z" />
    <glyph glyph-name="bnS_THA" horiz-adv-x="657" 
d="M60 484c23 -30 49 -58 88 -58c65 0 85 87 90 152h-258v64h697v-64h-105c4 -19 6 -38 6 -58c0 -56 -18 -103 -55 -132c42 -30 67 -78 67 -136c0 -116 -80 -173 -196 -186v-4c30 -9 75 -31 138 -69l70 -43l-52 -51c-212 132 -232 141 -311 152v65h64c158 0 214 54 214 136
c0 62 -43 103 -110 103c-57 0 -96 -34 -96 -86c0 -30 15 -53 42 -70l-55 -40c-39 24 -60 67 -60 114c0 56 30 104 80 130c-19 17 -32 39 -41 63c-21 -63 -62 -105 -129 -105c-57 0 -105 34 -134 78zM508 523c0 20 -3 38 -7 55h-186c3 -81 39 -153 113 -153c58 0 80 43 80 98
z" />
    <glyph glyph-name="bnG_DA" horiz-adv-x="887" 
d="M433 642h474v-64h-403v-298c48 63 158 165 246 201l67 -37c-23 -71 -35 -158 -35 -240v-204h-73v206c0 73 10 140 26 192c-87 -57 -166 -140 -230 -229l-75 33v174c0 104 -59 200 -173 200c-77 0 -129 -44 -153 -86c23 10 54 16 84 16c82 0 148 -49 148 -134
c0 -89 -61 -150 -120 -190l-54 49c49 32 100 78 100 143c0 48 -38 73 -90 73c-34 0 -67 -8 -95 -20l-53 53c31 93 117 163 231 163c107 0 163 -67 186 -104h4c-1 4 -12 46 -12 98v5z" />
    <glyph glyph-name="bnD_DA" horiz-adv-x="817" 
d="M435 219v-45c48 63 163 167 251 204l67 -38c-23 -71 -35 -157 -35 -240v-188h-73v191c0 73 7 140 24 190c-87 -57 -170 -139 -234 -227l-75 41v102c0 84 13 169 29 215c-87 -57 -164 -139 -228 -227l-74 40v341h-107v64h857v-64h-677v-270c49 63 159 165 246 201l68 -37
c-25 -78 -39 -156 -39 -253z" />
    <glyph glyph-name="bnN_DA" horiz-adv-x="819" 
d="M839 578h-403v-298c48 63 158 165 246 201l67 -37c-23 -71 -35 -158 -35 -240v-204h-73v206c0 73 10 140 26 192c-87 -57 -166 -140 -230 -229l-75 33c-18 85 -64 212 -169 212c-57 0 -83 -32 -83 -72c0 -27 11 -46 25 -63l-60 -26c-21 22 -35 53 -35 91
c0 78 55 137 149 137c86 0 147 -52 179 -121h4c-1 7 -10 69 -10 195v23h-382v64h859v-64z" />
    <glyph glyph-name="bnB_DA" horiz-adv-x="774" 
d="M667 0h-72v209c0 65 9 133 24 185c-86 -57 -165 -145 -229 -233l-333 163v74c44 39 146 110 258 148v32h-335v64h814v-64h-405v-305c48 63 158 168 245 204l68 -37c-24 -71 -35 -151 -35 -234v-206zM315 273v202c-63 -25 -144 -71 -189 -108z" />
    <glyph glyph-name="bnM_DA" horiz-adv-x="810" 
d="M-20 642h850v-64h-332c14 -17 28 -47 28 -89c0 -60 -31 -121 -106 -136v-102c55 60 167 153 247 184l67 -37c-23 -71 -35 -151 -35 -234v-178h-72v181c0 65 9 131 24 183c-87 -58 -149 -118 -231 -207l-74 32v179c-87 18 -113 96 -183 96c-36 0 -60 -23 -60 -58
c0 -28 11 -47 25 -63l-60 -27c-21 22 -35 54 -35 92c0 56 27 100 78 116c-7 26 -18 49 -34 68h-97v64zM380 419c56 0 74 42 74 78c0 42 -22 81 -80 81h-213c10 -19 17 -40 21 -63c95 -12 119 -96 198 -96z" />
    <glyph glyph-name="bnL_DA" horiz-adv-x="1010" 
d="M902 0h-72v213c0 65 9 133 24 185c-87 -57 -165 -140 -230 -229l-74 33v162c-8 25 -37 60 -86 60s-82 -36 -82 -98v-38h-72v37c0 64 -37 96 -88 96c-48 0 -90 -39 -90 -111c0 -83 53 -129 124 -129c24 0 50 5 73 18l15 -66c-28 -13 -58 -19 -88 -19
c-115 0 -199 81 -199 197c0 111 75 178 161 178c77 0 112 -37 127 -72h4c12 39 42 76 107 76c48 0 77 -23 90 -37h4v122h-570v64h1050v-64h-406v-298c48 63 158 165 245 201l68 -37c-24 -71 -35 -151 -35 -234v-210z" />
    <glyph glyph-name="bnG_DHA" horiz-adv-x="780" 
d="M503 741v-99h297v-64h-297v-302c69 29 126 49 156 56l60 -55s-25 -53 -25 -231v-87h-71v87c0 119 13 179 22 207c-35 -12 -85 -30 -142 -55v-277l45 -22l-52 -51l-335 174v76c85 56 183 106 270 146v132c0 104 -58 200 -172 200c-77 0 -130 -44 -153 -86
c23 10 53 16 84 16c84 0 148 -50 148 -136c0 -88 -58 -148 -116 -188l-57 48c47 31 99 75 99 141c0 49 -38 73 -91 73c-34 0 -67 -8 -94 -20l-53 56c30 93 117 163 231 163c106 0 163 -67 186 -104h4c-3 10 -15 76 -15 157v45h71zM435 -44h4c-5 70 -7 100 -7 178v33
c-62 -29 -130 -64 -197 -106z" />
    <glyph glyph-name="bnN_DHA" horiz-adv-x="732" 
d="M-20 578v64h772v-64h-299v-203c69 29 126 49 157 56l60 -54s-26 -53 -26 -232v-87h-71v87c0 119 13 179 22 207c-35 -12 -85 -30 -142 -54v-278l45 -23l-52 -50l-335 175v75c75 49 160 95 239 132c-32 57 -79 103 -147 103c-57 0 -83 -32 -83 -71c0 -28 11 -47 25 -64
l-60 -26c-21 22 -35 54 -35 91c0 78 55 137 149 137c86 0 149 -44 187 -117h4c-1 6 -9 69 -9 194v2h-401zM385 55h4c-5 70 -7 99 -7 178v33c-62 -29 -130 -64 -197 -105z" />
    <glyph glyph-name="bnD_DHA" horiz-adv-x="713" 
d="M733 578h-577v-232c59 57 164 140 250 175l62 -35c-16 -51 -27 -110 -32 -170c68 29 124 48 154 55l60 -54s-26 -53 -26 -232v-91h-71v92c0 118 13 178 22 206c-35 -12 -85 -30 -142 -54v-278l45 -22l-51 -51l-336 175v75c86 57 184 108 272 148c3 58 12 112 24 155
c-85 -56 -148 -105 -230 -193l-73 32v299h-104v64h753v-64zM365 -5h4c-5 70 -7 100 -7 178v33c-62 -29 -130 -64 -197 -105z" />
    <glyph glyph-name="bnB_DHA" horiz-adv-x="703" 
d="M-20 578v64h743v-64h-297v-302c70 30 127 51 156 58l60 -54s-25 -54 -25 -232v-87h-71v87c0 119 12 178 20 206c-34 -12 -83 -31 -140 -56v-293l45 -21l-51 -50l-364 172v75c65 44 144 87 221 126l-221 104v73c83 66 204 128 299 162v32h-375zM362 -65
c-5 71 -7 134 -7 196v35c-71 -33 -149 -74 -226 -121l229 -110h4zM128 351l224 -108c3 1 6 3 10 4c-5 68 -7 129 -7 189v37c-84 -34 -172 -82 -227 -122z" />
    <glyph glyph-name="bnL_DHA" horiz-adv-x="894" 
d="M-20 578v64h934v-64h-300v-225c69 29 126 49 156 57l60 -55s-25 -53 -25 -232v-86h-71v87c0 118 12 178 20 206c-35 -12 -83 -30 -140 -54v-281l45 -22l-53 -52l-334 174v80c83 55 182 106 271 147v58c-8 25 -36 60 -87 60c-48 0 -83 -36 -83 -98v-38h-70v37
c0 64 -38 95 -85 95c-55 0 -94 -41 -94 -111s37 -107 88 -121l-26 -64c-85 24 -136 92 -136 185c0 110 71 179 164 179c69 0 108 -34 123 -69h4c14 40 54 73 110 73c48 0 76 -23 88 -37h4v107h-563zM550 30c-5 71 -7 100 -7 179v36c-62 -29 -131 -65 -200 -107l203 -108h4z
" />
    <glyph glyph-name="bnK_NA" horiz-adv-x="696" 
d="M716 578h-286v-31c143 -6 221 -81 221 -172c0 -80 -45 -133 -99 -162l-46 54c41 19 75 54 75 109c0 61 -62 101 -151 105v-539h-69c-23 102 -82 197 -175 197c-54 0 -81 -31 -81 -71c0 -26 10 -45 24 -61l-61 -26c-20 22 -33 54 -33 91c0 76 55 135 147 135
c84 0 147 -49 184 -123h4c-2 6 -8 50 -10 122l-272 123v75c64 64 158 123 271 139v35h-379v64h736v-64zM366 281c-5 70 -7 133 -7 194c-77 -15 -150 -58 -200 -102l203 -92h4z" />
    <glyph glyph-name="bnG_NA" horiz-adv-x="603" 
d="M503 741v-99h120v-64h-120v-653h-69c-23 103 -81 197 -175 197c-54 0 -81 -31 -81 -71c0 -26 11 -44 24 -61l-61 -25c-20 22 -33 53 -33 90c0 76 55 135 147 135c84 0 147 -49 184 -123l4 1c-2 6 -10 59 -11 144v164c0 104 -59 200 -173 200c-77 0 -129 -43 -154 -86
c23 10 54 16 84 16c87 0 149 -47 149 -132c0 -70 -41 -131 -87 -168l-62 43c42 30 76 77 76 127c0 49 -38 69 -91 69c-35 0 -68 -9 -95 -21l-53 56c31 95 117 163 231 163c106 0 163 -67 186 -104h4c-3 10 -15 76 -15 157v45h71z" />
    <glyph glyph-name="bnGH_NA" horiz-adv-x="599" 
d="M430 -139c-23 103 -84 183 -178 183c-54 0 -81 -32 -81 -72c0 -26 10 -44 24 -61l-61 -25c-20 22 -33 54 -33 90c0 77 56 135 148 135c85 0 150 -44 186 -115l4 1c-1 5 -9 55 -11 134l-364 97v75l48 29c51 31 76 40 84 44v4c-89 5 -137 51 -137 123c0 29 9 55 23 75h-102
v64h639v-64h-119v-717h-70zM431 201l4 1c-5 68 -7 138 -7 201v175h-262c-21 -18 -34 -45 -34 -73c0 -54 43 -75 91 -75c45 0 74 10 109 31l31 -60l-209 -126z" />
    <glyph glyph-name="bnC_NA" horiz-adv-x="510" 
d="M530 578h-367c13 -27 42 -42 80 -57l67 -24c87 -31 128 -68 128 -148c0 -26 -6 -52 -18 -76v-416h-70c-23 102 -84 181 -177 181c-53 0 -79 -31 -79 -70c0 -27 11 -45 24 -62l-61 -26c-19 22 -33 54 -33 91c0 75 53 135 146 135c84 0 149 -43 185 -114h4
c-1 6 -11 67 -11 164v36c-35 -23 -78 -37 -125 -37c-85 0 -137 49 -137 128v295h-106v64h550v-64zM158 499h-4c0 -30 4 -59 4 -152v-62c0 -39 20 -63 66 -63c68 0 142 56 142 127c0 39 -13 59 -81 83l-49 17c-45 16 -68 37 -78 50z" />
    <glyph glyph-name="bnD_NA" horiz-adv-x="517" 
d="M537 578h-380v-238c50 58 155 149 240 184l65 -37c-22 -69 -32 -145 -32 -224v-326h-69c-23 102 -83 197 -176 197c-54 0 -80 -31 -80 -70c0 -27 11 -45 24 -62l-60 -26c-20 22 -34 54 -34 91c0 75 53 135 146 135c84 0 148 -49 185 -123h4c-1 6 -12 67 -12 164v22
c0 64 10 128 25 179c-86 -57 -156 -122 -225 -205l-73 31v308h-105v64h557v-64z" />
    <glyph glyph-name="bnDH_NA" horiz-adv-x="578" 
d="M131 517c0 -52 54 -70 103 -70c62 0 117 29 173 64v131h191v-64h-119v-716h-70c-23 102 -86 182 -180 182c-54 0 -80 -32 -80 -71c0 -26 10 -45 24 -61l-61 -26c-20 22 -34 54 -34 90c0 75 54 136 146 136c85 0 152 -44 190 -117h4c-1 5 -9 53 -11 130l-335 127v76l36 20
c50 28 92 42 92 42v4c-84 5 -142 49 -142 125c0 75 51 131 143 131c41 0 83 -13 108 -34l-27 -56c-22 16 -48 25 -77 25c-45 0 -74 -27 -74 -68zM416 196c-6 66 -9 128 -9 190v45l-252 -136l257 -99h4z" />
    <glyph glyph-name="bnT_NA" horiz-adv-x="629" 
d="M-20 642h669v-64h-669v64zM98 511c29 -175 115 -326 260 -326c98 0 153 68 153 162c0 76 -31 122 -92 122c-42 0 -72 -25 -72 -70c0 -29 14 -54 40 -68l-51 -42c-37 21 -60 64 -60 113c0 73 55 133 141 133c110 0 164 -84 164 -189c0 -76 -29 -139 -79 -179v-351h-70
c-23 102 -86 197 -180 197c-53 0 -80 -31 -80 -70c0 -27 11 -45 24 -62l-60 -25c-20 21 -34 53 -34 90c0 75 53 135 146 135c84 0 150 -49 189 -125h4c-1 6 -11 67 -11 164v10c-22 -7 -46 -10 -72 -10c-183 0 -287 168 -325 359z" />
    <glyph glyph-name="bnN_NA" horiz-adv-x="559" 
d="M-20 578v64h599v-64h-120v-609h-67c-15 95 -79 218 -185 218c-55 0 -81 -32 -81 -72c0 -27 11 -46 25 -63l-61 -26c-20 22 -35 53 -35 91c0 78 56 137 150 137c86 0 151 -51 188 -124h4c-1 5 -6 42 -8 112c-22 90 -84 194 -182 194c-55 0 -81 -32 -81 -71
c0 -28 11 -46 25 -63l-61 -26c-20 22 -35 53 -35 91c0 78 55 136 149 136c86 0 151 -52 189 -124h4c-1 7 -10 72 -10 198v1h-407z" />
    <glyph glyph-name="bnP_NA" horiz-adv-x="638" 
d="M109 506c62 -3 132 -35 162 -115l153 105c-33 52 -85 85 -155 85c-84 0 -140 -48 -160 -75zM59 448l-42 61c40 63 126 139 249 139c124 0 182 -63 212 -120l4 1c-5 12 -16 100 -16 178v34h72v-99h120v-64h-120v-616h-68c-24 99 -85 201 -184 201c-55 0 -81 -33 -81 -72
c0 -27 11 -46 25 -63l-61 -26c-20 22 -34 53 -34 91c0 78 55 137 149 137c86 0 151 -51 188 -124h4c-1 7 -10 88 -10 191v29c0 38 -5 75 -15 108l-299 -208l-37 57l100 69c-17 48 -52 81 -110 91c-10 3 -20 5 -46 5z" />
    <glyph glyph-name="bnM_NA" horiz-adv-x="589" 
d="M-20 642h628v-64h-95c14 -17 28 -47 28 -89c0 -46 -18 -93 -61 -119v-370h-68c-18 107 -81 216 -181 216c-54 0 -80 -32 -80 -71c0 -26 10 -45 24 -62l-61 -25c-20 22 -34 54 -34 90c0 75 55 135 147 135c84 0 149 -47 189 -124h4c-2 7 -11 71 -11 191h-10
c-119 0 -141 100 -222 100c-35 0 -59 -23 -59 -58c0 -28 11 -47 25 -63l-61 -27c-20 22 -35 54 -35 92c0 55 27 98 76 115c-7 27 -18 50 -34 69h-109v64zM395 419c56 0 74 42 74 78c0 42 -22 81 -80 81h-216c10 -19 17 -40 21 -62c98 -11 121 -97 201 -97z" />
    <glyph glyph-name="bnSH_NA" horiz-adv-x="614" 
d="M34 297v66c12 -3 26 -4 37 -4c76 0 102 48 102 109c0 64 -35 110 -111 110h-82v64h86c63 0 111 -21 142 -73c28 48 70 73 129 73c69 0 100 -34 114 -53h4c-2 6 -11 58 -11 123v29h71v-99h119v-64h-119v-588h-71c-17 90 -73 196 -178 196c-55 0 -81 -31 -81 -70
c0 -27 11 -45 24 -62l-61 -25c-19 21 -33 53 -33 90c0 75 54 135 146 135c84 0 149 -43 189 -119h4c-1 7 -11 74 -11 163v142c0 91 -34 137 -101 137c-57 0 -100 -38 -100 -110c0 -69 44 -108 110 -108c8 0 18 1 28 2v-63c-8 -2 -19 -3 -29 -3c-66 0 -113 22 -145 73
c-29 -52 -65 -74 -134 -74c-13 0 -26 1 -38 3z" />
    <glyph glyph-name="bnS_NA" horiz-adv-x="631" 
d="M66 484c23 -30 49 -58 88 -58c64 0 84 87 90 152h-264v64h671v-64h-73c4 -19 6 -38 6 -58c0 -64 -25 -118 -75 -144v-376h-67c-18 103 -76 218 -181 218c-56 0 -81 -31 -81 -71c0 -26 10 -45 24 -61l-61 -26c-20 22 -34 54 -34 91c0 75 55 135 147 135
c84 0 149 -44 188 -119h4c-1 6 -10 86 -10 175v18h-3c-80 0 -131 50 -152 106c-21 -63 -62 -105 -129 -105c-57 0 -105 34 -135 78zM513 523c0 20 -2 38 -6 55h-186c2 -81 38 -153 112 -153c58 0 80 43 80 98z" />
    <glyph glyph-name="bnH_NA" horiz-adv-x="758" 
d="M211 140c30 -8 78 -31 140 -69l107 -64l-52 -50c-235 142 -265 161 -344 172v64h61c158 0 214 68 214 147c0 65 -44 108 -110 108c-57 0 -97 -34 -97 -86c0 -27 14 -55 43 -70l-53 -40c-41 24 -63 67 -63 114c0 85 69 150 169 150c79 0 141 -39 168 -100
c32 57 80 92 152 92c97 0 168 -60 168 -163c0 -109 -72 -162 -156 -162c-30 0 -64 5 -90 18l18 62c27 -10 45 -13 67 -13c48 0 89 32 89 95c0 58 -35 95 -97 95c-80 0 -119 -82 -144 -160c-23 -77 -92 -125 -190 -136v-4zM778 578h-798v64h798v-64z" />
    <glyph glyph-name="bnK_SS_NA" horiz-adv-x="872" 
d="M548 120c-5 60 -7 140 -7 200v28h-73c-88 0 -152 56 -152 157v73h-197c27 -37 44 -84 44 -130c85 -11 165 -83 165 -191v-18c104 -8 193 -76 220 -119zM467 415h74v163h-153v-74c0 -60 28 -89 79 -89zM892 578h-279v-163h42c108 0 175 -59 175 -150
c0 -81 -42 -131 -97 -159l-46 54c40 17 73 51 73 105c0 58 -43 83 -103 83h-44v-566h-66c-48 97 -127 191 -235 191c-59 0 -85 -32 -85 -71s25 -61 55 -75l-52 -40c-42 19 -73 61 -73 118c0 75 55 135 148 135c83 0 177 -43 244 -146h4c-1 7 -9 39 -9 125
c-35 78 -123 146 -226 156c-17 -58 -53 -77 -79 -77c-34 0 -56 20 -56 54c0 35 28 68 76 82v21c0 72 -46 117 -103 130c-15 -55 -51 -77 -79 -77c-34 0 -55 21 -55 55c0 36 27 69 75 82c-1 58 -26 101 -60 133h-57v64h912v-64z" />
    <glyph glyph-name="bnM_PA" horiz-adv-x="1071" 
d="M530 506c72 -5 152 -45 173 -152l168 109c-34 71 -96 118 -180 118s-140 -48 -161 -75zM971 0h-72v326c0 25 -2 49 -7 72l-314 -205l-37 56l105 68c-13 67 -47 117 -124 128c-15 -52 -57 -95 -135 -95c-119 0 -142 100 -222 100c-35 0 -59 -23 -59 -58
c0 -28 11 -47 25 -63l-61 -27c-20 22 -35 54 -35 92c0 55 27 98 76 115c-7 27 -18 50 -34 69h-97v64h456c32 -16 54 -38 69 -62c44 38 106 68 184 68c123 0 191 -72 221 -129l3 1c-5 15 -15 101 -15 179v42h73v-99h120v-64h-120v-578zM383 419c55 0 74 42 74 78
c0 42 -23 81 -80 81h-216c10 -19 17 -40 21 -62c97 -11 121 -97 201 -97z" />
    <glyph glyph-name="bnL_PA" horiz-adv-x="709" 
d="M-20 578v64h749v-64h-120v-781h-71v125c0 38 -5 74 -16 106l-301 -212l-42 55l101 70c-18 52 -54 91 -122 99c-6 2 -13 2 -38 3l-42 58c38 62 124 143 250 142c124 -1 190 -72 220 -128h4c-5 12 -16 101 -16 182v89c-8 25 -33 60 -82 60s-79 -38 -79 -98v-27h-69v26
c0 58 -35 95 -87 95c-50 0 -83 -31 -83 -89c0 -30 16 -62 43 -83l-54 -43c-38 28 -64 80 -64 126c0 95 66 157 154 158c72 0 109 -38 124 -72h4c12 37 43 75 103 75c48 0 74 -23 86 -36h4v100h-556zM171 101c65 -5 134 -37 165 -121l157 109c-35 54 -90 88 -162 88
c-84 0 -139 -50 -160 -76z" />
    <glyph glyph-name="bnSS_PA" horiz-adv-x="975" 
d="M236 578c-29 0 -55 -8 -75 -23l188 -159c8 17 12 36 12 57c0 73 -53 125 -125 125zM236 327c29 0 55 9 76 24l-189 159c-8 -17 -12 -36 -12 -57c0 -74 53 -126 125 -126zM432 505c74 -4 159 -44 181 -149l163 106c-34 72 -96 119 -181 119c-84 0 -142 -48 -163 -76z
M876 0h-73v326c0 24 -2 48 -7 70l-312 -205l-37 56l109 71c-14 64 -53 112 -124 123c-6 -109 -88 -181 -196 -181c-113 0 -196 77 -196 193c0 51 17 93 45 125h-105v64h256c66 0 123 -26 158 -72c48 44 115 78 199 78c123 0 191 -72 221 -129l4 1c-6 15 -16 101 -16 179v42
h74v-99h119v-64h-119v-578z" />
    <glyph glyph-name="bnS_PA" horiz-adv-x="1126" 
d="M1026 0h-72v326c0 25 -2 49 -7 72l-315 -205l-37 56l106 68c-14 69 -49 120 -130 129c-21 -52 -67 -86 -136 -86c-80 0 -132 52 -153 106c-20 -63 -61 -105 -129 -105c-56 0 -104 34 -134 78l47 45c22 -30 49 -58 87 -58c65 0 85 87 91 152h-264v64h580
c7 -19 12 -36 16 -51c43 33 99 57 168 57c122 0 190 -72 220 -129l4 1c-5 15 -15 101 -15 179v42h73v-99h120v-64h-120v-578zM506 578h-185c2 -81 38 -153 112 -153c58 0 80 43 80 98c0 20 -2 38 -7 55zM585 506c72 -5 152 -45 173 -151l168 108c-34 71 -96 118 -181 118
c-83 0 -139 -48 -160 -75z" />
    <glyph glyph-name="bnP_PA" horiz-adv-x="669" 
d="M129 170c64 -5 132 -37 164 -118l157 110c-36 51 -90 83 -160 83c-84 0 -140 -48 -161 -75zM129 506c65 -5 136 -38 166 -123l157 112c-35 53 -91 86 -162 86c-84 0 -140 -48 -161 -75zM79 449l-42 59c40 65 124 140 250 140c123 0 191 -72 221 -129l4 1
c-5 15 -15 101 -15 179v42h72v-99h120v-64h-120v-701h-71v113c0 40 -6 78 -18 112l-306 -215l-37 57l100 69c-19 52 -56 88 -122 96c-8 1 -15 2 -36 2l-42 59c18 29 45 59 80 85l122 87c-18 55 -55 96 -126 104c-7 2 -13 2 -34 3zM508 182h4c-3 10 -14 82 -14 154
c-1 35 -6 68 -16 98l-84 -59c-33 -23 -69 -46 -103 -67c119 -3 184 -71 213 -126z" />
    <glyph glyph-name="bnM_PHA" horiz-adv-x="969" 
d="M-20 642h1009v-64h-485c16 -26 24 -57 24 -89c0 -36 -11 -73 -37 -100l45 -50v-63l-143 -110l212 -102h4c-6 72 -9 134 -9 197v218c35 16 76 25 117 25c112 0 204 -65 204 -180c0 -93 -58 -151 -118 -178l-44 57c54 21 90 63 90 121c0 79 -59 111 -123 111
c-19 0 -36 -3 -54 -8v-395l42 -20l-52 -54l-345 167v73l148 114l-37 42c-13 -2 -26 -4 -41 -4c-119 0 -140 100 -220 100c-35 0 -59 -23 -59 -58c0 -28 11 -47 25 -63l-61 -27c-20 22 -35 54 -35 92c0 54 26 97 73 114c-6 27 -17 51 -33 70h-97v64zM382 419
c56 0 74 42 74 78c0 42 -22 81 -80 81h-216c10 -19 17 -39 21 -62c99 -10 121 -97 201 -97z" />
    <glyph glyph-name="bnS_PHA" horiz-adv-x="1020" 
d="M25 439l47 45c22 -30 49 -58 88 -58c64 0 84 87 90 152h-270v64h1060v-64h-456c4 -19 6 -38 6 -58c0 -53 -17 -99 -51 -127l48 -54v-63l-143 -110l212 -102h4c-6 72 -9 134 -9 197v218c35 16 76 25 117 25c112 0 204 -65 204 -180c0 -93 -58 -151 -118 -178l-45 57
c55 21 91 63 91 121c0 79 -59 111 -123 111c-19 0 -36 -3 -54 -8v-395l41 -20l-51 -54l-345 167v73l148 114l-45 50c-9 -1 -19 -2 -30 -2c-80 0 -131 48 -153 106c-20 -63 -61 -105 -128 -105c-57 0 -105 34 -135 78zM513 578h-186c2 -81 38 -153 112 -153c58 0 80 43 80 98
c0 20 -2 38 -6 55z" />
    <glyph glyph-name="bnL_PHA" horiz-adv-x="1111" 
d="M-20 578v64h1151v-64h-528v-154l73 -87v-60l-145 -104l215 -108h4c-5 72 -9 134 -9 198v216c35 16 77 25 119 25c111 0 203 -65 203 -180c0 -93 -57 -151 -118 -178l-44 57c54 21 91 63 91 121c0 79 -59 111 -124 111c-18 0 -35 -3 -54 -8v-397l41 -20l-51 -53l-347 175
v72l147 107l-74 86c-22 27 -45 55 -86 55c-43 0 -73 -36 -73 -97v-38h-69v37c0 64 -37 94 -88 94c-47 0 -89 -38 -89 -108c0 -84 49 -130 120 -130c23 0 47 5 68 17l14 -64c-27 -13 -55 -19 -82 -19c-111 0 -193 80 -193 196c0 109 74 176 159 176c79 0 112 -45 123 -76h5
c9 37 38 79 103 79c46 0 73 -23 84 -37h4v96h-550z" />
    <glyph glyph-name="bnSS_PHA" horiz-adv-x="924" 
d="M236 579c-28 0 -53 -8 -73 -22l187 -157c7 16 11 34 11 53c0 73 -54 126 -125 126zM236 328c30 0 57 9 78 26l-189 159c-9 -18 -14 -38 -14 -60c0 -72 53 -125 125 -125zM944 578h-557c28 -32 45 -75 45 -125c0 -37 -9 -70 -25 -97l77 -66v-63l-136 -100l208 -101h4
c-6 72 -9 150 -9 214v226c35 15 76 24 118 24c111 0 203 -64 203 -180c0 -92 -57 -150 -118 -177l-44 56c54 22 90 64 90 122c0 78 -58 111 -123 111c-18 0 -36 -3 -54 -8v-420l42 -20l-52 -53l-342 165v72l140 103l-49 42c-33 -26 -77 -41 -126 -41
c-112 0 -196 78 -196 191c0 50 17 93 45 125h-105v64h964v-64z" />
    <glyph glyph-name="bnD_BHA" horiz-adv-x="644" 
d="M664 578h-399v-211c56 54 155 123 240 159l65 -38c-22 -68 -31 -144 -31 -224v-13c37 -37 72 -102 72 -184c0 -130 -90 -228 -244 -228c-198 0 -305 173 -346 371l63 26c34 -172 121 -329 283 -329c112 0 175 69 175 161c0 46 -12 77 -26 103h-4
c-40 -88 -93 -123 -153 -123c-79 0 -128 53 -128 119c0 26 8 52 20 70l71 -13c-13 -13 -21 -35 -21 -55c0 -34 20 -57 59 -57c40 0 71 28 108 113v39c0 64 8 131 23 181c-75 -42 -140 -90 -225 -174l-73 31v276h-213v64h684v-64z" />
    <glyph glyph-name="bnM_BHA" horiz-adv-x="640" 
d="M-20 642h680v-64h-125c14 -17 28 -47 28 -89c0 -45 -17 -91 -57 -117c42 -43 79 -111 79 -196c0 -129 -90 -228 -245 -228c-166 0 -268 122 -320 278l60 36c44 -138 126 -246 261 -246c112 0 175 70 175 161c0 46 -12 77 -27 103h-4c-39 -88 -92 -123 -152 -123
c-79 0 -129 53 -129 119c0 26 9 52 21 70l70 -12c-12 -13 -20 -36 -20 -56c0 -34 20 -56 59 -56c44 0 75 33 114 130c-8 -1 -17 -2 -26 -2c-119 0 -142 100 -222 100c-36 0 -60 -23 -60 -58c0 -28 12 -47 25 -63l-60 -27c-21 22 -35 54 -35 92c0 55 25 97 73 115
c-6 27 -17 50 -33 69h-130v64zM418 419c55 0 73 42 73 78c0 42 -22 81 -80 81h-218c10 -19 17 -39 21 -62c100 -10 123 -97 204 -97z" />
    <glyph glyph-name="bnB_BHA" horiz-adv-x="614" 
d="M634 578h-125v-349c37 -38 73 -103 73 -184c0 -130 -87 -229 -241 -229c-198 0 -300 179 -336 348l63 37c28 -147 106 -316 273 -316c113 0 172 69 172 160c0 47 -12 78 -27 103h-4c-39 -88 -92 -123 -152 -123c-79 0 -127 53 -127 120c0 26 7 51 19 70l70 -13
c-12 -13 -21 -35 -21 -55c0 -34 21 -57 60 -57c36 0 65 23 97 91l-283 130v83c93 80 198 131 293 165v19h-458v64h654v-64zM441 252h4c-5 71 -7 140 -7 202v33c-74 -29 -152 -71 -227 -130z" />
    <glyph glyph-name="bnL_BHA" horiz-adv-x="720" 
d="M740 578h-130v-347c37 -38 72 -102 72 -184c0 -130 -90 -229 -244 -229c-160 0 -267 115 -321 260l58 39c46 -127 131 -230 264 -230c112 0 174 69 174 160c0 47 -11 76 -25 102h-4c-25 -86 -79 -122 -139 -122c-78 0 -125 54 -125 120c0 29 10 57 23 75l70 -13
c-13 -13 -23 -38 -23 -60c0 -34 19 -57 57 -57c49 0 74 48 93 119v182c-8 25 -37 60 -87 60c-48 0 -82 -36 -82 -98v-38h-68v38c0 63 -37 94 -88 94c-48 0 -90 -38 -90 -108c0 -81 50 -124 116 -124c12 0 24 2 36 5l8 -66c-14 -3 -32 -5 -46 -5c-103 0 -186 74 -186 189
c0 110 74 176 159 176c76 0 110 -38 123 -72h5c11 39 42 76 106 76c48 0 78 -23 90 -37h4v95h-560v64h760v-64z" />
    <glyph glyph-name="bnK_MA" horiz-adv-x="904" 
d="M924 578h-154v-657h-68c-66 106 -211 166 -315 180c-13 -57 -47 -80 -83 -80c-35 0 -61 21 -61 57c0 40 29 75 78 85v17l-271 140v75c63 62 162 125 272 143v40h-342v64h944v-64zM324 255h4c-5 71 -6 134 -6 196v19c-80 -18 -153 -64 -203 -106zM703 29
c-2 48 -5 93 -5 169v380h-306v-34c148 -2 215 -89 215 -174c0 -67 -35 -122 -93 -154l-45 53c43 25 68 58 68 101c0 65 -52 107 -145 107v-313c112 -10 230 -61 311 -135z" />
    <glyph glyph-name="bnG_MA" horiz-adv-x="855" 
d="M422 741h72v-99h380v-64h-120v-655h-68c-35 90 -112 159 -198 178c-14 -56 -49 -79 -83 -79c-36 0 -60 22 -60 58c0 39 29 75 77 85v211c0 104 -59 200 -173 200c-74 0 -128 -42 -151 -84c22 10 52 16 82 16c82 0 145 -50 145 -135c0 -89 -58 -151 -117 -191l-54 49
c49 32 100 78 100 143c0 48 -38 73 -90 73c-34 0 -67 -8 -95 -20l-53 53c31 93 117 163 231 163c107 0 160 -56 186 -101h4c-3 9 -15 75 -15 156v43zM688 46c-2 48 -5 93 -5 169v363h-189v-413c89 -14 160 -71 194 -119z" />
    <glyph glyph-name="bnNG_MA" horiz-adv-x="882" 
d="M363 463c53 0 78 28 78 65c0 34 -29 64 -76 64c-49 0 -72 -33 -72 -90v-26c21 -8 45 -13 70 -13zM782 -203h-68c-71 116 -189 169 -285 181c-13 -57 -47 -80 -83 -80c-35 0 -61 21 -61 57c0 39 28 75 77 85v34h-12c-199 0 -309 156 -316 326l67 17
c8 -175 114 -276 250 -276c109 0 177 56 177 131c0 25 -6 45 -15 59c-53 -43 -106 -64 -160 -64c-84 0 -130 49 -130 120v55c-57 34 -100 86 -123 136h-120v64h168c11 -41 38 -89 78 -125c3 87 55 136 136 136c23 0 43 -4 61 -11h480v-64h-121v-781zM716 -90
c-3 48 -6 104 -6 180v488h-215c8 -16 12 -34 12 -52c0 -67 -50 -123 -143 -123c-25 0 -49 3 -71 9v-20c0 -38 21 -58 61 -58c53 0 107 33 175 90c32 -27 69 -77 69 -150c0 -95 -61 -166 -164 -191v-42c99 -10 207 -54 282 -131z" />
    <glyph glyph-name="bnTT_MA" horiz-adv-x="756" 
d="M590 30c-2 49 -5 94 -5 170v378h-423v-270c0 -52 34 -78 88 -78c87 0 145 60 145 138c0 47 -21 82 -70 82c-26 0 -49 -14 -63 -33l-40 58c20 23 55 44 103 44c85 0 142 -56 142 -151c0 -65 -27 -120 -71 -156v-62c90 -14 161 -71 194 -120zM464 687c0 -13 -2 -29 -4 -45
h315v-64h-119v-671h-67c-35 90 -114 160 -199 179c-13 -56 -47 -79 -82 -79s-61 22 -61 57c0 40 29 76 77 86v23c-23 -7 -48 -11 -74 -11c-92 0 -160 50 -160 143v273h-110v64h407c3 14 5 31 5 40c0 57 -35 80 -113 80h-124c-126 0 -162 64 -162 129c0 10 0 19 2 29l70 15
c-2 -11 -3 -22 -3 -33c0 -37 16 -75 98 -75h131c98 0 173 -47 173 -140z" />
    <glyph glyph-name="bnDD_MA" horiz-adv-x="895" 
d="M729 -26c-2 48 -5 95 -5 170v434h-401v-115c0 -34 13 -55 50 -55c34 0 92 28 158 87c34 -22 77 -76 77 -158c0 -67 -27 -125 -74 -165v-74c88 -14 161 -75 195 -124zM915 578h-119v-726h-68c-36 91 -115 161 -200 182c-13 -55 -46 -78 -81 -78s-61 22 -61 57
c0 41 29 76 78 86v32c-32 -12 -69 -18 -109 -18c-199 0 -311 169 -320 360l72 16c7 -190 105 -306 249 -306c107 0 180 65 180 153c0 27 -5 47 -17 65c-46 -36 -100 -62 -150 -62c-80 0 -119 52 -119 120v119h-270v64h935v-64z" />
    <glyph glyph-name="bnNN_MA" horiz-adv-x="824" 
d="M679 76c-3 49 -6 94 -6 170v332h-188v-382c89 -14 160 -71 194 -120zM413 695v46h72v-99h188v1h72v-1h98v-64h-98v-625h-68c-35 90 -113 160 -198 179c-13 -56 -48 -79 -82 -79c-35 0 -62 22 -62 57c0 40 29 76 78 86v135c0 147 -54 252 -173 252
c-90 0 -132 -61 -132 -138c0 -76 54 -114 120 -114c25 0 49 6 69 16l18 -60c-23 -14 -54 -22 -91 -22c-107 0 -190 71 -190 181c0 114 71 205 202 205c109 0 159 -65 183 -108h4c-4 25 -10 73 -10 152z" />
    <glyph glyph-name="bnT_MA" horiz-adv-x="864" 
d="M885 578h-121v-746h-68c-61 102 -178 166 -284 181c-13 -58 -47 -81 -83 -81c-35 0 -61 22 -61 58c0 39 28 74 76 85v47h-1c-186 0 -281 170 -319 362l64 29c34 -170 106 -329 254 -329c98 0 157 66 157 165c0 75 -30 122 -92 122c-41 0 -71 -25 -71 -69
c0 -30 13 -57 39 -72l-50 -41c-36 23 -59 66 -59 115c0 74 54 132 140 132c111 0 162 -85 162 -188c0 -115 -60 -191 -151 -216v-57c98 -12 216 -64 281 -136c-3 49 -6 94 -6 169v470h-712v64h905v-64z" />
    <glyph glyph-name="bnD_MA" horiz-adv-x="774" 
d="M608 21c-2 48 -5 93 -5 169v388h-445v-240c59 57 149 139 235 174l62 -35c-23 -71 -35 -156 -35 -238v-89h-1v-9c89 -14 155 -72 189 -120zM794 578h-120v-680h-68c-35 90 -109 160 -193 179c-13 -56 -47 -79 -82 -79s-61 22 -61 57c0 39 29 75 77 86v9v90
c0 73 10 136 25 188c-83 -54 -133 -103 -213 -188l-73 32v306h-106v64h814v-64z" />
    <glyph glyph-name="bnDH_MA" horiz-adv-x="820" 
d="M654 33c-3 48 -6 93 -6 169v376h-188v-426c89 -14 160 -71 194 -119zM840 578h-120v-669h-68c-35 91 -113 161 -198 179c-13 -55 -47 -78 -82 -78s-61 21 -61 57c0 28 14 54 39 70l-297 114v77l36 20c51 28 92 42 92 42v4c-88 5 -142 49 -142 125c0 75 52 131 143 131
c41 0 84 -13 108 -34l-27 -56c-22 16 -48 25 -77 25c-45 0 -74 -27 -74 -68c0 -52 54 -70 103 -70c57 0 120 31 173 66v129h452v-64zM394 195l3 1c-6 63 -9 128 -9 190v45l-253 -136z" />
    <glyph glyph-name="bnN_MA" horiz-adv-x="805" 
d="M639 109c-2 48 -6 93 -6 169v300h-188v-350c89 -14 160 -71 194 -119zM847 578h-142v-592h-68c-35 91 -112 161 -198 179c-13 -56 -47 -79 -82 -79s-61 21 -61 57c0 39 28 75 77 85v78l-60 51c-46 35 -80 56 -116 56c-56 0 -83 -34 -83 -72c0 -29 12 -50 26 -66l-59 -29
c-21 22 -38 57 -38 97c0 74 59 135 150 135c53 0 97 -17 159 -67l21 -18v185h-394v64h868v-64z" />
    <glyph glyph-name="bnP_MA" horiz-adv-x="901" 
d="M735 77c-3 48 -6 93 -6 169v332h-188v-381c89 -15 160 -72 194 -120zM112 506c66 -4 141 -40 168 -132l157 104c-32 63 -87 103 -165 103c-84 0 -140 -48 -160 -75zM801 -46h-68c-35 90 -112 160 -198 179c-13 -56 -47 -79 -82 -79s-62 22 -62 57c0 41 29 76 79 86v129
c0 31 -3 61 -10 88l-305 -204l-37 56l105 70c-16 58 -52 99 -120 107c-9 3 -18 5 -42 5l-41 61c40 63 125 139 249 139s182 -63 212 -120l4 1c-6 12 -16 100 -16 178v34h72v-99h380v-64h-120v-624z" />
    <glyph glyph-name="bnM_MA" horiz-adv-x="797" 
d="M385 419c55 0 73 42 73 78c0 42 -22 81 -80 81h-215c12 -18 20 -39 24 -62c97 -11 118 -97 198 -97zM634 93c-3 48 -6 93 -6 169v316h-126c14 -17 28 -47 28 -89c0 -56 -27 -112 -90 -132v-144c89 -15 160 -72 194 -120zM819 578h-119v-608h-68c-35 91 -112 161 -198 179
c-13 -56 -47 -79 -82 -79c-36 0 -62 22 -62 57c0 40 29 75 78 86v138c-100 11 -123 99 -198 99c-35 0 -59 -23 -59 -58c0 -28 11 -47 25 -63l-61 -27c-20 22 -35 54 -35 92c0 55 27 98 76 115c-7 27 -18 50 -34 69h-102v64h839v-64z" />
    <glyph glyph-name="bnL_MA" horiz-adv-x="973" 
d="M807 21c-2 48 -5 93 -5 169v388h-189v-437c90 -15 161 -72 194 -120zM994 578h-121v-680h-67c-36 90 -113 160 -199 179c-13 -56 -47 -79 -82 -79s-61 22 -61 57c0 39 29 75 77 86v230c-9 25 -38 57 -86 57s-82 -36 -82 -97v-39h-69v38c0 63 -37 94 -87 94
c-48 0 -90 -39 -90 -109c0 -85 57 -128 125 -128c23 0 46 5 67 16l14 -64c-27 -12 -56 -18 -83 -18c-106 0 -195 77 -195 194c0 109 73 176 158 176c77 0 111 -38 124 -72h4c12 39 45 76 106 76c48 0 78 -23 90 -37h4v120h-561v64h1014v-64z" />
    <glyph glyph-name="bnSH_MA" horiz-adv-x="881" 
d="M715 77c-3 48 -6 93 -6 169v332h-188v-381c89 -15 160 -72 194 -120zM781 -46h-68c-35 90 -113 160 -198 179c-13 -56 -47 -79 -82 -79s-62 22 -62 57c0 40 29 76 78 86v243c0 91 -38 137 -105 137c-56 0 -103 -38 -103 -110c0 -69 44 -108 110 -108c9 0 19 1 29 2v-63
c-9 -2 -20 -3 -30 -3c-66 0 -113 22 -145 73c-29 -52 -68 -74 -137 -74c-13 0 -26 1 -38 3v66c12 -3 26 -4 37 -4c76 0 105 48 105 109c0 64 -38 110 -114 110h-78v64h82c63 0 115 -21 145 -73c29 48 73 73 133 73c68 0 102 -34 116 -53h4c-1 6 -10 58 -10 123v29h71v-99
h358v-64h-98v-624z" />
    <glyph glyph-name="bnS_MA" horiz-adv-x="866" 
d="M321 578c2 -81 38 -153 112 -153c58 0 80 43 80 98c0 20 -2 38 -6 55h-186zM584 520c0 -66 -26 -120 -78 -145v-147c89 -14 160 -71 194 -119c-2 48 -6 93 -6 169v300h-116c4 -19 6 -38 6 -58zM766 -14h-68c-35 91 -112 160 -198 178c-13 -55 -47 -78 -82 -78
s-61 21 -61 57c0 39 28 75 77 85v132c-79 0 -130 50 -151 106c-21 -63 -62 -105 -129 -105c-57 0 -105 34 -135 78l47 45c23 -30 49 -58 88 -58c64 0 84 87 90 152h-264v64h902v-64h-116v-592z" />
    <glyph glyph-name="bnSS_MA" horiz-adv-x="747" 
d="M250 578c-27 0 -51 -7 -70 -20l176 -177c13 20 20 45 20 72c0 73 -54 125 -126 125zM250 326c25 0 47 6 66 17l-174 176c-11 -19 -17 -41 -17 -66c0 -74 53 -127 125 -127zM581 77c-3 48 -6 93 -6 169v332h-173c28 -32 45 -74 45 -125c0 -61 -23 -111 -61 -145v-111
c90 -14 161 -72 195 -120zM767 578h-120v-624h-68c-35 90 -113 160 -199 179c-13 -56 -47 -79 -82 -79s-61 22 -61 57c0 40 29 75 77 86v71c-20 -6 -41 -9 -64 -9c-113 0 -196 78 -196 194c0 51 17 93 45 125h-119v64h787v-64z" />
    <glyph glyph-name="bnH_MA" horiz-adv-x="840" 
d="M860 578h-304v-137c72 14 129 37 169 61l53 -57s-19 -55 -19 -215v-156h-71v156c0 97 5 154 9 185c-33 -16 -82 -31 -141 -42v-376h-67c-19 83 -64 167 -172 178c-17 -58 -52 -77 -79 -77c-34 0 -55 20 -55 54c0 35 27 69 75 82c1 7 1 14 1 21c0 72 -46 117 -104 130
c-15 -55 -51 -77 -79 -77c-33 0 -55 21 -55 55c0 35 27 69 75 82c-1 58 -25 101 -60 133h-56v64h880v-64zM490 143c-4 60 -7 117 -7 177v43c-31 -3 -64 -5 -97 -5c-27 0 -58 1 -88 4c18 -29 29 -65 29 -105v-18c94 -8 148 -67 163 -96zM384 424c35 0 68 2 99 5v149h-364
c26 -37 43 -84 43 -129c12 -2 25 -5 37 -9c59 -10 111 -16 185 -16z" />
    <glyph glyph-name="bnK_SS_MA" horiz-adv-x="1090" 
d="M551 120c-5 60 -7 140 -7 200v28h-73c-87 0 -151 56 -151 157v73h-197c26 -37 43 -84 43 -129c86 -12 165 -84 165 -192v-18c104 -8 193 -76 220 -119zM470 415h74v163h-153v-74c0 -60 28 -89 79 -89zM924 -104c-3 48 -6 108 -6 184v498h-301v-163h41
c108 0 176 -59 176 -150c0 -81 -43 -131 -97 -159l-47 54c40 17 73 51 73 105c0 58 -43 83 -103 83h-43v-311c134 -12 248 -83 307 -141zM1141 578h-151v-784h-68c-67 99 -188 169 -310 181c-11 -58 -44 -80 -80 -80c-35 0 -60 24 -60 59c0 36 24 67 63 79
c-35 72 -116 133 -214 142c-17 -58 -52 -77 -79 -77c-34 0 -56 20 -56 54c0 35 28 68 76 82v21c0 72 -46 117 -103 130c-15 -55 -51 -77 -79 -77c-33 0 -55 21 -55 55c0 36 27 69 75 82c-1 58 -25 101 -60 133h-60v64h1161v-64z" />
    <glyph glyph-name="bnK_LA" horiz-adv-x="811" 
d="M831 578h-286v-36c144 -4 222 -79 222 -171c0 -79 -40 -134 -99 -164l-46 55c46 22 75 54 75 109c0 65 -56 103 -152 106v-658h-70v240c-8 24 -32 59 -78 59c-44 0 -73 -36 -73 -96v-36h-68v35c0 62 -34 94 -80 94c-48 0 -81 -39 -81 -107c0 -83 47 -120 112 -120
c19 0 39 4 56 10l15 -64c-21 -8 -44 -13 -70 -13c-109 0 -184 74 -184 187c0 107 65 173 149 173c73 0 101 -36 115 -66h4c13 34 42 69 98 69c44 0 69 -21 81 -35h4v55l-290 125v73c69 65 175 122 290 136v40h-495v64h851v-64zM481 275c-5 71 -6 134 -6 196v1
c-82 -15 -165 -57 -218 -102l220 -95h4z" />
    <glyph glyph-name="bnG_LA" horiz-adv-x="661" 
d="M561 741v-99h120v-64h-120v-740h-72v238c-7 24 -32 60 -78 60c-44 0 -73 -36 -73 -97v-36h-68v35c0 63 -33 94 -80 94s-81 -39 -81 -107c0 -83 48 -120 113 -120c18 0 38 4 55 10l15 -64c-21 -8 -44 -13 -70 -13c-108 0 -184 74 -184 187c0 107 65 173 149 173
c73 0 101 -36 116 -65h4c13 33 41 68 97 68c44 0 69 -21 81 -35h4v209c0 104 -70 201 -189 201c-84 0 -137 -54 -160 -96c24 12 62 18 89 18c77 0 143 -48 143 -136c0 -62 -35 -121 -89 -168l-55 49c44 36 70 77 70 121c0 52 -38 76 -87 76c-33 0 -69 -10 -98 -24l-53 53
c29 93 124 174 238 174c126 0 184 -76 202 -109h4c-3 9 -15 73 -15 154v53h72z" />
    <glyph glyph-name="bnT_LA" horiz-adv-x="654" 
d="M-20 642h694v-64h-694v64zM97 503c35 -187 115 -342 277 -342c101 0 161 70 161 162c0 81 -38 127 -99 127c-46 0 -77 -27 -77 -76c0 -27 14 -54 42 -70l-50 -40c-39 23 -63 66 -63 114c0 78 54 137 146 137c104 0 171 -82 171 -194c0 -60 -20 -112 -55 -151v-470h-72
v238c-8 24 -33 59 -78 59c-44 0 -73 -36 -73 -96v-36h-68v35c0 62 -34 93 -81 93s-81 -38 -81 -107c0 -82 48 -119 113 -119c19 0 39 3 56 10l15 -64c-22 -9 -45 -13 -70 -13c-109 0 -184 73 -184 186c0 108 65 173 149 173c73 0 101 -35 115 -65h4c13 34 44 68 98 68
c44 0 69 -20 81 -34h4v91c-30 -14 -65 -21 -104 -21c-199 0 -302 167 -342 374z" />
    <glyph glyph-name="bnP_LA" horiz-adv-x="671" 
d="M132 506c67 -4 142 -40 168 -133l163 110c-36 60 -94 98 -171 98c-83 0 -139 -48 -160 -75zM81 449l-42 58c39 64 124 141 250 141c124 0 192 -72 222 -129l4 1c-5 15 -15 101 -15 179v42h72v-99h119v-64h-119v-663h-71v237c-8 24 -33 60 -76 60c-47 0 -75 -36 -75 -97
v-34h-68v35c0 62 -34 94 -81 94s-81 -39 -81 -107c0 -82 48 -120 113 -120c19 0 39 4 56 10l15 -64c-22 -8 -45 -13 -70 -13c-109 0 -184 74 -184 187c0 75 32 129 79 156l114 76c-17 62 -57 105 -137 110c-8 2 -15 3 -25 4zM318 210c13 33 44 67 98 67c44 0 69 -21 81 -34
h4v83c0 33 -4 64 -12 93l-132 -87c-37 -24 -72 -46 -103 -65c34 -12 50 -36 60 -57h4z" />
    <glyph glyph-name="bnPH_LA" horiz-adv-x="821" 
d="M469 -241v240c-8 24 -32 59 -77 59c-44 0 -74 -36 -74 -97v-35h-68v35c0 62 -34 93 -80 93c-48 0 -81 -38 -81 -107c0 -82 47 -120 113 -120c18 0 38 3 55 10l15 -64c-21 -9 -44 -13 -70 -13c-109 0 -184 74 -184 187c0 108 65 173 149 173c71 0 101 -36 115 -65h4
c13 34 45 68 99 68c41 0 68 -21 80 -34h4v54l-319 120v77l142 99l-131 119v20h-181v64h861v-64h-595v-4l121 -109v-58l-142 -98l247 -94h4c-6 72 -8 133 -8 197v85c34 15 76 23 126 23c107 0 195 -56 195 -168c0 -92 -58 -146 -120 -171l-42 58c52 19 91 58 91 113
c0 62 -49 100 -114 100c-25 0 -45 -2 -63 -7v-686h-72z" />
    <glyph glyph-name="bnB_LA" horiz-adv-x="642" 
d="M662 578h-120v-784h-72v237c-7 24 -31 60 -77 60c-44 0 -74 -36 -74 -97v-35h-68v35c0 62 -33 93 -80 93s-81 -38 -81 -107c0 -82 48 -120 113 -120c18 0 38 4 55 11l15 -64c-21 -8 -44 -13 -70 -13c-108 0 -184 73 -184 186c0 108 65 173 149 173c73 0 101 -36 116 -65
h4c13 33 45 68 98 68c44 0 68 -21 81 -34h3v56l-295 131v86c96 82 202 132 296 165v18h-491v64h682v-64zM475 251l4 1c-5 71 -8 143 -8 206v30c-76 -29 -153 -70 -233 -133z" />
    <glyph glyph-name="bnBH_LA" horiz-adv-x="650" 
d="M551 -94h-72v238c-7 24 -32 59 -78 59c-44 0 -73 -35 -73 -96v-36h-68v35c0 62 -34 94 -80 94c-48 0 -81 -39 -81 -107c0 -83 48 -120 113 -120c18 0 38 4 55 10l15 -63c-21 -8 -44 -13 -70 -13c-108 0 -184 73 -184 186c0 107 65 174 149 174c73 0 101 -36 116 -66h4
c13 34 44 69 97 69c44 0 69 -21 81 -35h4v65c0 60 -13 102 -31 127h-4c-40 -88 -94 -125 -159 -125c-79 0 -129 55 -129 123c0 27 8 53 21 71l73 -13c-13 -13 -22 -36 -22 -56c0 -34 20 -60 60 -60c44 0 81 36 125 144h57c49 -48 81 -122 81 -211v-394zM670 578h-690v64h690
v-64z" />
    <glyph glyph-name="bnM_LA" horiz-adv-x="666" 
d="M-20 642h706v-64h-123c15 -17 29 -47 29 -89c0 -30 -8 -61 -26 -86v-478h-71v239c-8 24 -33 59 -78 59c-44 0 -73 -35 -73 -96v-36h-68v35c0 62 -34 94 -81 94s-81 -39 -81 -107c0 -83 48 -121 113 -121c18 0 40 4 57 10l14 -63c-22 -8 -45 -13 -70 -13
c-109 0 -184 74 -184 187c0 107 65 173 149 173c73 0 101 -36 115 -66h4c13 34 42 69 98 69c44 0 69 -21 81 -35h4v101c-13 -3 -28 -5 -45 -5c-119 0 -150 100 -230 100c-35 0 -59 -23 -59 -58c0 -24 8 -41 18 -56l-60 -26c-17 21 -29 50 -29 84c0 58 29 103 83 118
c-6 25 -17 48 -33 66h-160v64zM446 419c55 0 74 42 74 78c0 42 -23 81 -80 81h-216c10 -19 17 -40 21 -63c92 -15 123 -96 201 -96z" />
    <glyph glyph-name="bnL_LA" horiz-adv-x="724" 
d="M353 192c11 39 43 76 106 76c48 0 78 -23 90 -37h4v151c-8 25 -37 60 -87 60c-48 0 -81 -36 -81 -97v-36h-69v35c0 64 -37 95 -88 95c-47 0 -90 -39 -90 -109c0 -33 9 -59 24 -78c19 8 41 13 63 13c76 0 110 -39 123 -73h5zM744 578h-120v-683h-71v246
c-8 25 -37 60 -87 60c-48 0 -81 -36 -81 -97v-36h-69v35c0 63 -37 94 -88 94c-47 0 -90 -38 -90 -108c0 -82 55 -125 122 -125c21 0 45 4 64 12l14 -63c-22 -9 -48 -15 -77 -15c-109 0 -195 77 -195 190c0 51 16 93 41 123c-25 30 -41 71 -41 119c0 109 74 176 159 176
c76 0 110 -38 123 -72h5c11 38 43 75 106 75c48 0 78 -22 90 -36h4v105h-573v64h764v-64z" />
    <glyph glyph-name="bnSH_LA" horiz-adv-x="686" 
d="M587 -137h-74v243c-8 25 -34 60 -80 60c-45 0 -76 -36 -76 -98v-38h-69v38c0 63 -35 94 -81 94c-48 0 -83 -38 -83 -108c0 -82 46 -121 112 -121c18 0 38 4 55 10l14 -63c-22 -8 -46 -13 -71 -13c-103 0 -183 71 -183 186c0 110 68 176 153 176c74 0 103 -37 117 -67h4
c12 35 44 71 101 71c45 0 71 -21 83 -35h4v239c0 91 -38 137 -112 137c-59 0 -107 -32 -107 -110c0 -74 45 -110 112 -110c17 0 39 2 52 9v-67c-11 -3 -33 -8 -53 -8c-67 0 -116 23 -149 75c-29 -53 -71 -76 -141 -76c-20 0 -45 4 -56 7v69c13 -7 37 -10 55 -10
c77 0 109 43 109 111c0 78 -41 114 -114 114h-129v64h129c72 0 119 -23 150 -76c29 50 78 75 140 75c76 0 109 -40 122 -61h4c-2 6 -11 58 -11 125v36h73v-99h119v-64h-119v-715z" />
    <glyph glyph-name="bnS_LA" horiz-adv-x="656" 
d="M91 484c22 -30 48 -58 86 -58c65 0 83 91 89 152h-286v64h696v-64h-72c5 -19 7 -38 7 -58c0 -47 -14 -88 -41 -117v-451h-71v239c-8 24 -33 59 -78 59c-44 0 -74 -36 -74 -96v-36h-68v35c0 62 -33 93 -80 93s-81 -38 -81 -107c0 -82 48 -120 113 -120c18 0 38 4 55 10
l16 -63c-22 -9 -45 -13 -70 -13c-109 0 -185 73 -185 186c0 108 65 173 149 173c73 0 102 -36 116 -65h4c13 34 42 68 98 68c44 0 68 -21 81 -34h4v85c-12 -3 -25 -4 -39 -4c-80 0 -132 51 -153 108c-21 -66 -62 -107 -130 -107c-56 0 -103 35 -133 76zM538 523
c0 20 -3 38 -7 55h-186c3 -82 41 -152 114 -152c57 0 79 42 79 97z" />
    <glyph glyph-name="bnH_LA" horiz-adv-x="599" 
d="M163 224h42c163 0 223 65 223 145c0 62 -48 98 -111 98c-57 0 -97 -34 -97 -86c0 -26 14 -52 39 -67l-53 -39c-37 24 -56 64 -56 107c0 86 69 150 166 150c105 0 181 -65 181 -166c0 -108 -74 -167 -180 -184v-4c40 -5 76 -14 143 -39l138 -52l-43 -55
c-16 6 -31 12 -46 18v-335h-71v218c-5 21 -24 59 -66 59c-43 0 -65 -38 -65 -95v-28h-66v27c0 57 -25 95 -71 95s-74 -38 -74 -100c0 -81 50 -111 105 -111c16 0 32 3 47 8l15 -62c-19 -6 -39 -10 -65 -10c-98 0 -171 65 -171 175c0 101 58 164 140 164c64 0 92 -37 106 -66
h4c13 32 41 66 88 66c36 0 58 -19 70 -32h3v53c-165 61 -214 70 -275 75v73zM619 578h-639v64h639v-64z" />
    <glyph glyph-name="bnS_K_LA" horiz-adv-x="769" 
d="M112 485c22 -29 49 -58 88 -58c64 0 84 86 90 151h-310v64h809v-64h-165c4 -19 6 -38 6 -58c0 -48 -14 -90 -42 -119c94 -26 137 -98 137 -165c0 -68 -35 -123 -93 -154l-45 53c43 25 68 57 68 101c0 64 -49 107 -144 109v-642h-70v220c-5 21 -25 59 -67 59
c-43 0 -65 -37 -65 -96v-27h-67v27c0 57 -26 96 -72 96s-75 -39 -75 -101c0 -82 51 -112 106 -112c16 0 32 3 47 8l16 -63c-20 -6 -40 -10 -66 -10c-99 0 -172 65 -172 177c0 102 58 165 141 165c65 0 92 -37 107 -66h4c14 33 42 66 89 66c36 0 58 -18 70 -32h4v37l-272 136
v76c51 50 127 101 213 129c-25 19 -43 45 -53 74c-21 -62 -62 -104 -129 -104c-57 0 -105 34 -135 78zM559 523c0 20 -2 38 -6 55h-186c2 -81 38 -153 113 -153c57 0 79 43 79 98zM447 126c-5 71 -6 134 -6 196v16c-80 -18 -153 -64 -203 -107l205 -105h4z" />
    <glyph glyph-name="bnM_P_LA" horiz-adv-x="1074" 
d="M533 506c67 -4 142 -40 168 -133l162 109c-35 61 -93 99 -170 99c-84 0 -139 -48 -160 -75zM974 -85h-73v237c-7 24 -32 60 -77 60c-44 0 -74 -36 -74 -97v-34h-68v35c0 62 -33 94 -80 94s-81 -39 -81 -107c0 -83 48 -120 113 -120c18 0 38 4 55 10l15 -63
c-21 -8 -44 -13 -69 -13c-109 0 -185 73 -185 186c0 77 34 133 84 158l110 74c-16 57 -51 98 -119 108c-16 -52 -59 -93 -134 -93c-121 0 -141 100 -223 100c-34 0 -59 -21 -59 -56c0 -28 11 -47 25 -64l-60 -26c-21 21 -36 53 -36 92c0 54 27 97 76 113
c-6 27 -17 50 -33 69h-101v64h462c29 -14 52 -33 67 -59c44 37 104 65 181 65c124 0 192 -72 222 -129l4 1c-6 15 -16 101 -16 179v42h74v-99h120v-64h-120v-663zM719 210c13 33 42 67 97 67c45 0 69 -21 82 -34h3v83c0 33 -4 64 -12 93l-131 -87c-37 -24 -72 -47 -104 -65
c34 -13 51 -36 61 -57h4zM387 419c55 0 73 42 73 78c0 41 -22 81 -80 81h-216c10 -19 17 -40 21 -62c97 -11 121 -97 202 -97z" />
    <glyph glyph-name="bnS_P_LA" horiz-adv-x="1127" 
d="M743 648c124 0 192 -72 222 -129l4 1c-5 15 -16 101 -16 179v42h74v-99h120v-64h-120v-669h-72v241c-8 26 -33 60 -78 60c-44 0 -73 -36 -73 -97v-39h-69v38c0 64 -33 95 -79 95c-47 0 -80 -39 -80 -109c0 -81 44 -120 109 -120c16 0 34 4 50 9l13 -63
c-20 -8 -42 -12 -66 -12c-101 0 -178 70 -178 186c0 72 28 126 71 154l122 84c-16 60 -52 102 -126 111c-21 -53 -66 -87 -136 -87c-80 0 -131 50 -152 106c-21 -63 -62 -105 -129 -105c-57 0 -105 34 -135 78l47 45c23 -30 49 -58 88 -58c64 0 84 87 90 152h-264v64h578
c8 -19 13 -36 17 -51c42 32 99 57 168 57zM772 208c12 35 42 70 98 70c43 0 68 -22 81 -35h4v83c0 35 -5 69 -14 99l-134 -93c-37 -26 -72 -48 -102 -66c34 -12 52 -36 63 -58h4zM513 523c0 20 -2 38 -6 55h-186c2 -81 38 -153 112 -153c58 0 80 43 80 98zM586 506
c66 -4 141 -40 168 -131l161 111c-36 58 -93 95 -169 95c-83 0 -139 -48 -160 -75z" />
    <glyph glyph-name="bnNG_K_SSA" horiz-adv-x="1428" 
d="M370 463c53 0 82 28 82 68c0 35 -27 62 -72 62c-50 0 -75 -30 -75 -88v-31c20 -7 41 -11 65 -11zM613 271c0 -121 -93 -201 -251 -201c-198 0 -320 154 -330 331l66 15c13 -184 128 -277 264 -277c117 0 181 55 181 129c0 26 -5 46 -16 62c-57 -40 -106 -64 -168 -64
c-77 0 -122 49 -122 120v54c-58 34 -101 86 -125 138h-132v64h179c12 -43 39 -93 81 -129c2 92 55 140 137 140c75 0 142 -52 142 -123c0 -83 -65 -126 -150 -126c-22 0 -44 3 -64 8v-22c0 -38 17 -57 56 -57c51 0 114 31 182 88c14 -11 28 -25 40 -44c6 30 32 57 74 68
c-1 58 -26 101 -60 133h-60v64h911v-64h-275v-163h42c108 0 175 -59 175 -150c0 -81 -42 -131 -97 -159l-46 54c40 17 73 51 73 105c0 58 -43 83 -103 83h-44v-351h-67c-22 87 -114 167 -228 178c-17 -58 -53 -77 -79 -77c-34 0 -56 20 -56 54c0 35 28 68 76 82v21
c0 72 -46 117 -103 130c-15 -55 -51 -77 -79 -77c-11 0 -20 2 -28 6c2 -13 4 -28 4 -43zM1108 120c-5 60 -7 140 -7 200v28h-73c-88 0 -152 56 -152 157v73h-197c27 -37 44 -84 44 -130c85 -11 165 -83 165 -191v-18c104 -8 193 -76 220 -119zM1027 415h74v163h-153v-74
c0 -60 28 -89 79 -89z" />
    <glyph glyph-name="bnK_SA" horiz-adv-x="920" 
d="M940 578h-120v-595h-68c-3 71 -44 113 -150 113c-103 0 -226 -32 -367 -32c-85 0 -170 34 -206 116l56 37c23 -59 84 -88 159 -88c29 0 59 2 90 6v43l-272 133v74c63 62 162 125 272 143v50h-354v64h960v-64zM762 104c-4 26 -14 82 -14 202v272h-344v-44
c148 -2 215 -92 215 -177c0 -67 -34 -123 -93 -156l-45 53c43 26 68 60 68 103c0 65 -50 108 -145 110v-324c70 9 140 20 202 20c84 0 126 -28 152 -59h4zM340 253c-5 71 -6 134 -6 196v11c-80 -18 -153 -64 -203 -106l205 -101h4z" />
    <glyph glyph-name="bnN_SA" horiz-adv-x="861" 
d="M-20 642h901v-64h-120v-578h-74v270c0 38 -19 60 -56 60c-41 0 -78 -46 -120 -100c-46 -61 -98 -105 -160 -105c-56 0 -102 27 -133 65l47 50c21 -29 49 -48 88 -48c17 0 32 5 45 12l-101 104c-48 49 -84 70 -130 70c-38 0 -65 -23 -65 -59c0 -31 10 -49 25 -66l-61 -28
c-23 22 -37 54 -37 95c0 75 55 123 134 126c72 0 117 -29 182 -94l92 -93c3 13 5 26 5 39c0 76 -33 118 -94 185l-65 75v20h-303v64zM687 505v73h-324v-4l53 -63c45 -51 84 -101 87 -170c1 -7 1 -17 1 -23c25 36 68 83 123 83c29 0 49 -10 63 -22c-3 59 -3 123 -3 126z" />
    <glyph glyph-name="bnP_SA" horiz-adv-x="973" 
d="M326 642h667v-64h-120v-578h-73v270c0 38 -20 60 -57 60c-41 0 -78 -46 -119 -100c-44 -57 -96 -105 -161 -105c-53 0 -98 22 -130 55l42 52c23 -25 53 -40 90 -41h7l-86 131l-274 -168l-37 52l99 60c-20 48 -55 90 -125 94c-8 1 -14 2 -22 2l-40 55
c37 52 106 114 210 114c132 0 195 -96 238 -164l97 -146c15 20 22 48 22 77c0 76 -32 118 -93 185l-65 75v20h-70v64zM79 416c55 -7 114 -41 148 -118l125 76c-38 52 -86 94 -153 94c-66 0 -104 -35 -120 -52zM800 505v73h-324v-4l53 -63c45 -51 84 -101 87 -171
c1 -6 1 -16 1 -22c25 36 67 83 123 83c29 0 48 -10 63 -22c-3 59 -3 123 -3 126z" />
    <glyph glyph-name="bnK_RA" horiz-adv-x="903" 
d="M278 328c0 -39 23 -61 63 -61c31 0 55 14 65 23l28 -58c-24 -20 -61 -30 -97 -30c-81 0 -130 52 -130 124c0 106 97 199 227 199c76 0 120 -46 128 -105c32 39 79 58 135 58c96 0 170 -65 170 -163c0 -104 -71 -164 -155 -164c-34 0 -67 6 -94 19l18 63
c26 -10 46 -14 70 -14c50 0 90 34 90 96c0 57 -38 95 -101 95c-83 0 -132 -63 -132 -169v-287h-66c0 75 -43 111 -193 121c-198 13 -272 71 -272 181c0 32 10 66 26 96l69 -18c-15 -25 -24 -54 -24 -81c0 -67 40 -102 204 -113c145 -10 173 -40 197 -67h4
c-4 25 -14 80 -14 198v115c0 48 -21 73 -64 73c-83 0 -152 -58 -152 -131zM-20 578v64h943v-64h-943z" />
    <glyph glyph-name="bnKH_RA" horiz-adv-x="654" 
d="M487 -50c-6 62 -43 103 -117 103c-45 0 -109 -2 -144 -2c-122 0 -190 72 -194 172l71 17c0 -66 35 -122 128 -122c36 0 89 2 125 2c78 0 117 -23 137 -56h4c-3 16 -12 47 -13 105l-389 123v81c146 3 258 29 258 122c0 26 -13 49 -26 60c-32 -71 -82 -104 -146 -104
c-77 0 -123 48 -123 112c0 33 10 63 21 80h71c-12 -19 -24 -48 -24 -78c0 -29 17 -52 59 -52c48 0 80 31 113 129h37c46 -39 87 -86 87 -150c0 -102 -75 -149 -204 -167v-4l268 -80h3c-5 76 -6 142 -6 214v286h72v-99h107v-64h-107v-628h-68z" />
    <glyph glyph-name="bnG_RA" horiz-adv-x="630" 
d="M530 741v-99h120v-64h-120v-613h-67c-6 61 -44 103 -118 103c-45 0 -98 -2 -133 -2c-121 0 -188 72 -193 171l71 18c0 -66 35 -122 129 -122c36 0 78 2 115 2c76 0 114 -23 135 -57h4c-4 17 -14 51 -14 114v184c0 104 -59 200 -173 200c-77 0 -130 -44 -153 -86
c23 10 54 16 84 16c84 0 148 -50 148 -136c0 -88 -58 -148 -116 -188l-57 48c47 31 99 75 99 141c0 49 -38 73 -90 73c-34 0 -68 -8 -95 -20l-53 56c31 93 117 163 231 163c107 0 163 -67 186 -104h4c-3 10 -15 76 -15 157v45h71z" />
    <glyph glyph-name="bnGH_RA" horiz-adv-x="623" 
d="M456 -112c-6 61 -44 103 -118 103c-45 0 -75 -2 -110 -2c-120 0 -188 72 -193 171l71 18c0 -66 36 -122 129 -122c36 0 55 2 92 2c76 0 113 -23 134 -56h4c-3 17 -13 50 -13 113v16l-364 97v75l48 29c50 31 76 40 83 44v4c-89 5 -137 51 -137 123c0 29 9 55 23 75h-125
v64h663v-64h-120v-690h-67zM454 201l4 1c-5 68 -7 138 -7 201v175h-262c-21 -18 -34 -45 -34 -73c0 -54 43 -75 91 -75c45 0 74 10 109 31l31 -60l-209 -126z" />
    <glyph glyph-name="bnNG_RA" horiz-adv-x="668" 
d="M311 506v-31c19 -7 41 -11 64 -11c54 0 83 28 83 68c0 35 -28 63 -73 63c-49 0 -74 -31 -74 -89zM502 -176h-67c-6 61 -33 103 -106 103c-45 0 -55 -2 -89 -2c-113 0 -180 64 -184 163l70 18c0 -67 35 -114 120 -114c28 0 37 2 72 2c76 0 103 -23 124 -57h4
c-3 17 -15 51 -15 114v31c-20 -3 -41 -5 -64 -5c-199 0 -318 150 -328 325l68 17c13 -184 127 -276 261 -276c116 0 176 57 176 131c0 25 -4 46 -15 62c-55 -41 -105 -65 -166 -65c-75 0 -117 48 -117 118v52c-57 33 -99 86 -123 137h-143v64h190c11 -42 37 -93 78 -129
c2 93 55 140 134 140c81 0 141 -50 141 -122c0 -84 -64 -125 -148 -125c-23 0 -44 3 -64 8v-22c0 -38 17 -58 56 -58c52 0 114 37 179 93c33 -26 69 -78 69 -151c0 -79 -40 -141 -113 -173v-279z" />
    <glyph glyph-name="bnC_RA" horiz-adv-x="524" 
d="M-20 578v64h564v-64h-344c14 -25 41 -39 75 -52l69 -25c84 -31 128 -66 128 -146c0 -29 -8 -58 -23 -84v-363h-67c-6 61 -32 103 -105 103c-45 0 -55 -2 -90 -2c-113 0 -179 64 -184 163l70 18c0 -66 36 -114 120 -114c28 0 37 2 72 2c76 0 103 -23 124 -57h4
c-3 17 -15 51 -15 114v61c-34 -22 -76 -36 -121 -36c-84 0 -134 49 -134 123v295h-143zM193 505h-4c1 -29 5 -59 5 -150v-68c0 -37 18 -60 63 -60c66 0 143 55 143 130c0 37 -13 58 -79 82l-52 18c-44 15 -66 35 -76 48z" />
    <glyph glyph-name="bnCH_RA" horiz-adv-x="624" 
d="M169 578c15 -35 80 -45 135 -68c18 7 44 12 71 12c102 0 185 -64 185 -170c0 -127 -90 -198 -273 -206v-4c27 -8 68 -24 137 -60l156 -82l-47 -54c-14 8 -27 15 -40 22v-177h-67c-6 61 -42 103 -116 103c-45 0 -72 -2 -107 -2c-118 0 -183 72 -188 171l70 18
c0 -66 34 -122 125 -122c36 0 53 2 89 2c76 0 111 -23 132 -57h4c-3 17 -12 47 -13 102c-214 115 -249 125 -314 132v63h116c179 0 264 55 264 151c0 71 -51 102 -114 104c8 -14 12 -30 12 -49c0 -77 -64 -150 -158 -150c-79 0 -121 48 -121 112v209h-127v64h664v-64h-475z
M318 408c0 60 -94 49 -141 89v-126c0 -29 15 -50 52 -50c52 0 89 42 89 87z" />
    <glyph glyph-name="bnJ_RA" horiz-adv-x="793" 
d="M626 -154c-6 71 -59 103 -137 103c-43 0 -219 -2 -253 -2c-131 0 -207 72 -212 171l70 18c0 -66 49 -122 148 -122c36 0 202 2 234 2c79 0 129 -25 155 -65h4c-3 17 -13 53 -13 116v94c0 105 32 180 38 193c-127 9 -202 87 -225 175c-44 -28 -114 -64 -114 -112
c0 -31 23 -42 67 -45l105 -9c29 -25 49 -70 49 -112c0 -92 -67 -167 -190 -167c-176 0 -303 164 -309 360l70 20c4 -171 100 -310 237 -310c81 0 119 43 119 94c0 23 -7 40 -16 52l-88 7c-70 7 -120 36 -120 104c0 76 83 128 149 167h-414v64h833v-64h-322
c12 -72 59 -160 199 -160h18l33 -52c-25 -45 -48 -114 -48 -208v-312h-67z" />
    <glyph glyph-name="bnJH_RA" horiz-adv-x="781" 
d="M396 261h5c-5 71 -8 140 -8 203v23c-69 -27 -135 -64 -213 -117zM610 458v283h71v-99h120v-64h-120v-318l-67 -35l-149 78v-323h-67c-4 55 -36 103 -110 103c-45 0 -55 -2 -89 -2c-119 0 -176 72 -181 171l71 18c0 -67 26 -122 116 -122c36 0 36 2 72 2
c76 0 104 -25 126 -57h4c-3 15 -11 43 -13 92l-281 142v81c98 72 190 119 280 151v19h-413v64h485v-260l150 -78l4 2c-2 15 -9 67 -9 152z" />
    <glyph glyph-name="bnNY_RA" horiz-adv-x="856" 
d="M389 644c68 0 105 -38 117 -81c14 30 62 82 140 82c79 0 134 -51 134 -123c0 -50 -27 -87 -67 -104v-4c38 -12 78 -46 78 -107c0 -74 -54 -131 -140 -131c-66 0 -121 45 -136 69c2 -9 5 -51 5 -101v-285h-67c-6 62 -32 103 -105 103c-45 0 -78 -3 -120 -3
c-114 0 -173 69 -177 173l70 18c1 -73 28 -124 113 -124c36 0 67 4 103 4c76 0 103 -23 123 -57h4c-3 17 -14 48 -14 111v4c0 54 -56 78 -182 93c-158 19 -233 72 -233 170c0 40 13 78 33 108l63 -27c-16 -23 -25 -52 -25 -80c0 -61 58 -87 165 -101
c121 -15 160 -37 187 -68h4c-3 24 -13 79 -13 196v126c0 47 -17 73 -64 73c-82 0 -140 -68 -140 -140c0 -39 23 -61 62 -61c31 0 55 14 65 22l27 -55c-24 -19 -59 -30 -95 -30c-79 0 -130 51 -130 124c0 105 87 206 215 206zM638 579c-54 0 -120 -49 -120 -164
c0 -102 47 -172 128 -172c50 0 75 33 75 68c0 45 -31 71 -86 71h-23v61h18c50 0 80 30 80 75c0 35 -24 61 -72 61z" />
    <glyph glyph-name="bnTT_RA" horiz-adv-x="551" 
d="M2 920l70 15c-1 -11 -3 -22 -3 -33c0 -37 16 -75 98 -75h139c99 0 174 -47 174 -140c0 -13 -2 -29 -5 -45h96v-64h-393v-270c0 -52 33 -78 87 -78c88 0 146 60 146 138c0 50 -21 82 -71 82c-26 0 -49 -14 -62 -33l-41 58c20 23 55 44 103 44c85 0 144 -56 144 -151
c0 -38 -9 -73 -26 -103v-343h-67c-3 56 -36 104 -109 104c-45 0 -55 -2 -90 -2c-118 0 -175 72 -180 171l70 18c0 -67 26 -122 117 -122c36 0 36 2 71 2c76 0 105 -26 127 -57h4c-3 17 -14 51 -14 113v44c-34 -20 -76 -31 -122 -31c-92 0 -159 50 -159 143v273h-126v64h423
c2 14 4 31 4 40c0 57 -34 80 -112 80h-133c-125 0 -162 64 -162 129c0 10 0 19 2 29z" />
    <glyph glyph-name="bnTTH_RA" horiz-adv-x="577" 
d="M530 273c0 -47 -14 -92 -40 -127v-325h-67c-3 56 -36 103 -109 103c-45 0 -55 -1 -90 -1c-119 0 -175 71 -180 171l70 18c0 -67 26 -122 117 -122c36 0 36 2 71 2c76 0 105 -26 127 -57h4c-3 17 -14 51 -14 113v39c-29 -14 -64 -22 -103 -22c-133 0 -231 109 -236 231
c121 32 177 90 177 207v64l-10 11h-267v64h222c-42 48 -59 99 -59 142c0 92 71 153 169 149l15 -68c-66 7 -110 -28 -110 -86c0 -42 25 -88 67 -137h327v-64h-275c137 -142 194 -193 194 -305zM321 500c9 -170 -104 -226 -157 -244c4 -46 57 -124 154 -124
c88 0 139 64 139 140c0 93 -70 156 -136 228z" />
    <glyph glyph-name="bnDD_RA" horiz-adv-x="668" 
d="M688 578h-358v-109c0 -34 13 -54 47 -54c37 0 88 27 154 86c33 -21 77 -83 77 -161c0 -61 -18 -111 -51 -148v-325h-67c-6 62 -42 103 -116 103c-45 0 -104 -2 -139 -2c-119 0 -183 72 -188 172l70 18c0 -67 34 -123 125 -123c35 0 85 2 121 2c76 0 111 -23 132 -56h4
c-3 17 -13 50 -13 113v48c-34 -14 -75 -22 -122 -22c-197 0 -306 164 -316 352l70 15c9 -187 105 -298 247 -298c108 0 171 62 171 150c0 27 -6 50 -18 68c-46 -36 -92 -61 -145 -61c-73 0 -116 51 -116 119v113h-277v64h708v-64z" />
    <glyph glyph-name="bnDDH_RA" horiz-adv-x="556" 
d="M181 578v-262c0 -52 33 -78 87 -78c88 0 146 56 146 134c0 50 -23 79 -73 79c-26 0 -49 -14 -62 -33l-41 58c20 22 55 44 103 44c85 0 145 -53 145 -148c0 -38 -9 -72 -25 -100v-353h-67c-3 56 -35 103 -109 103c-45 0 -55 -1 -90 -1c-118 0 -175 71 -180 171l70 18
c0 -67 27 -122 117 -122c36 0 36 2 72 2c76 0 104 -26 126 -57h4c-3 17 -13 50 -13 127v41c-34 -20 -76 -31 -123 -31c-92 0 -159 50 -159 143v265h-129v64h596v-64h-395z" />
    <glyph glyph-name="bnNN_RA" horiz-adv-x="572" 
d="M236 587c-88 0 -133 -59 -133 -136c0 -74 53 -110 115 -110c28 0 51 8 70 18l20 -58c-22 -14 -54 -23 -90 -23c-103 0 -184 69 -184 174c0 110 72 197 199 197c105 0 154 -63 176 -104h4c-4 22 -9 70 -9 147v49h68v-99h120v-64h-120v-621h-65c-6 62 -30 103 -103 103
c-43 0 -57 -2 -90 -2c-113 0 -177 64 -182 164l70 18c0 -67 37 -115 119 -115c27 0 37 2 71 2c76 0 101 -23 122 -56h4c-3 17 -15 50 -15 113v160c0 141 -53 243 -167 243z" />
    <glyph glyph-name="bnT_RA" horiz-adv-x="665" 
d="M280 328c0 73 71 131 147 131c54 0 68 -34 68 -73v-115c0 -118 10 -173 14 -198h-4c-21 25 -64 59 -212 67c-145 7 -188 46 -188 113c0 27 9 56 23 81l-70 18c-16 -30 -26 -64 -26 -96c0 -107 68 -172 257 -181c159 -7 210 -46 210 -121h66v446c0 68 -45 125 -129 125
c-131 0 -227 -93 -227 -199c0 -72 48 -124 130 -124c35 0 73 10 96 30l-27 58c-11 -9 -34 -23 -66 -23c-39 0 -62 22 -62 61zM-20 578v64h705v-64h-705z" />
    <glyph glyph-name="bnTH_RA" horiz-adv-x="639" 
d="M180 429l-59 -31c-36 28 -46 69 -46 101c0 88 69 148 162 148c90 0 173 -52 173 -159c0 -88 -57 -165 -212 -182v-4l272 -93h4c-4 61 -6 123 -6 194v338h71v-99h120v-64h-120v-675h-67c-3 55 -35 103 -109 103c-45 0 -105 -1 -139 -1c-119 0 -176 71 -181 171l71 18
c0 -67 26 -122 116 -122c36 0 86 1 122 1c76 0 104 -25 126 -56h4c-3 17 -13 50 -13 113v9l-383 133v83c183 3 253 52 253 134c0 57 -38 92 -101 92c-50 0 -91 -31 -91 -83c0 -27 12 -50 33 -69z" />
    <glyph glyph-name="bnD_RA" horiz-adv-x="566" 
d="M586 578h-398v-244c56 58 164 141 250 177l62 -36c-23 -71 -35 -157 -35 -240v-296h-67c-3 56 -35 104 -109 104c-45 0 -55 -2 -90 -2c-118 0 -175 72 -180 171l71 18c0 -67 26 -122 116 -122c36 0 36 2 72 2c76 0 104 -26 126 -57h4c-3 17 -13 51 -13 114v74
c0 73 9 136 24 188c-85 -56 -150 -106 -230 -194l-73 32v311h-136v64h606v-64z" />
    <glyph glyph-name="bnDH_RA" horiz-adv-x="596" 
d="M148 517c0 -52 54 -70 103 -70c57 0 120 31 173 67v128h192v-64h-120v-685h-67c-4 55 -36 103 -109 103c-46 0 -55 -2 -90 -2c-119 0 -176 72 -180 171l70 18c0 -67 26 -122 117 -122c35 0 36 2 71 2c76 0 105 -25 126 -57h4c-4 16 -12 62 -13 118l-336 127v77l36 20
c51 28 92 42 92 42v4c-88 5 -142 49 -142 125c0 75 52 131 143 131c41 0 84 -13 108 -34l-27 -56c-22 16 -48 25 -77 25c-45 0 -74 -27 -74 -68zM429 195l4 1c-6 66 -9 128 -9 190v45l-253 -136z" />
    <glyph glyph-name="bnN_RA" horiz-adv-x="547" 
d="M-20 578v64h586v-64h-107v-616h-67c-4 55 -36 103 -110 103c-45 0 -55 -1 -89 -1c-119 0 -176 71 -180 170l70 18c0 -66 26 -121 116 -121c36 0 37 1 72 1c76 0 104 -25 126 -57h4c-3 17 -13 51 -13 114v70c-34 90 -94 173 -179 173c-58 0 -83 -32 -83 -71
c0 -28 11 -47 25 -64l-61 -26c-20 22 -35 54 -35 91c0 78 57 137 151 137c86 0 149 -44 187 -117h4c-1 6 -10 69 -10 194v2h-407z" />
    <glyph glyph-name="bnP_RA" horiz-adv-x="648" 
d="M119 506c62 -4 133 -36 163 -117l153 105c-33 54 -85 87 -156 87c-84 0 -140 -48 -160 -75zM69 448l-42 61c40 63 126 139 249 139c124 0 182 -63 212 -120l4 1c-5 12 -16 100 -16 178v34h72v-99h120v-64h-120v-617h-68c-3 56 -39 103 -112 103c-45 0 -124 -1 -159 -1
c-118 0 -179 71 -184 171l71 18c0 -67 30 -122 120 -122c36 0 105 2 140 2c76 0 108 -26 130 -57h4c-3 17 -14 51 -14 113v138c0 38 -5 74 -14 106l-300 -208l-37 57l101 69c-17 48 -49 81 -103 92c-16 4 -30 6 -54 6z" />
    <glyph glyph-name="bnPH_RA" horiz-adv-x="774" 
d="M417 -80c-4 55 -36 103 -110 103c-45 0 -55 -1 -89 -1c-119 0 -176 71 -180 171l70 18c0 -67 26 -122 116 -122c36 0 37 1 72 1c76 0 104 -25 126 -56h4c-3 17 -13 48 -13 109l-320 120v77l142 99l-131 119v20h-124v64h814v-64h-605v-4l121 -109v-58l-142 -98l247 -94h4
c-6 72 -8 133 -8 197v85c35 15 76 23 126 23c107 0 195 -56 195 -168c0 -92 -58 -146 -120 -171l-42 58c52 19 91 58 91 113c0 62 -49 100 -114 100c-25 0 -45 -2 -63 -7v-525h-67z" />
    <glyph glyph-name="bnB_RA" horiz-adv-x="556" 
d="M576 578h-119v-608h-67c-4 56 -36 104 -110 104c-45 0 -41 -2 -76 -2c-119 0 -175 72 -180 171l70 18c0 -67 26 -122 117 -122c35 0 22 2 58 2c76 0 104 -26 126 -57h4c-3 16 -12 46 -13 102l-280 141v81c97 72 189 119 279 151v19h-405v64h596v-64zM389 261h4
c-5 71 -8 140 -8 203v23c-69 -28 -136 -64 -212 -117z" />
    <glyph glyph-name="bnBH_RA" horiz-adv-x="592" 
d="M492 -18h-67c-3 56 -35 103 -109 103c-45 0 -55 -1 -90 -1c-118 0 -175 71 -180 171l70 18c0 -67 26 -122 117 -122c36 0 36 2 71 2c77 0 105 -26 127 -57h4c-4 18 -13 64 -13 131v73c0 60 -13 102 -32 127h-4c-40 -88 -94 -125 -158 -125c-79 0 -130 55 -130 123
c0 27 9 53 21 71l73 -13c-13 -13 -21 -36 -21 -56c0 -34 19 -60 59 -60c44 0 82 36 125 144h58c48 -48 79 -122 79 -211v-318zM612 578h-632v64h632v-64z" />
    <glyph glyph-name="bnM_RA" horiz-adv-x="597" 
d="M-20 642h637v-64h-107c15 -17 29 -47 29 -89c0 -38 -13 -77 -42 -104v-397h-67c-4 56 -36 104 -110 104c-45 0 -55 -2 -89 -2c-111 0 -169 62 -179 151l70 20c5 -57 35 -104 115 -104c36 0 36 2 72 2c76 0 104 -26 126 -57h4c-4 18 -13 64 -13 132v118
c-9 -1 -19 -2 -29 -2c-119 0 -142 100 -222 100c-35 0 -59 -23 -59 -58c0 -24 8 -40 19 -55l-61 -27c-18 21 -29 50 -29 84c0 54 26 97 73 114c-6 27 -17 51 -33 70h-105v64zM393 419c55 0 74 42 74 78c0 42 -23 81 -80 81h-219c11 -19 18 -39 22 -62
c99 -10 122 -97 203 -97z" />
    <glyph glyph-name="bnSH_RA" horiz-adv-x="640" 
d="M60 297v66c12 -3 25 -4 37 -4c76 0 102 48 102 109c0 64 -35 110 -111 110h-108v64h112c63 0 111 -21 142 -73c28 48 69 73 129 73c68 0 100 -34 114 -53h4c-2 6 -11 58 -11 123v29h70v-99h120v-64h-120v-607h-67c-4 55 -40 103 -113 103c-46 0 -107 -1 -142 -1
c-118 0 -182 71 -187 170l71 18c0 -66 32 -121 123 -121c36 0 88 1 123 1c76 0 109 -25 130 -56h4c-4 17 -13 64 -13 131v224c0 91 -34 137 -101 137c-57 0 -100 -38 -100 -110c0 -69 43 -108 110 -108c8 0 18 1 28 2v-63c-9 -2 -19 -3 -29 -3c-66 0 -114 22 -145 73
c-30 -52 -65 -74 -134 -74c-13 0 -26 1 -38 3z" />
    <glyph glyph-name="bnS_RA" horiz-adv-x="638" 
d="M68 484c23 -30 49 -58 88 -58c64 0 84 87 90 152h-266v64h678v-64h-78c4 -19 6 -38 6 -58c0 -60 -22 -111 -66 -139v-381h-67c-4 55 -36 103 -109 103c-45 0 -85 -1 -120 -1c-119 0 -176 71 -180 171l70 18c0 -67 26 -122 117 -122c35 0 66 1 101 1c76 0 105 -25 126 -56
h4c-3 18 -13 64 -13 131v115h-12c-80 0 -131 48 -153 106c-20 -63 -61 -105 -128 -105c-57 0 -105 34 -135 78zM515 523c0 20 -2 38 -6 55h-186c2 -81 38 -153 112 -153c58 0 80 43 80 98z" />
    <glyph glyph-name="bnSS_RA" horiz-adv-x="535" 
d="M555 578h-124c28 -32 45 -74 45 -125c0 -40 -10 -76 -28 -105v-357h-67c-4 55 -36 103 -110 103c-41 0 -43 -1 -73 -1c-119 0 -176 71 -181 171l71 18c0 -67 26 -122 116 -122c33 0 24 1 56 1c76 0 104 -25 126 -56h4c-4 18 -13 64 -13 131v46c-28 -15 -62 -23 -98 -23
c-113 0 -196 78 -196 194c0 51 17 93 45 125h-148v64h575v-64zM279 578c-29 0 -55 -8 -75 -23l189 -159c8 17 12 36 12 57c0 73 -54 125 -126 125zM279 326c29 0 56 9 77 24l-190 160c-8 -17 -12 -36 -12 -57c0 -74 53 -127 125 -127z" />
    <glyph glyph-name="bnY_RA" horiz-adv-x="585" 
d="M420 215c-5 72 -8 133 -8 197v166h-222v-4l122 -109v-58l-143 -98l247 -94h4zM418 -82c-3 56 -36 103 -109 103c-42 0 -62 -1 -92 -1c-119 0 -176 72 -180 171l70 18c0 -66 26 -121 117 -121c32 0 41 1 73 1c76 0 105 -26 127 -57h4c-4 16 -12 54 -14 111l-319 120v77
l142 99l-131 119v20h-126v64h625v-64h-120v-660h-67z" />
    <glyph glyph-name="bnL_RA" horiz-adv-x="687" 
d="M707 578h-108v-687h-66c-6 62 -33 103 -106 103c-45 0 -141 -2 -176 -2c-113 0 -180 64 -184 164l70 17c0 -66 36 -114 120 -114c28 0 124 2 159 2c76 0 103 -23 124 -56h4c-3 17 -15 50 -15 113v281c-8 25 -37 60 -86 60s-82 -36 -82 -97v-36h-69v35c0 64 -37 95 -88 95
c-47 0 -89 -32 -89 -102c0 -81 53 -116 119 -116c22 0 46 5 66 16l14 -64c-26 -13 -55 -19 -82 -19c-103 0 -190 68 -190 183c0 109 74 169 159 169c79 0 115 -50 124 -81h5c7 38 40 84 105 84c54 0 80 -30 90 -43h4v95h-549v64h727v-64z" />
    <glyph glyph-name="bnH_RA" horiz-adv-x="532" 
d="M-20 642h572v-64h-572v64zM267 187v-4c29 -8 94 -34 154 -68l117 -66l-47 -49c-15 9 -30 17 -44 25v-188h-67c-4 55 -34 103 -108 103c-42 0 -45 -1 -76 -1c-114 0 -172 66 -178 164l70 19c1 -66 28 -116 115 -116c33 0 25 1 58 1c76 0 103 -25 124 -56h4
c-4 16 -11 56 -13 114c-147 81 -192 96 -257 104v68h63c155 0 209 53 209 133c0 58 -44 97 -107 97c-56 0 -96 -33 -96 -85c0 -26 14 -53 41 -69l-52 -38c-39 25 -59 66 -59 110c0 84 67 147 164 147c104 0 179 -64 179 -165c0 -109 -75 -166 -194 -180z" />
    <glyph glyph-name="bnK_SS_RA" horiz-adv-x="871" 
d="M547 120c-4 60 -7 140 -7 200v28h-72c-88 0 -152 56 -152 157v73h-197c27 -37 44 -84 44 -130c85 -11 164 -83 164 -191v-18c104 -8 194 -76 220 -119zM467 415h73v163h-152v-74c0 -60 28 -89 79 -89zM891 578h-278v-163h42c108 0 175 -59 175 -150
c0 -81 -42 -131 -97 -159l-46 54c40 17 72 51 72 105c0 58 -43 83 -102 83h-44v-525h-67c-3 56 -40 103 -114 103c-45 0 -148 -1 -183 -1c-116 0 -180 65 -187 161l69 20c2 -64 35 -114 125 -114c36 0 129 1 165 1c76 0 109 -25 131 -56h4c-2 12 -8 32 -11 66
c-29 87 -118 162 -228 172c-17 -58 -52 -77 -79 -77c-33 0 -55 20 -55 54c0 35 28 69 76 82v21c0 72 -46 117 -103 130c-15 -55 -51 -77 -79 -77c-34 0 -55 21 -55 55c0 35 27 69 74 82c-1 58 -25 101 -59 133h-57v64h911v-64z" />
    <glyph glyph-name="bnJ_NY_RA" horiz-adv-x="829" 
d="M375 578c-40 -40 -87 -106 -87 -158c0 -34 30 -44 62 -47l129 -9v1c-64 47 -95 135 -100 213h-4zM414 -182c-6 62 -33 104 -105 104c-45 0 -55 -2 -90 -2c-113 0 -179 64 -184 163l70 18c0 -67 36 -114 120 -114c28 0 37 2 72 2c76 0 103 -23 124 -57h4
c-3 17 -15 51 -15 114v25c-19 -5 -39 -8 -62 -8c-176 0 -301 168 -307 364l69 19c3 -171 99 -313 236 -313c80 0 124 46 124 105c0 25 -5 43 -13 62l-115 7c-76 4 -126 38 -126 109c0 65 37 120 70 162h-306v64h869v-64h-401c4 -55 23 -102 50 -137c25 60 74 100 147 100
c75 0 124 -49 124 -116c0 -50 -29 -84 -65 -97v-4c36 -12 75 -45 75 -102c0 -68 -49 -123 -129 -123c-57 0 -100 24 -128 64c-10 -21 -23 -40 -41 -55v-290h-67zM702 423c0 32 -21 55 -64 55c-50 0 -106 -46 -106 -153c0 -96 40 -163 114 -163c43 0 67 30 67 63
c0 43 -29 68 -80 68h-20v58h17c46 0 72 28 72 72z" />
    <glyph glyph-name="bnNG_K_RA" horiz-adv-x="742" 
d="M493 578c0 -69 26 -120 82 -120c49 0 60 41 60 74c0 22 -3 36 -7 46h-135zM-20 578v64h782v-64h-68c5 -16 7 -37 7 -54c0 -72 -43 -128 -125 -128s-154 57 -154 182h-442zM171 297c-38 26 -58 67 -58 111c0 78 54 140 150 140c106 0 174 -83 174 -195v-24
c149 -2 216 -89 216 -175c0 -66 -35 -121 -93 -153l-45 54c43 24 68 57 68 101c0 65 -52 106 -146 106v-499h-67c-4 56 -35 103 -109 103c-22 0 -40 -1 -63 -1c-117 0 -174 69 -180 167l70 19c0 -66 28 -118 116 -118c19 0 36 1 54 1c68 0 96 -26 117 -57h4
c-3 14 -9 46 -12 92l-269 140v74c63 60 161 122 270 141v30c0 84 -41 129 -104 129c-47 0 -80 -28 -80 -78c0 -26 13 -53 39 -70zM374 43c-5 71 -6 130 -6 192v20c-79 -17 -151 -61 -201 -104l203 -108h4z" />
    <glyph glyph-name="bnSS_K_RA" horiz-adv-x="1048" 
d="M1068 578h-671c23 -25 38 -58 43 -96c37 23 82 37 133 37c76 0 120 -46 128 -105c32 38 79 57 135 57c95 0 170 -64 170 -162c0 -105 -71 -164 -155 -164c-34 0 -68 6 -94 19l18 63c26 -11 46 -14 70 -14c50 0 90 33 90 96c0 56 -39 94 -102 94c-82 0 -131 -63 -131 -169
v-287h-66c0 75 -43 112 -194 122c-197 13 -271 71 -271 181c0 7 1 14 2 21c-75 26 -125 92 -125 182c0 51 17 93 45 125h-113v64h1088v-64zM245 578c-29 0 -55 -8 -75 -23l188 -160c9 17 13 37 13 58c0 73 -54 125 -126 125zM417 322c0 -39 23 -61 63 -61c31 0 55 14 65 22
l28 -58c-24 -19 -62 -29 -97 -29c-68 0 -113 36 -126 90c-30 -17 -66 -27 -105 -27h-2c-1 -4 -1 -8 -1 -13c0 -66 40 -101 204 -113c145 -9 173 -39 196 -66h4c-4 25 -14 80 -14 198v115c0 48 -20 73 -63 73c-84 0 -152 -58 -152 -131zM245 326c29 0 56 9 77 24l-190 159
c-8 -16 -12 -35 -12 -56c0 -74 53 -127 125 -127z" />
    <glyph glyph-name="bnS_K_RA" horiz-adv-x="1144" 
d="M66 484c23 -30 49 -58 88 -58c64 0 84 87 90 152h-264v64h1184v-64h-586c4 -19 6 -38 6 -58c0 -5 0 -11 -1 -15c27 9 55 14 86 14c77 0 120 -46 128 -105c33 38 80 57 135 57c96 0 170 -64 170 -162c0 -105 -71 -164 -155 -164c-34 0 -67 6 -94 19l18 63
c26 -11 46 -14 70 -14c50 0 90 33 90 96c0 56 -38 94 -101 94c-83 0 -132 -63 -132 -169v-287h-66c0 75 -43 112 -193 122c-198 13 -272 71 -272 181c0 19 5 38 11 54l69 -13c-6 -13 -9 -28 -9 -45c0 -66 40 -101 204 -113c145 -9 173 -39 197 -66h4c-4 25 -14 80 -14 198
v115c0 48 -21 73 -64 73c-83 0 -152 -58 -152 -131c0 -39 23 -61 63 -61c31 0 55 14 65 22l28 -58c-24 -19 -61 -29 -97 -29c-81 0 -130 52 -130 124c0 14 2 27 5 40h-12c-80 0 -131 50 -152 106c-21 -63 -62 -105 -129 -105c-57 0 -105 34 -135 78zM513 523
c0 20 -2 38 -6 55h-186c2 -81 38 -153 112 -153c58 0 80 43 80 98z" />
    <glyph glyph-name="bnNG_GH_RA" horiz-adv-x="1122" 
d="M297 502v-27c21 -7 44 -12 69 -12c53 0 77 28 77 65c0 34 -27 64 -74 64c-49 0 -72 -33 -72 -90zM1022 -89h-67c-3 55 -38 103 -111 103c-45 0 -126 -1 -160 -1c-91 0 -146 39 -170 101c-40 -26 -94 -40 -158 -40c-199 0 -311 156 -318 326l66 17
c9 -175 117 -276 253 -276c109 0 174 56 174 131c0 25 -5 45 -14 59c-53 -43 -106 -64 -161 -64c-83 0 -129 49 -129 120v55c-57 34 -100 86 -123 136h-124v64h171c12 -41 38 -89 78 -125c3 87 56 136 136 136c23 0 43 -4 61 -11h716v-64h-120v-667zM961 24h4
c-3 16 -12 53 -14 107l-355 95c-5 -21 -13 -39 -24 -56c8 -51 40 -90 118 -90c37 0 106 1 142 1c76 0 107 -25 129 -57zM533 424c26 -22 55 -60 65 -114l37 22c50 31 76 40 84 44v4c-89 5 -137 51 -137 123c0 29 9 55 23 75h-106c8 -16 12 -34 12 -52
c0 -67 -50 -123 -144 -123c-25 0 -48 3 -70 9v-20c0 -38 21 -58 61 -58c53 0 106 33 175 90zM954 201l3 1c-5 68 -6 138 -6 201v175h-263c-21 -18 -33 -45 -33 -73c0 -54 43 -75 91 -75c45 0 73 10 108 31l32 -60l-210 -126z" />
    <glyph glyph-name="bnC_CH_RA" horiz-adv-x="934" 
d="M147 496h-4c2 -10 6 -64 6 -157v-89c0 -37 19 -61 65 -61c68 0 137 64 137 147c0 39 -16 70 -84 94l-40 13c-45 16 -67 35 -80 53zM479 578c16 -35 80 -45 135 -68c19 7 45 12 72 12c102 0 184 -64 184 -170c0 -127 -90 -198 -272 -206v-4c27 -8 67 -24 137 -60l156 -82
l-48 -54c-23 13 -45 24 -65 35v-182h-67c-6 61 -42 103 -116 103c-42 0 -73 -2 -103 -2c-119 0 -184 72 -188 172l70 18c0 -67 34 -123 125 -123c32 0 52 2 84 2c77 0 112 -23 133 -57h4c-3 17 -13 51 -13 108c-192 102 -227 111 -289 118v63h116c180 0 264 55 264 151
c0 71 -51 102 -114 104c8 -13 12 -30 12 -49c0 -77 -64 -150 -157 -150c-61 0 -99 28 -114 70c-5 -112 -98 -205 -212 -205c-85 0 -136 49 -136 126v330h-97v64h974v-64h-475zM629 408c0 60 -94 49 -142 89v-126c0 -29 15 -50 53 -50c52 0 89 42 89 87zM291 494
c68 -24 111 -58 127 -109v193h-270c14 -28 43 -47 86 -63z" />
    <glyph glyph-name="bnK_TT_RA" horiz-adv-x="651" 
d="M58 920l69 15c-1 -11 -3 -22 -3 -33c0 -37 16 -75 98 -75h171c99 0 173 -47 173 -140c0 -13 -1 -29 -4 -45h109v-64h-285v-23c143 -5 213 -75 213 -158c0 -81 -44 -128 -99 -156l-46 54c40 16 75 47 75 102c0 66 -57 92 -143 94v-244c-85 -20 -193 -55 -193 -155
c0 -75 62 -115 147 -115c91 0 130 40 130 89c0 38 -26 62 -62 62c-20 0 -43 -8 -56 -21l-37 56c20 17 53 31 93 31c70 0 132 -47 132 -129c0 -40 -14 -74 -40 -100v-288h-67c-4 55 -36 103 -109 103c-42 0 -72 -1 -102 -1c-119 0 -175 71 -180 171l70 17
c0 -66 26 -121 117 -121c33 0 51 1 83 1c76 0 105 -25 126 -57h4c-4 18 -13 64 -13 132v2c-26 -9 -56 -13 -89 -13c-132 0 -218 74 -218 180c0 88 49 139 106 168l-184 87v72c65 64 159 119 272 133v27h-336v64h509c3 14 5 31 5 40c0 57 -35 80 -112 80h-165
c-125 0 -161 64 -161 129c0 10 0 19 2 29zM317 291l2 -1h3c-5 70 -6 134 -6 196c-79 -15 -152 -56 -200 -100l200 -95h1z" />
    <glyph glyph-name="bnNN_TT_RA" horiz-adv-x="865" 
d="M288 920l70 15c-1 -11 -3 -22 -3 -33c0 -37 16 -75 98 -75h163c99 0 173 -47 173 -140c0 -13 -1 -29 -4 -45h100v-64h-397v-270c0 -52 33 -78 87 -78c88 0 146 60 146 138c0 50 -21 82 -71 82c-26 0 -49 -14 -62 -33l-41 58c20 23 55 44 103 44c85 0 144 -56 144 -151
c0 -42 -12 -81 -32 -112v-343h-67c-4 55 -36 103 -110 103c-41 0 -78 -1 -108 -1c-119 0 -176 72 -180 171l70 18c0 -67 26 -122 117 -122c32 0 58 1 90 1c76 0 104 -25 126 -56h4c-4 18 -13 64 -13 131v32c-33 -18 -72 -28 -116 -28c-92 0 -160 50 -160 143v17
c0 146 -46 253 -165 253c-90 0 -137 -58 -137 -134c0 -77 51 -118 118 -118c31 0 59 11 76 24l24 -64c-23 -17 -63 -28 -102 -28c-115 0 -190 80 -190 186c0 114 76 201 208 201c81 0 138 -38 164 -83h4v83h297c3 14 5 31 5 40c0 57 -35 80 -112 80h-157
c-125 0 -162 64 -162 129c0 10 1 19 2 29z" />
    <glyph glyph-name="bnTT_TT_RA" horiz-adv-x="624" 
d="M26 920l70 15c-1 -11 -3 -22 -3 -33c0 -37 16 -75 98 -75h171c98 0 173 -47 173 -140c0 -13 -2 -29 -4 -45h109v-64h-415v-280c0 -51 33 -78 87 -78c88 0 154 60 154 149c0 45 -21 80 -70 80c-26 0 -49 -14 -63 -33l-40 58c20 23 55 44 103 44c85 0 142 -60 142 -148
c0 -25 -4 -49 -10 -71c27 -32 42 -73 42 -124c0 -61 -21 -112 -57 -149v-311h-67c-4 56 -36 103 -109 103c-42 0 -91 -1 -122 -1c-118 0 -179 72 -184 171l71 18c0 -67 30 -121 120 -121c33 0 71 1 103 1c76 0 105 -26 126 -57h4c-3 18 -13 64 -13 131v20
c-31 -12 -67 -19 -106 -19c-143 0 -254 91 -312 227l57 44c49 -119 134 -203 255 -203c100 0 160 59 160 147c0 20 -3 36 -8 50c-40 -46 -100 -75 -175 -75c-97 0 -160 54 -160 142v285h-173v64h478c3 14 5 31 5 40c0 57 -35 80 -113 80h-164c-125 0 -162 64 -162 129
c0 10 0 19 2 29z" />
    <glyph glyph-name="bnN_TT_RA" horiz-adv-x="811" 
d="M227 920l70 15c-2 -11 -3 -22 -3 -33c0 -37 16 -75 98 -75h170c99 0 174 -47 174 -140c0 -13 -2 -29 -5 -45h100v-64h-397v-321c0 -53 32 -79 85 -79c89 0 148 80 148 158c0 51 -21 83 -71 83c-25 0 -49 -14 -62 -33l-40 58c19 22 54 44 102 44c86 0 145 -57 145 -152
c0 -50 -16 -98 -45 -136v-324h-67c-4 55 -36 103 -109 103c-42 0 -82 -1 -112 -1c-119 0 -175 71 -180 171l70 18c0 -67 26 -122 117 -122c33 0 61 1 93 1c76 0 105 -25 126 -56h4c-3 17 -13 64 -13 131v16c-31 -17 -68 -27 -108 -27c-90 0 -155 51 -155 136
c-17 88 -73 199 -175 199c-57 0 -83 -32 -83 -72c0 -27 11 -46 25 -63l-60 -26c-21 22 -35 54 -35 91c0 78 55 136 149 136c85 0 146 -43 183 -115h4c-1 7 -8 64 -9 182h-381v64h679c3 14 4 31 4 40c0 57 -34 80 -112 80h-164c-126 0 -162 64 -162 129c0 10 0 19 2 29z" />
    <glyph glyph-name="bnL_TT_RA" horiz-adv-x="996" 
d="M417 920l70 15c-1 -11 -3 -22 -3 -33c0 -37 16 -75 98 -75h171c99 0 173 -47 173 -140c0 -13 -2 -29 -4 -45h95v-64h-392v-270c0 -52 33 -78 87 -78c88 0 146 60 146 138c0 50 -22 82 -71 82c-26 0 -49 -14 -63 -33l-40 58c20 23 55 44 103 44c85 0 144 -56 144 -151
c0 -48 -15 -90 -40 -124v-324h-66c-4 55 -36 103 -110 103c-41 0 -64 -1 -94 -1c-119 0 -175 71 -180 171l70 18c0 -67 26 -122 117 -122c33 0 43 1 76 1c76 0 104 -25 126 -57h4c-4 18 -13 64 -13 132v22c-32 -16 -68 -25 -109 -25c-92 0 -160 50 -160 143v45
c-8 25 -37 60 -87 60c-49 0 -84 -36 -84 -98v-39h-71v38c0 64 -37 95 -88 95c-48 0 -91 -38 -91 -109c0 -84 57 -131 127 -131c25 0 51 6 73 19l16 -66c-28 -13 -58 -19 -89 -19c-114 0 -202 81 -202 197c0 111 76 178 162 178c78 0 113 -39 127 -73h4c11 39 43 76 108 76
c49 0 79 -23 91 -36h4v136h-572v64h869c3 14 5 31 5 40c0 57 -35 80 -112 80h-165c-125 0 -162 64 -162 129c0 10 1 19 2 29z" />
    <glyph glyph-name="bnSS_TT_RA" horiz-adv-x="558" 
d="M20 920l69 15c-1 -11 -3 -22 -3 -33c0 -37 16 -75 98 -75h143c99 0 174 -47 174 -140c0 -13 -2 -29 -5 -45h74v-64h-120c27 -30 42 -70 42 -119c0 -99 -58 -160 -142 -178c-85 -30 -197 -51 -197 -155c0 -76 63 -113 149 -113c90 0 129 39 129 88c0 38 -23 63 -58 63
c-20 0 -43 -8 -57 -21l-37 56c20 17 54 31 94 31c69 0 128 -48 128 -130c0 -41 -14 -75 -40 -100v-296h-67c-4 56 -36 104 -109 104c-42 0 -58 -1 -88 -1c-119 0 -176 71 -180 170l70 18c0 -66 26 -121 117 -121c33 0 37 1 69 1c76 0 105 -26 126 -57h4
c-3 18 -13 64 -13 132v8c-26 -8 -55 -12 -88 -12c-132 0 -220 70 -220 178c0 88 53 140 113 169c-62 27 -103 82 -103 166c0 50 15 89 41 119h-153v64h444c2 14 4 31 4 40c0 57 -34 80 -112 80h-137c-125 0 -161 64 -161 129c0 10 0 19 2 29zM291 339c27 0 51 6 71 16
l-186 159c-8 -16 -12 -35 -12 -55c0 -74 51 -120 127 -120zM291 581c-31 0 -57 -9 -78 -23l191 -164c11 18 17 40 17 65c0 68 -52 122 -130 122z" />
    <glyph glyph-name="bnS_TT_RA" horiz-adv-x="641" 
d="M134 935c-1 -11 -3 -22 -3 -33c0 -37 16 -75 98 -75h171c98 0 173 -47 173 -140c0 -13 -2 -29 -4 -45h92v-64h-84c4 -19 6 -38 6 -58c0 -75 -33 -135 -101 -154c-107 -38 -240 -60 -240 -178c0 -72 63 -114 148 -114c91 0 133 38 133 87c0 38 -26 61 -62 61
c-20 0 -42 -8 -56 -20l-37 56c20 17 53 31 93 31c70 0 135 -47 135 -129c0 -49 -22 -88 -59 -114v-284h-67c-4 56 -36 103 -110 103c-41 0 -69 -1 -99 -1c-119 0 -176 72 -181 171l71 18c0 -66 26 -121 116 -121c33 0 50 1 82 1c76 0 105 -26 126 -57h4
c-4 18 -13 64 -13 132v7c-23 -6 -49 -9 -76 -9c-132 0 -222 74 -222 180c0 117 91 173 175 200c-29 20 -50 48 -61 80c-21 -60 -62 -104 -129 -104c-57 0 -105 34 -134 78l46 45c23 -30 49 -58 88 -58c65 0 84 86 90 151h-263v64h516c3 14 5 31 5 40c0 57 -35 80 -113 80
h-164c-126 0 -162 64 -162 129c0 10 0 19 2 29zM512 523c0 20 -2 38 -6 55h-186c3 -81 39 -153 113 -153c58 0 79 43 79 98z" />
    <glyph glyph-name="bnNN_TTH_RA" horiz-adv-x="815" 
d="M762 226c0 -59 -20 -113 -59 -152v-297h-67c-4 55 -36 103 -109 103c-42 0 -68 -1 -99 -1c-118 0 -175 71 -180 171l71 17c0 -66 26 -121 116 -121c33 0 48 1 80 1c76 0 105 -25 126 -57h4c-3 18 -13 64 -13 132v8c-23 -8 -49 -12 -78 -12c-143 0 -226 100 -226 246
c21 6 40 11 57 18c0 109 -10 296 -158 296c-75 0 -116 -52 -116 -119c0 -61 40 -105 106 -105c29 0 53 7 72 19l21 -62c-23 -13 -57 -23 -96 -23c-105 0 -174 67 -174 171c0 101 61 185 186 185c141 0 228 -113 228 -307v-14c27 28 39 66 39 124v90
c-128 141 -140 204 -140 247c0 84 65 144 145 147c7 0 16 1 27 0l15 -66c-5 1 -11 1 -15 1c-58 0 -96 -34 -96 -87c0 -42 26 -88 68 -137h338v-64h-290c138 -145 217 -240 217 -352zM554 411c-6 -143 -95 -173 -146 -188c3 -66 46 -137 148 -137c88 0 133 64 133 139
c0 93 -66 168 -132 239c0 -14 -1 -41 -3 -53z" />
    <glyph glyph-name="bnNN_DD_RA" horiz-adv-x="744" 
d="M82 477c0 103 70 166 181 166c91 0 143 -44 171 -110c27 40 56 94 65 109h47c65 -39 120 -88 120 -166c0 -47 -14 -86 -40 -119c31 -27 54 -67 54 -122c0 -50 -17 -90 -46 -120v-332h-67c-3 55 -37 103 -110 103c-42 0 -149 -1 -179 -1c-119 0 -182 71 -186 171l70 18
c0 -67 32 -122 123 -122c32 0 128 1 160 1c76 0 106 -25 128 -56h4c-4 18 -13 64 -13 131v41c-38 -15 -84 -23 -133 -23c-173 0 -299 73 -378 232l56 41c81 -155 187 -205 323 -205c109 0 175 45 175 121c0 33 -11 58 -30 77c-25 -19 -56 -36 -92 -53l-45 57
c99 48 155 83 155 160c0 42 -27 71 -57 91c-14 -26 -47 -82 -76 -119h-63c-16 80 -60 130 -134 130c-68 0 -111 -37 -111 -102c0 -68 43 -100 107 -100c33 0 59 10 77 23l23 -61c-23 -16 -63 -28 -102 -28c-109 0 -177 70 -177 167z" />
    <glyph glyph-name="bnN_DD_RA" horiz-adv-x="768" 
d="M-20 578v64h808v-64h-358v-206c0 -34 13 -54 47 -54c31 0 100 20 171 86c33 -22 75 -81 75 -157c0 -66 -25 -123 -69 -163v-313h-67c-4 56 -37 103 -110 103c-42 0 -150 -1 -180 -1c-119 0 -181 72 -186 171l71 18c0 -67 31 -122 122 -122c33 0 129 1 161 1
c76 0 106 -25 128 -56h4c-4 18 -14 64 -14 131v23c-33 -13 -71 -20 -113 -20c-160 0 -266 109 -309 239l61 41c42 -130 129 -212 249 -212c110 0 180 70 180 159c0 25 -4 48 -16 66c-48 -41 -109 -63 -160 -63c-53 0 -89 24 -106 62c-45 76 -100 139 -181 139
c-57 0 -83 -32 -83 -72c0 -27 11 -46 25 -63l-60 -26c-21 22 -35 54 -35 91c0 78 55 137 149 137c83 0 141 -43 179 -97h4c-1 7 -8 49 -9 158h-378z" />
    <glyph glyph-name="bnL_DD_RA" horiz-adv-x="951" 
d="M971 578h-363v-190c0 -34 13 -54 47 -54c31 0 100 20 171 86c33 -22 75 -81 75 -156c0 -66 -21 -121 -58 -161v-331h-67c-4 56 -36 103 -109 103c-42 0 -154 -1 -185 -1c-118 0 -179 72 -184 171l70 18c0 -67 30 -122 121 -122c33 0 134 1 166 1c76 0 105 -25 126 -56h4
c-3 18 -13 64 -13 131v36c-36 -16 -79 -25 -128 -25c-131 0 -226 73 -277 177l56 47c42 -99 122 -155 222 -155c110 0 184 66 184 165c0 25 -4 48 -16 66c-48 -41 -109 -63 -161 -63c-75 0 -117 51 -117 119v1c-8 25 -37 60 -87 60c-48 0 -82 -36 -82 -97v-39h-68v38
c0 63 -38 94 -88 94c-48 0 -90 -38 -90 -109c0 -84 54 -129 123 -129c24 0 46 5 68 17l14 -64c-26 -13 -55 -19 -82 -19c-111 0 -195 80 -195 195c0 110 74 177 159 177c76 0 109 -39 123 -73h4c12 39 43 76 107 76c48 0 78 -23 90 -37h4v103h-555v64h991v-64z" />
    <glyph glyph-name="bnNN_DDH_RA" horiz-adv-x="861" 
d="M488 578v-270c0 -52 33 -78 87 -78c88 0 146 60 146 138c0 50 -21 82 -71 82c-26 0 -49 -14 -62 -33l-41 58c20 23 55 44 103 44c85 0 144 -56 144 -151c0 -48 -15 -91 -41 -125v-331h-67c-4 56 -36 103 -109 103c-42 0 -67 -1 -98 -1c-118 0 -175 72 -180 171l70 18
c0 -67 26 -121 117 -121c33 0 47 1 79 1c76 0 105 -26 127 -57h4c-4 18 -14 64 -14 131v29c-31 -16 -67 -24 -107 -24c-92 0 -160 50 -160 143v17c0 146 -46 253 -165 253c-90 0 -137 -58 -137 -134c0 -77 51 -118 118 -118c31 0 59 11 76 24l24 -64
c-23 -17 -63 -28 -102 -28c-115 0 -190 80 -190 186c0 114 76 201 208 201c81 0 138 -38 164 -83h4v83h466v-64h-393z" />
    <glyph glyph-name="bnK_T_RA" horiz-adv-x="910" 
d="M930 578h-950v64h950v-64zM357 230c94 41 151 87 151 157c0 41 -28 72 -79 72c-63 0 -102 -50 -118 -93l-60 37c23 71 91 122 177 122c71 0 120 -35 140 -84c33 42 78 68 139 68c96 0 167 -63 167 -162c0 -106 -72 -163 -156 -163c-28 0 -60 6 -85 18l18 62
c23 -10 42 -13 63 -13c49 0 89 34 89 95c0 58 -36 96 -98 96c-77 0 -106 -71 -149 -145c-7 -11 -15 -22 -24 -32c46 -26 84 -72 84 -139c0 -51 -19 -94 -55 -123v-286h-67c-4 55 -36 103 -109 103c-42 0 -138 -1 -168 -1c-119 0 -179 71 -184 171l70 18
c0 -67 30 -122 121 -122c33 0 117 1 149 1c76 0 105 -25 126 -56h4c-4 18 -13 64 -13 131v6c-20 -5 -43 -8 -67 -8c-204 0 -327 195 -383 450l64 31c56 -260 167 -413 319 -413c80 0 119 43 119 100c0 41 -22 75 -58 95c-22 -16 -48 -31 -78 -44z" />
    <glyph glyph-name="bnN_T_RA" horiz-adv-x="870" 
d="M-20 642h910v-64h-376c13 -16 26 -42 28 -79c29 13 63 20 99 20c85 0 129 -57 129 -125v-447h-66c0 75 -51 114 -209 122c-190 9 -257 74 -257 181c0 24 7 50 16 73l69 -18c-8 -18 -13 -38 -13 -59c0 -66 44 -105 188 -113c148 -7 191 -41 213 -66h4
c-4 25 -14 80 -14 198v115c0 39 -15 73 -68 73c-77 0 -148 -58 -148 -131c0 -39 23 -61 63 -61c31 0 55 14 65 22l28 -58c-24 -19 -61 -29 -97 -29c-81 0 -130 52 -130 124c0 10 1 21 3 31c-5 -1 -11 -1 -16 -1c-120 0 -142 100 -223 100c-35 0 -59 -23 -59 -58
c0 -28 11 -47 25 -63l-61 -27c-20 22 -35 54 -35 92c0 72 45 123 126 123c116 0 137 -98 222 -98c56 0 74 42 74 78c0 42 -22 81 -80 81h-410v64z" />
    <glyph glyph-name="bnP_T_RA" horiz-adv-x="742" 
d="M105 506c63 -4 133 -36 164 -117l153 106c-33 53 -85 86 -156 86c-84 0 -140 -48 -161 -75zM55 448l-41 61c40 63 125 139 249 139s182 -63 212 -120l3 1c-5 12 -15 100 -15 178v34h72v-99h227v-64h-227v-221c81 -3 124 -59 124 -125v-446h-66c0 75 -51 114 -210 121
c-190 9 -257 74 -257 181c0 25 7 51 17 74l69 -19c-9 -18 -14 -38 -14 -58c0 -66 44 -106 189 -113c147 -8 190 -42 212 -67h4c-4 25 -14 80 -14 198v115c0 39 -14 73 -68 73c-77 0 -147 -58 -147 -131c0 -38 22 -61 62 -61c32 0 55 14 65 23l28 -58
c-23 -20 -61 -30 -97 -30c-81 0 -130 52 -130 124c0 87 66 166 161 191c-1 30 -6 58 -14 84l-301 -209l-36 57l100 69c-16 48 -48 81 -103 92c-19 4 -32 6 -54 6z" />
    <glyph glyph-name="bnS_T_RA" horiz-adv-x="896" 
d="M65 484c23 -30 50 -58 88 -58c65 0 85 87 91 152h-264v64h936v-64h-338c4 -19 6 -38 6 -58v-15c25 9 53 14 83 14c85 0 130 -57 130 -125v-447h-66c0 75 -51 114 -210 122c-190 9 -257 74 -257 181c0 24 7 50 17 73l69 -18c-9 -18 -13 -38 -13 -59
c0 -66 43 -105 188 -113c147 -7 191 -41 212 -66h4c-4 25 -14 80 -14 198v115c0 39 -14 73 -68 73c-77 0 -147 -58 -147 -131c0 -39 22 -61 62 -61c32 0 55 14 65 22l28 -58c-23 -19 -61 -29 -97 -29c-81 0 -130 52 -130 124c0 14 2 27 5 40h-10c-81 0 -132 50 -153 106
c-20 -63 -61 -105 -129 -105c-57 0 -105 34 -134 78zM513 523c0 20 -3 38 -7 55h-186c3 -81 39 -153 113 -153c58 0 80 43 80 98z" />
    <glyph glyph-name="bnN_TH_RA" horiz-adv-x="613" 
d="M-20 642h653v-64h-113c14 -17 28 -47 28 -89c0 -46 -18 -91 -59 -117c32 -31 51 -74 51 -125c0 -112 -74 -169 -189 -182v-4c29 -9 69 -30 131 -68l84 -51l-51 -48c-18 11 -34 21 -49 30v-188h-66c-4 55 -36 103 -110 103c-41 0 -50 -1 -80 -1c-112 0 -170 68 -174 168
l70 18c0 -67 27 -119 110 -119c33 0 30 1 63 1c76 0 104 -25 126 -57h4c-4 17 -12 57 -13 118c-107 64 -141 77 -202 86v64h63c157 0 212 49 212 131c0 62 -44 103 -110 103c-56 0 -96 -32 -96 -85c0 -27 14 -54 43 -69l-53 -39c-40 23 -62 66 -62 113c0 59 33 107 87 132
c-29 24 -54 47 -93 47c-36 0 -59 -23 -59 -58c0 -28 11 -47 25 -63l-61 -27c-21 22 -35 54 -35 92c0 72 44 123 126 123c115 0 136 -98 222 -98c55 0 73 42 73 78c0 42 -22 81 -80 81h-416v64z" />
    <glyph glyph-name="bnG_D_RA" horiz-adv-x="878" 
d="M433 642h465v-64h-394v-231c56 57 164 141 250 177l62 -36c-23 -71 -35 -156 -35 -232v-303h-67c-3 56 -36 103 -118 103c-33 0 -45 -1 -75 -1c-119 0 -180 72 -184 171l70 18c0 -67 30 -122 120 -122c33 0 34 1 66 1c74 0 105 -25 127 -56h4c-4 18 -14 64 -14 131v56
c0 73 9 136 25 188c-85 -56 -150 -107 -230 -195l-75 32v97c0 104 -59 200 -173 200c-77 0 -129 -44 -153 -86c23 10 54 16 84 16c82 0 148 -49 148 -134c0 -89 -61 -150 -120 -190l-54 49c49 32 100 78 100 143c0 48 -38 73 -90 73c-34 0 -67 -8 -95 -20l-53 53
c31 93 117 163 231 163c107 0 163 -67 186 -104h4c-1 4 -12 46 -12 98v5z" />
    <glyph glyph-name="bnD_D_RA" horiz-adv-x="818" 
d="M163 214l-76 32v332h-107v64h858v-64h-678v-255c49 62 157 163 244 199l68 -37c-25 -77 -39 -154 -39 -247v-29c48 63 165 166 253 202l67 -37c-23 -71 -36 -158 -36 -240v-296h-70c-4 56 -36 103 -110 103c-41 0 -121 -1 -151 -1c-119 0 -180 72 -185 171l71 18
c0 -67 30 -122 120 -122c33 0 102 1 134 1c76 0 104 -25 126 -56h4c-4 18 -13 64 -13 131v53c0 74 9 141 26 191c-85 -57 -166 -136 -230 -223l-78 36v82c0 82 12 170 29 216c-86 -57 -163 -137 -227 -224z" />
    <glyph glyph-name="bnN_D_RA" horiz-adv-x="808" 
d="M-20 578v64h848v-64h-397v-289c49 62 160 161 245 197l67 -38c-24 -71 -37 -157 -37 -234v-278h-67c-3 56 -35 103 -109 103c-41 0 -129 -1 -157 -1c-121 0 -185 71 -190 171l71 18c0 -68 33 -121 125 -121c31 0 107 1 140 1c76 0 104 -26 126 -57h4
c-4 18 -13 62 -13 129v38c0 73 10 133 25 185c-88 -57 -160 -131 -229 -218l-72 32c-21 81 -67 204 -171 204c-57 0 -83 -32 -83 -71c0 -28 11 -47 25 -64l-61 -26c-20 22 -34 54 -34 91c0 78 56 137 150 137c86 0 147 -51 179 -119h4c-1 7 -10 69 -10 195v15h-379z" />
    <glyph glyph-name="bnB_D_RA" horiz-adv-x="761" 
d="M657 -108h-68c-3 56 -36 103 -109 103c-42 0 -127 -1 -158 -1c-118 0 -179 72 -184 171l70 18c0 -67 30 -122 121 -122c33 0 107 1 139 1c76 0 105 -25 127 -56h4c-4 18 -14 64 -14 131v72c0 65 11 133 26 185c-86 -57 -165 -145 -229 -233l-333 163v74
c44 39 146 110 258 148v32h-327v64h801v-64h-400v-305c48 63 158 168 245 204l68 -37c-23 -71 -37 -151 -37 -234v-314zM307 271v204c-64 -25 -145 -72 -190 -109z" />
    <glyph glyph-name="bnM_D_RA" horiz-adv-x="798" 
d="M-20 642h838v-64h-318c14 -17 28 -47 28 -89c0 -60 -32 -121 -107 -136v-102c55 60 167 153 247 184l67 -37c-23 -71 -36 -152 -36 -230v-271h-68c-4 55 -36 103 -110 103c-42 0 -123 -1 -154 -1c-118 0 -182 71 -186 171l70 18c0 -67 33 -122 123 -122c33 0 102 1 135 1
c77 0 106 -25 127 -56h4c-3 17 -13 64 -13 131v27c0 66 10 129 25 181c-86 -58 -149 -118 -231 -207l-73 32v179c-87 18 -113 96 -184 96c-35 0 -59 -23 -59 -58c0 -28 11 -47 25 -63l-61 -27c-20 22 -35 54 -35 92c0 56 27 100 78 116c-6 26 -17 49 -33 68h-99v64zM382 419
c56 0 74 42 74 78c0 42 -23 81 -80 81h-214c11 -19 18 -40 22 -63c94 -12 118 -96 198 -96z" />
    <glyph glyph-name="bnL_D_RA" horiz-adv-x="1000" 
d="M1020 578h-397v-231c56 57 164 141 249 177l63 -36c-23 -71 -35 -160 -35 -236v-312h-67c-4 55 -36 103 -109 103c-42 0 -78 -1 -108 -1c-119 0 -180 71 -185 171l71 18c0 -67 30 -122 120 -122c33 0 58 1 90 1c76 0 105 -25 126 -57h4c-3 18 -13 64 -13 132v69
c0 73 9 136 24 188c-84 -56 -149 -107 -229 -195l-74 32v87c-8 25 -37 60 -86 60s-82 -36 -82 -98v-38h-72v37c0 65 -37 96 -88 96c-48 0 -90 -39 -90 -110c0 -84 53 -130 124 -130c24 0 50 5 73 18l15 -65c-28 -14 -58 -20 -88 -20c-115 0 -199 81 -199 197
c0 111 75 178 161 178c77 0 112 -37 127 -72h4c12 39 42 76 107 76c48 0 77 -23 90 -37h4v120h-570v64h1040v-64z" />
    <glyph glyph-name="bnN_DH_RA" horiz-adv-x="731" 
d="M-20 578v64h772v-64h-293v-206c69 29 126 49 157 57l60 -54s-25 -53 -25 -232v-90h-71v91c0 118 12 178 21 207c-35 -13 -84 -31 -142 -55v-524h-66c-4 55 -36 103 -110 103c-41 0 -43 -1 -73 -1c-119 0 -179 71 -184 171l70 18c0 -67 30 -122 121 -122c33 0 23 1 55 1
c76 0 104 -25 126 -56h4c-3 15 -11 51 -12 104l-269 130v76c75 49 158 93 236 130c-32 58 -79 104 -147 104c-58 0 -83 -32 -83 -72c0 -27 11 -46 25 -63l-61 -26c-21 22 -35 54 -35 91c0 78 56 137 150 137c86 0 150 -44 188 -118l4 1c-2 6 -10 69 -10 194v4h-408zM391 64
h5c-5 70 -7 99 -7 178v23c-61 -29 -127 -63 -194 -104z" />
    <glyph glyph-name="bnM_P_RA" horiz-adv-x="1061" 
d="M381 419c55 0 73 42 73 78c0 42 -22 81 -80 81h-215c10 -19 17 -40 21 -62c97 -12 121 -97 201 -97zM527 506c64 -4 135 -36 165 -119l151 108c-32 53 -84 86 -155 86c-84 0 -140 -48 -161 -75zM957 -32h-68c-4 55 -39 103 -113 103c-45 0 -151 -2 -186 -2
c-118 0 -179 72 -184 171l70 18c0 -67 30 -122 121 -122c36 0 133 2 168 2c76 0 108 -25 129 -57h4c-3 17 -13 51 -13 114v131c0 38 -5 74 -14 106l-296 -208l-36 56l96 68c-17 52 -53 86 -117 95c-15 -51 -57 -93 -133 -93c-119 0 -142 100 -222 100c-36 0 -60 -23 -60 -58
c0 -28 12 -47 25 -63l-60 -27c-21 22 -35 54 -35 92c0 56 26 99 75 115c-6 27 -17 50 -33 69h-95v64h454c32 -16 54 -37 68 -61c45 36 106 67 183 67c124 0 182 -63 212 -120l3 1c-5 12 -15 100 -15 178v34h72v-99h119v-64h-119v-610z" />
    <glyph glyph-name="bnSS_P_RA" horiz-adv-x="968" 
d="M246 578c-29 0 -55 -8 -75 -23l188 -160c9 17 13 37 13 58c0 73 -54 125 -126 125zM246 326c29 0 56 9 77 24l-190 160c-8 -17 -12 -36 -12 -57c0 -74 53 -127 125 -127zM439 506c65 -4 138 -38 167 -125l152 109c-32 55 -85 91 -159 91c-83 0 -139 -48 -160 -75z
M868 -32h-67c-4 55 -39 103 -113 103c-45 0 -128 -2 -162 -2c-114 0 -176 65 -183 161l70 20c1 -64 33 -114 119 -114c36 0 109 2 145 2c76 0 107 -25 129 -57h4c-3 17 -13 51 -13 114v131c0 35 -4 69 -12 99l-291 -206l-38 55l95 67c-16 53 -48 89 -108 100
c-6 -110 -88 -182 -197 -182c-113 0 -196 78 -196 194c0 51 17 93 45 125h-115v64h266c65 0 122 -26 158 -70c44 41 110 76 192 76c124 0 182 -63 212 -120l4 1c-5 12 -15 100 -15 178v34h71v-99h120v-64h-120v-610z" />
    <glyph glyph-name="bnS_P_RA" horiz-adv-x="1114" 
d="M506 578h-185c2 -81 38 -153 112 -153c58 0 80 43 80 98c0 20 -2 38 -7 55zM585 506c63 -4 134 -36 164 -119l152 107c-33 54 -85 87 -156 87c-84 0 -139 -48 -160 -75zM1014 -23h-68c-3 55 -39 103 -112 103c-45 0 -130 -2 -165 -2c-114 0 -175 65 -183 161l70 21
c2 -65 33 -114 120 -114c36 0 111 1 146 1c76 0 108 -25 130 -57h4c-3 17 -13 51 -13 114v122c0 38 -5 73 -14 106l-294 -206l-38 55l97 68c-18 54 -55 88 -125 94c-21 -50 -66 -83 -134 -83c-80 0 -132 52 -153 106c-20 -63 -61 -105 -129 -105c-56 0 -104 34 -134 78
l47 45c22 -30 49 -58 87 -58c65 0 85 87 91 152h-264v64h580c7 -18 12 -34 15 -49c43 32 99 55 167 55c124 0 182 -63 212 -120l4 1c-5 12 -16 100 -16 178v34h72v-99h120v-64h-120v-601z" />
    <glyph glyph-name="bnL_PH_RA" horiz-adv-x="1096" 
d="M-20 578v64h1136v-64h-519v-156l63 -74v-62l-138 -92l209 -98h4c-6 72 -9 133 -9 197v189c35 15 77 24 118 24c112 0 204 -64 204 -180c0 -93 -58 -150 -118 -177l-44 56c54 22 90 64 90 121c0 79 -59 112 -123 112c-19 0 -36 -3 -54 -8v-614h-69c-4 56 -39 103 -113 103
c-45 0 -58 -1 -93 -1c-114 0 -175 65 -183 161l70 20c1 -64 33 -114 120 -114c35 0 40 2 75 2c76 0 108 -26 129 -57h4c-3 15 -11 44 -13 94l-283 130v70l146 98l-65 75c-22 27 -46 55 -87 55c-42 0 -73 -36 -73 -97v-38h-69v37c0 64 -36 94 -87 94c-48 0 -90 -38 -90 -108
c0 -84 50 -130 119 -130c22 0 46 5 66 17l14 -64c-26 -13 -53 -18 -80 -18c-111 0 -190 80 -190 195c0 109 73 176 157 176c79 0 113 -45 124 -76h4c9 37 38 79 103 79c47 0 73 -23 84 -37h5v96h-544z" />
    <glyph glyph-name="bnS_PH_RA" horiz-adv-x="1020" 
d="M68 484c23 -30 49 -58 88 -58c65 0 84 87 90 152h-266v64h1060v-64h-460c4 -19 6 -38 6 -58c0 -51 -15 -95 -47 -124l46 -53v-66l-139 -91l208 -98h4c-5 72 -9 134 -9 198v193c35 16 77 25 119 25c111 0 203 -65 203 -180c0 -93 -57 -151 -118 -178l-44 57
c54 21 91 63 91 121c0 79 -59 111 -124 111c-18 0 -35 -3 -54 -8v-622h-69c-3 56 -39 103 -112 103c-45 0 -59 -1 -94 -1c-114 0 -175 65 -183 161l70 20c2 -64 33 -114 120 -114c36 0 40 2 75 2c76 0 108 -26 130 -57h4c-3 15 -11 45 -13 97l-284 130v72l149 98l-40 48
c-12 -3 -24 -4 -37 -4c-81 0 -132 50 -153 106c-21 -63 -62 -105 -129 -105c-57 0 -105 34 -134 78zM515 523c0 20 -2 38 -6 55h-186c3 -81 39 -153 113 -153c58 0 79 43 79 98z" />
    <glyph glyph-name="bnM_PH_RA" horiz-adv-x="972" 
d="M-20 642h1012v-64h-485c17 -26 26 -57 26 -89c0 -38 -12 -75 -39 -102l43 -51v-65l-139 -91l209 -98h4c-6 72 -9 134 -9 197v194c35 15 77 24 118 24c112 0 203 -64 203 -180c0 -92 -57 -150 -117 -177l-45 57c55 21 91 63 91 121c0 79 -59 111 -123 111
c-19 0 -36 -3 -54 -8v-623h-69c-4 56 -39 103 -113 103c-45 0 -58 -1 -93 -1c-114 0 -175 65 -183 161l70 20c1 -64 33 -114 120 -114c35 0 39 2 75 2c76 0 108 -26 129 -57h4c-3 15 -11 45 -13 97l-283 131v71l149 99l-38 44c-11 -3 -24 -4 -38 -4
c-120 0 -142 100 -223 100c-35 0 -59 -23 -59 -58c0 -28 11 -47 25 -63l-61 -27c-20 22 -35 54 -35 92c0 55 27 98 76 115c-6 27 -17 50 -33 69h-102v64zM387 419c56 0 74 42 74 78c0 42 -22 81 -80 81h-216c11 -19 18 -40 22 -62c97 -12 121 -97 200 -97z" />
    <glyph glyph-name="bnM_B_RA" horiz-adv-x="584" 
d="M-20 642h624v-64h-92c14 -17 28 -47 28 -89c0 -46 -18 -92 -60 -118v-559h-69c-4 55 -39 103 -113 103c-44 0 -49 -1 -82 -1c-114 0 -175 65 -183 161l70 20c1 -65 33 -114 120 -114c35 0 28 1 64 1c76 0 107 -25 129 -56h4c-3 15 -11 44 -13 96l-293 143v74
c51 43 129 91 206 129c-57 29 -85 82 -143 82c-36 0 -60 -23 -60 -58c0 -27 11 -45 24 -62l-60 -26c-20 21 -34 53 -34 90c0 56 26 99 75 115c-6 27 -17 50 -33 69h-109v64zM411 94h5c-5 71 -7 134 -7 196v45c-86 -38 -168 -89 -225 -129zM394 419c56 0 74 42 74 78
c0 42 -22 81 -80 81h-215c10 -19 17 -40 21 -62c97 -12 121 -97 200 -97z" />
    <glyph glyph-name="bnD_BH_RA" horiz-adv-x="546" 
d="M566 578h-412v-211c55 54 154 123 240 159l65 -38c-23 -68 -32 -144 -32 -224v-15c41 -47 67 -117 67 -198v-289h-67c-3 56 -39 103 -112 103c-45 0 -55 -1 -89 -1c-115 0 -176 65 -183 161l69 20c2 -64 33 -114 120 -114c36 0 36 1 71 1c76 0 108 -25 130 -56h4
c-3 17 -13 50 -13 113v62c0 60 -13 102 -32 127h-4c-40 -88 -94 -125 -158 -125c-79 0 -130 55 -130 123c0 27 9 53 21 72l73 -14c-13 -13 -21 -36 -21 -56c0 -34 19 -60 59 -60c44 0 82 36 124 142v4c0 64 9 131 23 181c-75 -42 -140 -90 -225 -174l-72 31v276h-102v64h586
v-64z" />
    <glyph glyph-name="bnB_BH_RA" horiz-adv-x="550" 
d="M570 578h-143v-354c42 -48 68 -117 68 -199v-283h-67c-4 55 -39 103 -112 103c-46 0 -59 -1 -94 -1c-114 0 -175 64 -183 160l70 21c1 -65 33 -114 120 -114c35 0 40 1 75 1c76 0 108 -25 129 -57h4c-3 17 -13 51 -13 114v56c0 61 -12 102 -31 128h-4
c-40 -89 -95 -128 -159 -128c-81 0 -132 55 -132 123c0 27 9 53 21 72l73 -13c-13 -14 -21 -36 -21 -57c0 -34 20 -60 60 -60c38 0 69 26 104 96l-272 125v83c93 80 198 131 292 164v20h-375v64h590v-64zM359 252h4c-5 71 -8 140 -8 202v33c-74 -29 -151 -71 -225 -130z" />
    <glyph glyph-name="bnM_BH_RA" horiz-adv-x="638" 
d="M-20 642h678v-64h-151c14 -17 28 -47 28 -89c0 -43 -16 -86 -51 -112c50 -50 82 -128 82 -217v-283h-67c-4 56 -39 103 -113 103c-45 0 -58 -1 -93 -1c-114 0 -175 65 -183 161l70 20c1 -64 33 -114 120 -114c35 0 39 2 75 2c76 0 108 -26 129 -57h4
c-3 17 -13 51 -13 113v56c0 61 -13 102 -31 128h-4c-40 -89 -94 -125 -159 -125c-79 0 -130 54 -130 122c0 27 9 53 22 72l73 -13c-13 -14 -22 -36 -22 -57c0 -34 20 -60 60 -60c41 0 76 32 117 125c-9 -1 -17 -2 -27 -2c-119 0 -142 100 -222 100c-36 0 -59 -23 -59 -58
c0 -27 10 -45 23 -62l-60 -26c-20 21 -34 53 -34 90c0 55 27 98 76 115c-7 27 -18 50 -34 69h-104v64zM390 419c55 0 74 42 74 78c0 42 -23 81 -81 81h-215c10 -19 17 -40 21 -62c97 -11 121 -97 201 -97z" />
    <glyph glyph-name="bnK_BA" horiz-adv-x="661" 
d="M681 578h-285v-28c147 -3 214 -92 214 -178c0 -69 -33 -127 -93 -159l-45 53c44 26 68 61 68 106c0 66 -52 110 -144 110v-540l44 -22l-53 -52l-334 174v76c45 36 120 81 194 115l-194 93v74c63 62 162 126 272 144v34h-345v64h701v-64zM327 -23h5c-5 71 -7 100 -7 179
v36c-73 -29 -149 -73 -201 -107zM327 268h5c-5 71 -7 134 -7 197v10c-80 -18 -153 -64 -203 -106z" />
    <glyph glyph-name="bnKH_BA" horiz-adv-x="603" 
d="M495 -141l-404 171v77c37 30 97 67 159 98l-206 73v81c157 5 258 43 258 136c0 26 -10 46 -26 60c-32 -71 -84 -104 -151 -104c-84 0 -132 54 -132 123c0 25 6 49 16 69h73c-13 -23 -20 -46 -20 -68c0 -35 20 -62 67 -62c52 0 85 31 118 129h37c49 -39 86 -86 86 -150
c0 -102 -73 -159 -203 -181v-4l267 -96h4c-5 76 -6 142 -6 214v316h71v-99h108v-64h-108v-647l46 -19zM440 -41c-5 71 -7 100 -7 179v2l-90 32c-67 -28 -132 -66 -180 -97l273 -116h4z" />
    <glyph glyph-name="bnG_BA" horiz-adv-x="595" 
d="M496 741v-99h119v-64h-119v-655l44 -23l-52 -51l-334 173v76c61 49 178 115 271 147v131c0 104 -60 200 -173 200c-77 0 -130 -44 -153 -86c23 10 53 16 84 16c84 0 148 -50 148 -136c0 -88 -59 -148 -116 -188l-57 48c47 31 99 75 99 141c0 49 -38 73 -91 73
c-34 0 -67 -8 -94 -20l-53 56c30 93 117 163 231 163c106 0 163 -67 186 -104h4c-3 10 -15 76 -15 157v45h71zM428 -43h4c-5 71 -7 100 -7 179v36c-73 -29 -149 -73 -201 -107z" />
    <glyph glyph-name="bnC_BA" horiz-adv-x="514" 
d="M534 578h-369c14 -27 42 -43 81 -57l66 -24c87 -32 131 -71 131 -151c0 -37 -13 -74 -36 -106v-315l45 -23l-53 -51l-334 173v76c23 19 55 40 91 61c-43 20 -68 59 -68 113v304h-108v64h554v-64zM160 498h-4c0 -29 4 -60 4 -154v-67c0 -38 19 -61 65 -61
c68 0 144 58 144 131c0 39 -14 60 -82 84l-49 18c-45 15 -68 36 -78 49zM343 -41c-5 71 -7 100 -7 179v36c-73 -29 -149 -73 -201 -107l204 -108h4z" />
    <glyph glyph-name="bnCH_BA" horiz-adv-x="585" 
d="M138 578c15 -35 80 -45 135 -68c18 7 44 12 71 12c102 0 185 -64 185 -170c0 -127 -90 -198 -273 -206v-4c27 -8 68 -24 137 -60l156 -82l-47 -54c-29 16 -56 30 -80 43v-162l45 -23l-53 -51l-334 173v76c34 27 87 61 143 90c-74 36 -104 41 -146 46v63h116
c179 0 263 55 263 151c0 71 -50 102 -113 104c8 -14 12 -30 12 -49c0 -77 -64 -150 -158 -150c-79 0 -121 48 -121 112v209h-96v64h625v-64h-467zM287 408c0 60 -94 49 -141 89v-126c0 -29 14 -50 52 -50c52 0 89 42 89 87zM354 -139h4c-5 67 -6 96 -6 166
c-19 10 -36 19 -51 27c-56 -27 -111 -59 -150 -85z" />
    <glyph glyph-name="bnJ_BA" horiz-adv-x="793" 
d="M690 -189l45 -23l-53 -51l-334 174v76c61 49 179 115 272 146v28c0 105 31 180 38 193c-123 4 -218 89 -235 175c-44 -28 -115 -64 -115 -112c0 -31 24 -42 68 -45l105 -9c29 -25 48 -70 48 -112c0 -92 -66 -167 -190 -167c-175 0 -302 164 -308 360l70 20
c4 -171 100 -310 237 -310c81 0 119 43 119 94c0 23 -7 40 -16 52l-88 7c-70 7 -120 36 -120 104c0 76 83 128 149 167h-402v64h833v-64h-334c11 -72 67 -160 206 -160h21l33 -52c-25 -45 -49 -114 -49 -208v-347zM627 -154c-5 70 -7 100 -7 178v37
c-73 -29 -149 -73 -201 -108l203 -107h5z" />
    <glyph glyph-name="bnTT_BA" horiz-adv-x="531" 
d="M2 920l70 15c-1 -11 -3 -22 -3 -33c0 -37 16 -75 98 -75h120c98 0 173 -47 173 -140c0 -13 -2 -29 -4 -45h95v-64h-393v-270c0 -52 34 -78 88 -78c87 0 145 60 145 138c0 50 -21 82 -70 82c-26 0 -49 -14 -63 -33l-40 58c20 23 55 44 103 44c85 0 144 -56 144 -151
c0 -50 -16 -94 -44 -129v-306l44 -23l-53 -52l-334 174v76c25 20 60 43 98 65c-54 20 -90 65 -90 132v273h-106v64h403c3 14 5 31 5 40c0 57 -35 80 -112 80h-114c-125 0 -162 64 -162 129c0 10 0 19 2 29zM352 -33h5c-5 71 -7 100 -7 179v36c-73 -29 -149 -73 -201 -107z
" />
    <glyph glyph-name="bnNN_BA" horiz-adv-x="584" 
d="M291 347l18 -60c-22 -14 -53 -22 -91 -22c-106 0 -189 71 -189 181c0 114 75 205 207 205c108 0 158 -65 182 -108h4c-4 25 -9 73 -9 152v46h71v-99h120v-64h-120v-616l45 -23l-53 -51l-334 174v75c61 48 178 114 270 146v48c0 147 -54 252 -173 252
c-90 0 -136 -61 -136 -138c0 -76 53 -114 119 -114c26 0 49 6 69 16zM416 -3h4c-5 71 -7 99 -7 181v34c-73 -29 -149 -73 -201 -108z" />
    <glyph glyph-name="bnDD_BA" horiz-adv-x="656" 
d="M676 578h-358v-109c0 -34 14 -54 47 -54c38 0 88 27 154 86c33 -21 77 -83 77 -161c0 -81 -31 -144 -90 -181v-280l45 -23l-53 -51l-334 174v75c28 23 69 49 114 74c-150 36 -233 181 -242 344l71 15c8 -187 105 -298 246 -298c108 0 171 62 171 150c0 27 -6 50 -18 68
c-46 -36 -92 -61 -145 -61c-73 0 -116 51 -116 119v113h-265v64h696v-64zM438 -86h4c-5 70 -6 99 -6 178v37c-73 -29 -150 -73 -202 -108z" />
    <glyph glyph-name="bnT_BA" horiz-adv-x="626" 
d="M-20 642h666v-64h-666v64zM97 511c33 -170 106 -329 254 -329c98 0 157 66 157 165c0 75 -31 122 -92 122c-42 0 -71 -25 -71 -70c0 -29 13 -54 39 -71l-52 -41c-36 23 -58 64 -58 112c0 75 55 135 141 135c110 0 161 -85 161 -188c0 -81 -29 -142 -78 -180v-292l45 -23
l-53 -51l-334 174v75c31 24 76 53 125 80c-140 37 -215 187 -248 350zM434 -91c-5 70 -6 99 -6 178v37c-73 -29 -150 -73 -201 -108l203 -107h4z" />
    <glyph glyph-name="bnTH_BA" horiz-adv-x="619" 
d="M160 429l-59 -31c-36 28 -46 69 -46 101c0 88 69 148 162 148c90 0 173 -52 173 -159c0 -88 -55 -166 -211 -183v-4l271 -107h4c-4 62 -6 124 -6 195v352h71v-99h120v-64h-120v-650l46 -20l-54 -52l-394 171v77c35 28 88 62 145 91l-196 78v77c184 8 253 57 253 139
c0 57 -38 92 -101 92c-50 0 -91 -31 -91 -83c0 -27 12 -50 33 -69zM450 -42h5c-5 65 -7 95 -7 163l-99 40c-59 -27 -118 -62 -160 -89z" />
    <glyph glyph-name="bnD_BA" horiz-adv-x="537" 
d="M557 578h-397v-233c57 57 164 141 250 176l62 -35c-23 -71 -35 -158 -35 -240v-285l45 -23l-53 -52l-334 174v76c61 49 179 115 272 146c3 59 12 115 24 158c-85 -56 -150 -107 -230 -195l-73 32v301h-108v64h577v-64zM369 -5h5c-5 71 -7 100 -7 179v36
c-73 -29 -149 -73 -201 -107z" />
    <glyph glyph-name="bnDH_BA" horiz-adv-x="571" 
d="M123 517c0 -52 54 -70 103 -70c57 0 120 31 173 67v128h192v-64h-120v-653l46 -20l-54 -52l-399 168v76c37 29 97 64 156 95l-156 59v77l36 20c51 28 92 42 92 42v4c-88 5 -142 49 -142 125c0 75 52 131 143 131c41 0 83 -13 108 -34l-27 -56c-22 16 -48 25 -77 25
c-45 0 -74 -27 -74 -68zM407 -47c-5 68 -7 98 -7 171l-94 35c-62 -28 -123 -65 -168 -94l265 -112h4zM404 195l4 1c-6 66 -9 128 -9 190v45l-253 -136z" />
    <glyph glyph-name="bnN_BA" horiz-adv-x="529" 
d="M-20 578v64h568v-64h-107v-560l45 -23l-53 -51l-334 174v76c54 43 153 100 240 134c-32 58 -80 104 -148 104c-57 0 -83 -32 -83 -71c0 -28 11 -47 25 -64l-60 -26c-21 22 -35 54 -35 91c0 78 56 137 150 137c86 0 149 -44 187 -117h4c-1 6 -9 69 -9 194v2h-390zM373 53
h4c-5 70 -6 100 -6 178v37c-73 -29 -150 -73 -201 -108z" />
    <glyph glyph-name="bnP_BA" horiz-adv-x="634" 
d="M105 506c63 -4 133 -36 164 -117l153 106c-33 53 -85 86 -156 86c-84 0 -140 -48 -161 -75zM55 448l-41 61c40 63 125 139 249 139s182 -63 212 -120l3 1c-5 12 -15 100 -15 178v34h72v-99h119v-64h-119v-593l44 -23l-52 -51l-334 174v75c60 49 178 115 271 147v19
c0 38 -5 74 -15 107l-301 -209l-36 57l100 69c-16 49 -50 82 -107 92c-18 4 -31 6 -50 6zM467 19h4c-5 71 -7 100 -7 179v37c-73 -30 -149 -74 -201 -108z" />
    <glyph glyph-name="bnB_BA" horiz-adv-x="533" 
d="M426 -163l-367 173v74c59 47 140 93 215 127l-215 101v74c84 66 208 129 303 163v29h-382v64h573v-64h-120v-670l45 -21zM369 -61c-5 70 -7 134 -7 196v35l-4 2c-85 -34 -172 -82 -227 -121l234 -112h4zM369 240c-5 71 -7 134 -7 196v40c-85 -34 -176 -83 -231 -123
l234 -113h4z" />
    <glyph glyph-name="bnM_BA" horiz-adv-x="592" 
d="M-20 642h632v-64h-104c14 -17 28 -47 28 -89c0 -46 -18 -92 -60 -118v-315l44 -22l-52 -50l-358 175v74c53 44 133 93 213 132c-62 28 -90 85 -150 85c-36 0 -60 -23 -60 -58c0 -28 12 -47 25 -63l-60 -27c-21 22 -35 54 -35 92c0 56 26 99 75 115c-6 27 -17 50 -33 69
h-105v64zM407 88h5c-5 71 -7 134 -7 196v45c-86 -38 -168 -89 -225 -129zM391 419c55 0 73 42 73 78c0 42 -22 81 -80 81h-215c10 -19 17 -40 21 -62c97 -12 121 -97 201 -97z" />
    <glyph glyph-name="bnL_BA" horiz-adv-x="718" 
d="M-20 578v64h758v-64h-120v-583l44 -22l-52 -52l-334 174v76c61 49 178 115 271 147v62c-8 25 -36 60 -87 60c-48 0 -83 -36 -83 -98v-38h-70v37c0 64 -38 95 -85 95c-55 0 -94 -41 -94 -111c0 -81 50 -118 110 -126l-25 -64c-96 16 -159 89 -159 190
c0 110 71 179 164 179c68 0 108 -34 123 -69h4c13 40 49 73 107 73c49 0 79 -23 91 -37h4v107h-567zM554 30c-5 71 -7 100 -7 179v36c-73 -29 -149 -73 -201 -107l204 -108h4z" />
    <glyph glyph-name="bnSH_BA" horiz-adv-x="610" 
d="M30 297v66c12 -3 26 -4 37 -4c76 0 102 48 102 109c0 64 -35 110 -111 110h-78v64h82c63 0 111 -21 142 -73c28 48 70 73 129 73c69 0 100 -34 114 -53h4c-2 6 -11 58 -11 123v29h71v-99h119v-64h-119v-615l44 -23l-52 -52l-334 174v76c60 48 177 114 270 147v155
c0 91 -34 137 -101 137c-56 0 -100 -38 -100 -110c0 -69 44 -108 110 -108c8 0 18 1 28 2v-63c-8 -2 -19 -3 -29 -3c-66 0 -113 22 -145 73c-29 -52 -65 -74 -134 -74c-13 0 -26 1 -38 3zM443 -3h4c-5 71 -8 100 -8 179v36c-72 -30 -148 -73 -200 -107z" />
    <glyph glyph-name="bnSS_BA" horiz-adv-x="514" 
d="M62 453c0 50 17 93 46 125h-128v64h554v-64h-126c29 -32 47 -75 47 -125c0 -45 -13 -85 -35 -115v-327l45 -22l-52 -50l-359 175v74c36 29 83 58 133 83c-75 26 -125 93 -125 182zM356 43c-5 70 -6 131 -6 193v36c-86 -35 -169 -78 -225 -117l227 -112h4zM133 453
c0 -74 53 -127 125 -127c29 0 56 8 77 24l-191 159c-7 -17 -11 -36 -11 -56zM258 578c-29 0 -55 -9 -76 -24l189 -159c9 17 13 37 13 58c0 73 -54 125 -126 125z" />
    <glyph glyph-name="bnS_BA" horiz-adv-x="631" 
d="M64 484c23 -30 49 -58 88 -58c65 0 85 87 90 152h-262v64h671v-64h-75c4 -19 6 -38 6 -58c0 -64 -24 -117 -73 -143v-326l44 -22l-52 -50l-358 174v74c56 48 140 105 222 147c-42 19 -70 54 -84 92c-21 -63 -62 -105 -129 -105c-57 0 -105 34 -134 78zM512 523
c0 20 -3 38 -7 55h-186c3 -81 39 -153 113 -153c58 0 80 43 80 98zM445 83c-5 70 -8 133 -8 196v54c-78 -37 -165 -92 -224 -139l228 -111h4z" />
    <glyph glyph-name="bnH_BA" horiz-adv-x="488" 
d="M-20 642h528v-64h-528v64zM221 187v-4c28 -8 93 -34 154 -68l116 -66l-47 -49c-16 9 -31 18 -46 26v-162l43 -22l-49 -48l-329 171v72c35 28 90 61 146 90c-60 28 -94 37 -137 42v68h64c154 0 208 53 208 133c0 58 -44 97 -107 97c-56 0 -96 -33 -96 -85
c0 -26 14 -53 41 -69l-52 -38c-39 25 -59 66 -59 110c0 84 67 147 164 147c104 0 179 -64 179 -165c0 -109 -75 -166 -193 -180zM332 -102h4c-5 67 -7 96 -7 167c-17 9 -33 18 -48 26c-55 -27 -109 -60 -149 -87z" />
    <glyph glyph-name="bnK_SS_BA" horiz-adv-x="872" 
d="M892 578h-279v-163h42c108 0 175 -59 175 -150c0 -81 -42 -131 -97 -159l-46 54c40 17 73 51 73 105c0 58 -43 83 -103 83h-44v-543l45 -23l-53 -51l-334 174v76c42 33 134 86 208 123c-42 38 -98 65 -161 71c-17 -58 -53 -77 -79 -77c-34 0 -56 20 -56 54
c0 35 28 68 76 82v21c0 72 -46 117 -103 130c-15 -55 -51 -77 -79 -77c-34 0 -55 21 -55 55c0 36 27 69 75 82c-1 58 -26 101 -60 133h-57v64h912v-64zM545 -160h5c-5 68 -8 97 -8 170c-5 14 -11 28 -19 41c-59 -29 -137 -75 -181 -104zM548 120c-5 60 -7 140 -7 200v28h-73
c-88 0 -152 56 -152 157v73h-197c27 -37 44 -84 44 -130c85 -11 165 -83 165 -191v-18c104 -8 193 -76 220 -119zM467 415h74v163h-153v-74c0 -60 28 -89 79 -89z" />
    <glyph glyph-name="bnC_CH_BA" horiz-adv-x="935" 
d="M155 496h-4c1 -10 6 -64 6 -157v-89c0 -37 19 -61 64 -61c69 0 138 64 138 147c0 39 -17 70 -85 94l-40 13c-44 16 -67 35 -79 53zM488 578c16 -35 80 -45 135 -68c19 7 45 12 72 12c102 0 184 -64 184 -170c0 -127 -90 -198 -272 -206v-4c26 -8 67 -24 136 -60l157 -82
l-48 -54c-29 16 -56 30 -80 43v-162l45 -23l-53 -51l-334 173v76c35 27 87 61 144 90c-75 36 -105 41 -147 46v63h116c180 0 264 55 264 151c0 71 -51 102 -114 104c8 -14 12 -30 12 -49c0 -77 -64 -150 -158 -150c-61 0 -101 30 -115 73c-3 -113 -96 -208 -211 -208
c-85 0 -136 49 -136 126v330h-105v64h975v-64h-467zM637 408c0 60 -94 49 -141 89v-126c0 -29 15 -50 52 -50c53 0 89 42 89 87zM704 -139h5c-5 67 -7 97 -7 166c-18 10 -35 19 -51 27c-56 -27 -111 -59 -150 -85zM299 494c69 -25 112 -60 127 -112v196h-270
c14 -28 43 -47 86 -63z" />
    <glyph glyph-name="bnJ_J_BA" horiz-adv-x="1111" 
d="M675 52c73 0 111 41 111 91c0 23 -6 43 -16 54l-89 6c-67 5 -112 38 -112 99c0 44 29 85 68 118c-96 3 -189 31 -228 105c-53 -28 -119 -69 -119 -115c0 -31 23 -42 54 -44l116 -9c28 -25 45 -70 45 -111c0 -26 -6 -50 -16 -72c41 -73 108 -122 186 -122zM-20 578v64
h1151v-64h-674c29 -81 120 -99 234 -99h75c29 -68 68 -136 219 -136h46l32 -52c-24 -43 -53 -110 -53 -202v-326l44 -23l-50 -49l-293 150v74c51 39 151 97 231 132v45c0 103 38 176 44 188c-117 3 -202 27 -259 125c-41 -27 -85 -61 -85 -96c0 -29 23 -40 54 -42l115 -9
c28 -25 45 -74 45 -114c0 -91 -66 -157 -180 -157c-97 0 -181 51 -235 131c-30 -22 -71 -36 -121 -36c-171 0 -287 162 -292 353l67 19c3 -168 90 -307 224 -307c79 0 116 48 116 98c0 23 -6 40 -16 51l-89 6c-67 5 -113 39 -113 103c0 75 68 129 149 173h-386zM949 -204
c-5 70 -7 97 -7 175v2c-60 -29 -122 -65 -162 -92l165 -85h4z" />
    <glyph glyph-name="bnT_T_BA" horiz-adv-x="612" 
d="M632 578h-652v64h652v-64zM316 256c84 39 143 82 143 143c0 42 -27 69 -71 69c-63 0 -101 -49 -117 -91l-59 36c23 70 90 120 174 120c91 0 142 -59 142 -135c0 -38 -13 -72 -36 -102c42 -27 75 -73 75 -137c0 -65 -32 -117 -88 -143v-236l45 -23l-53 -52l-334 174v76
c28 23 69 50 115 75c-114 67 -183 221 -220 382l63 30c46 -209 137 -379 285 -379c73 0 116 41 116 98c0 38 -19 71 -51 91c-23 -17 -50 -32 -81 -46zM415 -186c-5 71 -7 100 -7 179v3c-9 -1 -18 -1 -27 -1c-14 0 -28 1 -41 3c-50 -24 -97 -52 -133 -76l204 -108h4z" />
    <glyph glyph-name="bnS_T_BA" horiz-adv-x="662" 
d="M72 492c22 -30 50 -59 89 -59c64 0 88 80 94 145h-275v64h702v-64h-94c4 -19 6 -38 6 -52c0 -60 -21 -106 -59 -133c37 -33 58 -85 58 -145c0 -85 -34 -150 -91 -187v-246l45 -23l-53 -52l-334 174v76c23 18 54 39 89 60c-87 43 -147 133 -182 231l59 40
c41 -127 122 -232 241 -232c95 0 156 62 156 161c0 63 -32 116 -96 116c-43 0 -75 -30 -75 -76c0 -32 17 -59 43 -74l-49 -42c-38 23 -64 68 -64 120c0 47 20 87 55 111c-20 19 -35 42 -45 68c-21 -61 -63 -104 -131 -104c-57 0 -106 34 -136 78zM523 528c0 15 -2 33 -7 50
h-185c3 -81 38 -146 109 -146c52 0 83 36 83 96zM438 -151c-5 71 -7 100 -7 179v2c-20 -5 -41 -7 -64 -7c-8 0 -15 0 -23 1c-43 -23 -83 -47 -114 -67l204 -108h4z" />
    <glyph glyph-name="bnD_D_BA" horiz-adv-x="818" 
d="M161 217l-74 33v328h-107v64h858v-64h-678v-252c49 62 157 163 244 200l68 -38c-25 -77 -38 -153 -38 -247v-13c49 63 164 166 252 202l67 -37c-23 -71 -36 -158 -36 -240v-298l44 -23l-52 -51l-337 174v76c61 49 179 114 271 146c2 65 11 124 26 169
c-85 -57 -168 -136 -232 -222l-76 35v66c0 82 12 170 29 216c-86 -57 -164 -137 -229 -224zM646 -110h4c-5 71 -7 100 -7 179v35c-72 -28 -147 -72 -200 -106z" />
    <glyph glyph-name="bnD_DH_BA" horiz-adv-x="708" 
d="M728 578h-568v-199c75 54 163 108 245 138l67 -37c-12 -36 -20 -76 -26 -118c65 27 119 46 148 53l59 -51s-25 -51 -25 -242v-83h-71v83c0 121 12 185 20 215c-34 -12 -83 -30 -139 -53c-1 -15 -1 -30 -1 -44v-437l45 -22l-52 -50l-332 168v74c33 24 73 50 116 74
l-116 57v78c86 57 184 108 272 148c4 40 11 78 20 109c-84 -39 -157 -91 -230 -147l-73 31v255h-107v64h748v-64zM369 -162h4c-4 56 -6 85 -7 134l-76 37c-44 -22 -87 -48 -120 -69zM369 44h4c-5 68 -7 130 -7 190v17c-63 -29 -132 -65 -199 -107z" />
    <glyph glyph-name="bnN_DH_BA" horiz-adv-x="721" 
d="M-20 578v64h761v-64h-300v-213c69 29 126 49 157 56l59 -51s-25 -50 -25 -242v-83h-71v84c0 120 12 184 21 214c-35 -12 -84 -30 -141 -54v-479l45 -23l-51 -50l-333 169v74c33 24 74 50 116 73l-116 58v78c76 50 161 95 240 132c-32 61 -80 111 -151 111
c-57 0 -83 -32 -83 -71c0 -28 11 -47 25 -64l-60 -26c-21 22 -35 54 -35 91c0 78 56 137 150 137c86 0 149 -44 187 -117h4c-1 6 -9 69 -9 194v2h-390zM373 -156h4c-4 56 -6 85 -7 134l-75 37c-43 -22 -89 -49 -121 -70zM373 50h4c-5 71 -7 134 -7 196v12
c-63 -30 -132 -66 -199 -108z" />
    </font>
</defs>
</svg>
