<?xml version="1.0" standalone="no"?>
<!DOCTYPE svg PUBLIC "-//W3C//DTD SVG 1.1//EN" "http://www.w3.org/Graphics/SVG/1.1/DTD/svg11.dtd" >
<svg xmlns="http://www.w3.org/2000/svg" xmlns:xlink="http://www.w3.org/1999/xlink" version="1.1">
<metadata>
Created by FontForge 20170910 at Wed Feb 28 16:53:48 2018
 By Jimmy Wärting
Copyright 2015 Indian Type Foundry. All rights reserved.
</metadata>
<defs>
<font id="KohinoorBangla-Light" horiz-adv-x="0" >
  <font-face 
    font-family="Kohinoor Bangla"
    font-weight="300"
    font-stretch="normal"
    units-per-em="1000"
    panose-1="2 0 0 0 0 0 0 0 0 0"
    ascent="800"
    descent="-200"
    x-height="539"
    cap-height="701"
    bbox="-524 -364 1425 1092.11"
    underline-thickness="50"
    underline-position="-100"
    stemh="52"
    stemv="56"
    unicode-range="U+000D-FB02"
  />
<missing-glyph horiz-adv-x="500" 
d="M0 0v700h500v-700h-500zM250 395l170 255h-340zM280 350l170 -255v510zM80 50h340l-170 255zM50 605v-510l170 255z" />
    <glyph glyph-name="fi" unicode="fi" horiz-adv-x="583" 
d="M482 732l-19 -49c-16 8 -70 28 -153 28c-92 0 -129 -32 -129 -102v-70h315v-539h-58v489h-257v-489h-58v489h-92v50h92v66c0 99 63 158 196 158c78 0 142 -19 163 -31z" />
    <glyph glyph-name="fl" unicode="fl" horiz-adv-x="625" 
d="M496 721v-605c0 -50 15 -72 59 -72c23 0 41 7 52 13v-52c-20 -9 -49 -12 -67 -12c-71 0 -102 42 -102 107v592c-31 12 -69 19 -127 19c-92 0 -130 -32 -130 -102v-70h135v-50h-135v-489h-58v489h-92v50h92v66c0 99 63 158 196 158c82 0 149 -23 177 -42z" />
    <glyph glyph-name="f_f" unicode="ff" horiz-adv-x="665" 
d="M438 539v93c0 21 3 41 10 57c-25 10 -73 22 -138 22c-92 0 -129 -32 -129 -102v-70h257zM662 752l-14 -51c-20 7 -41 10 -76 10c-54 0 -76 -26 -76 -77v-95h146v-50h-146v-489h-58v489h-257v-489h-58v489h-92v50h92v66c0 99 63 158 196 158c75 0 136 -17 160 -29
c24 19 57 30 102 30c37 0 61 -5 81 -12z" />
    <glyph glyph-name="f_f_i" unicode="ffi" horiz-adv-x="898" 
d="M438 539v66c0 31 6 58 18 80c-24 11 -67 26 -146 26c-92 0 -129 -32 -129 -102v-70h257zM797 732l-19 -49c-16 8 -70 28 -153 28c-92 0 -129 -32 -129 -102v-70h315v-539h-58v489h-257v-489h-58v489h-257v-489h-58v489h-92v50h92v66c0 99 63 158 196 158
c76 0 140 -18 172 -38c32 25 80 38 143 38c78 0 142 -19 163 -31z" />
    <glyph glyph-name="f_f_l" unicode="ffl" horiz-adv-x="940" 
d="M438 539v66c0 31 6 58 18 80c-24 11 -67 26 -146 26c-92 0 -129 -32 -129 -102v-70h257zM811 721v-605c0 -50 15 -72 59 -72c23 0 41 7 52 13v-52c-20 -9 -49 -12 -67 -12c-71 0 -102 42 -102 107v592c-31 12 -69 19 -127 19c-92 0 -130 -32 -130 -102v-70h135v-50h-135
v-489h-58v489h-257v-489h-58v489h-92v50h92v66c0 99 63 158 196 158c76 0 140 -18 172 -38c32 25 80 38 143 38c82 0 149 -23 177 -42z" />
    <glyph glyph-name=".notdef" horiz-adv-x="500" 
d="M0 0v700h500v-700h-500zM250 395l170 255h-340zM280 350l170 -255v510zM80 50h340l-170 255zM50 605v-510l170 255z" />
    <glyph glyph-name="NULL" 
 />
    <glyph glyph-name="NULL" 
 />
    <glyph glyph-name="CR" unicode="&#xd;" horiz-adv-x="290" 
 />
    <glyph glyph-name="space" unicode=" " horiz-adv-x="290" 
 />
    <glyph glyph-name="bnA" unicode="&#x985;" horiz-adv-x="879" 
d="M-20 582v52h919v-52h-125v-535l35 -27l-45 -32l-229 181c-39 -42 -97 -67 -166 -67c-195 0 -300 161 -340 381l52 22c36 -197 120 -353 288 -353c106 0 168 75 168 170c0 89 -43 137 -109 137c-52 0 -87 -30 -87 -85c0 -29 15 -59 44 -76l-43 -32c-36 24 -57 66 -57 110
c0 76 50 136 143 136c98 0 165 -80 165 -191c0 -40 -10 -78 -27 -110l153 -121h4c-5 78 -5 145 -5 211v281h-738z" />
    <glyph glyph-name="bnAA" unicode="&#x986;" horiz-adv-x="1145" 
d="M984 698v34h56v-98h125v-52h-125v-582h-56v508c0 47 -25 74 -75 74h-135v-535l35 -27l-45 -32l-229 181c-39 -42 -97 -67 -166 -67c-195 0 -300 161 -340 381l52 22c36 -197 120 -353 288 -353c106 0 168 75 168 170c0 89 -43 137 -109 137c-52 0 -87 -30 -87 -85
c0 -29 15 -59 44 -76l-43 -32c-36 24 -57 66 -57 110c0 76 50 136 143 136c98 0 165 -80 165 -191c0 -40 -10 -78 -27 -110l153 -121h4c-5 78 -5 145 -5 211v281h-738v52h934c51 0 70 -25 77 -35h4s-11 40 -11 99z" />
    <glyph glyph-name="bnI" unicode="&#x987;" horiz-adv-x="488" 
d="M75 362c0 88 65 150 160 150c103 0 177 -68 177 -168c0 -111 -76 -180 -204 -194v-4c27 -8 80 -38 142 -76l114 -70l-40 -37c-245 148 -272 165 -351 177v51h64c168 0 219 74 219 157c0 66 -48 111 -120 111c-64 0 -105 -38 -105 -97c0 -32 17 -60 44 -79l-43 -32
c-36 26 -57 67 -57 111zM24 911l53 13c-1 -11 -3 -23 -3 -34c0 -37 15 -73 96 -73h74c96 0 165 -44 165 -131c0 -14 -2 -34 -6 -52h105v-52h-528v52h367c4 16 6 38 6 49c0 57 -35 82 -116 82h-72c-113 0 -143 57 -143 116c0 10 0 20 2 30z" />
    <glyph glyph-name="bnII" unicode="&#x988;" horiz-adv-x="647" 
d="M68 382c0 78 56 129 143 129c99 0 148 -72 157 -173l179 161l51 -33c-41 -71 -64 -162 -64 -284c0 -34 6 -111 21 -178h-56c-15 58 -21 130 -21 178c0 100 13 162 34 214l-143 -129c-7 -89 -45 -190 -165 -190c-81 0 -132 57 -147 95l42 33c15 -35 49 -75 106 -75
c83 0 109 83 109 170c0 72 -16 159 -104 159c-53 0 -86 -32 -86 -78c0 -34 15 -55 31 -68l-43 -29c-25 18 -44 53 -44 98zM667 582h-687v52h524c4 16 6 38 6 49c0 57 -35 82 -116 82h-182c-113 0 -143 57 -143 116c0 10 0 20 2 30l53 13c-1 -11 -3 -23 -3 -34
c0 -37 15 -73 96 -73h184c96 0 165 -44 165 -131c0 -14 -2 -34 -6 -52h107v-52z" />
    <glyph glyph-name="bnU" unicode="&#x989;" horiz-adv-x="652" 
d="M32 911l53 13c-1 -11 -3 -23 -3 -34c0 -37 15 -73 96 -73h234c96 0 165 -44 165 -131c0 -14 -2 -34 -6 -52h86v-52h-353v-166c0 -36 14 -60 53 -60c32 0 98 15 172 87c27 -19 68 -75 68 -148c0 -137 -96 -228 -247 -228c-196 0 -300 162 -311 349l54 11
c9 -185 106 -307 258 -307c113 0 190 67 190 175c0 31 -8 58 -19 72c-52 -45 -113 -64 -166 -64c-67 0 -108 48 -108 110v169h-253v52h520c4 16 6 38 6 49c0 57 -35 82 -116 82h-232c-113 0 -143 57 -143 116c0 10 0 20 2 30z" />
    <glyph glyph-name="bnUU" unicode="&#x98a;" horiz-adv-x="667" 
d="M50 911l53 13c-1 -11 -3 -23 -3 -34c0 -37 15 -73 96 -73h244c96 0 165 -44 165 -131c0 -14 -2 -34 -6 -52h88v-52h-356v-158c0 -36 18 -60 61 -60c32 0 78 13 152 85c35 -30 68 -78 68 -159c0 -134 -90 -226 -241 -226c-249 0 -337 186 -337 319l46 10
c0 -88 29 -210 160 -270l3 4c-78 45 -137 164 -120 323l50 8c-24 -166 32 -341 200 -341c118 0 183 72 183 173c0 34 -7 64 -19 82c-45 -38 -94 -62 -146 -62c-73 0 -116 46 -116 111v161h-295v52h563c4 16 6 38 6 49c0 57 -35 82 -116 82h-242c-113 0 -143 57 -143 116
c0 10 0 20 2 30z" />
    <glyph glyph-name="bnvR" unicode="&#x98b;" horiz-adv-x="741" 
d="M362 88h4c-5 78 -6 142 -6 208v108c-92 -24 -193 -89 -250 -149zM596 732h55v-98h110v-52h-110v-432l-55 -30l-181 130v-197l39 -26l-41 -39l-360 239v56c66 67 185 151 314 183v4c-32 28 -65 57 -97 85c-37 -76 -90 -106 -152 -106c-75 0 -119 47 -119 107
c0 30 9 60 19 78h59c-10 -18 -22 -47 -22 -75c0 -33 21 -57 62 -57c51 0 93 28 124 132h24c33 -30 67 -61 100 -91c0 0 -5 35 -5 128v61h55v-414l185 -133l3 2c-2 17 -7 59 -7 152v393z" />
    <glyph glyph-name="bnvRR" unicode="&#x9e0;" horiz-adv-x="741" 
d="M362 88h4c-5 78 -6 142 -6 208v108c-92 -24 -193 -89 -250 -149zM596 732h55v-98h110v-52h-110v-432l-55 -30l-181 130v-197l39 -26l-41 -39l-118 78l-74 -70l201 -134l-41 -39l-246 163l115 110l-197 131v56c66 67 185 151 314 183v4c-32 28 -65 57 -97 85
c-37 -76 -90 -106 -152 -106c-75 0 -119 47 -119 107c0 30 9 60 19 78h59c-10 -18 -22 -47 -22 -75c0 -33 21 -57 62 -57c51 0 93 28 124 132h24c33 -30 67 -61 100 -91c0 0 -5 35 -5 128v61h55v-414l185 -133l3 2c-2 17 -7 59 -7 152v393z" />
    <glyph glyph-name="bnvL" unicode="&#x98c;" horiz-adv-x="603" 
d="M138 687c0 15 4 31 4 31l56 10c-2 -8 -4 -13 -4 -33c0 -208 347 -114 347 -440c0 -156 -108 -255 -269 -257l-36 43c56 63 78 129 78 199s-38 112 -104 112c-65 0 -108 -33 -108 -99c0 -58 43 -84 91 -94l-21 -51c-69 15 -127 63 -127 145c0 108 75 154 165 154
s161 -68 161 -167c0 -72 -16 -127 -52 -182c113 22 165 99 165 199c0 275 -346 182 -346 430z" />
    <glyph glyph-name="bnvLL" unicode="&#x9e1;" horiz-adv-x="603" 
d="M484 257c0 275 -346 182 -346 430c0 15 4 31 4 31l56 10c-2 -8 -4 -13 -4 -33c0 -208 347 -114 347 -440c0 -156 -108 -255 -269 -257l-36 43c56 63 78 129 78 199s-38 112 -104 112c-65 0 -108 -33 -108 -99c0 -58 43 -84 91 -94l-21 -51c-69 15 -127 63 -127 145
c0 108 75 154 165 154s161 -68 161 -167c0 -72 -16 -127 -52 -182c113 22 165 99 165 199zM499 -2c0 19 6 38 20 58l43 -19c-9 -12 -12 -24 -12 -35c0 -48 55 -80 55 -157c0 -95 -69 -148 -171 -148c-26 0 -45 2 -69 9l-3 47c55 9 94 40 94 91c0 26 -11 48 -45 48
c-25 0 -41 -17 -41 -42c0 -12 5 -29 15 -39l-39 -24c-18 19 -26 43 -26 64c0 54 37 91 90 91c62 0 98 -43 98 -95c0 -40 -13 -72 -49 -99c53 7 94 32 94 99c0 68 -54 95 -54 151z" />
    <glyph glyph-name="bnE" unicode="&#x98f;" horiz-adv-x="694" 
d="M482 590c38 0 51 -18 51 -47v-232c0 -135 2 -185 4 -204h-4c-20 21 -50 34 -129 34c-33 0 -86 -3 -129 -3c-115 0 -159 46 -159 104c0 27 7 56 28 81l-55 22c-19 -26 -30 -60 -30 -101c0 -92 75 -159 212 -159c34 0 96 4 125 4c97 0 140 -29 144 -89h49v537
c0 68 -39 107 -106 107c-126 0 -252 -138 -252 -244c0 -71 48 -119 126 -119c36 0 72 12 96 31l-24 47c-11 -9 -37 -24 -72 -24c-44 0 -68 22 -68 65c0 80 102 190 193 190z" />
    <glyph glyph-name="bnAI" unicode="&#x990;" horiz-adv-x="733" 
d="M540 0c-4 60 -47 89 -144 89c-29 0 -91 -4 -125 -4c-137 0 -212 67 -212 159c0 41 11 75 30 101l55 -22c-21 -25 -28 -54 -28 -81c0 -58 44 -104 159 -104c43 0 96 3 129 3c79 0 109 -13 129 -34h4c-2 19 -4 69 -4 204v232c0 29 -13 47 -51 47c-91 0 -193 -110 -193 -190
c0 -43 24 -65 68 -65c35 0 61 15 72 24l24 -47c-24 -19 -60 -31 -96 -31c-78 0 -126 48 -126 119c0 106 126 244 252 244c67 0 106 -39 106 -107v-61c56 8 109 44 109 111c0 70 -64 110 -135 132l-204 63c-102 32 -156 91 -156 170c0 35 16 64 28 78l53 -18
c-12 -14 -23 -37 -23 -62c0 -53 30 -91 143 -127l162 -51c124 -39 189 -100 189 -186c0 -84 -65 -154 -166 -162v-424h-49z" />
    <glyph glyph-name="bnO" unicode="&#x993;" horiz-adv-x="591" 
d="M159 571c37 41 88 73 158 73c90 0 161 -62 161 -148c0 -57 -23 -101 -60 -132c60 -36 108 -93 108 -170c0 -93 -64 -170 -182 -170c-159 0 -273 179 -319 340l50 21c43 -160 144 -307 270 -307c83 0 123 55 123 117c0 66 -46 109 -98 138c-24 -12 -50 -20 -77 -26l-27 49
c85 14 156 55 156 140c0 57 -41 96 -104 96c-53 0 -90 -29 -118 -59z" />
    <glyph glyph-name="bnAU" unicode="&#x994;" horiz-adv-x="688" 
d="M602 567c0 176 -312 194 -312 384c0 27 7 46 17 64l56 -18c-9 -14 -15 -31 -15 -52c0 -143 310 -171 310 -382c0 -131 -110 -193 -224 -193h-9c-2 -2 -5 -4 -7 -6c60 -36 108 -93 108 -170c0 -93 -64 -170 -182 -170c-159 0 -273 179 -319 340l50 21
c43 -160 144 -307 270 -307c83 0 123 55 123 117c0 66 -46 109 -98 138c-24 -12 -50 -20 -77 -26l-27 49c85 14 156 55 156 140c0 57 -41 96 -104 96c-53 0 -90 -29 -118 -59l-41 38c37 41 88 73 158 73c90 0 161 -62 161 -148c0 -29 -6 -55 -17 -77c79 9 141 59 141 148z
" />
    <glyph glyph-name="bnmAA" unicode="&#x9be;" horiz-adv-x="266" 
d="M105 698v34h56v-98h125v-52h-125v-582h-56v508c0 47 -25 74 -75 74h-50v52h55c51 0 70 -25 77 -35h4s-11 40 -11 99z" />
    <glyph glyph-name="bnmI" unicode="&#x9bf;" horiz-adv-x="266" 
d="M646 753l35 40c-60 57 -191 140 -347 140c-146 0 -229 -102 -229 -210v-89h-125v-52h125v-582h56v582h125v52h-125v80c0 86 57 165 173 165c133 0 245 -63 312 -126z" />
    <glyph glyph-name="bnmII" unicode="&#x9c0;" horiz-adv-x="266" 
d="M-114 792l10 -4v-154h-53v87c-36 -12 -81 -23 -131 -23c-119 0 -182 54 -182 123c0 82 77 139 219 139c247 0 395 -130 410 -326h126v-52h-124v-582h-56v582h-125v52h123c-12 175 -154 275 -349 275c-119 0 -169 -36 -169 -87c0 -34 24 -75 125 -75c72 0 132 24 176 45z
" />
    <glyph glyph-name="bnmU" unicode="&#x9c1;" 
d="M-266 -263c72 0 105 59 105 139v10c-35 20 -71 33 -108 33c-63 0 -95 -41 -95 -93c0 -51 42 -89 98 -89zM28 -298c-41 52 -86 104 -134 145c-9 -98 -67 -158 -160 -158c-94 0 -152 60 -152 137c0 84 62 141 149 141c38 0 74 -10 108 -26v82h56v-115
c68 -49 127 -117 175 -175z" />
    <glyph glyph-name="bnmUU" unicode="&#x9c2;" 
d="M-64 -241c27 -21 72 -56 95 -85l39 33c-44 44 -103 98 -149 122c-31 -54 -74 -90 -140 -90c-57 0 -97 39 -97 90c0 48 33 92 104 92c45 0 85 -11 107 -19v121h-56v-57c-4 1 -25 5 -53 5c-92 0 -156 -64 -156 -142c0 -77 57 -138 151 -138c75 0 119 28 155 68z" />
    <glyph glyph-name="bnmvR" unicode="&#x9c3;" 
d="M-105 0l-48 28l-155 -159l295 -149l37 41l-243 121z" />
    <glyph glyph-name="bnmvRR" unicode="&#x9c4;" 
d="M3 -19l-122 -115l172 -101l40 40l-121 71l78 75zM-224 -49l-149 -139l245 -145l40 40l-192 116l100 96z" />
    <glyph glyph-name="bnmvL" unicode="&#x9e2;" 
d="M-74 -63c0 19 6 38 20 58l43 -19c-9 -12 -12 -24 -12 -35c0 -48 55 -80 55 -157c0 -95 -69 -148 -171 -148c-26 0 -45 2 -69 9l-3 47c55 9 94 40 94 91c0 26 -11 48 -45 48c-25 0 -41 -17 -41 -42c0 -12 5 -29 15 -39l-39 -24c-18 19 -26 43 -26 64c0 54 37 91 90 91
c62 0 98 -43 98 -95c0 -40 -13 -72 -49 -99c53 7 94 32 94 99c0 68 -54 95 -54 151z" />
    <glyph glyph-name="bnmvLL" unicode="&#x9e3;" 
d="M-74 -63c0 19 6 38 20 58l43 -19c-9 -12 -12 -24 -12 -35c0 -28 19 -51 35 -81c14 14 34 27 61 27c47 0 77 -37 77 -76c0 -24 -7 -45 -23 -61c36 8 56 33 56 69c0 51 -40 71 -40 113c0 14 4 29 15 44l32 -15c-7 -9 -9 -18 -9 -26c0 -36 42 -60 42 -118
c0 -56 -34 -105 -120 -105c-19 0 -27 0 -41 1l-2 35c24 6 51 26 51 64c0 22 -13 38 -38 38c-20 0 -35 -11 -46 -28c3 -11 5 -24 5 -38c0 -95 -69 -148 -171 -148c-26 0 -45 2 -69 9l-3 47c55 9 94 40 94 91c0 26 -11 48 -45 48c-25 0 -41 -17 -41 -42c0 -12 5 -29 15 -39
l-39 -24c-18 19 -26 43 -26 64c0 54 37 91 90 91c62 0 98 -43 98 -95c0 -40 -13 -72 -49 -99c53 7 94 32 94 99c0 68 -54 95 -54 151z" />
    <glyph glyph-name="bnmE" unicode="&#x9c7;" horiz-adv-x="261" 
d="M245 37l-29 -46c-109 45 -161 164 -161 303c0 103 34 214 80 288h-155v52h301v-52h-80c-57 -67 -90 -184 -90 -288c0 -120 40 -214 134 -257z" />
    <glyph glyph-name="bnmAI" unicode="&#x9c8;" horiz-adv-x="261" 
d="M-77 924c-1 -11 -3 -23 -3 -34c0 -37 21 -65 131 -78c104 -12 171 -54 171 -133c0 -14 -2 -29 -6 -45h65v-52h-80c-57 -67 -90 -184 -90 -288c0 -120 40 -214 134 -257l-29 -46c-109 45 -161 164 -161 303c0 103 34 214 80 288h-155v52h180c4 15 6 31 6 42
c0 54 -43 73 -122 83c-136 17 -179 63 -179 122c0 10 0 20 2 30z" />
    <glyph glyph-name="bnmO" unicode="&#x9cb;" horiz-adv-x="1187" 
d="M245 37l-29 -46c-109 45 -161 164 -161 303c0 103 34 214 80 288h-155v52h301v-52h-80c-57 -67 -90 -184 -90 -288c0 -120 40 -214 134 -257zM400 517c0 25 18 44 44 44s44 -19 44 -44c0 -26 -18 -45 -44 -45s-44 19 -44 45zM318 407c0 25 20 44 46 44
c24 0 44 -19 44 -44s-20 -44 -44 -44c-26 0 -46 19 -46 44zM305 281c0 26 19 45 44 45c26 0 44 -19 44 -45c0 -25 -18 -43 -44 -43c-25 0 -44 18 -44 43zM357 165c0 25 18 44 44 44c25 0 44 -19 44 -44c0 -26 -19 -44 -44 -44c-26 0 -44 18 -44 44zM458 90c0 24 19 44 45 44
c25 0 44 -20 44 -44c0 -26 -19 -46 -44 -46c-26 0 -45 20 -45 46zM585 74c0 26 18 44 44 44s45 -18 45 -44s-19 -44 -45 -44s-44 18 -44 44zM706 127c0 25 19 44 44 44s45 -19 45 -44c0 -26 -20 -44 -45 -44s-44 18 -44 44zM779 225c0 26 19 45 45 45c24 0 43 -19 43 -45
c0 -25 -19 -44 -43 -44c-26 0 -45 19 -45 44zM789 359c0 26 18 44 44 44c25 0 44 -18 44 -44s-19 -44 -44 -44c-26 0 -44 18 -44 44zM739 477c0 26 19 45 44 45c26 0 44 -19 44 -45c0 -25 -18 -44 -44 -44c-25 0 -44 19 -44 44zM644 545c0 26 19 45 45 45
c25 0 43 -19 43 -45c0 -24 -18 -44 -43 -44c-26 0 -45 20 -45 44zM518 560c0 26 18 44 44 44s44 -18 44 -44s-18 -44 -44 -44s-44 18 -44 44zM1026 698v34h56v-98h125v-52h-125v-582h-56v508c0 47 -25 74 -75 74h-50v52h55c51 0 70 -25 77 -35h4s-11 40 -11 99z" />
    <glyph glyph-name="bnmAU" unicode="&#x9cc;" horiz-adv-x="1187" 
d="M245 37l-29 -46c-109 45 -161 164 -161 303c0 103 34 214 80 288h-155v52h301v-52h-80c-57 -67 -90 -184 -90 -288c0 -120 40 -214 134 -257zM400 517c0 25 18 44 44 44s44 -19 44 -44c0 -26 -18 -45 -44 -45s-44 19 -44 45zM318 407c0 25 20 44 46 44
c24 0 44 -19 44 -44s-20 -44 -44 -44c-26 0 -46 19 -46 44zM305 281c0 26 19 45 44 45c26 0 44 -19 44 -45c0 -25 -18 -43 -44 -43c-25 0 -44 18 -44 43zM357 165c0 25 18 44 44 44c25 0 44 -19 44 -44c0 -26 -19 -44 -44 -44c-26 0 -44 18 -44 44zM458 90c0 24 19 44 45 44
c25 0 44 -20 44 -44c0 -26 -19 -46 -44 -46c-26 0 -45 20 -45 46zM585 74c0 26 18 44 44 44s45 -18 45 -44s-19 -44 -45 -44s-44 18 -44 44zM706 127c0 25 19 44 44 44s45 -19 45 -44c0 -26 -20 -44 -45 -44s-44 18 -44 44zM779 225c0 26 19 45 45 45c24 0 43 -19 43 -45
c0 -25 -19 -44 -43 -44c-26 0 -45 19 -45 44zM789 359c0 26 18 44 44 44c25 0 44 -18 44 -44s-19 -44 -44 -44c-26 0 -44 18 -44 44zM739 477c0 26 19 45 44 45c26 0 44 -19 44 -45c0 -25 -18 -44 -44 -44c-25 0 -44 19 -44 44zM644 545c0 26 19 45 45 45
c25 0 43 -19 43 -45c0 -24 -18 -44 -43 -44c-26 0 -45 20 -45 44zM518 560c0 26 18 44 44 44s44 -18 44 -44s-18 -44 -44 -44s-44 18 -44 44zM1026 668v-34h-125v-52h125v-582h56v582h125v52h-125v37c0 90 -72 146 -173 146h-49c-81 0 -96 36 -96 73c0 11 2 23 3 34l-53 -13
c-2 -10 -2 -20 -2 -30c0 -59 30 -116 143 -116h47c85 0 124 -35 124 -97z" />
    <glyph glyph-name="bnAUlengthmark" unicode="&#x9d7;" horiz-adv-x="266" 
d="M105 668v-34h-125v-52h125v-582h56v582h125v52h-125v37c0 90 -72 146 -173 146h-49c-81 0 -96 36 -96 73c0 11 2 23 3 34l-53 -13c-2 -10 -2 -20 -2 -30c0 -59 30 -116 143 -116h47c85 0 124 -35 124 -97z" />
    <glyph glyph-name="bnKA" unicode="&#x995;" horiz-adv-x="679" 
d="M486 167l41 -42c54 30 97 91 97 168c0 97 -81 187 -222 188v101h297v52h-719v-52h367v-104c-104 -13 -206 -68 -292 -144v-49l338 -294l47 34l-38 32v370c107 -1 166 -58 166 -134c0 -58 -39 -107 -82 -126zM113 309c58 50 145 102 234 114v-114c0 -66 1 -130 6 -208h-4z
" />
    <glyph glyph-name="bnKHA" unicode="&#x996;" horiz-adv-x="639" 
d="M478 291v441h56v-98h125v-52h-125v-532l40 -22l-38 -40l-491 257v60c172 13 258 78 258 173c0 36 -16 64 -38 83c-35 -78 -95 -110 -151 -110c-75 0 -119 45 -119 105c0 30 9 60 19 78h59c-10 -18 -22 -47 -22 -78c0 -30 19 -54 63 -54c47 0 88 28 123 132h26
c64 -46 94 -98 94 -156c0 -119 -90 -186 -227 -212v-4l350 -184h4c-5 78 -6 147 -6 213z" />
    <glyph glyph-name="bnGA" unicode="&#x997;" horiz-adv-x="617" 
d="M456 732h56v-98h125v-52h-125v-582h-56v371c0 103 -74 210 -200 210c-94 0 -151 -64 -173 -110c26 14 70 22 100 22c79 0 143 -50 143 -137c0 -82 -59 -156 -136 -205l-45 39c73 44 123 103 123 167c0 60 -43 84 -94 84c-38 0 -78 -11 -110 -28l-43 41
c26 100 123 180 234 180c138 0 197 -89 210 -120h4s-13 67 -13 156v62z" />
    <glyph glyph-name="bnGHA" unicode="&#x998;" horiz-adv-x="617" 
d="M517 -12l-447 224v54l61 38c53 33 78 42 88 47v4c-108 9 -154 64 -154 135c0 34 12 68 32 92h-117v52h657v-52h-125v-530l40 -21zM462 79c-5 78 -6 153 -6 219v284h-290c-28 -23 -45 -58 -45 -92c0 -58 47 -91 115 -91c45 0 74 12 110 33l26 -46l-238 -145l324 -162h4z
" />
    <glyph glyph-name="bnNGA" unicode="&#x999;" horiz-adv-x="677" 
d="M307 479v-32c24 -12 50 -19 79 -19c58 0 88 29 88 78c0 39 -29 76 -85 76c-54 0 -82 -35 -82 -103zM370 0c-193 0 -317 162 -323 336l56 12c6 -186 130 -292 268 -292c123 0 198 83 198 170c0 28 -4 52 -18 73c-62 -47 -118 -74 -181 -74c-73 0 -119 47 -119 116v79
c-60 43 -104 108 -124 162h-147v52h187c11 -43 40 -103 85 -147c3 101 59 147 137 147c81 0 141 -59 141 -129c0 -84 -62 -130 -144 -130c-28 0 -54 5 -79 15v-46c0 -43 19 -65 64 -65c59 0 126 43 185 99c31 -21 69 -76 69 -151c0 -123 -100 -227 -255 -227z" />
    <glyph glyph-name="bnCA" unicode="&#x99a;" horiz-adv-x="520" 
d="M334 402l-93 35c-44 17 -82 51 -82 112v33h381v52h-560v-52h125v-465c0 -72 49 -117 126 -117c120 0 233 124 233 246c0 77 -45 124 -130 156zM157 433h4c9 -13 33 -39 79 -56l74 -27c76 -28 92 -63 92 -103c0 -101 -102 -194 -175 -194c-49 0 -70 26 -70 67v149
c0 97 -2 152 -4 164z" />
    <glyph glyph-name="bnCHA" unicode="&#x99b;" horiz-adv-x="588" 
d="M123 582c19 -39 90 -50 148 -77c21 6 44 9 65 9c100 0 181 -69 181 -170c0 -133 -96 -202 -288 -206v-4c23 -7 65 -24 140 -64l168 -90l-38 -42c-314 176 -356 190 -419 196v51h108c185 0 274 55 274 159c0 81 -64 118 -133 118c11 -15 18 -33 18 -56
c0 -75 -62 -149 -153 -149c-75 0 -114 48 -114 110v215h-100v52h628v-52h-485zM293 407c0 66 -103 57 -159 103v-143c0 -34 17 -58 61 -58c57 0 98 49 98 98z" />
    <glyph glyph-name="bnJA" unicode="&#x99c;" horiz-adv-x="771" 
d="M96 444l-55 -13c0 -196 125 -366 296 -366c115 0 183 74 183 166c0 37 -17 81 -45 104h-122c-32 0 -60 13 -60 49c0 52 57 100 145 153c13 -91 101 -178 221 -179c0 0 -45 -75 -45 -188v-170h55v168c0 98 33 162 55 201l-29 38h-17c-145 0 -187 98 -197 175h310v52h-811
v-52h435c-100 -56 -180 -123 -180 -196c0 -70 56 -102 120 -102h89c11 -13 18 -32 18 -57c0 -54 -42 -106 -126 -106c-140 0 -240 147 -240 323z" />
    <glyph glyph-name="bnJHA" unicode="&#x99d;" horiz-adv-x="755" 
d="M361 91h4c-5 78 -6 147 -6 213v116c-91 -25 -194 -91 -251 -150zM595 732h55v-98h125v-52h-125v-430l-54 -29l-182 127v-196l39 -27l-41 -39l-360 253v56c66 67 183 149 307 181v104h-379v52h434v-316l183 -129h4c-5 78 -6 148 -6 214v329z" />
    <glyph glyph-name="bnNYA" unicode="&#x99e;" horiz-adv-x="928" 
d="M463 634c70 0 107 -40 117 -85c13 31 62 87 142 87c76 0 130 -50 130 -120c0 -53 -32 -88 -70 -103v-4c36 -11 81 -44 81 -106c0 -74 -55 -128 -139 -128c-74 0 -126 54 -138 76c0 0 3 -40 3 -95v-156h-52c0 73 -53 125 -217 125c-198 0 -280 70 -280 174
c0 28 8 61 22 92l59 -12c-15 -28 -23 -58 -23 -84c0 -69 48 -117 224 -117c153 0 199 -44 220 -72h4c-2 19 -13 70 -13 205v186c0 54 -18 83 -71 83c-91 0 -184 -93 -184 -172c0 -43 26 -67 70 -67c35 0 61 15 72 24l25 -48c-24 -19 -61 -30 -97 -30c-78 0 -128 50 -128 121
c0 105 117 226 243 226zM716 583c-57 0 -129 -53 -129 -172c0 -107 50 -183 137 -183c55 0 82 37 82 75c0 49 -33 79 -94 79h-21v52h17c54 0 87 33 87 82c0 38 -26 67 -79 67z" />
    <glyph glyph-name="bnTTA" unicode="&#x99f;" horiz-adv-x="543" 
d="M4 911l53 13c-1 -11 -3 -23 -3 -34c0 -37 15 -73 96 -73h154c96 0 165 -44 165 -131c0 -14 -2 -34 -6 -52h100v-52h-402v-387c0 -50 27 -87 86 -87c95 0 173 85 173 187c0 55 -22 101 -78 101c-29 0 -54 -16 -69 -37l-36 45c19 23 52 46 103 46c84 0 138 -67 138 -155
c0 -121 -96 -240 -231 -240c-83 0 -142 53 -142 136v391h-124v52h426c4 16 6 38 6 49c0 57 -35 82 -116 82h-152c-113 0 -143 57 -143 116c0 10 0 20 2 30z" />
    <glyph glyph-name="bnTTHA" unicode="&#x9a0;" horiz-adv-x="529" 
d="M473 236c0 110 -79 191 -227 346h303v52h-341c-45 51 -73 100 -73 143c0 62 49 99 118 93l-12 54c-92 3 -162 -54 -162 -143c0 -43 16 -95 63 -147h-162v-52h198l38 -45v-76c0 -120 -53 -177 -173 -209c6 -114 103 -216 225 -216c131 0 205 95 205 200zM110 219
c52 18 173 75 158 262c71 -75 148 -148 148 -246c0 -76 -52 -145 -146 -145c-100 0 -157 81 -160 129z" />
    <glyph glyph-name="bnDDA" unicode="&#x9a1;" horiz-adv-x="652" 
d="M672 582h-368v-166c0 -36 14 -60 53 -60c32 0 98 15 172 87c27 -19 68 -75 68 -148c0 -137 -96 -228 -247 -228c-196 0 -300 162 -311 349l54 11c9 -185 106 -307 258 -307c113 0 190 67 190 175c0 31 -8 58 -19 72c-52 -45 -113 -64 -166 -64c-67 0 -108 48 -108 110
v169h-268v52h692v-52z" />
    <glyph glyph-name="bnDDHA" unicode="&#x9a2;" horiz-adv-x="541" 
d="M161 582v-387c0 -50 27 -87 86 -87c95 0 173 85 173 187c0 55 -24 101 -87 101c-26 0 -52 -8 -65 -17l-19 49c18 12 53 22 84 22c95 0 143 -67 143 -155c0 -121 -91 -240 -229 -240c-83 0 -142 53 -142 136v391h-125v52h581v-52h-400z" />
    <glyph glyph-name="bnNNA" unicode="&#x9a3;" horiz-adv-x="593" 
d="M100 438c0 -84 56 -127 126 -127c31 0 60 10 77 23l19 -50c-22 -15 -60 -25 -97 -25c-108 0 -182 76 -182 180c0 111 73 195 201 195c112 0 170 -71 191 -113h4c-1 18 -7 67 -7 150v61h56v-98h125v-52h-125v-582h-56v330c0 154 -73 252 -188 252
c-95 0 -144 -63 -144 -144z" />
    <glyph glyph-name="bnTA" unicode="&#x9a4;" horiz-adv-x="670" 
d="M366 260l41 32c-29 18 -44 47 -44 82c0 55 35 85 87 85c73 0 109 -60 109 -149c0 -104 -67 -188 -173 -188c-168 0 -247 176 -283 373l-52 -22c40 -220 140 -401 335 -401c135 0 229 99 229 237c0 111 -57 203 -165 203c-93 0 -143 -60 -143 -136c0 -50 23 -92 59 -116z
M690 634h-710v-52h710v52z" />
    <glyph glyph-name="bnTHA" unicode="&#x9a5;" horiz-adv-x="667" 
d="M118 388l44 29c-25 21 -38 47 -38 77c0 57 46 91 100 91c70 0 114 -45 114 -107c0 -91 -76 -171 -271 -183v-69l497 -238l38 42l-40 19v533h125v52h-125v98h-56v-447c0 -66 1 -132 6 -210h-4l-357 172v4c175 32 243 126 243 227c0 102 -82 161 -170 161
c-90 0 -156 -59 -156 -145c0 -31 8 -74 50 -106z" />
    <glyph glyph-name="bnDA" unicode="&#x9a6;" horiz-adv-x="537" 
d="M428 0h-58v221c0 68 11 136 26 192c-95 -63 -173 -146 -242 -237l-59 28v378h-115v52h577v-52h-406v-321c49 65 165 178 253 216l57 -31c-21 -68 -33 -148 -33 -228v-218z" />
    <glyph glyph-name="bnDHA" unicode="&#x9a7;" horiz-adv-x="603" 
d="M295 561c-27 14 -54 21 -87 21c-58 0 -94 -34 -94 -86c0 -62 46 -94 128 -94c62 0 139 42 200 81v151h181v-52h-125v-530l40 -21l-35 -43l-435 226v56l56 32c54 32 101 49 101 49v4c-98 0 -167 53 -167 141c0 78 57 139 150 139c42 0 78 -9 110 -28zM450 79
c-6 77 -8 145 -8 211v131l-311 -178l315 -164h4z" />
    <glyph glyph-name="bnNA" unicode="&#x9a8;" horiz-adv-x="617" 
d="M129 225l-49 -23c-22 22 -35 53 -35 91c0 90 58 152 162 152c139 0 217 -107 255 -194h4s-10 67 -10 214v117h-476v52h657v-52h-125v-582h-56v25c0 161 -89 366 -246 366c-75 0 -109 -43 -109 -98c0 -25 11 -50 28 -68z" />
    <glyph glyph-name="bnPA" unicode="&#x9aa;" horiz-adv-x="643" 
d="M94 500c77 -3 148 -46 182 -158l181 116c-34 77 -100 128 -190 128c-92 0 -153 -56 -173 -86zM538 0h-56v332c0 26 -3 50 -8 73l-323 -206l-29 45l110 70c-22 67 -61 135 -156 135h-18l-36 49c37 63 117 141 244 141s195 -76 225 -137h4s-13 94 -13 183v47h56v-98h125
v-52h-125v-582z" />
    <glyph glyph-name="bnPHA" unicode="&#x9ab;" horiz-adv-x="735" 
d="M435 49v395c20 5 38 8 58 8c69 0 134 -38 134 -124c0 -55 -38 -101 -96 -123l38 -43c57 25 114 80 114 167c0 112 -90 178 -198 178c-36 0 -72 -7 -106 -21v-204c0 -66 3 -120 8 -198h-4l-270 180l159 124v45l-131 145v4h614v52h-775v-52h98v-15l139 -154l-153 -118v-64
l369 -246l40 39z" />
    <glyph glyph-name="bnBA" unicode="&#x9ac;" horiz-adv-x="544" 
d="M383 582v-85c-112 -38 -266 -136 -328 -197v-55l382 -258l41 40l-39 26v529h125v52h-584v-52h403zM383 439v-137c0 -66 1 -135 6 -213h-4l-275 183c55 55 191 138 273 167z" />
    <glyph glyph-name="bnBHA" unicode="&#x9ad;" horiz-adv-x="701" 
d="M47 457l52 18c36 -198 115 -365 303 -365c115 0 188 75 188 173c0 66 -18 96 -35 125h-4c-47 -101 -103 -130 -156 -130c-75 0 -123 51 -123 116c0 23 8 49 22 69l57 -12c-14 -13 -23 -36 -23 -57c0 -37 23 -62 66 -62c45 0 81 30 130 144h46c40 -40 76 -113 76 -192
c0 -131 -98 -228 -244 -228c-226 0 -319 201 -355 401zM721 582h-741v52h741v-52z" />
    <glyph glyph-name="bnMA" unicode="&#x9ae;" horiz-adv-x="574" 
d="M594 582h-125v-582h-55c-9 111 -102 244 -209 263c-15 -58 -48 -78 -73 -78c-31 0 -50 20 -50 49c0 37 28 71 77 79c1 9 1 18 1 28c0 122 -82 211 -122 231v10h-58v52h614v-52zM416 150l2 1c-3 59 -5 119 -5 178v253h-294v-4c32 -32 95 -121 95 -238c0 -10 0 -19 -1 -28
c96 -15 170 -94 203 -162z" />
    <glyph glyph-name="bnYA" unicode="&#x9af;" horiz-adv-x="555" 
d="M141 582v-4l131 -145v-45l-159 -124l285 -182h4c-5 78 -8 132 -8 198v302h-253zM448 -15l-384 246v64l153 118l-139 154v15h-98v52h595v-52h-125v-533l38 -25z" />
    <glyph glyph-name="bnRA" unicode="&#x9b0;" horiz-adv-x="544" 
d="M108 0c0 24 17 41 41 41s41 -17 41 -41s-17 -41 -41 -41s-41 17 -41 41zM383 582v-85c-112 -38 -266 -136 -328 -197v-55l382 -258l41 40l-39 26v529h125v52h-584v-52h403zM383 439v-137c0 -66 1 -135 6 -213h-4l-275 183c55 55 191 138 273 167z" />
    <glyph glyph-name="bnLA" unicode="&#x9b2;" horiz-adv-x="726" 
d="M319 121l-9 53c-19 -8 -40 -12 -60 -12c-73 0 -132 48 -132 138c0 75 50 117 102 117c56 0 98 -34 98 -100v-39h56v40c0 65 41 103 92 103c56 0 91 -40 99 -67v-354h56v582h125v52h-766v-52h585v-156h-4c-10 14 -42 49 -100 49c-69 0 -105 -49 -112 -86h-4
c-9 30 -46 82 -126 82c-83 0 -157 -65 -157 -171c0 -120 80 -191 190 -191c22 0 45 4 67 12z" />
    <glyph glyph-name="bnSHA" unicode="&#x9b6;" horiz-adv-x="691" 
d="M75 582h-95v52h93c73 0 133 -31 165 -83c34 50 90 81 151 81c87 0 133 -44 147 -68h4s-10 53 -10 128v40h56v-98h125v-52h-125v-582h-56v438c0 94 -61 141 -138 141c-61 0 -127 -43 -127 -131c0 -76 61 -120 132 -120c9 0 21 1 31 3v-52c-10 -1 -21 -2 -30 -2
c-69 0 -132 29 -163 84c-27 -56 -83 -85 -156 -85c-16 0 -40 3 -54 7v54c13 -7 38 -9 55 -9c82 0 130 53 130 122c0 95 -61 132 -135 132z" />
    <glyph glyph-name="bnSSA" unicode="&#x9b7;" horiz-adv-x="550" 
d="M116 582v-4l63 -58l212 -192v254h-275zM441 -14l-382 246v59l155 130l-161 146v15h-73v52h590v-52h-125v-534l38 -24zM397 82c-4 70 -6 121 -6 178l-137 124l-144 -121l283 -181h4z" />
    <glyph glyph-name="bnSA" unicode="&#x9b8;" horiz-adv-x="648" 
d="M151 153c-73 0 -118 47 -133 85l42 33c12 -27 36 -65 93 -65c59 0 87 50 87 105c0 71 -24 106 -88 178l-69 78v15h-103v52h688v-52h-125v-582h-56v287c0 42 -21 66 -62 66c-42 0 -82 -50 -123 -100c-42 -50 -88 -100 -151 -100zM490 382c-3 68 -3 136 -3 136v64h-341v-4
l56 -65c45 -53 88 -102 88 -177c0 -6 0 -16 -1 -22c26 41 71 94 132 94c32 0 54 -12 69 -26z" />
    <glyph glyph-name="bnHA" unicode="&#x9b9;" horiz-adv-x="491" 
d="M211 144v4c128 14 204 85 204 196c0 100 -74 168 -177 168c-95 0 -164 -63 -164 -148c0 -44 21 -86 57 -110l43 32c-29 17 -44 47 -44 76c0 59 45 97 109 97c72 0 120 -45 120 -111c0 -83 -51 -157 -219 -157h-64v-51c79 -12 106 -29 351 -177l42 39l-114 70
c-62 38 -117 64 -144 72zM-20 582h531v52h-531v-52z" />
    <glyph glyph-name="bnK_SSA" horiz-adv-x="845" 
d="M865 582h-274v-176h50c97 0 165 -54 165 -142c0 -77 -36 -126 -90 -156l-41 42c43 19 75 56 75 114c0 62 -47 89 -109 89h-50v-353h-51c-25 88 -120 173 -238 181c-16 -57 -48 -74 -71 -74c-30 0 -46 18 -46 46c0 31 25 63 70 76c2 13 2 26 2 39c0 75 -55 121 -117 125
c-13 -55 -46 -76 -71 -76c-30 0 -46 19 -46 47c0 31 25 64 71 77v4c0 60 -23 105 -59 137h-55v52h885v-52zM540 106c-3 61 -5 142 -5 203v44h-84c-76 0 -140 55 -140 147v82h-210c28 -38 45 -86 45 -136c86 -5 166 -74 166 -180c0 -12 0 -23 -1 -32c106 -6 202 -82 229 -128
zM452 406h83v176h-168v-82c0 -59 28 -94 85 -94z" />
    <glyph glyph-name="bnJ_NYA" horiz-adv-x="809" 
d="M361 582c-40 -50 -90 -137 -90 -190c0 -36 32 -47 64 -49l132 -7c-65 49 -98 144 -102 246h-4zM630 85c-54 0 -95 25 -122 64c-22 -62 -81 -104 -167 -104c-171 0 -295 170 -295 366l55 13c0 -176 99 -323 239 -323c83 0 129 49 129 113c0 27 -5 47 -13 70l-121 5
c-72 3 -120 35 -120 102c0 66 44 139 78 191h-313v52h849v-52h-409c3 -84 28 -145 60 -183c21 69 70 117 148 117c69 0 117 -46 117 -111c0 -51 -29 -83 -63 -96v-4c33 -12 73 -43 73 -100c0 -69 -49 -120 -125 -120zM692 404c0 35 -22 60 -69 60c-51 0 -109 -47 -109 -157
c0 -100 39 -170 116 -170c48 0 73 34 73 69c0 45 -30 73 -83 73h-20v48h16c48 0 76 30 76 77z" />
    <glyph glyph-name="asRA" unicode="&#x9f0;" horiz-adv-x="544" 
d="M383 497v85h-403v52h584v-52h-125v-529l39 -26l-41 -40l-382 258v55c62 61 216 159 328 197zM193 338c-34 -23 -64 -47 -83 -66l275 -183h4c-3 42 -4 82 -5 120zM383 439c-39 -14 -93 -41 -142 -71l142 -94v165z" />
    <glyph glyph-name="asWA" unicode="&#x9f1;" horiz-adv-x="544" 
d="M383 582v-85c-112 -38 -266 -136 -328 -197v-55l382 -258l41 40l-39 26v529h125v52h-584v-52h403zM383 439v-137c0 -66 1 -135 6 -213h-4l-275 183c55 55 191 138 273 167zM222 -25l38 40l-127 84l-38 -40z" />
    <glyph glyph-name="bnDDxA" unicode="&#x9dc;" horiz-adv-x="652" 
d="M307 -70c0 24 17 41 41 41s41 -17 41 -41s-17 -41 -41 -41s-41 17 -41 41zM672 582h-368v-166c0 -36 14 -60 53 -60c32 0 98 15 172 87c27 -19 68 -75 68 -148c0 -137 -96 -228 -247 -228c-196 0 -300 162 -311 349l54 11c9 -185 106 -307 258 -307c113 0 190 67 190 175
c0 31 -8 58 -19 72c-52 -45 -113 -64 -166 -64c-67 0 -108 48 -108 110v169h-268v52h692v-52z" />
    <glyph glyph-name="bnDDHxA" unicode="&#x9dd;" horiz-adv-x="541" 
d="M211 -70c0 24 17 41 41 41s41 -17 41 -41s-17 -41 -41 -41s-41 17 -41 41zM161 582v-387c0 -50 27 -87 86 -87c95 0 173 85 173 187c0 55 -24 101 -87 101c-26 0 -52 -8 -65 -17l-19 49c18 12 53 22 84 22c95 0 143 -67 143 -155c0 -121 -91 -240 -229 -240
c-83 0 -142 53 -142 136v391h-125v52h581v-52h-400z" />
    <glyph glyph-name="bnYxA" unicode="&#x9df;" horiz-adv-x="555" 
d="M100 0c0 24 17 41 41 41s41 -17 41 -41s-17 -41 -41 -41s-41 17 -41 41zM141 582v-4l131 -145v-45l-159 -124l285 -182h4c-5 78 -8 132 -8 198v302h-253zM448 -15l-384 246v64l153 118l-139 154v15h-98v52h595v-52h-125v-533l38 -25z" />
    <glyph glyph-name="bnAnusvara" unicode="&#x982;" horiz-adv-x="422" 
d="M37 227l56 36l295 -247l-43 -28zM210 587c58 0 95 -45 95 -98c0 -48 -36 -91 -90 -91c-59 0 -96 41 -96 97c0 48 37 92 91 92zM211 348c82 0 150 64 150 145c0 84 -65 144 -148 144c-81 0 -150 -65 -150 -146c0 -84 66 -143 148 -143z" />
    <glyph glyph-name="bnCandrabindu" unicode="&#x981;" 
d="M-135 766c75 0 125 39 154 85l45 -30c-41 -66 -112 -109 -199 -109s-158 43 -199 109l45 30c29 -46 79 -85 154 -85zM-176 885c0 24 17 41 41 41s41 -17 41 -41s-17 -41 -41 -41s-41 17 -41 41z" />
    <glyph glyph-name="bnVisarga" unicode="&#x983;" horiz-adv-x="416" 
d="M207 581c49 0 80 -38 80 -83c0 -40 -30 -77 -75 -77c-51 0 -83 35 -83 82c0 40 32 78 78 78zM208 374c72 0 131 57 131 127c0 75 -57 127 -129 127s-131 -58 -131 -128c0 -74 56 -126 129 -126zM207 201c49 0 80 -38 80 -83c0 -40 -30 -77 -75 -77c-51 0 -83 35 -83 82
c0 40 32 78 78 78zM208 -6c72 0 131 57 131 127c0 74 -57 127 -129 127s-131 -58 -131 -128c0 -74 56 -126 129 -126z" />
    <glyph glyph-name="bnAvagraha" unicode="&#x9bd;" horiz-adv-x="452" 
d="M399 3c-245 148 -272 165 -351 177v51h64c168 0 219 54 219 137c0 66 -48 111 -120 111c-64 0 -109 -38 -109 -97c0 -29 15 -59 44 -76l-43 -32c-36 24 -57 66 -57 110c0 68 44 122 110 141c-18 31 -52 57 -115 57h-41v52h29c111 0 160 -48 184 -102
c101 -1 174 -69 174 -168c0 -111 -76 -160 -204 -174v-4c27 -8 80 -38 142 -76l114 -70z" />
    <glyph glyph-name="bnVirama" unicode="&#x9cd;" 
d="M-138 -79l-30 -43l227 -159l30 44z" />
    <glyph glyph-name="bnNukta" unicode="&#x9bc;" 
d="M-471 -80c0 24 17 41 41 41s41 -17 41 -41s-17 -41 -41 -41s-41 17 -41 41z" />
    <glyph glyph-name="bnTAkhanda" unicode="&#x9ce;" horiz-adv-x="513" 
d="M255 412c61 0 99 32 99 83c0 48 -39 86 -108 86c-58 0 -105 -36 -128 -92c24 -45 75 -77 137 -77zM318 200c72 -24 158 -65 158 -163c0 -11 0 -24 -2 -37l-57 -13c2 13 3 31 3 39c0 83 -59 102 -158 134c-102 33 -216 94 -216 248c0 132 78 225 200 225
c89 0 164 -50 164 -138c0 -90 -68 -137 -157 -137c-56 0 -119 28 -150 69c-1 -6 -1 -13 -1 -20c0 -135 110 -172 216 -207z" />
    <glyph glyph-name="bnZero" unicode="&#x9e6;" horiz-adv-x="580" 
d="M132 321c0 -132 58 -188 160 -188s154 60 154 182c0 133 -58 187 -160 187s-154 -58 -154 -181zM286 79c-148 0 -214 97 -214 236c0 147 71 241 220 241c148 0 214 -96 214 -235c0 -147 -71 -242 -220 -242z" />
    <glyph glyph-name="bnOne" unicode="&#x9e7;" horiz-adv-x="522" 
d="M394 196c0 200 -283 182 -283 402c0 15 4 31 4 31l56 10c-2 -8 -4 -13 -4 -33c0 -186 283 -188 283 -411c0 -106 -63 -195 -207 -195c-126 0 -199 70 -199 155c0 49 20 82 54 100l37 -36c-21 -10 -35 -33 -35 -64c0 -53 51 -101 143 -101c94 0 151 54 151 142z" />
    <glyph glyph-name="bnTwo" unicode="&#x9e8;" horiz-adv-x="475" 
d="M103 598c3 -129 249 -136 249 -282c0 -78 -73 -106 -152 -106c-37 0 -82 9 -112 23l-14 7l-36 -47l361 -222l38 42l-103 65c-61 39 -102 58 -141 78v4c145 -8 215 65 215 156c0 186 -249 197 -249 290c0 20 2 25 4 33l-56 -10s-4 -16 -4 -31z" />
    <glyph glyph-name="bnThree" unicode="&#x9e9;" horiz-adv-x="716" 
d="M350 291l42 33c-27 21 -44 48 -44 90c0 55 33 95 88 95c92 0 118 -94 118 -183c0 -139 -72 -224 -188 -224c-186 0 -243 199 -243 433l-54 -15c0 -236 71 -468 297 -468c168 0 244 129 244 273c0 111 -41 237 -174 237c-96 0 -144 -70 -144 -146c0 -57 24 -100 58 -125z
" />
    <glyph glyph-name="bnFour" unicode="&#x9ea;" horiz-adv-x="494" 
d="M380 483c0 58 -51 101 -128 101c-74 0 -128 -39 -128 -102c0 -67 60 -111 116 -132c70 30 140 62 140 133zM257 -11c-124 0 -208 63 -208 166c0 86 58 132 130 168c-50 26 -110 77 -110 161c0 91 72 153 181 153c116 0 185 -72 185 -152c0 -84 -52 -126 -120 -161
c71 -33 135 -82 135 -171c0 -108 -84 -164 -193 -164zM255 43c82 0 138 40 138 113c0 56 -57 109 -137 139c-72 -33 -150 -57 -151 -141c0 -71 65 -111 150 -111z" />
    <glyph glyph-name="bnFive" unicode="&#x9eb;" horiz-adv-x="599" 
d="M111 305c0 -149 129 -232 324 -252c-43 41 -71 99 -71 161c0 71 34 129 104 176c-98 21 -140 99 -140 183c-149 -49 -217 -154 -217 -268zM520 46l-10 -46c-303 0 -456 121 -456 304c0 168 123 293 304 333l29 -44c-2 -11 -3 -22 -3 -32c0 -94 66 -122 150 -135l15 -56
c-81 -32 -129 -89 -129 -159c0 -75 47 -134 100 -165z" />
    <glyph glyph-name="bnSix" unicode="&#x9ec;" horiz-adv-x="620" 
d="M105 591c17 19 52 43 103 43c75 0 110 -44 110 -132v-116c0 -36 14 -60 53 -60c32 0 68 15 142 87c28 -18 70 -73 70 -155c0 -132 -91 -229 -242 -229c-183 0 -314 157 -323 336l59 12c7 -189 133 -292 265 -292c113 0 183 69 183 173c0 28 -4 60 -18 80
c-48 -48 -84 -66 -137 -66c-67 0 -110 49 -110 111v106c0 55 -3 91 -50 91c-29 0 -52 -15 -67 -32z" />
    <glyph glyph-name="bnSeven" unicode="&#x9ed;" horiz-adv-x="556" 
d="M237 288c60 0 105 24 133 44v150c0 67 -39 97 -101 97c-89 0 -158 -79 -158 -179c0 -71 42 -112 126 -112zM370 132v142c-30 -18 -80 -41 -140 -41c-97 0 -179 53 -179 168c0 132 87 233 220 233c97 0 157 -55 157 -152v-337c0 -55 3 -91 50 -91c29 0 52 15 67 32l38 -43
c-17 -19 -52 -43 -103 -43c-75 0 -110 44 -110 132z" />
    <glyph glyph-name="bnEight" unicode="&#x9ee;" horiz-adv-x="673" 
d="M244 55c89 0 158 90 158 196c0 65 -42 103 -126 103c-60 0 -105 -24 -133 -44v-158c0 -67 39 -97 101 -97zM143 502v-134c30 18 80 41 140 41c52 0 101 -15 134 -46c14 20 38 31 72 31h24c49 0 69 11 69 58c0 5 -1 11 -1 18l51 -16c1 -6 1 -13 1 -19
c0 -50 -19 -96 -96 -96h-24c-34 0 -52 -14 -60 -34c6 -18 9 -38 9 -61c0 -132 -87 -244 -220 -244c-97 0 -157 55 -157 152v337c0 55 -3 91 -50 91c-29 0 -52 -15 -67 -32l-38 43c17 19 52 43 103 43c75 0 110 -44 110 -132z" />
    <glyph glyph-name="bnNine" unicode="&#x9ef;" horiz-adv-x="627" 
d="M509 227c0 219 -436 183 -436 371c0 15 4 31 4 31l56 10c-2 -8 -4 -13 -4 -33c0 -148 437 -109 437 -381c0 -136 -87 -215 -209 -227l-40 40c19 32 25 71 25 108c0 88 -52 136 -127 136c-77 0 -121 -52 -121 -124c0 -70 32 -105 83 -112l-21 -51c-70 12 -119 69 -119 163
c0 114 73 179 179 179c108 0 183 -68 183 -190c0 -23 -3 -54 -13 -86c80 25 123 83 123 166z" />
    <glyph glyph-name="bnAnji" unicode="&#x980;" horiz-adv-x="556" 
d="M304 323l14 -49c-26 -10 -58 -18 -93 -18c-86 0 -174 43 -174 158c0 122 91 220 224 220c97 0 153 -55 153 -152v-337c0 -55 3 -91 50 -91c29 0 52 15 67 32l38 -43c-17 -19 -52 -43 -103 -43c-75 0 -110 44 -110 132v350c0 67 -35 97 -97 97c-89 0 -162 -77 -162 -166
c0 -71 48 -102 121 -102c27 0 51 5 72 12z" />
    <glyph glyph-name="bnTaka" unicode="&#x9f2;" horiz-adv-x="410" 
d="M19 450l8 55c236 -12 337 -209 355 -434l-56 -13c-24 213 -110 382 -307 392z" />
    <glyph glyph-name="bnBangladeshitaka" unicode="&#x9f3;" horiz-adv-x="569" 
d="M448 295c0 55 -24 94 -80 94c-21 0 -40 -9 -54 -21l-34 44c20 17 47 31 86 31c84 0 138 -60 138 -148c0 -148 -83 -295 -237 -295c-87 0 -137 51 -137 134v243h-89v54h89v72c0 51 -18 79 -76 79h-12v52c9 1 17 1 25 1c83 0 119 -55 119 -130v-74h61v-54h-61v-243
c0 -52 30 -80 81 -80c112 0 181 112 181 241z" />
    <glyph glyph-name="bnNumeratorone" unicode="&#x9f4;" horiz-adv-x="392" 
d="M63 39l-30 40c142 138 220 278 290 477l50 -19c-60 -172 -148 -360 -310 -498z" />
    <glyph glyph-name="bnNumeratortwo" unicode="&#x9f5;" horiz-adv-x="681" 
d="M323 39l-42 37c19 32 25 71 25 108c0 88 -42 136 -117 136c-64 0 -99 -38 -99 -97c0 -29 15 -59 44 -76l-43 -32c-36 24 -57 66 -57 110c0 85 58 150 155 150c108 0 172 -68 172 -190c0 -12 -1 -25 -2 -38c102 120 164 238 224 409l50 -19c-60 -172 -148 -360 -310 -498z
" />
    <glyph glyph-name="bnNumeratorthree" unicode="&#x9f6;" horiz-adv-x="625" 
d="M171 321l-45 -28c-20 22 -32 51 -32 85c0 69 44 123 124 123c95 0 129 -67 129 -135c0 -82 -43 -148 -138 -149c-65 -1 -94 -22 -94 -67c0 -51 56 -75 117 -75c214 0 273 281 273 519l49 -7c0 -202 -37 -564 -322 -564c-90 0 -173 37 -173 127c0 60 30 112 130 116
c80 3 104 48 104 100c0 41 -19 80 -75 80c-47 0 -68 -28 -68 -70c0 -23 8 -39 21 -55z" />
    <glyph glyph-name="bnNumeratorfour" unicode="&#x9f7;" horiz-adv-x="266" 
d="M161 634h-56v-634h56v634z" />
    <glyph glyph-name="bnNumeratoroneless" unicode="&#x9f8;" horiz-adv-x="554" 
d="M95 566h56v-318l253 228l55 -30v-376h-56v332l-253 -227l-55 30v361z" />
    <glyph glyph-name="bnDenominatorsixteen" unicode="&#x9f9;" horiz-adv-x="510" 
d="M89 322c0 107 71 170 170 170c101 0 172 -63 172 -170s-71 -173 -172 -173c-99 0 -170 66 -170 173zM145 321c0 -75 49 -119 114 -119c70 0 116 45 116 120c0 73 -46 117 -116 117c-65 0 -114 -45 -114 -118z" />
    <glyph glyph-name="bnIsshar" unicode="&#x9fa;" horiz-adv-x="622" 
d="M221 409c0 24 17 41 41 41s41 -17 41 -41s-17 -41 -41 -41s-41 17 -41 41zM262 165c-116 0 -194 66 -236 151l48 26c21 -43 75 -123 188 -123c152 0 231 139 284 304l52 -19c-50 -150 -113 -339 -336 -339z" />
    <glyph glyph-name="bnGanda" unicode="&#x9fb;" horiz-adv-x="260" 
d="M360 -106l-33 -44l-208 148c-61 43 -100 99 -100 167c0 94 61 157 178 167l14 -52c-89 -10 -136 -48 -136 -115c0 -60 39 -96 81 -126z" />
    <glyph glyph-name="danda" unicode="&#x964;" horiz-adv-x="460" 
d="M260 0h-60v634h60v-634z" />
    <glyph glyph-name="doubledanda" unicode="&#x965;" horiz-adv-x="730" 
d="M260 0h-60v634h60v-634zM530 0h-60v634h60v-634z" />
    <glyph glyph-name="indianrupee" unicode="&#x20b9;" horiz-adv-x="461" 
d="M344 7v-7h-67l-191 242l-51 57l16 49c113 -25 206 10 213 118h-223v53h217c-17 51 -65 76 -112 76h-105v53h411l-25 -53h-163v-4c18 -12 39 -34 48 -72h140l-25 -53h-109c-4 -120 -106 -179 -207 -173l-1 -3c26 -28 51 -60 75 -89z" />
    <glyph glyph-name="uni200C" unicode="&#x200c;" 
d="M24 -230h-47v1041h47v-1041z" />
    <glyph glyph-name="uni200D" unicode="&#x200d;" 
d="M128 593l-33 -33l-72 75v-865h-47v865l-69 -73l-33 33l93 93l-95 95l33 33l95 -95l96 95l32 -32l-96 -96z" />
    <glyph glyph-name="uni25CC" unicode="&#x25cc;" horiz-adv-x="660" 
d="M139 517c0 25 18 44 44 44s44 -19 44 -44c0 -26 -18 -45 -44 -45s-44 19 -44 45zM57 407c0 25 20 44 46 44c24 0 44 -19 44 -44s-20 -44 -44 -44c-26 0 -46 19 -46 44zM44 281c0 26 19 45 44 45c26 0 44 -19 44 -45c0 -25 -18 -43 -44 -43c-25 0 -44 18 -44 43zM96 165
c0 25 18 44 44 44c25 0 44 -19 44 -44c0 -26 -19 -44 -44 -44c-26 0 -44 18 -44 44zM197 90c0 24 19 44 45 44c25 0 44 -20 44 -44c0 -26 -19 -46 -44 -46c-26 0 -45 20 -45 46zM324 74c0 26 18 44 44 44s45 -18 45 -44s-19 -44 -45 -44s-44 18 -44 44zM445 127
c0 25 19 44 44 44s45 -19 45 -44c0 -26 -20 -44 -45 -44s-44 18 -44 44zM518 225c0 26 19 45 45 45c24 0 43 -19 43 -45c0 -25 -19 -44 -43 -44c-26 0 -45 19 -45 44zM528 359c0 26 18 44 44 44c25 0 44 -18 44 -44s-19 -44 -44 -44c-26 0 -44 18 -44 44zM478 477
c0 26 19 45 44 45c26 0 44 -19 44 -45c0 -25 -18 -44 -44 -44c-25 0 -44 19 -44 44zM383 545c0 26 19 45 45 45c25 0 43 -19 43 -45c0 -24 -18 -44 -43 -44c-26 0 -45 20 -45 44zM257 560c0 26 18 44 44 44s44 -18 44 -44s-18 -44 -44 -44s-44 18 -44 44z" />
    <glyph glyph-name="bnNull" 
 />
    <glyph glyph-name="bnReph" 
d="M-161 732l253 177l30 -43l-253 -178z" />
    <glyph glyph-name="bnRAc2" 
d="M-161 72h56v-268h-52c-9 56 -26 114 -102 114c-38 0 -75 -6 -109 -6c-103 0 -150 61 -156 159l57 17c0 -70 29 -122 95 -122c45 0 68 6 109 6c62 0 90 -27 108 -61h4c-1 12 -10 39 -10 111v50z" />
    <glyph glyph-name="bnYAc2" horiz-adv-x="246" 
d="M133 582v-4c-23 -19 -60 -58 -60 -133c0 -110 50 -187 50 -287c0 -62 -17 -110 -70 -157l46 -35c50 44 80 105 80 183c0 116 -49 191 -49 289c0 108 68 144 129 144h7v52h-286v-52h153z" />
    <glyph glyph-name="bnBAc2" 
d="M-160 127h55v-331l58 -31l-45 -39l-340 185v59c69 62 173 119 272 145v12zM-158 -175h4c-5 78 -6 142 -6 208v28c-80 -27 -153 -68 -216 -117z" />
    <glyph glyph-name="bnK" horiz-adv-x="632" 
d="M650 582h-280v-37c135 -4 217 -69 217 -164c0 -77 -38 -128 -92 -158l-41 42c43 19 77 58 77 116c0 74 -60 111 -161 114v-284l-24 1l-303 138v59c70 69 163 122 272 134v39h-335v52h670v-52zM321 288c-5 78 -6 142 -6 204c-85 -13 -167 -59 -216 -108l218 -96h4z" />
    <glyph glyph-name="bnKH" horiz-adv-x="569" 
d="M479 150h-48l-384 152v62c147 3 258 28 258 128c0 32 -14 55 -32 69c-35 -78 -94 -107 -147 -107c-71 0 -113 45 -113 110c0 23 4 44 14 70h55c-9 -19 -16 -51 -16 -70c0 -38 19 -62 61 -62c45 0 84 32 129 132h8c58 -32 95 -84 95 -142c0 -105 -78 -157 -216 -172v-4
l282 -112h4c-5 78 -6 147 -6 213v315h56v-98h110v-52h-110v-432z" />
    <glyph glyph-name="bnG" horiz-adv-x="607" 
d="M502 732v-98h135v-52h-135v-394h-56v183c0 103 -74 210 -200 210c-94 0 -151 -64 -173 -110c26 14 70 22 100 22c79 0 139 -46 139 -127c0 -77 -66 -135 -138 -171l-37 44c66 33 117 72 117 131c0 49 -35 71 -86 71c-38 0 -82 -11 -114 -28l-43 41
c26 100 123 180 234 180c138 0 197 -89 210 -120h4s-13 67 -13 156v62h56z" />
    <glyph glyph-name="bnGH" horiz-adv-x="590" 
d="M434 133l-372 95v64l54 33c53 33 76 41 86 46v4c-98 4 -144 54 -144 125c0 31 10 60 27 82h-105v52h630v-52h-125v-449h-51zM435 189c-5 78 -6 153 -6 219v174h-277c-25 -20 -40 -49 -40 -82c0 -58 44 -81 100 -81c52 0 81 12 117 33l26 -48l-226 -137l302 -78h4z" />
    <glyph glyph-name="bnNG" horiz-adv-x="666" 
d="M298 489v-25c23 -10 49 -16 77 -16c58 0 90 30 90 74c0 39 -31 70 -82 70c-57 0 -85 -35 -85 -103zM366 71c-200 0 -317 150 -330 326l58 15c16 -186 131 -285 273 -285c123 0 186 60 186 140c0 28 -5 52 -17 71c-62 -47 -113 -72 -176 -72c-73 0 -115 47 -115 116v50
c-62 37 -106 96 -127 150h-138v52h178c12 -44 41 -100 88 -139c2 103 55 149 134 149c81 0 140 -53 140 -123c0 -84 -64 -125 -146 -125c-27 0 -52 4 -76 12v-23c0 -43 19 -65 64 -65c59 0 125 42 184 98c30 -24 66 -77 66 -150c0 -123 -91 -197 -246 -197z" />
    <glyph glyph-name="bnC" horiz-adv-x="474" 
d="M494 582h-353c13 -29 42 -45 74 -57l76 -28c85 -31 126 -67 126 -144c0 -95 -92 -190 -212 -190c-77 0 -126 45 -126 117v302h-99v52h514v-52zM135 517h-4c1 -37 4 -63 4 -160v-74c0 -41 21 -67 70 -67c73 0 154 60 154 138c0 40 -12 64 -88 91l-57 20
c-46 16 -70 39 -79 52z" />
    <glyph glyph-name="bnCH" horiz-adv-x="577" 
d="M123 582c19 -38 92 -50 151 -76c21 5 42 8 62 8c100 0 181 -69 181 -170c0 -133 -96 -202 -288 -206v-4c23 -7 65 -24 140 -64l168 -90l-38 -42c-314 176 -356 190 -419 196v51h108c185 0 274 55 274 159c0 78 -59 115 -126 118c11 -15 18 -33 18 -55
c0 -75 -64 -149 -158 -149c-71 0 -116 47 -116 104v220h-100v52h617v-52h-474zM301 407c0 64 -111 57 -167 103v-143c0 -34 18 -58 63 -58c64 0 104 53 104 98z" />
    <glyph glyph-name="bnJ" horiz-adv-x="741" 
d="M78 473l-55 -13c0 -196 125 -362 296 -362c115 0 183 70 183 162c0 37 -17 81 -45 104l-107 8c-47 3 -75 14 -75 50c0 52 83 91 125 115c13 -91 114 -178 234 -179c0 0 -37 -75 -37 -188v-87h55v85c0 98 25 162 47 201l-29 38h-17c-145 0 -200 98 -210 175h318v52h-781
v-52h396c-68 -37 -157 -87 -157 -161c0 -70 54 -96 118 -101l89 -7c11 -13 18 -32 18 -57c0 -54 -42 -102 -126 -102c-140 0 -240 143 -240 319z" />
    <glyph glyph-name="bnJH" horiz-adv-x="700" 
d="M345 261h4c-5 78 -7 142 -7 208v23c-72 -33 -150 -73 -221 -118zM610 732v-98h110v-52h-110v-337l-39 -10l-173 87v-133h-33l-294 152v67c79 53 175 104 271 146v28h-362v52h418v-252l157 -80v430h55z" />
    <glyph glyph-name="bnNY" horiz-adv-x="720" 
d="M387 633c53 0 81 -23 94 -55c17 26 56 56 110 56c66 0 110 -41 110 -101c0 -33 -17 -64 -52 -80v-4c36 -13 60 -42 60 -83c0 -63 -44 -107 -115 -107c-46 0 -87 31 -108 49c4 -12 6 -32 6 -58v-130h-53c0 59 -39 98 -164 98c-160 0 -227 59 -227 145c0 24 5 51 18 79
l59 -12c-15 -26 -18 -52 -18 -70c0 -52 35 -86 169 -86c93 0 141 -24 164 -44h4c-4 24 -7 70 -7 142v147c0 37 -13 59 -51 59c-69 0 -137 -68 -137 -130c0 -29 18 -45 47 -45c26 0 50 12 60 22l26 -50c-23 -17 -54 -28 -86 -28c-64 0 -107 42 -107 101c0 85 95 185 198 185z
M587 580c-43 0 -96 -41 -96 -130c0 -79 38 -137 103 -137c38 0 57 26 57 53c0 35 -24 55 -68 55h-22v55h19c38 0 62 24 62 57c0 25 -18 47 -55 47z" />
    <glyph glyph-name="bnTT" horiz-adv-x="518" 
d="M3 911l53 13c-1 -11 -3 -23 -3 -34c0 -37 15 -73 96 -73h144c96 0 165 -44 165 -131c0 -14 -2 -34 -6 -52h86v-52h-388v-267c0 -59 37 -87 96 -87c95 0 153 64 153 147c0 55 -22 91 -78 91c-29 0 -54 -16 -69 -37l-36 45c19 23 52 46 103 46c84 0 138 -57 138 -145
c0 -121 -87 -200 -211 -200c-83 0 -152 45 -152 136v271h-114v52h416c4 16 6 38 6 49c0 57 -35 82 -116 82h-142c-113 0 -143 57 -143 116c0 10 0 20 2 30z" />
    <glyph glyph-name="bnTTH" horiz-adv-x="581" 
d="M513 269c0 110 -53 162 -201 313h289v52h-327c-45 51 -73 100 -73 143c0 62 49 99 118 93l-12 54c-92 3 -166 -54 -166 -143c0 -43 20 -95 67 -147h-228v-52h264l12 -12v-76c0 -120 -53 -177 -173 -209c6 -114 103 -216 225 -216c131 0 205 95 205 200zM150 252
c52 18 173 75 158 262c71 -75 148 -148 148 -246c0 -76 -52 -145 -146 -145c-100 0 -157 81 -160 129z" />
    <glyph glyph-name="bnDD" horiz-adv-x="651" 
d="M671 582h-371v-121c0 -36 14 -60 53 -60c40 0 97 24 164 87c28 -18 73 -67 73 -149c0 -135 -98 -221 -249 -221c-200 0 -303 170 -314 357l59 12c9 -185 104 -313 256 -313c113 0 190 72 190 165c0 31 -7 54 -21 74c-50 -39 -106 -66 -159 -66c-67 0 -109 49 -109 111
v124h-263v52h691v-52z" />
    <glyph glyph-name="bnDDH" horiz-adv-x="518" 
d="M150 582v-267c0 -59 37 -87 96 -87c95 0 153 64 153 147c0 55 -22 91 -78 91c-29 0 -54 -16 -69 -37l-36 45c19 23 52 46 103 46c84 0 138 -57 138 -145c0 -121 -87 -200 -211 -200c-83 0 -152 45 -152 136v271h-114v52h558v-52h-388z" />
    <glyph glyph-name="bnNN" horiz-adv-x="581" 
d="M98 443c0 -79 49 -122 116 -122c51 0 80 29 99 52l24 -48c-21 -25 -59 -56 -123 -56c-98 0 -173 71 -173 175c0 111 73 200 201 200c112 0 160 -71 181 -113h4c-1 18 -7 67 -7 150v51h56v-98h125v-52h-125v-337h-56v95c0 154 -63 252 -178 252c-95 0 -144 -66 -144 -149z
" />
    <glyph glyph-name="bnT" horiz-adv-x="670" 
d="M375 -38l-30 -43l227 -159l30 44zM366 260l41 32c-29 18 -44 47 -44 82c0 55 35 85 87 85c73 0 109 -60 109 -149c0 -104 -67 -188 -173 -188c-168 0 -247 176 -283 373l-52 -22c40 -220 140 -401 335 -401c135 0 229 99 229 237c0 111 -57 203 -165 203
c-93 0 -143 -60 -143 -136c0 -50 23 -92 59 -116zM690 634h-710v-52h710v52z" />
    <glyph glyph-name="bnTH" horiz-adv-x="612" 
d="M113 388l44 29c-25 21 -38 47 -38 77c0 57 46 91 100 91c70 0 112 -38 112 -100c0 -84 -66 -138 -261 -142v-69l388 -154h49v462h125v52h-125v98h-56v-346c0 -66 1 -132 6 -210h-4l-298 118v4c190 22 234 96 234 189c0 102 -82 152 -170 152c-90 0 -158 -59 -158 -145
c0 -31 10 -76 52 -106z" />
    <glyph glyph-name="bnD" horiz-adv-x="524" 
d="M544 582h-397v-241c58 60 165 148 253 186l57 -31c-21 -68 -33 -148 -33 -228v-54h-56v54c0 68 9 139 24 195c-91 -61 -159 -115 -242 -207l-59 38v288h-111v52h564v-52z" />
    <glyph glyph-name="bnDH" horiz-adv-x="568" 
d="M273 562c-22 17 -49 27 -81 27c-49 0 -81 -30 -81 -72c0 -60 60 -76 114 -76c61 0 129 33 185 71v122h178v-52h-125v-454h-53l-355 128v54l56 33c52 31 96 47 96 47v4c-97 3 -155 47 -155 123c0 69 51 124 140 124c41 0 83 -14 106 -35zM416 177c-5 75 -6 140 -6 204v72
l-297 -167l299 -109h4z" />
    <glyph glyph-name="bnN" horiz-adv-x="515" 
d="M-20 582v52h555v-52h-110v-352h-53c-27 129 -93 218 -186 218c-64 0 -91 -36 -91 -78c0 -46 29 -70 65 -85l-37 -41c-49 19 -84 63 -84 126c0 74 54 132 146 132c87 0 161 -62 193 -156h4s-13 57 -13 204v32h-389z" />
    <glyph glyph-name="bnP" horiz-adv-x="644" 
d="M104 500c67 -1 147 -31 177 -124l167 118c-37 56 -96 92 -171 92c-92 0 -153 -56 -173 -86zM548 210h-55v122c0 41 -7 79 -20 113l-312 -219l-29 45l104 73c-20 65 -65 105 -153 105h-18l-36 49c37 63 120 141 247 141s195 -76 225 -137h4s-13 94 -13 183v47h56v-98h116
v-52h-116v-372z" />
    <glyph glyph-name="bnPH" horiz-adv-x="737" 
d="M452 141v318c20 5 38 7 66 7c69 0 126 -39 126 -104c0 -55 -38 -91 -96 -113l38 -43c57 25 114 70 114 157c0 107 -90 158 -195 158c-39 0 -73 -6 -107 -20v-97c0 -66 1 -120 6 -198h-4l-268 101l157 103v47l-129 121v4h597v52h-777v-52h115v-15l141 -132l-155 -100v-64
l340 -130h31z" />
    <glyph glyph-name="bnB" horiz-adv-x="481" 
d="M501 582h-113v-386h-45l-282 145v67c80 54 175 104 271 146v28h-352v52h521v-52zM335 261h4c-5 78 -7 142 -7 208v23c-71 -33 -150 -74 -220 -118z" />
    <glyph glyph-name="bnBH" horiz-adv-x="709" 
d="M62 496l55 19c34 -195 148 -335 302 -335c115 0 179 68 179 154c0 56 -18 85 -35 114h-4c-47 -101 -103 -130 -159 -130c-72 0 -121 51 -121 116c0 23 8 49 22 69l58 -12c-14 -13 -23 -36 -23 -57c0 -37 21 -65 64 -65c45 0 84 33 133 147h44c40 -40 77 -102 77 -181
c0 -127 -89 -209 -235 -209c-208 0 -321 182 -357 370zM729 582h-749v52h749v-52z" />
    <glyph glyph-name="bnM" horiz-adv-x="612" 
d="M414 411c57 0 77 40 77 84s-22 87 -85 87h-218c10 -18 16 -38 19 -60c88 -19 124 -111 207 -111zM-20 634h652v-52h-115c16 -18 34 -52 34 -94c0 -70 -38 -132 -137 -132c-118 0 -156 115 -238 115c-36 0 -62 -23 -62 -61c0 -25 14 -43 33 -56l-40 -39
c-28 21 -49 52 -49 95c0 59 33 102 90 113c-8 22 -20 42 -34 59h-134v52z" />
    <glyph glyph-name="bnY" horiz-adv-x="498" 
d="M381 141h31v441h106v52h-538v-52h75v-15l141 -132l-155 -100v-64zM120 582h238v-178c0 -66 1 -120 6 -198h-4l-268 101l157 103v47l-129 121v4z" />
    <glyph glyph-name="bnR" horiz-adv-x="481" 
d="M501 582h-113v-386h-45l-282 145v67c80 54 175 104 271 146v28h-352v52h521v-52zM111 161c0 24 17 41 41 41s41 -17 41 -41s-17 -41 -41 -41s-41 17 -41 41zM335 261h4c-5 78 -7 142 -7 208v23c-71 -33 -150 -74 -220 -118z" />
    <glyph glyph-name="bnL" horiz-adv-x="672" 
d="M692 582h-110v-414h-55v239c-8 27 -38 67 -94 67c-51 0 -87 -38 -87 -103v-40h-56v39c0 66 -40 100 -96 100c-52 0 -97 -33 -97 -108c0 -90 59 -131 132 -131c7 0 15 0 22 1l7 -52c-9 -1 -18 -2 -27 -2c-105 0 -192 71 -192 184c0 106 71 162 154 162
c80 0 115 -52 124 -82h4c7 37 38 86 107 86c58 0 85 -35 95 -49h4v103h-547v52h712v-52z" />
    <glyph glyph-name="bnSH" horiz-adv-x="618" 
d="M68 582h-88v52h86c73 0 120 -22 149 -79c27 52 74 77 135 77c75 0 109 -41 123 -65h4s-10 53 -10 128v37h56v-98h115v-52h-115v-338h-56v194c0 94 -37 141 -114 141c-61 0 -111 -32 -111 -115c0 -78 45 -116 116 -116c17 0 42 2 55 9v-52c-14 -4 -38 -8 -54 -8
c-69 0 -116 22 -147 77c-27 -56 -67 -78 -140 -78c-16 0 -40 3 -54 7v55c13 -7 38 -10 55 -10c82 0 114 47 114 116c0 84 -45 118 -119 118z" />
    <glyph glyph-name="bnSS" horiz-adv-x="505" 
d="M525 582h-136c35 -31 57 -76 57 -134c0 -123 -88 -183 -196 -183c-107 0 -193 66 -193 183c0 58 21 103 54 134h-131v52h545v-52zM250 582c-32 0 -60 -10 -82 -27l204 -170c10 19 15 41 15 64c0 70 -54 133 -137 133zM250 313c34 0 63 11 86 28l-204 172
c-10 -20 -16 -41 -16 -64c0 -77 55 -136 134 -136z" />
    <glyph glyph-name="bnS" horiz-adv-x="630" 
d="M62 489l-41 -34c27 -42 74 -80 133 -80c67 0 112 37 132 122c23 -68 68 -121 149 -121c95 0 137 66 137 149c0 18 -3 41 -8 57h86v52h-670v-52h272c-8 -66 -28 -155 -98 -155c-41 0 -70 32 -92 62zM508 582c5 -10 9 -31 9 -61s-11 -95 -82 -95c-76 0 -107 84 -115 156
h188z" />
    <glyph glyph-name="bnH" horiz-adv-x="452" 
d="M183 190v-4c27 -8 80 -38 142 -76l114 -70l-40 -37c-245 148 -272 165 -351 177v51h64c168 0 219 54 219 137c0 66 -48 111 -120 111c-64 0 -109 -38 -109 -97c0 -29 15 -59 44 -76l-43 -32c-36 24 -57 66 -57 110c0 85 69 148 164 148c103 0 177 -68 177 -168
c0 -111 -76 -160 -204 -174zM472 582h-492v52h492v-52z" />
    <glyph glyph-name="bnK_SS" horiz-adv-x="875" 
d="M526 -122l30 43l227 -158l-30 -44zM865 582h-274v-176h50c97 0 165 -54 165 -142c0 -77 -36 -126 -90 -156l-41 42c43 19 75 56 75 114c0 62 -47 89 -109 89h-50v-353h-51c-25 88 -120 173 -238 181c-16 -57 -48 -74 -71 -74c-30 0 -46 18 -46 46c0 31 25 63 70 76
c2 13 2 26 2 39c0 75 -55 121 -117 125c-13 -55 -46 -76 -71 -76c-30 0 -46 19 -46 47c0 31 25 64 71 77v4c0 60 -23 105 -59 137h-55v52h885v-52zM540 106c-3 61 -5 142 -5 203v44h-84c-76 0 -140 55 -140 147v82h-210c28 -38 45 -86 45 -136c86 -5 166 -74 166 -180
c0 -12 0 -23 -1 -32c106 -6 202 -82 229 -128zM452 406h83v176h-168v-82c0 -59 28 -94 85 -94z" />
    <glyph glyph-name="bnJ_NY" horiz-adv-x="809" 
d="M361 582c-40 -50 -90 -137 -90 -190c0 -36 32 -47 64 -49l132 -7c-65 49 -98 144 -102 246h-4zM630 85c-54 0 -95 25 -122 64c-22 -62 -81 -104 -167 -104c-171 0 -295 170 -295 366l55 13c0 -176 99 -323 239 -323c83 0 129 49 129 113c0 27 -5 47 -13 70l-121 5
c-72 3 -120 35 -120 102c0 66 44 139 78 191h-313v52h849v-52h-409c3 -84 28 -145 60 -183c21 69 70 117 148 117c69 0 117 -46 117 -111c0 -51 -29 -83 -63 -96v-4c33 -12 73 -43 73 -100c0 -69 -49 -120 -125 -120zM692 404c0 35 -22 60 -69 60c-51 0 -109 -47 -109 -157
c0 -100 39 -170 116 -170c48 0 73 34 73 69c0 45 -30 73 -83 73h-20v48h16c48 0 76 30 76 77zM387 -122l30 43l227 -158l-30 -44z" />
    <glyph glyph-name="asR" horiz-adv-x="483" 
d="M326 537v45h-346v52h523v-52h-125v-459h-36l-287 196v55c51 51 178 131 271 163zM169 401c-28 -19 -53 -39 -69 -55l227 -151h3c-2 35 -3 68 -4 99zM326 484c-33 -12 -76 -33 -116 -58l116 -77v135z" />
    <glyph glyph-name="asW" horiz-adv-x="493" 
d="M68 214l38 39l138 -75l-38 -40zM513 582h-125v-386h-45l-282 145v67c80 54 175 104 271 146v28h-352v52h533v-52zM335 261h4c-5 78 -7 142 -7 208v23c-71 -33 -150 -74 -220 -118z" />
    <glyph glyph-name="bnDDx" horiz-adv-x="651" 
d="M671 582h-371v-101c0 -36 14 -60 53 -60c40 0 97 24 164 87c28 -18 73 -67 73 -149c0 -135 -98 -221 -249 -221c-200 0 -303 170 -314 357l59 12c9 -185 104 -313 256 -313c113 0 190 72 190 165c0 31 -7 54 -21 74c-50 -39 -106 -66 -159 -66c-67 0 -109 49 -109 111
v104h-263v52h691v-52zM284 17c0 24 17 41 41 41s41 -17 41 -41s-17 -41 -41 -41s-41 17 -41 41z" />
    <glyph glyph-name="bnDDHx" horiz-adv-x="518" 
d="M150 582v-267c0 -59 37 -87 96 -87c95 0 153 64 153 147c0 55 -22 91 -78 91c-29 0 -54 -16 -69 -37l-36 45c19 23 52 46 103 46c84 0 138 -57 138 -145c0 -121 -87 -200 -211 -200c-83 0 -152 45 -152 136v271h-114v52h558v-52h-388zM204 59c0 24 17 41 41 41
s41 -17 41 -41s-17 -41 -41 -41s-41 17 -41 41z" />
    <glyph glyph-name="bnYx" horiz-adv-x="500" 
d="M381 141h31v441h106v52h-538v-52h75v-15l141 -132l-155 -100v-64zM120 582h238v-178c0 -66 1 -120 6 -198h-4l-268 101l157 103v47l-129 121v4zM111 101c0 24 17 41 41 41s41 -17 41 -41s-17 -41 -41 -41s-41 17 -41 41z" />
    <glyph glyph-name="bnK_KA" horiz-adv-x="651" 
d="M671 582h-288v-30c141 0 210 -85 210 -172c0 -42 -14 -87 -41 -115l-51 30c22 21 36 53 36 85c0 71 -53 117 -154 117v-224c141 0 210 -85 210 -172c0 -60 -27 -117 -85 -152l-40 41c47 30 69 67 69 111c0 71 -53 117 -154 117v-267l43 -23l-45 -40l-325 177v61
c49 49 117 94 190 121l-190 95v63c67 66 167 126 272 143v34h-348v52h691v-52zM334 -20c-5 78 -6 142 -6 208v25c-86 -17 -164 -68 -218 -113l220 -120h4zM334 270c-5 78 -6 142 -6 208v14c-86 -17 -164 -68 -218 -113l220 -109h4z" />
    <glyph glyph-name="bnNG_KA" horiz-adv-x="675" 
d="M422 582c0 -68 27 -125 88 -125c54 0 65 43 65 78c0 23 -3 37 -7 47h-146zM-20 582v52h715v-52h-74c5 -15 7 -37 7 -54c0 -68 -40 -122 -117 -122s-147 54 -147 176h-384zM376 11l43 -23l-45 -40l-325 177v61c67 66 167 126 272 143v34c0 89 -44 137 -110 137
c-52 0 -87 -30 -87 -85c0 -29 15 -59 44 -76l-43 -32c-36 24 -57 66 -57 110c0 76 50 136 143 136c98 0 165 -80 165 -191v-29c141 0 210 -85 210 -172c0 -60 -27 -117 -85 -152l-40 41c47 30 69 67 69 111c0 71 -53 117 -154 117v-267zM327 40c-5 78 -6 142 -6 208v25
c-86 -17 -164 -68 -218 -113l220 -120h4z" />
    <glyph glyph-name="bnL_KA" horiz-adv-x="837" 
d="M-20 582v52h877v-52h-266v-246c141 0 210 -85 210 -172c0 -60 -27 -117 -85 -152l-40 41c47 30 69 67 69 111c0 71 -53 117 -154 117v-267l43 -23l-45 -40l-325 177v61c67 66 167 126 272 143v55c-8 27 -38 67 -94 67c-51 0 -87 -38 -87 -103v-40h-56v39
c0 66 -40 100 -96 100c-52 0 -97 -45 -97 -120c0 -79 47 -120 106 -132l-21 -50c-86 19 -143 87 -143 182c0 106 71 174 154 174c77 0 109 -37 123 -71h4c12 38 41 75 108 75c51 0 82 -25 95 -40h4v114h-556zM542 43c-5 78 -6 142 -6 208v25c-86 -17 -164 -68 -218 -113
l220 -120h4z" />
    <glyph glyph-name="bnSS_KA" horiz-adv-x="616" 
d="M636 582h-213c33 -31 54 -75 54 -133c0 -55 -19 -100 -51 -131c103 -20 153 -93 153 -167c0 -60 -27 -117 -85 -152l-40 41c47 30 69 67 69 111c0 71 -53 117 -154 117v-267l43 -23l-45 -40l-325 177v61c41 41 95 79 154 106c-61 27 -102 85 -102 167c0 58 20 103 52 133
h-166v52h656v-52zM284 582c-33 0 -62 -11 -84 -28l205 -170c10 19 16 41 16 65c0 70 -54 133 -137 133zM316 30h4c-5 78 -6 142 -6 208v25c-86 -17 -164 -68 -218 -113zM284 316c34 0 63 10 86 27l-204 170c-10 -20 -16 -41 -16 -64c0 -77 55 -133 134 -133z" />
    <glyph glyph-name="bnS_KA" horiz-adv-x="658" 
d="M64 479c22 -30 49 -61 90 -61c69 0 88 98 93 164h-267v52h698v-52h-115c4 -19 6 -38 6 -58c0 -82 -38 -147 -118 -158c110 -17 164 -92 164 -169c0 -60 -27 -117 -85 -152l-40 41c47 30 69 67 69 111c0 71 -53 117 -154 117v-267l43 -23l-45 -40l-325 177v61
c75 74 191 140 309 147c-59 14 -95 61 -109 104c-19 -64 -58 -108 -124 -108c-59 0 -104 38 -131 80zM513 524c0 21 -2 40 -6 58h-200c2 -87 40 -165 120 -165c63 0 86 47 86 107zM356 76c-5 78 -6 142 -6 208v25c-86 -17 -164 -68 -218 -113l220 -120h4z" />
    <glyph glyph-name="bnNG_KHA" horiz-adv-x="720" 
d="M231 521v-27c18 -6 38 -10 58 -10c45 0 64 28 64 56c0 29 -20 59 -62 59c-41 0 -60 -32 -60 -78zM196 -148v67c134 8 243 46 243 143c0 30 -11 56 -27 72c-26 -81 -67 -140 -152 -140c-80 0 -117 52 -117 109c0 12 2 26 5 38h57c-3 -12 -6 -24 -6 -37
c0 -33 21 -57 62 -57c56 0 83 48 111 129c-24 -9 -53 -14 -85 -14c-140 0 -240 97 -258 246l53 17c14 -127 87 -210 206 -210c96 0 144 57 144 117c0 20 -4 32 -8 39c-42 -30 -84 -49 -139 -49c-70 0 -110 39 -110 102v39c-50 29 -89 74 -114 119h-81v52h121
c18 -43 43 -81 75 -108c5 67 31 125 112 125c78 0 119 -54 119 -112c0 -57 -41 -108 -119 -108c-20 0 -39 3 -57 8v-15c0 -38 21 -49 54 -49c50 0 94 25 153 70c25 -20 48 -65 48 -114c0 -51 -23 -99 -66 -130c45 -34 75 -85 75 -139c0 -105 -82 -166 -208 -180v-4l274 -90
h4c-5 78 -6 147 -6 213v731h56v-98h125v-52h-125v-811l43 -15l-41 -44z" />
    <glyph glyph-name="bnS_KHA" horiz-adv-x="778" 
d="M241 103c147 3 258 41 258 137c0 28 -14 49 -29 64c-26 -59 -76 -107 -141 -107c-68 0 -114 37 -114 105c0 18 3 36 7 51h57c-5 -15 -8 -32 -8 -50c0 -30 17 -54 58 -54c47 0 80 35 114 118c-11 -2 -23 -3 -36 -3c-87 0 -129 61 -147 114c-21 -68 -60 -113 -127 -113
c-59 0 -106 38 -133 80l41 34c22 -30 51 -62 92 -62c68 0 89 99 95 165h-248v52h552c16 -47 19 -90 19 -110c0 -69 -26 -124 -80 -148c41 -31 84 -76 84 -136c0 -109 -87 -161 -208 -175v-4l272 -103h4c-5 78 -6 147 -6 213v561h56v-98h125v-52h-125v-644l41 -15l-40 -43
l-433 165v58zM495 522c0 23 -2 42 -6 60h-196c0 -97 36 -166 115 -166c60 0 87 48 87 106z" />
    <glyph glyph-name="bnG_GA" horiz-adv-x="638" 
d="M473 250h4v126c0 108 -71 209 -197 209c-90 0 -150 -56 -173 -108c26 14 61 21 93 21c83 0 147 -49 147 -136c0 -8 -1 -17 -2 -26c71 -16 109 -57 128 -86zM533 -130h-56v210c0 109 -68 210 -194 210c-91 0 -149 -52 -176 -109c26 14 67 21 97 21c79 0 141 -46 141 -133
c0 -81 -53 -148 -123 -193l-44 35c63 43 111 94 111 159c0 60 -43 80 -94 80c-38 0 -78 -11 -110 -28l-43 41c26 107 129 180 240 180h5c1 6 2 12 2 19c0 60 -43 82 -94 82c-38 0 -78 -11 -110 -28l-43 43c31 108 126 180 237 180c136 0 189 -78 207 -114h4s-13 67 -13 156
v51h56v-98h125v-52h-125v-712z" />
    <glyph glyph-name="bnNG_GA" horiz-adv-x="691" 
d="M711 634v-52h-100c5 -15 7 -37 7 -54c0 -68 -40 -122 -117 -122s-147 54 -147 176h-374v52h731zM376 290v-17c69 34 139 68 208 101l44 -37c-32 -63 -51 -144 -51 -222v-161h-56v160c0 68 13 132 34 184l-189 -93c-19 -78 -67 -143 -156 -143c-81 0 -132 57 -147 95
l42 33c15 -35 49 -75 106 -75c74 0 109 77 109 175c0 79 -20 169 -104 169c-53 0 -86 -31 -86 -86c0 -25 10 -49 31 -68l-44 -30c-28 25 -43 61 -43 100c0 76 48 136 141 136c112 0 161 -100 161 -221zM412 582c0 -68 27 -125 88 -125c54 0 65 43 65 78c0 23 -3 37 -7 47
h-146z" />
    <glyph glyph-name="bnDD_GA" horiz-adv-x="1106" 
d="M745 581c-94 0 -151 -64 -173 -110c26 14 70 22 100 22c79 0 143 -50 143 -137c0 -82 -59 -156 -136 -205l-45 39c73 44 123 103 123 167c0 60 -43 84 -94 84c-38 0 -78 -11 -107 -26c15 -27 27 -61 27 -100c0 -144 -96 -229 -247 -229c-196 0 -300 163 -311 350l54 11
c9 -185 106 -307 258 -307c113 0 190 67 190 175c0 28 -4 53 -18 73c-52 -45 -114 -66 -167 -66c-67 0 -108 49 -108 111v149h-254v52h764c138 0 197 -89 210 -120h4s-13 67 -13 156v62h56v-98h124v-52h-124v-582h-56v371c0 103 -74 210 -200 210zM456 582h-166v-146
c0 -36 14 -60 53 -60c32 0 98 15 169 84c14 49 46 93 88 125l-3 3s-49 -6 -141 -6z" />
    <glyph glyph-name="bnD_GA" horiz-adv-x="988" 
d="M147 582v-321c49 65 165 178 252 216c16 42 45 80 82 108l-2 3s-56 -6 -130 -6h-202zM627 581c-94 0 -151 -64 -173 -110c26 14 70 22 100 22c79 0 143 -50 143 -137c0 -82 -59 -156 -136 -205l-45 39c73 44 123 103 123 167c0 60 -43 84 -94 84c-32 0 -66 -8 -95 -21
c-17 -62 -26 -132 -26 -202v-218h-58v221c0 68 11 136 26 192c-95 -63 -173 -146 -242 -237l-59 28v378h-111v52h646c138 0 197 -89 210 -120h4s-13 67 -13 156v62h56v-98h126v-52h-126v-582h-56v371c0 103 -74 210 -200 210z" />
    <glyph glyph-name="bnDDx_GA" horiz-adv-x="1114" 
d="M291 -57c0 24 17 41 41 41s41 -17 41 -41s-17 -41 -41 -41s-41 17 -41 41zM464 582h-166v-146c0 -36 14 -60 53 -60c32 0 98 15 169 84c14 49 46 93 88 125l-3 3s-49 -6 -141 -6zM753 581c-94 0 -151 -64 -173 -110c26 14 70 22 100 22c79 0 143 -50 143 -137
c0 -82 -59 -156 -136 -205l-45 39c73 44 123 103 123 167c0 60 -43 84 -94 84c-38 0 -78 -11 -107 -26c15 -27 27 -61 27 -100c0 -144 -96 -229 -247 -229c-196 0 -300 163 -311 350l54 11c9 -185 106 -307 258 -307c113 0 190 67 190 175c0 28 -4 53 -18 73
c-52 -45 -114 -66 -167 -66c-67 0 -108 49 -108 111v149h-262v52h772c138 0 197 -89 210 -120h4s-13 67 -13 156v62h56v-98h125v-52h-125v-582h-56v371c0 103 -74 210 -200 210z" />
    <glyph glyph-name="bnL_GA" horiz-adv-x="706" 
d="M-20 582v52h746v-52h-125v-767h-56v163c0 103 -56 206 -188 206c-84 0 -143 -56 -165 -106c26 14 70 24 100 24c79 0 139 -44 140 -125c1 -66 -50 -130 -120 -172l-38 41c63 42 103 79 102 132c-1 57 -42 72 -93 72c-38 0 -78 -13 -110 -30l-43 41
c26 102 115 176 226 176c112 0 160 -55 185 -93h4v250c-8 27 -38 67 -94 67c-51 0 -87 -38 -87 -103v-26h-56v25c0 59 -36 100 -97 100c-52 0 -99 -31 -99 -102c0 -49 23 -86 81 -109l-25 -44c-64 17 -114 79 -114 153c0 100 73 156 156 156c72 0 107 -35 125 -74h4
c8 37 38 78 107 78c51 0 82 -25 95 -40h4v107h-565z" />
    <glyph glyph-name="bnNG_GHA" horiz-adv-x="1152" 
d="M299 479v-32c24 -12 50 -19 79 -19c58 0 88 29 88 78c0 39 -23 81 -85 81c-54 0 -82 -40 -82 -108zM1052 -12l-443 222c-12 -109 -103 -182 -242 -182c-197 0 -314 161 -327 337l55 14c16 -186 131 -295 273 -295c123 0 186 70 186 150c0 28 -5 52 -17 71
c-62 -47 -113 -72 -171 -72c-78 0 -120 47 -120 116v69c-62 42 -106 109 -127 164h-139v52h179c12 -44 41 -105 88 -150c2 104 55 155 134 155c13 0 26 -2 38 -5h753v-52h-125v-530l40 -21zM545 384c25 -20 54 -60 63 -116l60 37c53 33 78 42 88 47v4
c-106 6 -156 63 -156 134c0 34 12 68 32 92h-137c17 -22 26 -49 26 -77c0 -84 -62 -129 -144 -129c-28 0 -54 5 -78 14v-38c0 -43 19 -65 64 -65c59 0 123 41 182 97zM993 79h4c-5 78 -6 153 -6 219v284h-292c-28 -24 -45 -57 -45 -92c0 -58 46 -91 117 -91
c45 0 74 12 110 33l26 -46l-238 -145z" />
    <glyph glyph-name="bnD_GHA" horiz-adv-x="990" 
d="M1010 582h-125v-530l40 -21l-35 -43l-447 224v54l61 38c53 33 78 42 88 47v4c-82 7 -129 40 -146 87c-24 -76 -35 -151 -35 -224v-141h-58v140c0 68 10 154 36 216c-83 -59 -173 -152 -240 -237l-59 38v348h-110v52h1030v-52zM146 283c56 68 166 175 251 214l42 -23
c-1 5 -1 11 -1 16c0 34 12 68 32 92h-324v-299zM831 79h4c-5 78 -6 153 -6 219v284h-290c-28 -23 -45 -58 -45 -92c0 -58 47 -91 115 -91c45 0 74 12 110 33l26 -46l-238 -145z" />
    <glyph glyph-name="bnL_GHA" horiz-adv-x="1025" 
d="M925 -12l-447 224v54l63 39c53 33 78 42 88 47v4c-52 3 -90 18 -116 41c-13 12 -33 24 -66 24c-53 0 -88 -38 -88 -103v-40h-56v39c0 63 -37 100 -97 100c-59 0 -98 -50 -98 -122c0 -90 54 -133 127 -133c20 0 41 4 60 12l9 -53c-22 -8 -45 -12 -67 -12
c-110 0 -187 73 -187 186c0 106 64 176 156 176c79 0 115 -52 124 -82h4c7 37 37 86 106 86c13 0 24 -2 34 -4c-1 6 -1 12 -1 19c0 34 12 68 32 92h-525v52h1065v-52h-125v-530l40 -21zM870 79c-5 78 -6 153 -6 219v284h-291c-28 -24 -44 -57 -44 -92c0 -58 44 -91 115 -91
c45 0 74 12 110 33l26 -46l-238 -145l324 -162h4z" />
    <glyph glyph-name="bnC_CA" horiz-adv-x="827" 
d="M641 402c85 -32 130 -79 130 -156c0 -122 -113 -246 -233 -246c-77 0 -126 45 -126 117v169c-23 -90 -103 -157 -196 -157c-77 0 -126 45 -126 117v336h-110v52h867v-52h-381v-33c0 -61 38 -95 82 -112zM468 433h-4c2 -12 4 -67 4 -164v-149c0 -41 21 -67 70 -67
c73 0 175 93 175 194c0 40 -16 75 -92 103l-74 27c-46 17 -70 43 -79 56zM144 517h-4c2 -12 6 -67 6 -164v-104c0 -41 21 -67 70 -67c73 0 148 68 148 160c0 40 -16 76 -92 103l-50 18c-46 16 -66 37 -78 54zM292 496c65 -24 105 -57 120 -105v191h-266
c13 -30 42 -48 80 -62z" />
    <glyph glyph-name="bnNY_CA" horiz-adv-x="745" 
d="M470 18l-44 -38l-346 168v69c83 62 182 125 268 168c-25 73 -75 143 -160 143c-64 0 -91 -36 -91 -78c0 -30 12 -50 27 -68l-48 -23c-21 22 -35 54 -35 91c0 74 54 132 146 132c87 0 153 -54 189 -135h4s-9 88 -9 173v14h56v-9c0 -56 -5 -107 -5 -107l4 -2
c27 44 69 71 131 71c80 0 133 -55 133 -130c0 -59 -29 -98 -71 -114v-4c42 -15 82 -53 82 -119c0 -79 -51 -141 -136 -141c-66 0 -110 30 -138 77v-115zM374 66h4c-5 78 -7 142 -7 208v62c-69 -38 -156 -92 -242 -152zM552 535c-67 0 -125 -65 -125 -194
c0 -117 45 -209 135 -209c61 0 86 43 86 88c0 52 -31 89 -97 89h-23v56h18c59 0 90 38 90 93c0 43 -30 77 -84 77z" />
    <glyph glyph-name="bnSH_CA" horiz-adv-x="923" 
d="M564 433h-4c2 -12 4 -67 4 -164v-149c0 -41 21 -67 70 -67c73 0 175 93 175 194c0 40 -16 75 -92 103l-74 27c-46 17 -70 43 -79 56zM737 402c85 -32 130 -79 130 -156c0 -122 -113 -246 -233 -246c-77 0 -126 45 -126 117v465h-121c-61 0 -127 -46 -127 -134
c0 -76 61 -120 132 -120c17 0 42 5 55 12v-56c-14 -4 -38 -7 -54 -7c-69 0 -130 33 -163 84c-28 -52 -83 -85 -156 -85c-16 0 -40 3 -54 7v54c13 -7 38 -9 55 -9c82 0 130 53 130 122c0 95 -61 132 -135 132h-90v52h88c73 0 133 -31 165 -83c34 50 90 83 151 83h559v-52
h-381v-33c0 -61 38 -95 82 -112z" />
    <glyph glyph-name="bnC_CHA" horiz-adv-x="914" 
d="M459 582c19 -39 92 -50 149 -77c21 6 46 9 64 9c100 0 181 -69 181 -170c0 -133 -100 -203 -288 -207v-4c23 -7 65 -23 140 -63l168 -90l-40 -43c-277 155 -336 183 -391 192v56h82c185 0 274 55 274 159c0 77 -64 118 -126 118h-7c11 -15 18 -33 18 -56
c0 -75 -62 -149 -153 -149c-59 0 -95 29 -108 72c-7 -112 -99 -200 -206 -200c-77 0 -126 45 -126 117v336h-110v52h954v-52h-475zM629 407c0 66 -103 57 -159 103v-143c0 -34 16 -58 59 -58c55 0 100 49 100 98zM144 517h-4c2 -12 6 -67 6 -164v-104c0 -41 21 -67 70 -67
c73 0 148 68 148 160c0 40 -16 76 -92 103l-47 16c-46 16 -69 37 -81 56zM292 497c67 -24 109 -59 124 -111v196h-269c14 -29 42 -47 79 -61z" />
    <glyph glyph-name="bnNY_CHA" horiz-adv-x="686" 
d="M580 -208l-36 -46c-236 104 -334 148 -427 153v55h110c106 0 196 22 196 93c0 25 -10 44 -26 62c-31 -28 -85 -59 -158 -59c-99 0 -178 51 -178 147c0 184 275 170 275 295c0 56 -46 90 -110 90c-61 0 -103 -32 -103 -91c0 -24 11 -50 30 -69l-46 -29
c-25 24 -40 61 -40 98c0 94 69 146 158 146c68 0 118 -29 144 -72c31 47 78 67 125 67c67 0 126 -37 126 -119c0 -33 -16 -70 -51 -88v-4c40 -16 59 -54 59 -95c0 -68 -44 -119 -128 -119c-93 0 -153 71 -166 174c-19 -16 -42 -29 -66 -41c63 -161 211 -170 211 -293
c0 -95 -86 -133 -192 -138v-4s49 -8 161 -56zM564 514c0 41 -27 63 -70 63c-61 0 -110 -57 -110 -156c0 -104 48 -160 117 -160c46 0 71 26 71 66c0 42 -22 66 -87 66h-18v55h18c58 0 79 28 79 66zM238 104c54 0 94 22 117 42c-45 36 -102 80 -136 170
c-55 -27 -102 -58 -102 -119c0 -60 49 -93 121 -93z" />
    <glyph glyph-name="bnSH_CHA" horiz-adv-x="996" 
d="M541 582c19 -39 90 -50 148 -77c21 6 44 9 65 9c100 0 181 -69 181 -170c0 -133 -96 -202 -288 -206v-4c23 -7 65 -24 140 -64l168 -90l-39 -44c-314 176 -355 190 -418 196v53h108c185 0 274 55 274 159c0 81 -64 118 -133 118c11 -15 18 -33 18 -56
c0 -75 -62 -149 -153 -149c-75 0 -114 48 -114 110v215h-111c-61 0 -127 -46 -127 -134c0 -76 61 -120 132 -120c17 0 42 5 55 12v-56c-14 -4 -38 -7 -54 -7c-69 0 -130 33 -163 84c-28 -52 -83 -85 -156 -85c-16 0 -40 3 -54 7v54c13 -7 38 -9 55 -9c82 0 130 53 130 122
c0 95 -61 132 -135 132h-89v52h87c73 0 133 -31 165 -83c34 50 90 83 151 83h632v-52h-475zM711 407c0 66 -103 57 -159 103v-143c0 -34 17 -58 61 -58c57 0 98 49 98 98z" />
    <glyph glyph-name="bnNY_JA" horiz-adv-x="741" 
d="M592 -106v186c0 52 8 96 20 132c-19 -11 -44 -18 -72 -18c-103 0 -154 80 -166 180c-43 -47 -96 -81 -96 -131c0 -33 26 -51 66 -56l111 -15c28 -23 43 -69 43 -106c0 -92 -54 -154 -166 -154c-167 0 -293 168 -293 364l55 13c0 -176 103 -323 238 -323
c74 0 110 44 110 98c0 25 -6 45 -17 58l-85 10c-64 8 -120 39 -120 111c0 107 151 156 151 248c0 58 -46 91 -110 91c-61 0 -103 -32 -103 -91c0 -24 11 -50 30 -69l-46 -29c-25 24 -40 61 -40 98c0 94 69 145 158 145c69 0 120 -28 146 -72c26 43 69 70 130 70
c74 0 121 -51 121 -114c0 -52 -26 -84 -60 -97v-4c33 -13 70 -47 70 -102c0 -23 -5 -44 -14 -62l26 -19c-18 -35 -32 -85 -32 -156v-186h-55zM603 515c0 40 -25 66 -72 66c-59 0 -110 -52 -110 -160c0 -102 40 -174 118 -174c49 0 75 29 75 72c0 45 -31 73 -85 73h-20v49h16
c49 0 78 25 78 74z" />
    <glyph glyph-name="bnJ_JA" horiz-adv-x="1099" 
d="M671 12c84 0 126 53 126 107c0 25 -7 48 -18 61l-97 6c-64 4 -112 35 -112 102c0 45 36 97 90 142c-95 1 -186 25 -225 103c-54 -26 -142 -89 -142 -140c0 -36 28 -47 60 -49l122 -9c28 -23 43 -70 43 -107c0 -38 -12 -72 -34 -99c43 -71 109 -117 187 -117zM-20 582v52
h1139v-52h-646c29 -89 111 -103 223 -103h51c27 -69 65 -148 227 -148h51l29 -38c-22 -39 -55 -103 -55 -201v-168h-55v170c0 113 45 188 45 188c-124 1 -208 23 -269 127c-51 -39 -92 -84 -92 -122c0 -34 28 -45 60 -47l122 -9c28 -23 43 -74 43 -111
c0 -92 -66 -162 -181 -162c-96 0 -179 53 -231 135c-29 -17 -64 -26 -104 -26c-171 0 -296 168 -296 364l55 13c0 -176 100 -323 240 -323c84 0 126 52 126 106c0 25 -7 44 -18 57l-97 6c-64 4 -112 35 -112 101c0 72 88 146 178 191h-433z" />
    <glyph glyph-name="bnN_JA" horiz-adv-x="852" 
d="M877 582h-467v-90c88 -63 215 -95 341 -95h37l29 -39c-30 -60 -51 -122 -51 -233v-182h-56v184c0 138 42 218 42 218c-118 0 -249 27 -342 85v-128c0 -43 28 -53 60 -56l105 -9c25 -25 43 -70 43 -107c0 -104 -63 -171 -197 -171c-143 0 -257 104 -294 250l50 26
c29 -130 123 -222 244 -222c99 0 141 51 141 116c0 22 -7 44 -18 57l-75 5c-57 4 -99 26 -113 70c-38 90 -84 183 -172 183c-57 0 -85 -36 -85 -78c0 -30 12 -50 27 -68l-48 -23c-21 22 -35 54 -35 91c0 74 51 132 141 132s142 -57 176 -126h4s-10 35 -10 182v28h-374v52
h897v-52z" />
    <glyph glyph-name="bnB_JA" horiz-adv-x="814" 
d="M834 582h-462v-90c88 -63 215 -95 341 -95h37l29 -39c-30 -60 -51 -122 -51 -233v-182h-56v184c0 138 42 218 42 218c-118 0 -249 27 -342 85v-128c0 -43 28 -53 60 -56l105 -9c25 -25 43 -70 43 -107c0 -104 -63 -171 -197 -171c-143 0 -257 104 -294 250l50 26
c29 -130 123 -222 244 -222c99 0 141 51 141 116c0 22 -7 44 -18 57l-75 5c-21 2 -41 6 -57 13l-311 133v68c46 40 147 107 253 144v33h-336v52h854v-52zM316 308v184c-67 -26 -154 -76 -204 -116l205 -89c-1 7 -1 14 -1 21z" />
    <glyph glyph-name="bnNY_JHA" horiz-adv-x="852" 
d="M655 -40h4c-5 78 -5 147 -5 213v2h-11c-74 0 -127 53 -139 75c0 0 4 -39 4 -94v-118zM382 634c70 0 107 -40 117 -85c13 31 62 87 142 87c76 0 130 -50 130 -120c0 -51 -28 -86 -66 -103v-4c35 -12 77 -44 77 -106c0 -52 -27 -94 -73 -115v-263l-53 -29l-148 78v-137
l42 -22l-45 -40l-324 176v62c55 44 152 98 232 131c-30 19 -79 31 -147 40c-151 20 -228 65 -228 160c0 37 12 75 33 106l49 -23c-18 -26 -26 -55 -26 -83c0 -64 65 -88 173 -103c126 -17 168 -42 194 -75h4c-2 19 -13 70 -13 205v126c0 54 -18 83 -71 83
c-91 0 -154 -73 -154 -152c0 -43 26 -67 70 -67c35 0 61 15 72 24l25 -48c-24 -19 -61 -30 -97 -30c-78 0 -128 50 -128 121c0 105 87 206 213 206zM635 582c-57 0 -129 -52 -129 -171c0 -107 50 -182 137 -182c55 0 82 36 82 74c0 49 -33 79 -94 79h-21v52h17
c54 0 87 33 87 82c0 38 -26 66 -79 66zM455 -134h4c-5 78 -6 99 -6 186v22c0 9 -1 17 -3 25c-75 -30 -160 -79 -213 -114z" />
    <glyph glyph-name="bnJ_JHA" horiz-adv-x="969" 
d="M814 -52c-5 78 -5 147 -5 213v421h-360c10 -77 65 -175 210 -175h17l29 -38c-22 -39 -47 -103 -47 -201v-137l152 -83h4zM658 -178l42 -22l-45 -40l-324 176v62c65 51 186 116 272 146v26c0 113 37 188 37 188c-120 1 -220 87 -234 178c-42 -22 -125 -64 -125 -117
c0 -31 28 -44 75 -47l105 -8c28 -23 45 -67 45 -104c0 -92 -66 -160 -181 -160c-171 0 -294 166 -296 360l55 13c0 -176 100 -319 240 -319c84 0 126 48 126 102c0 25 -7 44 -18 57l-89 7c-64 5 -118 31 -118 99c0 78 85 130 157 163h-402v52h1009v-52h-125v-667l-55 -30
l-151 83v-146zM609 -149c-5 78 -6 99 -6 186v48c-76 -30 -162 -79 -216 -115l218 -119h4z" />
    <glyph glyph-name="bnC_NYA" horiz-adv-x="1048" 
d="M-20 582v52h1088v-52h-921c14 -29 42 -47 79 -61l66 -24c62 -23 103 -54 120 -100c41 45 101 76 171 76s107 -40 117 -85c13 31 62 87 142 87c76 0 130 -50 130 -120c0 -53 -32 -88 -70 -103v-4c36 -11 81 -44 81 -106c0 -74 -55 -128 -139 -128c-74 0 -126 54 -138 76
c0 0 3 -40 3 -95v-96h-52c0 76 -62 102 -190 117c-149 18 -206 63 -232 114c-6 -1 -13 -1 -19 -1c-77 0 -126 45 -126 117v336h-110zM144 517h-4c2 -12 6 -67 6 -164v-104c0 -41 21 -67 70 -67c73 0 148 68 148 160c0 40 -16 76 -92 103l-47 16c-46 16 -69 37 -81 56z
M666 -2c-2 19 -13 70 -13 205v133c0 54 -18 83 -71 83c-91 0 -164 -73 -164 -152c0 -43 26 -67 70 -67c35 0 61 15 72 24l25 -48c-24 -19 -61 -30 -97 -30c-53 0 -93 23 -114 61c-21 -27 -49 -48 -80 -62c19 -33 61 -62 174 -77c125 -16 174 -39 194 -70h4zM915 355
c0 38 -26 67 -79 67c-57 0 -129 -53 -129 -172c0 -107 50 -183 137 -183c55 0 82 37 82 75c0 49 -33 79 -94 79h-21v52h17c54 0 87 33 87 82z" />
    <glyph glyph-name="bnK_TTA" horiz-adv-x="636" 
d="M55 911l53 13c-1 -11 -3 -23 -3 -34c0 -37 15 -73 96 -73h184c96 0 165 -44 165 -131c0 -14 -2 -34 -6 -52h112v-52h-284v-35c135 -4 217 -69 217 -164c0 -77 -38 -128 -92 -158l-41 42c43 19 77 58 77 116c0 74 -60 111 -161 114v-284c-84 -21 -206 -64 -206 -176
c0 -77 70 -117 156 -117c99 0 146 47 146 101c0 43 -30 70 -69 70c-22 0 -46 -9 -61 -23l-34 46c20 17 53 31 93 31c66 0 127 -46 127 -125c0 -94 -80 -154 -202 -154s-212 64 -212 170c0 111 79 169 153 197l-218 119v59c70 69 163 122 272 134v37h-337v52h508
c4 16 6 38 6 49c0 57 -35 82 -116 82h-182c-113 0 -143 57 -143 116c0 10 0 20 2 30zM319 266h4c-5 78 -6 142 -6 208v19c-85 -13 -167 -60 -216 -109z" />
    <glyph glyph-name="bnTT_TTA" horiz-adv-x="635" 
d="M44 911l53 13c-1 -11 -3 -23 -3 -34c0 -37 15 -73 96 -73h184c96 0 165 -44 165 -131c0 -14 -2 -34 -6 -52h122v-52h-434v-337c0 -56 34 -87 93 -87c95 0 166 78 166 179c0 49 -22 89 -78 89c-29 0 -54 -16 -69 -37l-36 45c19 23 52 46 103 46c84 0 138 -61 138 -142
c0 -36 -6 -69 -19 -99c32 -31 50 -73 50 -131c0 -128 -91 -211 -226 -211c-153 0 -274 118 -322 282l47 30c41 -145 139 -259 275 -259c106 0 170 65 170 159c0 37 -8 61 -22 80c-39 -52 -101 -84 -177 -84c-85 0 -149 48 -149 136v341h-185v52h497c4 16 6 38 6 49
c0 57 -35 82 -116 82h-182c-113 0 -143 57 -143 116c0 10 0 20 2 30z" />
    <glyph glyph-name="bnNN_TTA" horiz-adv-x="850" 
d="M281 911l53 13c-1 -11 -3 -23 -3 -34c0 -37 15 -73 96 -73h184c96 0 165 -44 165 -131c0 -14 -2 -34 -6 -52h100v-52h-402v-387c0 -50 27 -87 86 -87c95 0 173 85 173 187c0 55 -22 101 -78 101c-29 0 -54 -16 -69 -37l-36 45c19 23 52 46 103 46c84 0 138 -67 138 -155
c0 -121 -96 -240 -231 -240c-83 0 -142 53 -142 136v139c0 154 -53 252 -168 252c-95 0 -144 -63 -144 -144c0 -84 56 -127 126 -127c31 0 60 10 77 23l19 -50c-22 -15 -60 -25 -97 -25c-108 0 -182 76 -182 180c0 111 73 195 201 195c83 0 140 -41 164 -86h4v86h302
c4 16 6 38 6 49c0 57 -35 82 -116 82h-182c-113 0 -143 57 -143 116c0 10 0 20 2 30z" />
    <glyph glyph-name="bnN_TTA" horiz-adv-x="804" 
d="M235 911l53 13c-1 -11 -3 -23 -3 -34c0 -37 15 -73 96 -73h184c96 0 165 -44 165 -131c0 -14 -2 -34 -6 -52h100v-52h-402v-389c0 -50 27 -87 86 -87c95 0 173 85 173 187c0 55 -22 101 -78 101c-29 0 -54 -16 -69 -37l-36 45c19 23 52 46 103 46c84 0 138 -67 138 -155
c0 -121 -96 -240 -231 -240c-83 0 -142 53 -142 136v5c-8 100 -60 234 -183 234c-64 0 -91 -36 -91 -78c0 -30 12 -50 27 -68l-48 -23c-21 22 -35 54 -35 91c0 74 54 132 146 132c87 0 151 -45 190 -126h4s-10 67 -10 214v12h-386v52h688c4 16 6 38 6 49
c0 57 -35 82 -116 82h-182c-113 0 -143 57 -143 116c0 10 0 20 2 30z" />
    <glyph glyph-name="bnL_TTA" horiz-adv-x="986" 
d="M417 911l53 13c-1 -11 -3 -23 -3 -34c0 -37 15 -73 96 -73h184c96 0 165 -44 165 -131c0 -14 -2 -34 -6 -52h100v-52h-402v-387c0 -50 27 -87 86 -87c95 0 173 85 173 187c0 55 -22 101 -78 101c-29 0 -54 -16 -69 -37l-36 45c19 23 52 46 103 46c84 0 138 -67 138 -155
c0 -121 -96 -240 -231 -240c-83 0 -142 53 -142 136v163c-8 27 -38 67 -94 67c-51 0 -87 -38 -87 -103v-40h-56v39c0 66 -40 100 -96 100c-52 0 -97 -42 -97 -117c0 -90 59 -138 132 -138c26 0 53 6 77 20l15 -51c-29 -15 -60 -22 -90 -22c-105 0 -192 78 -192 191
c0 106 71 171 154 171c77 0 109 -37 123 -71h4c12 38 41 75 108 75c51 0 82 -25 95 -40h4v147h-568v52h870c4 16 6 38 6 49c0 57 -35 82 -116 82h-182c-113 0 -143 57 -143 116c0 10 0 20 2 30z" />
    <glyph glyph-name="bnSS_TTA" horiz-adv-x="549" 
d="M12 911l53 13c-1 -11 -3 -23 -3 -34c0 -37 15 -73 96 -73h154c96 0 165 -44 165 -131c0 -14 -2 -34 -6 -52h98v-52h-156c32 -31 52 -74 52 -129c0 -71 -31 -123 -81 -152h2c-81 -49 -259 -60 -259 -194c0 -81 70 -120 156 -120c99 0 146 50 146 104c0 43 -30 70 -69 70
c-22 0 -46 -9 -61 -23l-34 46c20 17 53 31 93 31c66 0 127 -46 127 -125c0 -94 -80 -158 -202 -158s-212 65 -212 173c0 97 67 150 136 177c-73 21 -124 80 -124 171c0 55 19 99 51 129h-154v52h435c4 16 6 38 6 49c0 57 -35 82 -116 82h-152c-113 0 -143 57 -143 116
c0 10 0 20 2 30zM273 324c33 0 61 8 84 24l-203 168c-10 -19 -15 -41 -15 -63c0 -77 54 -129 134 -129zM273 585c-34 0 -63 -11 -85 -28l205 -170c10 19 16 41 16 66c0 70 -54 132 -136 132z" />
    <glyph glyph-name="bnP_TTA" horiz-adv-x="912" 
d="M344 911l53 13c-1 -11 -3 -23 -3 -34c0 -37 15 -73 96 -73h184c96 0 165 -44 165 -131c0 -14 -2 -34 -6 -52h99v-52h-401v-403c0 -50 27 -87 86 -87c95 0 173 85 173 187c0 55 -22 101 -78 101c-29 0 -54 -16 -69 -37l-36 45c19 23 52 46 103 46c84 0 138 -67 138 -155
c0 -121 -96 -240 -231 -240c-83 0 -142 53 -142 136v152c0 28 -3 55 -9 81l-303 -209l-29 45l101 70c-12 69 -51 114 -118 126c-16 4 -30 4 -60 4l-36 49c37 63 120 141 247 141s184 -65 214 -126h4s-12 52 -12 107v19h303c4 16 6 38 6 49c0 57 -35 82 -116 82h-182
c-113 0 -143 57 -143 116c0 10 0 20 2 30zM96 495c89 -1 163 -49 184 -151l169 117c-32 72 -93 120 -180 120c-92 0 -153 -56 -173 -86z" />
    <glyph glyph-name="bnPH_TTA" horiz-adv-x="777" 
d="M288 924c-1 -11 -3 -23 -3 -34c0 -37 15 -73 96 -73h184c96 0 165 -44 165 -131c0 -14 -2 -34 -6 -52h73v-52h-668v-4l129 -121v-52l-149 -97l258 -136h4c-5 78 -6 131 -6 197v132c34 14 70 20 109 20c105 0 195 -51 195 -158c0 -87 -60 -137 -121 -160l-31 46
c58 22 96 58 96 113c0 65 -57 104 -126 104c-28 0 -46 -2 -66 -7v-492c0 -50 27 -87 86 -87c95 0 173 68 173 160c0 50 -29 88 -78 88c-29 0 -54 -16 -69 -37l-36 45c19 23 52 46 103 46c80 0 138 -57 138 -142c0 -112 -96 -213 -231 -213c-83 0 -142 53 -142 136v148
l-315 167v57l155 100l-141 132v15h-84v52h688c4 16 6 38 6 49c0 57 -35 82 -116 82h-182c-113 0 -143 57 -143 116c0 10 0 20 2 30z" />
    <glyph glyph-name="bnS_TTA" horiz-adv-x="628" 
d="M112 924c-1 -11 -3 -23 -3 -34c0 -37 15 -73 96 -73h184c96 0 165 -44 165 -131c0 -14 -2 -34 -6 -52h100v-52h-86c4 -19 6 -38 6 -58c0 -71 -29 -129 -88 -151c-110 -46 -279 -65 -279 -205c0 -77 70 -121 156 -121c99 0 146 47 146 101c0 43 -30 70 -69 70
c-22 0 -46 -9 -61 -23l-34 46c20 17 53 31 93 31c66 0 130 -46 130 -125c0 -94 -83 -157 -205 -157s-216 70 -216 176c0 132 113 190 206 218c-36 22 -59 56 -70 89c-19 -64 -58 -108 -124 -108c-59 0 -104 38 -131 80l41 34c22 -30 49 -61 90 -61c69 0 88 98 93 164h-266
v52h512c4 16 6 38 6 49c0 57 -35 82 -116 82h-182c-113 0 -143 57 -143 116c0 10 0 20 2 30zM512 524c0 21 -2 40 -6 58h-200c2 -87 40 -165 120 -165c63 0 86 47 86 107z" />
    <glyph glyph-name="bnNN_TTHA" horiz-adv-x="774" 
d="M726 213c0 -105 -74 -200 -205 -200c-134 0 -217 93 -217 237c27 7 50 15 70 24c0 110 -6 308 -164 308c-81 0 -122 -58 -122 -128c0 -66 42 -113 113 -113c31 0 56 7 77 20l20 -49c-23 -14 -58 -24 -97 -24c-101 0 -170 62 -170 166c0 97 58 180 179 180
c135 0 218 -110 218 -305v-20c29 29 41 69 41 129v94c-131 150 -140 206 -140 249c0 83 65 141 142 141c6 0 13 0 20 -1l12 -51c-4 1 -10 1 -14 1c-62 0 -104 -37 -104 -94c0 -43 28 -92 73 -143h336v-52h-298c148 -155 230 -259 230 -369zM522 427
c0 -159 -106 -196 -159 -211c3 -74 54 -149 160 -149c94 0 146 69 146 145c0 98 -77 188 -148 263c1 -11 1 -38 1 -48z" />
    <glyph glyph-name="bnN_TTHA" horiz-adv-x="689" 
d="M641 213c0 -105 -74 -200 -205 -200c-127 0 -224 91 -225 236c67 18 113 37 140 71c-45 79 -103 127 -174 127c-60 0 -88 -36 -88 -78c0 -29 9 -49 26 -68l-50 -22c-20 23 -32 53 -32 90c0 74 51 132 143 132c91 0 157 -56 201 -126c5 18 7 39 7 63v94l-43 50h-361v52
h322c-55 77 -58 115 -58 147c0 91 70 143 162 143l12 -54c-60 0 -118 -28 -118 -93c0 -35 19 -77 73 -143h336v-52h-292c141 -161 224 -259 224 -369zM435 429c0 -159 -104 -198 -157 -213c3 -74 60 -149 160 -149c94 0 146 69 146 145c0 98 -79 190 -150 265
c1 -11 1 -38 1 -48z" />
    <glyph glyph-name="bnSS_TTHA" horiz-adv-x="665" 
d="M37 456c0 -97 59 -161 140 -179c11 -163 111 -241 227 -241c131 0 205 95 205 200c0 110 -79 191 -227 346h303v52h-341c-45 51 -73 100 -73 143c0 62 49 99 118 93l-12 54c-92 3 -159 -55 -159 -144c0 -43 13 -94 60 -146h-298v-52h102c-28 -29 -45 -71 -45 -126z
M238 269c51 8 175 41 166 212c71 -78 148 -148 148 -246c0 -76 -52 -145 -146 -145c-100 0 -160 74 -168 179zM355 456c0 -24 -6 -47 -16 -66l-201 167c22 19 51 30 85 30c77 0 132 -60 132 -131zM93 456c0 21 4 41 12 58l199 -165c-22 -16 -50 -26 -81 -26
c-77 0 -130 55 -130 133z" />
    <glyph glyph-name="bnDD_DDA" horiz-adv-x="1117" 
d="M1137 582h-368v-166c0 -36 14 -60 56 -60c29 0 95 15 169 87c27 -19 68 -74 68 -147c0 -140 -96 -230 -247 -230c-120 0 -206 60 -256 150c-41 -63 -115 -100 -212 -100c-196 0 -300 163 -311 350l54 11c9 -185 106 -307 258 -307c113 0 190 67 190 175
c0 28 -4 53 -18 73c-52 -45 -114 -66 -167 -66c-67 0 -108 47 -108 111v119h-265v52h1157v-52zM816 120c113 0 190 67 190 175c0 28 -4 53 -18 73c-52 -45 -114 -66 -162 -66c-72 0 -113 47 -113 111v169h-412v-116c0 -36 14 -60 53 -60c32 0 98 15 172 87
c27 -19 68 -75 68 -148c0 -22 -2 -42 -7 -61c41 -102 121 -164 229 -164z" />
    <glyph glyph-name="bnNN_DDA" horiz-adv-x="740" 
d="M72 461c0 105 66 173 180 173c95 0 142 -48 166 -117c30 42 64 106 71 117h41c63 -39 116 -97 116 -176c0 -58 -20 -104 -57 -143c41 -29 71 -78 71 -144c0 -121 -101 -198 -240 -198c-169 0 -297 111 -378 274l46 33c84 -171 192 -253 333 -253c113 0 181 64 181 145
c0 47 -21 84 -53 107c-22 -17 -48 -32 -77 -47l-39 43c102 52 157 100 157 182c0 49 -33 89 -69 115c-15 -28 -50 -89 -81 -128h-52c-17 86 -59 138 -136 138c-81 0 -123 -47 -123 -122s47 -119 117 -119c35 0 62 10 80 22l19 -48c-22 -15 -63 -26 -100 -26
c-108 0 -173 78 -173 172z" />
    <glyph glyph-name="bnN_DDA" horiz-adv-x="748" 
d="M-20 582v52h788v-52h-362v-226c0 -36 14 -60 53 -60c32 0 98 15 172 87c27 -19 68 -75 68 -148c0 -144 -96 -229 -247 -229c-159 0 -251 106 -293 234l47 35c35 -125 119 -215 247 -215c113 0 190 67 190 175c0 28 -4 53 -18 73c-52 -45 -114 -66 -167 -66
c-47 0 -82 25 -98 61c-36 83 -96 155 -183 155c-64 0 -91 -36 -91 -78c0 -30 12 -50 27 -68l-48 -23c-21 22 -35 54 -35 91c0 74 54 132 146 132c83 0 140 -43 180 -100h4s-9 43 -10 170h-370z" />
    <glyph glyph-name="bnB_DDA" horiz-adv-x="689" 
d="M709 582h-359v-255c0 -36 14 -60 53 -60c32 0 98 15 172 87c27 -19 68 -75 68 -148c0 -144 -96 -229 -247 -229s-251 100 -291 230l48 36c33 -131 120 -212 244 -212c113 0 190 67 190 175c0 28 -4 53 -18 73c-52 -45 -114 -66 -167 -66c-17 0 -33 3 -46 9l-304 127v67
c65 58 172 119 242 146v20h-313v52h728v-52zM294 324v178c-61 -27 -135 -73 -189 -116l190 -79c-1 5 -1 11 -1 17z" />
    <glyph glyph-name="bnL_DDA" horiz-adv-x="942" 
d="M962 582h-360v-216c0 -36 14 -60 53 -60c32 0 98 15 172 87c27 -19 68 -75 68 -148c0 -144 -96 -229 -247 -229c-128 0 -221 68 -270 170l46 39c42 -97 120 -155 225 -155c113 0 190 67 190 175c0 28 -4 53 -18 73c-52 -45 -114 -66 -164 -66c-70 0 -111 49 -111 111v15
c-8 27 -38 67 -94 67c-51 0 -87 -38 -87 -103v-40h-56v39c0 66 -40 100 -96 100c-52 0 -97 -42 -97 -117c0 -90 59 -138 132 -138c26 0 53 6 77 20l15 -51c-29 -15 -60 -22 -90 -22c-105 0 -192 78 -192 191c0 106 71 171 154 171c77 0 109 -37 123 -71h4
c12 38 41 75 108 75c51 0 82 -25 95 -40h4v123h-566v52h982v-52z" />
    <glyph glyph-name="bnNN_DDHA" horiz-adv-x="850" 
d="M468 582v-387c0 -50 27 -87 86 -87c95 0 173 85 173 187c0 55 -22 101 -78 101c-29 0 -54 -16 -69 -37l-36 45c19 23 52 46 103 46c84 0 138 -67 138 -155c0 -121 -96 -240 -231 -240c-83 0 -142 53 -142 136v139c0 154 -53 252 -168 252c-95 0 -144 -63 -144 -144
c0 -84 56 -127 126 -127c31 0 60 10 77 23l19 -50c-22 -15 -60 -25 -97 -25c-108 0 -182 76 -182 180c0 111 73 195 201 195c83 0 140 -41 164 -86h4v86h458v-52h-402z" />
    <glyph glyph-name="bnN_DDHA" horiz-adv-x="804" 
d="M-20 582v52h844v-52h-402v-389c0 -50 27 -87 86 -87c95 0 173 85 173 187c0 55 -22 101 -78 101c-29 0 -54 -16 -69 -37l-36 45c19 23 52 46 103 46c84 0 138 -67 138 -155c0 -121 -96 -240 -231 -240c-83 0 -142 53 -142 136v5c-8 100 -60 234 -183 234
c-64 0 -91 -36 -91 -78c0 -30 12 -50 27 -68l-48 -23c-21 22 -35 54 -35 91c0 74 54 132 146 132c87 0 151 -45 190 -126h4s-10 67 -10 214v12h-386z" />
    <glyph glyph-name="bnB_DDHA" horiz-adv-x="783" 
d="M803 582h-402v-387c0 -50 31 -87 95 -87c95 0 164 85 164 187c0 55 -24 101 -87 101c-26 0 -52 -8 -65 -17l-19 49c18 12 53 22 84 22c90 0 145 -67 145 -155c0 -121 -87 -240 -222 -240c-68 0 -123 33 -143 87l-314 161v70c112 91 242 150 306 172v37h-365v52h823v-52z
M345 210v276c-54 -22 -164 -73 -259 -147z" />
    <glyph glyph-name="bnNN_NNA" horiz-adv-x="604" 
d="M443 353c0 127 -56 239 -178 239c-95 0 -144 -63 -144 -144c0 -68 37 -110 88 -124c17 4 36 6 56 6c112 0 160 -71 181 -113h4c-1 18 -7 67 -7 136zM499 -50h-56v76c0 154 -63 252 -178 252c-95 0 -144 -63 -144 -144c0 -84 56 -127 126 -127c31 0 60 10 77 23l19 -50
c-22 -15 -60 -25 -97 -25c-108 0 -182 76 -182 180c0 69 28 128 81 162c-51 30 -81 85 -81 152c0 111 73 195 201 195c112 0 160 -71 181 -113h4c-1 18 -7 67 -7 150v51h56v-98h125v-52h-125v-632z" />
    <glyph glyph-name="bnH_NNA" horiz-adv-x="487" 
d="M68 221h64c168 0 229 64 229 147c0 66 -49 111 -125 111c-67 0 -114 -38 -114 -97c0 -29 15 -59 44 -76l-43 -32c-36 24 -57 66 -57 110c0 85 70 148 169 148c107 0 182 -68 182 -168c0 -111 -81 -171 -199 -182v-4c27 -8 68 -22 134 -54l141 -69l-36 -42
c-16 8 -31 16 -45 23v-295h-56v38c0 137 -55 228 -161 228c-69 0 -108 -43 -108 -107c0 -61 43 -97 104 -97c28 0 51 5 70 14l16 -48c-24 -12 -50 -18 -86 -18c-88 0 -160 53 -160 149c0 88 56 159 164 159c93 0 145 -57 164 -95h4c-1 14 -6 48 -7 100
c-180 90 -220 96 -288 106v51zM507 582h-527v52h527v-52z" />
    <glyph glyph-name="bnSS_NNA" horiz-adv-x="775" 
d="M116 582v-4l63 -58l212 -192v254h-275zM483 24l-42 -38l-382 246v59l155 130l-161 146v15h-73v52h465v-66c28 40 71 65 130 65c80 0 133 -55 133 -130c0 -59 -29 -98 -71 -114v-4c42 -15 82 -53 82 -119c0 -79 -51 -141 -142 -141c-60 0 -103 28 -132 72v-149zM654 504
c0 43 -27 77 -82 77c-66 0 -127 -65 -127 -194c0 -117 45 -209 135 -209c60 0 86 43 86 88c0 52 -31 89 -97 89h-23v56h18c59 0 90 38 90 93zM397 82c-4 70 -6 121 -6 178l-137 124l-144 -121l283 -181h4z" />
    <glyph glyph-name="bnK_SS_NNA" horiz-adv-x="845" 
d="M540 106c-3 61 -5 142 -5 203v44h-84c-76 0 -140 55 -140 147v82h-210c28 -38 45 -86 45 -136c86 -5 166 -74 166 -180c0 -12 0 -23 -1 -32c106 -6 202 -82 229 -128zM452 406h83v176h-168v-82c0 -59 28 -94 85 -94zM865 582h-274v-176h50c97 0 165 -54 165 -142
c0 -77 -36 -126 -90 -156l-41 42c43 19 75 56 75 114c0 62 -47 89 -109 89h-50v-615h-56v55c0 154 -55 252 -170 252c-81 0 -126 -46 -126 -122c0 -64 40 -109 116 -109c51 0 80 29 99 52l25 -49c-21 -25 -60 -57 -124 -57c-98 0 -173 60 -173 164c0 95 61 173 183 173
c105 0 152 -61 173 -103h4c0 4 -1 8 -1 13c-28 86 -124 166 -239 174c-16 -57 -48 -74 -71 -74c-30 0 -46 18 -46 46c0 31 25 63 70 76c2 13 2 26 2 39c0 75 -55 121 -117 125c-13 -55 -46 -76 -71 -76c-30 0 -46 19 -46 47c0 31 25 64 71 77v4c0 60 -23 105 -59 137h-55v52
h885v-52z" />
    <glyph glyph-name="bnK_TA" horiz-adv-x="902" 
d="M922 582h-942v52h942v-52zM356 228c92 42 151 90 151 165c0 45 -30 79 -85 79c-65 0 -104 -49 -121 -93l-49 30c23 66 87 115 169 115c68 0 116 -35 134 -85c31 44 75 72 138 72c93 0 161 -57 161 -155c0 -111 -73 -159 -151 -159c-29 0 -61 5 -87 18l16 51
c27 -11 46 -14 69 -14c50 0 95 34 95 103c0 61 -37 102 -103 102c-84 0 -109 -77 -152 -151c-11 -19 -25 -36 -42 -52c55 -23 108 -73 108 -149c0 -92 -67 -167 -185 -167c-194 0 -320 197 -376 455l50 26c58 -269 173 -427 327 -427c83 0 126 53 126 114
c0 56 -39 98 -94 114c-18 -11 -37 -22 -59 -32z" />
    <glyph glyph-name="bnT_TA" horiz-adv-x="672" 
d="M692 582h-712v52h712v-52zM356 228c92 42 151 90 151 165c0 45 -30 79 -85 79c-65 0 -104 -49 -121 -93l-49 30c23 66 87 115 169 115c87 0 142 -58 142 -131c0 -55 -22 -101 -64 -139c55 -23 108 -73 108 -149c0 -92 -67 -167 -185 -167c-194 0 -320 197 -376 455l50 26
c58 -269 173 -427 327 -427c83 0 126 53 126 114c0 56 -39 98 -94 114c-18 -11 -37 -22 -59 -32z" />
    <glyph glyph-name="bnN_TA" horiz-adv-x="637" 
d="M-20 634h677v-52h-142c15 -17 30 -49 30 -91c0 -41 -14 -80 -45 -105c50 -33 74 -96 74 -168c0 -138 -88 -233 -223 -233c-149 0 -248 120 -297 260l48 35c40 -128 126 -242 249 -242c106 0 167 77 167 181c0 73 -29 137 -107 137c-47 0 -82 -30 -82 -85
c0 -35 15 -64 44 -82l-41 -32c-36 24 -59 66 -59 116c0 44 17 83 49 108c-49 31 -74 81 -132 81c-36 0 -62 -23 -62 -61c0 -30 12 -50 27 -68l-48 -23c-21 22 -35 54 -35 91c0 68 43 115 117 115c117 0 129 -105 221 -105c60 0 78 47 78 84c0 44 -23 87 -86 87h-422v52z" />
    <glyph glyph-name="bnP_TA" horiz-adv-x="712" 
d="M107 500c70 -1 154 -34 181 -138l171 120c-37 63 -99 104 -179 104c-92 0 -153 -56 -173 -86zM439 -93c-138 0 -241 106 -291 242l48 36c48 -137 133 -225 243 -225c106 0 167 72 167 176c0 73 -33 134 -107 134c-47 0 -82 -30 -82 -85c0 -35 15 -64 44 -82l-41 -32
c-36 24 -59 66 -59 116c0 74 47 132 135 136v9c0 36 -5 69 -15 100l-317 -223l-29 45l108 76c-16 66 -55 110 -132 118c-9 1 -16 1 -43 1l-36 49c37 63 120 141 247 141s195 -76 225 -137h4s-13 94 -13 183v47h56v-98h151v-52h-151v-265c73 -22 111 -94 111 -182
c0 -138 -88 -228 -223 -228z" />
    <glyph glyph-name="bnM_TA" horiz-adv-x="627" 
d="M-20 634h667v-52h-133c15 -17 30 -49 30 -91s-16 -83 -49 -108c47 -34 69 -95 69 -165c0 -138 -88 -233 -223 -233c-149 0 -248 120 -297 259l48 36c40 -128 126 -242 249 -242c106 0 167 77 167 181c0 73 -29 137 -107 137c-47 0 -82 -30 -82 -85c0 -35 15 -64 44 -82
l-41 -32c-36 24 -59 66 -59 116c0 46 18 86 54 111c-46 31 -72 78 -128 78c-36 0 -62 -23 -62 -61c0 -30 12 -50 27 -68l-48 -23c-21 22 -35 54 -35 91c0 53 26 93 72 108c-7 29 -20 53 -37 73h-126v52zM409 411c60 0 78 47 78 84c0 44 -23 87 -86 87h-228
c12 -19 21 -42 25 -66c108 -6 122 -105 211 -105z" />
    <glyph glyph-name="bnL_TA" horiz-adv-x="775" 
d="M507 -76c-106 0 -197 70 -253 165l43 37c47 -85 119 -149 210 -149c106 0 167 77 167 181c0 73 -29 137 -107 137c-47 0 -82 -30 -82 -85c0 -35 15 -64 44 -82l-41 -32c-36 24 -59 66 -59 116c0 66 38 121 110 133v54c-8 27 -38 67 -94 67c-51 0 -87 -38 -87 -103v-40
h-56v39c0 66 -40 100 -96 100c-52 0 -97 -42 -97 -117c0 -90 54 -138 127 -138c23 0 46 5 68 16l15 -51c-24 -13 -54 -18 -81 -18c-105 0 -187 78 -187 191c0 106 71 171 154 171c77 0 109 -37 123 -71h4c12 38 41 75 108 75c51 0 82 -25 95 -40h4v102h-559v52h815v-52h-201
v-235c93 -11 136 -92 136 -190c0 -138 -88 -233 -223 -233z" />
    <glyph glyph-name="bnSH_TA" horiz-adv-x="713" 
d="M73 582h-93v52h91c73 0 123 -22 152 -79c24 48 74 77 135 77c75 0 121 -41 135 -65h4s-10 53 -10 128v37h56v-98h190v-52h-190v-300c84 -15 130 -91 130 -185c0 -138 -88 -228 -223 -228c-164 0 -267 143 -310 307l48 36c42 -174 135 -290 262 -290c106 0 167 72 167 176
c0 73 -33 134 -107 134c-47 0 -82 -34 -82 -85c0 -35 15 -64 44 -82l-42 -34c-36 24 -58 68 -58 118c0 69 39 125 115 135v154c0 94 -49 141 -126 141c-61 0 -111 -38 -111 -115c0 -78 45 -116 116 -116c17 0 42 2 55 9v-52c-14 -4 -38 -8 -54 -8c-69 0 -116 22 -147 77
c-27 -56 -70 -78 -143 -78c-16 0 -40 3 -54 7v55c13 -7 38 -10 55 -10c82 0 117 47 117 116c0 84 -48 118 -122 118z" />
    <glyph glyph-name="bnS_TA" horiz-adv-x="636" 
d="M69 479c22 -30 49 -61 90 -61c69 0 88 98 93 164h-272v52h676v-52h-88c4 -19 6 -38 6 -58c0 -61 -21 -113 -65 -140c41 -34 61 -93 61 -159c0 -138 -88 -233 -223 -233c-149 0 -248 120 -297 260l48 35c40 -128 126 -242 249 -242c106 0 167 77 167 181
c0 73 -29 137 -107 137c-47 0 -82 -30 -82 -85c0 -35 15 -64 44 -82l-41 -32c-36 24 -59 66 -59 116c0 51 22 95 65 118c-25 21 -42 49 -51 75c-19 -64 -58 -108 -124 -108c-59 0 -104 38 -131 80zM518 524c0 21 -2 40 -6 58h-200c2 -87 40 -165 120 -165c63 0 86 47 86 107
z" />
    <glyph glyph-name="bnT_THA" horiz-adv-x="785" 
d="M481 430c0 63 -24 110 -54 137c-13 -34 -36 -90 -57 -127h-67c0 73 -15 150 -98 150c-64 0 -96 -48 -96 -113s32 -115 104 -115c20 0 41 3 59 13l15 -48c-20 -11 -47 -17 -79 -17c-97 0 -156 64 -156 168c0 93 51 167 153 167c85 0 131 -62 141 -123c18 38 39 87 48 112
h42c58 -41 106 -102 106 -204c0 -153 -103 -248 -325 -269v-4l409 -134h4c-5 78 -6 144 -6 210v499h56v-98h125v-52h-125v-576l43 -15l-41 -46l-577 189v77c205 1 376 50 376 219z" />
    <glyph glyph-name="bnN_THA" horiz-adv-x="583" 
d="M-20 634h623v-52h-106c15 -17 30 -49 30 -91c0 -50 -22 -97 -67 -120c35 -29 56 -72 56 -125c0 -111 -73 -169 -194 -182v-4c27 -8 70 -33 132 -71l81 -50l-40 -37c-211 132 -239 145 -318 157v51h64c168 0 219 54 219 137c0 66 -48 111 -120 111
c-64 0 -109 -38 -109 -97c0 -29 15 -59 44 -76l-43 -32c-36 24 -57 66 -57 110c0 65 41 117 102 138c-33 29 -58 61 -105 61c-36 0 -62 -23 -62 -61c0 -30 12 -50 27 -68l-48 -23c-21 22 -35 54 -35 91c0 68 43 115 117 115c117 0 129 -105 221 -105c60 0 78 47 78 84
c0 44 -23 87 -86 87h-404v52z" />
    <glyph glyph-name="bnM_THA" horiz-adv-x="583" 
d="M-20 634h623v-52h-108c15 -17 30 -49 30 -91c0 -49 -21 -96 -66 -119c36 -29 57 -73 57 -126c0 -111 -73 -169 -194 -182v-4c27 -8 70 -33 132 -71l81 -50l-40 -37c-211 132 -239 145 -318 157v51h64c168 0 219 54 219 137c0 66 -48 111 -120 111
c-64 0 -109 -38 -109 -97c0 -29 15 -59 44 -76l-43 -32c-36 24 -57 66 -57 110c0 65 40 117 101 138c-34 29 -59 61 -106 61c-36 0 -62 -23 -62 -61c0 -30 12 -50 27 -68l-48 -23c-21 22 -35 54 -35 91c0 53 26 93 72 108c-7 29 -20 53 -37 73h-107v52zM390 411
c60 0 78 47 78 84c0 44 -23 87 -86 87h-228c12 -19 21 -42 25 -66c108 -6 122 -105 211 -105z" />
    <glyph glyph-name="bnS_THA" horiz-adv-x="641" 
d="M56 479c22 -30 49 -61 90 -61c69 0 88 98 93 164h-259v52h681v-52h-106c4 -19 6 -38 6 -58c0 -60 -20 -111 -62 -138c42 -28 68 -74 68 -131c0 -115 -79 -172 -200 -185v-4c27 -8 76 -34 138 -72l70 -43l-42 -39c-211 132 -229 138 -305 150v53h64c168 0 219 57 219 140
c0 66 -48 108 -120 108c-64 0 -108 -38 -108 -97c0 -32 16 -57 43 -76l-45 -32c-35 24 -54 66 -54 110c0 61 35 110 90 134c-23 20 -39 46 -47 71c-19 -64 -58 -108 -124 -108c-59 0 -104 38 -131 80zM505 524c0 21 -2 40 -6 58h-200c2 -87 40 -165 120 -165
c63 0 86 47 86 107z" />
    <glyph glyph-name="bnG_DA" horiz-adv-x="875" 
d="M766 0h-56v221c0 68 9 136 24 192c-95 -63 -173 -146 -242 -237l-59 28v168c0 103 -61 209 -180 209c-85 0 -141 -51 -163 -97c24 11 58 19 93 19c85 0 149 -50 149 -134c0 -94 -65 -152 -119 -189l-44 38c48 31 105 79 105 152c0 55 -43 81 -98 81
c-39 0 -76 -10 -106 -24l-43 41c28 100 114 166 225 166c114 0 171 -77 190 -113h4s-13 48 -13 108v5h462v-52h-406v-321c49 65 165 178 253 216l57 -31c-21 -68 -33 -148 -33 -228v-218z" />
    <glyph glyph-name="bnD_DA" horiz-adv-x="805" 
d="M419 212v-55c49 65 171 177 259 215l57 -31c-21 -68 -33 -148 -33 -228v-198h-56v201c0 69 7 138 24 192c-95 -63 -180 -146 -249 -237l-60 40v108c0 82 13 175 30 224c-95 -63 -173 -146 -242 -237l-59 38v338h-110v52h845v-52h-679v-291c49 65 165 178 253 216l57 -31
c-25 -83 -37 -158 -37 -264z" />
    <glyph glyph-name="bnN_DA" horiz-adv-x="803" 
d="M823 582h-406v-321c49 65 165 178 253 216l57 -31c-21 -68 -33 -148 -33 -228v-218h-56v221c0 68 9 136 24 192c-95 -63 -173 -146 -242 -237l-59 28c-13 84 -58 224 -173 224c-64 0 -91 -36 -91 -78c0 -30 12 -50 27 -68l-48 -23c-21 22 -35 54 -35 91
c0 74 54 132 146 132c87 0 148 -54 180 -128h4s-10 67 -10 214v14h-381v52h843v-52z" />
    <glyph glyph-name="bnB_DA" horiz-adv-x="753" 
d="M644 0h-56v221c0 68 9 136 24 192c-95 -63 -173 -146 -242 -237l-311 161v68c46 40 146 107 252 144v33h-331v52h793v-52h-406v-321c49 65 165 178 253 216l57 -31c-21 -68 -33 -148 -33 -228v-218zM311 269v222c-67 -26 -155 -76 -205 -117z" />
    <glyph glyph-name="bnM_DA" horiz-adv-x="796" 
d="M-20 634h836v-52h-339c15 -17 30 -49 30 -91c0 -61 -32 -118 -101 -132v-108c56 64 174 165 253 196l57 -31c-21 -68 -33 -148 -33 -228v-188h-56v191c0 68 9 136 24 192c-95 -63 -158 -125 -243 -216l-58 27v163c-101 12 -118 105 -198 105c-36 0 -62 -23 -62 -61
c0 -30 12 -50 27 -68l-48 -23c-21 22 -35 54 -35 91c0 54 27 95 75 109c-7 28 -20 52 -37 72h-92v52zM372 411c60 0 78 47 78 84c0 44 -23 87 -86 87h-225c13 -19 21 -42 26 -67c104 -7 119 -104 207 -104z" />
    <glyph glyph-name="bnL_DA" horiz-adv-x="989" 
d="M880 0h-56v221c0 68 9 136 24 192c-95 -63 -173 -146 -242 -237l-59 28v168c-8 27 -38 67 -94 67c-51 0 -87 -38 -87 -103v-40h-56v39c0 66 -40 100 -96 100c-52 0 -97 -42 -97 -117c0 -90 59 -138 132 -138c26 0 53 6 77 20l15 -51c-29 -15 -60 -22 -90 -22
c-105 0 -192 78 -192 191c0 106 71 171 154 171c77 0 109 -37 123 -71h4c12 38 41 75 108 75c51 0 82 -25 95 -40h4v129h-567v52h1029v-52h-406v-321c49 65 165 178 253 216l57 -31c-21 -68 -33 -148 -33 -228v-218z" />
    <glyph glyph-name="bnG_DHA" horiz-adv-x="767" 
d="M494 732v-98h293v-52h-293v-312c64 26 120 46 156 55l52 -48s-27 -55 -27 -235v-81h-56v81c0 132 14 195 23 222c-39 -13 -91 -32 -148 -56v-286l43 -23l-45 -40l-325 176v64c76 51 177 104 271 146v127c0 103 -61 209 -180 209c-85 0 -141 -51 -163 -97
c24 11 58 19 93 19c85 0 149 -50 149 -134c0 -94 -65 -152 -119 -189l-44 38c48 31 105 79 105 152c0 55 -43 81 -98 81c-39 0 -76 -10 -106 -24l-43 41c28 100 114 166 225 166c114 0 171 -77 190 -113h4s-13 70 -13 159v52h56zM441 -49h4c-5 78 -6 99 -6 186v47
c-70 -32 -146 -70 -215 -115z" />
    <glyph glyph-name="bnN_DHA" horiz-adv-x="715" 
d="M-20 582v52h755v-52h-295v-212c64 26 120 46 156 55l52 -48s-27 -55 -27 -235v-81h-56v81c0 132 14 195 23 222c-39 -13 -91 -32 -148 -56v-287l43 -23l-45 -40l-325 177v64c68 46 156 93 241 133c-29 61 -78 111 -153 111c-64 0 -91 -36 -91 -78c0 -30 12 -50 27 -68
l-48 -23c-21 22 -35 54 -35 91c0 74 54 132 146 132c87 0 151 -45 190 -126h4s-10 67 -10 211h-404zM387 50h4c-5 78 -6 99 -6 186v48c-70 -32 -146 -70 -215 -115z" />
    <glyph glyph-name="bnD_DHA" horiz-adv-x="696" 
d="M716 582h-570v-248c58 60 170 153 258 191l52 -29c-16 -52 -27 -112 -31 -173c63 27 118 46 154 55l52 -48s-27 -55 -27 -235v-81h-56v81c0 132 14 195 23 222c-39 -13 -91 -32 -148 -56v-287l43 -23l-45 -40l-325 177v64c76 52 178 105 272 147c2 58 10 116 23 164
c-91 -61 -159 -115 -242 -207l-59 28v298h-110v52h736v-52zM370 3h4c-5 78 -7 99 -7 186v48c-70 -32 -145 -70 -214 -115z" />
    <glyph glyph-name="bnB_DHA" horiz-adv-x="685" 
d="M-20 582v52h725v-52h-292v-310c65 28 122 49 156 57l52 -48s-27 -55 -27 -235v-81h-56v81c0 131 14 195 23 222c-38 -13 -90 -34 -148 -59v-303l43 -22l-44 -38l-356 178v59c63 43 149 90 235 132l-235 117v59c81 64 206 127 301 161v30h-377zM364 -68
c-5 78 -7 142 -7 208v42l-3 1c-80 -37 -165 -81 -239 -129l245 -122h4zM112 364l240 -120c4 2 8 4 11 5c-4 74 -6 136 -6 199v44c-91 -36 -185 -85 -245 -128z" />
    <glyph glyph-name="bnL_DHA" horiz-adv-x="874" 
d="M-20 582v52h914v-52h-298v-231c64 26 120 46 156 55l52 -48s-27 -55 -27 -235v-81h-56v81c0 132 14 195 23 222c-39 -13 -91 -32 -148 -56v-287l43 -23l-45 -40l-325 177v64c76 52 178 105 272 147v60c-8 27 -38 67 -94 67c-51 0 -87 -38 -87 -103v-40h-56v39
c0 66 -40 100 -91 100c-60 0 -102 -45 -102 -120c0 -73 39 -114 94 -129l-21 -50c-82 23 -131 89 -131 179c0 106 65 174 158 174c65 0 104 -32 119 -66h4c15 39 54 70 111 70c51 0 79 -25 92 -40h4v114h-561zM547 31c-5 78 -6 99 -6 186v48c-70 -32 -146 -70 -215 -115
l217 -119h4z" />
    <glyph glyph-name="bnK_NA" horiz-adv-x="688" 
d="M708 582h-284v-34c135 -4 217 -70 217 -165c0 -77 -40 -130 -92 -160l-41 42c43 22 77 60 77 118c0 68 -68 109 -161 112v-537h-55c-21 112 -85 213 -186 213c-61 0 -89 -36 -89 -78c0 -30 12 -50 27 -68l-48 -23c-21 22 -35 54 -35 91c0 74 53 132 145 132
c87 0 152 -52 191 -134h4s-7 48 -9 132l-272 124v62c69 69 162 124 271 136v37h-388v52h728v-52zM375 284c-5 78 -7 142 -7 207c-82 -13 -161 -59 -215 -107l218 -100h4z" />
    <glyph glyph-name="bnG_NA" horiz-adv-x="599" 
d="M494 732v-98h125v-52h-125v-653h-55c-21 112 -85 213 -186 213c-61 0 -89 -36 -89 -78c0 -30 12 -50 27 -68l-48 -23c-21 22 -35 54 -35 91c0 74 53 132 145 132c87 0 152 -52 191 -134h4s-8 54 -10 147v163c0 103 -61 209 -180 209c-85 0 -141 -51 -163 -97
c24 11 58 19 93 19c85 0 149 -44 149 -128c0 -72 -44 -129 -82 -163l-51 32c39 30 75 79 75 132c0 55 -43 75 -98 75c-39 0 -76 -10 -106 -24l-43 41c28 100 114 166 225 166c114 0 171 -77 190 -113h4s-13 70 -13 159v52h56z" />
    <glyph glyph-name="bnGH_NA" horiz-adv-x="595" 
d="M435 -139c-21 112 -85 193 -186 193c-61 0 -89 -36 -89 -78c0 -30 12 -50 27 -68l-48 -23c-21 22 -35 54 -35 91c0 74 53 132 145 132c87 0 154 -45 191 -123h4s-8 55 -10 149l-367 94v64l54 33c53 33 76 41 86 46v4c-98 4 -144 54 -144 125c0 31 10 60 27 82h-110v52
h635v-52h-125v-721h-55zM440 189c-5 78 -6 153 -6 219v174h-275c-25 -20 -40 -49 -40 -82c0 -58 46 -81 98 -81s81 12 117 33l26 -48l-226 -137l302 -78h4z" />
    <glyph glyph-name="bnC_NA" horiz-adv-x="507" 
d="M527 582h-375c13 -29 42 -45 74 -57l76 -28c85 -31 124 -66 124 -143c0 -23 -5 -46 -15 -68v-425h-55c-21 112 -85 193 -186 193c-61 0 -89 -36 -89 -78c0 -30 12 -50 27 -68l-48 -23c-21 22 -35 54 -35 91c0 74 53 132 145 132c87 0 154 -45 191 -123h4s-10 66 -10 178
v50c-36 -30 -85 -50 -139 -50c-77 0 -126 45 -126 117v302h-110v52h547v-52zM146 517h-4c1 -37 4 -63 4 -160v-74c0 -41 21 -67 70 -67c73 0 154 60 154 138c0 40 -12 64 -88 91l-57 20c-46 16 -70 39 -79 52z" />
    <glyph glyph-name="bnD_NA" horiz-adv-x="513" 
d="M533 582h-387v-261c52 64 165 168 253 206l57 -31c-21 -68 -33 -148 -33 -228v-333h-55c-21 112 -85 213 -186 213c-61 0 -89 -36 -89 -78c0 -30 12 -50 27 -68l-48 -23c-21 22 -35 54 -35 91c0 74 53 132 145 132c87 0 152 -52 191 -134h4s-12 66 -12 178v25
c0 68 11 136 26 192c-95 -63 -168 -135 -242 -227l-59 28v318h-110v52h553v-52z" />
    <glyph glyph-name="bnDH_NA" horiz-adv-x="578" 
d="M123 517c0 -57 58 -76 112 -76c67 0 122 28 182 66v127h181v-52h-125v-721h-55c-21 112 -85 193 -186 193c-61 0 -89 -36 -89 -78c0 -30 12 -50 27 -68l-48 -23c-21 22 -35 54 -35 91c0 74 53 132 145 132c87 0 154 -45 191 -123h4s-8 51 -10 139l-337 135v64l41 23
c53 30 96 44 96 44v4c-92 3 -150 48 -150 124c0 69 46 123 135 123c41 0 83 -14 106 -35l-25 -44c-22 17 -49 27 -81 27c-49 0 -79 -30 -79 -72zM426 182c-6 75 -9 140 -9 204v59l-276 -151l281 -112h4z" />
    <glyph glyph-name="bnT_NA" horiz-adv-x="618" 
d="M-20 634h658v-52h-658v52zM88 516c27 -179 114 -334 264 -334c101 0 160 70 160 171c0 82 -34 131 -101 131c-47 0 -80 -28 -80 -78c0 -32 14 -59 41 -75l-44 -33c-33 22 -53 63 -53 109c0 69 51 130 136 130c107 0 157 -83 157 -185c0 -75 -29 -137 -78 -176v-355h-55
c-21 112 -85 213 -186 213c-61 0 -89 -36 -89 -78c0 -30 12 -50 27 -68l-48 -23c-21 22 -35 54 -35 91c0 74 53 132 145 132c87 0 152 -52 191 -134h4s-10 66 -10 178v12c-25 -9 -52 -14 -82 -14c-176 0 -280 162 -317 363z" />
    <glyph glyph-name="bnN_NA" horiz-adv-x="552" 
d="M-20 582v52h592v-52h-125v-615h-54c-5 99 -72 234 -187 234c-61 0 -89 -36 -89 -78c0 -30 12 -50 27 -68l-48 -23c-21 22 -35 54 -35 91c0 74 53 132 145 132c87 0 154 -53 191 -134h4s-5 34 -8 105c-9 98 -76 223 -187 223c-61 0 -89 -36 -89 -78c0 -30 12 -50 27 -68
l-48 -23c-21 22 -35 54 -35 91c0 74 52 132 144 132c87 0 154 -56 192 -135h4s-10 71 -10 214h-411z" />
    <glyph glyph-name="bnP_NA" horiz-adv-x="630" 
d="M91 500c67 -1 146 -31 177 -124l163 115c-34 58 -91 95 -167 95c-92 0 -153 -56 -173 -86zM52 449l-36 49c37 63 120 141 247 141s185 -65 215 -126h4s-13 94 -13 183v36h56v-98h125v-52h-125v-621h-56c-16 104 -79 212 -185 212c-61 0 -89 -36 -89 -78
c0 -30 12 -50 27 -68l-48 -23c-21 22 -35 54 -35 91c0 74 53 132 145 132c87 0 154 -53 191 -134h4s-9 84 -10 204v35c0 39 -5 76 -16 108l-305 -214l-29 45l105 74c-18 57 -57 95 -128 103c-9 1 -17 1 -44 1z" />
    <glyph glyph-name="bnM_NA" horiz-adv-x="575" 
d="M-20 634h615v-52h-100c15 -17 30 -49 30 -91c0 -47 -19 -92 -60 -116v-375h-53c-17 119 -82 232 -188 232c-61 0 -89 -36 -89 -78c0 -30 12 -50 27 -68l-48 -23c-21 22 -35 54 -35 91c0 74 53 132 145 132c87 0 152 -52 191 -134h4s-9 66 -10 205c-6 -1 -12 -1 -19 -1
c-121 0 -135 106 -220 106c-36 0 -62 -23 -62 -61c0 -30 12 -50 27 -68l-48 -23c-21 22 -35 54 -35 91c0 53 26 93 72 108c-7 29 -20 53 -37 73h-107v52zM390 411c60 0 78 47 78 84c0 44 -23 87 -86 87h-228c12 -19 21 -42 25 -66c108 -6 122 -105 211 -105z" />
    <glyph glyph-name="bnSH_NA" horiz-adv-x="603" 
d="M35 299v53c12 -3 26 -4 37 -4c82 0 106 55 106 116c0 67 -37 118 -116 118h-82v52h85c64 0 112 -22 141 -79c27 52 68 79 129 79c68 0 99 -36 113 -56h4s-10 53 -10 128v26h56v-98h125v-52h-125v-592h-56c-14 97 -69 212 -183 212c-64 0 -91 -36 -91 -78
c0 -30 12 -50 27 -68l-48 -23c-21 22 -35 54 -35 91c0 74 54 132 146 132c87 0 151 -45 190 -126h4s-10 74 -10 176v132c0 94 -34 143 -104 143c-58 0 -105 -41 -105 -117c0 -74 45 -116 116 -116c8 0 18 1 28 2v-51c-9 -1 -19 -2 -27 -2c-69 0 -116 22 -147 77
c-27 -56 -59 -78 -132 -78c-11 0 -24 1 -36 3z" />
    <glyph glyph-name="bnS_NA" horiz-adv-x="615" 
d="M62 479c22 -30 49 -61 90 -61c69 0 88 98 93 164h-265v52h655v-52h-74c4 -19 6 -38 6 -58c0 -64 -23 -118 -72 -144v-380h-53c-14 113 -72 232 -186 232c-64 0 -91 -36 -91 -78c0 -30 12 -50 27 -68l-48 -23c-21 22 -35 54 -35 91c0 74 54 132 146 132
c87 0 150 -45 189 -126h4s-9 90 -9 192v13c-5 -1 -10 -1 -15 -1c-82 0 -131 57 -148 109c-19 -64 -58 -108 -124 -108c-59 0 -104 38 -131 80zM511 524c0 21 -2 40 -6 58h-200c2 -87 40 -165 120 -165c63 0 86 47 86 107z" />
    <glyph glyph-name="bnH_NA" horiz-adv-x="750" 
d="M196 144c27 -8 80 -34 142 -72l116 -70l-42 -39c-240 145 -271 164 -346 176v52h59c168 0 219 74 219 153c0 70 -48 115 -120 115c-64 0 -109 -38 -109 -97c0 -29 15 -59 44 -76l-43 -32c-36 24 -57 66 -57 110c0 85 69 148 164 148c78 0 139 -39 164 -101
c32 58 79 96 153 96c93 0 161 -57 161 -155c0 -111 -73 -158 -151 -158c-29 0 -61 5 -87 18l16 50c27 -11 46 -14 69 -14c50 0 95 34 95 103c0 61 -37 102 -103 102c-84 0 -125 -88 -147 -164c-22 -79 -92 -129 -197 -141v-4zM770 582h-790v52h790v-52z" />
    <glyph glyph-name="bnK_SS_NA" horiz-adv-x="845" 
d="M540 106c-3 61 -5 142 -5 203v44h-84c-76 0 -140 55 -140 147v82h-210c28 -38 45 -86 45 -136c86 -5 166 -74 166 -180c0 -12 0 -23 -1 -32c106 -6 202 -82 229 -128zM452 406h83v176h-168v-82c0 -59 28 -94 85 -94zM865 582h-274v-176h50c97 0 165 -54 165 -142
c0 -77 -36 -126 -90 -156l-41 42c43 19 75 56 75 114c0 62 -47 89 -109 89h-50v-562h-51c-53 106 -136 204 -255 204c-68 0 -95 -36 -95 -78c0 -46 29 -70 65 -85l-37 -41c-49 19 -84 63 -84 126c0 74 54 132 146 132c87 0 188 -45 261 -160h4s-8 30 -8 129
c-32 81 -124 156 -235 163c-16 -57 -48 -74 -71 -74c-30 0 -46 18 -46 46c0 31 25 63 70 76c2 13 2 26 2 39c0 75 -55 121 -117 125c-13 -55 -46 -76 -71 -76c-30 0 -46 19 -46 47c0 31 25 64 71 77v4c0 60 -23 105 -59 137h-55v52h885v-52z" />
    <glyph glyph-name="bnM_PA" horiz-adv-x="1063" 
d="M514 500c74 -1 164 -38 185 -156l179 115c-34 76 -101 127 -191 127c-92 0 -153 -56 -173 -86zM958 0h-55v332c0 26 -3 51 -8 74l-324 -207l-29 45l111 71c-15 79 -57 131 -148 134c-14 -52 -56 -93 -128 -93c-121 0 -135 106 -220 106c-36 0 -62 -23 -62 -61
c0 -30 12 -50 27 -68l-48 -23c-21 22 -35 54 -35 91c0 53 26 93 72 108c-7 29 -20 53 -37 73h-94v52h438c38 -16 62 -41 76 -69c45 40 109 74 192 74c127 0 195 -76 225 -137h4s-13 94 -13 183v47h56v-98h125v-52h-125v-582zM377 411c60 0 78 47 78 84c0 44 -23 87 -86 87
h-228c12 -19 21 -42 25 -66c108 -6 122 -105 211 -105z" />
    <glyph glyph-name="bnL_PA" horiz-adv-x="699" 
d="M-20 582v52h739v-52h-125v-773h-55v132c0 39 -6 75 -18 108l-306 -219l-35 44l104 73c-17 63 -56 103 -134 108c-4 1 -9 1 -37 1l-36 49c36 61 118 144 245 143s195 -76 225 -137h4s-13 94 -13 183v100c-8 27 -35 67 -91 67c-51 0 -84 -40 -84 -103v-30h-56v29
c0 61 -38 100 -94 100c-53 0 -90 -33 -90 -97c0 -30 17 -66 45 -89l-44 -34c-36 29 -59 80 -59 123c0 92 63 151 147 151c73 0 107 -39 121 -71h4c12 35 42 75 105 75c51 0 79 -25 92 -40h4v107h-558zM150 109c69 -1 150 -33 179 -130l168 119c-37 59 -97 97 -174 97
c-92 0 -153 -58 -173 -86z" />
    <glyph glyph-name="bnSS_PA" horiz-adv-x="961" 
d="M228 582c-32 0 -61 -10 -83 -28l202 -164c8 18 13 38 13 60c0 76 -57 132 -132 132zM228 319c32 0 61 10 84 28l-201 164c-9 -18 -14 -39 -14 -61c0 -76 56 -131 131 -131zM412 500c74 -1 164 -38 185 -156l179 115c-34 76 -101 127 -191 127c-92 0 -153 -56 -173 -86z
M856 0h-55v332c0 26 -3 51 -8 74l-324 -207l-29 45l111 71c-14 74 -52 124 -135 133c-1 -107 -82 -183 -188 -183c-107 0 -187 77 -187 185c0 54 20 100 53 132h-114v52h248c66 0 123 -29 156 -77c45 44 112 82 200 82c127 0 195 -76 225 -137h4s-13 94 -13 183v47h56v-98
h125v-52h-125v-582z" />
    <glyph glyph-name="bnS_PA" horiz-adv-x="1116" 
d="M1011 0h-55v332c0 26 -3 51 -8 74l-324 -207l-29 45l111 71c-15 79 -57 131 -152 134c-20 -51 -62 -85 -130 -85c-82 0 -131 57 -148 109c-19 -64 -58 -108 -124 -108c-59 0 -104 38 -131 80l41 34c22 -30 49 -61 90 -61c69 0 88 98 93 164h-265v52h569
c7 -22 11 -40 14 -56c43 34 102 61 176 61c127 0 195 -76 225 -137h4s-13 94 -13 183v47h56v-98h125v-52h-125v-582zM505 582h-200c2 -87 40 -165 120 -165c63 0 86 47 86 107c0 21 -2 40 -6 58zM567 500c74 -1 164 -38 185 -156l179 115c-34 76 -101 127 -191 127
c-92 0 -153 -56 -173 -86z" />
    <glyph glyph-name="bnP_PA" horiz-adv-x="663" 
d="M114 168c67 -1 147 -31 177 -124l167 118c-37 56 -96 92 -171 92c-92 0 -153 -56 -173 -86zM114 500c67 -1 147 -31 177 -124l167 117c-37 57 -96 93 -171 93c-92 0 -153 -56 -173 -86zM75 449l-36 49c37 63 120 141 247 141s195 -76 225 -137h4s-13 94 -13 183v47h56
v-98h125v-52h-125v-699h-55v117c0 41 -7 79 -20 113l-312 -219l-29 45l104 73c-18 60 -59 99 -134 104c-7 1 -14 1 -37 1l-36 49c18 30 46 64 85 91l122 87c-18 60 -59 100 -136 104c-7 1 -12 1 -35 1zM511 170h4s-13 80 -13 162c0 41 -7 79 -19 113l-98 -69
c-34 -24 -70 -48 -103 -69h4c127 0 195 -76 225 -137z" />
    <glyph glyph-name="bnM_PHA" horiz-adv-x="939" 
d="M-20 634h979v-52h-474c20 -28 27 -60 27 -91c0 -37 -12 -72 -36 -97l46 -51v-56l-151 -117l220 -107h4c-5 78 -8 132 -8 198v218c34 14 70 21 106 21c108 0 198 -63 198 -175c0 -87 -53 -146 -114 -174l-38 43c61 25 96 72 96 131c0 86 -65 120 -134 120
c-20 0 -38 -3 -58 -8v-399l39 -19l-41 -43l-327 159v62l155 120l-42 47c-15 -5 -31 -8 -50 -8c-121 0 -135 106 -220 106c-36 0 -62 -23 -62 -61c0 -30 12 -50 27 -68l-48 -23c-21 22 -35 54 -35 91c0 53 26 93 72 108c-7 29 -20 53 -37 73h-94v52zM377 411
c60 0 78 47 78 84c0 44 -23 87 -86 87h-228c12 -19 21 -42 25 -66c108 -6 122 -105 211 -105z" />
    <glyph glyph-name="bnS_PHA" horiz-adv-x="988" 
d="M26 445l41 34c22 -30 49 -61 90 -61c69 0 88 98 93 164h-270v52h1028v-52h-442c4 -19 6 -38 6 -58c0 -53 -16 -99 -49 -128l48 -53v-56l-151 -117l220 -107h4c-5 78 -8 132 -8 198v218c34 14 70 21 106 21c108 0 198 -63 198 -175c0 -87 -53 -146 -114 -174l-38 43
c61 25 96 72 96 131c0 86 -65 120 -134 120c-20 0 -38 -3 -58 -8v-399l39 -19l-41 -43l-327 159v62l155 120l-47 52c-13 -3 -27 -5 -42 -5c-82 0 -131 57 -148 109c-19 -64 -58 -108 -124 -108c-59 0 -104 38 -131 80zM510 582h-200c2 -87 40 -165 120 -165
c63 0 86 47 86 107c0 21 -2 40 -6 58z" />
    <glyph glyph-name="bnL_PHA" horiz-adv-x="1093" 
d="M-20 582v52h1133v-52h-524v-155l82 -96v-54l-151 -107l220 -107h4c-5 78 -8 132 -8 198v218c34 14 70 21 106 21c108 0 198 -63 198 -175c0 -87 -53 -146 -114 -174l-38 43c61 25 96 72 96 131c0 86 -65 120 -134 120c-20 0 -38 -3 -58 -8v-399l39 -19l-41 -43l-327 159
v62l155 110l-85 97c-24 30 -49 61 -94 61c-44 0 -76 -38 -76 -103v-40h-56v39c0 66 -39 100 -96 100c-52 0 -97 -42 -97 -117c0 -90 53 -138 126 -138c26 0 53 6 77 20l15 -51c-29 -15 -60 -22 -90 -22c-105 0 -186 78 -186 191c0 106 71 171 154 171c80 0 112 -45 123 -75
h4c9 36 35 79 104 79c49 0 76 -26 88 -41h4v104h-553z" />
    <glyph glyph-name="bnSS_PHA" horiz-adv-x="898" 
d="M228 582c-31 0 -58 -9 -80 -26l200 -162c8 16 12 35 12 56c0 76 -57 132 -132 132zM228 319c34 0 64 11 87 31l-203 164c-10 -18 -15 -40 -15 -64c0 -76 56 -131 131 -131zM918 582h-556c34 -32 54 -78 54 -132c0 -34 -8 -66 -23 -92l76 -62v-56l-146 -107l220 -107h4
c-5 78 -8 152 -8 218v218c34 14 70 21 106 21c108 0 198 -63 198 -175c0 -87 -53 -146 -114 -174l-38 43c61 25 96 72 96 131c0 86 -65 120 -134 120c-20 0 -38 -3 -58 -8v-419l39 -19l-41 -43l-327 159v62l148 109l-55 45c-33 -31 -79 -49 -131 -49
c-107 0 -187 77 -187 185c0 54 20 100 53 132h-114v52h938v-52z" />
    <glyph glyph-name="bnD_BHA" horiz-adv-x="632" 
d="M652 582h-402v-228c59 58 165 135 253 173l57 -31c-21 -68 -33 -148 -33 -228v-12c38 -40 70 -103 70 -182c0 -131 -92 -228 -238 -228c-192 0 -299 170 -336 374l52 18c33 -185 124 -338 284 -338c115 0 182 75 182 173c0 53 -13 86 -29 115h-4
c-47 -101 -103 -130 -156 -130c-75 0 -123 51 -123 116c0 23 8 49 22 69l57 -12c-14 -13 -23 -36 -23 -57c0 -37 23 -62 66 -62c42 0 76 26 120 122v34c0 68 9 139 24 195c-82 -46 -149 -95 -242 -188l-59 28v279h-214v52h672v-52z" />
    <glyph glyph-name="bnM_BHA" horiz-adv-x="627" 
d="M-20 634h667v-52h-131c15 -17 30 -49 30 -91c0 -45 -18 -88 -55 -113c45 -48 76 -116 76 -194c0 -131 -92 -228 -238 -228c-162 0 -263 120 -313 280l50 27c44 -146 129 -253 263 -253c115 0 182 75 182 173c0 53 -13 86 -29 115h-4c-47 -101 -103 -130 -156 -130
c-75 0 -123 51 -123 116c0 23 8 49 22 69l57 -12c-14 -13 -23 -36 -23 -57c0 -37 23 -62 66 -62c45 0 79 30 125 138c-11 -3 -22 -4 -35 -4c-121 0 -135 106 -220 106c-36 0 -62 -23 -62 -61c0 -30 12 -50 27 -68l-48 -23c-21 22 -35 54 -35 91c0 53 26 93 72 108
c-7 29 -20 53 -37 73h-128v52zM411 411c60 0 78 47 78 84c0 44 -23 87 -86 87h-228c12 -19 21 -42 25 -66c108 -6 122 -105 211 -105z" />
    <glyph glyph-name="bnB_BHA" horiz-adv-x="597" 
d="M617 582h-125v-336c38 -40 70 -103 70 -182c0 -131 -87 -228 -233 -228c-192 0 -293 177 -324 345l51 31c27 -154 106 -322 273 -322c115 0 177 75 177 173c0 53 -13 86 -29 115h-4c-47 -101 -103 -130 -156 -130c-75 0 -121 51 -121 116c0 23 6 49 20 69l57 -12
c-14 -13 -23 -36 -23 -57c0 -37 23 -62 66 -62c37 0 68 21 106 93l-277 134v69c91 81 197 133 291 165v19h-456v52h637v-52zM439 251h4c-5 78 -7 150 -7 216v38c-79 -29 -158 -71 -242 -139z" />
    <glyph glyph-name="bnL_BHA" horiz-adv-x="714" 
d="M734 582h-135v-336h1c38 -40 70 -103 70 -182c0 -131 -92 -228 -238 -228c-151 0 -250 105 -303 250l47 31c46 -131 129 -227 256 -227c115 0 182 75 182 173c0 53 -12 84 -28 113h-4c-29 -99 -86 -128 -139 -128c-73 0 -118 51 -118 116c0 23 8 49 22 69l57 -12
c-14 -13 -23 -36 -23 -57c0 -37 21 -62 62 -62c53 0 81 53 101 129v168c-8 27 -38 67 -94 67c-51 0 -87 -38 -87 -103v-40h-56v39c0 66 -40 100 -96 100c-52 0 -97 -42 -97 -117c0 -90 54 -138 127 -138c13 0 26 2 39 5l8 -53c-14 -3 -31 -5 -45 -5c-105 0 -187 78 -187 191
c0 106 71 171 154 171c77 0 109 -37 123 -71h4c12 38 41 75 108 75c51 0 82 -25 95 -40h4v102h-564v52h754v-52z" />
    <glyph glyph-name="bnK_MA" horiz-adv-x="892" 
d="M912 582h-169v-652h-52c-64 113 -220 173 -319 183c-11 -55 -42 -77 -75 -77c-31 0 -52 19 -52 48c0 36 28 70 75 79v28l-271 148v61c67 66 167 126 272 143v39h-341v52h932v-52zM323 254h4c-5 78 -6 142 -6 208v25c-86 -17 -164 -68 -218 -113zM692 22
c-3 61 -5 105 -5 166v394h-311v-35c141 0 210 -85 210 -172c0 -60 -27 -117 -85 -152l-40 41c47 30 69 67 69 111c0 71 -53 117 -154 117v-328c113 -9 237 -64 316 -142z" />
    <glyph glyph-name="bnG_MA" horiz-adv-x="840" 
d="M423 732h56v-98h381v-52h-125v-662h-52c-37 97 -123 169 -208 183c-12 -56 -44 -78 -77 -78c-31 0 -50 20 -50 49c0 36 28 70 75 79v219c0 103 -61 209 -180 209c-81 0 -139 -48 -161 -94c24 11 56 18 91 18c85 0 145 -51 145 -135c0 -94 -61 -153 -115 -190l-44 38
c48 31 105 79 105 152c0 55 -43 81 -98 81c-39 0 -76 -10 -106 -24l-43 41c28 100 114 166 225 166c114 0 167 -64 190 -110h4s-13 70 -13 159v49zM684 24c-3 61 -5 105 -5 166v392h-200v-429c98 -12 172 -78 205 -129z" />
    <glyph glyph-name="bnNG_MA" horiz-adv-x="879" 
d="M363 448c57 0 83 31 83 70s-32 73 -85 73c-57 0 -82 -39 -82 -105v-20c25 -11 53 -18 84 -18zM774 -200h-52c-85 129 -223 176 -319 184c-11 -56 -42 -78 -75 -78c-31 0 -52 19 -52 48c0 36 28 70 75 79v38h-4c-194 0 -299 156 -308 324l54 15c10 -173 113 -285 255 -285
c117 0 185 64 185 144c0 28 -6 50 -16 66c-57 -48 -113 -69 -167 -69c-82 0 -127 47 -127 116v53c-61 37 -104 95 -124 147h-119v52h159c11 -42 40 -94 85 -133c3 95 57 143 134 143c21 0 41 -4 58 -10h484v-52h-126v-782zM723 -110c-3 61 -5 119 -5 180v512h-236
c12 -19 19 -42 19 -64c0 -65 -45 -123 -138 -123c-30 0 -58 5 -84 14v-24c0 -43 24 -65 70 -65c62 0 117 40 176 96c27 -25 64 -74 64 -147c0 -99 -69 -174 -182 -193v-42c106 -8 229 -55 316 -144z" />
    <glyph glyph-name="bnTT_MA" horiz-adv-x="743" 
d="M587 34c-3 61 -5 105 -5 166v382h-432v-267c0 -59 37 -87 96 -87c95 0 153 64 153 147c0 51 -22 91 -78 91c-29 0 -54 -16 -69 -37l-36 45c19 23 52 46 103 46c84 0 136 -57 136 -145c0 -68 -28 -122 -73 -157v-55c98 -12 172 -78 205 -129zM458 686c0 -14 -2 -34 -6 -52
h310v-52h-124v-652h-52c-37 97 -123 169 -208 183c-11 -55 -42 -77 -75 -77c-31 0 -52 19 -52 48c0 36 28 70 75 79v25c-24 -9 -51 -13 -80 -13c-83 0 -152 45 -152 136v271h-114v52h416c4 16 6 38 6 49c0 57 -35 82 -116 82h-152c-113 0 -143 57 -143 116c0 10 0 20 2 30
l53 13c-1 -11 -3 -23 -3 -34c0 -37 15 -73 96 -73h154c96 0 165 -44 165 -131z" />
    <glyph glyph-name="bnDD_MA" horiz-adv-x="877" 
d="M721 -26c-3 61 -5 105 -5 166v442h-413v-121c0 -36 14 -60 57 -60c36 0 93 24 160 87c28 -18 71 -67 71 -149c0 -67 -27 -126 -76 -166v-70c98 -12 173 -78 206 -129zM897 582h-125v-712h-52c-37 97 -123 169 -209 183c-11 -55 -41 -77 -74 -77c-31 0 -52 19 -52 48
c0 36 27 70 74 79v37c-33 -14 -72 -22 -115 -22c-193 0 -300 170 -311 357l56 12c9 -185 104 -313 256 -313c113 0 190 72 190 165c0 31 -6 52 -20 72c-50 -39 -106 -64 -154 -64c-77 0 -114 49 -114 111v124h-267v52h917v-52z" />
    <glyph glyph-name="bnNN_MA" horiz-adv-x="799" 
d="M670 63c-3 61 -5 105 -5 166v353h-200v-390c98 -12 172 -78 205 -129zM409 681v51h56v-98h200v19h56v-19h98v-52h-98v-623h-52c-37 97 -123 169 -208 183c-11 -55 -42 -77 -75 -77c-31 0 -52 19 -52 48c0 36 28 70 75 79v148c0 154 -63 252 -178 252
c-95 0 -138 -67 -138 -150s60 -121 127 -121c28 0 52 6 72 16l15 -47c-21 -13 -51 -21 -87 -21c-98 0 -184 66 -184 174c0 111 67 201 195 201c112 0 160 -71 181 -113h4c-1 18 -7 67 -7 150z" />
    <glyph glyph-name="bnT_MA" horiz-adv-x="849" 
d="M870 582h-126v-742h-52c-72 112 -208 174 -318 184c-11 -56 -41 -78 -74 -78c-31 0 -52 20 -52 49c0 36 27 69 74 78v57c-170 9 -259 170 -295 366l52 20c32 -173 103 -338 257 -338c101 0 164 68 164 175c0 82 -33 131 -100 131c-47 0 -80 -28 -80 -78
c0 -32 14 -62 41 -78l-42 -31c-33 22 -53 65 -53 111c0 69 49 127 134 127c107 0 154 -81 154 -183c0 -128 -71 -203 -176 -219v-60c105 -10 242 -67 315 -149c-3 61 -5 105 -5 166v492h-708v52h890v-52z" />
    <glyph glyph-name="bnD_MA" horiz-adv-x="757" 
d="M601 -7c-3 61 -5 105 -5 166v423h-450v-262c58 60 151 153 239 191l52 -29c-21 -68 -34 -148 -34 -228v-132c96 -12 165 -78 198 -129zM777 582h-125v-693h-52c-37 97 -117 169 -201 183c-11 -55 -42 -77 -75 -77c-31 0 -52 19 -52 48c0 36 28 70 75 79v132
c0 68 9 134 24 190c-91 -61 -140 -114 -222 -202l-59 28v312h-110v52h797v-52z" />
    <glyph glyph-name="bnDH_MA" horiz-adv-x="809" 
d="M653 20c-3 61 -5 105 -5 166v396h-200v-433c98 -12 172 -78 205 -129zM829 582h-125v-666h-52c-37 97 -123 169 -208 183c-11 -55 -42 -77 -75 -77c-31 0 -52 19 -52 48c0 26 15 52 41 67l-303 121v65l41 23c53 30 96 44 96 44v4c-97 3 -150 48 -150 124
c0 69 46 123 135 123c41 0 83 -14 106 -35l-25 -44c-22 17 -49 27 -81 27c-49 0 -79 -30 -79 -72c0 -57 58 -76 112 -76c60 0 127 34 182 71v122h437v-52zM397 182h4c-7 72 -9 140 -9 204v59l-276 -151z" />
    <glyph glyph-name="bnN_MA" horiz-adv-x="793" 
d="M637 104c-3 61 -5 105 -5 166v312h-200v-349c98 -12 172 -78 205 -129zM813 582h-125v-582h-52c-37 97 -123 169 -208 183c-11 -55 -42 -77 -75 -77c-31 0 -52 19 -52 48c0 36 28 70 75 79v84l-68 58c-45 34 -80 55 -116 55c-62 0 -90 -38 -90 -79c0 -30 12 -51 27 -69
l-48 -23c-21 22 -35 55 -35 92c0 71 56 130 145 130c47 0 89 -12 152 -63l33 -30v194h-396v52h833v-52z" />
    <glyph glyph-name="bnP_MA" horiz-adv-x="890" 
d="M734 64c-3 61 -5 105 -5 166v352h-200v-389c98 -12 172 -78 205 -129zM95 500c70 -1 154 -34 181 -139l168 114c-33 67 -93 111 -176 111c-92 0 -153 -56 -173 -86zM785 -40h-52c-37 97 -123 169 -208 183c-11 -55 -42 -77 -75 -77c-31 0 -52 19 -52 48c0 37 28 71 76 79
v139c0 32 -4 62 -11 90l-311 -209l-29 45l108 73c-17 66 -57 111 -137 117c-7 1 -14 1 -38 1l-36 49c37 63 120 141 247 141s185 -65 215 -126h4s-13 94 -13 183v36h56v-98h381v-52h-125v-622z" />
    <glyph glyph-name="bnM_MA" horiz-adv-x="777" 
d="M381 411c60 0 78 47 78 84c0 44 -23 87 -86 87h-228c12 -19 21 -42 25 -66c108 -6 122 -105 211 -105zM624 84c-3 61 -5 105 -5 166v332h-133c15 -17 30 -49 30 -91c0 -60 -31 -115 -97 -131v-147c98 -12 172 -78 205 -129zM799 582h-124v-602h-52
c-37 97 -123 169 -208 183c-11 -55 -42 -77 -75 -77c-31 0 -52 19 -52 48c0 37 28 71 76 79v144c-106 9 -122 105 -203 105c-36 0 -62 -23 -62 -61c0 -30 12 -50 27 -68l-48 -23c-21 22 -35 54 -35 91c0 53 26 93 72 108c-7 29 -20 53 -37 73h-98v52h819v-52z" />
    <glyph glyph-name="bnL_MA" horiz-adv-x="964" 
d="M808 -7c-3 61 -5 105 -5 166v423h-200v-460c98 -12 172 -78 205 -129zM984 582h-125v-693h-52c-37 97 -123 169 -208 183c-11 -55 -42 -77 -75 -77c-31 0 -52 19 -52 48c0 36 28 70 75 79v250c-8 27 -38 67 -94 67c-51 0 -87 -38 -87 -103v-40h-56v39
c0 66 -40 100 -96 100c-52 0 -97 -42 -97 -117c0 -90 59 -138 132 -138c26 0 53 6 77 20l15 -51c-29 -15 -60 -22 -90 -22c-105 0 -192 78 -192 191c0 106 71 171 154 171c77 0 109 -37 123 -71h4c12 38 44 75 108 75c51 0 82 -25 95 -40h4v129h-567v52h1004v-52z" />
    <glyph glyph-name="bnSH_MA" horiz-adv-x="866" 
d="M710 64c-3 61 -5 105 -5 166v352h-200v-389c98 -12 172 -78 205 -129zM761 -40h-52c-37 97 -123 169 -208 183c-11 -55 -42 -77 -75 -77c-31 0 -52 19 -52 48c0 36 28 70 75 79v245c0 94 -38 143 -108 143c-58 0 -109 -41 -109 -117c0 -74 45 -116 116 -116
c8 0 18 1 28 2v-51c-9 -1 -19 -2 -27 -2c-69 0 -116 22 -147 77c-27 -56 -63 -78 -136 -78c-11 0 -24 1 -36 3v53c12 -3 26 -4 37 -4c82 0 110 55 110 116c0 67 -41 118 -120 118h-77v52h80c64 0 116 -22 145 -79c27 52 72 79 133 79c68 0 103 -36 117 -56h4s-10 53 -10 128
v26h56v-98h354v-52h-98v-622z" />
    <glyph glyph-name="bnS_MA" horiz-adv-x="846" 
d="M305 582c2 -87 40 -165 120 -165c63 0 86 47 86 107c0 21 -2 40 -6 58h-200zM567 524c0 -68 -27 -125 -82 -149v-142c98 -12 172 -78 205 -129c-3 61 -5 105 -5 166v312h-124c4 -19 6 -38 6 -58zM741 0h-52c-37 97 -123 169 -208 183c-11 -55 -42 -77 -75 -77
c-31 0 -52 19 -52 48c0 36 28 70 75 79v131h-5c-82 0 -131 57 -148 109c-19 -64 -58 -108 -124 -108c-59 0 -104 38 -131 80l41 34c22 -30 49 -61 90 -61c69 0 88 98 93 164h-265v52h881v-52h-120v-582z" />
    <glyph glyph-name="bnSS_MA" horiz-adv-x="733" 
d="M243 582c-29 0 -55 -8 -76 -23l185 -185c15 21 23 47 23 76c0 76 -57 132 -132 132zM243 319c25 0 49 6 68 18l-181 183c-11 -20 -18 -44 -18 -70c0 -76 56 -131 131 -131zM577 64c-3 61 -5 105 -5 166v352h-195c34 -32 54 -78 54 -132c0 -57 -22 -105 -59 -138v-119
c98 -12 172 -78 205 -129zM753 582h-125v-622h-52c-37 97 -123 169 -208 183c-11 -55 -42 -77 -75 -77c-31 0 -52 19 -52 48c0 36 28 70 75 79v85c-22 -8 -47 -13 -73 -13c-107 0 -187 77 -187 185c0 54 20 100 53 132h-129v52h773v-52z" />
    <glyph glyph-name="bnH_MA" horiz-adv-x="805" 
d="M825 582h-300v-148c73 15 131 39 168 63l44 -47s-18 -49 -18 -216v-154h-56v154c0 106 6 164 10 194c-31 -18 -84 -36 -148 -48v-380h-51c-20 89 -63 173 -177 181c-16 -57 -48 -74 -71 -74c-30 0 -46 18 -46 46c0 31 25 63 70 76c2 13 2 26 2 39c0 75 -55 121 -117 125
c-13 -55 -46 -76 -71 -76c-30 0 -46 19 -46 47c0 31 25 64 71 77v4c0 60 -23 105 -59 137h-50v52h845v-52zM474 135c-3 61 -5 113 -5 174v62c-32 -4 -67 -6 -102 -6c-26 0 -59 1 -91 4c19 -28 31 -63 31 -103c0 -12 0 -23 -1 -32c101 -6 155 -71 168 -99zM367 419
c36 0 70 2 102 6v157h-373c28 -38 45 -86 45 -136c18 -1 35 -5 51 -11c54 -10 101 -16 175 -16z" />
    <glyph glyph-name="bnK_SS_MA" horiz-adv-x="1063" 
d="M540 106c-3 61 -5 142 -5 203v44h-84c-76 0 -140 55 -140 147v82h-210c28 -38 45 -86 45 -136c86 -5 166 -74 166 -180c0 -12 0 -23 -1 -32c106 -6 202 -82 229 -128zM452 406h83v176h-168v-82c0 -59 28 -94 85 -94zM907 -115c-3 61 -5 124 -5 185v512h-311v-176h50
c97 0 165 -54 165 -142c0 -77 -36 -126 -90 -156l-41 42c43 19 75 56 75 114c0 62 -47 89 -109 89h-50v-319c147 -11 269 -94 316 -149zM1122 582h-164v-782h-52c-66 101 -193 174 -319 184c-9 -55 -37 -76 -70 -76c-31 0 -51 21 -51 50c0 34 23 63 62 73
c-36 76 -122 143 -226 150c-16 -57 -48 -74 -71 -74c-30 0 -46 18 -46 46c0 31 25 63 70 76c2 13 2 26 2 39c0 75 -55 121 -117 125c-13 -55 -46 -76 -71 -76c-30 0 -46 19 -46 47c0 31 25 64 71 77v4c0 60 -23 105 -59 137h-55v52h1142v-52z" />
    <glyph glyph-name="bnK_LA" horiz-adv-x="793" 
d="M813 582h-280v-37c135 -4 217 -69 217 -164c0 -77 -38 -128 -92 -158l-41 42c48 25 77 58 77 116c0 70 -60 109 -161 112v-648h-55v241c-8 27 -35 67 -86 67c-47 0 -80 -38 -80 -103v-40h-56v39c0 66 -37 100 -88 100c-52 0 -89 -42 -89 -117c0 -90 50 -133 123 -133
c19 0 40 4 58 11l15 -50c-22 -9 -45 -14 -71 -14c-105 0 -183 73 -183 186c0 106 63 171 146 171c74 0 101 -36 115 -65h4c13 33 42 69 101 69c47 0 74 -23 87 -38h4v57l-282 124v59c70 69 171 122 282 134v39h-498v52h833v-52zM484 284c-5 78 -6 142 -6 206
c-87 -13 -175 -58 -224 -107l226 -99h4z" />
    <glyph glyph-name="bnG_LA" horiz-adv-x="662" 
d="M557 732v-98h125v-52h-125v-736h-56v240c-8 27 -35 67 -86 67c-47 0 -80 -38 -80 -103v-40h-56v39c0 66 -37 100 -88 100c-52 0 -89 -42 -89 -117c0 -90 50 -133 123 -133c19 0 40 4 58 11l15 -50c-22 -9 -45 -14 -71 -14c-105 0 -183 73 -183 186c0 106 63 171 146 171
c74 0 101 -36 115 -65h4c13 33 42 69 101 69c47 0 74 -23 87 -38h4v202c0 103 -74 210 -200 210c-94 0 -151 -64 -173 -110c26 14 70 22 100 22c79 0 143 -50 143 -137c0 -60 -32 -116 -80 -161l-44 37c41 37 66 79 66 125c0 60 -43 84 -94 84c-38 0 -78 -11 -110 -28
l-43 41c26 100 123 180 234 180c138 0 197 -89 210 -120h4s-13 67 -13 156v62h56z" />
    <glyph glyph-name="bnT_LA" horiz-adv-x="650" 
d="M-20 634h690v-52h-690v52zM86 505c36 -197 120 -353 288 -353c106 0 168 75 168 170c0 89 -43 137 -109 137c-52 0 -87 -30 -87 -85c0 -29 15 -59 44 -76l-43 -32c-36 24 -57 66 -57 110c0 76 50 136 143 136c98 0 165 -80 165 -191c0 -60 -21 -114 -59 -153v-460h-56
v240c-8 27 -35 67 -86 67c-47 0 -80 -38 -80 -103v-40h-56v39c0 66 -37 100 -88 100c-52 0 -89 -42 -89 -117c0 -90 50 -133 123 -133c19 0 40 4 58 11l15 -50c-22 -9 -45 -14 -71 -14c-105 0 -183 73 -183 186c0 106 63 171 146 171c74 0 101 -36 115 -65h4
c13 33 45 69 101 69c47 0 74 -23 87 -38h4v96c-31 -16 -68 -25 -109 -25c-195 0 -300 161 -340 381z" />
    <glyph glyph-name="bnP_LA" horiz-adv-x="666" 
d="M117 500c70 -1 154 -34 181 -138l176 111c-36 69 -100 113 -184 113c-92 0 -153 -56 -173 -86zM78 449l-36 49c37 63 120 141 247 141s195 -76 225 -137h4s-13 94 -13 183v47h56v-98h125v-52h-125v-670h-55v241c-8 27 -35 67 -84 67c-50 0 -82 -38 -82 -103v-40h-56v39
c0 66 -37 100 -88 100c-52 0 -89 -42 -89 -117c0 -90 50 -133 123 -133c19 0 40 4 58 11l15 -50c-22 -9 -45 -14 -71 -14c-105 0 -183 73 -183 186c0 72 29 125 74 152l129 82c-18 71 -63 116 -156 116h-18zM314 205c13 33 44 69 101 69c47 0 74 -23 87 -38h4v96
c0 32 -4 62 -12 90l-148 -93c-40 -25 -76 -47 -107 -64c42 -11 60 -38 71 -60h4z" />
    <glyph glyph-name="bnPH_LA" horiz-adv-x="812" 
d="M475 -225v242c-8 28 -34 67 -85 67c-47 0 -81 -38 -81 -103v-40h-56v39c0 66 -37 100 -88 100c-52 0 -89 -42 -89 -117c0 -90 50 -134 123 -134c19 0 40 4 58 11l15 -50c-22 -9 -45 -14 -71 -14c-105 0 -183 74 -183 187c0 106 63 171 146 171c72 0 101 -36 115 -65h4
c13 33 45 69 102 69c44 0 73 -23 86 -38h4v56l-315 120v67l148 101l-134 123v15h-194v52h852v-52h-588v-4l124 -113v-49l-151 -102l261 -100h4c-5 78 -7 131 -7 197v90c34 14 70 20 116 20c102 0 188 -53 188 -160c0 -87 -54 -141 -117 -166l-35 45c58 22 96 65 96 120
c0 65 -53 106 -122 106c-29 0 -50 -2 -70 -7v-684h-56z" />
    <glyph glyph-name="bnB_LA" horiz-adv-x="637" 
d="M657 582h-125v-774h-56v240c-8 27 -34 67 -85 67c-47 0 -81 -38 -81 -103v-40h-56v39c0 66 -37 100 -88 100c-52 0 -89 -42 -89 -117c0 -90 50 -133 123 -133c19 0 40 4 58 11l15 -50c-22 -9 -45 -14 -71 -14c-105 0 -183 73 -183 186c0 106 63 171 146 171
c74 0 101 -36 115 -65h4c13 33 46 69 102 69c47 0 73 -23 86 -38h4v57l-291 141v69c91 81 197 133 291 165v19h-496v52h677v-52zM479 251h4c-5 78 -7 150 -7 216v38c-79 -29 -158 -71 -242 -139z" />
    <glyph glyph-name="bnBH_LA" horiz-adv-x="646" 
d="M541 -75h-56v240c-8 27 -35 67 -86 67c-47 0 -80 -38 -80 -103v-40h-56v39c0 66 -37 100 -88 100c-52 0 -89 -42 -89 -117c0 -90 50 -133 123 -133c19 0 40 4 58 11l15 -50c-22 -9 -45 -14 -71 -14c-105 0 -183 73 -183 186c0 106 63 171 146 171c74 0 101 -36 115 -65h4
c13 33 45 69 101 69c47 0 74 -23 87 -38h4v63c0 66 -14 108 -35 137h-4c-47 -101 -103 -130 -159 -130c-72 0 -121 51 -121 116c0 23 8 49 22 69l58 -12c-14 -13 -23 -36 -23 -57c0 -37 21 -65 64 -65c45 0 84 33 133 147h44c50 -50 77 -125 77 -204v-387zM666 582h-686v52
h686v-52z" />
    <glyph glyph-name="bnM_LA" horiz-adv-x="666" 
d="M-20 634h706v-52h-132c15 -17 30 -49 30 -91c0 -29 -8 -58 -23 -81v-479h-56v241c-8 27 -35 67 -86 67c-47 0 -80 -38 -80 -103v-40h-56v39c0 66 -37 100 -88 100c-52 0 -89 -42 -89 -117c0 -90 50 -134 123 -134c19 0 42 4 60 11l13 -50c-22 -9 -45 -14 -71 -14
c-105 0 -183 74 -183 187c0 106 63 171 146 171c74 0 101 -36 115 -65h4c13 33 42 69 101 69c47 0 74 -23 87 -38h4v111c-16 -7 -35 -10 -56 -10c-121 0 -145 106 -230 106c-36 0 -62 -23 -62 -61c0 -26 9 -45 21 -61l-48 -23c-18 22 -29 51 -29 84c0 56 30 98 82 111
c-7 27 -20 50 -37 70h-166v52zM449 411c60 0 78 47 78 84c0 44 -23 87 -86 87h-228c13 -20 21 -43 26 -67c99 -12 124 -104 210 -104z" />
    <glyph glyph-name="bnL_LA" horiz-adv-x="716" 
d="M348 191c12 38 41 75 108 75c51 0 82 -25 95 -40h4v161c-8 27 -38 67 -94 67c-51 0 -87 -38 -87 -103v-40h-56v39c0 66 -40 100 -96 100c-52 0 -97 -42 -97 -117c0 -36 10 -66 26 -88c21 11 45 17 70 17c77 0 109 -37 123 -71h4zM736 582h-125v-686h-56v249
c-8 27 -38 67 -94 67c-51 0 -87 -38 -87 -103v-40h-56v39c0 66 -40 100 -96 100c-52 0 -97 -42 -97 -117c0 -90 59 -138 132 -138c23 0 48 4 68 13l13 -50c-22 -10 -48 -16 -79 -16c-105 0 -192 78 -192 191c0 50 16 91 42 121c-26 32 -42 73 -42 121c0 106 71 171 154 171
c77 0 109 -37 123 -71h4c12 38 41 75 108 75c51 0 82 -25 95 -40h4v114h-575v52h756v-52z" />
    <glyph glyph-name="bnSH_LA" horiz-adv-x="673" 
d="M568 -130h-56v245c-8 27 -35 67 -86 67c-47 0 -80 -38 -80 -103v-40h-56v39c0 66 -37 100 -88 100c-52 0 -89 -42 -89 -117c0 -90 50 -134 123 -134c19 0 40 4 58 11l15 -50c-22 -9 -45 -14 -71 -14c-105 0 -183 74 -183 187c0 106 63 171 146 171c74 0 101 -36 115 -65
h4c13 33 42 69 101 69c47 0 74 -23 87 -38h4v240c0 94 -37 141 -114 141c-61 0 -111 -32 -111 -115c0 -78 45 -116 116 -116c17 0 42 2 55 9v-52c-14 -4 -38 -8 -54 -8c-69 0 -116 22 -147 77c-27 -56 -67 -78 -140 -78c-16 0 -40 3 -54 7v55c13 -7 38 -10 55 -10
c82 0 114 47 114 116c0 84 -45 118 -119 118h-133v52h131c73 0 120 -22 149 -79c27 52 74 77 135 77c75 0 109 -41 123 -65h4s-10 53 -10 128v37h56v-98h125v-52h-125v-712z" />
    <glyph glyph-name="bnS_LA" horiz-adv-x="646" 
d="M91 479c22 -30 49 -61 90 -61c69 0 88 98 93 164h-294v52h686v-52h-76c4 -19 6 -38 6 -58c0 -42 -10 -80 -31 -108v-462h-56v241c-8 27 -35 67 -86 67c-47 0 -80 -38 -80 -103v-40h-56v39c0 66 -37 100 -88 100c-52 0 -89 -42 -89 -117c0 -90 50 -134 123 -134
c19 0 40 4 58 11l15 -50c-22 -9 -45 -14 -71 -14c-105 0 -183 74 -183 187c0 106 63 171 146 171c74 0 101 -36 115 -65h4c13 33 42 69 101 69c47 0 74 -23 87 -38h4v95c-16 -6 -35 -9 -56 -9c-82 0 -131 57 -148 109c-19 -64 -58 -108 -124 -108c-59 0 -104 38 -131 80z
M540 524c0 21 -2 40 -6 58h-200c2 -87 40 -165 120 -165c63 0 86 47 86 107z" />
    <glyph glyph-name="bnH_LA" horiz-adv-x="588" 
d="M162 218h40c178 0 234 72 234 155c0 66 -51 106 -120 106c-64 0 -109 -38 -109 -97c0 -29 16 -59 44 -76l-45 -32c-36 24 -55 64 -55 108c0 85 69 150 164 150c103 0 177 -63 177 -163c0 -111 -76 -174 -194 -190v-4c41 -5 77 -13 145 -38l143 -53l-37 -45
c-16 6 -31 12 -46 17v-341h-56v221c-5 23 -26 67 -74 67c-47 0 -71 -41 -71 -103v-30h-56v29c0 61 -27 104 -78 104c-52 0 -83 -42 -83 -110c0 -90 55 -124 116 -124c17 0 35 3 51 9l15 -51c-20 -7 -41 -11 -69 -11c-95 0 -171 64 -171 177c0 101 56 164 139 164
c66 0 92 -38 106 -67h4c14 32 43 67 92 67c39 0 62 -20 75 -35h4v55c-173 64 -224 74 -285 79v62zM608 582h-628v52h628v-52z" />
    <glyph glyph-name="bnS_K_LA" horiz-adv-x="758" 
d="M118 479c22 -30 49 -61 90 -61c69 0 88 98 93 164h-321v52h798v-52h-161c4 -19 6 -38 6 -58c0 -50 -14 -93 -43 -122c87 -26 129 -93 129 -161c0 -60 -27 -117 -85 -152l-40 41c47 30 69 67 69 111c0 71 -53 117 -154 117v-643h-56v221c-5 23 -26 67 -74 67
c-47 0 -71 -41 -71 -103v-30h-56v29c0 61 -27 104 -78 104c-52 0 -83 -42 -83 -110c0 -90 55 -124 116 -124c17 0 35 3 51 9l15 -51c-20 -7 -41 -11 -69 -11c-95 0 -171 64 -171 177c0 101 56 164 139 164c66 0 92 -38 106 -67h4c14 32 43 67 92 67c39 0 62 -20 75 -35h4v36
l-271 147v61c55 54 131 104 214 129c-27 21 -45 50 -54 78c-19 -64 -58 -108 -124 -108c-59 0 -104 38 -131 80zM567 524c0 21 -2 40 -6 58h-200c2 -87 40 -165 120 -165c63 0 86 47 86 107zM450 120c-5 78 -6 142 -6 208v25c-86 -17 -164 -68 -218 -113l220 -120h4z" />
    <glyph glyph-name="bnM_P_LA" horiz-adv-x="1066" 
d="M517 500c70 -1 154 -34 181 -138l176 111c-36 69 -100 113 -184 113c-92 0 -153 -56 -173 -86zM961 -88h-55v241c-8 27 -35 67 -86 67c-47 0 -80 -38 -80 -103v-40h-56v39c0 66 -37 100 -88 100c-52 0 -89 -42 -89 -117c0 -90 50 -133 123 -133c19 0 40 4 58 11l15 -50
c-22 -9 -45 -14 -71 -14c-105 0 -183 73 -183 186c0 72 29 125 74 152l129 82c-17 67 -58 111 -142 116c-14 -52 -56 -93 -129 -93c-121 0 -135 106 -220 106c-36 0 -62 -23 -62 -61c0 -30 12 -50 27 -68l-48 -23c-21 22 -35 54 -35 91c0 53 26 93 72 108
c-7 29 -20 53 -37 73h-98v52h445c35 -15 60 -37 75 -67c44 40 107 72 189 72c127 0 195 -76 225 -137h4s-13 94 -13 183v47h56v-98h125v-52h-125v-670zM714 205c13 33 42 69 101 69c47 0 74 -23 87 -38h4v96c0 32 -4 62 -12 90l-148 -93c-40 -25 -76 -47 -107 -64
c42 -11 60 -38 71 -60h4zM381 411c60 0 78 47 78 84c0 44 -23 87 -86 87h-228c12 -19 21 -42 25 -66c108 -6 122 -105 211 -105z" />
    <glyph glyph-name="bnS_P_LA" horiz-adv-x="1117" 
d="M740 639c127 0 195 -76 225 -137h4s-13 94 -13 183v47h56v-98h125v-52h-125v-670h-55v241c-8 27 -35 67 -86 67c-47 0 -80 -38 -80 -103v-40h-56v39c0 66 -37 100 -88 100c-52 0 -89 -42 -89 -117c0 -90 50 -133 123 -133c19 0 40 4 58 11l15 -50c-22 -9 -45 -14 -71 -14
c-105 0 -183 73 -183 186c0 72 29 125 74 152l129 82c-17 69 -61 114 -149 116c-20 -51 -62 -85 -130 -85c-82 0 -131 57 -148 109c-19 -64 -58 -108 -124 -108c-59 0 -104 38 -131 80l41 34c22 -30 49 -61 90 -61c69 0 88 98 93 164h-265v52h569c7 -22 11 -41 14 -57
c44 35 103 62 177 62zM765 205c13 33 42 69 101 69c47 0 74 -23 87 -38h4v96c0 32 -4 62 -12 90l-148 -93c-40 -25 -76 -47 -106 -64c41 -11 59 -38 70 -60h4zM511 524c0 21 -2 40 -6 58h-200c2 -87 40 -165 120 -165c63 0 86 47 86 107zM568 500c70 -1 154 -34 181 -138
l176 111c-36 69 -100 113 -184 113c-92 0 -153 -56 -173 -86z" />
    <glyph glyph-name="bnNG_K_SSA" horiz-adv-x="1405" 
d="M371 448c58 0 90 30 90 74c0 39 -31 70 -82 70c-57 0 -85 -35 -85 -103v-25c23 -10 49 -16 77 -16zM608 268c0 -118 -91 -197 -246 -197c-193 0 -313 151 -326 327l54 14c16 -186 131 -285 273 -285c123 0 189 60 189 140c0 28 -5 52 -17 71c-62 -47 -114 -72 -177 -72
c-73 0 -117 47 -117 116v50c-62 37 -106 96 -127 150h-134v52h174c12 -44 41 -100 88 -139c2 103 55 149 134 149c81 0 140 -52 140 -122c0 -84 -64 -126 -146 -126c-27 0 -52 4 -76 12v-23c0 -43 19 -65 64 -65c59 0 126 39 185 95c14 -11 28 -27 40 -48c2 31 26 62 71 74
v4c0 60 -23 105 -59 137h-55v52h885v-52h-274v-176h50c97 0 165 -54 165 -142c0 -77 -36 -126 -90 -156l-41 42c43 19 75 56 75 114c0 62 -47 89 -109 89h-50v-353h-51c-25 88 -120 173 -238 181c-16 -57 -48 -74 -71 -74c-30 0 -46 18 -46 46c0 31 25 63 70 76
c2 13 2 26 2 39c0 75 -55 121 -117 125c-13 -55 -46 -76 -71 -76c-12 0 -21 3 -29 8c5 -17 8 -36 8 -57zM1100 106c-3 61 -5 142 -5 203v44h-84c-76 0 -140 55 -140 147v82h-210c28 -38 45 -86 45 -136c86 -5 166 -74 166 -180c0 -12 0 -23 -1 -32c106 -6 202 -82 229 -128z
M1012 406h83v176h-168v-82c0 -59 28 -94 85 -94z" />
    <glyph glyph-name="bnK_SA" horiz-adv-x="907" 
d="M927 582h-125v-582h-52c-3 68 -44 118 -157 118c-104 0 -229 -28 -367 -28c-76 0 -160 28 -194 112l48 29c21 -65 86 -88 153 -88c33 0 68 2 103 6v43l-272 136v61c67 66 167 126 272 143v50h-356v52h947v-52zM759 106c-2 19 -13 70 -13 205v271h-355v-46
c141 0 210 -85 210 -172c0 -60 -27 -117 -85 -152l-40 41c47 30 69 67 69 111c0 71 -53 117 -154 117v-327c70 8 141 17 204 17c94 0 136 -33 160 -65h4zM342 253c-5 78 -6 142 -6 208v15c-86 -17 -164 -68 -218 -113l220 -110h4z" />
    <glyph glyph-name="bnN_SA" horiz-adv-x="840" 
d="M-20 634h880v-52h-125v-582h-56v277c0 42 -21 66 -62 66c-42 0 -82 -50 -123 -100c-42 -50 -88 -100 -151 -100c-53 0 -92 26 -115 54l37 40c15 -21 39 -41 80 -41c20 0 37 6 50 16l-99 101c-49 49 -87 75 -137 75c-42 0 -72 -25 -72 -64c0 -33 12 -51 28 -70l-46 -25
c-24 22 -38 54 -38 95c0 70 51 115 126 118c71 0 111 -29 176 -92l93 -91c4 13 6 27 6 42c0 71 -22 110 -86 182l-71 84v15h-295v52zM679 508v74h-341v-4l58 -71c45 -53 86 -106 86 -181c0 -6 0 -16 -1 -22c26 41 71 94 132 94c32 0 54 -12 69 -26c-3 68 -3 136 -3 136z" />
    <glyph glyph-name="bnP_SA" horiz-adv-x="941" 
d="M302 634h659v-52h-125v-582h-56v277c0 42 -21 66 -62 66c-42 0 -82 -50 -123 -100c-42 -50 -88 -100 -151 -100c-53 0 -92 26 -115 54l37 40c15 -21 39 -41 80 -41c8 0 15 1 22 3l-91 130l-274 -167l-30 41l105 64c-21 53 -59 100 -139 100h-17l-34 46
c34 49 100 111 199 111c120 0 176 -85 215 -137l110 -158c14 19 21 45 21 72c0 71 -22 110 -86 182l-71 84v15h-74v52zM62 415c57 -3 123 -37 158 -123l129 78c-41 54 -89 104 -161 104c-71 0 -112 -42 -126 -59zM780 508v74h-341v-4l58 -71c45 -53 86 -106 86 -181
c0 -6 0 -16 -1 -22c26 41 71 94 132 94c32 0 54 -12 69 -26c-3 68 -3 136 -3 136z" />
    <glyph glyph-name="bnK_RA" horiz-adv-x="877" 
d="M258 328c0 -43 26 -67 70 -67c35 0 61 15 72 24l25 -48c-24 -19 -61 -30 -97 -30c-78 0 -128 50 -128 121c0 105 97 196 223 196c74 0 119 -47 125 -109c31 37 77 56 132 56c93 0 163 -63 163 -156c0 -104 -73 -158 -149 -158c-31 0 -63 5 -89 18l15 51
c27 -11 47 -14 70 -14c52 0 97 34 97 103c0 61 -40 102 -106 102c-84 0 -132 -61 -132 -169v-288h-52c0 73 -41 115 -197 125c-198 13 -268 66 -268 174c0 28 8 61 22 92l57 -12c-15 -28 -23 -58 -23 -84c0 -69 38 -105 214 -117c151 -10 179 -44 200 -72h4
c-2 19 -13 70 -13 205v116c0 54 -23 83 -71 83c-91 0 -164 -63 -164 -142zM-20 582v52h917v-52h-917z" />
    <glyph glyph-name="bnKH_RA" horiz-adv-x="631" 
d="M474 -28c-6 63 -44 109 -118 109c-47 0 -112 -2 -145 -2c-108 0 -175 64 -181 162l55 15c0 -70 39 -123 131 -123c35 0 86 2 122 2c87 0 123 -27 141 -61h4c-1 12 -12 37 -13 106l-376 122v70c133 1 258 20 258 120c0 30 -16 56 -32 69c-35 -78 -87 -110 -147 -110
c-74 0 -115 45 -115 105c0 30 9 60 19 78h56c-10 -18 -22 -47 -22 -78c0 -30 17 -54 62 -54c51 0 84 28 119 132h28c47 -40 86 -84 86 -142c0 -105 -81 -150 -213 -165v-4l279 -84h4c-5 78 -6 147 -6 213v280h56v-98h110v-52h-110v-610h-52z" />
    <glyph glyph-name="bnG_RA" horiz-adv-x="622" 
d="M517 732v-98h125v-52h-125v-610h-52c-6 63 -44 109 -118 109c-47 0 -112 -2 -145 -2c-108 0 -175 64 -181 162l55 15c0 -70 39 -123 131 -123c35 0 86 2 122 2c87 0 123 -27 141 -61h4c-1 12 -13 39 -13 111v187c0 103 -61 209 -180 209c-85 0 -141 -51 -163 -97
c24 11 58 19 93 19c85 0 149 -50 149 -134c0 -94 -65 -152 -119 -189l-44 38c48 31 105 79 105 152c0 55 -43 81 -98 81c-39 0 -76 -10 -106 -24l-43 41c28 100 114 166 225 166c114 0 171 -77 190 -113h4s-13 70 -13 159v52h56z" />
    <glyph glyph-name="bnGH_RA" horiz-adv-x="615" 
d="M458 -107c-6 63 -44 109 -118 109c-47 0 -82 -2 -115 -2c-108 0 -175 64 -181 162l55 15c0 -70 39 -123 131 -123c35 0 56 2 92 2c87 0 123 -27 141 -61h4c-1 12 -13 39 -13 111v28l-367 94v64l54 33c53 33 76 41 86 46v4c-98 4 -144 54 -144 125c0 31 10 60 27 82h-130
v52h655v-52h-125v-689h-52zM460 189c-5 78 -6 153 -6 219v174h-275c-25 -20 -40 -49 -40 -82c0 -58 46 -81 98 -81s81 12 117 33l26 -48l-226 -137l302 -78h4z" />
    <glyph glyph-name="bnNG_RA" horiz-adv-x="666" 
d="M298 489v-25c23 -10 49 -16 77 -16c58 0 90 30 90 74c0 39 -31 70 -82 70c-57 0 -85 -35 -85 -103zM491 -179h-52c-6 63 -32 109 -105 109c-47 0 -60 -2 -93 -2c-101 0 -170 54 -176 152l55 15c0 -70 41 -113 125 -113c26 0 35 2 71 2c87 0 112 -27 130 -61h4
c-1 12 -15 39 -15 111v43c-21 -4 -44 -6 -69 -6c-200 0 -317 150 -330 326l58 15c16 -186 131 -285 273 -285c123 0 186 60 186 140c0 28 -5 52 -17 71c-62 -47 -113 -72 -176 -72c-73 0 -115 47 -115 116v50c-62 37 -106 96 -127 150h-138v52h178c12 -44 41 -100 88 -139
c2 103 55 149 134 149c81 0 140 -53 140 -123c0 -84 -64 -125 -146 -125c-27 0 -52 4 -76 12v-23c0 -43 19 -65 64 -65c59 0 125 42 184 98c30 -24 66 -77 66 -150c0 -85 -43 -146 -121 -176v-271z" />
    <glyph glyph-name="bnC_RA" horiz-adv-x="503" 
d="M-20 582v52h543v-52h-351c13 -29 42 -45 74 -57l76 -28c85 -31 126 -67 126 -144c0 -27 -7 -54 -21 -79v-363h-52c-6 63 -32 109 -105 109c-47 0 -60 -2 -93 -2c-101 0 -170 54 -176 152l55 15c0 -70 41 -113 125 -113c26 0 35 2 71 2c87 0 112 -27 130 -61h4
c-1 12 -15 39 -15 111v85c-36 -28 -83 -46 -135 -46c-77 0 -126 45 -126 117v302h-130zM166 517h-4c1 -37 4 -63 4 -160v-74c0 -41 21 -67 70 -67c73 0 154 60 154 138c0 40 -12 64 -88 91l-57 20c-46 16 -70 39 -79 52z" />
    <glyph glyph-name="bnCH_RA" horiz-adv-x="606" 
d="M144 582c18 -37 85 -48 141 -71c18 5 44 11 72 11c100 0 181 -62 181 -163c0 -133 -96 -201 -288 -205v-4c23 -7 65 -24 140 -64l168 -90l-38 -42c-14 8 -28 16 -41 23v-172h-52c-6 63 -44 109 -118 109c-47 0 -82 -2 -115 -2c-108 0 -175 64 -181 162l55 15
c0 -70 39 -123 131 -123c35 0 56 2 92 2c87 0 123 -27 141 -61h4c-1 11 -12 36 -13 101c-227 125 -266 137 -322 142v51h108c185 0 274 54 274 158c0 81 -64 111 -133 111h-3c13 -15 21 -35 21 -60c0 -75 -62 -147 -153 -147c-75 0 -114 48 -114 110v209h-121v52h646v-52
h-482zM314 411c0 66 -103 53 -159 99v-137c0 -34 17 -58 61 -58c57 0 98 47 98 96z" />
    <glyph glyph-name="bnJ_RA" horiz-adv-x="762" 
d="M612 -128c-6 75 -61 109 -138 109c-47 0 -218 -2 -251 -2c-119 0 -195 64 -201 162l55 15c0 -70 51 -123 151 -123c35 0 192 2 228 2c87 0 137 -28 161 -69h4c-1 12 -13 39 -13 111v93c0 113 38 188 38 188c-125 7 -203 86 -224 179c-42 -24 -125 -63 -125 -115
c0 -36 28 -47 75 -50l105 -8c28 -23 45 -67 45 -104c0 -92 -66 -162 -181 -162c-171 0 -296 166 -296 362l55 13c0 -176 100 -319 240 -319c84 0 126 48 126 102c0 25 -7 44 -18 57l-89 7c-64 5 -118 31 -118 101c0 74 89 124 157 161h-418v52h802v-52h-317
c10 -77 55 -175 200 -175h17l29 -38c-22 -39 -47 -103 -47 -201v-296h-52z" />
    <glyph glyph-name="bnJH_RA" horiz-adv-x="755" 
d="M392 261h4c-5 78 -7 150 -7 216v28c-75 -29 -141 -68 -226 -127zM595 456v276h55v-98h125v-52h-125v-312l-55 -30l-150 78v-316h-52c-3 55 -36 109 -110 109c-47 0 -60 -1 -93 -1c-108 0 -165 63 -171 161l55 15c0 -70 29 -122 121 -122c35 0 34 1 70 1
c87 0 114 -30 133 -61h4c-1 11 -11 35 -13 95l-276 144v69c95 72 185 119 276 151v19h-409v52h465v-253l154 -79l4 3c-1 12 -8 59 -8 151z" />
    <glyph glyph-name="bnNY_RA" horiz-adv-x="852" 
d="M382 634c70 0 107 -40 117 -85c13 31 62 87 142 87c76 0 130 -50 130 -120c0 -51 -28 -86 -66 -103v-4c35 -12 77 -44 77 -106c0 -74 -55 -128 -139 -128c-74 0 -127 53 -139 75c0 0 4 -39 4 -94v-290h-52c-6 63 -32 109 -105 109c-47 0 -89 -4 -132 -4
c-101 0 -161 61 -167 164l55 15c2 -78 32 -125 116 -125c36 0 74 4 110 4c87 0 112 -27 130 -61h4c-1 12 -15 39 -15 111v5c0 56 -59 83 -186 100c-151 20 -228 65 -228 160c0 37 12 75 33 106l49 -23c-18 -26 -26 -55 -26 -83c0 -64 65 -88 173 -103
c126 -17 168 -42 194 -75h4c-2 19 -13 70 -13 205v126c0 54 -18 83 -71 83c-91 0 -154 -73 -154 -152c0 -43 26 -67 70 -67c35 0 61 15 72 24l25 -48c-24 -19 -61 -30 -97 -30c-78 0 -128 50 -128 121c0 105 87 206 213 206zM635 582c-57 0 -129 -52 -129 -171
c0 -107 50 -182 137 -182c55 0 82 36 82 74c0 49 -33 79 -94 79h-21v52h17c54 0 87 33 87 82c0 38 -26 66 -79 66z" />
    <glyph glyph-name="bnTT_RA" horiz-adv-x="534" 
d="M2 911l53 13c-1 -11 -3 -23 -3 -34c0 -37 15 -73 96 -73h150c96 0 165 -44 165 -131c0 -14 -2 -34 -6 -52h97v-52h-399v-267c0 -59 37 -87 96 -87c95 0 153 64 153 147c0 55 -22 91 -78 91c-29 0 -54 -16 -69 -37l-36 45c19 23 52 46 103 46c84 0 138 -57 138 -145
c0 -38 -9 -72 -24 -100v-332h-52c-3 55 -36 109 -110 109c-47 0 -60 -1 -93 -1c-108 0 -165 63 -171 161l55 15c0 -70 29 -122 121 -122c35 0 34 1 70 1c87 0 114 -30 133 -61h4c-1 12 -13 39 -13 111v57c-35 -25 -80 -38 -131 -38c-83 0 -152 45 -152 136v271h-119v52h421
c4 16 6 38 6 49c0 57 -35 82 -116 82h-148c-113 0 -143 57 -143 116c0 10 0 20 2 30z" />
    <glyph glyph-name="bnTTH_RA" horiz-adv-x="571" 
d="M513 269c0 -44 -13 -87 -38 -121v-315h-52c-3 55 -36 109 -110 109c-47 0 -60 -1 -93 -1c-108 0 -165 63 -171 161l55 15c0 -70 29 -122 121 -122c35 0 34 1 70 1c87 0 114 -30 133 -61h4c-1 12 -13 39 -13 111v51c-30 -18 -68 -28 -111 -28c-122 0 -219 102 -225 216
c120 32 173 89 173 209v76l-12 12h-264v52h228c-47 52 -63 104 -63 147c0 89 70 146 162 143l12 -54c-69 6 -118 -31 -118 -93c0 -43 28 -92 73 -143h326v-52h-288c148 -151 201 -203 201 -313zM308 514c15 -187 -106 -244 -158 -262c3 -48 60 -129 160 -129
c94 0 146 69 146 145c0 98 -77 171 -148 246z" />
    <glyph glyph-name="bnDD_RA" horiz-adv-x="652" 
d="M672 582h-360v-111c0 -36 14 -60 53 -60c40 0 87 24 154 87c28 -18 71 -76 71 -153c0 -60 -16 -109 -48 -145v-317h-52c-6 63 -44 109 -118 109c-47 0 -112 -2 -145 -2c-108 0 -175 64 -181 162l55 15c0 -70 39 -123 131 -123c35 0 86 2 122 2c87 0 123 -27 141 -61h4
c-1 12 -13 39 -13 111v61c-35 -18 -79 -27 -130 -27c-191 0 -294 162 -307 346l55 11c11 -181 103 -303 253 -303c113 0 177 68 177 161c0 31 -6 56 -20 76c-50 -39 -96 -63 -149 -63c-67 0 -109 48 -109 110v114h-276v52h692v-52z" />
    <glyph glyph-name="bnDDH_RA" horiz-adv-x="540" 
d="M159 582v-257c0 -59 37 -87 96 -87c95 0 153 59 153 142c0 55 -25 87 -81 87c-29 0 -54 -16 -69 -37l-36 45c19 23 52 46 103 46c84 0 139 -53 139 -141c0 -37 -8 -69 -22 -96v-343h-52c-3 55 -36 109 -110 109c-47 0 -60 -1 -93 -1c-108 0 -165 63 -171 161l55 15
c0 -70 29 -122 121 -122c35 0 34 1 70 1c87 0 114 -30 133 -61h4c-1 12 -13 39 -13 129v49c-35 -23 -80 -36 -131 -36c-83 0 -152 45 -152 136v261h-123v52h580v-52h-401z" />
    <glyph glyph-name="bnNN_RA" horiz-adv-x="569" 
d="M230 592c-95 0 -144 -67 -144 -150s60 -121 127 -121c28 0 52 6 72 16l15 -47c-21 -13 -51 -21 -87 -21c-98 0 -184 66 -184 174c0 111 73 201 201 201c112 0 160 -71 181 -113h4c-1 18 -7 67 -7 150v51h56v-98h125v-52h-125v-621h-52c-6 63 -32 109 -105 109
c-47 0 -60 -2 -93 -2c-101 0 -170 54 -176 152l55 15c0 -70 41 -113 125 -113c26 0 35 2 71 2c87 0 112 -27 130 -61h4c-1 12 -15 39 -15 111v166c0 154 -63 252 -178 252z" />
    <glyph glyph-name="bnT_RA" horiz-adv-x="659" 
d="M263 328c0 79 76 142 159 142c61 0 76 -40 76 -83v-116c0 -135 11 -186 13 -205h-4c-18 26 -66 65 -220 72c-151 7 -194 48 -194 117c0 26 8 56 23 84l-59 12c-14 -31 -22 -64 -22 -92c0 -104 62 -166 250 -174c166 -7 217 -52 217 -125h52v439c0 69 -45 125 -126 125
c-126 0 -223 -91 -223 -196c0 -71 50 -121 128 -121c36 0 73 11 97 30l-25 48c-11 -9 -37 -24 -72 -24c-44 0 -70 24 -70 67zM-20 582v52h699v-52h-699z" />
    <glyph glyph-name="bnTH_RA" horiz-adv-x="632" 
d="M177 417l-44 -29c-42 30 -52 75 -52 106c0 86 68 145 158 145c88 0 170 -50 170 -155c0 -93 -63 -173 -234 -186v-4l298 -102h4c-5 78 -6 144 -6 210v330h56v-98h125v-52h-125v-680h-52c-3 55 -36 109 -110 109c-47 0 -110 -1 -143 -1c-108 0 -165 63 -171 161l55 15
c0 -70 29 -122 121 -122c35 0 84 1 120 1c87 0 114 -30 133 -61h4c-1 12 -13 39 -13 111v20l-381 133v75c195 4 261 58 261 142c0 62 -42 100 -112 100c-54 0 -100 -34 -100 -91c0 -30 13 -56 38 -77z" />
    <glyph glyph-name="bnD_RA" horiz-adv-x="550" 
d="M570 582h-398v-264c58 60 170 153 258 191l52 -29c-21 -68 -33 -148 -33 -228v-302h-52c-3 55 -36 109 -110 109c-47 0 -60 -1 -93 -1c-108 0 -165 63 -171 161l55 15c0 -70 29 -122 121 -122c35 0 34 1 70 1c87 0 114 -30 133 -61h4c-1 12 -13 39 -13 111v89
c0 68 9 139 24 195c-91 -61 -159 -115 -242 -207l-59 28v314h-136v52h590v-52z" />
    <glyph glyph-name="bnDH_RA" horiz-adv-x="588" 
d="M133 517c0 -57 58 -76 112 -76c60 0 127 34 182 71v122h181v-52h-125v-680h-52c-3 55 -36 109 -110 109c-47 0 -60 -1 -93 -1c-108 0 -165 63 -171 161l55 15c0 -70 29 -122 121 -122c35 0 34 1 70 1c87 0 114 -30 133 -61h4c-2 12 -13 55 -13 120l-337 134v65l41 23
c53 30 96 44 96 44v4c-97 3 -150 48 -150 124c0 69 46 123 135 123c41 0 83 -14 106 -35l-25 -44c-22 17 -49 27 -81 27c-49 0 -79 -30 -79 -72zM436 182c-6 75 -9 140 -9 204v59l-276 -151l281 -112h4z" />
    <glyph glyph-name="bnN_RA" horiz-adv-x="530" 
d="M-20 582v52h569v-52h-109v-609h-52c-3 55 -36 109 -110 109c-47 0 -60 -1 -93 -1c-108 0 -165 63 -171 161l55 15c0 -70 29 -122 121 -122c35 0 34 1 70 1c87 0 114 -30 133 -61h4c-1 12 -13 39 -13 111v70c-28 96 -90 187 -183 187c-64 0 -91 -36 -91 -78
c0 -30 12 -50 27 -68l-48 -23c-21 22 -35 54 -35 91c0 74 54 132 146 132c87 0 151 -45 190 -126h4s-10 67 -10 211h-404z" />
    <glyph glyph-name="bnP_RA" horiz-adv-x="640" 
d="M101 500c67 -1 146 -31 177 -124l163 115c-34 58 -91 95 -167 95c-92 0 -153 -56 -173 -86zM62 449l-36 49c37 63 120 141 247 141s185 -65 215 -126h4s-13 94 -13 183v36h56v-98h125v-52h-125v-609h-52c-3 55 -40 109 -114 109c-47 0 -131 -1 -164 -1
c-108 0 -170 63 -176 161l55 15c0 -70 34 -122 126 -122c35 0 105 1 141 1c87 0 118 -30 137 -61h4c-1 12 -13 39 -13 111v146c0 39 -5 76 -16 108l-305 -214l-29 45l104 74c-17 54 -53 92 -117 101c-16 3 -29 3 -54 3z" />
    <glyph glyph-name="bnPH_RA" horiz-adv-x="754" 
d="M409 -60c-3 55 -36 109 -110 109c-47 0 -60 -1 -93 -1c-108 0 -165 63 -171 161l55 15c0 -70 29 -122 121 -122c35 0 34 1 70 1c87 0 114 -30 133 -61h4c-1 12 -13 39 -13 111v3l-315 120v67l148 101l-134 123v15h-124v52h794v-52h-600v-4l124 -113v-49l-151 -102
l261 -100h4c-5 78 -7 131 -7 197v90c34 14 70 20 116 20c102 0 188 -53 188 -160c0 -87 -54 -141 -117 -166l-35 45c58 22 96 65 96 120c0 65 -53 106 -122 106c-29 0 -50 -2 -70 -7v-519h-52z" />
    <glyph glyph-name="bnB_RA" horiz-adv-x="540" 
d="M560 582h-125v-592h-52c-3 55 -36 109 -110 109c-47 0 -43 -1 -76 -1c-108 0 -165 63 -171 161l55 15c0 -70 29 -122 121 -122c35 0 17 1 53 1c87 0 114 -30 133 -61h4c-1 12 -13 39 -13 107l-276 144v69c95 72 185 119 276 151v19h-399v52h580v-52zM382 261h4
c-5 78 -7 150 -7 216v28c-75 -29 -141 -68 -226 -127z" />
    <glyph glyph-name="bnBH_RA" horiz-adv-x="580" 
d="M475 0h-52c-3 55 -36 109 -110 109c-47 0 -60 -1 -93 -1c-108 0 -165 63 -171 161l55 15c0 -70 29 -122 121 -122c35 0 34 1 70 1c87 0 114 -30 133 -61h4c-2 13 -13 56 -13 134v75c0 66 -14 108 -35 137h-4c-47 -101 -103 -130 -159 -130c-72 0 -121 51 -121 116
c0 23 8 49 22 69l58 -12c-14 -13 -23 -36 -23 -57c0 -37 21 -65 64 -65c45 0 84 33 133 147h44c50 -50 77 -125 77 -204v-312zM600 582h-620v52h620v-52z" />
    <glyph glyph-name="bnM_RA" horiz-adv-x="586" 
d="M-20 634h626v-52h-114c15 -17 30 -49 30 -91c0 -39 -13 -76 -41 -102v-389h-52c-3 55 -36 109 -110 109c-47 0 -60 -1 -93 -1c-100 0 -157 54 -169 140l54 17c6 -59 38 -103 120 -103c35 0 34 1 70 1c87 0 114 -30 133 -61h4c-2 13 -13 56 -13 134v124
c-12 -3 -24 -4 -38 -4c-121 0 -135 106 -220 106c-36 0 -62 -23 -62 -61c0 -26 9 -43 21 -60l-48 -24c-18 22 -29 51 -29 84c0 53 26 93 72 108c-7 29 -20 53 -37 73h-104v52zM387 411c60 0 78 47 78 84c0 44 -23 87 -86 87h-228c12 -19 21 -42 25 -66
c108 -6 122 -105 211 -105z" />
    <glyph glyph-name="bnSH_RA" horiz-adv-x="633" 
d="M65 299v53c12 -3 26 -4 37 -4c82 0 106 55 106 116c0 67 -37 118 -116 118h-112v52h115c64 0 112 -22 141 -79c27 52 68 79 129 79c68 0 99 -36 113 -56h4s-10 53 -10 128v26h56v-98h125v-52h-125v-602h-52c-3 55 -41 109 -115 109c-47 0 -116 -1 -149 -1
c-108 0 -172 63 -178 161l55 15c0 -70 36 -122 128 -122c35 0 90 1 126 1c87 0 119 -30 138 -61h4c-2 13 -13 56 -13 134v222c0 94 -34 143 -104 143c-58 0 -105 -41 -105 -117c0 -74 45 -116 116 -116c8 0 18 1 28 2v-51c-9 -1 -19 -2 -27 -2c-69 0 -116 22 -147 77
c-27 -56 -59 -78 -132 -78c-11 0 -24 1 -36 3z" />
    <glyph glyph-name="bnS_RA" horiz-adv-x="617" 
d="M62 479c22 -30 49 -61 90 -61c69 0 88 98 93 164h-265v52h657v-52h-76c4 -19 6 -38 6 -58c0 -60 -20 -110 -62 -138v-386h-52c-3 55 -36 109 -110 109c-47 0 -98 -1 -131 -1c-108 0 -165 63 -171 161l55 15c0 -70 29 -122 121 -122c35 0 72 1 108 1c87 0 114 -30 133 -61
h4c-2 13 -13 56 -13 134v130c-8 -1 -16 -2 -25 -2c-82 0 -131 57 -148 109c-19 -64 -58 -108 -124 -108c-59 0 -104 38 -131 80zM511 524c0 21 -2 40 -6 58h-200c2 -87 40 -165 120 -165c63 0 86 47 86 107z" />
    <glyph glyph-name="bnSS_RA" horiz-adv-x="519" 
d="M539 582h-137c34 -32 54 -78 54 -132c0 -38 -10 -71 -27 -99v-351h-52c-3 55 -36 109 -110 109c-47 0 -45 -1 -78 -1c-108 0 -165 63 -171 161l55 15c0 -70 29 -122 121 -122c35 0 19 1 55 1c87 0 114 -30 133 -61h4c-3 13 -13 56 -13 134v58c-30 -19 -66 -29 -105 -29
c-107 0 -187 77 -187 185c0 54 20 100 53 132h-154v52h559v-52zM268 582c-32 0 -61 -10 -83 -28l202 -164c8 18 13 38 13 60c0 76 -57 132 -132 132zM268 319c32 0 61 10 84 28l-201 164c-9 -18 -14 -39 -14 -61c0 -76 56 -131 131 -131z" />
    <glyph glyph-name="bnY_RA" horiz-adv-x="568" 
d="M414 214c-5 78 -7 131 -7 197v171h-231v-4l124 -113v-49l-151 -102l261 -100h4zM411 -60c-3 55 -36 109 -110 109c-47 0 -60 -1 -93 -1c-108 0 -165 63 -171 161l55 15c0 -70 29 -122 121 -122c35 0 34 1 70 1c87 0 114 -30 133 -61h4c-2 12 -11 48 -13 113l-315 121v67
l148 101l-134 123v15h-126v52h608v-52h-125v-642h-52z" />
    <glyph glyph-name="bnL_RA" horiz-adv-x="682" 
d="M702 582h-110v-671h-51c-6 63 -32 109 -105 109c-47 0 -170 -2 -203 -2c-101 0 -170 54 -176 152l55 15c0 -70 41 -113 125 -113c26 0 145 2 181 2c87 0 112 -27 130 -61h4c-1 12 -15 39 -15 111v283c-8 27 -38 67 -94 67c-51 0 -87 -38 -87 -103v-40h-56v39
c0 66 -40 100 -96 100c-52 0 -97 -33 -97 -108c0 -90 59 -131 132 -131c26 0 53 6 77 20l15 -51c-29 -15 -60 -22 -90 -22c-105 0 -192 71 -192 184c0 106 71 162 154 162c80 0 115 -52 124 -82h4c7 37 38 86 107 86c58 0 85 -35 95 -49h4v103h-557v52h722v-52z" />
    <glyph glyph-name="bnH_RA" horiz-adv-x="520" 
d="M-20 634h560v-52h-560v52zM253 186v-4c27 -8 97 -38 160 -75l114 -67l-40 -39c-17 10 -34 20 -49 29v-190h-52c-3 55 -36 109 -110 109c-47 0 -50 -1 -83 -1c-108 0 -165 63 -171 161l55 15c0 -70 29 -122 121 -122c35 0 24 1 60 1c87 0 114 -30 133 -61h4
c-2 12 -12 51 -13 120c-159 90 -200 102 -266 112v57h64c168 0 219 59 219 142c0 63 -50 106 -120 106c-64 0 -109 -38 -109 -97c0 -29 15 -59 44 -76l-43 -32c-36 24 -57 66 -57 110c0 85 69 148 164 148c103 0 177 -63 177 -163c0 -111 -74 -169 -202 -183z" />
    <glyph glyph-name="bnK_SS_RA" horiz-adv-x="845" 
d="M540 106c-3 61 -5 142 -5 203v44h-84c-76 0 -140 55 -140 147v82h-210c28 -38 45 -86 45 -136c86 -5 166 -74 166 -180c0 -12 0 -23 -1 -32c106 -6 202 -82 229 -128zM452 406h83v176h-168v-82c0 -59 28 -94 85 -94zM865 582h-274v-176h50c97 0 165 -54 165 -142
c0 -77 -36 -126 -90 -156l-41 42c43 19 75 56 75 114c0 62 -47 89 -109 89h-50v-515h-52c-3 55 -40 109 -114 109c-47 0 -145 -1 -178 -1c-111 0 -176 63 -182 161l55 15c0 -70 36 -122 132 -122c35 0 119 1 155 1c87 0 118 -30 137 -61h4c-1 9 -8 28 -12 71
c-29 85 -121 162 -234 170c-16 -57 -48 -74 -71 -74c-30 0 -46 18 -46 46c0 31 25 63 70 76c2 13 2 26 2 39c0 75 -55 121 -117 125c-13 -55 -46 -76 -71 -76c-30 0 -46 19 -46 47c0 31 25 64 71 77v4c0 60 -23 105 -59 137h-55v52h885v-52z" />
    <glyph glyph-name="bnJ_NY_RA" horiz-adv-x="809" 
d="M361 582c-39 -40 -90 -105 -90 -158c0 -36 32 -47 64 -49l132 -7c-64 48 -96 139 -102 214h-4zM412 -162c-6 63 -32 109 -105 109c-47 0 -60 -2 -93 -2c-101 0 -170 54 -176 152l55 15c0 -70 41 -113 125 -113c26 0 35 2 71 2c87 0 112 -27 130 -61h4
c-1 12 -15 39 -15 111v36c-20 -7 -42 -10 -67 -10c-171 0 -295 170 -295 366l55 13c0 -176 99 -323 239 -323c83 0 129 49 129 113c0 27 -5 47 -13 70l-121 5c-72 3 -120 35 -120 102c0 66 41 117 75 159h-310v52h849v-52h-408c3 -61 28 -116 59 -152c21 70 70 118 148 118
c69 0 117 -46 117 -111c0 -51 -29 -83 -63 -96v-4c33 -12 73 -43 73 -100c0 -69 -49 -120 -125 -120c-54 0 -95 25 -122 64c-9 -25 -24 -46 -44 -64v-279h-52zM692 436c0 35 -22 60 -69 60c-51 0 -109 -47 -109 -157c0 -100 39 -170 116 -170c48 0 73 34 73 69
c0 45 -30 73 -83 73h-20v48h16c48 0 76 30 76 77z" />
    <glyph glyph-name="bnNG_K_RA" horiz-adv-x="716" 
d="M463 582c0 -68 27 -125 88 -125c54 0 65 43 65 78c0 23 -3 37 -7 47h-146zM-20 582v52h756v-52h-74c5 -15 7 -37 7 -54c0 -68 -40 -122 -117 -122s-147 54 -147 176h-425zM166 307c-36 24 -57 66 -57 110c0 76 50 136 143 136c98 0 165 -80 165 -191v-29
c141 0 210 -85 210 -172c0 -60 -27 -117 -85 -152l-40 41c47 30 69 67 69 111c0 71 -53 117 -154 117v-498h-52c-3 55 -35 109 -109 109c-23 0 -41 -1 -65 -1c-108 0 -165 63 -171 161l55 15c0 -70 29 -122 121 -122c17 0 35 1 53 1c76 0 102 -30 121 -61h4
c-2 11 -9 41 -12 95l-272 148v61c67 66 167 126 272 143v34c0 89 -44 137 -110 137c-52 0 -87 -30 -87 -85c0 -29 15 -59 44 -76zM368 40c-5 78 -6 142 -6 208v25c-86 -17 -164 -68 -218 -113l220 -120h4z" />
    <glyph glyph-name="bnSS_K_RA" horiz-adv-x="1034" 
d="M1054 582h-682c28 -27 47 -63 52 -106c39 30 90 48 146 48c75 0 119 -47 125 -109c31 37 77 56 132 56c93 0 163 -63 163 -156c0 -104 -73 -158 -149 -158c-31 0 -63 5 -89 18l15 51c27 -11 47 -14 70 -14c52 0 97 34 97 103c0 61 -40 102 -106 102
c-84 0 -132 -61 -132 -169v-288h-52c0 73 -41 115 -197 125c-198 13 -268 66 -268 174c0 5 0 10 1 14c-77 23 -129 90 -129 177c0 54 20 100 53 132h-124v52h1074v-52zM238 582c-32 0 -61 -10 -83 -28l202 -164c8 18 13 38 13 60c0 76 -57 132 -132 132zM405 328
c0 -43 26 -67 70 -67c35 0 61 15 72 24l25 -48c-24 -19 -61 -30 -97 -30c-67 0 -113 37 -125 92c-31 -22 -69 -34 -112 -34h-3v-10c0 -69 38 -105 214 -117c151 -10 179 -44 200 -72h4c-2 19 -13 70 -13 205v116c0 54 -23 83 -71 83c-91 0 -164 -63 -164 -142zM238 319
c32 0 61 10 84 28l-201 164c-9 -18 -14 -39 -14 -61c0 -76 56 -131 131 -131z" />
    <glyph glyph-name="bnS_K_RA" horiz-adv-x="1134" 
d="M62 479c22 -30 49 -61 90 -61c69 0 88 98 93 164h-265v52h1174v-52h-593c4 -19 6 -38 6 -58c0 -8 0 -15 -1 -23c31 15 66 23 104 23c74 0 119 -47 125 -109c31 37 77 56 132 56c93 0 163 -63 163 -156c0 -104 -73 -158 -149 -158c-31 0 -63 5 -89 18l15 51
c27 -11 47 -14 70 -14c52 0 97 34 97 103c0 61 -40 102 -106 102c-84 0 -132 -61 -132 -169v-288h-52c0 73 -41 115 -197 125c-198 13 -268 66 -268 174c0 12 1 25 4 39l56 -5c-3 -13 -4 -26 -4 -38c0 -69 38 -105 214 -117c151 -10 179 -44 200 -72h4c-2 19 -13 70 -13 205
v116c0 54 -23 83 -71 83c-91 0 -164 -63 -164 -142c0 -43 26 -67 70 -67c35 0 61 15 72 24l25 -48c-24 -19 -61 -30 -97 -30c-78 0 -128 50 -128 121c0 13 1 26 4 38c-8 -1 -17 -2 -27 -2c-82 0 -131 57 -148 109c-19 -64 -58 -108 -124 -108c-59 0 -104 38 -131 80z
M511 524c0 21 -2 40 -6 58h-200c2 -87 40 -165 120 -165c63 0 86 47 86 107z" />
    <glyph glyph-name="bnNG_GH_RA" horiz-adv-x="1107" 
d="M284 486v-20c25 -11 53 -18 83 -18c57 0 83 31 83 70s-31 73 -84 73c-57 0 -82 -39 -82 -105zM1002 -78h-52c-3 55 -36 109 -110 109c-47 0 -127 -1 -160 -1c-80 0 -132 34 -156 92c-41 -32 -98 -51 -169 -51c-194 0 -302 156 -311 324l54 15c10 -173 116 -285 258 -285
c117 0 182 64 182 144c0 28 -6 50 -16 66c-57 -48 -113 -69 -167 -69c-82 0 -127 47 -127 116v52c-61 38 -104 96 -124 148h-124v52h164c11 -42 40 -95 85 -133c3 95 56 143 134 143c21 0 41 -4 58 -10h706v-52h-125v-660zM955 24h4c-2 12 -11 47 -13 110l-357 91
c-4 -20 -12 -39 -22 -56c10 -50 43 -85 118 -85c35 0 101 1 137 1c87 0 114 -30 133 -61zM530 416c23 -21 53 -60 62 -116l41 25c53 33 76 41 86 46v4c-98 4 -144 54 -144 125c0 31 10 60 27 82h-115c12 -19 19 -42 19 -64c0 -65 -45 -124 -138 -124c-30 0 -58 5 -84 14v-23
c0 -43 24 -65 70 -65c62 0 117 40 176 96zM948 189h4c-5 78 -6 153 -6 219v174h-275c-25 -20 -40 -49 -40 -82c0 -58 46 -81 98 -81s81 12 117 33l26 -48l-226 -137z" />
    <glyph glyph-name="bnC_CH_RA" horiz-adv-x="911" 
d="M134 517h-4c2 -12 6 -67 6 -164v-104c0 -41 21 -67 70 -67c73 0 148 68 148 160c0 40 -16 76 -92 103l-47 16c-46 16 -69 37 -81 56zM449 582c18 -37 85 -48 141 -71c18 5 44 11 72 11c100 0 181 -62 181 -163c0 -133 -96 -201 -288 -205v-4c23 -7 65 -24 140 -64
l168 -90l-38 -42c-25 14 -49 27 -71 40v-179h-52c-6 63 -44 109 -118 109c-47 0 -82 -2 -115 -2c-108 0 -175 64 -181 162l55 15c0 -70 39 -123 131 -123c35 0 56 2 92 2c87 0 123 -27 141 -61h4c-1 12 -13 39 -13 107c-200 110 -239 121 -292 126v51h108
c185 0 274 54 274 158c0 81 -64 111 -133 111h-3c13 -15 21 -35 21 -60c0 -75 -62 -147 -153 -147c-58 0 -95 29 -108 71c-4 -114 -97 -205 -206 -205c-77 0 -126 45 -126 117v336h-100v52h951v-52h-482zM619 411c0 66 -103 53 -159 99v-137c0 -34 17 -58 61 -58
c57 0 98 47 98 96zM282 497c67 -24 109 -59 124 -111v196h-269c14 -29 42 -47 79 -61z" />
    <glyph glyph-name="bnK_TT_RA" horiz-adv-x="636" 
d="M54 911l53 13c-1 -11 -3 -23 -3 -34c0 -37 15 -73 96 -73h184c96 0 165 -44 165 -131c0 -14 -2 -34 -6 -52h113v-52h-285v-25c135 -4 207 -68 207 -154c0 -77 -38 -124 -92 -154l-41 42c43 19 77 54 77 112c0 73 -61 102 -151 104v-253c-84 -21 -204 -54 -204 -160
c0 -81 68 -120 154 -120c99 0 142 45 142 99c0 43 -30 70 -69 70c-22 0 -46 -9 -61 -23l-34 46c20 17 53 31 93 31c66 0 127 -46 127 -125c0 -37 -12 -68 -33 -92v-290h-52c-3 55 -36 109 -110 109c-47 0 -80 -1 -113 -1c-108 0 -165 63 -171 161l55 15
c0 -70 29 -122 121 -122c35 0 54 1 90 1c87 0 114 -30 133 -61h4c-2 13 -13 56 -13 134v14c-30 -13 -67 -20 -109 -20c-122 0 -210 67 -210 173c0 99 60 148 126 175l-193 93v60c70 69 163 122 272 134v27h-336v52h507c4 16 6 38 6 49c0 57 -35 82 -116 82h-182
c-113 0 -143 57 -143 116c0 10 0 20 2 30zM318 289h4c-5 78 -6 142 -6 208v6c-85 -13 -167 -60 -216 -109z" />
    <glyph glyph-name="bnNN_TT_RA" horiz-adv-x="852" 
d="M291 911l53 13c-1 -11 -3 -23 -3 -34c0 -37 15 -73 96 -73h174c96 0 165 -44 165 -131c0 -14 -2 -34 -6 -52h102v-52h-404v-267c0 -59 37 -87 96 -87c95 0 153 64 153 147c0 55 -22 91 -78 91c-29 0 -54 -16 -69 -37l-36 45c19 23 52 46 103 46c84 0 138 -57 138 -145
c0 -38 -9 -72 -24 -100v-345h-52c-3 55 -36 109 -110 109c-47 0 -81 -1 -114 -1c-108 0 -165 63 -171 161l55 15c0 -70 29 -122 121 -122c35 0 55 1 91 1c87 0 114 -30 133 -61h4c-2 13 -13 56 -13 134v47c-35 -25 -80 -38 -131 -38c-83 0 -152 45 -152 136v19
c0 154 -53 252 -168 252c-95 0 -144 -63 -144 -144c0 -84 56 -127 126 -127c31 0 60 10 77 23l19 -50c-22 -15 -60 -25 -97 -25c-108 0 -182 76 -182 180c0 111 73 195 201 195c83 0 140 -41 164 -86h4v86h302c4 16 6 38 6 49c0 57 -35 82 -116 82h-172
c-113 0 -143 57 -143 116c0 10 0 20 2 30z" />
    <glyph glyph-name="bnTT_TT_RA" horiz-adv-x="616" 
d="M34 911l53 13c-1 -11 -3 -23 -3 -34c0 -37 15 -73 96 -73h184c96 0 165 -44 165 -131c0 -14 -2 -34 -6 -52h108v-52h-420v-287c0 -56 34 -87 93 -87c95 0 166 68 166 169c0 49 -22 89 -78 89c-29 0 -54 -16 -69 -37l-36 45c19 23 52 46 103 46c84 0 136 -61 136 -142
c0 -25 -3 -49 -10 -71c27 -31 42 -71 42 -124c0 -58 -19 -107 -52 -143v-304h-52c-3 55 -36 109 -110 109c-47 0 -105 -1 -138 -1c-108 0 -170 63 -176 161l55 15c0 -70 34 -122 126 -122c35 0 79 1 115 1c87 0 114 -30 133 -61h4c-2 13 -13 56 -13 134v26
c-33 -17 -73 -26 -118 -26c-142 0 -250 95 -305 233l46 32c47 -122 135 -212 259 -212c106 0 170 65 170 159c0 28 -5 48 -13 65c-38 -58 -102 -94 -185 -94c-85 0 -149 48 -149 136v291h-175v52h487c4 16 6 38 6 49c0 57 -35 82 -116 82h-182c-113 0 -143 57 -143 116
c0 10 0 20 2 30z" />
    <glyph glyph-name="bnN_TT_RA" horiz-adv-x="805" 
d="M234 911l53 13c-1 -11 -3 -23 -3 -34c0 -37 15 -73 96 -73h184c96 0 165 -44 165 -131c0 -14 -2 -34 -6 -52h102v-52h-404v-327c0 -59 37 -87 96 -87c95 0 153 84 153 167c0 55 -22 91 -78 91c-29 0 -54 -16 -69 -37l-36 45c19 23 52 46 103 46c84 0 138 -57 138 -145
c0 -45 -12 -88 -34 -123v-324h-52c-3 55 -36 109 -110 109c-47 0 -90 -1 -123 -1c-108 0 -165 63 -171 161l55 15c0 -70 29 -122 121 -122c35 0 64 1 100 1c87 0 114 -30 133 -61h4c-2 13 -13 56 -13 134v29c-33 -24 -75 -38 -121 -38c-83 0 -152 45 -152 133
c-12 89 -70 210 -183 210c-64 0 -91 -36 -91 -78c0 -30 12 -50 27 -68l-48 -23c-21 22 -35 54 -35 91c0 74 54 131 146 131c87 0 151 -44 190 -125h4s-9 61 -10 196h-385v52h687c4 16 6 38 6 49c0 57 -35 82 -116 82h-182c-113 0 -143 57 -143 116c0 10 0 20 2 30z" />
    <glyph glyph-name="bnL_TT_RA" horiz-adv-x="983" 
d="M417 911l53 13c-1 -11 -3 -23 -3 -34c0 -37 15 -73 96 -73h184c96 0 165 -44 165 -131c0 -14 -2 -34 -6 -52h97v-52h-399v-267c0 -59 37 -87 96 -87c95 0 153 64 153 147c0 55 -22 91 -78 91c-29 0 -54 -16 -69 -37l-36 45c19 23 52 46 103 46c84 0 138 -57 138 -145
c0 -50 -15 -93 -41 -126v-310h-52c-3 55 -36 109 -110 109c-47 0 -60 -1 -93 -1c-108 0 -165 63 -171 161l55 15c0 -70 29 -122 121 -122c35 0 34 1 70 1c87 0 114 -30 133 -61h4c-2 13 -13 56 -13 134v27c-32 -17 -71 -27 -114 -27c-83 0 -152 45 -152 136v43
c-8 27 -38 67 -94 67c-51 0 -87 -38 -87 -103v-40h-56v39c0 66 -40 100 -96 100c-52 0 -97 -42 -97 -117c0 -90 59 -138 132 -138c26 0 53 6 77 20l15 -51c-29 -15 -60 -22 -90 -22c-105 0 -192 78 -192 191c0 106 71 171 154 171c77 0 109 -37 123 -71h4
c12 38 41 75 108 75c51 0 82 -25 95 -40h4v147h-568v52h870c4 16 6 38 6 49c0 57 -35 82 -116 82h-182c-113 0 -143 57 -143 116c0 10 0 20 2 30z" />
    <glyph glyph-name="bnSS_TT_RA" horiz-adv-x="542" 
d="M20 911l53 13c-1 -11 -3 -23 -3 -34c0 -37 15 -73 96 -73h154c96 0 165 -44 165 -131c0 -14 -2 -34 -6 -52h73v-52h-129c31 -29 50 -71 50 -124c0 -87 -46 -141 -115 -164c-88 -34 -223 -48 -223 -165c0 -81 70 -117 156 -117c99 0 141 44 141 98c0 43 -25 71 -64 71
c-22 0 -46 -9 -61 -23l-34 46c20 17 53 31 93 31c66 0 122 -47 122 -126c0 -42 -15 -77 -43 -103v-286h-52c-3 55 -36 109 -110 109c-47 0 -60 -1 -93 -1c-108 0 -165 63 -171 161l55 15c0 -70 29 -122 121 -122c35 0 34 1 70 1c87 0 114 -30 133 -61h4
c-2 13 -13 56 -13 134v17c-28 -11 -61 -16 -98 -16c-122 0 -212 62 -212 170c0 91 57 142 121 169c-65 23 -109 77 -109 162c0 53 18 95 49 124h-160v52h443c4 16 6 38 6 49c0 57 -35 82 -116 82h-152c-113 0 -143 57 -143 116c0 10 0 20 2 30zM281 334c30 0 57 6 78 18
l-198 165c-9 -18 -14 -38 -14 -59c0 -77 54 -124 134 -124zM281 585c-34 0 -64 -10 -86 -27l203 -169c12 19 19 42 19 69c0 70 -54 127 -136 127z" />
    <glyph glyph-name="bnS_TT_RA" horiz-adv-x="625" 
d="M111 924c-1 -11 -3 -23 -3 -34c0 -37 15 -73 96 -73h184c96 0 165 -44 165 -131c0 -14 -2 -34 -6 -52h98v-52h-84c4 -19 6 -38 6 -58c0 -71 -29 -129 -88 -151c-110 -46 -259 -59 -259 -186c0 -77 70 -119 156 -119c99 0 146 42 146 96c0 43 -30 70 -69 70
c-22 0 -46 -9 -61 -23l-34 46c20 17 53 31 93 31c66 0 130 -46 130 -125c0 -47 -20 -84 -56 -111v-280h-52c-3 55 -36 109 -110 109c-47 0 -70 -1 -103 -1c-108 0 -165 63 -171 161l55 15c0 -70 29 -122 121 -122c35 0 44 1 80 1c87 0 114 -30 133 -61h4
c-2 13 -13 56 -13 134v16c-27 -8 -59 -13 -93 -13c-122 0 -216 68 -216 174c0 120 98 172 186 199c-36 22 -59 56 -70 89c-19 -64 -58 -108 -124 -108c-59 0 -104 38 -131 80l41 34c22 -30 49 -61 90 -61c69 0 88 98 93 164h-265v52h511c4 16 6 38 6 49c0 57 -35 82 -116 82
h-182c-113 0 -143 57 -143 116c0 10 0 20 2 30zM511 524c0 21 -2 40 -6 58h-200c2 -87 40 -165 120 -165c63 0 86 47 86 107z" />
    <glyph glyph-name="bnNN_TTH_RA" horiz-adv-x="788" 
d="M731 223c0 -56 -19 -109 -57 -146v-287h-52c-3 55 -36 109 -110 109c-47 0 -60 -1 -93 -1c-108 0 -165 63 -171 161l55 15c0 -70 29 -122 121 -122c35 0 34 1 70 1c87 0 114 -30 133 -61h4c-2 13 -13 56 -13 134v14c-24 -10 -52 -15 -84 -15c-134 0 -210 91 -210 235
c23 6 43 12 60 19c0 111 -8 303 -164 303c-81 0 -122 -58 -122 -128c0 -66 42 -113 113 -113c31 0 56 7 77 20l20 -49c-23 -14 -58 -24 -97 -24c-101 0 -170 62 -170 166c0 97 58 180 179 180c135 0 218 -110 218 -305v-20c30 27 41 65 41 129v94
c-131 150 -144 206 -144 249c0 83 69 141 146 141c6 0 13 0 20 -1l12 -51c-4 1 -10 1 -14 1c-62 0 -104 -37 -104 -94c0 -43 28 -92 73 -143h340v-52h-302c148 -155 225 -249 225 -359zM532 427c0 -159 -96 -186 -149 -201c3 -74 47 -147 153 -147c94 0 138 67 138 143
c0 98 -72 178 -143 253c1 -11 1 -38 1 -48z" />
    <glyph glyph-name="bnNN_DD_RA" horiz-adv-x="738" 
d="M85 471c0 103 71 163 177 163c95 0 144 -48 169 -117c30 42 64 106 71 117h41c65 -39 116 -83 116 -160c0 -49 -15 -87 -41 -118c32 -27 55 -67 55 -124c0 -51 -18 -90 -49 -120v-320h-52c-3 55 -36 109 -110 109c-47 0 -145 -1 -178 -1c-108 0 -170 63 -176 161l55 15
c0 -70 34 -122 126 -122c35 0 119 1 155 1c87 0 114 -30 133 -61h4c-2 13 -13 56 -13 134v48c-38 -17 -85 -25 -137 -25c-169 0 -295 71 -376 234l46 33c84 -161 190 -213 331 -213c113 0 183 47 183 128c0 38 -15 65 -37 85c-26 -19 -57 -37 -93 -56l-39 43
c102 52 157 86 157 168c0 47 -32 79 -68 100c-15 -26 -50 -89 -82 -129h-52c-17 86 -62 138 -139 138c-73 0 -120 -39 -120 -112c0 -75 47 -109 117 -109c35 0 62 10 80 22l19 -48c-22 -15 -63 -26 -100 -26c-108 0 -173 68 -173 162z" />
    <glyph glyph-name="bnN_DD_RA" horiz-adv-x="752" 
d="M-20 582v52h792v-52h-361v-211c0 -36 14 -60 53 -60c32 0 98 15 172 87c27 -19 68 -75 68 -149c0 -65 -24 -120 -67 -159v-304h-52c-3 55 -36 109 -110 109c-47 0 -145 -1 -178 -1c-108 0 -170 63 -176 161l55 15c0 -70 34 -122 126 -122c35 0 119 1 155 1
c87 0 114 -30 133 -61h4c-2 13 -13 56 -13 134v31c-34 -15 -74 -24 -119 -24c-159 0 -257 111 -295 239l49 30c35 -125 119 -215 247 -215c113 0 185 72 185 167c0 28 -4 53 -18 73c-52 -45 -114 -66 -163 -66c-47 0 -82 22 -99 55c-40 80 -99 151 -186 151
c-64 0 -91 -36 -91 -78c0 -30 12 -50 27 -68l-48 -23c-21 22 -35 54 -35 91c0 74 54 132 146 132c83 0 140 -43 180 -100h4s-9 42 -10 165h-375z" />
    <glyph glyph-name="bnL_DD_RA" horiz-adv-x="941" 
d="M961 582h-365v-195c0 -36 14 -60 53 -60c32 0 98 15 172 87c27 -19 68 -75 68 -148c0 -63 -18 -115 -52 -153v-327h-52c-3 55 -36 109 -110 109c-47 0 -145 -1 -178 -1c-108 0 -170 63 -176 161l55 15c0 -70 34 -122 126 -122c35 0 119 1 155 1c87 0 114 -30 133 -61h4
c-2 13 -13 56 -13 134v46c-38 -20 -85 -31 -139 -31c-128 0 -219 72 -268 174l44 35c42 -97 120 -155 225 -155c113 0 190 67 190 175c0 28 -4 53 -18 73c-52 -45 -114 -66 -164 -66c-70 0 -111 49 -111 111v5c-8 27 -38 67 -94 67c-51 0 -87 -38 -87 -103v-40h-56v39
c0 66 -40 100 -96 100c-52 0 -97 -42 -97 -117c0 -90 59 -138 132 -138c26 0 53 6 77 20l15 -51c-29 -15 -60 -22 -90 -22c-105 0 -192 78 -192 191c0 106 71 171 154 171c77 0 109 -37 123 -71h4c12 38 41 75 108 75c51 0 82 -25 95 -40h4v112h-560v52h981v-52z" />
    <glyph glyph-name="bnNN_DDH_RA" horiz-adv-x="847" 
d="M468 582v-267c0 -59 37 -87 96 -87c95 0 153 64 153 147c0 55 -22 91 -78 91c-29 0 -54 -16 -69 -37l-36 45c19 23 52 46 103 46c84 0 138 -57 138 -145c0 -46 -13 -86 -35 -118v-328h-52c-3 55 -36 109 -110 109c-47 0 -75 -1 -108 -1c-108 0 -165 63 -171 161l55 15
c0 -70 29 -122 121 -122c35 0 49 1 85 1c87 0 114 -30 133 -61h4c-2 13 -13 56 -13 134v41c-33 -20 -74 -31 -120 -31c-83 0 -152 45 -152 136v19c0 154 -53 252 -168 252c-95 0 -144 -63 -144 -144c0 -84 56 -127 126 -127c31 0 60 10 77 23l19 -50
c-22 -15 -60 -25 -97 -25c-108 0 -182 76 -182 180c0 111 73 195 201 195c83 0 140 -41 164 -86h4v86h455v-52h-399z" />
    <glyph glyph-name="bnK_T_RA" horiz-adv-x="888" 
d="M908 582h-928v52h928v-52zM355 228c92 42 151 90 151 165c0 45 -30 79 -85 79c-65 0 -104 -49 -121 -93l-49 30c23 66 87 115 169 115c68 0 116 -35 134 -85c31 43 75 71 138 71c93 0 159 -59 159 -154c0 -107 -71 -158 -152 -158c-26 0 -58 5 -84 18l16 50
c27 -11 46 -14 69 -14c50 0 95 34 95 103c0 61 -37 102 -103 102c-84 0 -109 -77 -152 -151c-8 -14 -18 -27 -29 -39c49 -25 90 -72 90 -141c0 -48 -17 -88 -50 -116v-280h-52c-3 55 -36 109 -110 109c-47 0 -145 -1 -178 -1c-108 0 -170 63 -176 161l55 15
c0 -70 34 -122 126 -122c35 0 119 1 155 1c87 0 114 -30 133 -61h4c-2 13 -13 56 -13 134v13c-22 -7 -47 -11 -76 -11c-194 0 -320 187 -376 445l50 26c58 -269 173 -417 327 -417c83 0 123 44 123 105c0 48 -27 86 -71 106c-22 -16 -47 -31 -77 -45z" />
    <glyph glyph-name="bnN_T_RA" horiz-adv-x="874" 
d="M-20 634h914v-52h-395c15 -17 30 -49 30 -86c33 18 72 28 114 28c81 0 126 -56 126 -125v-439h-52c0 73 -51 118 -217 125c-188 8 -250 70 -250 174c0 19 4 41 11 63l57 -12c-7 -19 -10 -38 -10 -55c0 -69 43 -110 194 -117c154 -7 202 -46 220 -72h4
c-2 19 -13 70 -13 205v116c0 43 -15 83 -76 83c-83 0 -159 -63 -159 -142c0 -43 26 -67 70 -67c35 0 61 15 72 24l25 -48c-24 -19 -61 -30 -97 -30c-78 0 -128 50 -128 121c0 10 1 20 3 30c-9 -1 -19 -2 -29 -2c-121 0 -135 106 -220 106c-36 0 -62 -23 -62 -61
c0 -30 12 -50 27 -68l-48 -23c-21 22 -35 54 -35 91c0 68 43 115 117 115c117 0 129 -105 221 -105c60 0 78 47 78 84c0 44 -23 87 -86 87h-406v52z" />
    <glyph glyph-name="bnP_T_RA" horiz-adv-x="732" 
d="M91 500c67 -1 146 -31 177 -124l163 115c-34 58 -91 95 -167 95c-92 0 -153 -56 -173 -86zM52 449l-36 49c37 63 120 141 247 141s185 -65 215 -126h4s-13 94 -13 183v36h56v-98h227v-52h-227v-228c78 -2 121 -57 121 -125v-439h-52c0 73 -51 118 -217 125
c-188 8 -250 70 -250 174c0 19 4 41 11 63l57 -12c-7 -19 -10 -38 -10 -55c0 -69 43 -110 194 -117c154 -7 202 -46 220 -72h4c-2 19 -13 70 -13 205v116c0 43 -15 83 -76 83c-83 0 -159 -63 -159 -142c0 -43 26 -67 70 -67c35 0 61 15 72 24l25 -48
c-24 -19 -61 -30 -97 -30c-78 0 -128 50 -128 121c0 90 72 171 173 191c-2 33 -7 64 -16 92l-306 -215l-29 45l104 74c-17 54 -53 92 -118 102c-20 2 -32 2 -53 2z" />
    <glyph glyph-name="bnS_T_RA" horiz-adv-x="900" 
d="M62 479c22 -30 49 -61 90 -61c69 0 88 98 93 164h-265v52h940v-52h-359c4 -19 6 -38 6 -58c0 -8 0 -15 -1 -22c31 14 66 22 103 22c81 0 126 -56 126 -125v-439h-52c0 73 -51 118 -217 125c-188 8 -250 70 -250 174c0 19 4 41 11 63l57 -12c-7 -19 -10 -38 -10 -55
c0 -69 43 -110 194 -117c154 -7 202 -46 220 -72h4c-2 19 -13 70 -13 205v116c0 43 -15 83 -76 83c-83 0 -159 -63 -159 -142c0 -43 26 -67 70 -67c35 0 61 15 72 24l25 -48c-24 -19 -61 -30 -97 -30c-78 0 -128 50 -128 121c0 13 1 26 4 38c-8 -1 -17 -2 -26 -2
c-82 0 -131 57 -148 109c-19 -64 -58 -108 -124 -108c-59 0 -104 38 -131 80zM511 524c0 21 -2 40 -6 58h-200c2 -87 40 -165 120 -165c63 0 86 47 86 107z" />
    <glyph glyph-name="bnN_TH_RA" horiz-adv-x="598" 
d="M-20 634h638v-52h-116c15 -17 30 -49 30 -91c0 -50 -22 -97 -67 -120c35 -29 56 -72 56 -125c0 -111 -73 -169 -194 -182v-4c27 -8 70 -33 132 -71l87 -54l-40 -37c-19 12 -37 23 -53 33v-191h-52c-3 55 -36 109 -110 109c-47 0 -55 -1 -88 -1c-102 0 -160 63 -166 161
l55 15c0 -70 30 -122 116 -122c35 0 29 1 65 1c87 0 114 -30 133 -61h4c-2 12 -12 52 -13 123c-118 72 -152 84 -215 94v51h64c168 0 219 54 219 137c0 66 -48 111 -120 111c-64 0 -109 -38 -109 -97c0 -29 15 -59 44 -76l-43 -32c-36 24 -57 66 -57 110
c0 65 41 117 102 138c-33 29 -58 61 -105 61c-36 0 -62 -23 -62 -61c0 -30 12 -50 27 -68l-48 -23c-21 22 -35 54 -35 91c0 68 43 115 117 115c117 0 129 -105 221 -105c60 0 78 47 78 84c0 44 -23 87 -86 87h-409v52z" />
    <glyph glyph-name="bnG_D_RA" horiz-adv-x="866" 
d="M766 -33h-52c-3 55 -36 109 -121 109c-36 0 -39 -1 -72 -1c-108 0 -170 63 -176 161l55 15c0 -70 34 -122 126 -122c35 0 24 1 60 1c84 0 114 -30 133 -61h4c-2 13 -13 56 -13 134v65c0 68 9 139 24 195c-91 -61 -159 -115 -242 -207l-59 28v88c0 103 -61 209 -180 209
c-85 0 -141 -51 -163 -97c24 11 58 19 93 19c85 0 149 -50 149 -134c0 -94 -65 -152 -119 -189l-44 38c48 31 105 79 105 152c0 55 -43 81 -98 81c-39 0 -76 -10 -106 -24l-43 41c28 100 114 166 225 166c114 0 171 -77 190 -113h4s-13 48 -13 108v5h453v-52h-397v-248
c58 60 170 153 258 191l52 -29c-21 -68 -33 -148 -33 -228v-301z" />
    <glyph glyph-name="bnD_D_RA" horiz-adv-x="806" 
d="M149 222l-59 28v332h-110v52h846v-52h-680v-275c49 65 165 178 253 216l57 -31c-25 -83 -39 -158 -39 -264v-35c49 65 173 177 261 215l57 -31c-21 -68 -35 -148 -35 -228v-297h-52c-3 55 -36 109 -110 109c-47 0 -125 -1 -158 -1c-108 0 -170 63 -176 161l55 15
c0 -70 34 -122 126 -122c35 0 99 1 135 1c87 0 114 -30 133 -61h4c-2 13 -13 56 -13 134v64c0 69 9 138 26 192c-95 -63 -180 -146 -249 -237l-60 30v98c0 82 13 175 30 224c-95 -63 -173 -146 -242 -237z" />
    <glyph glyph-name="bnN_D_RA" horiz-adv-x="792" 
d="M-20 582v52h832v-52h-400v-321c49 65 165 178 253 216l57 -31c-21 -68 -35 -148 -35 -228v-275h-52c-3 55 -36 109 -110 109c-47 0 -132 -1 -165 -1c-108 0 -170 63 -176 161l55 15c0 -70 34 -122 126 -122c35 0 106 1 142 1c87 0 114 -30 133 -61h4
c-2 13 -13 56 -13 134v42c0 68 11 136 26 192c-95 -63 -173 -146 -242 -237l-59 28c-13 84 -58 224 -173 224c-64 0 -91 -36 -91 -78c0 -30 12 -50 27 -68l-48 -23c-21 22 -35 54 -35 91c0 74 54 132 146 132c87 0 148 -54 180 -128h4s-10 67 -10 214v14h-376z" />
    <glyph glyph-name="bnB_D_RA" horiz-adv-x="737" 
d="M632 -89h-52c-3 55 -36 109 -110 109c-47 0 -125 -1 -158 -1c-108 0 -170 63 -176 161l55 15c0 -70 34 -122 126 -122c35 0 99 1 135 1c87 0 114 -30 133 -61h4c-2 13 -13 56 -13 134v74c0 68 11 136 26 192c-90 -60 -165 -137 -231 -223l-11 -14l-311 161v68
c46 40 146 107 252 144v33h-321v52h777v-52h-400v-321c49 65 165 178 253 216l57 -31c-21 -68 -35 -148 -35 -228v-307zM301 267v224c-68 -26 -156 -77 -206 -118z" />
    <glyph glyph-name="bnM_D_RA" horiz-adv-x="787" 
d="M-20 634h827v-52h-328c15 -17 30 -49 30 -91c0 -61 -32 -118 -101 -132v-108c56 64 174 165 253 196l57 -31c-21 -68 -35 -148 -35 -228v-263h-52c-3 55 -36 109 -110 109c-47 0 -125 -1 -158 -1c-108 0 -170 63 -176 161l55 15c0 -70 34 -122 126 -122c35 0 99 1 135 1
c87 0 114 -30 133 -61h4c-2 13 -13 56 -13 134v30c0 68 11 136 26 192c-95 -63 -158 -125 -243 -216l-58 27v163c-101 12 -118 105 -198 105c-36 0 -62 -23 -62 -61c0 -30 12 -50 27 -68l-48 -23c-21 22 -35 54 -35 91c0 54 27 95 75 109c-7 28 -20 52 -37 72h-94v52z
M374 411c60 0 78 47 78 84c0 44 -23 87 -86 87h-225c13 -19 21 -42 26 -67c104 -7 119 -104 207 -104z" />
    <glyph glyph-name="bnL_D_RA" horiz-adv-x="980" 
d="M1000 582h-397v-248c58 60 170 153 258 191l52 -29c-21 -68 -33 -148 -33 -228v-318h-52c-3 55 -36 109 -110 109c-47 0 -75 -1 -108 -1c-108 0 -170 63 -176 161l55 15c0 -70 34 -122 126 -122c35 0 49 1 85 1c87 0 114 -30 133 -61h4c-2 13 -13 56 -13 134v82
c0 68 9 139 24 195c-91 -61 -159 -115 -242 -207l-59 28v88c-8 27 -38 67 -94 67c-51 0 -87 -38 -87 -103v-40h-56v39c0 66 -40 100 -96 100c-52 0 -97 -42 -97 -117c0 -90 59 -138 132 -138c26 0 53 6 77 20l15 -51c-29 -15 -60 -22 -90 -22c-105 0 -192 78 -192 191
c0 106 71 171 154 171c77 0 109 -37 123 -71h4c12 38 41 75 108 75c51 0 82 -25 95 -40h4v129h-567v52h1020v-52z" />
    <glyph glyph-name="bnN_DH_RA" horiz-adv-x="710" 
d="M-20 582v52h751v-52h-286v-212c64 26 120 46 156 55l52 -48s-27 -55 -27 -235v-81h-56v81c0 132 14 195 23 222c-39 -13 -91 -32 -148 -56v-521h-52c-3 55 -36 109 -110 109c-47 0 -44 -1 -77 -1c-108 0 -170 63 -176 161l55 15c0 -70 34 -122 126 -122c35 0 18 1 54 1
c87 0 114 -30 133 -61h4c-2 12 -11 47 -13 110l-271 136v64c68 46 156 93 241 133c-29 61 -78 111 -153 111c-64 0 -91 -36 -91 -78c0 -30 12 -50 27 -68l-48 -23c-21 22 -35 54 -35 91c0 74 54 132 146 132c87 0 151 -45 190 -126h4s-10 67 -10 211h-409zM392 60h4
c-5 78 -6 99 -6 186v38c-70 -32 -146 -70 -215 -115z" />
    <glyph glyph-name="bnM_P_RA" horiz-adv-x="1050" 
d="M374 411c60 0 78 47 78 84c0 44 -23 87 -86 87h-228c12 -19 21 -42 25 -66c108 -6 122 -105 211 -105zM511 500c67 -1 146 -31 177 -124l163 115c-34 58 -91 95 -167 95c-92 0 -153 -56 -173 -86zM945 -27h-52c-3 55 -40 109 -114 109c-47 0 -161 -1 -194 -1
c-108 0 -170 63 -176 161l55 15c0 -70 34 -122 126 -122c35 0 135 1 171 1c87 0 118 -30 137 -61h4c-1 12 -13 39 -13 111v146c0 39 -5 76 -16 108l-305 -214l-29 45l104 74c-19 61 -61 100 -141 104c-14 -52 -56 -93 -128 -93c-121 0 -135 106 -220 106
c-36 0 -62 -23 -62 -61c0 -30 12 -50 27 -68l-48 -23c-21 22 -35 54 -35 91c0 53 26 93 72 108c-7 29 -20 53 -37 73h-91v52h435c38 -16 62 -41 76 -69c45 40 109 74 192 74c127 0 185 -65 215 -126h4s-13 94 -13 183v36h56v-98h125v-52h-125v-609z" />
    <glyph glyph-name="bnSS_P_RA" horiz-adv-x="962" 
d="M238 582c-32 0 -61 -10 -83 -28l202 -164c8 18 13 38 13 60c0 76 -57 132 -132 132zM238 319c32 0 61 10 84 28l-201 164c-9 -18 -14 -39 -14 -61c0 -76 56 -131 131 -131zM423 500c67 -1 146 -31 177 -124l163 115c-34 58 -91 95 -167 95c-92 0 -153 -56 -173 -86z
M857 -27h-52c-3 55 -40 109 -114 109c-47 0 -131 -1 -164 -1c-108 0 -170 63 -176 161l55 15c0 -70 34 -122 126 -122c35 0 105 1 141 1c87 0 118 -30 137 -61h4c-1 12 -13 39 -13 111v146c0 39 -5 76 -16 108l-305 -214l-29 45l104 74c-18 58 -57 96 -129 103
c-1 -107 -82 -183 -188 -183c-107 0 -187 77 -187 185c0 54 20 100 53 132h-124v52h258c66 0 123 -29 156 -77c45 44 112 82 201 82c127 0 185 -65 215 -126h4s-13 94 -13 183v36h56v-98h125v-52h-125v-609z" />
    <glyph glyph-name="bnS_P_RA" horiz-adv-x="1107" 
d="M505 582h-200c2 -87 40 -165 120 -165c63 0 86 47 86 107c0 21 -2 40 -6 58zM568 500c67 -1 146 -31 177 -124l163 115c-34 58 -91 95 -167 95c-92 0 -153 -56 -173 -86zM1002 -27h-52c-3 55 -40 109 -114 109c-47 0 -131 -1 -164 -1c-108 0 -170 63 -176 161l55 15
c0 -70 34 -122 126 -122c35 0 105 1 141 1c87 0 118 -30 137 -61h4c-1 12 -13 39 -13 111v146c0 39 -5 76 -16 108l-305 -214l-29 45l104 74c-19 62 -63 102 -146 104c-20 -51 -62 -85 -130 -85c-82 0 -131 57 -148 109c-19 -64 -58 -108 -124 -108c-59 0 -104 38 -131 80
l41 34c22 -30 49 -61 90 -61c69 0 88 98 93 164h-265v52h569c7 -22 11 -40 14 -56c43 34 103 61 177 61c127 0 185 -65 215 -126h4s-13 94 -13 183v36h56v-98h125v-52h-125v-609z" />
    <glyph glyph-name="bnL_PH_RA" horiz-adv-x="1075" 
d="M-20 582v52h1115v-52h-513v-155l71 -82v-57l-148 -95l217 -106h4c-5 78 -8 132 -8 198v197c34 14 70 21 106 21c108 0 198 -63 198 -175c0 -87 -53 -146 -114 -174l-38 43c61 25 96 72 96 131c0 86 -65 120 -134 120c-20 0 -38 -3 -58 -8v-610h-52
c-3 55 -40 109 -114 109c-47 0 -51 -1 -84 -1c-108 0 -170 63 -176 161l55 15c0 -70 34 -122 126 -122c35 0 25 1 61 1c87 0 118 -30 137 -61h4c-1 11 -11 35 -13 95l-273 133v61l155 100l-74 83c-24 30 -49 61 -94 61c-44 0 -76 -38 -76 -103v-40h-56v39
c0 66 -39 100 -96 100c-52 0 -97 -42 -97 -117c0 -90 53 -138 126 -138c26 0 53 6 77 20l15 -51c-29 -15 -60 -22 -90 -22c-105 0 -184 78 -184 191c0 106 69 171 152 171c80 0 112 -45 123 -75h4c9 36 35 79 104 79c49 0 76 -26 88 -41h4v104h-546z" />
    <glyph glyph-name="bnS_PH_RA" horiz-adv-x="991" 
d="M65 479c22 -30 49 -61 90 -61c69 0 88 98 93 164h-268v52h1031v-52h-447c4 -19 6 -38 6 -58c0 -53 -16 -99 -49 -128l48 -53v-59l-148 -95l217 -106h4c-5 78 -8 132 -8 198v198c34 14 70 21 106 21c108 0 198 -63 198 -175c0 -87 -53 -146 -114 -174l-38 43
c61 25 96 72 96 131c0 86 -65 120 -134 120c-20 0 -38 -3 -58 -8v-617h-52c-3 55 -40 109 -114 109c-47 0 -51 -1 -84 -1c-108 0 -170 63 -176 161l55 15c0 -70 34 -122 126 -122c35 0 25 1 61 1c87 0 118 -30 137 -61h4c-1 11 -12 36 -13 100l-273 133v62l155 100l-47 52
c-13 -3 -27 -5 -42 -5c-82 0 -131 57 -148 109c-19 -64 -58 -108 -124 -108c-59 0 -104 38 -131 80zM514 524c0 21 -2 40 -6 58h-200c2 -87 40 -165 120 -165c63 0 86 47 86 107z" />
    <glyph glyph-name="bnM_PH_RA" horiz-adv-x="946" 
d="M-20 634h986v-52h-481c22 -28 30 -60 30 -91c0 -37 -12 -72 -37 -98l46 -50v-59l-148 -95l217 -106h4c-5 78 -8 132 -8 198v198c34 14 70 21 106 21c108 0 198 -63 198 -175c0 -87 -53 -146 -114 -174l-38 43c61 25 96 72 96 131c0 86 -65 120 -134 120
c-20 0 -38 -3 -58 -8v-617h-52c-3 55 -40 109 -114 109c-47 0 -51 -1 -84 -1c-108 0 -170 63 -176 161l55 15c0 -70 34 -122 126 -122c35 0 25 1 61 1c87 0 118 -30 137 -61h4c-1 11 -12 36 -13 100l-273 133v62l155 100l-42 46c-14 -4 -31 -7 -49 -7
c-121 0 -135 106 -220 106c-36 0 -62 -23 -62 -61c0 -30 12 -50 27 -68l-48 -23c-21 22 -35 54 -35 91c0 53 26 93 72 108c-7 29 -20 53 -37 73h-97v52zM380 411c60 0 78 47 78 84c0 44 -23 87 -86 87h-228c12 -19 21 -42 25 -66c108 -6 122 -105 211 -105z" />
    <glyph glyph-name="bnM_B_RA" horiz-adv-x="569" 
d="M-20 634h609v-52h-95c15 -17 30 -49 30 -91c0 -47 -19 -92 -60 -116v-555h-52c-3 55 -40 109 -114 109c-47 0 -51 -1 -84 -1c-108 0 -170 63 -176 161l55 15c0 -70 34 -122 126 -122c35 0 25 1 61 1c87 0 118 -30 137 -61h4c-1 12 -13 39 -13 101l-301 151v59
c57 47 139 97 217 136c-65 28 -88 93 -155 93c-36 0 -62 -23 -62 -61c0 -30 12 -50 27 -68l-48 -23c-21 22 -35 54 -35 91c0 53 26 93 72 108c-7 29 -20 53 -37 73h-106v52zM411 82h4c-5 78 -6 142 -6 208v59c-93 -41 -186 -100 -246 -143zM389 411c60 0 78 47 78 84
c0 44 -23 87 -86 87h-228c12 -19 21 -42 25 -66c108 -6 122 -105 211 -105z" />
    <glyph glyph-name="bnD_BH_RA" horiz-adv-x="522" 
d="M542 582h-412v-228c59 58 165 135 253 173l57 -31c-21 -68 -33 -148 -33 -228v-14c43 -49 66 -119 66 -192v-282h-52c-3 55 -40 109 -114 109c-47 0 -51 -1 -84 -1c-108 0 -170 63 -176 161l55 15c0 -70 34 -122 126 -122c35 0 25 1 61 1c87 0 118 -30 137 -61h4
c-1 12 -13 39 -13 111v68c0 66 -14 108 -35 137h-4c-47 -101 -103 -130 -159 -130c-72 0 -121 51 -121 116c0 23 8 49 22 69l58 -12c-14 -13 -23 -36 -23 -57c0 -37 21 -65 64 -65c45 0 84 33 132 145v4c0 68 9 139 24 195c-82 -46 -149 -95 -242 -188l-59 28v279h-94v52
h562v-52z" />
    <glyph glyph-name="bnB_BH_RA" horiz-adv-x="527" 
d="M547 582h-135v-347c41 -50 63 -118 63 -189v-276h-52c-3 55 -40 109 -114 109c-47 0 -51 -1 -84 -1c-108 0 -170 63 -176 161l55 15c0 -70 34 -122 126 -122c35 0 25 1 61 1c87 0 118 -30 137 -61h4c-1 12 -13 39 -13 111v62c0 66 -14 108 -35 137h-4
c-47 -101 -103 -130 -159 -130c-72 0 -121 51 -121 116c0 23 8 49 22 69l58 -12c-14 -13 -23 -36 -23 -57c0 -37 21 -65 64 -65c38 0 71 23 110 97l-266 129v69c91 81 197 133 291 165v19h-376v52h567v-52zM359 251h4c-5 78 -7 150 -7 216v38c-79 -29 -158 -71 -242 -139z
" />
    <glyph glyph-name="bnM_BH_RA" horiz-adv-x="622" 
d="M-20 634h662v-52h-154c15 -17 30 -49 30 -91c0 -43 -16 -83 -49 -109c49 -50 76 -124 76 -203v-275h-52c-3 55 -40 109 -114 109c-47 0 -51 -1 -84 -1c-108 0 -170 63 -176 161l55 15c0 -70 34 -122 126 -122c35 0 25 1 61 1c87 0 118 -30 137 -61h4
c-1 12 -13 39 -13 111v61c0 66 -14 108 -35 137h-4c-47 -101 -103 -130 -159 -130c-72 0 -121 51 -121 116c0 23 8 49 22 69l58 -12c-14 -13 -23 -36 -23 -57c0 -37 21 -65 64 -65c42 0 78 28 122 123c-9 -2 -19 -3 -30 -3c-121 0 -135 106 -220 106c-36 0 -62 -23 -62 -61
c0 -30 12 -50 27 -68l-48 -23c-21 22 -35 54 -35 91c0 53 26 93 72 108c-7 29 -20 53 -37 73h-100v52zM383 411c60 0 78 47 78 84c0 44 -23 87 -86 87h-228c12 -19 21 -42 25 -66c108 -6 122 -105 211 -105z" />
    <glyph glyph-name="bnK_BA" horiz-adv-x="640" 
d="M660 582h-280v-28c141 0 210 -85 210 -172c0 -60 -27 -117 -85 -152l-40 41c47 30 69 67 69 111c0 71 -53 117 -154 117v-553l43 -23l-45 -40l-325 177v62c50 39 133 87 208 120l-208 104v61c67 66 167 126 272 143v32h-345v52h680v-52zM327 -25h4c-5 78 -6 99 -6 186v48
c-76 -30 -162 -79 -216 -115zM327 271h4c-5 78 -6 142 -6 208v15c-86 -17 -164 -68 -218 -113z" />
    <glyph glyph-name="bnKH_BA" horiz-adv-x="584" 
d="M477 -127l-386 170v62c41 32 103 70 166 101l-210 78v70c147 3 258 38 258 138c0 30 -13 53 -32 69c-35 -78 -89 -110 -153 -110c-83 0 -127 53 -127 119c0 20 4 42 13 64h58c-10 -22 -16 -45 -16 -66c0 -37 21 -66 72 -66c56 0 90 28 125 132h28c52 -40 86 -84 86 -142
c0 -105 -79 -163 -213 -183v-4l279 -104h4c-5 78 -6 147 -6 213v318h56v-98h110v-52h-110v-648l45 -20zM430 -43c-5 78 -6 99 -6 186v1l-93 34c-67 -29 -136 -69 -182 -99l277 -122h4z" />
    <glyph glyph-name="bnG_BA" horiz-adv-x="590" 
d="M485 732v-98h125v-52h-125v-661l43 -23l-45 -40l-325 177v62c64 51 185 116 271 145v130c0 103 -61 209 -180 209c-85 0 -141 -51 -163 -97c24 11 58 19 93 19c85 0 149 -50 149 -134c0 -94 -65 -152 -119 -189l-44 38c48 31 105 79 105 152c0 55 -43 81 -98 81
c-39 0 -76 -10 -106 -24l-43 41c28 100 114 166 225 166c114 0 171 -77 190 -113h4s-13 70 -13 159v52h56zM432 -50h4c-5 78 -6 99 -6 186v48c-76 -30 -162 -79 -216 -115z" />
    <glyph glyph-name="bnC_BA" horiz-adv-x="503" 
d="M523 582h-371c13 -29 42 -45 74 -57l76 -28c85 -31 126 -67 126 -144c0 -34 -12 -69 -33 -98v-324l43 -23l-45 -40l-325 177v62c25 20 60 42 97 64c-47 16 -75 55 -75 109v302h-110v52h543v-52zM146 517h-4c1 -37 4 -63 4 -160v-74c0 -41 21 -67 70 -67
c73 0 154 60 154 138c0 40 -12 64 -88 91l-57 20c-46 16 -70 39 -79 52zM346 -40c-5 78 -6 99 -6 186v48c-76 -30 -162 -79 -216 -115l218 -119h4z" />
    <glyph glyph-name="bnCH_BA" horiz-adv-x="576" 
d="M124 582c18 -37 85 -48 141 -71c18 5 44 11 72 11c100 0 181 -62 181 -163c0 -133 -96 -201 -288 -205v-4c23 -7 65 -24 140 -64l168 -90l-38 -42c-31 18 -60 33 -86 48v-178l43 -23l-45 -40l-325 177v62c38 30 95 65 154 95c-91 45 -121 51 -160 55v51h108
c185 0 274 54 274 158c0 81 -64 111 -133 111h-3c13 -15 21 -35 21 -60c0 -75 -62 -147 -153 -147c-75 0 -114 48 -114 110v209h-101v52h616v-52h-472zM294 411c0 66 -103 53 -159 99v-137c0 -34 17 -58 61 -58c57 0 98 47 98 96zM361 -147h4c-5 78 -6 99 -6 179
c-20 11 -39 21 -56 30c-60 -28 -119 -63 -160 -90z" />
    <glyph glyph-name="bnJ_BA" horiz-adv-x="767" 
d="M664 -178l43 -23l-45 -40l-325 177v62c65 51 186 116 272 146v26c0 113 37 188 37 188c-120 1 -221 88 -234 179c-42 -24 -125 -63 -125 -115c0 -36 28 -47 75 -50l105 -8c28 -23 45 -67 45 -104c0 -92 -66 -162 -181 -162c-171 0 -296 166 -296 362l55 13
c0 -176 100 -319 240 -319c84 0 126 48 126 102c0 25 -7 44 -18 57l-89 7c-64 5 -118 31 -118 101c0 74 89 124 157 161h-408v52h807v-52h-332c10 -77 65 -175 210 -175h17l29 -38c-22 -39 -47 -103 -47 -201v-346zM615 -149c-5 78 -6 99 -6 186v48
c-76 -30 -162 -79 -216 -115l218 -119h4z" />
    <glyph glyph-name="bnTT_BA" horiz-adv-x="524" 
d="M2 911l53 13c-1 -11 -3 -23 -3 -34c0 -37 15 -73 96 -73h140c96 0 165 -44 165 -131c0 -14 -2 -34 -6 -52h97v-52h-399v-267c0 -59 37 -87 96 -87c95 0 153 64 153 147c0 55 -22 91 -78 91c-29 0 -54 -16 -69 -37l-36 45c19 23 52 46 103 46c84 0 138 -57 138 -145
c0 -54 -17 -99 -47 -133v-308l43 -23l-45 -40l-325 177v62c29 23 68 48 111 72c-58 15 -100 58 -100 129v271h-109v52h411c4 16 6 38 6 49c0 57 -35 82 -116 82h-138c-113 0 -143 57 -143 116c0 10 0 20 2 30zM352 -37h4c-5 78 -6 99 -6 186v48c-76 -30 -162 -79 -216 -115z
" />
    <glyph glyph-name="bnNN_BA" horiz-adv-x="569" 
d="M285 337l15 -47c-21 -13 -51 -21 -87 -21c-98 0 -184 66 -184 174c0 111 73 201 201 201c112 0 160 -71 181 -113h4c-1 18 -7 67 -7 150v51h56v-98h125v-52h-125v-618l43 -23l-45 -40l-325 177v62c64 51 185 116 271 145v55c0 154 -63 252 -178 252
c-95 0 -144 -67 -144 -150s60 -121 127 -121c28 0 52 6 72 16zM411 -7h4c-5 78 -6 99 -6 186v48c-76 -30 -162 -79 -216 -115z" />
    <glyph glyph-name="bnDD_BA" horiz-adv-x="637" 
d="M657 582h-360v-111c0 -36 14 -60 53 -60c40 0 87 24 154 87c28 -18 71 -76 71 -153c0 -79 -29 -140 -83 -176v-291l43 -23l-45 -40l-325 177v62c32 25 78 54 126 80c-159 26 -245 175 -257 342l55 11c11 -181 103 -303 253 -303c113 0 177 68 177 161c0 31 -6 56 -20 76
c-50 -39 -96 -63 -149 -63c-67 0 -109 48 -109 110v114h-261v52h677v-52zM439 -93h4c-5 78 -6 99 -6 186v48c-76 -30 -162 -79 -216 -115z" />
    <glyph glyph-name="bnT_BA" horiz-adv-x="615" 
d="M-20 634h655v-52h-655v52zM90 516c32 -173 103 -338 257 -338c101 0 164 68 164 175c0 82 -33 131 -100 131c-47 0 -80 -28 -80 -78c0 -32 14 -60 41 -78l-44 -31c-33 22 -53 62 -53 108c0 69 51 130 136 130c107 0 154 -81 154 -183c0 -83 -30 -144 -80 -181v-299
l43 -23l-45 -40l-325 177v62c35 27 86 59 139 87c-147 28 -226 180 -259 357zM436 -99c-5 78 -6 99 -6 186v48c-76 -30 -162 -79 -216 -115l218 -119h4z" />
    <glyph glyph-name="bnTH_BA" horiz-adv-x="612" 
d="M157 417l-44 -29c-42 30 -52 75 -52 106c0 86 68 145 158 145c88 0 170 -50 170 -155c0 -93 -61 -174 -232 -187v-4l296 -117h4c-5 78 -6 144 -6 210v346h56v-98h125v-52h-125v-661l45 -20l-47 -41l-386 170v62c38 30 96 66 155 95l-204 81v69c196 10 261 64 261 148
c0 62 -42 100 -112 100c-54 0 -100 -34 -100 -91c0 -30 13 -56 38 -77zM454 -56h4c-5 74 -6 97 -6 172l-107 43c-62 -29 -125 -65 -168 -93z" />
    <glyph glyph-name="bnD_BA" horiz-adv-x="523" 
d="M543 582h-397v-248c58 60 170 153 258 191l52 -29c-21 -68 -33 -148 -33 -228v-294l43 -23l-45 -40l-325 177v62c65 51 185 116 271 145c3 60 11 119 24 168c-91 -61 -159 -115 -242 -207l-59 28v298h-110v52h563v-52zM370 3h4c-5 78 -6 99 -6 186v48
c-76 -30 -162 -79 -216 -115z" />
    <glyph glyph-name="bnDH_BA" horiz-adv-x="568" 
d="M113 517c0 -57 58 -76 112 -76c60 0 127 34 182 71v122h181v-52h-125v-661l45 -20l-47 -41l-391 170v62c40 31 106 69 166 100l-166 66v65l41 23c53 30 96 44 96 44v4c-97 3 -150 48 -150 124c0 69 46 123 135 123c41 0 83 -14 106 -35l-25 -44c-22 17 -49 27 -81 27
c-49 0 -79 -30 -79 -72zM414 -56c-5 78 -6 99 -6 179l-102 41c-65 -30 -132 -69 -177 -99l281 -121h4zM416 182c-6 75 -9 140 -9 204v59l-276 -151l281 -112h4z" />
    <glyph glyph-name="bnN_BA" horiz-adv-x="515" 
d="M-20 582v52h554v-52h-109v-561l43 -23l-45 -40l-325 177v62c57 45 159 101 241 134c-29 62 -78 112 -153 112c-64 0 -91 -36 -91 -78c0 -30 12 -50 27 -68l-48 -23c-21 22 -35 54 -35 91c0 74 54 132 146 132c87 0 151 -45 190 -126h4s-10 67 -10 211h-389zM372 50h4
c-5 78 -6 99 -6 186v48c-76 -30 -162 -79 -216 -115z" />
    <glyph glyph-name="bnP_BA" horiz-adv-x="630" 
d="M91 500c67 -1 146 -31 177 -124l163 115c-34 58 -91 95 -167 95c-92 0 -153 -56 -173 -86zM52 449l-36 49c37 63 120 141 247 141s185 -65 215 -126h4s-13 94 -13 183v36h56v-98h125v-52h-125v-598l43 -23l-45 -40l-325 177v62c65 51 186 116 272 146v26
c0 39 -6 76 -16 109l-306 -215l-29 45l105 74c-18 56 -56 94 -124 102c-18 2 -30 2 -48 2zM472 13h4c-5 78 -6 99 -6 186v48c-76 -30 -162 -79 -216 -115z" />
    <glyph glyph-name="bnB_BA" horiz-adv-x="523" 
d="M417 -154l-356 178v59c63 50 151 98 232 133l-232 116v59c81 64 206 127 301 161v30h-382v52h563v-52h-125v-676l43 -22zM369 -68c-5 78 -7 142 -7 208v42l-2 1c-90 -36 -184 -85 -243 -127l248 -124h4zM369 240c-5 78 -7 142 -7 208v44c-91 -36 -185 -85 -245 -128
l248 -124h4z" />
    <glyph glyph-name="bnM_BA" horiz-adv-x="579" 
d="M-20 634h619v-52h-110c15 -17 30 -49 30 -91c0 -47 -19 -92 -60 -116v-319l43 -22l-44 -38l-356 178v59c57 47 139 97 217 136c-65 28 -88 93 -155 93c-36 0 -62 -23 -62 -61c0 -30 12 -50 27 -68l-48 -23c-21 22 -35 54 -35 91c0 53 26 93 72 108c-7 29 -20 53 -37 73
h-101v52zM406 82h4c-5 78 -6 142 -6 208v59c-93 -41 -186 -100 -246 -143zM384 411c60 0 78 47 78 84c0 44 -23 87 -86 87h-228c12 -19 21 -42 25 -66c108 -6 122 -105 211 -105z" />
    <glyph glyph-name="bnL_BA" horiz-adv-x="706" 
d="M-20 582v52h746v-52h-125v-580l43 -23l-45 -40l-325 177v62c65 51 186 116 272 146v63c-8 27 -38 67 -94 67c-51 0 -87 -38 -87 -103v-40h-56v39c0 66 -40 100 -91 100c-60 0 -102 -45 -102 -120c0 -83 51 -124 114 -133l-22 -51c-90 17 -150 87 -150 184
c0 106 65 174 158 174c65 0 104 -32 119 -66h4c14 39 48 70 108 70c51 0 82 -25 95 -40h4v114h-566zM552 31c-5 78 -6 99 -6 186v48c-76 -30 -162 -79 -216 -115l218 -119h4z" />
    <glyph glyph-name="bnSH_BA" horiz-adv-x="598" 
d="M30 299v53c12 -3 26 -4 37 -4c82 0 106 55 106 116c0 67 -37 118 -116 118h-77v52h80c64 0 112 -22 141 -79c27 52 68 79 129 79c68 0 99 -36 113 -56h4s-10 53 -10 128v26h56v-98h125v-52h-125v-618l43 -23l-45 -40l-325 177v62c64 51 185 116 271 145v153
c0 94 -34 143 -104 143c-58 0 -105 -41 -105 -117c0 -74 45 -116 116 -116c8 0 18 1 28 2v-51c-9 -1 -19 -2 -27 -2c-69 0 -116 22 -147 77c-27 -56 -59 -78 -132 -78c-11 0 -24 1 -36 3zM440 -7h4c-5 78 -7 99 -7 186v48c-76 -30 -161 -79 -215 -115z" />
    <glyph glyph-name="bnSS_BA" horiz-adv-x="504" 
d="M66 450c0 54 20 99 53 132h-139v52h544v-52h-137c33 -33 54 -78 54 -132c0 -41 -12 -78 -32 -107v-339l43 -22l-44 -38l-356 178v59c40 33 92 64 146 91c-78 22 -132 89 -132 178zM360 30c-5 78 -6 142 -6 208v43c-94 -38 -186 -84 -246 -127l248 -124h4zM122 450
c0 -76 56 -131 131 -131c32 0 61 10 84 28l-202 164c-9 -18 -13 -39 -13 -61zM253 582c-32 0 -61 -11 -83 -28l201 -164c9 17 14 38 14 60c0 76 -57 132 -132 132z" />
    <glyph glyph-name="bnS_BA" horiz-adv-x="615" 
d="M60 479c22 -30 49 -61 90 -61c69 0 88 98 93 164h-263v52h655v-52h-76c4 -19 6 -38 6 -58c0 -64 -23 -118 -72 -144v-336l43 -22l-44 -38l-356 178v59c61 52 147 111 228 154c-48 19 -78 60 -90 98c-19 -64 -58 -108 -124 -108c-59 0 -104 38 -131 80zM509 524
c0 21 -2 40 -6 58h-200c2 -87 40 -165 120 -165c63 0 86 47 86 107zM444 70c-5 78 -7 142 -7 208v73c-82 -41 -182 -104 -245 -157l248 -124h4z" />
    <glyph glyph-name="bnH_BA" horiz-adv-x="480" 
d="M-20 634h520v-52h-520v52zM210 186v-4c27 -8 97 -38 160 -75l114 -67l-40 -39c-17 10 -34 20 -49 29v-176l43 -23l-45 -40l-325 177v62c38 30 96 65 155 95c-70 34 -104 42 -150 49v57h64c168 0 219 59 219 142c0 63 -50 106 -120 106c-64 0 -109 -38 -109 -97
c0 -29 15 -59 44 -76l-43 -32c-36 24 -57 66 -57 110c0 85 69 148 164 148c103 0 177 -63 177 -163c0 -111 -74 -169 -202 -183zM342 -117h4c-5 78 -7 99 -7 179c-21 12 -40 23 -57 32c-59 -28 -117 -64 -158 -92z" />
    <glyph glyph-name="bnK_SS_BA" horiz-adv-x="845" 
d="M865 582h-274v-176h50c97 0 165 -54 165 -142c0 -77 -36 -126 -90 -156l-41 42c43 19 75 56 75 114c0 62 -47 89 -109 89h-50v-549l43 -23l-45 -40l-325 177v62c42 33 139 88 212 124c-44 42 -105 72 -174 77c-16 -57 -48 -74 -71 -74c-30 0 -46 18 -46 46
c0 31 25 63 70 76c2 13 2 26 2 39c0 75 -55 121 -117 125c-13 -55 -46 -76 -71 -76c-30 0 -46 19 -46 47c0 31 25 64 71 77v4c0 60 -23 105 -59 137h-55v52h885v-52zM538 -167h4c-5 78 -7 99 -7 182c-6 16 -14 32 -24 47c-62 -31 -146 -80 -191 -110zM540 106
c-3 61 -5 142 -5 203v44h-84c-76 0 -140 55 -140 147v82h-210c28 -38 45 -86 45 -136c86 -5 166 -74 166 -180c0 -12 0 -23 -1 -32c106 -6 202 -82 229 -128zM452 406h83v176h-168v-82c0 -59 28 -94 85 -94z" />
    <glyph glyph-name="bnC_CH_BA" horiz-adv-x="912" 
d="M144 517h-4c2 -12 6 -67 6 -164v-104c0 -41 21 -67 70 -67c73 0 148 68 148 160c0 40 -16 76 -92 103l-47 16c-46 16 -69 37 -81 56zM460 582c18 -37 85 -48 141 -71c18 5 44 11 72 11c100 0 181 -62 181 -163c0 -133 -96 -201 -288 -205v-4c23 -7 65 -24 140 -64
l168 -90l-38 -42c-31 18 -60 33 -86 48v-178l43 -23l-45 -40l-325 177v62c38 30 95 65 154 95c-91 45 -121 51 -160 55v51h108c185 0 274 54 274 158c0 81 -64 111 -133 111h-3c13 -15 21 -35 21 -60c0 -75 -62 -147 -153 -147c-60 0 -96 30 -109 74
c-2 -115 -96 -208 -206 -208c-77 0 -126 45 -126 117v336h-110v52h952v-52h-472zM630 411c0 66 -103 53 -159 99v-137c0 -34 17 -58 61 -58c57 0 98 47 98 96zM697 -147h4c-5 78 -6 99 -6 179c-20 11 -39 21 -56 30c-60 -28 -119 -63 -160 -90zM292 497
c69 -25 111 -61 125 -115v200h-270c14 -29 42 -47 79 -61z" />
    <glyph glyph-name="bnJ_J_BA" horiz-adv-x="1095" 
d="M666 40c79 0 122 45 122 99c0 25 -7 48 -18 61l-97 6c-64 4 -112 35 -112 97c0 48 36 91 84 127c-94 2 -195 22 -239 103c-54 -26 -133 -72 -133 -123c0 -36 28 -47 60 -49l122 -9c28 -23 43 -70 43 -107c0 -32 -8 -61 -24 -85c43 -73 113 -120 192 -120zM-20 582v52
h1135v-52h-671c29 -89 131 -103 243 -103h51c27 -69 65 -145 227 -145h51l29 -41c-22 -39 -54 -103 -54 -201v-329l43 -23l-45 -40l-282 151v62c55 43 148 95 228 129v52c0 113 45 188 45 188c-124 1 -210 22 -271 126c-44 -29 -90 -63 -90 -101c0 -34 28 -45 60 -47l122 -9
c28 -23 43 -74 43 -111c0 -92 -68 -154 -177 -154c-95 0 -180 52 -233 132c-31 -22 -70 -34 -117 -34c-171 0 -286 168 -286 364l55 13c0 -176 90 -323 230 -323c84 0 126 52 126 106c0 25 -7 44 -18 57l-97 6c-64 4 -112 35 -112 101c0 76 75 129 165 174h-400zM942 -208
c-5 78 -7 99 -7 186v4c-63 -30 -128 -68 -172 -97l175 -93h4z" />
    <glyph glyph-name="bnT_T_BA" horiz-adv-x="591" 
d="M611 582h-631v52h631v-52zM314 258c81 40 142 83 142 149c0 45 -29 75 -76 75c-65 0 -103 -48 -120 -92l-49 30c23 66 86 114 168 114c84 0 133 -54 133 -127c0 -39 -14 -73 -38 -103c43 -27 77 -74 77 -138s-32 -114 -88 -139v-246l43 -23l-45 -40l-325 177v62
c32 25 77 54 125 80c-116 61 -188 216 -225 380l50 26c46 -208 138 -380 287 -380c77 0 122 43 122 104c0 44 -22 79 -59 100c-23 -19 -51 -35 -83 -49zM414 -190c-5 78 -7 99 -7 186v15c-11 -1 -22 -2 -33 -2c-13 0 -25 1 -38 3c-54 -27 -107 -58 -144 -83l218 -119h4z" />
    <glyph glyph-name="bnS_T_BA" horiz-adv-x="642" 
d="M67 489c22 -30 51 -62 92 -62c68 0 92 89 98 155h-277v52h682v-52h-91c4 -19 6 -38 6 -51c0 -65 -23 -113 -66 -138c40 -31 62 -83 62 -144c0 -85 -35 -149 -91 -185v-253l43 -23l-45 -40l-325 177v62c25 20 59 42 96 64c-92 40 -154 134 -191 239l49 32
c40 -128 123 -240 246 -240c98 0 162 64 162 168c0 67 -35 123 -105 123c-49 0 -84 -33 -84 -85c0 -35 18 -65 44 -82l-41 -33c-35 24 -59 67 -59 117s23 93 64 116c-25 21 -41 49 -50 76c-20 -62 -60 -107 -127 -107c-59 0 -106 38 -133 80zM521 531c0 14 -2 33 -6 51h-200
c3 -87 40 -156 116 -156c56 0 90 38 90 105zM433 -160c-5 78 -7 99 -7 186v13c-22 -7 -46 -10 -71 -10c-8 0 -15 0 -23 1c-46 -24 -89 -50 -121 -71l218 -119h4z" />
    <glyph glyph-name="bnD_D_BA" horiz-adv-x="806" 
d="M149 226l-59 28v328h-110v52h846v-52h-680v-271c49 65 165 178 253 216l57 -31c-25 -83 -37 -158 -37 -264v-15c49 65 171 177 259 215l57 -31c-21 -68 -35 -148 -35 -228v-305l43 -23l-45 -40l-325 177v62c64 51 185 116 271 145c1 65 10 129 26 179
c-95 -63 -180 -146 -249 -237l-60 30v78c0 82 13 175 30 224c-95 -63 -173 -146 -242 -237zM647 -103h4c-5 78 -7 99 -7 186v48c-76 -30 -161 -79 -215 -115z" />
    <glyph glyph-name="bnD_DH_BA" horiz-adv-x="691" 
d="M711 582h-563v-213c75 56 169 116 253 148l57 -31c-12 -38 -21 -79 -26 -122c61 25 114 44 149 52l51 -45s-26 -52 -26 -248v-71h-56v71c0 134 13 202 22 231c-39 -13 -89 -31 -146 -54c-1 -14 -1 -28 -1 -42v-447l43 -23l-45 -40l-325 172v62c31 25 75 52 122 78
l-122 63v67c77 52 180 106 275 148c4 42 11 82 20 117c-90 -40 -171 -99 -246 -159l-55 26v260h-112v52h731v-52zM372 -160h4c-4 64 -6 89 -7 144l-87 45c-49 -25 -95 -53 -128 -75zM372 43h4c-5 78 -7 142 -7 208v24c-73 -32 -150 -72 -220 -118z" />
    <glyph glyph-name="bnN_DH_BA" horiz-adv-x="701" 
d="M-20 582v52h741v-52h-296v-221c64 26 120 46 156 55l51 -45s-26 -52 -26 -248v-71h-56v71c0 134 13 202 22 231c-39 -13 -90 -31 -147 -55v-488l43 -23l-45 -40l-325 172v62c31 25 75 52 122 78l-122 63v67c69 47 158 94 244 134c-28 65 -78 119 -156 119
c-64 0 -91 -36 -91 -78c0 -30 12 -50 27 -68l-48 -23c-21 22 -35 54 -35 91c0 74 54 132 146 132c87 0 151 -45 190 -126h4s-10 67 -10 211h-389zM372 -160h4c-4 63 -6 89 -7 144l-87 44c-47 -23 -95 -52 -128 -74zM372 43h4c-5 78 -7 142 -7 208v24
c-73 -32 -151 -72 -221 -119z" />
    </font>
</defs>
</svg>
