<?xml version="1.0" standalone="no"?>
<!DOCTYPE svg PUBLIC "-//W3C//DTD SVG 1.1//EN" "http://www.w3.org/Graphics/SVG/1.1/DTD/svg11.dtd" >
<svg xmlns="http://www.w3.org/2000/svg" xmlns:xlink="http://www.w3.org/1999/xlink" version="1.1">
<metadata>
Created by FontForge 20170910 at Wed Feb 28 16:53:48 2018
 By Jimmy Wärting
Copyright 2015 Indian Type Foundry. All rights reserved.
</metadata>
<defs>
<font id="KohinoorBangla-Bold" horiz-adv-x="0" >
  <font-face 
    font-family="Kohinoor Bangla"
    font-weight="700"
    font-stretch="normal"
    units-per-em="1000"
    panose-1="2 0 0 0 0 0 0 0 0 0"
    ascent="800"
    descent="-200"
    x-height="565"
    cap-height="701"
    bbox="-629 -434 1533 1231"
    underline-thickness="50"
    underline-position="-100"
    stemh="109"
    stemv="139"
    unicode-range="U+000D-FB02"
  />
<missing-glyph horiz-adv-x="500" 
d="M0 0v700h500v-700h-500zM250 395l170 255h-340zM280 350l170 -255v510zM80 50h340l-170 255zM50 605v-510l170 255z" />
    <glyph glyph-name="fi" unicode="fi" horiz-adv-x="645" 
d="M555 750l-32 -110c-50 18 -129 23 -182 23c-77 0 -86 -29 -86 -71v-27h322v-565h-151v461h-174v-461h-151v461h-83v104h86v42c0 112 73 175 244 175c59 0 151 -4 207 -32z" />
    <glyph glyph-name="fl" unicode="fl" horiz-adv-x="672" 
d="M577 745v-567c0 -42 19 -56 47 -56c11 0 16 1 21 2v-119c-18 -7 -39 -14 -72 -14c-92 0 -147 54 -147 148v520c-27 3 -56 4 -85 4c-77 0 -86 -29 -86 -71v-27h94v-104h-97v-461h-151v461h-83v104h86v42c0 112 73 175 244 175c115 0 193 -17 229 -37z" />
    <glyph glyph-name="f_f" unicode="ff" horiz-adv-x="716" 
d="M429 565v40c0 16 2 31 5 46c-30 8 -61 12 -93 12c-77 0 -86 -29 -86 -71v-27h174zM723 772l-21 -122c-23 6 -46 10 -65 10c-42 0 -57 -20 -57 -59v-36h123v-104h-126v-461h-151v461h-174v-461h-151v461h-83v104h86v42c0 112 72 175 243 175c48 0 122 -12 161 -30
c31 19 72 30 123 30c41 0 68 -4 92 -10z" />
    <glyph glyph-name="f_f_i" unicode="ffi" horiz-adv-x="970" 
d="M429 565v42c0 16 1 30 4 44c-30 8 -60 12 -92 12c-77 0 -86 -29 -86 -71v-27h174zM880 750l-32 -110c-50 18 -129 23 -182 23c-77 0 -86 -29 -86 -71v-27h322v-565h-151v461h-174v-461h-151v461h-174v-461h-151v461h-83v104h86v42c0 112 72 175 243 175
c49 0 125 -13 163 -31c39 20 93 31 163 31c59 0 151 -4 207 -32z" />
    <glyph glyph-name="f_f_l" unicode="ffl" horiz-adv-x="997" 
d="M429 565v42c0 16 1 30 4 44c-30 8 -60 12 -92 12c-77 0 -86 -29 -86 -71v-27h174zM902 745v-567c0 -42 19 -56 47 -56c11 0 16 1 21 2v-119c-18 -7 -39 -14 -72 -14c-92 0 -147 54 -147 148v520c-27 3 -56 4 -85 4c-77 0 -86 -29 -86 -71v-27h94v-104h-97v-461h-151v461
h-174v-461h-151v461h-83v104h86v42c0 112 72 175 243 175c49 0 125 -13 163 -31c39 20 93 31 163 31c115 0 193 -17 229 -37z" />
    <glyph glyph-name=".notdef" horiz-adv-x="500" 
d="M0 0v700h500v-700h-500zM250 395l170 255h-340zM280 350l170 -255v510zM80 50h340l-170 255zM50 605v-510l170 255z" />
    <glyph glyph-name="NULL" 
 />
    <glyph glyph-name="NULL" 
 />
    <glyph glyph-name="CR" unicode="&#xd;" horiz-adv-x="280" 
 />
    <glyph glyph-name="space" unicode=" " horiz-adv-x="280" 
 />
    <glyph glyph-name="bnA" unicode="&#x985;" horiz-adv-x="948" 
d="M-20 562v109h988v-109h-100v-458l49 -29l-89 -91l-238 139c-45 -42 -110 -66 -189 -66c-202 0 -324 163 -382 387l125 60c40 -185 124 -322 256 -322c86 0 132 55 132 134c0 54 -27 88 -66 88c-28 0 -45 -18 -45 -42c0 -21 12 -38 38 -48l-90 -69c-57 18 -88 72 -88 129
c0 85 73 156 174 156c125 0 212 -92 212 -215c0 -32 -4 -61 -12 -88l85 -50l3 2c-8 25 -12 100 -12 155v228h-751z" />
    <glyph glyph-name="bnAA" unicode="&#x986;" horiz-adv-x="1248" 
d="M1034 763v10h134v-102h100v-109h-100v-562h-140v445c0 98 -33 117 -96 117h-64v-458l49 -29l-89 -91l-238 139c-45 -42 -110 -66 -189 -66c-202 0 -324 163 -382 387l125 60c40 -185 124 -322 256 -322c86 0 132 55 132 134c0 54 -27 88 -66 88c-28 0 -45 -18 -45 -42
c0 -21 12 -38 38 -48l-90 -69c-57 18 -88 72 -88 129c0 85 73 156 174 156c125 0 212 -92 212 -215c0 -32 -4 -61 -12 -88l85 -50l3 2c-8 25 -12 100 -12 155v228h-751v109h989c46 0 70 -20 82 -35h7c-14 37 -24 80 -24 127z" />
    <glyph glyph-name="bnI" unicode="&#x987;" horiz-adv-x="516" 
d="M56 374c0 85 69 156 189 156c126 0 207 -87 207 -207c0 -118 -81 -178 -178 -192v-4c40 -9 69 -20 135 -58l72 -42l-92 -93c-214 130 -239 151 -334 158v110h68c120 0 194 42 194 121c0 49 -26 84 -73 84c-29 0 -50 -17 -50 -45c0 -21 12 -38 39 -48l-92 -69
c-58 22 -85 72 -85 129zM-2 954l133 21c-3 -12 -5 -25 -5 -38c0 -36 17 -71 95 -71h30c109 0 205 -59 205 -177c0 -6 0 -12 -1 -18h81v-109h-556v109h342v9c0 54 -33 70 -98 70h-9c-169 0 -219 88 -219 174c0 10 1 20 2 30z" />
    <glyph glyph-name="bnII" unicode="&#x988;" horiz-adv-x="698" 
d="M53 386c0 80 67 144 168 144c100 0 167 -57 189 -151l128 112l109 -43c-28 -77 -43 -182 -43 -296c0 -94 10 -131 17 -170h-122c-12 34 -21 97 -21 161c0 55 8 123 24 167l-92 -89c-28 -134 -119 -186 -197 -186c-103 0 -164 62 -188 126l105 64c16 -36 36 -71 84 -71
c55 0 86 62 86 154c0 79 -32 112 -71 112c-29 0 -46 -18 -46 -42c0 -21 9 -42 35 -52l-87 -66c-48 20 -78 69 -78 126zM718 562h-738v109h518v9c0 54 -33 70 -98 70h-129c-172 0 -232 91 -232 179c0 8 1 17 2 25l133 21c-2 -9 -3 -18 -3 -27c0 -40 20 -82 106 -82h150
c109 0 205 -59 205 -177c0 -6 0 -12 -1 -18h87v-109z" />
    <glyph glyph-name="bnU" unicode="&#x989;" horiz-adv-x="726" 
d="M41 954l133 21c-2 -9 -3 -18 -3 -27c0 -40 20 -82 106 -82h180c109 0 205 -59 205 -177c0 -6 0 -12 -1 -18h85v-109h-348v-128c0 -27 11 -33 25 -33c27 0 107 43 168 86c54 -33 100 -106 100 -188c0 -142 -112 -260 -293 -260c-221 0 -361 180 -363 391l131 30
c0 -213 121 -297 232 -297c100 0 160 61 160 128c0 14 -3 28 -9 40c-32 -25 -88 -55 -147 -55c-95 0 -143 61 -143 153v133h-279v109h548v9c0 54 -33 70 -98 70h-159c-172 0 -232 91 -232 179c0 8 1 17 2 25z" />
    <glyph glyph-name="bnUU" unicode="&#x98a;" horiz-adv-x="742" 
d="M48 954l133 21c-2 -9 -3 -18 -3 -27c0 -40 20 -82 106 -82h180c109 0 205 -59 205 -177c0 -6 0 -12 -1 -18h94v-109h-347v-125c0 -29 11 -35 25 -35c18 0 66 16 165 85c56 -34 102 -115 102 -198c0 -131 -104 -247 -280 -247c-224 0 -373 161 -411 316l79 28
c18 -88 77 -207 193 -251l5 6c-107 58 -162 192 -170 303l87 26c0 -223 101 -311 218 -311c100 0 151 63 151 128c0 21 -3 38 -9 50c-43 -30 -100 -55 -155 -55c-95 0 -139 64 -139 151v129h-296v109h555v9c0 54 -33 70 -98 70h-159c-172 0 -232 91 -232 179c0 8 1 17 2 25z
" />
    <glyph glyph-name="bnvR" unicode="&#x98b;" horiz-adv-x="795" 
d="M351 176h4c-3 26 -9 84 -9 145v36c-71 -22 -134 -65 -156 -88zM591 773h134v-102h90v-109h-90v-348l-116 -56l-130 74v-128l49 -29l-88 -91l-385 224v118c89 90 220 143 303 159v4c-35 27 -69 49 -83 61c-31 -46 -84 -78 -152 -78c-99 0 -154 65 -154 138
c0 24 3 42 13 61h125c-9 -14 -13 -29 -13 -42c0 -31 22 -49 48 -49c30 0 70 14 105 101h42c23 -12 47 -26 64 -41c-6 34 -9 66 -9 117v16h135v-399l121 -70h4c-8 25 -13 95 -13 156v313z" />
    <glyph glyph-name="bnvRR" unicode="&#x9e0;" horiz-adv-x="795" 
d="M351 176h4c-3 26 -9 84 -9 145v36c-71 -22 -134 -65 -156 -88zM591 773h134v-102h90v-109h-90v-348l-116 -56l-130 74v-128l49 -29l-88 -91l-106 61l-52 -54l204 -121l-83 -87l-306 179l137 142l-179 104v118c89 90 220 143 303 159v4c-35 27 -69 49 -83 61
c-31 -46 -84 -78 -152 -78c-99 0 -154 65 -154 138c0 24 3 42 13 61h125c-9 -14 -13 -29 -13 -42c0 -31 22 -49 48 -49c30 0 70 14 105 101h42c23 -12 47 -26 64 -41c-6 34 -9 66 -9 117v16h135v-399l121 -70h4c-8 25 -13 95 -13 156v313z" />
    <glyph glyph-name="bnvL" unicode="&#x98c;" horiz-adv-x="656" 
d="M135 705c0 15 1 30 5 46l133 23s-6 -18 -6 -38c0 -168 358 -109 358 -448c0 -193 -161 -285 -347 -296l-56 86c53 38 83 93 83 162c0 52 -20 89 -68 89c-27 0 -48 -16 -48 -45c0 -32 24 -46 58 -46l-26 -104c-89 1 -161 46 -161 150s79 160 169 160
c125 0 189 -89 189 -201c0 -42 -9 -82 -29 -121c65 25 105 81 105 166c0 246 -359 174 -359 417z" />
    <glyph glyph-name="bnvLL" unicode="&#x9e1;" horiz-adv-x="656" 
d="M494 288c0 246 -359 174 -359 417c0 15 1 30 5 46l133 23s-6 -18 -6 -38c0 -168 358 -109 358 -448c0 -193 -161 -285 -347 -296l-56 86c53 38 83 93 83 162c0 52 -20 89 -68 89c-27 0 -48 -16 -48 -45c0 -32 24 -46 58 -46l-26 -104c-89 1 -161 46 -161 150
s79 160 169 160c125 0 189 -89 189 -201c0 -42 -9 -82 -29 -121c65 25 105 81 105 166zM565 -1c0 42 20 72 44 92l77 -50c-14 -14 -21 -30 -21 -53c0 -59 35 -92 35 -161c0 -126 -90 -161 -255 -161c-20 0 -43 1 -66 2l-22 83c76 7 124 21 124 88c0 22 -10 40 -36 40
c-22 0 -33 -13 -33 -30c0 -10 5 -21 14 -31l-61 -36c-24 23 -38 51 -38 79c0 68 53 104 108 104c84 0 121 -63 121 -126c0 -37 -10 -67 -31 -91c54 8 85 31 85 80c0 61 -45 105 -45 171z" />
    <glyph glyph-name="bnE" unicode="&#x98f;" horiz-adv-x="754" 
d="M520 560c12 0 21 -6 21 -26v-170c0 -155 7 -191 13 -219h-4c-36 27 -84 32 -136 32c-31 0 -64 -2 -96 -2c-107 0 -140 37 -140 81c0 32 14 56 31 72l-127 53c-12 -15 -44 -62 -44 -126c0 -123 89 -198 240 -198c30 0 88 1 122 1c114 0 137 -31 144 -58h130v550
c0 80 -41 131 -144 131c-162 0 -284 -152 -284 -266c0 -88 53 -148 152 -148c37 0 76 11 101 33l-44 98c-7 -8 -23 -19 -43 -19c-22 0 -34 10 -34 39c0 57 84 142 142 142z" />
    <glyph glyph-name="bnAI" unicode="&#x990;" horiz-adv-x="854" 
d="M544 0c-7 27 -30 58 -144 58c-34 0 -92 -1 -122 -1c-151 0 -240 75 -240 198c0 64 32 111 44 126l127 -53c-17 -16 -31 -40 -31 -72c0 -44 33 -81 140 -81c32 0 65 2 96 2c52 0 100 -5 136 -32h4c-6 28 -13 64 -13 219v170c0 20 -9 26 -21 26c-58 0 -142 -85 -142 -142
c0 -29 12 -39 34 -39c20 0 36 11 43 19l44 -98c-25 -22 -64 -33 -101 -33c-99 0 -152 60 -152 148c0 114 122 266 284 266c103 0 144 -51 144 -131v-18c26 12 45 36 45 75c0 52 -35 81 -105 102l-195 60c-94 29 -183 89 -183 191c0 45 18 80 42 107l125 -51
c-20 -19 -27 -35 -27 -57c0 -43 46 -64 108 -83l157 -49c148 -46 212 -117 212 -220c0 -91 -67 -178 -179 -193v-414h-130z" />
    <glyph glyph-name="bnO" unicode="&#x993;" horiz-adv-x="637" 
d="M147 594c44 48 107 85 194 85c106 0 204 -64 204 -184c0 -51 -18 -94 -51 -130c48 -28 103 -80 103 -171c0 -107 -78 -204 -222 -204c-209 0 -314 220 -355 390l127 50c33 -181 122 -312 227 -312c56 0 87 34 87 82c0 47 -39 81 -72 94c-21 -8 -43 -16 -66 -22l-69 111
c118 27 156 73 156 115s-31 60 -67 60c-40 0 -78 -25 -107 -56z" />
    <glyph glyph-name="bnAU" unicode="&#x994;" horiz-adv-x="799" 
d="M630 571c0 161 -355 142 -355 370c0 45 18 80 42 107l125 -52c-20 -19 -27 -35 -27 -57c0 -129 354 -123 354 -367c0 -138 -107 -204 -216 -204c-18 0 -40 1 -53 4c-2 -2 -4 -5 -6 -7c48 -28 103 -80 103 -171c0 -107 -78 -204 -222 -204c-209 0 -314 220 -355 390
l127 50c33 -181 122 -312 227 -312c56 0 87 34 87 82c0 47 -39 81 -72 94c-21 -8 -43 -16 -66 -22l-69 111c118 27 156 73 156 115s-31 60 -67 60c-40 0 -78 -25 -107 -56l-89 92c44 48 107 85 194 85c106 0 204 -64 204 -184c0 -10 -1 -19 -2 -28c57 13 87 51 87 104z" />
    <glyph glyph-name="bnmAA" unicode="&#x9be;" horiz-adv-x="300" 
d="M86 763v10h134v-102h100v-109h-100v-562h-140v445c0 98 -33 117 -96 117h-4v109h41c46 0 70 -20 82 -35h7c-14 37 -24 80 -24 127z" />
    <glyph glyph-name="bnmI" unicode="&#x9bf;" horiz-adv-x="299" 
d="M618 753l77 99c-83 63 -205 115 -347 115c-174 0 -268 -102 -268 -232v-64h-100v-109h100v-562h139v562h100v109h-100v56c0 74 48 117 132 117c86 0 186 -31 267 -91z" />
    <glyph glyph-name="bnmII" unicode="&#x9c0;" horiz-adv-x="300" 
d="M-93 846l13 -11v-164h-125v57c-22 -8 -77 -14 -120 -14c-129 0 -219 55 -219 152c0 96 96 163 254 163c275 0 497 -143 510 -358h100v-109h-100v-562h-140v562h-100v109h100c-15 172 -171 242 -361 242c-87 0 -120 -22 -120 -50c0 -23 24 -42 112 -42c87 0 145 13 196 25
z" />
    <glyph glyph-name="bnmU" unicode="&#x9c1;" 
d="M-293 -255c46 0 77 46 77 103v14c-24 9 -49 14 -73 14c-49 0 -80 -25 -80 -68c0 -39 28 -63 76 -63zM22 -335c-37 43 -75 83 -113 116c-22 -82 -83 -144 -206 -144c-124 0 -201 76 -201 172c0 107 84 175 185 175c33 0 66 -4 97 -12v90h136v-151
c69 -43 133 -104 192 -172z" />
    <glyph glyph-name="bnmUU" unicode="&#x9c2;" 
d="M-56 -306c24 -23 67 -69 87 -92l89 74c-49 59 -121 127 -178 173c-40 -60 -87 -105 -160 -105c-48 0 -76 25 -76 65c0 50 42 77 109 77c35 0 83 -6 105 -13v189h-136v-78c-22 1 -43 0 -49 -1c-89 -11 -159 -77 -159 -175c0 -96 77 -171 201 -171c94 0 142 34 167 57z" />
    <glyph glyph-name="bnmvR" unicode="&#x9c3;" 
d="M-80 0l-111 56l-191 -195l367 -183l77 90l-245 122z" />
    <glyph glyph-name="bnmvRR" unicode="&#x9c4;" 
d="M18 -20l-130 -147l166 -125l69 57l-103 78l82 92zM-264 -34l-166 -176l248 -187l90 74l-166 128l92 98z" />
    <glyph glyph-name="bnmvL" unicode="&#x9e2;" 
d="M-25 -101c0 42 20 72 44 92l77 -50c-14 -14 -21 -30 -21 -53c0 -59 35 -92 35 -161c0 -126 -90 -161 -255 -161c-20 0 -43 1 -66 2l-22 83c76 7 124 21 124 88c0 22 -10 40 -36 40c-22 0 -33 -13 -33 -30c0 -10 5 -21 14 -31l-61 -36c-24 23 -38 51 -38 79
c0 68 53 104 108 104c84 0 121 -63 121 -126c0 -37 -10 -67 -31 -91c54 8 85 31 85 80c0 61 -45 105 -45 171z" />
    <glyph glyph-name="bnmvLL" unicode="&#x9e3;" 
d="M-25 -101c0 42 20 72 44 92l77 -50c-14 -14 -21 -30 -21 -53c0 -22 5 -40 11 -58c15 11 35 20 58 20c63 0 90 -48 90 -95c0 -21 -5 -37 -15 -50c36 7 59 24 59 59c0 46 -34 79 -34 128c0 32 15 54 33 69l58 -37c-10 -11 -16 -23 -16 -40c0 -44 27 -69 27 -121
c0 -90 -68 -121 -192 -121h-9l-15 60c26 8 48 24 48 53c0 20 -14 30 -32 30c-15 0 -29 -5 -41 -15c3 -13 5 -27 5 -43c0 -126 -90 -161 -255 -161c-20 0 -43 1 -66 2l-22 83c76 7 124 21 124 88c0 22 -10 40 -36 40c-22 0 -33 -13 -33 -30c0 -10 5 -21 14 -31l-61 -36
c-24 23 -38 51 -38 79c0 68 53 104 108 104c84 0 121 -63 121 -126c0 -37 -10 -67 -31 -91c54 8 85 31 85 80c0 61 -45 105 -45 171z" />
    <glyph glyph-name="bnmE" unicode="&#x9c7;" horiz-adv-x="308" 
d="M315 81l-64 -110c-119 38 -206 145 -206 318c0 106 29 201 66 273h-131v109h348v-109h-72c-37 -73 -73 -163 -73 -274c0 -109 47 -172 132 -207z" />
    <glyph glyph-name="bnmAI" unicode="&#x9c8;" horiz-adv-x="308" 
d="M-11 975c-2 -9 -3 -18 -3 -27c0 -40 25 -72 110 -82c134 -15 203 -66 203 -177c0 -6 0 -12 -1 -18h30v-109h-72c-37 -73 -73 -163 -73 -274c0 -109 47 -172 132 -207l-64 -110c-119 38 -206 145 -206 318c0 106 29 201 66 273h-131v109h185v9c0 43 -24 63 -90 70
c-171 18 -221 91 -221 179c0 8 1 17 2 25z" />
    <glyph glyph-name="bnmO" unicode="&#x9cb;" horiz-adv-x="1268" 
d="M315 81l-64 -110c-119 38 -206 145 -206 318c0 106 29 201 66 273h-131v109h348v-109h-72c-37 -73 -73 -163 -73 -274c0 -109 47 -172 132 -207zM447 517c0 25 18 44 44 44s44 -19 44 -44c0 -26 -18 -45 -44 -45s-44 19 -44 45zM365 407c0 25 20 44 46 44
c24 0 44 -19 44 -44s-20 -44 -44 -44c-26 0 -46 19 -46 44zM352 281c0 26 19 45 44 45c26 0 44 -19 44 -45c0 -25 -18 -43 -44 -43c-25 0 -44 18 -44 43zM404 165c0 25 18 44 44 44c25 0 44 -19 44 -44c0 -26 -19 -44 -44 -44c-26 0 -44 18 -44 44zM505 90c0 24 19 44 45 44
c25 0 44 -20 44 -44c0 -26 -19 -46 -44 -46c-26 0 -45 20 -45 46zM632 74c0 26 18 44 44 44s45 -18 45 -44s-19 -44 -45 -44s-44 18 -44 44zM753 127c0 25 19 44 44 44s45 -19 45 -44c0 -26 -20 -44 -45 -44s-44 18 -44 44zM826 225c0 26 19 45 45 45c24 0 43 -19 43 -45
c0 -25 -19 -44 -43 -44c-26 0 -45 19 -45 44zM836 359c0 26 18 44 44 44c25 0 44 -18 44 -44s-19 -44 -44 -44c-26 0 -44 18 -44 44zM786 477c0 26 19 45 44 45c26 0 44 -19 44 -45c0 -25 -18 -44 -44 -44c-25 0 -44 19 -44 44zM691 545c0 26 19 45 45 45
c25 0 43 -19 43 -45c0 -24 -18 -44 -43 -44c-26 0 -45 20 -45 44zM565 560c0 26 18 44 44 44s44 -18 44 -44s-18 -44 -44 -44s-44 18 -44 44zM1054 763v10h134v-102h100v-109h-100v-562h-140v445c0 98 -33 117 -96 117h-4v109h41c46 0 70 -20 82 -35h7
c-14 37 -24 80 -24 127z" />
    <glyph glyph-name="bnmAU" unicode="&#x9cc;" horiz-adv-x="1268" 
d="M315 81l-64 -110c-119 38 -206 145 -206 318c0 106 29 201 66 273h-131v109h348v-109h-72c-37 -73 -73 -163 -73 -274c0 -109 47 -172 132 -207zM447 517c0 25 18 44 44 44s44 -19 44 -44c0 -26 -18 -45 -44 -45s-44 19 -44 45zM365 407c0 25 20 44 46 44
c24 0 44 -19 44 -44s-20 -44 -44 -44c-26 0 -46 19 -46 44zM352 281c0 26 19 45 44 45c26 0 44 -19 44 -45c0 -25 -18 -43 -44 -43c-25 0 -44 18 -44 43zM404 165c0 25 18 44 44 44c25 0 44 -19 44 -44c0 -26 -19 -44 -44 -44c-26 0 -44 18 -44 44zM505 90c0 24 19 44 45 44
c25 0 44 -20 44 -44c0 -26 -19 -46 -44 -46c-26 0 -45 20 -45 46zM632 74c0 26 18 44 44 44s45 -18 45 -44s-19 -44 -45 -44s-44 18 -44 44zM753 127c0 25 19 44 44 44s45 -19 45 -44c0 -26 -20 -44 -45 -44s-44 18 -44 44zM826 225c0 26 19 45 45 45c24 0 43 -19 43 -45
c0 -25 -19 -44 -43 -44c-26 0 -45 19 -45 44zM836 359c0 26 18 44 44 44c25 0 44 -18 44 -44s-19 -44 -44 -44c-26 0 -44 18 -44 44zM786 477c0 26 19 45 44 45c26 0 44 -19 44 -45c0 -25 -18 -44 -44 -44c-25 0 -44 19 -44 44zM691 545c0 26 19 45 45 45
c25 0 43 -19 43 -45c0 -24 -18 -44 -43 -44c-26 0 -45 20 -45 44zM565 560c0 26 18 44 44 44s44 -18 44 -44s-18 -44 -44 -44s-44 18 -44 44zM1048 690v-19h-100v-109h100v-562h140v562h100v109h-100v28c0 118 -96 177 -205 177h-61c-86 0 -106 42 -106 82c0 9 1 18 3 27
l-133 -21c-1 -8 -2 -17 -2 -25c0 -88 60 -179 232 -179h50c69 0 82 -20 82 -70z" />
    <glyph glyph-name="bnAUlengthmark" unicode="&#x9d7;" horiz-adv-x="300" 
d="M80 690v-19h-100v-109h100v-562h140v562h100v109h-100v28c0 118 -96 177 -205 177h-61c-86 0 -106 42 -106 82c0 9 1 18 3 27l-133 -21c-1 -8 -2 -17 -2 -25c0 -88 60 -179 232 -179h50c69 0 82 -20 82 -70z" />
    <glyph glyph-name="bnKA" unicode="&#x995;" horiz-adv-x="737" 
d="M501 202l86 -98c72 35 116 102 116 183c0 104 -79 206 -239 216v59h293v109h-777v-109h349v-67c-117 -19 -215 -71 -294 -130v-120l386 -257l96 81l-53 35v278c72 -4 111 -43 111 -90c0 -43 -32 -76 -74 -90zM166 300c46 31 99 57 163 72v-6c0 -53 2 -125 8 -175h-4z" />
    <glyph glyph-name="bnKHA" unicode="&#x996;" horiz-adv-x="727" 
d="M509 403v370h138v-102h100v-109h-100v-454l56 -24l-87 -101l-571 247v113c208 11 278 74 278 141c0 14 -2 27 -9 36c-21 -47 -64 -96 -148 -96c-92 0 -167 65 -167 153c0 45 17 78 30 94h133c-17 -27 -27 -55 -27 -82c0 -29 16 -49 48 -49c45 0 70 48 101 131h59
c46 -33 105 -101 105 -190c0 -99 -53 -175 -179 -205v-4l245 -106l3 2c-5 74 -8 131 -8 235z" />
    <glyph glyph-name="bnGA" unicode="&#x997;" horiz-adv-x="687" 
d="M467 773h140v-102h100v-109h-100v-562h-139v365c0 116 -71 178 -171 178c-51 0 -96 -20 -124 -48c18 5 39 7 57 7c71 0 148 -47 148 -145c0 -92 -74 -183 -190 -245l-102 105c96 46 152 97 152 146c0 26 -19 50 -58 50c-26 0 -52 -4 -75 -12l-85 96
c41 90 137 174 265 174c93 0 163 -35 203 -78h4c-17 47 -25 102 -25 156v24z" />
    <glyph glyph-name="bnGHA" unicode="&#x998;" horiz-adv-x="648" 
d="M541 -16l-491 211v109l41 25c41 25 78 34 78 34v5c-64 12 -124 47 -124 120c0 31 12 57 26 74h-91v109h688v-109h-100v-457l56 -24zM440 160l3 2c-8 25 -14 82 -14 137v263h-209c-22 -16 -35 -39 -35 -66c0 -33 23 -63 72 -63c18 0 41 5 74 27l52 -109l-171 -93z" />
    <glyph glyph-name="bnNGA" unicode="&#x999;" horiz-adv-x="725" 
d="M389 550v-45c6 -1 12 -1 18 -1c41 0 60 19 60 49c0 21 -15 36 -40 36c-23 0 -38 -14 -38 -39zM402 -4c-226 0 -368 176 -370 381l123 25c3 -206 127 -285 247 -285c101 0 159 56 159 115c0 17 -3 27 -7 34c-42 -21 -87 -40 -148 -40c-97 0 -146 61 -146 151v67
c-51 27 -92 68 -124 118h-156v109h240c12 -38 28 -75 51 -103c3 61 56 120 152 120c92 0 163 -58 163 -140c0 -89 -72 -139 -177 -139c-7 0 -13 0 -20 1v-33c0 -22 9 -32 26 -32c25 0 74 6 184 74c54 -37 94 -97 94 -178c0 -127 -104 -245 -291 -245z" />
    <glyph glyph-name="bnCA" unicode="&#x99a;" horiz-adv-x="543" 
d="M351 442l-37 13c-90 32 -113 60 -113 103v4h362v109h-583v-109h95v-411c0 -94 55 -158 168 -158c156 0 264 140 264 263c0 105 -61 153 -156 186zM202 376h4c15 -13 35 -25 74 -39l28 -10c43 -15 67 -34 67 -72c0 -76 -73 -141 -125 -141c-28 0 -41 15 -41 36v94
c0 82 -7 132 -7 132z" />
    <glyph glyph-name="bnCHA" unicode="&#x99b;" horiz-adv-x="622" 
d="M194 562c7 -27 73 -31 125 -59c20 5 42 7 58 7c109 0 196 -71 196 -196c0 -101 -67 -186 -213 -208v-4c41 -10 77 -25 125 -47l112 -51l-83 -97c-321 158 -329 161 -448 175v110h146c159 0 225 56 225 124c0 39 -14 66 -52 74c-3 -83 -74 -154 -175 -154
c-93 0 -148 45 -148 120v206h-82v109h662v-109h-448zM266 398c0 35 -60 33 -76 48v-83c0 -11 7 -20 21 -20c34 0 55 26 55 55z" />
    <glyph glyph-name="bnJA" unicode="&#x99c;" horiz-adv-x="891" 
d="M138 409l-127 -46c29 -193 161 -354 355 -354c156 0 235 104 235 200c0 60 -28 106 -62 140l-109 13c-33 4 -39 15 -39 28c0 29 24 67 77 107c29 -66 103 -142 236 -157c-37 -56 -50 -138 -50 -212v-142h138v132c0 83 16 169 53 235l-48 104h-33c-117 0 -176 52 -195 105
h342v109h-931v-109h382c-58 -46 -119 -115 -119 -199c0 -62 36 -102 126 -113l83 -10c4 -6 10 -15 10 -34c0 -38 -30 -72 -98 -72c-126 0 -209 122 -226 275z" />
    <glyph glyph-name="bnJHA" unicode="&#x99d;" horiz-adv-x="820" 
d="M360 178h4c-8 25 -12 95 -12 156v60c-82 -31 -153 -85 -175 -110zM601 773h139v-102h100v-109h-100v-352l-121 -56l-130 81v-131l49 -29l-89 -91l-414 241v111c44 47 166 148 317 189v37h-372v109h509v-295l120 -75h4c-8 25 -12 95 -12 156v316z" />
    <glyph glyph-name="bnNYA" unicode="&#x99e;" horiz-adv-x="1023" 
d="M517 681c72 0 106 -30 120 -61c23 27 74 65 156 65c108 0 168 -60 168 -144c0 -55 -32 -101 -85 -115v-4c63 -14 99 -57 99 -120c0 -76 -56 -148 -165 -148c-44 0 -114 16 -142 52c11 -50 11 -126 11 -159v-47h-135c0 90 -57 108 -201 119c-216 16 -313 100 -313 227
c0 52 19 96 42 126l125 -47c-14 -17 -27 -42 -27 -79c0 -61 51 -98 184 -108c136 -10 163 -26 202 -51h4c-13 53 -19 129 -19 189v144c0 26 -14 38 -41 38c-60 0 -115 -55 -115 -111c0 -25 11 -43 37 -43c20 0 36 11 43 19l44 -95c-25 -22 -69 -31 -106 -31
c-104 0 -153 56 -153 140c0 120 105 244 267 244zM776 575c-50 0 -102 -47 -102 -154c0 -94 46 -155 114 -155c30 0 53 17 53 48c0 35 -30 52 -75 52h-26v109h26c41 0 62 21 62 55c0 28 -19 45 -52 45z" />
    <glyph glyph-name="bnTTA" unicode="&#x99f;" horiz-adv-x="559" 
d="M2 954l133 21c-2 -9 -3 -18 -3 -27c0 -40 20 -82 106 -82h44c109 0 205 -59 205 -177c0 -6 0 -12 -1 -18h93v-109h-370v-348c0 -28 13 -47 45 -47c63 0 128 62 128 124c0 35 -18 50 -44 50c-13 0 -29 -6 -37 -16l-57 107c22 20 66 36 102 36c90 0 168 -56 168 -176
c0 -116 -112 -252 -273 -252c-114 0 -166 74 -166 163v359h-95v109h373v9c0 54 -33 70 -98 70h-23c-172 0 -232 91 -232 179c0 8 1 17 2 25z" />
    <glyph glyph-name="bnTTHA" unicode="&#x9a0;" horiz-adv-x="598" 
d="M561 237c0 120 -89 220 -186 325h243v109h-330c-30 41 -47 77 -47 117c0 41 27 67 81 60l-26 120c-120 7 -193 -69 -193 -173c0 -45 18 -88 43 -124h-166v-109h244l5 -6v-76c0 -107 -78 -169 -202 -201c0 -155 109 -288 283 -288c153 0 251 106 251 246zM183 213
c56 19 148 74 157 207c48 -59 88 -110 88 -184c0 -73 -50 -125 -116 -125c-85 0 -123 66 -129 102z" />
    <glyph glyph-name="bnDDA" unicode="&#x9a1;" horiz-adv-x="726" 
d="M746 562h-348v-128c0 -27 11 -33 25 -33c27 0 107 43 168 86c54 -33 100 -106 100 -188c0 -142 -112 -260 -293 -260c-221 0 -361 180 -363 391l131 30c0 -213 121 -297 232 -297c100 0 160 61 160 128c0 14 -3 28 -9 40c-32 -25 -88 -55 -147 -55
c-95 0 -143 61 -143 153v133h-279v109h766v-109z" />
    <glyph glyph-name="bnDDHA" unicode="&#x9a2;" horiz-adv-x="569" 
d="M209 562v-358c0 -28 15 -47 50 -47c63 0 134 60 134 130c0 35 -17 54 -42 54c-17 0 -33 -10 -42 -21l-57 108c22 19 57 40 105 40c90 0 168 -65 168 -181c0 -129 -112 -257 -267 -257c-129 0 -183 74 -183 163v369h-95v109h607v-109h-378z" />
    <glyph glyph-name="bnNNA" unicode="&#x9a3;" horiz-adv-x="665" 
d="M178 449c0 -50 33 -82 87 -82c31 0 56 14 74 29l44 -119c-30 -23 -76 -37 -121 -37c-144 0 -221 96 -221 209c0 127 84 221 232 221c94 0 156 -42 190 -89l5 3c-20 46 -20 96 -20 159v30h137v-102h100v-109h-100v-562h-141v293c0 117 -21 255 -156 255
c-69 0 -110 -38 -110 -99z" />
    <glyph glyph-name="bnTA" unicode="&#x9a4;" horiz-adv-x="721" 
d="M388 214l86 82c-25 8 -40 29 -40 51c0 26 21 43 46 43c43 0 66 -41 66 -97c0 -79 -48 -145 -137 -145c-139 0 -219 152 -253 350l-127 -56c52 -244 169 -419 381 -419c162 0 272 107 272 267c0 126 -77 225 -213 225c-100 0 -173 -65 -173 -157c0 -68 38 -123 92 -144z
M741 671h-761v-109h761v109z" />
    <glyph glyph-name="bnTHA" unicode="&#x9a5;" horiz-adv-x="712" 
d="M90 388l116 55c-11 10 -24 28 -24 53c0 30 19 56 62 56c41 0 66 -30 66 -70c0 -57 -49 -136 -260 -140v-122l551 -237l86 101l-55 25v453h100v109h-100v102h-139v-436c0 -53 2 -125 8 -175h-4l-246 107v4c130 26 193 118 193 211c0 125 -96 190 -204 190
c-117 0 -197 -73 -197 -176c0 -47 22 -86 47 -110z" />
    <glyph glyph-name="bnDA" unicode="&#x9a6;" horiz-adv-x="584" 
d="M497 0h-140v151c0 91 18 155 34 191c-56 -36 -138 -120 -184 -197l-132 48v369h-95v109h624v-109h-389v-209c46 54 133 115 217 145l106 -62c-31 -81 -41 -193 -41 -284v-152z" />
    <glyph glyph-name="bnDHA" unicode="&#x9a7;" horiz-adv-x="621" 
d="M308 549c-22 10 -44 13 -62 13c-34 0 -60 -14 -60 -51c0 -34 32 -57 89 -57c41 0 83 15 130 44v173h237v-109h-101v-454l51 -24l-81 -99l-449 211v113l56 33c29 17 63 32 63 32v5c-54 10 -130 49 -130 140c0 99 71 160 178 160c34 0 77 -7 114 -25zM417 168
c-7 50 -12 131 -12 186v11l-191 -104l199 -93h4z" />
    <glyph glyph-name="bnNA" unicode="&#x9a8;" horiz-adv-x="676" 
d="M214 208l-125 -52c-30 26 -51 65 -51 118c0 119 86 185 204 185c92 0 171 -40 219 -117l4 1c-5 37 -9 88 -9 141v78h-475v109h715v-109h-100v-562h-140v6c0 143 -86 326 -206 326c-42 0 -71 -19 -71 -59c0 -29 15 -51 35 -65z" />
    <glyph glyph-name="bnPA" unicode="&#x9aa;" horiz-adv-x="697" 
d="M187 529c61 -19 104 -63 129 -133l125 84c-29 52 -75 84 -142 84c-52 0 -88 -18 -112 -35zM617 0h-138v305c0 21 -1 40 -3 59l-279 -193l-67 99l87 58c-15 44 -39 94 -93 112c-12 4 -26 7 -42 8l-64 94c49 68 145 138 271 138c112 0 180 -56 210 -95l3 2
c-25 74 -25 127 -25 163v23h140v-102h100v-109h-100v-562z" />
    <glyph glyph-name="bnPHA" unicode="&#x9ab;" horiz-adv-x="809" 
d="M514 102v289c12 4 26 7 39 7c47 0 83 -26 83 -78s-41 -76 -71 -84l69 -108c58 24 131 77 131 190c0 130 -99 200 -223 200c-63 0 -127 -17 -165 -38v-111c0 -55 5 -145 12 -195h-4l-199 110l115 87v94l-111 93v4h639v109h-849v-109h70v-39l120 -101l-120 -91v-111
l424 -236l87 91z" />
    <glyph glyph-name="bnBA" unicode="&#x9ac;" horiz-adv-x="569" 
d="M352 562v-37c-151 -41 -273 -142 -317 -189v-111l414 -241l89 91l-49 29v458h100v109h-609v-109h372zM352 394v-60c0 -61 4 -131 12 -156h-4l-183 106c22 25 93 79 175 110z" />
    <glyph glyph-name="bnBHA" unicode="&#x9ad;" horiz-adv-x="791" 
d="M16 424l119 64c39 -135 131 -338 322 -338c115 0 167 62 167 135c0 25 -8 51 -18 65h-4c-13 -42 -59 -107 -157 -107c-105 0 -162 68 -162 148c0 41 12 67 19 81l129 -17c-9 -15 -15 -36 -15 -54c0 -25 13 -41 41 -41c41 0 74 43 101 133h103c38 -30 96 -111 96 -215
c0 -140 -94 -258 -302 -258c-247 0 -378 208 -439 404zM811 562h-831v109h831v-109z" />
    <glyph glyph-name="bnMA" unicode="&#x9ae;" horiz-adv-x="624" 
d="M644 562h-100v-562h-127c-24 86 -80 167 -155 212c-25 -47 -67 -69 -105 -69c-51 0 -96 32 -96 92c0 53 34 96 90 112c-9 82 -59 158 -120 193v22h-51v109h664v-109zM416 235l4 2s-10 55 -10 187v138h-214v-5c28 -28 81 -107 87 -221c55 -21 103 -60 133 -101z" />
    <glyph glyph-name="bnYA" unicode="&#x9af;" horiz-adv-x="594" 
d="M190 562v-4l111 -93v-94l-115 -87l199 -110h4c-7 50 -12 140 -12 195v193h-187zM474 -16l-424 236v111l120 91l-120 101v39h-70v109h634v-109h-100v-460l47 -27z" />
    <glyph glyph-name="bnRA" unicode="&#x9b0;" horiz-adv-x="569" 
d="M64 -40c0 51 36 83 82 83s81 -32 81 -83s-35 -84 -81 -84s-82 33 -82 84zM352 562v-37c-151 -41 -273 -142 -317 -189v-111l414 -241l89 91l-49 29v458h100v109h-609v-109h372zM352 394v-60c0 -61 4 -131 12 -156h-4l-183 106c22 25 93 79 175 110z" />
    <glyph glyph-name="bnLA" unicode="&#x9b2;" horiz-adv-x="783" 
d="M361 75l-17 120c-17 -8 -38 -12 -58 -12c-62 0 -109 39 -109 104c0 53 33 79 67 79s61 -20 61 -78v-32h128v32c0 51 28 81 69 81c30 0 54 -16 63 -35v-334h138v562h100v109h-823v-109h585v-95h-5c-8 8 -36 24 -76 24c-56 0 -100 -39 -110 -83h-4c-12 36 -57 81 -139 81
c-99 0 -192 -75 -192 -205c0 -125 89 -220 239 -220c33 0 60 4 83 11z" />
    <glyph glyph-name="bnSHA" unicode="&#x9b6;" horiz-adv-x="719" 
d="M63 562h-83v109h90c69 0 124 -24 161 -64c39 41 95 67 162 67c79 0 113 -37 122 -47h4c-8 31 -14 80 -14 114v32h134v-102h100v-109h-100v-562h-138v431c0 82 -47 122 -109 122c-53 0 -94 -36 -94 -94c0 -57 41 -90 94 -90c16 0 29 2 43 7v-122s-17 -7 -51 -7
c-61 0 -116 25 -154 67c-38 -44 -93 -70 -154 -70c-34 0 -61 10 -61 10v120c14 -5 33 -8 53 -8c58 0 94 31 94 94c0 57 -31 102 -99 102z" />
    <glyph glyph-name="bnSSA" unicode="&#x9b7;" horiz-adv-x="622" 
d="M489 -16l-439 236v111l119 106l-119 86v39h-70v109h662v-109h-113v-462l47 -25zM190 558l202 -146v150h-202v-4zM404 169c-4 27 -7 66 -9 105l-121 88l-88 -78l214 -115h4z" />
    <glyph glyph-name="bnSA" unicode="&#x9b8;" horiz-adv-x="698" 
d="M180 110c-107 0 -166 65 -190 129l105 64c16 -36 36 -71 84 -71c44 0 67 33 67 74c0 74 -46 128 -95 178l-38 39v39h-133v109h737v-109h-99v-562h-141v244c0 22 -13 36 -34 36c-37 0 -62 -45 -102 -89c-46 -51 -104 -81 -161 -81zM480 406c-2 23 -3 74 -3 89v67h-219v-4
l28 -34c34 -42 53 -78 62 -112c4 -15 6 -30 7 -44c21 19 51 45 86 45c17 0 27 -2 39 -7z" />
    <glyph glyph-name="bnHA" unicode="&#x9b9;" horiz-adv-x="506" 
d="M274 127v4c97 14 178 74 178 192c0 120 -81 207 -207 207c-120 0 -189 -71 -189 -156c0 -57 27 -107 85 -129l92 69c-27 10 -39 27 -39 48c0 28 21 45 50 45c47 0 73 -35 73 -84c0 -79 -74 -121 -194 -121h-68v-110c95 -7 120 -28 334 -158l92 93l-72 42
c-66 38 -95 49 -135 58zM-20 562h546v109h-546v-109z" />
    <glyph glyph-name="bnK_SSA" horiz-adv-x="968" 
d="M988 562h-275v-112h10c150 0 214 -80 214 -181c0 -97 -66 -151 -123 -171l-67 101c28 7 64 33 64 72c0 43 -28 58 -80 58h-18v-345h-128c-16 82 -96 150 -195 166c-21 -60 -67 -87 -108 -87c-48 0 -90 30 -90 86c0 45 34 84 86 103c-9 37 -29 66 -57 86
c-23 -45 -62 -65 -98 -65c-48 0 -90 30 -90 86c0 49 34 86 85 101c-8 44 -30 77 -55 102h-83v109h1008v-109zM591 172c-7 46 -12 105 -13 156h-30c-132 0 -196 61 -196 195v39h-147c19 -30 33 -68 36 -110c75 -27 143 -95 157 -191c98 -11 167 -55 193 -89zM539 449h38v113
h-96v-44c0 -61 28 -69 58 -69z" />
    <glyph glyph-name="bnJ_NYA" horiz-adv-x="904" 
d="M427 562c-43 -37 -77 -109 -77 -157c0 -27 24 -35 57 -39l114 -14c-59 45 -87 120 -90 210h-4zM723 30c-70 0 -120 25 -154 66c-37 -50 -102 -87 -197 -87c-194 0 -322 163 -351 356l121 44c17 -153 102 -275 228 -275c68 0 103 34 103 72c0 19 -6 28 -10 34l-96 12
c-90 11 -148 53 -148 138c0 62 25 131 54 172h-293v109h944v-109h-373c3 -38 13 -69 30 -95c31 30 73 48 127 48c97 0 151 -62 151 -134c0 -49 -28 -88 -73 -103v-4c49 -13 85 -50 85 -107c0 -67 -50 -137 -148 -137zM740 372c0 24 -18 39 -47 39c-45 0 -91 -41 -91 -137
c0 -84 41 -138 102 -138c27 0 47 15 47 42c0 32 -27 47 -67 47h-23v97h23c36 0 56 19 56 50z" />
    <glyph glyph-name="asRA" unicode="&#x9f0;" horiz-adv-x="587" 
d="M377 562v-29c-170 -43 -301 -154 -342 -199v-109l425 -247l94 98l-47 25v461h100v109h-627v-109h397zM175 287c10 9 26 23 47 38l161 -96c2 -26 5 -52 10 -65h-4zM382 412c-3 -29 -3 -64 -3 -95l-89 52c25 15 66 34 92 43z" />
    <glyph glyph-name="asWA" unicode="&#x9f1;" horiz-adv-x="569" 
d="M352 562v-37c-151 -41 -273 -142 -317 -189v-111l414 -241l89 91l-49 29v458h100v109h-609v-109h372zM352 394v-60c0 -61 4 -131 12 -156h-4l-183 106c22 25 93 79 175 110zM172 -78l83 93l-159 93l-80 -95z" />
    <glyph glyph-name="bnDDxA" unicode="&#x9dc;" horiz-adv-x="726" 
d="M312 -110c0 51 36 83 82 83s81 -32 81 -83s-35 -84 -81 -84s-82 33 -82 84zM746 562h-348v-128c0 -27 11 -33 25 -33c27 0 107 43 168 86c54 -33 100 -106 100 -188c0 -142 -112 -260 -293 -260c-221 0 -361 180 -363 391l131 30c0 -213 121 -297 232 -297
c100 0 160 61 160 128c0 14 -3 28 -9 40c-32 -25 -88 -55 -147 -55c-95 0 -143 61 -143 153v133h-279v109h766v-109z" />
    <glyph glyph-name="bnDDHxA" unicode="&#x9dd;" horiz-adv-x="569" 
d="M165 -110c0 51 36 83 82 83s81 -32 81 -83s-35 -84 -81 -84s-82 33 -82 84zM209 562v-358c0 -28 15 -47 50 -47c63 0 134 60 134 130c0 35 -17 54 -42 54c-17 0 -33 -10 -42 -21l-57 108c22 19 57 40 105 40c90 0 168 -65 168 -181c0 -129 -112 -257 -267 -257
c-129 0 -183 74 -183 163v369h-95v109h607v-109h-378z" />
    <glyph glyph-name="bnYxA" unicode="&#x9df;" horiz-adv-x="594" 
d="M79 -33c0 48 34 77 77 77c42 0 75 -29 75 -77c0 -47 -33 -78 -75 -78c-43 0 -77 31 -77 78zM190 562v-4l111 -93v-94l-115 -87l199 -110h4c-7 50 -12 140 -12 195v193h-187zM474 -16l-424 236v111l120 91l-120 101v39h-70v109h634v-109h-100v-460l47 -27z" />
    <glyph glyph-name="bnAnusvara" unicode="&#x982;" horiz-adv-x="492" 
d="M32 236l115 82l266 -248l-84 -72zM247 591c28 0 55 -28 55 -66c0 -40 -28 -60 -59 -60c-28 0 -55 28 -55 66c1 40 27 60 59 60zM249 370c95 0 173 69 173 165c0 98 -81 151 -181 151c-95 0 -173 -69 -173 -165c0 -98 81 -151 181 -151z" />
    <glyph glyph-name="bnCandrabindu" unicode="&#x981;" 
d="M-142 843c62 0 103 28 126 77l95 -49c-32 -75 -111 -128 -221 -128c-109 0 -190 53 -222 128l95 49c23 -49 64 -77 127 -77zM-206 973c0 36 25 67 64 67c38 0 63 -31 63 -67s-25 -66 -63 -66c-39 0 -64 30 -64 66z" />
    <glyph glyph-name="bnVisarga" unicode="&#x983;" horiz-adv-x="472" 
d="M236 591c28 0 55 -28 55 -66c0 -40 -28 -60 -59 -60c-28 0 -55 28 -55 66c1 40 27 60 59 60zM238 370c95 0 173 69 173 165c0 98 -81 151 -181 151c-95 0 -173 -69 -173 -165c0 -98 81 -151 181 -151zM236 216c28 0 55 -28 55 -66c0 -40 -28 -60 -59 -60
c-28 0 -55 28 -55 66c1 40 27 60 59 60zM238 -5c95 0 173 69 173 165c0 98 -81 151 -181 151c-95 0 -173 -69 -173 -165c0 -98 81 -151 181 -151z" />
    <glyph glyph-name="bnAvagraha" unicode="&#x9bd;" horiz-adv-x="498" 
d="M450 -7c-228 108 -305 150 -380 156v110h61c108 0 167 26 167 93c0 42 -19 73 -56 73c-27 0 -40 -18 -40 -41c0 -15 7 -32 31 -41l-80 -57c-53 19 -77 61 -77 110c0 44 21 84 61 108c-15 32 -46 58 -113 58h-14v109h19c120 0 195 -53 227 -142c104 -6 170 -79 170 -177
c0 -101 -68 -155 -158 -168v-4c34 -4 49 -6 123 -38l127 -54z" />
    <glyph glyph-name="bnVirama" unicode="&#x9cd;" 
d="M-155 -42l-73 -106l223 -153l73 97z" />
    <glyph glyph-name="bnNukta" unicode="&#x9bc;" 
d="M-572 -109c0 51 36 83 83 83c46 0 81 -32 81 -83c0 -52 -35 -85 -81 -85c-47 0 -83 33 -83 85z" />
    <glyph glyph-name="bnTAkhanda" unicode="&#x9ce;" horiz-adv-x="557" 
d="M268 435c51 0 78 24 78 60c0 38 -32 61 -75 61c-51 0 -84 -27 -100 -72c19 -33 56 -49 97 -49zM347 211c121 -43 183 -80 183 -184c0 -10 -1 -26 -2 -38l-132 -17s1 33 1 38c0 61 -48 71 -144 109c-150 59 -225 153 -225 288c0 157 88 262 238 262
c119 0 204 -67 204 -175c0 -103 -69 -165 -180 -165c-47 0 -90 10 -125 34c18 -79 86 -118 182 -152z" />
    <glyph glyph-name="bnZero" unicode="&#x9e6;" horiz-adv-x="649" 
d="M214 343c0 -91 39 -159 115 -159c77 0 111 61 111 151c0 92 -39 159 -117 159c-69 0 -109 -62 -109 -151zM324 66c-170 0 -245 121 -245 271c0 149 83 275 250 275c175 0 246 -121 246 -271c0 -154 -84 -275 -251 -275z" />
    <glyph glyph-name="bnOne" unicode="&#x9e7;" horiz-adv-x="540" 
d="M360 243c0 165 -282 179 -282 372c0 15 1 30 5 46l136 23s-6 -20 -6 -47c0 -148 282 -135 282 -394c0 -123 -71 -243 -244 -243c-136 0 -218 75 -218 178c0 83 49 124 106 142l68 -94c-21 -9 -34 -27 -34 -48c0 -30 24 -52 76 -52c82 0 111 60 111 117z" />
    <glyph glyph-name="bnTwo" unicode="&#x9e8;" horiz-adv-x="490" 
d="M64 615c1 -161 232 -155 232 -264c0 -46 -31 -79 -87 -79c-32 0 -65 11 -98 29l-33 18l-77 -101l391 -234l92 93l-71 42c-64 38 -92 51 -132 62v4c95 14 150 77 150 166c0 187 -235 187 -235 286c0 27 6 47 6 47l-133 -23c-4 -16 -5 -31 -5 -46z" />
    <glyph glyph-name="bnThree" unicode="&#x9e9;" horiz-adv-x="761" 
d="M398 270l98 72c-29 12 -51 35 -51 71c0 38 24 57 51 57c53 0 70 -65 70 -137c0 -87 -46 -175 -159 -175c-170 0 -226 177 -226 409l-123 -40c0 -317 128 -494 349 -494c183 0 295 125 295 297c0 146 -66 265 -216 265c-117 0 -176 -84 -176 -177c0 -71 36 -122 88 -148z
" />
    <glyph glyph-name="bnFour" unicode="&#x9ea;" horiz-adv-x="526" 
d="M355 494c0 43 -41 70 -95 70c-49 0 -92 -24 -92 -73c0 -51 38 -82 87 -96c56 25 100 52 100 99zM261 -10c-124 0 -236 64 -236 191c0 82 51 128 113 162c-68 30 -102 90 -102 149c0 127 108 189 224 189c117 0 228 -66 228 -188c0 -80 -43 -127 -98 -160
c64 -27 108 -80 108 -153c0 -126 -114 -190 -237 -190zM261 107c54 0 102 28 102 74c0 49 -39 81 -97 94c-57 -24 -103 -49 -103 -95c0 -48 43 -73 98 -73z" />
    <glyph glyph-name="bnFive" unicode="&#x9eb;" horiz-adv-x="648" 
d="M173 318c0 -131 118 -181 236 -195c-41 40 -60 96 -60 135c0 61 27 111 88 154c-70 22 -97 54 -99 110c-106 -37 -165 -105 -165 -204zM570 92l-23 -91c-336 1 -510 111 -510 322c0 193 159 322 379 353l40 -81c-3 -12 -5 -22 -5 -32c0 -61 41 -88 120 -92l33 -112
c-92 -26 -124 -69 -124 -126s31 -98 90 -141z" />
    <glyph glyph-name="bnSix" unicode="&#x9ec;" horiz-adv-x="697" 
d="M118 635c22 20 66 36 102 36c90 0 168 -56 168 -176v-81c0 -27 11 -33 25 -33c36 0 95 40 156 86c54 -33 100 -111 100 -193c0 -156 -112 -260 -293 -260c-221 0 -361 180 -363 391l131 30c0 -213 121 -297 232 -297c100 0 160 52 160 128c0 14 -3 33 -9 45
c-32 -25 -76 -55 -135 -55c-95 0 -143 61 -143 153v85c0 35 -12 50 -35 50c-13 0 -31 -7 -39 -17z" />
    <glyph glyph-name="bnSeven" unicode="&#x9ed;" horiz-adv-x="599" 
d="M239 354c34 0 64 5 94 21v122c0 28 -13 47 -49 47c-63 0 -133 -57 -133 -123c0 -50 43 -67 88 -67zM333 177v74c-26 -12 -60 -21 -108 -21c-119 0 -206 65 -206 183c0 129 111 258 272 258c124 0 176 -74 176 -163v-331c0 -35 17 -50 40 -50c13 0 31 7 39 17l57 -108
c-22 -20 -66 -36 -102 -36c-94 0 -168 57 -168 177z" />
    <glyph glyph-name="bnEight" unicode="&#x9ee;" horiz-adv-x="768" 
d="M306 127c63 0 98 66 98 131c0 41 -18 73 -78 73c-26 0 -48 -8 -65 -18v-139c0 -28 15 -47 45 -47zM261 495v-56c24 11 52 19 85 19c58 0 102 -16 133 -43c15 20 41 32 85 32h5c44 0 59 15 59 61c0 7 -2 34 -9 46l131 -18c3 -12 8 -41 8 -72c0 -96 -58 -143 -161 -143h-9
c-33 0 -47 -13 -54 -29c1 -11 2 -22 2 -34c0 -120 -76 -258 -237 -258c-113 0 -172 74 -172 163v331c0 35 -17 50 -40 50c-13 0 -31 -7 -39 -17l-57 108c22 20 66 36 102 36c90 0 168 -52 168 -176z" />
    <glyph glyph-name="bnNine" unicode="&#x9ef;" horiz-adv-x="647" 
d="M489 246c0 193 -421 167 -421 379c0 15 1 30 5 46l136 23s-6 -20 -6 -40c0 -135 419 -113 419 -406c0 -158 -122 -251 -280 -254l-65 70c20 32 31 74 31 104c0 68 -39 96 -87 96c-46 0 -79 -33 -79 -85c0 -41 22 -70 72 -70l-41 -114c-96 6 -157 77 -157 180
c0 116 72 204 199 204c122 0 206 -78 206 -188c0 -23 -2 -48 -9 -74c45 27 77 71 77 129z" />
    <glyph glyph-name="bnAnji" unicode="&#x980;" horiz-adv-x="599" 
d="M298 352l17 -117c-13 -4 -41 -10 -67 -10c-120 0 -200 64 -200 194c0 124 102 252 263 252c124 0 176 -74 176 -163v-331c0 -35 17 -50 40 -50c13 0 31 7 39 17l57 -108c-22 -20 -66 -36 -102 -36c-94 0 -168 57 -168 177v320c0 28 -13 47 -49 47
c-63 0 -124 -53 -124 -125c0 -48 30 -70 83 -70c10 0 26 1 35 3z" />
    <glyph glyph-name="bnTaka" unicode="&#x9f2;" horiz-adv-x="430" 
d="M9 418l29 123c223 -24 344 -174 377 -454l-119 -29c-37 244 -122 337 -287 360z" />
    <glyph glyph-name="bnBangladeshitaka" unicode="&#x9f3;" horiz-adv-x="698" 
d="M512 292c0 33 -20 50 -46 50c-13 0 -29 -6 -37 -16l-57 107c22 20 66 36 102 36c90 0 168 -56 168 -176c0 -158 -88 -293 -279 -293c-127 0 -223 60 -223 189v148h-87v105h87v39c0 54 -15 69 -57 69h-30v121c14 1 33 2 46 2c123 0 177 -68 177 -188v-43h53v-105h-53v-148
c0 -53 41 -69 87 -69c95 0 149 70 149 172z" />
    <glyph glyph-name="bnNumeratorone" unicode="&#x9f4;" horiz-adv-x="421" 
d="M118 15l-92 92c137 126 212 301 269 507l113 -38c-49 -221 -157 -449 -290 -561z" />
    <glyph glyph-name="bnNumeratortwo" unicode="&#x9f5;" horiz-adv-x="686" 
d="M368 15l-98 78c20 32 28 75 28 105c0 62 -32 96 -80 96c-29 0 -49 -17 -49 -45c0 -21 12 -38 39 -48l-92 -69c-55 24 -83 72 -83 129c0 85 59 156 179 156c110 0 176 -70 188 -158c66 105 108 227 145 355l113 -40c-49 -221 -170 -456 -290 -559z" />
    <glyph glyph-name="bnNumeratorthree" unicode="&#x9f6;" horiz-adv-x="660" 
d="M188 340l-105 -42c-20 20 -32 54 -32 86c0 86 63 145 163 145c103 0 161 -67 161 -158c0 -102 -44 -166 -164 -178c-40 -4 -63 -15 -63 -41c0 -33 32 -42 72 -42c212 0 282 264 282 526l125 -14c0 -294 -85 -627 -402 -627c-115 0 -201 53 -201 155c0 80 55 127 153 142
c64 10 85 28 85 82c0 31 -17 50 -46 50c-26 0 -43 -18 -43 -43c0 -15 4 -26 15 -41z" />
    <glyph glyph-name="bnNumeratorfour" unicode="&#x9f7;" horiz-adv-x="300" 
d="M220 671h-140v-671h140v671z" />
    <glyph glyph-name="bnNumeratoroneless" unicode="&#x9f8;" horiz-adv-x="613" 
d="M75 591h140v-257l217 164l106 -62v-397h-147v245l-184 -139l-132 48v398z" />
    <glyph glyph-name="bnDenominatorsixteen" unicode="&#x9f9;" horiz-adv-x="605" 
d="M90 338c0 125 85 212 212 212s214 -87 214 -212s-87 -212 -214 -212s-212 87 -212 212zM224 338c0 -50 25 -85 78 -85s78 35 78 85s-25 85 -78 85s-78 -35 -78 -85z" />
    <glyph glyph-name="bnIsshar" unicode="&#x9fa;" horiz-adv-x="673" 
d="M203 435c0 48 35 83 79 83c47 0 82 -35 82 -83c0 -43 -35 -78 -82 -78c-44 0 -79 35 -79 78zM284 154c-139 0 -235 86 -268 174l107 63c27 -58 76 -115 161 -115c129 0 192 121 247 248l110 -58c-59 -162 -154 -312 -357 -312z" />
    <glyph glyph-name="bnGanda" unicode="&#x9fb;" horiz-adv-x="306" 
d="M423 -89l-78 -102l-218 161c-76 56 -114 111 -114 193c0 94 52 195 214 212l33 -122c-77 -10 -112 -45 -112 -92c0 -39 20 -61 58 -89z" />
    <glyph glyph-name="danda" unicode="&#x964;" horiz-adv-x="542" 
d="M342 0h-142v672h142v-672z" />
    <glyph glyph-name="doubledanda" unicode="&#x965;" horiz-adv-x="791" 
d="M342 0h-142v672h142v-672zM591 0h-142v672h142v-672z" />
    <glyph glyph-name="indianrupee" unicode="&#x20b9;" horiz-adv-x="549" 
d="M425 11v-11h-178l-142 166l-73 69l29 110c77 -21 176 -11 204 64h-223v103h221c-16 37 -53 56 -118 56h-103v103h514l-48 -103h-144v-4c13 -9 33 -25 47 -52h145l-48 -103h-86c-22 -116 -147 -161 -215 -159l-1 -4c27 -23 57 -52 83 -82z" />
    <glyph glyph-name="uni200C" unicode="&#x200c;" 
d="M24 -230h-47v1041h47v-1041z" />
    <glyph glyph-name="uni200D" unicode="&#x200d;" 
d="M128 593l-33 -33l-72 75v-865h-47v865l-69 -73l-33 33l93 93l-95 95l33 33l95 -95l96 95l32 -32l-96 -96z" />
    <glyph glyph-name="uni25CC" unicode="&#x25cc;" horiz-adv-x="660" 
d="M139 517c0 25 18 44 44 44s44 -19 44 -44c0 -26 -18 -45 -44 -45s-44 19 -44 45zM57 407c0 25 20 44 46 44c24 0 44 -19 44 -44s-20 -44 -44 -44c-26 0 -46 19 -46 44zM44 281c0 26 19 45 44 45c26 0 44 -19 44 -45c0 -25 -18 -43 -44 -43c-25 0 -44 18 -44 43zM96 165
c0 25 18 44 44 44c25 0 44 -19 44 -44c0 -26 -19 -44 -44 -44c-26 0 -44 18 -44 44zM197 90c0 24 19 44 45 44c25 0 44 -20 44 -44c0 -26 -19 -46 -44 -46c-26 0 -45 20 -45 46zM324 74c0 26 18 44 44 44s45 -18 45 -44s-19 -44 -45 -44s-44 18 -44 44zM445 127
c0 25 19 44 44 44s45 -19 45 -44c0 -26 -20 -44 -45 -44s-44 18 -44 44zM518 225c0 26 19 45 45 45c24 0 43 -19 43 -45c0 -25 -19 -44 -43 -44c-26 0 -45 19 -45 44zM528 359c0 26 18 44 44 44c25 0 44 -18 44 -44s-19 -44 -44 -44c-26 0 -44 18 -44 44zM478 477
c0 26 19 45 44 45c26 0 44 -19 44 -45c0 -25 -18 -44 -44 -44c-25 0 -44 19 -44 44zM383 545c0 26 19 45 45 45c25 0 43 -19 43 -45c0 -24 -18 -44 -43 -44c-26 0 -45 20 -45 44zM257 560c0 26 18 44 44 44s44 -18 44 -44s-18 -44 -44 -44s-44 18 -44 44z" />
    <glyph glyph-name="bnNull" 
 />
    <glyph glyph-name="bnReph" 
d="M-218 821l342 241l64 -93l-343 -249z" />
    <glyph glyph-name="bnRAc2" 
d="M-211 158h132v-356h-129c-6 57 -40 81 -98 81c-41 0 -52 -2 -110 -2c-175 0 -213 127 -213 228l133 21c-2 -57 12 -133 96 -133c25 0 64 3 89 3c34 0 81 -9 110 -40h4c-11 36 -14 94 -14 122v76z" />
    <glyph glyph-name="bnYAc2" horiz-adv-x="281" 
d="M83 562v-4c-20 -20 -42 -55 -42 -113c0 -104 66 -165 66 -262c0 -47 -25 -94 -96 -139l98 -81c83 47 134 133 134 219c0 106 -61 170 -61 268c0 72 41 112 90 112h29v109h-321v-109h103z" />
    <glyph glyph-name="bnBAc2" 
d="M-210 144h130v-355l56 -23l-80 -93l-391 176v125c105 65 197 111 285 148v22zM-207 -152h6c-5 40 -8 93 -9 140c-47 -21 -95 -44 -148 -72z" />
    <glyph glyph-name="bnK" horiz-adv-x="739" 
d="M760 562h-306v-33c171 -10 233 -104 233 -180c0 -96 -66 -144 -125 -163l-62 100c28 5 64 21 64 63c0 39 -40 62 -110 66v-285h-113l-286 125v118c46 46 144 119 270 146v43h-345v109h780v-109zM334 256c-5 41 -9 96 -9 143c-56 -19 -106 -49 -145 -78l149 -65h5z" />
    <glyph glyph-name="bnKH" horiz-adv-x="661" 
d="M581 139h-114l-469 144v105c214 0 276 61 276 128c0 13 -3 25 -10 33c-18 -43 -56 -85 -134 -85c-91 0 -146 57 -146 137c0 25 7 51 16 70h118c-13 -20 -19 -40 -19 -61c0 -25 16 -43 48 -43c40 0 62 46 75 104h96c33 -36 66 -93 66 -157c0 -91 -38 -156 -161 -183v-6
l226 -67l4 3c-5 67 -8 118 -8 214v298h136v-102h100v-109h-100v-423z" />
    <glyph glyph-name="bnG" horiz-adv-x="611" 
d="M531 773v-102h100v-109h-100v-354h-120v214c0 100 -61 153 -147 153c-44 0 -82 -17 -106 -41c15 4 33 6 49 6c61 0 127 -41 127 -125c0 -72 -53 -144 -138 -197l-87 89c66 36 105 75 105 112c0 23 -18 42 -51 42c-31 0 -60 -6 -85 -18l-77 80c33 74 126 162 253 162
c80 0 139 -30 174 -67h4c-15 41 -21 88 -21 134v21h120z" />
    <glyph glyph-name="bnGH" horiz-adv-x="575" 
d="M362 113l-321 138v95l36 22c36 22 69 30 69 30v4c-56 11 -109 42 -109 106c0 21 7 40 15 54h-72v109h615v-109h-100v-449h-133zM383 220l3 2c-7 22 -12 72 -12 120v220h-195c-12 -13 -19 -29 -19 -47c0 -29 20 -56 63 -56c16 0 36 5 65 24l45 -95l-150 -82z" />
    <glyph glyph-name="bnNG" horiz-adv-x="674" 
d="M361 570v-46c5 -1 11 -1 16 -1c36 0 53 20 53 47c0 21 -15 34 -36 34c-20 0 -33 -12 -33 -34zM372 99c-197 0 -322 151 -324 323l107 22c3 -174 112 -242 217 -242c88 0 140 48 140 98c0 15 -3 23 -7 29c-32 -19 -75 -41 -130 -41c-84 0 -125 52 -125 128v57
c-40 21 -73 51 -100 89h-170v109h231l2 1c10 -32 24 -64 44 -90c1 53 48 106 133 106c81 0 142 -41 142 -120c0 -82 -62 -125 -155 -125h-16v-27c0 -19 7 -28 26 -28c24 0 72 15 158 71c47 -32 82 -82 82 -152c0 -107 -92 -208 -255 -208z" />
    <glyph glyph-name="bnC" horiz-adv-x="479" 
d="M499 562h-319c12 -20 38 -37 91 -57l32 -12c81 -30 134 -69 134 -160c0 -106 -93 -207 -227 -207c-98 0 -145 55 -145 136v300h-85v109h519v-109zM181 436h-4s6 -43 6 -113v-57c0 -18 9 -31 33 -31c45 0 106 31 106 97c0 33 -19 48 -56 62l-24 9c-34 13 -48 22 -61 33z
" />
    <glyph glyph-name="bnCH" horiz-adv-x="526" 
d="M159 562c6 -23 62 -26 108 -50c17 4 36 6 49 6c94 0 169 -62 169 -169c0 -87 -58 -160 -184 -179v-3c36 -9 67 -22 108 -41l104 -47l-79 -80c-276 136 -283 138 -385 150v95h125c137 0 194 48 194 107c0 33 -13 57 -45 64c-3 -72 -64 -133 -150 -133
c-80 0 -128 39 -128 103v177h-65v109h566v-109h-387zM221 421c0 30 -52 29 -66 42v-72c0 -9 6 -17 18 -17c30 0 48 22 48 47z" />
    <glyph glyph-name="bnJ" horiz-adv-x="749" 
d="M112 433l-107 -39c24 -164 136 -301 300 -301c133 0 200 89 200 170c0 51 -24 90 -53 119l-92 11c-28 3 -33 12 -33 24c0 24 20 56 65 90c25 -55 89 -122 202 -135c-25 -51 -35 -115 -35 -178v-120h108v112c0 71 14 144 45 199l-40 88h-29c-99 0 -149 45 -165 89h291v109
h-789v-109h323c-50 -38 -102 -97 -102 -168c0 -53 31 -87 107 -97l70 -8c4 -5 9 -12 9 -28c0 -33 -26 -62 -83 -62c-107 0 -177 104 -192 234z" />
    <glyph glyph-name="bnJH" horiz-adv-x="621" 
d="M271 278h4c-6 19 -10 73 -10 119v41c-63 -23 -112 -62 -129 -81zM563 773v-102h78v-109h-78v-316l-93 -27l-100 66v-120h-108l-240 139v95c34 36 127 113 243 145v18h-285v109h390v-267l86 -55v424h107z" />
    <glyph glyph-name="bnNY" horiz-adv-x="864" 
d="M428 682c60 0 88 -25 99 -50c19 22 61 53 128 53c89 0 138 -49 138 -118c0 -46 -26 -83 -69 -95v-3c51 -12 81 -47 81 -99c0 -62 -46 -122 -136 -122c-36 0 -93 13 -116 43c9 -41 9 -104 9 -131v-38h-111c0 74 -47 88 -166 98c-177 13 -257 82 -257 186
c0 43 15 79 34 104l103 -39c-11 -14 -22 -34 -22 -65c0 -50 42 -80 151 -89c112 -8 134 -21 166 -42h4c-11 44 -16 107 -16 156v118c0 22 -11 32 -34 32c-49 0 -94 -46 -94 -92c0 -20 9 -35 30 -35c17 0 30 9 36 16l36 -79c-21 -18 -57 -25 -87 -25c-86 0 -126 46 -126 115
c0 99 86 201 219 201zM641 595c-41 0 -84 -39 -84 -127c0 -77 38 -128 94 -128c25 0 44 14 44 40c0 29 -25 43 -62 43h-21v89h21c34 0 51 18 51 46c0 23 -16 37 -43 37z" />
    <glyph glyph-name="bnTT" horiz-adv-x="491" 
d="M2 921l118 19c-2 -8 -3 -16 -3 -24c0 -35 18 -73 94 -73h36c97 0 182 -52 182 -156c0 -5 0 -11 -1 -16h82v-109h-328v-278c0 -25 12 -41 40 -41c56 0 111 44 111 99c0 31 -13 45 -36 45c-12 0 -26 -6 -33 -15l-51 105c20 18 59 32 91 32c79 0 148 -60 148 -166
c0 -103 -99 -223 -241 -223c-101 0 -147 66 -147 144v298h-84v109h330v8c0 48 -29 62 -87 62h-18c-152 0 -205 80 -205 158c0 7 1 15 2 22z" />
    <glyph glyph-name="bnTTH" horiz-adv-x="520" 
d="M485 280c0 104 -77 191 -161 283h211v108h-287c-26 35 -41 67 -41 101c0 36 24 59 71 53l-23 104c-104 6 -168 -60 -168 -151c0 -39 16 -76 37 -107h-144v-108h212l5 -5v-67c0 -93 -68 -147 -176 -174c0 -135 95 -251 246 -251c133 0 218 92 218 214zM157 259
c48 17 128 65 136 180c42 -51 77 -95 77 -160c0 -63 -44 -109 -101 -109c-74 0 -107 58 -112 89z" />
    <glyph glyph-name="bnDD" horiz-adv-x="591" 
d="M609 563h-286v-87c0 -22 9 -27 21 -27c22 0 88 36 138 71c44 -27 82 -87 82 -155c0 -116 -92 -213 -241 -213c-181 0 -296 148 -298 321l108 25c0 -175 99 -244 190 -244c82 0 132 50 132 105c0 11 -3 23 -8 33c-26 -21 -72 -45 -120 -45c-78 0 -118 50 -118 125v91h-229
v108h629v-108z" />
    <glyph glyph-name="bnDDH" horiz-adv-x="491" 
d="M182 562v-278c0 -25 12 -41 40 -41c56 0 111 44 111 99c0 31 -13 45 -36 45c-12 0 -26 -6 -33 -15l-51 105c20 18 59 32 91 32c79 0 148 -60 148 -166c0 -103 -99 -223 -241 -223c-101 0 -147 66 -147 144v298h-84v109h530v-109h-328z" />
    <glyph glyph-name="bnNN" horiz-adv-x="555" 
d="M136 486c0 -41 27 -68 72 -68c26 0 47 12 62 24l37 -99c-25 -19 -64 -30 -101 -30c-120 0 -184 79 -184 173c0 106 70 184 193 184c78 0 130 -35 158 -74l4 3c-16 38 -16 80 -16 132v42h114v-102h100v-109h-100v-292h-118v87c0 97 -17 212 -129 212
c-58 0 -92 -32 -92 -83z" />
    <glyph glyph-name="bnT" horiz-adv-x="721" 
d="M444 -42l-73 -106l223 -153l73 97zM388 214l86 82c-25 8 -40 29 -40 51c0 26 21 43 46 43c43 0 66 -41 66 -97c0 -79 -48 -145 -137 -145c-139 0 -219 152 -253 350l-127 -56c52 -244 169 -419 381 -419c162 0 272 107 272 267c0 126 -77 225 -213 225
c-100 0 -173 -65 -173 -157c0 -68 38 -123 92 -144zM741 671h-761v-109h761v109z" />
    <glyph glyph-name="bnTH" horiz-adv-x="598" 
d="M74 442l97 46c-9 8 -20 23 -20 44c0 25 16 47 51 47s55 -25 55 -58c0 -48 -40 -114 -216 -117v-102l363 -156h122v416h83v109h-83v102h-116v-373c0 -44 2 -104 7 -146h-4l-205 89v3c109 22 161 99 161 176c0 104 -80 159 -170 159c-97 0 -164 -61 -164 -147
c0 -39 18 -72 39 -92z" />
    <glyph glyph-name="bnD" horiz-adv-x="484" 
d="M500 563h-321v-146c37 43 106 92 173 116l95 -50c-25 -65 -33 -130 -33 -203v-96h-115v96c0 45 8 99 21 128c-45 -29 -111 -96 -147 -158l-116 39v274h-76v108h519v-108z" />
    <glyph glyph-name="bnDH" horiz-adv-x="517" 
d="M256 570c-16 11 -36 14 -50 14c-24 0 -45 -11 -45 -42c0 -27 26 -46 72 -46c33 0 67 13 106 36v140h194v-109h-84v-406h-114l-275 129v92l45 27c24 14 52 26 52 26v4c-44 8 -106 40 -106 114c0 80 58 130 141 130c31 0 68 -7 91 -26zM349 264c-5 40 -10 106 -10 151v9
l-156 -85l162 -75h4z" />
    <glyph glyph-name="bnN" horiz-adv-x="594" 
d="M-20 562v109h634v-109h-100v-325l-134 1c-42 106 -96 161 -156 161c-32 0 -54 -15 -54 -45c0 -20 8 -34 18 -46l-107 -38c-19 22 -35 52 -35 92c0 91 61 153 163 153c82 0 146 -49 175 -93l4 1c-5 32 -8 76 -8 122v17h-400z" />
    <glyph glyph-name="bnP" horiz-adv-x="697" 
d="M187 529c47 -13 88 -45 113 -94l117 79c-28 32 -67 50 -118 50c-52 0 -88 -18 -112 -35zM617 217h-138v88c0 37 -4 73 -11 104l-271 -188l-67 99l70 48c-10 25 -27 47 -53 62c-17 9 -38 16 -65 18l-64 94c49 68 145 138 271 138c112 0 180 -56 210 -95l3 2
c-25 74 -25 127 -25 163v23h140v-102h100v-109h-100v-345z" />
    <glyph glyph-name="bnPH" horiz-adv-x="858" 
d="M577 90v301c12 4 26 7 39 7c47 0 83 -26 83 -78s-41 -76 -71 -84l69 -108c58 24 131 77 131 190c0 130 -99 200 -223 200c-63 0 -127 -17 -165 -38v-72c0 -55 5 -145 12 -195h-4l-194 76l110 82v94l-111 93v4h625v109h-898v-109h133v-39l120 -101l-120 -91v-111l331 -130
h133z" />
    <glyph glyph-name="bnB" horiz-adv-x="560" 
d="M580 562h-100v-430h-128l-287 129v120c106 66 197 115 288 154v27h-373v109h600v-109zM357 259h6c-5 42 -9 98 -10 147c-46 -23 -95 -49 -147 -79z" />
    <glyph glyph-name="bnBH" horiz-adv-x="648" 
d="M6 436l97 53c32 -111 108 -277 264 -277c94 0 137 51 137 111c0 20 -7 41 -15 53h-4c-11 -35 -47 -88 -128 -88c-86 0 -132 56 -132 121c0 34 10 55 15 67l106 -14c-7 -12 -12 -30 -12 -44c0 -21 10 -34 33 -34c34 0 61 35 83 109h84c31 -25 79 -91 79 -176
c0 -115 -77 -211 -247 -211c-203 0 -310 170 -360 330zM667 562h-687v109h687v-109z" />
    <glyph glyph-name="bnM" horiz-adv-x="640" 
d="M417 448c40 0 55 26 55 61c0 27 -16 53 -55 53h-173c5 -16 9 -32 12 -49c67 -21 111 -65 161 -65zM-20 671h681v-109h-80c10 -16 19 -41 19 -79c0 -66 -34 -159 -162 -159c-123 0 -164 83 -236 83c-27 0 -47 -15 -47 -40c0 -20 8 -34 18 -46l-107 -38
c-18 18 -37 50 -37 93c0 62 30 115 91 136c-3 19 -9 36 -18 50h-122v109z" />
    <glyph glyph-name="bnY" horiz-adv-x="478" 
d="M282 152h130v410h80v109h-512v-109h56v-31l95 -81l-95 -72v-89zM152 562h145v-154c0 -44 5 -115 10 -155l-4 -1l-159 88l92 69v76l-84 73v4z" />
    <glyph glyph-name="bnR" horiz-adv-x="560" 
d="M580 562h-100v-430h-128l-287 129v120c106 66 197 115 288 154v27h-373v109h600v-109zM59 86c0 46 33 79 75 79c45 0 78 -33 78 -79c0 -41 -33 -74 -78 -74c-42 0 -75 33 -75 74zM357 259h6c-5 42 -9 98 -10 147c-46 -23 -95 -49 -147 -79z" />
    <glyph glyph-name="bnL" horiz-adv-x="706" 
d="M726 562h-100v-438l-127 -1v247c-8 18 -31 34 -58 34c-38 0 -63 -29 -63 -77v-31h-117v31c0 55 -26 74 -56 74c-31 0 -62 -25 -62 -75c0 -48 31 -70 73 -70c8 0 17 1 26 3l8 -113c-17 -4 -35 -6 -52 -6c-93 0 -180 60 -180 183s84 195 175 195c75 0 115 -43 126 -77h5
c10 42 50 79 101 79c36 0 61 -15 69 -24h5v66h-519v109h746v-109z" />
    <glyph glyph-name="bnSH" horiz-adv-x="717" 
d="M61 562h-81v109h88c69 0 124 -24 161 -64c39 41 95 67 162 67c79 0 113 -37 122 -47h4c-8 31 -14 80 -14 114v32h134v-102h100v-109h-100v-383h-138v252c0 82 -47 122 -109 122c-53 0 -94 -36 -94 -94c0 -57 41 -90 94 -90c16 0 29 2 43 7v-122s-17 -7 -51 -7
c-61 0 -116 25 -154 67c-38 -44 -93 -70 -154 -70c-34 0 -61 10 -61 10v120c14 -5 33 -8 53 -8c58 0 94 31 94 94c0 57 -31 102 -99 102z" />
    <glyph glyph-name="bnSS" horiz-adv-x="545" 
d="M565 562h-81c15 -28 23 -61 23 -100c0 -142 -98 -226 -232 -226s-231 84 -231 226c0 39 8 72 23 100h-87v109h585v-109zM275 565c-17 0 -33 -3 -47 -10l142 -137c5 13 7 28 7 44c0 63 -40 103 -102 103zM275 356c18 0 35 3 49 10l-143 135c-4 -12 -6 -25 -6 -39
c0 -66 40 -106 100 -106z" />
    <glyph glyph-name="bnS" horiz-adv-x="689" 
d="M81 504l-69 -89c39 -38 93 -60 142 -60c72 0 124 37 153 109c37 -73 106 -110 176 -110c102 0 174 58 174 151c0 18 -3 41 -8 57h60v109h-729v-109h242c-5 -47 -24 -105 -68 -105c-28 0 -51 17 -73 47zM511 562c5 -10 9 -25 9 -44c0 -30 -13 -59 -48 -59
c-42 0 -71 45 -88 103h127z" />
    <glyph glyph-name="bnH" horiz-adv-x="498" 
d="M268 184v-4c34 -4 49 -6 123 -38l127 -54l-68 -95c-228 108 -305 150 -380 156v110h61c108 0 167 26 167 93c0 42 -20 73 -58 73c-25 0 -43 -17 -43 -41c0 -15 7 -32 31 -41l-80 -57c-53 19 -77 61 -77 110c0 73 62 134 169 134c113 0 186 -75 186 -178
c0 -101 -68 -155 -158 -168zM518 562h-538v109h538v-109z" />
    <glyph glyph-name="bnK_SS" horiz-adv-x="942" 
d="M520 -164l73 106l223 -162l-73 -97zM988 562h-275v-112h10c150 0 214 -80 214 -181c0 -97 -66 -151 -123 -171l-67 101c28 7 64 33 64 72c0 43 -28 58 -80 58h-18v-345h-128c-16 82 -96 150 -195 166c-21 -60 -67 -87 -108 -87c-48 0 -90 30 -90 86c0 45 34 84 86 103
c-9 37 -29 66 -57 86c-23 -45 -62 -65 -98 -65c-48 0 -90 30 -90 86c0 49 34 86 85 101c-8 44 -30 77 -55 102h-83v109h1008v-109zM591 172c-7 46 -12 105 -13 156h-30c-132 0 -196 61 -196 195v39h-147c19 -30 33 -68 36 -110c75 -27 143 -95 157 -191
c98 -11 167 -55 193 -89zM539 449h38v113h-96v-44c0 -61 28 -69 58 -69z" />
    <glyph glyph-name="bnJ_NY" horiz-adv-x="904" 
d="M427 562c-43 -37 -77 -109 -77 -157c0 -27 24 -35 57 -39l114 -14c-59 45 -87 120 -90 210h-4zM723 30c-70 0 -120 25 -154 66c-37 -50 -102 -87 -197 -87c-194 0 -322 163 -351 356l121 44c17 -153 102 -275 228 -275c68 0 103 34 103 72c0 19 -6 28 -10 34l-96 12
c-90 11 -148 53 -148 138c0 62 25 131 54 172h-293v109h944v-109h-373c3 -38 13 -69 30 -95c31 30 73 48 127 48c97 0 151 -62 151 -134c0 -49 -28 -88 -73 -103v-4c49 -13 85 -50 85 -107c0 -67 -50 -137 -148 -137zM740 372c0 24 -18 39 -47 39c-45 0 -91 -41 -91 -137
c0 -84 41 -138 102 -138c27 0 47 15 47 42c0 32 -27 47 -67 47h-23v97h23c36 0 56 19 56 50zM382 -148l73 106l223 -162l-73 -97z" />
    <glyph glyph-name="asR" horiz-adv-x="502" 
d="M317 562v-25c-147 -37 -260 -133 -296 -172v-94l276 -161h132v452h86v109h-535v-109h337zM142 325c9 7 24 21 43 34l137 -82c2 -25 4 -47 8 -58h-3zM321 433c-3 -26 -3 -53 -3 -80l-74 44c22 13 54 28 77 36z" />
    <glyph glyph-name="asW" horiz-adv-x="560" 
d="M41 69l62 102l161 -74l-62 -102zM580 562h-100v-430h-128l-287 129v120c106 66 197 115 288 154v27h-373v109h600v-109zM357 259h6c-5 42 -9 98 -10 147c-46 -23 -95 -49 -147 -79z" />
    <glyph glyph-name="bnDDx" horiz-adv-x="589" 
d="M609 563h-286v-87c0 -22 9 -27 21 -27c22 0 88 36 138 71c44 -27 82 -87 82 -155c0 -116 -92 -213 -241 -213c-181 0 -296 148 -298 321l108 25c0 -175 99 -244 190 -244c82 0 132 50 132 105c0 11 -3 23 -8 33c-26 -21 -72 -45 -120 -45c-78 0 -118 50 -118 125v91h-229
v108h629v-108zM239 16c0 46 33 79 75 79c45 0 78 -33 78 -79c0 -41 -33 -74 -78 -74c-42 0 -75 33 -75 74z" />
    <glyph glyph-name="bnDDHx" horiz-adv-x="491" 
d="M182 562v-278c0 -25 12 -41 40 -41c56 0 111 44 111 99c0 31 -13 45 -36 45c-12 0 -26 -6 -33 -15l-51 105c20 18 59 32 91 32c79 0 148 -60 148 -166c0 -103 -99 -223 -241 -223c-101 0 -147 66 -147 144v298h-84v109h530v-109h-328zM137 -14c0 46 33 79 75 79
c45 0 78 -33 78 -79c0 -41 -33 -74 -78 -74c-42 0 -75 33 -75 74z" />
    <glyph glyph-name="bnYx" horiz-adv-x="478" 
d="M282 152h130v410h80v109h-512v-109h56v-31l95 -81l-95 -72v-89zM147 562h150v-154c0 -44 4 -116 9 -156h-3l-159 88l92 69v76l-89 74v3zM49 86c0 46 33 79 75 79c45 0 78 -33 78 -79c0 -41 -33 -74 -78 -74c-42 0 -75 33 -75 74z" />
    <glyph glyph-name="bnK_KA" horiz-adv-x="740" 
d="M760 562h-306v-30c171 -10 233 -104 233 -180c0 -54 -20 -94 -50 -120l-102 64c15 11 29 30 29 56c0 39 -40 62 -110 66v-161c171 -10 233 -104 233 -180c0 -96 -66 -144 -125 -163l-62 100c28 5 64 21 64 63c0 39 -40 62 -110 66v-214l51 -22l-82 -94l-368 162v126
c27 26 71 62 128 93l-128 56v126c46 46 144 119 270 146v40h-345v109h780v-109zM334 -16c-5 41 -9 96 -9 143c-56 -19 -106 -49 -145 -78l149 -65h5zM334 259c-5 41 -9 96 -9 143c-56 -19 -106 -49 -145 -78l149 -65h5z" />
    <glyph glyph-name="bnNG_KA" horiz-adv-x="753" 
d="M520 562c0 -73 23 -100 57 -100s44 31 44 60c0 16 -3 32 -6 40h-95zM-20 562v109h793v-109h-47c6 -19 8 -38 8 -55c0 -85 -52 -148 -156 -148c-99 0 -177 69 -177 203h-421zM425 -23l51 -23l-80 -93l-363 160v124c46 46 144 119 270 146v24c0 65 -26 105 -78 105
c-32 0 -54 -23 -54 -54c0 -17 9 -38 30 -51l-87 -64c-53 35 -70 77 -70 123c0 88 66 157 173 157c137 0 208 -99 208 -216v-14c176 -7 240 -104 240 -188c0 -88 -66 -136 -125 -155l-62 100c28 5 64 21 64 63c0 40 -42 63 -117 67v-211zM312 28c-5 41 -9 96 -9 143
c-56 -19 -106 -49 -145 -78l149 -65h5z" />
    <glyph glyph-name="bnL_KA" horiz-adv-x="936" 
d="M-20 562v109h976v-109h-275v-266c171 -10 233 -104 233 -180c0 -96 -66 -144 -125 -163l-62 100c28 5 64 21 64 63c0 39 -40 62 -110 66v-214l51 -22l-82 -94l-368 162v126c46 46 144 119 270 146v67c-9 19 -32 34 -61 34c-40 0 -68 -29 -68 -79v-31h-124v31
c0 54 -28 76 -61 76c-37 0 -64 -28 -64 -80c0 -60 31 -84 71 -94l-42 -114c-103 20 -163 100 -163 209c0 126 91 199 187 199c80 0 123 -44 135 -79h4c10 43 53 81 107 81c39 0 66 -16 74 -23h5v79h-572zM561 23c-5 41 -9 96 -9 143c-56 -19 -106 -49 -145 -78l149 -65h5z
" />
    <glyph glyph-name="bnSS_KA" horiz-adv-x="695" 
d="M715 562h-216c15 -28 23 -61 23 -100c0 -43 -9 -80 -25 -112c127 -26 175 -107 175 -173c0 -96 -66 -144 -125 -163l-62 100c28 5 64 21 64 63c0 39 -40 62 -110 66v-214l51 -22l-82 -94l-368 162v126c23 23 58 52 103 79c-52 38 -84 101 -84 182c0 39 8 72 23 100h-102
v109h735v-109zM290 565c-17 0 -33 -3 -47 -10l144 -139c5 14 8 29 8 46c0 63 -43 103 -105 103zM314 84h5c-5 40 -9 96 -9 143c-56 -19 -106 -49 -145 -78zM290 351c19 0 37 4 52 12l-147 139c-5 -12 -7 -25 -7 -40c0 -66 42 -111 102 -111z" />
    <glyph glyph-name="bnS_KA" horiz-adv-x="736" 
d="M89 501c26 -28 50 -44 80 -44c48 0 71 45 80 105h-269v109h776v-109h-105c4 -20 6 -38 6 -56c0 -74 -36 -129 -100 -152c112 -29 155 -105 155 -168c0 -96 -66 -144 -125 -163l-62 100c28 5 64 21 64 63c0 39 -40 62 -110 66v-214l51 -22l-82 -94l-368 162v126
c51 50 163 132 305 153c-27 14 -50 38 -69 76c-26 -57 -75 -94 -147 -94c-49 0 -108 21 -147 70zM530 518c0 19 -3 34 -8 44h-133c4 -59 33 -107 85 -107c39 0 56 29 56 63zM359 93c-5 41 -9 96 -9 143c-56 -19 -106 -49 -145 -78l149 -65h5z" />
    <glyph glyph-name="bnNG_KHA" horiz-adv-x="804" 
d="M288 585v-37c7 -1 15 -1 22 -1c37 0 48 16 48 38c0 14 -10 30 -35 30c-22 0 -35 -11 -35 -30zM174 -179v96c181 0 257 37 257 111c0 20 -5 32 -9 37c-20 -69 -76 -98 -142 -98c-93 0 -148 54 -148 142c0 12 1 25 3 39h120c-3 -10 -6 -22 -6 -33c0 -22 9 -42 37 -42
c42 0 63 47 69 99c-14 -2 -29 -3 -45 -3c-189 0 -288 135 -300 280l101 32c14 -147 100 -206 199 -206c77 0 121 31 121 74c0 11 -2 15 -5 21c-30 -22 -65 -36 -119 -36c-78 0 -135 48 -135 121v35c-40 16 -74 39 -100 72h-92v109h151c9 -27 26 -53 49 -74
c4 45 44 98 137 98c84 0 140 -51 140 -118c0 -66 -62 -109 -148 -109h-21v-14c0 -16 14 -23 29 -23c19 0 60 4 149 54c43 -27 75 -74 75 -137c0 -55 -27 -107 -81 -141c45 -39 83 -105 83 -181c0 -73 -30 -128 -106 -158v-4l162 -43l3 3c-4 53 -7 112 -7 189v760h129v-102
h102v-109h-102v-775l51 -14l-74 -93z" />
    <glyph glyph-name="bnS_KHA" horiz-adv-x="925" 
d="M255 64c189 3 270 52 270 133c0 22 -5 35 -9 40c-24 -77 -87 -110 -161 -110c-102 0 -166 62 -166 160c0 14 1 28 3 44h133c-3 -10 -5 -24 -5 -36c0 -25 11 -48 42 -48c47 0 71 52 78 110c-56 9 -105 39 -135 102c-29 -72 -79 -104 -151 -104c-49 0 -103 22 -142 60
l69 89c22 -30 45 -47 73 -47c48 0 64 64 71 105h-245v109h631c25 -38 46 -94 46 -154c0 -69 -31 -117 -83 -143c40 -41 77 -108 77 -179c0 -83 -31 -147 -119 -178v-4l181 -48l5 3c-6 60 -9 126 -9 213v592h136v-102h100v-109h-100v-632l51 -14l-82 -106l-559 149v105z
M520 518c0 19 -4 34 -9 44h-135c10 -57 47 -103 92 -103c35 0 52 25 52 59z" />
    <glyph glyph-name="bnG_GA" horiz-adv-x="714" 
d="M405 357c0 -10 -1 -21 -3 -31c38 -11 69 -27 93 -47v86c0 116 -71 178 -171 178c-51 0 -96 -20 -124 -48c18 5 39 7 57 7c71 0 148 -47 148 -145zM634 -194h-139v226c0 116 -71 178 -171 178c-51 0 -96 -20 -124 -48c18 5 39 7 57 7c71 0 148 -47 148 -145
c0 -78 -53 -155 -140 -215l-102 100c65 39 102 80 102 120c0 26 -20 49 -59 49c-36 0 -70 -8 -99 -22l-89 94c33 74 121 163 241 183c4 10 6 20 6 29c0 26 -20 49 -59 49c-36 0 -70 -8 -99 -22l-89 94c38 85 147 188 294 188c93 0 163 -35 203 -78h4c-17 47 -25 102 -25 156
v24h140v-102h101v-109h-101v-756z" />
    <glyph glyph-name="bnNG_GA" horiz-adv-x="741" 
d="M762 671v-109h-62c5 -15 7 -37 7 -54c0 -95 -63 -146 -156 -146c-99 0 -176 69 -176 200h-395v109h782zM411 284v-14c104 38 201 65 201 65l83 -83c-27 -58 -39 -112 -39 -181v-134h-127v122c0 50 9 95 25 132l-173 -64c-40 -85 -111 -120 -175 -120
c-103 0 -164 62 -188 126l105 64c16 -36 36 -71 84 -71c55 0 86 64 86 156c0 79 -30 130 -76 130c-27 0 -46 -18 -46 -45c0 -18 9 -39 35 -49l-87 -66c-48 20 -78 69 -78 118c0 93 67 152 168 152c128 0 201 -104 202 -238zM494 562c0 -73 24 -100 58 -100c33 0 44 26 44 60
c0 15 -3 30 -7 40h-95z" />
    <glyph glyph-name="bnDD_GA" horiz-adv-x="1251" 
d="M861 543c-51 0 -96 -20 -124 -48c18 5 39 7 57 7c71 0 148 -47 148 -145c0 -82 -58 -163 -152 -224l-102 103c72 41 114 84 114 126c0 26 -20 49 -59 49c-27 0 -53 -5 -76 -13c9 -24 14 -51 14 -79c0 -142 -109 -260 -290 -260c-221 0 -354 180 -356 391l131 30
c0 -213 114 -297 225 -297c100 0 157 61 157 128c0 14 -3 28 -9 40c-32 -25 -78 -53 -137 -53c-95 0 -143 61 -143 153v111h-279v109h869c93 0 163 -35 203 -78h4c-17 47 -25 102 -25 156v24h140v-102h100v-109h-100v-562h-139v365c0 116 -71 178 -171 178zM458 562h-60
v-106c0 -27 11 -33 25 -33c27 0 97 41 157 83c12 21 28 43 47 63l-3 4c-55 -7 -129 -11 -166 -11z" />
    <glyph glyph-name="bnD_GA" horiz-adv-x="1119" 
d="M215 562v-209c46 54 133 115 216 145c13 24 31 48 53 72l-2 3c-55 -7 -129 -11 -166 -11h-101zM730 543c-51 0 -96 -20 -124 -48c18 5 39 7 57 7c71 0 148 -47 148 -145c0 -92 -74 -184 -190 -246l-102 105c96 46 152 97 152 146c0 26 -20 49 -59 49
c-31 0 -61 -6 -88 -17c-20 -75 -27 -166 -27 -242v-152h-140v151c0 91 18 155 34 191c-56 -36 -138 -120 -184 -197l-132 48v369h-95v109h738c93 0 163 -35 203 -78h4c-17 47 -25 102 -25 156v24h140v-102h99v-109h-99v-562h-139v365c0 116 -71 178 -171 178z" />
    <glyph glyph-name="bnDDx_GA" horiz-adv-x="1251" 
d="M306 -106c0 50 36 86 82 86c49 0 85 -36 85 -86c0 -45 -36 -81 -85 -81c-46 0 -82 36 -82 81zM458 562h-60v-106c0 -27 11 -33 25 -33c27 0 97 41 157 83c12 21 28 43 47 63l-3 4c-55 -7 -129 -11 -166 -11zM861 543c-51 0 -96 -20 -124 -48c18 5 39 7 57 7
c71 0 148 -47 148 -145c0 -82 -58 -163 -152 -224l-102 103c72 41 114 84 114 126c0 26 -20 49 -59 49c-27 0 -53 -5 -76 -13c9 -24 14 -51 14 -79c0 -142 -109 -260 -290 -260c-221 0 -354 180 -356 391l131 30c0 -213 114 -297 225 -297c100 0 157 61 157 128
c0 14 -3 28 -9 40c-32 -25 -78 -53 -137 -53c-95 0 -143 61 -143 153v111h-279v109h869c93 0 163 -35 203 -78h4c-17 47 -25 102 -25 156v24h140v-102h100v-109h-100v-562h-139v365c0 116 -71 178 -171 178z" />
    <glyph glyph-name="bnL_GA" horiz-adv-x="786" 
d="M-20 562v109h826v-109h-100v-792h-141v174c0 114 -54 167 -139 167c-49 0 -84 -24 -105 -46c24 12 52 13 78 9c56 -9 102 -50 102 -125c0 -88 -77 -164 -147 -200l-97 99c77 32 102 68 102 98c0 31 -20 50 -51 51c-26 1 -53 -7 -84 -30l-80 88c38 73 136 174 267 175
c70 1 122 -24 154 -53v177c-9 19 -33 34 -63 34c-40 0 -69 -34 -69 -80v-16h-128v13c0 51 -28 80 -62 80c-42 0 -66 -28 -66 -57c0 -30 21 -64 57 -77l-77 -101c-59 22 -118 88 -118 182s80 179 192 179c87 0 129 -51 139 -83h4c10 42 52 83 110 83c40 0 68 -16 76 -24h5v75
h-585z" />
    <glyph glyph-name="bnNG_GHA" horiz-adv-x="1220" 
d="M347 564v-44c6 -1 11 -1 17 -1c38 0 56 19 56 45c0 19 -14 34 -38 34c-20 0 -35 -11 -35 -34zM1113 -16l-497 220c-32 -86 -121 -137 -256 -137c-217 0 -343 165 -345 345l114 21c3 -179 118 -249 231 -249c93 0 147 37 147 89c0 15 -3 24 -8 29
c-39 -18 -79 -34 -136 -34c-90 0 -141 53 -141 132v69c-44 22 -82 54 -111 93h-131v109h200c11 -34 28 -67 52 -93c2 54 56 107 147 107c27 0 51 -5 73 -14h788v-109h-100v-457l56 -24zM543 445c45 -29 79 -74 86 -137l34 21c41 25 78 34 78 34v5c-64 12 -124 47 -124 120
c0 31 12 57 26 74h-113v-4c0 -77 -67 -123 -164 -123c-6 0 -13 0 -19 1v-28c0 -19 8 -28 25 -28c22 0 69 5 171 65zM1012 160l3 2c-8 25 -14 82 -14 137v263h-209c-22 -16 -35 -39 -35 -66c0 -33 23 -63 72 -63c18 0 41 5 74 27l52 -109l-171 -93z" />
    <glyph glyph-name="bnD_GHA" horiz-adv-x="1118" 
d="M1138 562h-100v-457l56 -24l-83 -97l-475 204v126l25 15c41 25 78 34 78 34v5c-45 8 -88 28 -109 64c-25 -73 -33 -148 -33 -230v-117h-132v117c0 56 10 124 26 160c-63 -43 -102 -83 -176 -169l-132 68v301h-103v109h1158v-109zM223 384c54 54 135 106 209 134l85 -49
c-1 6 -2 12 -2 19c0 31 12 57 26 74h-318v-178zM910 160l3 2c-8 25 -14 82 -14 137v263h-209c-22 -16 -35 -39 -35 -66c0 -33 23 -63 72 -63c18 0 41 5 74 27l52 -109l-171 -93z" />
    <glyph glyph-name="bnL_GHA" horiz-adv-x="1094" 
d="M987 -53l-491 211v109l41 25c41 25 78 34 78 34v5c-30 6 -58 16 -81 33c-10 8 -27 20 -53 20c-41 0 -63 -30 -63 -81v-32h-128v32c0 55 -27 78 -61 78s-64 -30 -64 -83c0 -69 39 -100 98 -100c23 0 44 3 61 11l17 -122c-23 -7 -50 -11 -83 -11c-150 0 -231 98 -231 223
c0 130 90 205 189 205c80 0 118 -42 135 -81h4c12 44 50 83 106 83c14 0 27 -3 38 -6c9 25 23 46 37 62h-556v109h1134v-109h-100v-494l56 -24zM886 123l3 2c-8 25 -14 82 -14 137v300h-184c-29 -21 -60 -57 -60 -103c0 -33 23 -63 72 -63c18 0 41 5 74 27l52 -109l-171 -93
z" />
    <glyph glyph-name="bnC_CA" horiz-adv-x="941" 
d="M749 442c95 -33 156 -81 156 -186c0 -123 -108 -263 -264 -263c-113 0 -168 64 -168 158v91c-28 -94 -120 -169 -233 -169c-117 0 -176 64 -176 158v331h-84v109h981v-109h-362v-4c0 -43 23 -71 113 -103zM604 376h-4s7 -50 7 -132v-94c0 -21 13 -36 41 -36
c52 0 125 65 125 141c0 38 -24 57 -67 72l-28 10c-39 14 -59 26 -74 39zM195 406h-4s7 -50 7 -132v-41c0 -24 10 -39 44 -39c51 0 108 51 108 107c0 33 -23 46 -61 59l-20 7c-39 14 -59 26 -74 39zM332 475c73 -25 122 -60 141 -115v202h-282c6 -33 33 -49 112 -77z" />
    <glyph glyph-name="bnNY_CA" horiz-adv-x="846" 
d="M558 36l-80 -93l-401 176v140c91 56 177 103 253 141c-33 67 -71 109 -119 109c-31 0 -53 -17 -53 -47c0 -18 8 -32 18 -44l-107 -38c-19 22 -35 52 -35 92c0 91 61 153 163 153c82 0 144 -47 175 -98l4 1c-5 32 -8 76 -8 122v21h134v-9c0 -18 -4 -53 -9 -80l4 -2
c30 28 71 44 125 44c108 0 168 -66 168 -150c0 -54 -31 -97 -80 -115v-5c54 -14 94 -55 94 -118c0 -75 -56 -154 -165 -154c-60 0 -105 16 -137 45v-68zM379 117h6c-6 46 -10 110 -10 162v10c-52 -26 -110 -58 -173 -94zM605 508c-50 0 -102 -47 -102 -154
c0 -94 46 -153 114 -153c29 0 53 16 53 47c0 35 -30 52 -75 52h-26v108h26c41 0 62 21 62 55c0 28 -19 45 -52 45z" />
    <glyph glyph-name="bnSH_CA" horiz-adv-x="989" 
d="M652 376h-4s7 -50 7 -132v-94c0 -21 13 -36 41 -36c52 0 125 65 125 141c0 38 -24 57 -67 72l-28 10c-39 14 -59 26 -74 39zM797 442c95 -33 156 -81 156 -186c0 -123 -108 -263 -264 -263c-113 0 -168 64 -168 158v411h-109c-64 0 -94 -49 -94 -110c0 -57 41 -94 94 -94
c16 0 29 2 43 7v-122s-17 -7 -51 -7c-61 0 -116 26 -154 70c-38 -44 -94 -70 -154 -70c-34 0 -61 10 -61 10v120c14 -5 33 -8 53 -8c53 0 94 38 94 94c0 61 -33 110 -99 110h-103v109h110c68 0 124 -26 161 -68c37 42 91 68 157 68h601v-109h-362v-4c0 -43 23 -71 113 -103z
" />
    <glyph glyph-name="bnC_CHA" horiz-adv-x="1022" 
d="M594 562c7 -27 73 -31 125 -59c20 5 42 7 58 7c109 0 196 -71 196 -196c0 -101 -67 -186 -213 -208v-4c41 -10 77 -25 125 -47l112 -51l-83 -97c-321 158 -329 161 -448 175v110h146c159 0 225 56 225 124c0 39 -14 66 -52 74c-3 -83 -74 -154 -175 -154
c-70 0 -119 26 -138 70c-5 -107 -98 -208 -231 -208c-117 0 -176 64 -176 158v306h-85v109h1062v-109h-448zM666 398c0 35 -60 33 -76 48v-83c0 -11 7 -20 21 -20c34 0 55 26 55 55zM196 416h-4s7 -50 7 -132v-29c0 -24 10 -39 44 -39c51 0 97 48 97 98c0 33 -18 45 -56 58
l-14 5c-39 14 -59 26 -74 39zM327 485c70 -24 116 -56 135 -108v185h-268c9 -27 38 -43 110 -69z" />
    <glyph glyph-name="bnNY_CHA" horiz-adv-x="750" 
d="M706 -194l-61 -102c-285 91 -439 137 -548 137v113h153c100 0 176 20 176 75c0 20 -6 34 -17 45c-36 -33 -90 -57 -158 -57c-116 0 -211 62 -211 180c0 213 286 201 286 307c0 36 -26 65 -77 65c-46 0 -71 -26 -71 -58c0 -20 9 -38 29 -49l-88 -66c-48 28 -67 74 -67 117
c0 92 78 167 195 167c69 0 122 -25 155 -64c32 41 79 65 143 65c99 0 157 -60 157 -137c0 -50 -28 -90 -74 -105v-4c50 -14 87 -51 87 -110c0 -73 -54 -140 -154 -140c-114 0 -178 68 -201 163c-14 -9 -29 -18 -45 -26c59 -161 239 -159 239 -303c0 -63 -43 -119 -135 -139
v-4c0 -1 65 3 165 -30zM580 534c0 25 -17 41 -48 41c-45 0 -92 -43 -92 -140c0 -87 41 -142 104 -142c27 0 48 16 48 44c0 32 -27 48 -69 48h-23v98h23c38 0 57 20 57 51zM246 135c24 0 44 6 60 14c-28 26 -58 64 -85 124c-29 -19 -49 -42 -49 -77c0 -37 26 -61 74 -61z" />
    <glyph glyph-name="bnSH_CHA" horiz-adv-x="1048" 
d="M619 562c7 -27 73 -31 125 -59c20 5 42 7 58 7c109 0 196 -71 196 -196c0 -101 -67 -186 -213 -208v-4c41 -10 77 -25 125 -47l121 -55l-92 -93c-321 158 -329 161 -448 175v110h146c159 0 225 56 225 124c0 39 -14 66 -52 74c-3 -83 -74 -154 -175 -154
c-93 0 -148 45 -148 120v206h-93c-64 0 -94 -49 -94 -110c0 -57 41 -94 94 -94c16 0 29 2 43 7v-122s-17 -7 -51 -7c-61 0 -116 26 -154 70c-38 -44 -94 -70 -154 -70c-34 0 -61 10 -61 10v120c14 -5 33 -8 53 -8c53 0 94 38 94 94c0 61 -33 110 -99 110h-85v109h92
c68 0 124 -26 161 -68c37 42 91 68 157 68h678v-109h-449zM691 398c0 35 -60 33 -76 48v-83c0 -11 7 -20 21 -20c34 0 55 26 55 55z" />
    <glyph glyph-name="bnNY_JA" horiz-adv-x="848" 
d="M624 -149v142c0 63 5 121 32 193c-9 -1 -19 -2 -29 -2c-112 0 -177 59 -204 146c-30 -36 -57 -69 -57 -99c0 -22 18 -40 67 -46l82 -10c34 -34 56 -69 56 -129c0 -96 -63 -182 -214 -182c-199 0 -313 161 -342 354l125 46c17 -153 84 -275 215 -275c57 0 87 23 87 61
c0 7 -1 14 -4 23l-67 11c-100 15 -138 77 -138 139c0 140 153 198 153 279c0 38 -25 68 -77 68c-40 0 -68 -27 -68 -63c0 -24 12 -48 34 -61l-92 -69c-44 28 -70 75 -70 128c0 113 88 176 196 176c69 0 121 -25 154 -66c33 41 82 66 148 66c101 0 157 -61 157 -136
c0 -50 -29 -91 -75 -107v-4c50 -14 88 -48 88 -107c0 -21 -5 -42 -15 -62l42 -36c-41 -80 -57 -163 -57 -246v-132h-127zM644 531c0 25 -20 40 -50 40c-47 0 -94 -38 -94 -137c0 -87 43 -138 106 -138c29 0 50 15 50 43c0 33 -28 44 -70 44h-24v101h24c37 0 58 16 58 47z
" />
    <glyph glyph-name="bnJ_JA" horiz-adv-x="1322" 
d="M810 29c68 0 98 34 98 72c0 19 -6 28 -10 34l-78 9c-90 10 -131 57 -131 118c0 36 14 71 35 102c-132 4 -222 66 -250 130c-53 -40 -73 -75 -73 -104c0 -13 6 -24 39 -28l109 -13c34 -34 62 -80 62 -140c0 -5 0 -10 -1 -15c37 -97 106 -165 200 -165zM-20 562v109h1362
v-109h-765c28 -58 88 -92 221 -92h203c41 -73 86 -118 209 -118h33l48 -104c-37 -66 -53 -152 -53 -235v-132h-127v142c0 74 12 149 41 210c-98 14 -194 51 -240 139c-34 -24 -75 -58 -75 -87c0 -13 6 -24 39 -28l109 -13c34 -34 62 -80 62 -140c0 -96 -79 -200 -235 -200
c-120 0 -216 61 -279 153c-38 -29 -90 -48 -157 -48c-194 0 -326 161 -355 354l127 46c17 -153 100 -275 226 -275c68 0 98 34 98 72c0 19 -6 28 -10 34l-73 9c-90 11 -132 60 -132 125c0 78 50 142 108 188h-385z" />
    <glyph glyph-name="bnN_JA" horiz-adv-x="959" 
d="M979 562h-506v-40c57 -63 205 -115 355 -115h49l48 -104c-37 -66 -53 -152 -53 -235v-201h-127v211c0 74 12 155 41 216c-104 2 -227 29 -313 86v-101c0 -27 14 -38 44 -42l100 -12c34 -34 62 -80 62 -140c0 -103 -79 -200 -235 -200c-175 0 -298 132 -359 258l108 75
c49 -112 128 -208 249 -208c68 0 98 34 98 72c0 19 -6 28 -10 34l-68 8c-57 7 -95 30 -112 72c-38 92 -85 181 -150 181c-31 0 -53 -17 -53 -47c0 -26 13 -44 23 -56l-98 -48c-26 23 -49 63 -49 114c0 91 66 153 168 153c76 0 123 -39 152 -77l4 1c-5 32 -8 76 -8 122v23
h-359v109h999v-109z" />
    <glyph glyph-name="bnB_JA" horiz-adv-x="917" 
d="M937 562h-506v-40c57 -63 205 -115 355 -115h49l48 -104c-37 -66 -53 -152 -53 -235v-201h-127v211c0 74 12 155 41 216c-104 2 -227 29 -313 86v-101c0 -27 14 -38 44 -42l100 -12c34 -34 62 -80 62 -140c0 -103 -79 -200 -235 -200c-164 0 -284 112 -348 230l106 77
c49 -103 127 -182 240 -182c68 0 98 34 98 72c0 19 -6 28 -10 34l-63 8c-22 3 -42 8 -58 16l-337 145v98c35 37 137 117 269 159v20h-319v109h957v-109zM299 292v129c-44 -21 -94 -52 -123 -73z" />
    <glyph glyph-name="bnNY_JHA" horiz-adv-x="870" 
d="M672 36h4c-6 29 -9 82 -9 143v4c-37 3 -85 17 -109 44c8 -37 9 -90 9 -123v-19zM414 681c63 0 98 -29 117 -63c19 24 64 62 135 62c89 0 148 -58 148 -135c0 -49 -24 -91 -70 -109v-4c50 -13 82 -54 82 -110c0 -40 -15 -77 -42 -102v-273l-107 -36l-110 50v-92l56 -24
l-78 -91l-375 164v132c38 32 115 78 195 111c-24 4 -54 7 -89 10c-183 16 -253 95 -253 207c0 49 17 88 35 114l116 -41c-12 -14 -24 -39 -24 -69c0 -52 34 -85 134 -92c106 -8 130 -20 164 -45h5c-11 46 -16 113 -16 165v126c0 22 -12 33 -35 33c-52 0 -88 -46 -88 -94
c0 -22 9 -37 31 -37c17 0 31 10 37 16l34 -86c-20 -18 -52 -30 -84 -30c-85 0 -137 55 -137 136c0 107 84 207 219 207zM649 566c-44 0 -86 -37 -86 -134c0 -84 36 -135 96 -135c30 0 47 18 47 44c0 28 -23 43 -57 43h-29v95h23c34 0 53 17 53 46c0 24 -17 41 -47 41z
M445 -77h5c-5 40 -8 96 -9 142c-52 -22 -109 -54 -144 -78z" />
    <glyph glyph-name="bnJ_JHA" horiz-adv-x="1116" 
d="M923 -63c-6 29 -9 95 -9 156v469h-343c19 -53 78 -105 195 -105h33l48 -104c-37 -66 -53 -152 -53 -235v-122l125 -59h4zM794 -225l56 -24l-78 -91l-375 164v132c50 42 163 106 267 137v36c0 74 12 149 41 210c-133 15 -206 92 -235 158c-53 -40 -77 -68 -77 -97
c0 -13 6 -24 39 -28l109 -13c34 -34 62 -80 62 -140c0 -96 -72 -190 -228 -190c-194 0 -326 161 -355 354l127 46c17 -153 100 -275 226 -275c68 0 91 24 91 62c0 19 -6 28 -10 34l-83 10c-90 11 -126 51 -126 113c0 84 61 143 119 189h-384v109h1156v-109h-100v-719
l-112 -36l-130 60v-92zM673 -169c-5 39 -8 93 -9 139c-51 -23 -106 -54 -140 -77l144 -62h5z" />
    <glyph glyph-name="bnC_NYA" horiz-adv-x="1008" 
d="M-20 562v109h1048v-109h-848c12 -21 38 -38 91 -57l42 -15c38 -14 70 -29 93 -51c39 32 91 53 153 53s93 -22 111 -57c21 24 65 57 131 57c89 0 148 -58 148 -135c0 -49 -24 -91 -70 -109v-4c50 -13 82 -54 82 -110c0 -75 -52 -140 -145 -140c-38 0 -96 15 -123 45
c8 -38 9 -82 9 -112v-12h-120c0 74 -48 81 -171 90c-116 9 -171 41 -200 91h-1c-98 0 -145 65 -145 146v320h-85zM181 436h-4s6 -43 6 -113v-77c0 -18 9 -31 33 -31c45 0 116 51 116 117c0 33 -19 46 -56 59l-34 12c-34 12 -48 22 -61 33zM596 80c-11 44 -16 108 -16 158
v116c0 21 -12 32 -35 32c-52 0 -99 -43 -99 -89c0 -21 10 -35 32 -35c17 0 31 8 37 15l37 -85c-20 -19 -59 -26 -91 -26c-30 0 -55 6 -75 17c-13 -15 -28 -30 -45 -42c13 -16 38 -26 93 -29c102 -6 124 -10 157 -32h5zM831 337c0 24 -17 41 -47 41c-44 0 -86 -37 -86 -134
c0 -84 36 -135 96 -135c30 0 47 18 47 44c0 28 -23 43 -57 43h-29v95h23c34 0 53 17 53 46z" />
    <glyph glyph-name="bnK_TTA" horiz-adv-x="724" 
d="M76 954l133 21c-2 -9 -3 -18 -3 -27c0 -40 20 -82 106 -82h120c109 0 205 -59 205 -177c0 -6 0 -12 -1 -18h108v-109h-295v-27c171 -9 233 -95 233 -171c0 -96 -66 -144 -125 -163l-62 100c28 5 64 21 64 63c0 39 -40 55 -110 58v-227c-100 -19 -166 -69 -166 -158
c0 -61 42 -103 124 -103c61 0 99 24 99 58c0 20 -15 33 -39 33c-15 0 -32 -6 -42 -14l-53 105c22 20 58 36 102 36c90 0 164 -57 164 -163c0 -112 -103 -182 -231 -182c-176 0 -260 109 -260 228c0 76 30 133 72 173l-169 73v118c46 46 144 106 270 128v35h-340v109h523v9
c0 54 -33 70 -98 70h-99c-172 0 -232 91 -232 179c0 8 1 17 2 25zM324 283h5c-4 36 -8 84 -9 126c-54 -13 -101 -36 -139 -65z" />
    <glyph glyph-name="bnTT_TTA" horiz-adv-x="657" 
d="M-4 954l133 21c-2 -9 -3 -18 -3 -27c0 -40 20 -82 106 -82h115c109 0 205 -59 205 -177c0 -6 0 -12 -1 -18h126v-109h-403v-288c0 -30 19 -47 54 -47c60 0 119 46 119 102c0 30 -18 45 -44 45c-13 0 -29 -6 -37 -16l-57 107c22 20 66 36 102 36c90 0 168 -56 168 -172
c0 -36 -9 -71 -26 -102c35 -40 53 -90 53 -142c0 -139 -101 -227 -260 -227c-149 0 -270 78 -341 206l99 89c56 -109 132 -170 241 -170c76 0 123 39 123 103c0 18 -3 33 -10 46c-37 -20 -81 -32 -129 -32c-130 0 -189 74 -189 163v299h-160v109h438v9c0 54 -33 70 -98 70
h-94c-172 0 -232 91 -232 179c0 8 1 17 2 25z" />
    <glyph glyph-name="bnNN_TTA" horiz-adv-x="909" 
d="M279 954l133 21c-2 -9 -3 -18 -3 -27c0 -40 20 -82 106 -82h120c109 0 205 -59 205 -177c0 -6 0 -12 -1 -18h90v-109h-367v-348c0 -28 13 -47 45 -47c63 0 128 62 128 124c0 35 -18 50 -44 50c-13 0 -29 -6 -37 -16l-57 107c22 20 66 36 102 36c90 0 168 -56 168 -176
c0 -116 -112 -252 -273 -252c-114 0 -166 74 -166 163v90c0 117 -20 255 -155 255c-70 0 -111 -37 -111 -98c0 -50 33 -82 87 -82c31 0 56 14 74 29l44 -119c-30 -23 -76 -37 -121 -37c-144 0 -221 96 -221 208c0 127 84 221 232 221c76 0 131 -27 167 -68h4v69h278v9
c0 54 -33 70 -98 70h-99c-172 0 -232 91 -232 179c0 8 1 17 2 25z" />
    <glyph glyph-name="bnN_TTA" horiz-adv-x="857" 
d="M224 954l133 21c-2 -9 -3 -18 -3 -27c0 -40 20 -82 106 -82h120c109 0 205 -59 205 -177c0 -6 0 -12 -1 -18h93v-109h-370v-348c0 -28 13 -47 45 -47c63 0 128 62 128 124c0 35 -18 50 -44 50c-13 0 -29 -6 -37 -16l-57 107c22 20 66 36 102 36c90 0 168 -56 168 -176
c0 -116 -112 -252 -273 -252c-90 0 -141 46 -159 109c-25 97 -72 210 -151 210c-31 0 -53 -17 -53 -47c0 -18 8 -32 18 -44l-107 -38c-19 22 -35 52 -35 92c0 91 61 153 163 153c76 0 126 -36 157 -78l4 1c-5 32 -8 76 -8 122v42h-388v109h671v9c0 54 -33 70 -98 70h-99
c-172 0 -232 91 -232 179c0 8 1 17 2 25z" />
    <glyph glyph-name="bnL_TTA" horiz-adv-x="1047" 
d="M419 954l133 21c-2 -9 -3 -18 -3 -27c0 -40 20 -82 106 -82h120c109 0 205 -59 205 -177c0 -6 0 -12 -1 -18h89v-109h-366v-348c0 -28 13 -47 45 -47c63 0 128 62 128 124c0 35 -18 50 -44 50c-13 0 -29 -6 -37 -16l-57 107c22 20 66 36 102 36c90 0 168 -56 168 -176
c0 -116 -112 -252 -273 -252c-114 0 -166 74 -166 163v131c-9 19 -33 35 -63 35c-41 0 -69 -30 -69 -81v-32h-128v32c0 58 -27 78 -61 78s-67 -26 -67 -79c0 -65 47 -104 109 -104c20 0 41 4 58 12l17 -120c-23 -7 -50 -11 -83 -11c-150 0 -239 95 -239 220
c0 130 93 205 192 205c82 0 127 -45 139 -81h4c10 44 54 83 110 83c40 0 68 -16 76 -24h5v95h-588v109h866v9c0 54 -33 70 -98 70h-99c-172 0 -232 91 -232 179c0 8 1 17 2 25z" />
    <glyph glyph-name="bnSS_TTA" horiz-adv-x="581" 
d="M0 954l133 21c-2 -9 -3 -18 -3 -27c0 -40 20 -82 106 -82h80c109 0 205 -59 205 -177c0 -6 0 -12 -1 -18h81v-109h-101c16 -29 24 -64 24 -104c0 -118 -72 -198 -177 -218c-108 -24 -163 -68 -163 -156c0 -65 46 -105 124 -105c61 0 99 24 99 58c0 20 -15 33 -39 33
c-15 0 -32 -6 -42 -14l-53 105c22 20 58 36 102 36c90 0 164 -57 164 -163c0 -112 -103 -182 -231 -182c-176 0 -260 104 -260 230c0 95 42 159 94 199c-51 38 -82 99 -82 177c0 40 8 75 24 104h-104v109h407v9c0 54 -33 70 -98 70h-59c-172 0 -232 91 -232 179
c0 8 1 17 2 25zM292 351c18 0 35 4 50 12l-146 138c-5 -13 -8 -27 -8 -43c0 -62 44 -107 104 -107zM292 565c-17 0 -33 -4 -47 -11l143 -139c5 13 8 27 8 43c0 62 -44 107 -104 107z" />
    <glyph glyph-name="bnP_TTA" horiz-adv-x="970" 
d="M337 954l133 21c-2 -9 -3 -18 -3 -27c0 -40 20 -82 106 -82h120c109 0 205 -59 205 -177c0 -6 0 -12 -1 -18h93v-109h-370v-348c0 -28 13 -47 45 -47c63 0 128 62 128 124c0 35 -18 50 -44 50c-13 0 -29 -6 -37 -16l-57 107c22 20 66 36 102 36c90 0 168 -56 168 -176
c0 -116 -112 -252 -273 -252c-114 0 -166 74 -166 163v102c0 24 -1 48 -5 71l-277 -179l-65 100l84 54c-11 31 -30 56 -56 74c-15 10 -32 18 -55 21l-60 103c49 65 144 131 254 131c112 0 170 -56 200 -95l3 2c-11 26 -16 54 -16 80v4h271v9c0 54 -33 70 -98 70h-99
c-172 0 -232 91 -232 179c0 8 1 17 2 25zM204 529c52 -14 98 -53 121 -113l119 76c-27 44 -68 72 -128 72c-52 0 -88 -18 -112 -35z" />
    <glyph glyph-name="bnPH_TTA" horiz-adv-x="854" 
d="M337 975c-2 -9 -3 -18 -3 -27c0 -40 20 -82 106 -82h120c109 0 205 -59 205 -177c0 -6 0 -12 -1 -18h110v-109h-682v-4l111 -93v-94l-111 -85l195 -90h4c-7 50 -12 140 -12 195v89c38 21 102 38 173 38c116 0 215 -50 215 -180c0 -113 -73 -156 -131 -180l-69 108
c30 8 71 22 71 69c0 42 -30 63 -71 63c-21 0 -39 -3 -51 -7v-441c0 -45 20 -64 63 -64c50 0 110 28 110 78c0 28 -17 41 -44 41c-13 0 -29 -6 -37 -16l-57 107c22 20 66 36 102 36c90 0 168 -52 168 -167c0 -123 -100 -206 -243 -206c-134 0 -196 68 -196 184v124l-330 153
v111l120 91l-120 101v39h-72v109h651v9c0 54 -33 70 -98 70h-99c-172 0 -232 91 -232 179c0 8 1 17 2 25z" />
    <glyph glyph-name="bnS_TTA" horiz-adv-x="736" 
d="M232 975c-2 -9 -3 -18 -3 -27c0 -40 20 -82 106 -82h120c109 0 205 -59 205 -177c0 -6 0 -12 -1 -18h97v-109h-105c4 -20 6 -38 6 -56c0 -78 -40 -135 -110 -155c-91 -26 -217 -69 -217 -179c0 -64 48 -99 124 -99c61 0 99 24 99 58c0 20 -15 33 -39 33
c-15 0 -32 -6 -42 -14l-53 105c22 20 58 36 102 36c90 0 164 -57 164 -163c0 -112 -103 -182 -231 -182c-176 0 -260 108 -260 227c0 115 80 185 153 219c-11 12 -22 28 -31 47c-29 -46 -75 -88 -147 -88c-49 0 -108 21 -147 70l67 86c26 -28 50 -44 80 -44
c48 0 71 39 80 99h-269v109h546v9c0 54 -33 70 -98 70h-99c-172 0 -232 91 -232 179c0 8 1 17 2 25zM530 518c0 19 -3 34 -8 44h-133c4 -59 33 -107 85 -107c39 0 56 29 56 63z" />
    <glyph glyph-name="bnNN_TTHA" horiz-adv-x="922" 
d="M885 237c0 -140 -98 -246 -251 -246c-174 0 -283 133 -283 288c15 4 30 8 44 13c0 108 -14 269 -138 269c-52 0 -89 -29 -89 -84c0 -43 31 -73 77 -73c20 0 41 6 54 14l25 -109c-23 -11 -54 -19 -91 -19c-123 0 -193 86 -193 188c0 115 75 203 216 203
c159 0 262 -119 265 -304c21 28 32 62 32 103v76c-120 108 -126 194 -126 239c0 92 58 162 155 172c5 1 11 1 38 1l26 -120c-6 1 -12 1 -17 1c-43 0 -64 -25 -64 -61c0 -40 17 -76 47 -117h330v-109h-243c97 -105 186 -205 186 -325zM645 350c-31 -80 -94 -122 -138 -137
c6 -36 44 -102 129 -102c66 0 116 52 116 125c0 74 -43 129 -91 188c-2 -28 -8 -53 -16 -74z" />
    <glyph glyph-name="bnN_TTHA" horiz-adv-x="804" 
d="M767 237c0 -140 -98 -246 -251 -246c-174 0 -283 133 -283 288c33 9 63 19 89 32c-34 52 -72 78 -114 78c-32 0 -54 -15 -54 -45c0 -20 8 -34 18 -46l-107 -38c-19 22 -35 52 -35 92c0 91 61 153 163 153c75 0 155 -29 217 -117c16 26 25 57 25 92v76l-5 6h-450v109h372
c-25 36 -43 79 -43 124c0 104 73 180 193 173l26 -120c-54 7 -81 -19 -81 -60c0 -40 17 -76 47 -117h330v-109h-243c97 -105 186 -205 186 -325zM539 372c-25 -99 -101 -142 -150 -159c6 -36 44 -102 129 -102c66 0 116 52 116 125c0 74 -40 125 -88 184
c-1 -17 -3 -33 -7 -48z" />
    <glyph glyph-name="bnSS_TTHA" horiz-adv-x="727" 
d="M27 445c0 -103 49 -178 134 -207c14 -140 119 -247 282 -247c153 0 251 106 251 246c0 120 -89 220 -186 325h239v109h-326c-30 41 -47 77 -47 117c0 41 27 67 81 60l-26 120c-120 7 -193 -69 -193 -173c0 -45 18 -88 43 -124h-299v-109h73c-17 -32 -26 -71 -26 -117z
M307 230c67 14 154 75 165 190c48 -59 89 -110 89 -184c0 -73 -50 -125 -116 -125c-84 0 -127 57 -138 119zM363 455c0 -20 -3 -37 -9 -53l-152 147c16 12 35 19 58 19c63 0 103 -48 103 -113zM160 455c0 11 1 22 3 32l146 -138c-14 -7 -31 -11 -49 -11
c-60 0 -100 48 -100 117z" />
    <glyph glyph-name="bnDD_DDA" horiz-adv-x="1210" 
d="M1230 562h-362v-148c0 -27 11 -33 25 -33c27 0 107 43 168 86c54 -33 100 -106 100 -188c0 -142 -112 -260 -293 -260c-114 0 -207 48 -270 124c-50 -48 -124 -77 -217 -77c-221 0 -349 173 -351 384l131 30c0 -213 109 -290 220 -290c100 0 157 54 157 121
c0 14 -2 24 -8 36c-32 -25 -79 -49 -138 -49c-95 0 -143 61 -143 153v111h-269v109h1250v-109zM868 143c100 0 160 61 160 128c0 14 -3 28 -9 40c-32 -25 -88 -55 -147 -55c-95 0 -143 61 -143 153v153h-341v-106c0 -27 11 -33 25 -33c27 0 98 37 159 80
c60 -41 99 -106 99 -184c0 -14 -1 -28 -3 -42c43 -94 124 -134 200 -134z" />
    <glyph glyph-name="bnNN_DDA" horiz-adv-x="841" 
d="M63 472c0 121 74 204 222 204c89 0 156 -31 201 -94c19 29 37 59 54 89h67c76 -43 153 -119 153 -214c0 -49 -12 -93 -44 -135c37 -34 65 -83 65 -141c0 -174 -151 -251 -310 -251c-213 0 -356 103 -442 265l112 74c78 -150 201 -211 332 -211c108 0 171 54 171 123
c0 22 -6 43 -18 60c-25 -17 -55 -33 -89 -48l-75 110c101 36 169 88 169 157c0 28 -17 53 -35 68c-13 -22 -39 -65 -62 -93h-87c-14 63 -61 119 -146 119c-62 0 -101 -29 -101 -84c0 -50 35 -79 87 -79c31 0 57 11 75 26l43 -116c-30 -23 -77 -37 -122 -37
c-144 0 -220 93 -220 208z" />
    <glyph glyph-name="bnN_DDA" horiz-adv-x="826" 
d="M-20 562v109h866v-109h-344v-217c0 -27 11 -33 25 -33c27 0 107 43 168 86c54 -33 100 -106 100 -188c0 -142 -112 -260 -293 -260c-164 0 -302 105 -362 238l106 83c66 -146 163 -197 256 -197c100 0 160 61 160 128c0 14 -3 28 -9 40c-32 -25 -88 -55 -147 -55
c-55 0 -95 21 -118 56c-52 81 -107 156 -177 156c-32 0 -53 -17 -53 -45c0 -20 8 -34 18 -46l-108 -39c-19 22 -34 53 -34 93c0 91 61 153 163 153c82 0 141 -39 175 -84l4 1c-5 32 -8 76 -8 122v8h-388z" />
    <glyph glyph-name="bnB_DDA" horiz-adv-x="779" 
d="M799 562h-348v-267c0 -27 11 -33 25 -33c27 0 107 43 168 86c54 -33 100 -106 100 -188c0 -142 -112 -260 -293 -260c-145 0 -278 84 -347 194l96 92c65 -120 166 -162 251 -162c100 0 160 61 160 128c0 14 -2 26 -8 38c-32 -25 -89 -53 -137 -53c-26 0 -48 4 -67 11
l-354 132v118c48 43 150 117 274 151v13h-339v109h819v-109zM319 302v129c-51 -19 -111 -56 -142 -78z" />
    <glyph glyph-name="bnL_DDA" horiz-adv-x="966" 
d="M986 562h-340v-191c0 -27 11 -33 25 -33c27 0 107 43 168 86c54 -33 100 -106 100 -188c0 -142 -112 -260 -293 -260c-144 0 -252 76 -312 187l103 91c42 -106 129 -154 209 -154c100 0 160 61 160 128c0 14 -3 28 -9 40c-32 -25 -88 -55 -147 -55
c-90 0 -137 54 -143 138c-8 18 -31 33 -57 33c-38 0 -63 -29 -63 -77v-31h-117v31c0 55 -26 74 -56 74c-35 0 -62 -25 -62 -79c0 -62 33 -95 88 -95c14 0 19 0 32 2l10 -112c-13 -3 -34 -4 -49 -4c-136 0 -206 87 -206 207c0 126 84 198 175 198c75 0 112 -42 126 -77h5
c10 42 50 79 101 79c36 0 61 -15 69 -24h4v86h-527v109h1006v-109z" />
    <glyph glyph-name="bnNN_DDHA" horiz-adv-x="909" 
d="M562 562v-348c0 -28 13 -47 45 -47c63 0 128 62 128 124c0 35 -18 50 -44 50c-13 0 -29 -6 -37 -16l-57 107c22 20 66 36 102 36c90 0 168 -56 168 -176c0 -116 -112 -252 -273 -252c-114 0 -166 74 -166 163v90c0 117 -18 255 -153 255c-75 0 -113 -40 -113 -101
c0 -47 33 -80 87 -80c31 0 56 14 74 29l44 -119c-30 -23 -76 -37 -121 -37c-144 0 -221 96 -221 209c0 127 84 221 232 221c76 0 131 -27 167 -68h4v69h501v-109h-367z" />
    <glyph glyph-name="bnN_DDHA" horiz-adv-x="860" 
d="M-20 562v109h900v-109h-378v-358c0 -28 15 -47 50 -47c63 0 134 60 134 130c0 35 -17 54 -42 54c-17 0 -33 -10 -42 -21l-57 108c22 19 57 40 105 40c90 0 168 -65 168 -181c0 -129 -112 -257 -267 -257c-129 0 -183 74 -183 163v5c-40 99 -91 176 -157 176
c-31 0 -53 -17 -53 -47c0 -18 8 -32 18 -44l-107 -38c-19 22 -35 52 -35 92c0 91 61 153 163 153c82 0 144 -47 175 -98l4 1c-5 32 -8 76 -8 122v47h-388z" />
    <glyph glyph-name="bnB_DDHA" horiz-adv-x="807" 
d="M827 562h-374v-388c0 -28 15 -47 50 -47c63 0 134 60 134 130c0 35 -17 54 -42 54c-17 0 -33 -10 -42 -21l-57 108c22 19 57 40 105 40c90 0 168 -65 168 -181c0 -129 -112 -257 -267 -257c-100 0 -152 44 -170 106l-296 160v108c54 52 177 134 288 171v17h-344v109h847
v-109zM324 250v166c-48 -22 -107 -55 -150 -87z" />
    <glyph glyph-name="bnNN_NNA" horiz-adv-x="677" 
d="M455 401c-14 86 -48 157 -152 157c-75 0 -113 -40 -113 -101c0 -36 18 -69 53 -88c14 2 27 3 42 3c94 0 150 -42 184 -89l5 3c-9 31 -12 71 -19 115zM597 -70h-141v65c0 117 -21 255 -156 255c-69 0 -110 -38 -110 -99c0 -50 33 -82 87 -82c31 0 56 14 74 29l44 -119
c-30 -23 -76 -37 -121 -37c-144 0 -221 96 -221 209c0 64 21 120 62 159c-39 34 -62 85 -62 149c0 127 84 221 232 221c94 0 156 -42 190 -89l5 3c-20 46 -20 96 -20 159v20h137v-102h100v-109h-100v-632z" />
    <glyph glyph-name="bnH_NNA" horiz-adv-x="608" 
d="M131 239h54c110 0 187 33 187 106c0 45 -29 72 -72 72c-33 0 -55 -19 -55 -46c0 -15 7 -28 20 -36l-87 -66c-44 23 -64 64 -64 106c0 94 77 155 187 155c116 0 195 -75 195 -185c0 -104 -67 -149 -134 -167v-4c42 -10 80 -19 145 -45l113 -46l-68 -97
c-19 7 -36 14 -53 21v-354h-128v37c0 107 -10 233 -126 233c-46 0 -83 -27 -83 -79c0 -46 34 -66 72 -66c21 0 40 5 55 13l24 -110c-25 -11 -50 -17 -86 -17c-124 0 -190 78 -190 181c0 112 68 189 183 189c85 0 141 -39 168 -84l4 2c-12 32 -16 70 -17 103
c-143 53 -184 61 -244 66v118zM627 562h-647v109h647v-109z" />
    <glyph glyph-name="bnSS_NNA" horiz-adv-x="858" 
d="M570 75l-87 -91l-439 236v111l120 111l-120 81v39h-64v109h543v-50c29 25 69 39 120 39c108 0 168 -66 168 -150c0 -54 -31 -97 -80 -115v-5c54 -14 94 -55 94 -118c0 -75 -56 -154 -165 -154c-60 0 -105 16 -137 45v-63zM184 558l202 -132v136h-202v-4zM678 499
c0 28 -19 45 -52 45c-50 0 -102 -47 -102 -154c0 -94 46 -153 114 -153c29 0 53 16 53 47c0 35 -30 52 -75 52h-26v108h26c41 0 62 21 62 55zM398 169c-5 32 -8 81 -10 127l-115 75l-93 -87l214 -115h4z" />
    <glyph glyph-name="bnK_SS_NNA" horiz-adv-x="973" 
d="M576 172c-7 46 -12 105 -13 156h-30c-132 0 -196 61 -196 195v39h-147c19 -30 33 -68 36 -110c75 -27 143 -95 157 -191c98 -11 167 -55 193 -89zM524 449h38v113h-96v-44c0 -61 28 -69 58 -69zM993 562h-295v-112h10c150 0 214 -80 214 -181c0 -97 -66 -151 -123 -171
l-67 101c28 7 64 33 64 72c0 43 -28 58 -80 58h-18v-676h-128v37c0 107 -10 233 -126 233c-46 0 -83 -27 -83 -79c0 -46 34 -66 72 -66c21 0 40 5 55 13l24 -110c-25 -11 -50 -17 -86 -17c-124 0 -190 78 -190 181c0 112 68 189 183 189c85 0 141 -39 168 -84l4 2
c-5 15 -9 31 -12 47c-37 76 -114 136 -204 151c-21 -60 -67 -87 -108 -87c-48 0 -90 30 -90 86c0 45 34 84 86 103c-9 37 -29 66 -57 86c-23 -45 -62 -65 -98 -65c-48 0 -90 30 -90 86c0 49 34 86 85 101c-8 44 -30 77 -55 102h-68v109h1013v-109z" />
    <glyph glyph-name="bnK_TA" horiz-adv-x="979" 
d="M999 562h-1019v109h1019v-109zM354 229c104 37 158 80 158 129c0 30 -20 50 -58 50c-59 0 -100 -58 -110 -97l-106 67c27 89 111 151 214 151c82 0 137 -34 165 -83c43 43 97 59 149 59c109 0 196 -78 196 -191c0 -105 -73 -182 -171 -182c-36 0 -64 7 -86 18l23 107
c11 -5 30 -8 43 -8c44 0 64 30 64 65c0 45 -33 70 -77 70c-52 0 -98 -44 -141 -120c-5 -8 -10 -16 -16 -23c39 -31 70 -75 70 -137c0 -127 -99 -206 -242 -206c-246 0 -362 235 -419 485l122 50c50 -232 146 -407 297 -407c67 0 105 37 105 84c0 19 -9 40 -26 56
c-20 -11 -43 -22 -68 -33z" />
    <glyph glyph-name="bnT_TA" horiz-adv-x="714" 
d="M734 562h-754v109h754v-109zM349 229c104 37 158 80 158 129c0 30 -20 50 -58 50c-59 0 -100 -58 -110 -97l-106 67c27 89 111 151 214 151c127 0 189 -82 189 -175c0 -38 -11 -74 -36 -108c43 -30 78 -76 78 -142c0 -127 -99 -206 -238 -206c-250 0 -366 235 -423 485
l122 50c50 -232 146 -407 297 -407c67 0 105 37 105 84c0 21 -11 44 -31 60c-21 -13 -46 -25 -75 -37z" />
    <glyph glyph-name="bnN_TA" horiz-adv-x="638" 
d="M-20 671h678v-109h-86c10 -16 19 -41 19 -79c0 -35 -10 -78 -40 -109c32 -37 49 -88 49 -144c0 -149 -103 -246 -256 -246c-146 0 -242 92 -302 200l98 71c46 -96 114 -157 203 -157c85 0 133 56 133 134c0 51 -20 90 -60 90c-22 0 -41 -15 -41 -39c0 -20 13 -39 36 -46
l-78 -74c-49 19 -84 69 -84 130c0 31 9 59 25 81c-28 16 -53 29 -79 29c-33 0 -49 -20 -49 -45c0 -20 8 -34 18 -46l-109 -38c-18 18 -35 52 -35 94c0 85 51 155 159 155c109 0 164 -73 226 -73c39 0 58 24 58 56s-20 56 -58 56h-425v109z" />
    <glyph glyph-name="bnP_TA" horiz-adv-x="707" 
d="M187 529c49 -14 92 -48 116 -102l120 81c-29 35 -70 56 -124 56c-52 0 -88 -18 -112 -35zM428 -143c-164 0 -282 112 -347 259l110 70c56 -135 131 -209 236 -209c86 0 135 52 135 131c0 52 -20 91 -62 91c-22 0 -41 -15 -41 -39c0 -20 14 -39 37 -47l-80 -75
c-50 24 -85 70 -85 132c0 82 62 142 148 148c-1 29 -4 57 -9 83l-278 -193l-67 99l79 53c-13 35 -37 66 -80 80c-12 4 -26 7 -42 8l-64 94c49 68 145 138 271 138c112 0 180 -56 210 -95l3 2c-25 74 -25 127 -25 163v23h140v-102h110v-109h-110v-287c47 -39 72 -101 72 -169
c0 -151 -106 -249 -261 -249z" />
    <glyph glyph-name="bnM_TA" horiz-adv-x="640" 
d="M-20 671h679v-109h-77c10 -16 19 -41 19 -79c0 -36 -11 -80 -42 -112c30 -36 46 -86 46 -140c0 -149 -103 -246 -256 -246c-143 0 -247 89 -308 215l101 72c48 -113 118 -173 206 -173c82 0 133 56 133 134c0 51 -20 90 -60 90c-22 0 -41 -15 -41 -42
c0 -17 10 -35 32 -47l-76 -72c-48 27 -82 71 -82 132c0 32 10 60 26 83c-26 14 -50 26 -75 26c-33 0 -49 -20 -49 -45c0 -20 8 -34 18 -46l-109 -38c-18 18 -35 52 -35 94c0 60 26 113 79 139c-3 21 -9 39 -19 55h-110v109zM415 450c39 0 58 24 58 56s-20 56 -58 56h-183
c5 -14 8 -29 11 -45c75 -18 121 -67 172 -67z" />
    <glyph glyph-name="bnL_TA" horiz-adv-x="783" 
d="M508 -140c-116 0 -206 55 -266 133l79 92c45 -71 111 -111 186 -111c85 0 133 56 133 134c0 51 -20 90 -60 90c-22 0 -41 -15 -41 -39c0 -20 13 -39 36 -46l-78 -74c-49 19 -84 69 -84 130c0 65 40 114 99 134v53c-7 14 -28 33 -54 33c-35 0 -54 -29 -54 -77v-21h-121v21
c0 51 -23 74 -58 74c-36 0 -58 -29 -58 -76c0 -58 42 -81 81 -81c16 0 34 3 48 8l17 -121c-20 -7 -45 -10 -71 -10c-122 0 -202 83 -202 204s81 200 174 200c75 0 113 -38 130 -71h4c14 39 47 71 94 71c33 0 54 -17 66 -30h4v82h-532v109h823v-109h-156v-264
c76 -30 117 -104 117 -192c0 -149 -103 -246 -256 -246z" />
    <glyph glyph-name="bnSH_TA" horiz-adv-x="817" 
d="M78 562h-98v109h105c67 0 122 -25 159 -66c37 43 91 69 158 69c79 0 119 -37 128 -47h4c-8 31 -14 80 -14 114v32h134v-102h183v-109h-183v-255c93 -25 144 -109 144 -210c0 -158 -109 -260 -271 -260c-187 0 -313 143 -377 317l111 78c59 -174 143 -270 265 -270
c90 0 141 54 141 137c0 54 -21 95 -64 95c-23 0 -43 -16 -43 -41c0 -21 14 -41 38 -49l-83 -78c-51 20 -89 73 -89 138c0 63 35 112 90 136v128c0 82 -47 122 -109 122c-53 0 -94 -37 -94 -95c0 -57 41 -94 94 -94c8 0 15 1 22 2v-122c-8 -1 -18 -2 -30 -2
c-60 0 -115 26 -153 68c-38 -44 -94 -71 -155 -71c-34 0 -61 10 -61 10v120c14 -5 33 -8 53 -8c53 0 94 38 94 94c0 61 -33 110 -99 110z" />
    <glyph glyph-name="bnS_TA" horiz-adv-x="736" 
d="M89 501c26 -28 50 -44 80 -44c48 0 71 45 80 105h-269v109h776v-109h-105c4 -20 6 -38 6 -56c0 -46 -14 -85 -40 -113c34 -37 52 -89 52 -147c0 -149 -103 -246 -256 -246c-166 0 -268 119 -325 246l101 72c45 -122 120 -204 223 -204c85 0 133 56 133 134
c0 51 -20 90 -60 90c-22 0 -41 -15 -41 -39c0 -20 13 -39 36 -46l-78 -74c-49 19 -84 69 -84 130c0 33 10 61 28 84c-11 13 -21 28 -30 46c-26 -57 -75 -94 -147 -94c-49 0 -108 21 -147 70zM530 518c0 19 -3 34 -8 44h-133c4 -59 33 -107 85 -107c39 0 56 29 56 63z" />
    <glyph glyph-name="bnT_THA" horiz-adv-x="862" 
d="M463 431c0 37 -9 60 -20 77c-16 -27 -38 -62 -55 -87h-88c0 81 -19 134 -74 134c-40 0 -62 -36 -62 -75c0 -47 28 -69 64 -69c13 0 27 3 38 10l20 -108c-22 -13 -51 -18 -78 -18c-96 0 -171 65 -171 185c0 115 67 198 179 198c54 0 113 -25 143 -87c20 29 39 59 51 80h58
c73 -55 126 -130 126 -241c0 -150 -82 -234 -237 -276v-4l290 -95h4c-6 50 -8 122 -8 175v543h139v-102h100v-109h-100v-552l55 -19l-85 -100l-637 211v128c253 7 348 87 348 201z" />
    <glyph glyph-name="bnN_THA" horiz-adv-x="640" 
d="M-20 671h679v-109h-77c10 -16 19 -41 19 -79c0 -36 -10 -79 -41 -111c26 -35 41 -80 41 -131c0 -118 -81 -178 -178 -192v-4c40 -9 69 -20 135 -58l72 -42l-92 -93c-214 130 -239 151 -334 158v110h68c120 0 194 42 194 121c0 49 -26 84 -73 84c-29 0 -50 -17 -50 -45
c0 -21 12 -38 39 -48l-92 -69c-58 22 -85 72 -85 129c0 39 14 74 41 102c-14 5 -27 9 -41 9c-33 0 -49 -20 -49 -45c0 -20 8 -34 18 -46l-109 -38c-18 18 -35 52 -35 94c0 85 51 155 159 155c109 0 164 -73 226 -73c39 0 58 24 58 56s-20 56 -58 56h-435v109z" />
    <glyph glyph-name="bnM_THA" horiz-adv-x="640" 
d="M-20 671h679v-109h-77c10 -16 19 -41 19 -79c0 -36 -10 -79 -41 -111c26 -35 41 -80 41 -131c0 -118 -81 -178 -178 -192v-4c40 -9 69 -20 135 -58l72 -42l-92 -93c-214 130 -239 151 -334 158v110h68c120 0 194 42 194 121c0 49 -26 84 -73 84c-29 0 -50 -17 -50 -45
c0 -21 12 -38 39 -48l-92 -69c-58 22 -85 72 -85 129c0 39 14 74 41 102c-14 5 -27 9 -41 9c-33 0 -49 -20 -49 -45c0 -20 8 -34 18 -46l-109 -38c-18 18 -35 52 -35 94c0 64 29 119 89 143c-4 19 -10 37 -19 51h-120v109zM415 450c39 0 58 24 58 56s-20 56 -58 56h-173
c5 -15 9 -31 12 -48c68 -20 113 -64 161 -64z" />
    <glyph glyph-name="bnS_THA" horiz-adv-x="718" 
d="M76 501c26 -28 50 -44 80 -44c48 0 71 45 80 105h-256v109h758v-109h-100c4 -20 6 -38 6 -56c0 -43 -12 -80 -35 -107c42 -37 66 -93 66 -158c0 -118 -81 -178 -178 -192v-4c40 -9 69 -20 135 -58l72 -42l-92 -93c-214 130 -239 151 -334 158v110h68
c120 0 194 42 194 121c0 49 -26 84 -73 84c-29 0 -50 -17 -50 -45c0 -21 12 -38 39 -48l-92 -69c-58 22 -85 72 -85 129c0 42 17 80 48 108c-9 11 -17 24 -24 39c-26 -57 -75 -94 -147 -94c-49 0 -108 21 -147 70zM517 518c0 19 -3 34 -8 44h-133c4 -59 33 -107 85 -107
c39 0 56 29 56 63z" />
    <glyph glyph-name="bnG_DA" horiz-adv-x="932" 
d="M434 671h518v-109h-391v-209c46 54 133 115 217 145l106 -62c-31 -81 -41 -193 -41 -284v-152h-140v151c0 91 18 155 34 191c-56 -36 -138 -120 -184 -197l-132 48v198c0 108 -54 166 -147 166c-47 0 -88 -18 -115 -44c17 4 35 5 49 5c70 0 142 -44 142 -135
c0 -70 -45 -140 -121 -195l-95 94c54 34 85 71 85 106c0 24 -19 46 -61 46c-15 0 -36 -3 -54 -8l-90 98c40 70 129 154 253 154c79 0 134 -29 172 -69h4c-7 18 -9 38 -9 58v4z" />
    <glyph glyph-name="bnD_DA" horiz-adv-x="862" 
d="M495 245v-7c46 54 135 131 219 161l106 -62c-31 -81 -41 -193 -41 -284v-152h-140v151c0 91 11 150 27 186c-56 -36 -131 -115 -177 -192l-132 48v77c0 91 10 148 23 183c-56 -36 -127 -112 -173 -189l-132 48v349h-95v109h903v-109h-668v-189c46 54 133 115 217 145
l108 -62c-22 -56 -45 -149 -45 -211z" />
    <glyph glyph-name="bnN_DA" horiz-adv-x="877" 
d="M897 562h-389v-209c46 54 133 115 217 145l106 -62c-31 -81 -41 -193 -41 -284v-152h-140v151c0 91 18 155 34 191c-56 -36 -138 -120 -184 -197l-132 48c-37 90 -91 166 -157 166c-31 0 -53 -17 -53 -47c0 -18 8 -32 18 -44l-107 -38c-19 22 -35 52 -35 92
c0 91 61 153 163 153c82 0 144 -41 175 -92l4 1c-5 32 -8 76 -8 122v56h-388v109h917v-109z" />
    <glyph glyph-name="bnB_DA" horiz-adv-x="853" 
d="M753 0h-132v162c0 56 10 124 26 160c-56 -36 -138 -140 -184 -217l-412 170v98c36 38 143 121 280 163v26h-351v109h893v-109h-402v-242c46 54 133 128 217 158l106 -62c-31 -81 -41 -163 -41 -254v-162zM331 286v131c-49 -21 -104 -55 -131 -76z" />
    <glyph glyph-name="bnM_DA" horiz-adv-x="865" 
d="M-20 671h905v-109h-306c10 -16 19 -41 19 -79c0 -59 -28 -136 -126 -153v-78c50 46 139 109 223 139l106 -62c-31 -81 -41 -163 -41 -254v-142h-132v142c0 56 6 114 22 150c-56 -36 -115 -89 -186 -171l-132 48v247c-52 22 -89 54 -130 54c-33 0 -49 -20 -49 -45
c0 -20 8 -34 18 -46l-109 -38c-18 18 -35 52 -35 94c0 64 29 120 90 143c-4 19 -10 37 -19 51h-118v109zM412 450c39 0 58 24 58 56s-20 56 -58 56h-172c5 -15 9 -31 12 -48c68 -20 112 -64 160 -64z" />
    <glyph glyph-name="bnL_DA" horiz-adv-x="1088" 
d="M984 0h-132v182c0 56 10 124 26 160c-56 -36 -138 -120 -184 -197l-132 48v141c-9 19 -32 35 -58 35c-41 0 -64 -32 -64 -81v-32h-128v32c0 58 -27 78 -61 78s-64 -26 -64 -84c0 -60 32 -99 94 -99c20 0 41 4 58 12l17 -120c-23 -7 -50 -11 -83 -11
c-150 0 -224 95 -224 220c0 130 90 205 189 205c78 0 120 -38 139 -77h4c13 44 49 79 105 79c35 0 60 -15 71 -24h5v95h-582v109h1128v-109h-406v-209c46 54 133 115 217 145l106 -62c-31 -81 -41 -163 -41 -254v-182z" />
    <glyph glyph-name="bnG_DHA" horiz-adv-x="829" 
d="M536 773v-102h313v-109h-313v-263c100 42 159 58 159 58l90 -79s-20 -46 -20 -219v-108h-127v109c0 72 7 119 17 150c-27 -10 -67 -26 -119 -49v-242l51 -22l-75 -88l-375 164v119c100 62 191 111 270 149v150c0 108 -51 166 -144 166c-47 0 -88 -18 -115 -44
c17 4 35 5 49 5c81 0 143 -53 143 -144c0 -64 -32 -132 -103 -185l-106 84c44 31 77 63 77 103c0 24 -21 43 -63 43c-15 0 -34 -2 -52 -7l-90 112c40 70 129 154 253 154c79 0 134 -29 172 -69h4c-16 44 -23 96 -23 146v18h127zM411 -26h5c-4 36 -8 84 -9 127
c-40 -20 -85 -42 -133 -68z" />
    <glyph glyph-name="bnN_DHA" horiz-adv-x="798" 
d="M-20 562v109h838v-109h-316v-165c100 42 159 58 159 58l90 -79s-20 -46 -20 -219v-108h-127v109c0 72 7 119 17 150c-27 -10 -67 -26 -119 -49v-242l51 -22l-75 -88l-375 164v119c81 51 157 93 225 127c-35 42 -73 72 -117 72c-32 0 -53 -17 -53 -45c0 -20 8 -34 18 -46
l-108 -39c-19 22 -34 53 -34 93c0 91 61 153 163 153c82 0 141 -39 175 -84l4 1c-5 32 -8 76 -8 122v18h-388zM377 72h5c-4 36 -8 84 -9 127c-40 -20 -85 -42 -133 -68z" />
    <glyph glyph-name="bnD_DHA" horiz-adv-x="778" 
d="M798 562h-603v-173c63 49 141 91 217 119l101 -62c-17 -45 -28 -99 -34 -154c95 39 152 55 152 55l90 -79s-20 -46 -20 -219v-128h-127v129c0 72 7 119 17 150c-27 -10 -67 -26 -119 -49v-242l51 -22l-75 -88l-375 164v119c101 63 194 112 274 151c4 54 13 93 24 119
c-62 -36 -107 -66 -184 -137l-127 47v300h-80v109h818v-109zM347 -36h5c-4 36 -8 84 -9 127c-40 -20 -85 -42 -133 -68z" />
    <glyph glyph-name="bnB_DHA" horiz-adv-x="772" 
d="M-20 562v109h812v-109h-316v-268c95 39 157 59 157 59l90 -79s-20 -46 -20 -219v-108h-127v109c0 74 2 119 8 148c-26 -10 -62 -25 -108 -46v-257l50 -19l-78 -93l-393 147v138c55 35 109 67 161 96l-161 60v129c91 72 196 130 292 168v35h-367zM356 -52
c-5 43 -9 103 -9 149c-48 -24 -103 -52 -163 -85l167 -64h5zM356 242c-5 43 -9 103 -9 151v5c-59 -30 -123 -68 -160 -94l164 -62h5z" />
    <glyph glyph-name="bnL_DHA" horiz-adv-x="969" 
d="M-20 562v109h1009v-109h-308v-199c96 40 158 60 158 60l90 -79s-20 -46 -20 -219v-108h-127v109c0 74 2 118 8 147c-26 -10 -62 -25 -109 -45v-257l51 -22l-82 -94l-368 162v139c94 60 188 109 270 149v49c-9 19 -32 34 -61 34c-40 0 -68 -29 -68 -79v-31h-124v31
c0 54 -28 76 -61 76c-37 0 -64 -28 -64 -80c0 -57 28 -81 65 -92l-46 -113c-96 24 -153 101 -153 206c0 126 91 199 187 199c80 0 123 -44 135 -79h4c10 43 53 81 107 81c39 0 66 -16 74 -23h5v78h-572zM561 26c-5 40 -8 94 -9 140c-43 -21 -92 -46 -145 -75l149 -65h5z" />
    <glyph glyph-name="bnK_NA" horiz-adv-x="727" 
d="M747 562h-293v-21c171 -11 233 -117 233 -197c0 -92 -60 -145 -125 -171l-62 100c30 10 64 33 64 75c0 39 -40 72 -110 79v-546h-124c-32 67 -68 138 -135 138c-27 0 -49 -13 -49 -45c0 -12 5 -24 14 -35l-112 -35c-14 22 -25 53 -25 89c0 84 64 146 154 146
c73 0 128 -36 157 -80l4 1c-4 21 -9 51 -11 81l-272 120v124c46 46 144 119 270 146v31h-345v109h767v-109zM334 268c-5 41 -9 96 -9 143c-56 -19 -106 -49 -145 -78l149 -65h5z" />
    <glyph glyph-name="bnG_NA" horiz-adv-x="616" 
d="M536 773v-102h100v-109h-100v-652h-121c-32 67 -68 138 -135 138c-27 0 -49 -13 -49 -45c0 -12 5 -24 14 -35l-112 -35c-14 22 -25 53 -25 89c0 84 64 146 154 146c73 0 128 -36 157 -80l4 1c-6 30 -13 76 -13 119v183c0 108 -54 166 -147 166c-47 0 -85 -13 -119 -44
c17 4 39 5 47 5c98 0 153 -57 153 -148c0 -64 -34 -136 -110 -186l-102 83c55 32 81 72 81 108c0 28 -22 46 -67 46c-18 0 -35 -3 -53 -8l-90 111c43 79 129 154 253 154c79 0 134 -29 172 -69h4c-16 44 -23 96 -23 146v18h127z" />
    <glyph glyph-name="bnGH_NA" horiz-adv-x="616" 
d="M412 -139c-32 67 -83 143 -150 143c-28 0 -51 -13 -51 -45c0 -12 4 -25 13 -36l-111 -34c-14 22 -25 53 -25 89c0 87 69 146 159 146c80 0 136 -40 169 -85l4 1c-4 21 -9 51 -11 81l-354 108v115l25 15c40 25 76 35 76 35v5c-55 10 -111 40 -111 113c0 19 4 36 11 50h-76
v109h656v-109h-100v-701h-124zM413 247l3 2c-6 32 -10 82 -10 137v176h-213c-7 -12 -11 -25 -11 -39c0 -36 32 -53 65 -53c18 0 45 5 77 27l51 -109l-148 -84z" />
    <glyph glyph-name="bnC_NA" horiz-adv-x="520" 
d="M540 562h-337c12 -20 42 -31 106 -54l29 -10c95 -33 143 -75 143 -166c0 -39 -10 -74 -29 -104v-387h-125c-31 63 -78 138 -141 138c-25 0 -44 -14 -44 -42c0 -14 6 -27 15 -38l-109 -36c-16 21 -30 53 -30 89c0 79 56 147 150 147c73 0 134 -38 163 -82l4 1
c-5 30 -13 71 -13 113v4c-22 -6 -46 -9 -71 -9c-115 0 -181 62 -181 168v268h-90v109h560v-109zM201 429h-4s7 -40 7 -122v-16c0 -31 14 -46 48 -46c51 0 99 41 99 86c0 33 -18 39 -56 52l-20 7c-39 14 -59 26 -74 39z" />
    <glyph glyph-name="bnD_NA" horiz-adv-x="532" 
d="M552 562h-354v-152c41 35 116 77 190 102l96 -61c-27 -70 -27 -132 -27 -209v-298h-122c-31 63 -78 138 -141 138c-25 0 -44 -14 -44 -42c0 -14 6 -27 15 -38l-109 -36c-16 21 -30 53 -30 89c0 79 56 147 150 147c73 0 134 -38 163 -82l4 1c-5 30 -13 71 -13 113v9
c0 47 7 97 21 128c-49 -31 -108 -71 -161 -121l-125 42v270h-85v109h572v-109z" />
    <glyph glyph-name="bnDH_NA" horiz-adv-x="580" 
d="M161 519c0 -36 37 -49 67 -49c49 0 98 27 141 55v146h231v-109h-100v-695h-125c-31 63 -91 138 -159 138c-25 0 -46 -14 -46 -42c0 -14 6 -27 15 -38l-109 -36c-16 21 -30 53 -30 89c0 79 56 147 150 147c73 0 142 -37 183 -94l4 1c-4 25 -10 56 -12 90l-330 103v120
l18 10c41 23 76 35 76 35v5c-55 10 -111 51 -111 128c0 99 72 162 174 162c39 0 84 -9 113 -32l-34 -102c-23 13 -44 17 -61 17c-30 0 -55 -15 -55 -49zM376 249l3 2c-6 32 -10 82 -10 132l-163 -83z" />
    <glyph glyph-name="bnT_NA" horiz-adv-x="668" 
d="M-20 671h708v-109h-708v109zM136 494c38 -161 116 -299 243 -299c86 0 129 60 129 131c0 51 -20 88 -60 88c-22 0 -41 -16 -41 -41c0 -20 13 -37 36 -44l-78 -74c-49 19 -84 69 -84 130c0 84 67 143 157 143c124 0 194 -90 194 -204c0 -82 -31 -148 -85 -191v-335h-125
c-31 63 -91 138 -159 138c-25 0 -46 -14 -46 -42c0 -14 6 -27 15 -38l-109 -36c-16 21 -30 53 -30 89c0 79 56 147 150 147c73 0 142 -37 183 -94l4 1c-5 30 -13 71 -13 113v7c-12 -1 -24 -2 -37 -2c-211 0 -312 192 -354 347z" />
    <glyph glyph-name="bnN_NA" horiz-adv-x="583" 
d="M-20 562v109h623v-109h-101v-586h-114c-52 81 -107 156 -177 156c-32 0 -53 -17 -53 -45c0 -20 8 -34 18 -46l-108 -39c-19 22 -34 53 -34 93c0 91 64 153 166 153c82 0 142 -39 176 -84l4 1c-4 25 -7 57 -8 92c-47 71 -98 132 -161 132c-32 0 -53 -17 -53 -45
c0 -20 8 -34 18 -46l-108 -39c-19 22 -34 53 -34 93c0 91 64 153 166 153c82 0 142 -39 176 -84l4 1c-5 32 -8 76 -8 122v18h-392z" />
    <glyph glyph-name="bnP_NA" horiz-adv-x="666" 
d="M175 529c44 -12 83 -41 108 -85l114 73c-27 29 -63 47 -110 47c-52 0 -88 -18 -112 -35zM83 446l-60 103c49 65 144 131 254 131c112 0 170 -56 200 -95l3 2c-24 59 -25 127 -25 163v23h131v-102h100v-109h-100v-595h-114c-52 81 -107 156 -177 156
c-32 0 -53 -17 -53 -45c0 -20 8 -34 18 -46l-108 -39c-19 22 -34 53 -34 93c0 91 64 153 166 153c82 0 142 -39 176 -84l4 1c-5 32 -7 76 -7 122v27c0 36 -3 72 -10 104l-282 -182l-65 100l81 52c-11 18 -25 34 -43 46c-15 10 -32 18 -55 21z" />
    <glyph glyph-name="bnM_NA" horiz-adv-x="640" 
d="M-20 671h679v-109h-77c10 -16 19 -41 19 -79c0 -43 -15 -97 -63 -129v-354h-124c-25 63 -80 154 -155 154c-27 0 -50 -14 -50 -42c0 -14 6 -27 15 -38l-109 -36c-16 21 -30 53 -30 89c0 79 61 147 155 147c73 0 135 -31 178 -88l4 1c-6 30 -13 71 -13 113v28
c-95 11 -146 75 -204 75c-33 0 -49 -20 -49 -45c0 -20 8 -34 18 -46l-109 -38c-18 18 -35 52 -35 94c0 64 29 119 89 143c-4 19 -10 37 -19 51h-120v109zM415 450c39 0 58 24 58 56s-20 56 -58 56h-173c5 -15 9 -31 12 -48c68 -20 113 -64 161 -64z" />
    <glyph glyph-name="bnSH_NA" horiz-adv-x="657" 
d="M30 291v111c12 -2 24 -3 38 -3c53 0 87 24 87 82c0 53 -29 81 -92 81h-83v109h90c61 0 109 -18 145 -51c34 34 76 54 131 54c69 0 101 -28 115 -43h4c-7 28 -13 75 -13 105v37h125v-102h100v-109h-100v-572h-124c-31 63 -91 138 -159 138c-25 0 -46 -14 -46 -42
c0 -14 6 -27 15 -38l-109 -36c-16 21 -30 53 -30 89c0 79 56 147 150 147c73 0 142 -37 183 -94l4 1c-5 30 -13 71 -13 113v181c0 77 -35 112 -92 112c-50 0 -81 -27 -81 -81c0 -52 39 -79 88 -79c10 0 20 1 30 3v-112c-8 -2 -21 -4 -37 -4c-55 0 -105 21 -140 57
c-37 -38 -86 -60 -141 -60c-18 0 -34 3 -45 6z" />
    <glyph glyph-name="bnS_NA" horiz-adv-x="689" 
d="M80 501c26 -28 50 -44 80 -44c48 0 71 45 80 105h-260v109h729v-109h-67c4 -20 6 -38 6 -56c0 -68 -30 -119 -84 -145v-361h-124c-31 63 -91 165 -159 165c-25 0 -46 -14 -46 -42c0 -14 6 -27 15 -38l-109 -36c-16 21 -30 53 -30 89c0 79 56 147 150 147
c73 0 142 -37 183 -94l4 1c-5 30 -13 71 -13 113v41c-55 9 -99 36 -128 93c-26 -57 -75 -94 -147 -94c-49 0 -108 21 -147 70zM521 518c0 19 -3 34 -8 44h-133c4 -59 33 -107 85 -107c39 0 56 29 56 63z" />
    <glyph glyph-name="bnH_NA" horiz-adv-x="790" 
d="M267 127c40 -9 69 -20 135 -58l72 -42l-92 -93c-214 130 -239 151 -334 158v110h68c120 0 194 42 194 121c0 49 -26 84 -73 84c-29 0 -50 -17 -50 -45c0 -21 12 -38 39 -48l-92 -69c-58 22 -85 72 -85 129c0 85 69 156 189 156c81 0 143 -36 177 -93c42 57 95 75 155 75
c109 0 191 -72 191 -194c0 -100 -68 -177 -173 -177c-36 0 -73 6 -101 18l25 110c25 -10 41 -13 60 -13c42 0 67 28 67 67c0 45 -30 68 -74 68c-65 0 -97 -53 -130 -135c-25 -74 -91 -114 -168 -125v-4zM810 562h-830v109h830v-109z" />
    <glyph glyph-name="bnK_SS_NA" horiz-adv-x="973" 
d="M576 172c-7 46 -12 105 -13 156h-30c-132 0 -196 61 -196 195v39h-147c19 -30 33 -68 36 -110c75 -27 143 -95 157 -191c98 -11 167 -55 193 -89zM524 449h38v113h-96v-44c0 -61 28 -69 58 -69zM993 562h-295v-112h10c150 0 214 -80 214 -181c0 -97 -66 -151 -123 -171
l-67 101c28 7 64 33 64 72c0 43 -28 58 -80 58h-18v-579h-125c-31 63 -91 138 -159 138c-25 0 -46 -14 -46 -42c0 -14 6 -27 15 -38l-109 -36c-16 21 -30 53 -30 89c0 79 56 147 156 147c67 0 136 -37 177 -94l4 1c-5 28 -12 65 -13 104c-40 67 -111 117 -193 131
c-21 -60 -67 -87 -108 -87c-48 0 -90 30 -90 86c0 45 34 84 86 103c-9 37 -29 66 -57 86c-23 -45 -62 -65 -98 -65c-48 0 -90 30 -90 86c0 49 34 86 85 101c-8 44 -30 77 -55 102h-68v109h1013v-109z" />
    <glyph glyph-name="bnM_PA" horiz-adv-x="1102" 
d="M592 529c59 -16 108 -63 128 -134l126 85c-29 52 -75 84 -142 84c-52 0 -88 -18 -112 -35zM1022 0h-138v305c0 21 -1 40 -3 59l-279 -193l-67 99l83 56c-6 32 -18 63 -41 86c-21 -46 -65 -85 -152 -85c-112 0 -167 76 -230 76c-33 0 -49 -20 -49 -45c0 -20 8 -34 18 -46
l-109 -38c-18 18 -35 52 -35 94c0 64 29 120 90 143c-3 19 -9 37 -18 51h-112v109h525c15 -11 28 -23 39 -36c40 28 95 45 155 45c107 0 175 -56 205 -95l3 2c-25 74 -25 127 -25 163v23h140v-102h100v-109h-100v-562zM405 450c39 0 58 24 58 56s-20 56 -58 56h-171
c5 -15 9 -32 12 -49c67 -19 111 -63 159 -63z" />
    <glyph glyph-name="bnL_PA" horiz-adv-x="745" 
d="M-20 562v109h786v-109h-101v-808h-133v95c0 35 -3 68 -9 98l-279 -186l-67 99l85 55c-16 30 -39 57 -76 69c-12 4 -26 7 -42 8l-64 94c49 68 146 138 269 138c112 0 173 -56 203 -95l3 2c-22 58 -25 127 -25 178v45c-9 19 -27 35 -52 35c-37 0 -60 -30 -60 -81v-14h-118
v14c0 49 -23 78 -58 78c-37 0 -59 -24 -59 -58c0 -29 15 -48 36 -61l-90 -80c-46 25 -81 82 -81 141c0 107 74 180 178 181c68 1 115 -33 134 -73h4c14 43 49 75 96 75c37 0 57 -16 65 -24h5v75h-550zM249 73c49 -15 86 -46 112 -94l117 76c-28 33 -67 53 -119 53
c-53 0 -86 -18 -110 -35z" />
    <glyph glyph-name="bnSS_PA" horiz-adv-x="1030" 
d="M265 565c-17 0 -33 -3 -47 -10l142 -137c5 13 7 28 7 44c0 63 -40 103 -102 103zM265 356c18 0 35 3 49 10l-143 135c-4 -12 -6 -25 -6 -39c0 -66 40 -106 100 -106zM507 526c66 -14 134 -58 164 -126l107 75c-29 55 -77 89 -146 89c-52 0 -101 -21 -125 -38zM950 0h-138
v305c0 18 -1 35 -2 51l-270 -195l-67 99l95 67c-16 32 -46 64 -81 80c-21 -107 -106 -165 -222 -165c-134 0 -227 78 -227 220c0 39 8 72 22 100h-80v109h285c64 0 123 -18 164 -55c61 46 127 64 198 64c107 0 175 -56 205 -95l3 2c-25 74 -25 127 -25 163v23h140v-102h100
v-109h-100v-562z" />
    <glyph glyph-name="bnS_PA" horiz-adv-x="1164" 
d="M1084 0h-138v305c0 21 -1 40 -3 59l-279 -193l-67 99l83 56c-7 37 -21 73 -53 96c-27 -50 -79 -79 -150 -79c-75 0 -136 33 -171 96c-26 -57 -75 -94 -147 -94c-49 0 -108 21 -147 70l67 86c26 -28 50 -44 80 -44c48 0 71 45 80 105h-259v109h620c8 -12 14 -23 19 -33
c39 27 87 42 142 42c107 0 175 -56 205 -95l3 2c-25 74 -25 127 -25 163v23h140v-102h100v-109h-100v-562zM512 562h-133c4 -59 33 -107 85 -107c39 0 56 29 56 63c0 19 -3 34 -8 44zM654 529c59 -16 108 -63 128 -134l126 85c-29 52 -75 84 -142 84c-52 0 -88 -18 -112 -35
z" />
    <glyph glyph-name="bnP_PA" horiz-adv-x="692" 
d="M187 176c48 -15 85 -48 110 -96l120 81c-28 32 -67 50 -118 50c-52 0 -88 -18 -112 -35zM187 529c57 -18 98 -57 123 -118l121 90c-31 40 -75 63 -132 63c-52 0 -88 -18 -112 -35zM96 447l-66 100c53 71 140 133 259 133c112 0 180 -56 210 -95l3 2
c-25 74 -25 127 -25 163v23h135v-102h100v-109h-100v-706h-133v96c0 37 -4 73 -11 104l-281 -194l-67 99l78 53c-15 29 -38 54 -74 67c-8 3 -18 6 -28 7l-66 99c18 23 42 46 70 66l113 85c-14 41 -39 85 -89 102c-8 3 -18 6 -28 7zM499 226l3 2c-14 49 -19 90 -21 122
c-1 15 -3 29 -5 43l-27 -20c-30 -22 -66 -43 -103 -63c79 -13 128 -52 153 -84z" />
    <glyph glyph-name="bnM_PHA" horiz-adv-x="1082" 
d="M-20 671h1122v-109h-531c10 -22 18 -48 18 -79c0 -36 -10 -78 -40 -110l39 -49v-89l-112 -84l180 -85h4c-7 50 -11 142 -11 197v217c38 21 97 38 160 38c124 0 223 -70 223 -200c0 -113 -73 -166 -131 -190l-69 108c30 8 71 32 71 84s-36 78 -83 78c-13 0 -27 -3 -39 -7
v-383l51 -24l-92 -92l-412 194v116l122 90l-28 35c-111 0 -154 76 -217 76c-33 0 -49 -20 -49 -45c0 -20 8 -34 18 -46l-109 -38c-18 18 -35 52 -35 94c0 60 25 112 77 138c-3 21 -9 40 -19 56h-108v109zM403 450c39 0 58 24 58 56s-20 56 -58 56h-173c5 -14 8 -29 11 -45
c73 -18 111 -67 162 -67z" />
    <glyph glyph-name="bnS_PHA" horiz-adv-x="1140" 
d="M22 415l67 86c26 -28 50 -44 80 -44c48 0 71 45 80 105h-269v109h1180v-109h-509c4 -20 6 -38 6 -56c0 -54 -19 -98 -55 -127l44 -55v-89l-112 -84l180 -85h4c-7 50 -11 142 -11 197v217c38 21 97 38 160 38c124 0 223 -70 223 -200c0 -113 -73 -166 -131 -190l-69 108
c30 8 71 32 71 84s-36 78 -83 78c-13 0 -27 -3 -39 -7v-383l51 -24l-92 -92l-412 194v116l122 90l-41 51c-65 4 -116 24 -151 96c-26 -57 -75 -94 -147 -94c-49 0 -108 21 -147 70zM522 562h-133c4 -59 33 -107 85 -107c39 0 56 29 56 63c0 19 -3 34 -8 44z" />
    <glyph glyph-name="bnL_PHA" horiz-adv-x="1177" 
d="M-20 562v109h1217v-109h-541v-151l37 -50v-84l-120 -95l196 -108h4c-7 50 -12 140 -12 195v211c38 21 102 38 165 38c124 0 223 -70 223 -200c0 -113 -73 -166 -131 -190l-69 108c30 8 71 32 71 84s-36 78 -83 78c-13 0 -27 -3 -39 -7v-389l47 -27l-87 -91l-424 236v111
l118 94l-32 45c-14 18 -31 34 -58 34c-38 0 -63 -29 -63 -77v-31h-117v31c0 55 -26 74 -56 74c-31 0 -62 -25 -62 -75c0 -61 38 -100 102 -100c10 0 21 1 33 3l8 -113c-19 -3 -36 -5 -53 -5c-129 0 -215 87 -215 212c0 123 84 195 175 195c75 0 115 -43 126 -77h5
c10 42 50 79 101 79c36 0 61 -15 69 -24h5v66h-540z" />
    <glyph glyph-name="bnSS_PHA" horiz-adv-x="1024" 
d="M265 568c-17 0 -32 -4 -45 -10l138 -135c5 13 8 27 8 42c0 60 -42 103 -101 103zM265 361c18 0 35 4 49 12l-142 133c-4 -12 -7 -26 -7 -41c0 -60 42 -104 100 -104zM1044 562h-573c14 -27 22 -60 22 -97c0 -46 -11 -85 -31 -117l77 -81v-89l-99 -74l164 -77h4
c-7 50 -11 142 -11 197v256c38 21 97 38 160 38c124 0 223 -70 223 -200c0 -113 -73 -166 -131 -190l-69 108c30 8 71 32 71 84s-36 78 -83 78c-13 0 -27 -3 -39 -7v-422l51 -24l-92 -92l-396 186v112l108 78l-36 38c-30 -12 -63 -18 -99 -18c-129 0 -227 82 -227 216
c0 37 8 70 22 97h-80v109h1064v-109z" />
    <glyph glyph-name="bnD_BHA" horiz-adv-x="687" 
d="M707 562h-384v-144c41 35 116 77 190 102l96 -61c-27 -70 -27 -132 -27 -209v-18c34 -27 81 -99 81 -191c0 -125 -83 -230 -268 -230c-220 0 -327 185 -381 359l106 57c35 -120 106 -294 276 -294c103 0 149 49 149 114c0 22 -7 45 -16 58h-4c-11 -38 -52 -96 -139 -96
c-94 0 -149 61 -149 132c0 37 10 61 16 73l120 -15c-8 -13 -13 -33 -13 -49c0 -22 11 -36 36 -36c26 0 45 23 59 61v76c0 47 7 97 21 128c-49 -31 -108 -71 -161 -121l-125 42v262h-210v109h727v-109z" />
    <glyph glyph-name="bnM_BHA" horiz-adv-x="690" 
d="M-20 671h730v-109h-101c10 -16 19 -41 19 -79c0 -45 -16 -101 -68 -132c35 -30 91 -97 91 -203c0 -125 -83 -230 -268 -230c-183 0 -288 128 -349 271l100 68c42 -106 114 -217 250 -217c103 0 149 49 149 114c0 22 -7 45 -16 58h-4c-11 -38 -52 -96 -139 -96
c-94 0 -149 61 -149 132c0 37 10 61 16 73l120 -15c-8 -13 -13 -33 -13 -49c0 -22 11 -36 36 -36c35 0 58 42 72 106c-108 3 -162 76 -224 76c-33 0 -49 -20 -49 -45c0 -20 8 -34 18 -46l-109 -38c-18 18 -35 52 -35 94c0 60 26 113 79 139c-3 21 -9 39 -19 55h-137v109z
M442 450c39 0 58 24 58 56s-20 56 -58 56h-183c5 -14 8 -29 11 -45c75 -18 121 -67 172 -67z" />
    <glyph glyph-name="bnB_BHA" horiz-adv-x="677" 
d="M697 562h-123v-399c34 -27 81 -99 81 -191c0 -125 -83 -230 -268 -230c-220 0 -327 185 -381 359l106 57c35 -120 106 -294 276 -294c103 0 149 49 149 114c0 22 -7 45 -16 58h-4c-11 -38 -52 -96 -139 -96c-94 0 -149 61 -149 132c0 37 10 61 16 73l120 -15
c-8 -13 -13 -33 -13 -49c0 -22 11 -36 36 -36c31 0 52 32 66 84l-307 116v132c97 77 198 129 298 165v20h-465v109h717v-109zM449 256h5c-5 43 -9 103 -9 151v9c-58 -27 -124 -65 -166 -93z" />
    <glyph glyph-name="bnL_BHA" horiz-adv-x="741" 
d="M761 562h-110v-391c34 -29 78 -100 78 -189c0 -125 -83 -230 -268 -230c-196 0 -332 152 -391 298l102 68c43 -112 139 -244 293 -244c100 0 146 49 146 114c0 22 -7 45 -16 58h-4c-11 -38 -52 -96 -139 -96c-94 0 -149 61 -149 132c0 53 17 87 23 99l120 -15
c-8 -13 -20 -46 -20 -75c0 -22 11 -36 36 -36c28 0 48 26 62 69v246c-8 18 -31 34 -58 34c-38 0 -63 -29 -63 -77v-31h-117v31c0 55 -26 74 -56 74c-31 0 -62 -25 -62 -75c0 -48 31 -70 73 -70c8 0 17 1 26 3l8 -113c-17 -4 -35 -6 -52 -6c-93 0 -180 60 -180 183
s84 195 175 195c75 0 115 -43 126 -77h5c10 42 50 79 101 79c36 0 61 -15 69 -24h5v66h-544v109h781v-109z" />
    <glyph glyph-name="bnK_MA" horiz-adv-x="950" 
d="M969 562h-99v-677h-128c-68 84 -186 143 -298 167c-20 -63 -68 -89 -113 -89c-51 0 -95 32 -95 92c0 39 19 72 51 93l-232 102v126c46 46 144 119 270 146v40h-345v109h989v-109zM329 259h5c-5 40 -9 96 -9 143c-56 -19 -106 -49 -145 -78zM746 53c0 0 -7 49 -7 181v328
h-285v-30c171 -10 233 -104 233 -180c0 -96 -66 -144 -125 -163l-62 100c28 5 64 21 64 63c0 39 -40 62 -110 66v-252c106 -13 204 -52 292 -113z" />
    <glyph glyph-name="bnG_MA" horiz-adv-x="910" 
d="M419 773h132v-102h376v-109h-100v-630h-128c-29 71 -86 132 -162 161c-22 -58 -66 -83 -108 -83c-51 0 -96 31 -96 91c0 52 33 94 87 110v180c0 108 -54 166 -147 166c-47 0 -88 -18 -115 -44c17 4 35 5 49 5c70 0 142 -44 142 -135c0 -70 -45 -140 -121 -195l-95 94
c54 34 85 71 85 106c0 24 -19 46 -61 46c-15 0 -36 -3 -54 -8l-90 98c40 70 129 154 253 154c79 0 134 -29 172 -69h4c-16 44 -23 96 -23 146v18zM703 127c0 0 -7 49 -7 181v254h-145v-353c63 -14 118 -45 152 -82z" />
    <glyph glyph-name="bnNG_MA" horiz-adv-x="892" 
d="M364 519c38 0 56 19 56 45c0 19 -14 34 -38 34c-20 0 -35 -11 -35 -34v-44c6 -1 11 -1 17 -1zM812 -212h-128c-30 74 -85 136 -162 164c-21 -60 -66 -86 -109 -86c-51 0 -96 31 -96 91c0 51 32 93 85 109v23c-13 -1 -27 -2 -42 -2c-217 0 -343 153 -345 333l114 21
c3 -179 118 -242 231 -242c83 0 147 30 147 86c0 11 -4 26 -8 30c-38 -21 -79 -42 -136 -42c-90 0 -141 56 -141 135v61c-44 22 -82 54 -111 93h-131v109h200c11 -34 28 -67 52 -93c2 54 52 107 143 107c27 0 52 -5 74 -14h463v-109h-100v-774zM688 -17c0 0 -7 49 -7 181
v398h-151v-4c0 -77 -67 -123 -164 -123c-6 0 -13 0 -19 1v-20c0 -19 8 -28 25 -28c22 0 69 5 171 65c50 -33 87 -85 87 -161c0 -78 -33 -135 -95 -169v-58c63 -14 119 -45 153 -82z" />
    <glyph glyph-name="bnTT_MA" horiz-adv-x="806" 
d="M602 17c0 0 -7 49 -7 181v364h-386v-278c0 -28 19 -47 55 -47c60 0 118 46 118 106c0 31 -18 46 -44 46c-13 0 -29 -6 -37 -16l-57 107c22 20 66 36 102 36c90 0 168 -55 168 -175c0 -55 -24 -108 -65 -149v-93c63 -14 119 -45 153 -82zM487 689c0 -6 0 -12 -1 -18h339
v-109h-99v-740h-128c-29 70 -87 130 -163 160c-22 -57 -66 -82 -108 -82c-51 0 -96 31 -96 91c0 51 32 93 85 109v20c-17 -3 -34 -5 -52 -5c-127 0 -189 69 -189 167v280h-95v109h373v9c0 54 -33 70 -98 70h-23c-172 0 -232 91 -232 179c0 8 1 17 2 25l133 21
c-2 -9 -3 -18 -3 -27c0 -40 20 -82 106 -82h44c109 0 205 -59 205 -177z" />
    <glyph glyph-name="bnDD_MA" horiz-adv-x="964" 
d="M760 -26c0 0 -7 55 -7 187v401h-355v-93c0 -27 11 -33 25 -33c27 0 89 40 150 83c54 -33 100 -106 100 -188c0 -67 -23 -124 -66 -165v-91c60 -21 120 -60 153 -101zM984 562h-100v-777h-128c-30 72 -91 133 -168 169c-23 -51 -64 -74 -103 -74c-51 0 -96 33 -96 93
c0 54 34 98 92 112v16c-26 -6 -54 -9 -85 -9c-221 0 -352 168 -354 373l131 30c0 -208 112 -279 223 -279c87 0 146 40 146 107c0 14 -3 28 -9 40c-32 -25 -77 -52 -132 -52c-92 0 -142 61 -142 153v98h-279v109h1004v-109z" />
    <glyph glyph-name="bnNN_MA" horiz-adv-x="916" 
d="M712 127c0 0 -7 49 -7 181v254h-146v-353c63 -14 119 -45 153 -82zM430 749v24h129v-102h376v-109h-99v-630h-128c-29 71 -86 132 -163 161c-22 -58 -66 -83 -108 -83c-51 0 -96 31 -96 91c0 51 32 93 85 109v89c0 117 -18 252 -153 252c-69 0 -108 -41 -108 -96
c0 -49 29 -85 91 -85c18 0 39 4 58 13l31 -107c-29 -18 -65 -27 -108 -27c-137 0 -209 93 -209 206c0 127 85 221 229 221c94 0 154 -42 188 -89l5 3c-15 48 -20 96 -20 159z" />
    <glyph glyph-name="bnT_MA" horiz-adv-x="919" 
d="M941 562h-102v-760h-128c-29 70 -87 130 -163 160c-22 -57 -66 -82 -108 -82c-51 0 -96 31 -96 91c0 51 32 93 85 109v17c-19 -4 -40 -6 -62 -6c-211 0 -312 192 -354 347l110 66c38 -161 116 -299 243 -299c86 0 129 60 129 131c0 48 -20 88 -60 88
c-22 0 -38 -15 -38 -39c0 -20 8 -35 32 -49l-81 -75c-49 23 -80 68 -80 127c0 94 71 150 161 150c124 0 190 -98 190 -204c0 -66 -20 -122 -57 -164v-91c63 -14 119 -45 153 -82c0 0 -7 49 -7 181v384h-728v109h961v-109z" />
    <glyph glyph-name="bnD_MA" horiz-adv-x="838" 
d="M634 127c0 0 -7 49 -7 181v254h-422v-157c60 47 141 85 217 113l101 -62c-28 -73 -39 -163 -41 -247c63 -15 118 -45 152 -82zM858 562h-100v-630h-128c-29 70 -87 130 -164 159c-22 -56 -65 -81 -107 -81c-51 0 -96 31 -96 91c0 52 33 93 86 110c2 77 12 124 27 157
c-52 -29 -109 -64 -179 -134l-127 47v281h-90v109h878v-109z" />
    <glyph glyph-name="bnDH_MA" horiz-adv-x="861" 
d="M657 80c0 0 -7 49 -7 181v301h-145v-400c63 -14 118 -45 152 -82zM881 562h-100v-677h-128c-30 71 -86 133 -162 161c-22 -57 -66 -83 -108 -83c-51 0 -96 31 -96 91c0 34 14 63 38 84l-279 87v120l18 10c41 23 76 35 76 35v5c-55 10 -111 51 -111 128
c0 99 72 162 174 162c39 0 84 -9 113 -32l-34 -102c-23 13 -44 17 -61 17c-30 0 -55 -15 -55 -49c0 -36 37 -49 67 -49c48 0 98 22 141 48v153h507v-109zM381 246l3 2c-6 32 -10 82 -10 135l-167 -85z" />
    <glyph glyph-name="bnN_MA" horiz-adv-x="850" 
d="M646 127c0 0 -7 49 -7 181v254h-146v-353c63 -14 119 -45 153 -82zM974 562h-204v-630h-128c-30 73 -85 135 -162 163c-22 -59 -66 -85 -109 -85c-51 0 -96 31 -96 91c0 51 32 93 85 109v56l-26 21c-50 41 -83 62 -120 62c-31 0 -56 -17 -56 -47c0 -26 13 -44 25 -55
l-100 -50c-25 23 -49 64 -49 114c0 86 66 154 167 154c63 0 110 -24 159 -60v157h-385v109h999v-109z" />
    <glyph glyph-name="bnP_MA" horiz-adv-x="942" 
d="M738 127c0 0 -7 49 -7 181v254h-146v-353c63 -14 119 -45 153 -82zM174 529c51 -14 95 -51 119 -108l118 76c-27 41 -68 67 -125 67c-52 0 -88 -18 -112 -35zM862 -68h-128c-29 71 -87 132 -163 161c-22 -58 -66 -83 -108 -83c-51 0 -96 31 -96 91c0 53 34 95 89 110v94
c0 26 -2 52 -5 77l-287 -185l-65 100l92 59c-11 29 -30 52 -54 69c-15 10 -32 18 -55 21l-60 103c49 65 144 131 254 131c112 0 170 -56 200 -95l3 2c-24 59 -25 127 -25 163v23h131v-102h375v-109h-98v-630z" />
    <glyph glyph-name="bnM_MA" horiz-adv-x="874" 
d="M398 450c39 0 58 24 58 56s-20 56 -58 56h-155c6 -16 10 -32 13 -49c61 -20 95 -63 142 -63zM670 127c0 0 -7 49 -7 181v254h-98c10 -16 19 -41 19 -79c0 -45 -16 -100 -67 -132v-142c63 -14 119 -45 153 -82zM895 562h-101v-630h-128c-30 73 -86 135 -162 163
c-22 -59 -66 -85 -109 -85c-51 0 -96 31 -96 91c0 51 32 92 85 109l-1 120c-81 14 -125 73 -178 73c-33 0 -49 -20 -49 -45c0 -20 8 -34 18 -46l-109 -38c-18 18 -35 52 -35 94c0 64 29 120 90 143c-3 19 -9 37 -18 51h-122v109h915v-109z" />
    <glyph glyph-name="bnL_MA" horiz-adv-x="1008" 
d="M804 127c0 0 -7 49 -7 181v254h-146v-353c63 -14 119 -45 153 -82zM1033 562h-105v-630h-128c-29 72 -86 132 -163 161c-22 -57 -66 -83 -108 -83c-51 0 -96 31 -96 91c0 51 32 92 84 109v150c-10 15 -31 27 -54 27c-38 0 -63 -29 -63 -77v-31h-117v31
c0 55 -26 74 -56 74c-31 0 -62 -28 -62 -78c0 -67 47 -93 99 -93c10 0 20 1 30 3l8 -113c-19 -4 -38 -6 -56 -6c-110 0 -206 73 -206 206c0 123 82 194 173 194c75 0 117 -39 128 -73h5c10 42 48 78 99 78c36 0 63 -14 71 -23h1v83h-537v109h1053v-109z" />
    <glyph glyph-name="bnSH_MA" horiz-adv-x="936" 
d="M732 127c0 0 -7 49 -7 181v254h-145v-353c63 -14 118 -45 152 -82zM856 -68h-128c-29 70 -86 131 -162 160c-22 -57 -66 -82 -108 -82c-51 0 -96 31 -96 91c0 52 33 93 86 109v239c0 77 -35 112 -92 112c-50 0 -81 -27 -81 -81c0 -52 39 -79 88 -79c10 0 20 1 30 3v-112
c-8 -2 -21 -4 -37 -4c-55 0 -105 21 -140 57c-37 -38 -86 -60 -141 -60c-18 0 -34 3 -45 6v111c12 -2 24 -3 38 -3c53 0 87 24 87 82c0 53 -29 81 -92 81h-83v109h90c61 0 109 -18 145 -51c34 34 76 54 131 54c69 0 101 -28 115 -43h4c-7 28 -13 75 -13 105v37h128v-102h376
v-109h-100v-630z" />
    <glyph glyph-name="bnS_MA" horiz-adv-x="941" 
d="M380 562c4 -59 33 -107 85 -107c39 0 56 29 56 63c0 19 -3 34 -8 44h-133zM648 506c0 -59 -23 -105 -64 -134v-163c63 -14 119 -45 153 -82c0 0 -7 49 -7 181v254h-88c4 -20 6 -38 6 -56zM861 -68h-128c-29 72 -86 133 -163 162c-21 -58 -66 -84 -108 -84
c-51 0 -96 31 -96 91c0 51 32 93 85 109v134c-62 6 -112 33 -144 95c-26 -57 -75 -94 -147 -94c-49 0 -108 21 -147 70l67 86c26 -28 50 -44 80 -44c48 0 71 45 80 105h-260v109h981v-109h-100v-630z" />
    <glyph glyph-name="bnSS_MA" horiz-adv-x="798" 
d="M276 565c-19 0 -36 -4 -51 -11l145 -146c7 16 11 34 11 54c0 63 -43 103 -105 103zM276 351c22 0 41 6 58 16l-148 148c-8 -15 -12 -33 -12 -53c0 -66 42 -111 102 -111zM594 127c0 0 -7 49 -7 181v254h-102c15 -28 23 -61 23 -100c0 -72 -25 -129 -67 -167v-86
c63 -14 119 -45 153 -82zM818 562h-100v-630h-128c-29 70 -87 130 -163 160c-22 -57 -66 -82 -108 -82c-51 0 -96 31 -96 91c0 51 32 93 85 109v28c-10 -1 -21 -2 -32 -2c-134 0 -231 84 -231 226c0 39 8 72 23 100h-88v109h838v-109z" />
    <glyph glyph-name="bnH_MA" horiz-adv-x="974" 
d="M994 562h-321v-97c66 12 122 31 171 54l86 -91s-20 -80 -20 -211v-165h-130v165c0 60 2 114 8 154c-35 -12 -73 -20 -115 -27v-360h-128c-15 64 -65 145 -156 165c-21 -59 -66 -86 -107 -86c-48 0 -90 30 -90 86c0 45 34 84 86 103c-9 37 -29 66 -57 86
c-23 -45 -62 -65 -98 -65c-48 0 -90 30 -90 86c0 49 34 86 85 101c-8 44 -30 77 -55 102h-83v109h1014v-109zM551 172c-7 47 -12 108 -14 160c-25 -1 -52 -1 -80 -1c-30 0 -57 1 -82 3c11 -22 19 -47 23 -74c79 -13 132 -55 153 -88zM446 445c32 0 62 1 91 3v114h-332
c18 -29 32 -66 36 -107c73 -7 144 -10 205 -10z" />
    <glyph glyph-name="bnK_SS_MA" horiz-adv-x="1192" 
d="M591 172c-7 46 -12 105 -13 156h-30c-132 0 -196 61 -196 195v39h-147c19 -30 33 -68 36 -110c75 -27 143 -95 157 -191c98 -11 167 -55 193 -89zM539 449h38v113h-96v-44c0 -61 28 -69 58 -69zM987 -62c0 0 -7 49 -7 181v443h-267v-112h10c150 0 214 -80 214 -181
c0 -97 -66 -151 -123 -171l-67 101c28 7 64 33 64 72c0 43 -28 58 -80 58h-18v-278c92 -13 180 -49 274 -113zM1212 562h-101v-792h-128c-72 90 -173 152 -278 172c-19 -67 -69 -94 -115 -94c-51 0 -95 32 -95 92c0 45 25 82 67 101c-33 55 -97 97 -172 109
c-21 -60 -67 -87 -108 -87c-48 0 -90 30 -90 86c0 45 34 84 86 103c-9 37 -29 66 -57 86c-23 -45 -62 -65 -98 -65c-48 0 -90 30 -90 86c0 49 34 86 85 101c-8 44 -30 77 -55 102h-83v109h1232v-109z" />
    <glyph glyph-name="bnK_LA" horiz-adv-x="877" 
d="M897 562h-306v-30c176 -8 239 -115 239 -200s-46 -153 -125 -183l-62 100c38 12 64 41 64 83c0 49 -42 82 -116 86v-695h-128v234c-7 15 -21 31 -45 31c-33 0 -50 -29 -50 -72v-19h-113v19c0 48 -21 69 -51 69s-51 -25 -51 -69c0 -54 39 -70 75 -70c15 0 32 3 45 7
l17 -115c-18 -8 -43 -11 -67 -11c-122 0 -189 76 -189 189s73 180 160 180c70 0 102 -35 118 -66h4c13 36 41 66 85 66c33 0 49 -13 59 -21h3v45l-321 129v127c68 54 191 120 320 146v40h-482v109h917v-109zM471 243c-5 43 -9 103 -9 151v9c-65 -17 -131 -47 -193 -80
l197 -80h5z" />
    <glyph glyph-name="bnG_LA" horiz-adv-x="656" 
d="M576 773v-102h100v-109h-100v-753h-131v230c-6 13 -23 31 -47 31c-33 0 -48 -27 -48 -72v-19h-113v19c0 48 -21 69 -51 69s-51 -25 -51 -69c0 -54 39 -70 75 -70c15 0 32 3 45 7l16 -116c-19 -6 -42 -9 -66 -9c-122 0 -189 75 -189 188s73 180 160 180
c70 0 102 -35 118 -66h4c13 36 41 66 85 66c33 0 49 -13 59 -21h3v234c0 108 -54 166 -147 166c-47 0 -88 -18 -115 -44c17 4 35 5 49 5c70 0 142 -44 142 -135c0 -70 -45 -140 -121 -195l-95 94c54 34 85 71 85 106c0 24 -19 46 -61 46c-15 0 -36 -3 -54 -8l-90 98
c40 70 129 154 253 154c79 0 134 -29 172 -69h4c-16 44 -23 96 -23 146v18h132z" />
    <glyph glyph-name="bnT_LA" horiz-adv-x="668" 
d="M-20 671h708v-109h-708v109zM136 494c35 -146 100 -299 237 -299c84 0 135 52 135 130c0 51 -20 89 -60 89c-22 0 -40 -15 -40 -39c0 -20 11 -38 34 -48l-77 -72c-49 23 -84 69 -84 130c0 84 67 143 157 143c124 0 194 -91 194 -205c0 -58 -15 -107 -43 -146v-508h-131
v230c-6 13 -23 31 -47 31c-33 0 -48 -27 -48 -72v-19h-113v19c0 48 -21 69 -51 69s-51 -25 -51 -69c0 -54 39 -70 75 -70c15 0 32 3 45 7l16 -117c-19 -6 -42 -9 -66 -9c-122 0 -189 76 -189 189s73 180 160 180c70 0 102 -35 118 -66h4c13 36 41 66 85 66
c33 0 49 -13 59 -21h3v74c-26 -7 -55 -10 -85 -10c-214 0 -308 190 -347 351z" />
    <glyph glyph-name="bnP_LA" horiz-adv-x="692" 
d="M189 529c51 -14 95 -51 119 -107l112 92c-29 32 -68 50 -119 50c-52 0 -88 -18 -112 -35zM91 447l-64 94c49 68 138 139 264 139c112 0 180 -56 210 -95l3 2c-25 74 -25 127 -25 163v23h133v-102h100v-109h-100v-637h-131v224c-6 13 -23 31 -47 31c-33 0 -48 -27 -48 -72
v-10h-113v19c0 48 -21 69 -51 69s-51 -25 -51 -66c0 -56 39 -73 75 -73c15 0 32 3 45 7l16 -117c-19 -6 -42 -9 -66 -9c-122 0 -189 76 -189 189c0 68 26 119 66 149l93 76c-10 36 -29 70 -67 90c-16 9 -29 13 -53 15zM334 231c13 32 44 57 85 57c33 0 49 -13 59 -21h3v38
c0 35 -3 68 -9 98l-73 -60c-28 -24 -65 -49 -100 -73c14 -11 24 -26 31 -39h4z" />
    <glyph glyph-name="bnPH_LA" horiz-adv-x="857" 
d="M446 -301v230c-6 13 -23 31 -47 31c-33 0 -48 -27 -48 -72v-19h-113v19c0 48 -21 69 -51 69s-51 -25 -51 -69c0 -54 39 -70 75 -70c15 0 32 3 45 7l16 -117c-19 -6 -42 -9 -66 -9c-122 0 -189 76 -189 189s73 180 160 180c70 0 102 -35 118 -66h4c13 36 41 66 85 66
c33 0 49 -13 59 -21h3v49l-333 119v116l120 91l-120 101v39h-133v109h897v-109h-624v-4l111 -93v-94l-110 -82l194 -70h4c-7 50 -12 140 -12 195v66c38 21 102 38 165 38c124 0 223 -70 223 -200c0 -113 -73 -166 -131 -190l-69 108c30 8 71 32 71 84s-36 78 -83 78
c-13 0 -27 -3 -39 -7v-692h-131z" />
    <glyph glyph-name="bnB_LA" horiz-adv-x="660" 
d="M680 562h-100v-823h-131v230c-6 13 -23 31 -47 31c-33 0 -48 -27 -48 -72v-19h-113v19c0 48 -21 69 -51 69s-51 -25 -51 -69c0 -54 39 -70 75 -70c15 0 32 3 45 7l16 -113c-19 -6 -42 -9 -66 -9c-122 0 -189 72 -189 185s73 180 160 180c70 0 102 -35 118 -66h4
c13 36 41 66 85 66c33 0 49 -13 59 -21h3v43l-314 104v148c119 87 222 132 318 165v15h-473v109h700v-109zM460 251l3 3c-6 46 -10 117 -10 169v2c-65 -27 -135 -63 -200 -108z" />
    <glyph glyph-name="bnBH_LA" horiz-adv-x="667" 
d="M590 -165h-133v230c-6 13 -23 31 -47 31c-33 0 -48 -27 -48 -72v-19h-113v19c0 48 -21 69 -51 69s-51 -25 -51 -69c0 -54 39 -70 75 -70c15 0 32 3 45 7l16 -113c-19 -6 -42 -9 -66 -9c-122 0 -189 72 -189 185s73 185 160 185c70 0 102 -35 118 -66h4c13 36 41 66 85 66
c31 0 48 -13 58 -21h4v70c0 40 -8 78 -18 92h-4c-13 -42 -59 -107 -157 -107c-105 0 -162 68 -162 148c0 41 12 67 19 81l129 -17c-9 -15 -15 -36 -15 -54c0 -25 13 -41 41 -41c41 0 72 45 95 133h109c42 -39 96 -110 96 -239v-419zM687 562h-707v109h707v-109z" />
    <glyph glyph-name="bnM_LA" horiz-adv-x="667" 
d="M-20 671h707v-109h-86c10 -16 19 -41 19 -79c0 -33 -9 -71 -33 -102v-477h-131v230c-6 13 -23 31 -47 31c-33 0 -48 -27 -48 -72v-19h-113v19c0 48 -21 69 -51 69s-51 -25 -51 -69c0 -54 39 -70 75 -70c15 0 32 3 45 7l16 -113c-19 -6 -42 -9 -66 -9
c-122 0 -189 72 -189 185s73 180 160 180c70 0 102 -35 118 -66h4c13 36 41 66 85 66c33 0 49 -13 59 -21h3v75h-2c-112 0 -167 76 -230 76c-33 0 -49 -20 -49 -45c0 -14 4 -25 10 -35l-108 -41c-15 19 -28 50 -28 86c0 64 29 120 90 143c-4 19 -10 37 -19 51h-140v109z
M434 450c39 0 58 24 58 56s-20 56 -58 56h-172c5 -15 9 -31 12 -48c68 -20 112 -64 160 -64z" />
    <glyph glyph-name="bnL_LA" horiz-adv-x="752" 
d="M370 197c10 42 50 79 101 79c36 0 61 -15 69 -24h5v113c-8 18 -31 34 -58 34c-38 0 -63 -29 -63 -77v-21h-117v21c0 55 -26 74 -56 74c-31 0 -62 -25 -62 -75c0 -23 7 -39 18 -50c11 2 21 3 32 3c75 0 115 -43 126 -77h5zM772 562h-100v-672h-127v236
c-8 18 -31 34 -58 34c-38 0 -63 -29 -63 -77v-21h-117v21c0 55 -26 74 -56 74c-31 0 -62 -25 -62 -74c0 -55 39 -77 82 -77c15 0 36 3 49 8l16 -113c-19 -6 -46 -10 -67 -10c-125 0 -205 75 -205 188c0 49 14 91 36 122c-22 30 -36 69 -36 117c0 123 84 195 175 195
c75 0 115 -43 126 -77h5c10 42 50 79 101 79c36 0 61 -15 69 -24h5v71h-565v109h792v-109z" />
    <glyph glyph-name="bnSH_LA" horiz-adv-x="737" 
d="M657 -161h-138v232c-8 18 -31 34 -58 34c-38 0 -63 -29 -63 -77v-31h-117v31c0 55 -26 74 -56 74c-31 0 -62 -25 -62 -75c0 -53 34 -70 73 -70c15 0 31 2 46 7l8 -113c-24 -7 -48 -11 -71 -11c-96 0 -181 61 -181 184s84 195 175 195c75 0 115 -43 126 -77h5
c10 42 50 79 101 79c36 0 61 -15 69 -24h5v236c0 82 -44 120 -106 120c-53 0 -91 -32 -91 -90c0 -57 41 -86 94 -86c16 0 29 2 43 7v-122s-17 -7 -51 -7c-61 0 -116 25 -154 67c-38 -44 -87 -70 -148 -70c-34 0 -61 10 -61 10v120c14 -5 33 -8 53 -8c58 0 91 27 91 90
c0 57 -28 98 -96 98h-113v109h120c69 0 118 -24 155 -64c39 41 92 67 159 67c79 0 110 -37 119 -47h4c-8 31 -14 80 -14 114v32h134v-102h100v-109h-100v-723z" />
    <glyph glyph-name="bnS_LA" horiz-adv-x="695" 
d="M91 504c22 -30 45 -47 73 -47c48 0 64 64 71 105h-255v109h735v-109h-56c5 -16 8 -39 8 -57c0 -60 -28 -105 -77 -130v-431h-131v230c-6 13 -23 31 -47 31c-33 0 -48 -27 -48 -72v-19h-113v19c0 48 -21 69 -51 69s-51 -25 -51 -69c0 -54 39 -70 75 -70c15 0 32 3 45 7
l16 -113c-19 -6 -42 -9 -66 -9c-122 0 -189 72 -189 185s73 180 160 180c70 0 102 -35 118 -66h4c13 36 41 66 85 66c33 0 49 -13 59 -21h3v62c-62 7 -112 38 -144 105c-29 -72 -79 -104 -151 -104c-49 0 -103 22 -142 60zM530 518c0 19 -4 34 -9 44h-135
c9 -63 46 -103 91 -103c35 0 53 25 53 59z" />
    <glyph glyph-name="bnH_LA" horiz-adv-x="639" 
d="M167 247h51c105 0 179 39 179 109c0 43 -34 66 -75 66c-31 0 -52 -18 -52 -44c0 -14 6 -26 19 -34l-82 -65c-42 22 -62 63 -62 103c0 90 71 148 176 148c111 0 194 -69 194 -174c0 -99 -64 -144 -128 -161v-5c38 -7 76 -17 138 -42l118 -48l-65 -92c-16 6 -32 13 -47 18
v-311h-125v206c-6 12 -18 28 -39 28c-27 0 -40 -24 -40 -65v-17h-103v17c0 42 -18 62 -45 62c-26 0 -43 -25 -43 -62c0 -49 32 -63 64 -63c11 0 22 2 32 5l15 -102c-15 -4 -32 -6 -51 -6c-105 0 -167 65 -167 166c0 99 63 162 141 162c58 0 91 -32 106 -59h4
c12 32 36 59 74 59c26 0 41 -12 49 -19h3v46c-138 50 -182 56 -239 61v113zM659 562h-679v109h679v-109z" />
    <glyph glyph-name="bnS_K_LA" horiz-adv-x="808" 
d="M89 506c23 -25 50 -44 80 -44c48 0 71 40 80 100h-269v109h848v-109h-177c4 -20 6 -38 6 -56c0 -43 -13 -80 -36 -108c122 -29 165 -116 165 -181c0 -96 -66 -144 -125 -163l-62 100c28 5 64 21 64 63c0 39 -35 70 -105 76v-637h-125v218c-6 13 -19 30 -41 30
c-28 0 -42 -25 -42 -69v-18h-109v18c0 45 -19 66 -47 66c-27 0 -45 -27 -45 -66c0 -51 33 -66 67 -66c12 0 23 2 34 5l16 -107c-16 -4 -34 -6 -54 -6c-111 0 -176 68 -176 174c0 105 66 171 149 171c61 0 95 -34 111 -62h4c13 34 38 62 78 62c26 0 43 -13 51 -20h4v38
l-274 94v133c38 37 110 93 203 127c-18 14 -33 34 -46 61c-26 -52 -75 -89 -147 -89c-49 0 -108 21 -147 70zM530 518c0 19 -3 34 -8 44h-133c4 -59 33 -107 85 -107c39 0 56 29 56 63zM438 149c-4 36 -8 85 -9 128c-56 -19 -106 -49 -145 -78l149 -50h5z" />
    <glyph glyph-name="bnM_P_LA" horiz-adv-x="1102" 
d="M592 529c51 -14 95 -51 119 -107l112 92c-29 32 -68 50 -119 50c-52 0 -88 -18 -112 -35zM1022 -75h-138v224c-6 13 -23 31 -47 31c-33 0 -48 -27 -48 -72v-10h-113v19c0 48 -21 69 -51 69s-51 -25 -51 -69c0 -54 39 -70 75 -70c15 0 32 3 45 7l16 -113
c-19 -6 -42 -9 -66 -9c-122 0 -189 72 -189 185c0 68 26 119 66 149l93 76c-8 27 -19 52 -40 71c-22 -49 -66 -86 -144 -86c-124 0 -165 80 -237 80c-27 0 -47 -15 -47 -40c0 -20 8 -34 18 -46l-107 -38c-18 18 -37 50 -37 93c0 61 29 114 90 136c-3 19 -9 36 -18 50h-112
v109h525c12 -8 25 -18 36 -31c42 24 93 40 153 40c112 0 180 -56 210 -95l3 2c-25 74 -25 127 -25 163v23h140v-102h100v-109h-100v-637zM737 231c13 32 41 57 85 57c33 0 49 -13 59 -21h3v38c0 35 -3 68 -9 98l-73 -60c-28 -24 -65 -49 -100 -73c14 -11 24 -26 31 -39h4z
M408 448c40 0 55 26 55 57s-18 57 -59 57h-170c5 -15 9 -32 12 -49c68 -20 112 -65 162 -65z" />
    <glyph glyph-name="bnS_P_LA" horiz-adv-x="1164" 
d="M756 680c112 0 180 -56 210 -95l3 2c-25 74 -25 127 -25 163v23h140v-102h100v-109h-100v-665h-138v242c-7 22 -24 35 -45 35c-32 0 -50 -30 -50 -78v-31h-114v31c0 56 -22 75 -48 75s-45 -26 -45 -76c0 -49 19 -71 54 -71c7 0 15 1 23 3l6 -114c-14 -4 -33 -6 -48 -6
c-89 0 -162 61 -162 185c0 73 25 129 63 162l96 88c-7 30 -22 59 -48 79c-27 -49 -79 -78 -150 -78c-75 0 -135 25 -171 96c-26 -57 -75 -94 -147 -94c-49 0 -108 21 -147 70l67 86c26 -28 50 -44 80 -44c48 0 71 45 80 105h-260v109h612c8 -12 14 -24 20 -35
c40 27 91 44 144 44zM796 218c11 42 42 73 89 73c28 0 47 -14 57 -24h4v38c0 44 -5 84 -15 120l-86 -82c-32 -31 -64 -56 -93 -76c18 -13 31 -29 40 -49h4zM521 518c0 19 -3 34 -8 44h-133c4 -59 33 -107 85 -107c39 0 56 29 56 63zM654 529c49 -14 92 -49 116 -102l106 96
c-28 26 -64 41 -110 41c-52 0 -88 -18 -112 -35z" />
    <glyph glyph-name="bnNG_K_SSA" horiz-adv-x="1513" 
d="M364 519c38 0 56 19 56 45c0 19 -14 34 -38 34c-20 0 -35 -11 -35 -34v-44c6 -1 11 -1 17 -1zM1276 329h-18v-345h-128c-16 82 -96 150 -195 166c-21 -60 -67 -87 -108 -87c-48 0 -90 30 -90 86c0 45 34 84 86 103c-9 37 -29 66 -57 86c-23 -45 -62 -65 -98 -65
c-13 0 -26 2 -38 7c-2 -132 -99 -213 -270 -213c-217 0 -343 165 -345 345l114 21c3 -179 118 -249 231 -249c93 0 147 37 147 89c0 15 -3 24 -8 29c-39 -18 -79 -34 -136 -34c-90 0 -141 53 -141 132v69c-44 22 -82 54 -111 93h-131v109h200c11 -34 28 -67 52 -93
c2 54 56 107 147 107c45 0 125 -37 146 -98v84h1008v-109h-275v-112h10c150 0 214 -80 214 -181c0 -97 -66 -151 -123 -171l-67 101c28 7 64 33 64 72c0 43 -28 58 -80 58zM372 380c22 0 69 5 171 65c17 -11 33 -25 46 -41c14 26 40 46 74 56c-8 44 -30 77 -55 102h-78v-4
c0 -77 -67 -123 -164 -123c-6 0 -13 0 -19 1v-28c0 -19 8 -28 25 -28zM1136 172c-7 46 -12 105 -13 156h-30c-132 0 -196 61 -196 195v39h-147c19 -30 33 -68 36 -110c75 -27 143 -95 157 -191c98 -11 167 -55 193 -89zM1084 449h38v113h-96v-44c0 -61 28 -69 58 -69z" />
    <glyph glyph-name="bnK_SA" horiz-adv-x="969" 
d="M989 562h-100v-642h-131c0 79 -42 93 -121 93c-101 0 -215 -48 -368 -48c-121 0 -210 59 -252 134l86 67c29 -38 76 -90 183 -90c12 0 25 1 39 3v48l-270 119v124c46 46 144 119 270 146v46h-345v109h1009v-109zM774 96c-13 53 -19 129 -19 189v277h-301v-36
c171 -11 233 -117 233 -197c0 -92 -60 -145 -125 -171l-62 100c30 10 64 33 64 75c0 39 -40 72 -110 79v-309c67 15 136 30 192 30c49 0 92 -9 124 -37h4zM334 253c-5 41 -9 96 -9 143c-56 -19 -106 -49 -145 -78l149 -65h5z" />
    <glyph glyph-name="bnN_SA" horiz-adv-x="938" 
d="M-20 671h978v-109h-100v-562h-141v244c0 22 -13 36 -34 36c-37 0 -63 -30 -107 -100c-64 -102 -136 -122 -193 -122c-71 0 -143 29 -205 107l88 87c41 -59 87 -74 116 -74c7 0 15 1 22 3l-103 108c-44 47 -73 53 -103 53c-24 0 -41 -15 -41 -43c0 -20 6 -38 16 -50
l-119 -39c-19 22 -34 56 -34 96c0 91 71 154 167 154c73 0 137 -27 202 -101l87 -97c2 8 3 18 3 27c0 94 -75 144 -124 194l-42 40v39h-333v109zM717 495v67h-259v-4l33 -32c44 -42 75 -80 92 -128c4 -9 6 -19 8 -29c21 19 55 44 90 44c17 0 27 -2 39 -7c-2 23 -3 74 -3 89z
" />
    <glyph glyph-name="bnP_SA" horiz-adv-x="1094" 
d="M416 671h698v-109h-100v-562h-141v244c0 22 -14 36 -35 36c-37 0 -62 -28 -106 -100c-49 -80 -125 -122 -197 -122c-54 0 -120 7 -189 57l65 98c24 -19 49 -28 72 -33l-30 69c-8 18 -16 36 -25 54l-280 -178l-65 92l76 47c-14 30 -37 58 -74 70c-12 4 -25 7 -41 8l-61 90
c47 65 131 125 252 125c177 0 265 -135 324 -266l45 -99c23 22 31 59 31 97c0 94 -74 145 -123 195l-43 39v39h-53v109zM145 419c43 -15 82 -48 109 -97l112 69c-33 34 -74 55 -126 55c-47 0 -72 -10 -95 -27zM873 495v67h-259v-4l33 -32c45 -43 77 -83 94 -133
c3 -8 5 -16 7 -24c21 19 54 44 89 44c17 0 27 -2 39 -7c-2 23 -3 74 -3 89z" />
    <glyph glyph-name="bnK_RA" horiz-adv-x="1002" 
d="M355 329c0 -23 10 -39 34 -39c18 0 32 10 39 17l39 -96c-22 -20 -62 -28 -96 -28c-94 0 -138 61 -138 137c0 108 95 210 242 210c77 0 120 -37 135 -83c43 41 97 56 152 56c104 0 195 -71 195 -188c0 -105 -63 -186 -178 -186c-43 0 -83 10 -113 23l30 109
c21 -9 43 -14 70 -14c44 0 64 30 64 68c0 40 -33 67 -84 67c-77 0 -129 -71 -129 -169v-283h-118c0 82 -51 98 -182 108c-196 14 -284 90 -284 206c0 47 18 87 38 114l114 -43c-13 -15 -25 -38 -25 -71c0 -56 46 -89 167 -98c123 -9 148 -24 183 -47h4
c-12 49 -18 117 -18 172v113c0 24 -12 35 -37 35c-54 0 -104 -39 -104 -90zM-20 562v109h1042v-109h-1042z" />
    <glyph glyph-name="bnKH_RA" horiz-adv-x="742" 
d="M538 -133c-6 57 -40 81 -117 81c-38 0 -94 -2 -138 -2c-174 0 -245 102 -245 207l131 29c0 -54 22 -120 120 -120c40 0 99 3 133 3c47 0 94 -9 123 -40h4c-9 28 -12 69 -13 99l-436 131v123c194 11 259 63 259 126c0 13 -2 23 -6 29c-20 -43 -62 -83 -140 -83
c-91 0 -154 58 -154 140c0 42 14 73 26 88h127c-18 -26 -28 -51 -28 -79c0 -24 15 -43 45 -43c40 0 66 42 91 115h72c40 -33 88 -93 88 -177c0 -91 -50 -145 -166 -176v-4l223 -67l3 2c-5 69 -8 122 -8 219v305h130v-102h100v-109h-100v-695h-124z" />
    <glyph glyph-name="bnG_RA" horiz-adv-x="659" 
d="M579 773v-102h100v-109h-100v-625h-123c-6 57 -45 81 -117 81c-38 0 -49 -2 -90 -2c-167 0 -238 102 -238 207l131 29c0 -54 22 -120 120 -120c40 0 52 3 90 3c35 0 79 -8 111 -40h4c-11 36 -14 94 -14 122v174c0 108 -54 166 -147 166c-47 0 -88 -18 -115 -44
c17 4 35 5 49 5c81 0 143 -53 143 -144c0 -64 -32 -132 -103 -185l-106 84c44 31 77 63 77 103c0 24 -21 43 -63 43c-15 0 -34 -2 -52 -7l-90 112c40 70 129 154 253 154c79 0 134 -29 172 -69h4c-16 44 -23 96 -23 146v18h127z" />
    <glyph glyph-name="bnGH_RA" horiz-adv-x="651" 
d="M448 -132c-6 57 -45 81 -117 81c-38 0 -49 -2 -90 -2c-167 0 -238 102 -238 207l131 29c0 -54 22 -120 120 -120c40 0 52 3 90 3c35 0 79 -8 111 -40h4c-8 27 -12 65 -13 95l-356 108v115l25 15c40 25 76 35 76 35v5c-55 10 -111 40 -111 113c0 19 4 36 11 50h-111v109
h691v-109h-100v-694h-123zM448 247l3 2c-6 32 -10 82 -10 137v176h-213c-7 -12 -11 -25 -11 -39c0 -36 32 -53 65 -53c18 0 45 5 77 27l51 -109l-148 -84z" />
    <glyph glyph-name="bnNG_RA" horiz-adv-x="674" 
d="M361 570v-46c5 -1 11 -1 16 -1c36 0 53 20 53 47c0 21 -15 34 -36 34c-20 0 -33 -12 -33 -34zM542 -167h-123c-6 57 -35 81 -107 81c-38 0 -36 -2 -77 -2c-159 0 -215 102 -215 207l128 29c0 -54 15 -120 100 -120c38 0 44 3 77 3c35 0 69 -8 101 -40h4
c-10 32 -13 80 -14 111c-14 -2 -29 -3 -44 -3c-197 0 -322 151 -324 323l107 22c3 -174 112 -242 217 -242c88 0 140 48 140 98c0 15 -3 23 -7 29c-32 -19 -75 -41 -130 -41c-84 0 -125 52 -125 128v57c-40 21 -73 51 -100 89h-170v109h231l2 1c10 -32 24 -64 44 -90
c1 53 48 106 133 106c81 0 142 -41 142 -120c0 -82 -62 -125 -155 -125h-16v-27c0 -19 7 -28 26 -28c24 0 72 15 158 71c47 -32 82 -82 82 -152c0 -61 -30 -119 -85 -159v-315z" />
    <glyph glyph-name="bnC_RA" horiz-adv-x="605" 
d="M-20 562v109h645v-109h-308c16 -11 38 -22 69 -33l42 -15c81 -29 136 -59 136 -150c0 -36 -12 -72 -32 -104v-365h-123c-6 57 -35 81 -107 81c-38 0 -36 -2 -77 -2c-159 0 -215 102 -215 207l128 29c0 -54 15 -120 100 -120c38 0 44 3 77 3c35 0 69 -8 101 -40h4
c-9 31 -13 78 -14 109c-22 -8 -46 -12 -70 -12c-109 0 -166 65 -166 146v266h-190zM296 460h-4s6 -43 6 -113v-47c0 -18 9 -31 39 -31c39 0 102 35 102 97c0 30 -17 38 -48 49l-34 12c-34 12 -48 22 -61 33z" />
    <glyph glyph-name="bnCH_RA" horiz-adv-x="690" 
d="M262 562c7 -25 62 -30 112 -53c23 8 52 11 71 11c109 0 196 -71 196 -196c0 -101 -67 -186 -213 -208v-4c41 -10 77 -25 125 -47l112 -51l-83 -97c-13 6 -25 12 -37 18v-198h-123c-6 57 -35 81 -107 81c-38 0 -36 -2 -77 -2c-159 0 -215 102 -215 207l128 29
c0 -54 15 -120 100 -120c38 0 44 3 77 3c35 0 69 -8 101 -40h4c-9 29 -12 71 -14 102c-166 80 -191 84 -285 95v110h146c159 0 225 56 225 124c0 39 -15 66 -52 74v-5c0 -85 -72 -159 -175 -159c-93 0 -148 45 -148 120v206h-150v109h730v-109h-448zM334 398
c0 35 -60 33 -76 48v-83c0 -11 7 -20 21 -20c34 0 55 26 55 55z" />
    <glyph glyph-name="bnJ_RA" horiz-adv-x="909" 
d="M677 -253c-6 57 -51 81 -133 81c-28 0 -219 -2 -260 -2c-175 0 -252 102 -252 207l128 29c0 -54 39 -120 137 -120c38 0 237 3 252 3c53 0 103 -12 135 -50h4c-11 36 -14 104 -14 132v102c0 74 8 149 37 210c-133 15 -196 92 -225 158c-53 -40 -77 -68 -77 -97
c0 -13 6 -24 39 -28l105 -13c34 -34 62 -80 62 -140c0 -96 -68 -190 -224 -190c-194 0 -326 161 -355 354l127 46c17 -153 100 -275 226 -275c68 0 91 24 91 62c0 19 -6 28 -10 34l-83 10c-90 11 -126 51 -126 113c0 84 61 143 119 189h-400v109h949v-109h-342
c19 -53 78 -105 195 -105h23l48 -104c-37 -66 -53 -152 -53 -235v-371h-123z" />
    <glyph glyph-name="bnJH_RA" horiz-adv-x="879" 
d="M413 262h5c-5 43 -9 103 -9 151v7c-53 -21 -111 -50 -163 -83zM668 467v306h131v-102h100v-109h-100v-339l-113 -55l-148 78v-351h-123c-6 57 -35 81 -107 81c-38 0 -36 -2 -77 -2c-159 0 -215 102 -215 207l128 29c0 -54 15 -120 100 -120c38 0 44 3 77 3
c35 0 69 -8 101 -40h4c-7 23 -11 54 -13 81l-298 133v125c108 76 208 122 294 151v19h-429v109h558v-284l139 -76h4c-8 25 -13 95 -13 156z" />
    <glyph glyph-name="bnNY_RA" horiz-adv-x="870" 
d="M414 681c63 0 98 -29 117 -63c19 24 64 62 135 62c89 0 148 -58 148 -135c0 -49 -24 -91 -70 -109v-4c50 -13 82 -54 82 -110c0 -75 -52 -140 -145 -140c-38 0 -96 15 -123 45c9 -44 9 -99 9 -128v-265h-123c-6 57 -35 81 -107 81c-38 0 -36 -2 -77 -2
c-159 0 -215 102 -215 207l128 29c0 -54 15 -120 100 -120c38 0 44 3 77 3c35 0 69 -8 101 -40h4c-11 36 -14 84 -14 112c0 47 -43 56 -165 67c-183 16 -253 95 -253 207c0 49 17 88 35 114l116 -41c-12 -14 -24 -39 -24 -69c0 -52 34 -85 134 -92c106 -8 130 -20 164 -45h5
c-11 46 -16 113 -16 165v126c0 22 -12 33 -35 33c-52 0 -88 -46 -88 -94c0 -22 9 -37 31 -37c17 0 31 10 37 16l34 -86c-20 -18 -52 -30 -84 -30c-85 0 -137 55 -137 136c0 107 84 207 219 207zM649 566c-44 0 -86 -37 -86 -134c0 -84 36 -135 96 -135c30 0 47 18 47 44
c0 28 -23 43 -57 43h-29v95h23c34 0 53 17 53 46c0 24 -17 41 -47 41z" />
    <glyph glyph-name="bnTT_RA" horiz-adv-x="614" 
d="M3 954l133 21c-2 -9 -3 -18 -3 -27c0 -40 20 -82 106 -82h98c109 0 205 -59 205 -177c0 -6 0 -12 -1 -18h93v-109h-370v-278c0 -28 19 -47 55 -47c60 0 118 46 118 106c0 31 -18 46 -44 46c-13 0 -29 -6 -37 -16l-57 107c22 20 66 36 102 36c90 0 168 -55 168 -175
c0 -39 -13 -78 -35 -112v-384h-123c-6 57 -35 81 -107 81c-38 0 -36 -2 -77 -2c-159 0 -215 102 -215 207l128 29c0 -54 15 -120 100 -120c38 0 44 3 77 3c35 0 69 -8 101 -40h4c-11 36 -14 94 -14 122v6c-28 -10 -58 -16 -89 -16c-127 0 -189 69 -189 167v280h-150v109h428
v9c0 54 -33 70 -98 70h-77c-172 0 -232 91 -232 179c0 8 1 17 2 25z" />
    <glyph glyph-name="bnTTH_RA" horiz-adv-x="598" 
d="M595 286c0 -58 -17 -109 -48 -149v-360h-123c-6 57 -35 81 -107 81c-38 0 -36 -2 -77 -2c-159 0 -215 102 -215 207l128 29c0 -54 15 -120 100 -120c38 0 44 3 77 3c35 0 69 -8 101 -40h4c-11 36 -14 94 -14 122c-24 -6 -49 -9 -77 -9c-174 0 -275 135 -275 290
c124 32 194 92 194 199v19l-5 6h-278v109h200c-25 36 -43 79 -43 124c0 104 73 180 193 173l26 -120c-54 7 -81 -19 -81 -60c0 -40 17 -76 47 -117h330v-109h-228c97 -105 171 -156 171 -276zM369 447c-13 -106 -96 -158 -152 -177c6 -36 44 -102 129 -102
c66 0 116 44 116 117c0 74 -45 103 -93 162z" />
    <glyph glyph-name="bnDD_RA" horiz-adv-x="726" 
d="M746 562h-348v-101c0 -27 11 -33 25 -33c27 0 91 40 152 83c54 -33 100 -106 100 -188c0 -65 -22 -120 -63 -161v-355h-123c-6 57 -35 81 -107 81c-38 0 -76 -2 -117 -2c-159 0 -215 102 -215 207l128 29c0 -54 15 -120 100 -120c38 0 84 3 117 3c35 0 69 -8 101 -40h4
c-11 36 -14 94 -14 122v7c-28 -7 -58 -10 -90 -10c-221 0 -352 168 -354 373l131 30c0 -208 112 -279 223 -279c87 0 146 40 146 107c0 14 -3 28 -9 40c-32 -25 -77 -52 -132 -52c-92 0 -142 61 -142 153v106h-279v109h766v-109z" />
    <glyph glyph-name="bnDDH_RA" horiz-adv-x="614" 
d="M264 562v-278c0 -28 19 -47 55 -47c60 0 118 46 118 106c0 31 -18 46 -44 46c-13 0 -29 -6 -37 -16l-57 107c22 20 66 36 102 36c90 0 168 -55 168 -175c0 -39 -13 -78 -35 -112v-392h-123c-6 57 -35 81 -107 81c-38 0 -36 -2 -77 -2c-159 0 -215 102 -215 207l128 29
c0 -54 15 -120 100 -120c38 0 44 3 77 3c35 0 69 -8 101 -40h4c-11 36 -14 94 -14 122v14c-28 -10 -58 -16 -89 -16c-127 0 -189 69 -189 167v280h-150v109h654v-109h-370z" />
    <glyph glyph-name="bnNN_RA" horiz-adv-x="584" 
d="M257 569c-58 0 -92 -32 -92 -83c0 -41 27 -68 72 -68c26 0 47 12 62 24l37 -99c-25 -19 -64 -30 -101 -30c-120 0 -184 79 -184 173c0 106 70 184 193 184c78 0 130 -35 158 -74l4 3c-16 38 -16 80 -16 132v42h114v-102h100v-109h-100v-620h-115c-6 57 -25 81 -97 81
c-28 0 -45 -2 -76 -2c-159 0 -206 102 -206 207l128 29c0 -54 19 -120 94 -120c31 0 43 3 73 3c35 0 59 -8 91 -40h4c-11 36 -14 94 -14 122v135c0 95 -17 212 -129 212z" />
    <glyph glyph-name="bnT_RA" horiz-adv-x="686" 
d="M344 329c0 51 50 90 104 90c25 0 37 -11 37 -35v-113c0 -55 6 -123 18 -172h-4c-35 23 -60 38 -183 47c-121 9 -167 42 -167 98c0 33 12 56 25 71l-114 43c-20 -27 -38 -67 -38 -114c0 -116 88 -192 284 -206c131 -10 182 -26 182 -108h118v474c0 65 -43 126 -142 126
c-147 0 -242 -102 -242 -210c0 -76 44 -137 138 -137c34 0 74 8 96 28l-39 96c-7 -7 -21 -17 -39 -17c-24 0 -34 16 -34 39zM-20 562v109h726v-109h-726z" />
    <glyph glyph-name="bnTH_RA" horiz-adv-x="666" 
d="M190 475l-112 -38c-15 21 -26 45 -26 83c0 94 72 159 179 159c98 0 185 -63 185 -177c0 -67 -35 -133 -133 -168v-4l174 -59h4s-5 46 -5 138v364h130v-102h100v-109h-100v-655h-123c-6 57 -35 81 -107 81c-38 0 -85 -2 -126 -2c-159 0 -215 102 -215 207l128 29
c0 -54 15 -120 100 -120c38 0 93 3 126 3c35 0 69 -8 101 -40h4c-8 25 -11 61 -13 90l-391 131v112c140 2 224 31 224 107c0 36 -24 63 -61 63c-34 0 -55 -23 -55 -54c0 -18 6 -30 12 -39z" />
    <glyph glyph-name="bnD_RA" horiz-adv-x="625" 
d="M645 562h-395v-167c49 48 141 95 217 123l101 -62c-31 -81 -41 -193 -41 -284v-272h-123c-6 57 -35 81 -107 81c-38 0 -36 -2 -77 -2c-159 0 -215 102 -215 207l128 29c0 -54 15 -120 100 -120c38 0 44 3 77 3c35 0 69 -8 101 -40h4c-11 36 -14 94 -14 122v21
c0 91 9 125 25 161c-62 -36 -114 -74 -184 -147l-127 47v300h-135v109h665v-109z" />
    <glyph glyph-name="bnDH_RA" horiz-adv-x="624" 
d="M205 519c0 -36 37 -49 67 -49c48 0 98 22 141 48v153h231v-109h-100v-705h-123c-6 57 -35 81 -107 81c-38 0 -36 -2 -77 -2c-159 0 -215 102 -215 207l128 29c0 -54 15 -120 100 -120c38 0 44 3 77 3c35 0 69 -8 101 -40h4c-9 30 -13 76 -14 106l-333 104v120l18 10
c41 23 76 35 76 35v5c-55 10 -111 51 -111 128c0 99 72 162 174 162c39 0 84 -9 113 -32l-34 -102c-23 13 -44 17 -61 17c-30 0 -55 -15 -55 -49zM420 246l3 2c-6 32 -10 82 -10 135l-167 -85z" />
    <glyph glyph-name="bnN_RA" horiz-adv-x="610" 
d="M-20 562v109h650v-109h-101v-643h-123c-6 57 -35 81 -107 81c-38 0 -36 -2 -77 -2c-159 0 -215 102 -215 207l128 29c0 -54 15 -120 100 -120c38 0 44 3 77 3c35 0 69 -8 101 -40h4c-11 36 -14 94 -14 122v52c-49 74 -100 138 -165 138c-32 0 -53 -17 -53 -45
c0 -20 8 -34 18 -46l-108 -39c-19 22 -34 53 -34 93c0 91 64 153 166 153c82 0 142 -39 176 -84l4 1c-5 32 -8 76 -8 122v18h-419z" />
    <glyph glyph-name="bnP_RA" horiz-adv-x="676" 
d="M185 529c46 -13 87 -44 112 -92l115 73c-27 34 -64 54 -115 54c-52 0 -88 -18 -112 -35zM93 446l-60 103c49 65 144 131 254 131c112 0 170 -56 200 -95l3 2c-24 59 -25 127 -25 163v23h131v-102h100v-109h-100v-645h-126c-6 57 -35 81 -107 81c-38 0 -96 -2 -137 -2
c-159 0 -215 102 -215 207l128 29c0 -54 15 -120 100 -120c38 0 104 3 137 3c35 0 69 -8 101 -40h4c-11 36 -14 94 -14 122v108c0 33 -3 65 -8 95l-284 -183l-65 100l85 54c-11 22 -27 41 -47 54c-15 10 -32 18 -55 21z" />
    <glyph glyph-name="bnPH_RA" horiz-adv-x="849" 
d="M446 -155c-6 57 -35 81 -107 81c-38 0 -36 -2 -77 -2c-159 0 -215 102 -215 207l128 29c0 -54 15 -120 100 -120c38 0 44 3 77 3c35 0 69 -8 101 -40h4c-8 25 -12 62 -13 91l-339 121v116l120 91l-120 101v39h-125v109h889v-109h-624v-4l111 -93v-94l-110 -82l194 -70h4
c-7 50 -12 140 -12 195v66c38 21 102 38 165 38c124 0 223 -70 223 -200c0 -113 -73 -166 -131 -190l-69 108c30 8 71 32 71 84s-36 78 -83 78c-13 0 -27 -3 -39 -7v-546h-123z" />
    <glyph glyph-name="bnB_RA" horiz-adv-x="618" 
d="M638 562h-100v-665h-123c-6 57 -35 81 -107 81c-38 0 -36 -2 -77 -2c-159 0 -215 102 -215 207l128 29c0 -54 15 -120 100 -120c38 0 44 3 77 3c35 0 69 -8 101 -40h4c-7 22 -11 53 -12 79l-299 133v125c108 76 208 122 294 151v19h-429v109h658v-109zM413 262h5
c-5 43 -9 103 -9 151v7c-54 -22 -113 -51 -163 -83z" />
    <glyph glyph-name="bnBH_RA" horiz-adv-x="635" 
d="M557 -85h-123c-6 57 -35 81 -107 81c-38 0 -36 -2 -77 -2c-159 0 -215 102 -215 207l128 29c0 -54 15 -120 100 -120c38 0 44 3 77 3c35 0 69 -8 101 -40h4c-11 36 -14 94 -14 122v63c0 40 -8 78 -18 92h-4c-13 -42 -59 -107 -157 -107c-105 0 -162 68 -162 148
c0 41 12 67 19 81l129 -17c-9 -15 -15 -36 -15 -54c0 -25 13 -41 41 -41c41 0 72 45 95 133h109c42 -39 89 -110 89 -239v-339zM655 562h-675v109h675v-109z" />
    <glyph glyph-name="bnM_RA" horiz-adv-x="640" 
d="M-20 671h679v-109h-77c10 -16 19 -41 19 -79s-12 -84 -46 -116v-422h-123c-6 57 -35 81 -107 81c-38 0 -36 -2 -77 -2c-152 0 -210 92 -215 192l129 29c1 -50 24 -105 99 -105c38 0 44 3 77 3c35 0 69 -8 101 -40h4c-11 36 -14 94 -14 122v102c-108 3 -162 76 -224 76
c-33 0 -49 -20 -49 -45c0 -14 5 -27 11 -36l-109 -40c-15 19 -28 50 -28 86c0 60 26 113 79 139c-3 21 -9 39 -19 55h-110v109zM415 450c39 0 58 24 58 56s-20 56 -58 56h-183c5 -14 8 -29 11 -45c75 -18 121 -67 172 -67z" />
    <glyph glyph-name="bnSH_RA" horiz-adv-x="667" 
d="M40 291v111c12 -2 24 -3 38 -3c53 0 87 24 87 82c0 53 -29 81 -92 81h-93v109h100c61 0 109 -18 145 -51c34 34 76 54 131 54c69 0 101 -28 115 -43h4c-7 28 -13 75 -13 105v37h125v-102h100v-109h-100v-626h-126c-6 57 -35 81 -107 81c-38 0 -71 -2 -112 -2
c-159 0 -220 102 -220 207l128 29c0 -54 20 -120 105 -120c38 0 79 3 112 3c35 0 69 -8 101 -40h4c-11 36 -14 94 -14 122v233c0 77 -35 112 -92 112c-50 0 -81 -27 -81 -81c0 -52 39 -79 88 -79c10 0 20 1 30 3v-112c-8 -2 -21 -4 -37 -4c-55 0 -105 21 -140 57
c-37 -38 -86 -60 -141 -60c-18 0 -34 3 -45 6z" />
    <glyph glyph-name="bnS_RA" horiz-adv-x="716" 
d="M89 501c26 -28 50 -44 80 -44c48 0 71 45 80 105h-269v109h756v-109h-85c4 -20 6 -38 6 -56c0 -66 -29 -117 -81 -144v-362h-123c-6 57 -35 81 -107 81c-38 0 -36 -2 -77 -2c-159 0 -215 102 -215 207l128 29c0 -54 15 -120 100 -120c38 0 44 3 77 3c35 0 69 -8 101 -40
h4c-11 36 -14 94 -14 122v65c-57 6 -103 29 -134 94c-26 -57 -75 -94 -147 -94c-49 0 -108 21 -147 70zM530 518c0 19 -3 34 -8 44h-133c4 -59 33 -107 85 -107c39 0 56 29 56 63z" />
    <glyph glyph-name="bnSS_RA" horiz-adv-x="597" 
d="M617 562h-87c15 -28 23 -61 23 -100c0 -51 -13 -94 -35 -129v-376h-123c-6 57 -35 81 -107 81c-21 0 -38 -1 -58 -1c-159 0 -215 103 -215 208l128 29c0 -54 15 -120 100 -120c25 0 40 1 58 1c35 0 69 -8 101 -40h4c-11 36 -14 94 -14 122v8c-22 -6 -46 -9 -71 -9
c-134 0 -231 84 -231 226c0 39 8 72 23 100h-133v109h637v-109zM321 565c-17 0 -33 -3 -47 -10l144 -139c5 14 8 29 8 46c0 63 -43 103 -105 103zM321 351c19 0 37 4 52 12l-147 139c-5 -12 -7 -25 -7 -40c0 -66 42 -111 102 -111z" />
    <glyph glyph-name="bnY_RA" horiz-adv-x="649" 
d="M442 221h2c-7 50 -12 139 -12 193v148h-187v-4l111 -93v-94l-110 -82l194 -70h2v2zM445 -163c-6 57 -35 81 -107 81c-21 0 -68 -1 -88 -1c-159 0 -215 103 -215 208l128 29c0 -54 15 -120 100 -120c25 0 70 1 88 1c35 0 69 -8 101 -40h4c-9 28 -12 69 -13 99l-338 121
v116l120 91l-120 101v39h-125v109h689v-109h-100v-422l-1 -1v-302h-123z" />
    <glyph glyph-name="bnL_RA" horiz-adv-x="706" 
d="M726 562h-100v-747h-124c-6 57 -35 81 -107 81c-38 0 -36 -2 -77 -2c-159 0 -215 102 -215 207l128 29c0 -54 15 -120 100 -120c38 0 44 3 77 3c35 0 69 -8 101 -40h4c-11 36 -14 94 -14 122v275c-8 18 -31 34 -58 34c-38 0 -63 -29 -63 -77v-21h-117v21
c0 55 -26 74 -56 74c-31 0 -62 -25 -62 -75c0 -48 31 -63 73 -63c8 0 17 1 26 3l8 -113c-17 -4 -35 -6 -52 -6c-93 0 -180 53 -180 176s84 195 175 195c75 0 115 -43 126 -77h5c10 42 50 79 101 79c36 0 61 -15 69 -24h5v66h-519v109h746v-109z" />
    <glyph glyph-name="bnH_RA" horiz-adv-x="577" 
d="M-20 671h617v-109h-617v109zM321 191v-4c34 -8 79 -19 132 -44l126 -60l-75 -86c-9 4 -17 8 -25 12v-184h-123c-6 57 -27 81 -99 81c-21 0 -28 -1 -48 -1c-137 0 -198 78 -204 177l126 31c5 -49 21 -91 91 -91c25 0 30 1 48 1c35 0 65 -7 93 -38h4c-7 24 -11 59 -13 87
c-109 54 -163 79 -223 80v106h60c104 0 168 32 168 101c0 40 -21 65 -58 65c-25 0 -45 -15 -45 -40c0 -18 8 -33 30 -43l-88 -61c-50 28 -66 66 -66 108c0 81 60 143 165 143c109 0 185 -67 185 -171c0 -103 -77 -157 -161 -169z" />
    <glyph glyph-name="bnK_SS_RA" horiz-adv-x="968" 
d="M575 172c-7 46 -12 105 -13 156h-30c-132 0 -196 61 -196 195v39h-147c19 -30 33 -68 36 -110c75 -27 143 -95 157 -191c98 -11 167 -55 193 -89zM523 449h38v113h-96v-44c0 -61 28 -69 58 -69zM988 562h-291v-112h10c150 0 214 -80 214 -181c0 -97 -66 -151 -123 -171
l-67 101c28 7 64 33 64 72c0 43 -28 58 -80 58h-18v-562h-123c-6 57 -43 81 -115 81c-38 0 -160 -2 -201 -2c-137 0 -195 71 -209 159l125 41c7 -44 30 -84 97 -84c38 0 168 3 201 3c35 0 77 -8 109 -40h4c-5 16 -8 37 -11 58c-31 91 -106 152 -200 167
c-21 -60 -67 -87 -108 -87c-48 0 -90 30 -90 86c0 45 34 84 86 103c-9 37 -29 66 -57 86c-23 -45 -62 -65 -98 -65c-48 0 -90 30 -90 86c0 49 34 86 85 101c-8 44 -30 77 -55 102h-67v109h1008v-109z" />
    <glyph glyph-name="bnJ_NY_RA" horiz-adv-x="904" 
d="M427 562c-43 -37 -77 -109 -77 -157c0 -27 24 -35 57 -39l114 -14c-59 45 -87 120 -90 210h-4zM422 -255c-6 57 -35 81 -107 81c-38 0 -36 -2 -77 -2c-159 0 -215 102 -215 207l128 29c0 -54 15 -120 100 -120c38 0 44 3 77 3c35 0 69 -8 101 -40h4
c-10 31 -13 79 -14 109c-15 -2 -30 -3 -47 -3c-194 0 -322 163 -351 356l121 44c17 -153 102 -275 228 -275c68 0 103 34 103 72c0 19 -6 28 -10 34l-96 12c-90 11 -148 53 -148 138c0 62 25 131 54 172h-293v109h944v-109h-373c3 -38 13 -69 30 -95c31 30 73 48 127 48
c97 0 151 -62 151 -134c0 -49 -28 -88 -73 -103v-4c49 -13 85 -50 85 -107c0 -67 -50 -137 -148 -137c-70 0 -120 25 -154 66c-7 -9 -15 -17 -23 -26v-325h-124zM740 372c0 24 -18 39 -47 39c-45 0 -91 -41 -91 -137c0 -84 41 -138 102 -138c27 0 47 15 47 42
c0 32 -27 47 -67 47h-23v97h23c36 0 56 19 56 50z" />
    <glyph glyph-name="bnNG_K_RA" horiz-adv-x="839" 
d="M606 562c0 -73 23 -100 57 -100s44 31 44 60c0 16 -3 32 -6 40h-95zM-20 562v109h879v-109h-47c6 -19 8 -38 8 -55c0 -85 -52 -148 -156 -148c-99 0 -177 69 -177 203h-507zM398 56c-5 43 -9 83 -9 131c-52 -15 -97 -40 -135 -68l139 -63h5zM188 260
c-43 33 -58 72 -58 114c0 88 66 157 173 157c137 0 208 -95 208 -212v-4c176 -7 240 -104 240 -188c0 -88 -66 -136 -125 -155l-62 100c28 5 64 21 64 63c0 40 -42 63 -117 67v-502h-123c-6 57 -35 81 -107 81c-21 0 -38 -1 -58 -1c-149 0 -207 91 -214 189l127 32
c3 -50 23 -104 100 -104c25 0 40 1 58 1c35 0 69 -8 101 -40h4c-6 21 -10 50 -12 75l-258 114v124c47 41 137 109 260 135v13c0 65 -26 101 -78 101c-32 0 -54 -23 -54 -54c0 -14 6 -31 20 -44z" />
    <glyph glyph-name="bnSS_K_RA" horiz-adv-x="1099" 
d="M1119 562h-640c11 -21 19 -46 22 -74c25 8 52 12 82 12c77 0 120 -37 135 -83c43 41 97 56 152 56c104 0 195 -71 195 -188c0 -105 -63 -186 -178 -186c-43 0 -83 10 -113 23l30 109c21 -9 43 -14 70 -14c44 0 64 30 64 68c0 40 -33 67 -84 67c-77 0 -129 -71 -129 -169
v-283h-118c0 82 -51 98 -182 108c-196 14 -284 90 -284 206c0 18 3 35 7 50c-67 36 -109 105 -109 198c0 39 8 72 23 100h-82v109h1139v-109zM270 565c-17 0 -33 -3 -47 -10l144 -139c5 14 8 29 8 46c0 63 -43 103 -105 103zM463 299c0 -23 10 -39 34 -39c18 0 32 10 39 17
l39 -96c-22 -20 -62 -28 -96 -28c-75 0 -118 39 -133 93c-23 -7 -49 -10 -76 -10c-1 -7 -2 -14 -2 -22c0 -56 46 -89 167 -98c123 -9 148 -24 183 -47h4c-12 49 -18 117 -18 172v113c0 24 -12 35 -37 35c-54 0 -104 -39 -104 -90zM270 351c19 0 37 4 52 12l-147 139
c-5 -12 -7 -25 -7 -40c0 -66 42 -111 102 -111z" />
    <glyph glyph-name="bnS_K_RA" horiz-adv-x="1181" 
d="M80 501c26 -28 50 -44 80 -44c48 0 71 45 80 105h-260v109h1221v-109h-559c4 -20 6 -38 6 -56v-6h17c77 0 120 -37 135 -83c43 41 97 56 152 56c104 0 195 -71 195 -188c0 -105 -63 -186 -178 -186c-43 0 -83 10 -113 23l30 109c21 -9 43 -14 70 -14c44 0 64 30 64 68
c0 40 -33 67 -84 67c-77 0 -129 -71 -129 -169v-283h-118c0 82 -51 98 -182 108c-196 14 -284 90 -284 206c0 47 18 87 38 114l114 -43c-13 -15 -25 -38 -25 -71c0 -56 46 -89 167 -98c123 -9 148 -24 183 -47h4c-12 49 -18 117 -18 172v113c0 24 -12 35 -37 35
c-54 0 -104 -39 -104 -90c0 -23 10 -39 34 -39c18 0 32 10 39 17l39 -96c-22 -20 -62 -28 -96 -28c-94 0 -138 61 -138 137c0 19 3 38 9 57c-54 9 -97 36 -125 92c-26 -57 -75 -94 -147 -94c-49 0 -108 21 -147 70zM521 518c0 19 -3 34 -8 44h-133c4 -59 33 -107 85 -107
c39 0 56 29 56 63z" />
    <glyph glyph-name="bnNG_GH_RA" horiz-adv-x="1178" 
d="M346 564v-44c6 -1 11 -1 17 -1c38 0 56 19 56 45c0 19 -14 34 -38 34c-20 0 -35 -11 -35 -34zM1098 -132h-123c-6 57 -45 81 -117 81c-38 0 -119 -2 -160 -2c-137 0 -209 69 -231 151c-32 -7 -68 -11 -108 -11c-217 0 -343 153 -345 333l114 21c3 -179 118 -242 231 -242
c83 0 147 30 147 86c0 11 -4 26 -8 30c-38 -21 -79 -42 -136 -42c-90 0 -141 56 -141 135v61c-44 22 -82 54 -111 93h-130v109h199c11 -34 28 -67 52 -93c2 54 52 107 143 107c27 0 52 -5 74 -14h750v-109h-100v-694zM982 26h4c-8 27 -12 65 -13 95l-353 107
c-6 -21 -16 -40 -29 -57c4 -51 29 -108 120 -108c40 0 122 3 160 3c35 0 79 -8 111 -40zM542 453c37 -24 67 -59 80 -106l20 12c40 25 76 35 76 35v5c-55 10 -111 40 -111 113c0 19 4 36 11 50h-89v-4c0 -77 -67 -123 -164 -123c-6 0 -13 0 -19 1v-20c0 -19 8 -28 25 -28
c22 0 69 5 171 65zM975 247l3 2c-6 32 -10 82 -10 137v176h-213c-7 -12 -11 -25 -11 -39c0 -36 32 -53 65 -53c18 0 45 5 77 27l51 -109l-148 -84z" />
    <glyph glyph-name="bnC_CH_RA" horiz-adv-x="1020" 
d="M196 416h-4s7 -50 7 -132v-29c0 -24 10 -39 44 -39c51 0 97 48 97 98c0 33 -18 45 -56 58l-14 5c-39 14 -59 26 -74 39zM593 562c7 -25 62 -30 112 -53c23 8 52 11 71 11c109 0 196 -71 196 -196c0 -101 -67 -186 -213 -208v-4c41 -10 77 -25 125 -47l112 -51l-83 -97
c-16 8 -32 16 -47 23v-203h-123c-6 57 -35 81 -107 81c-21 0 -38 -1 -58 -1c-159 0 -215 103 -215 208l128 29c0 -54 15 -120 100 -120c25 0 40 1 58 1c35 0 69 -8 101 -40h4c-9 30 -13 76 -14 106c-157 76 -183 80 -275 91v110h146c159 0 225 56 225 124
c0 39 -15 66 -52 74v-5c0 -85 -72 -159 -175 -159c-69 0 -117 25 -137 68c-6 -106 -99 -206 -231 -206c-117 0 -176 64 -176 158v306h-85v109h1060v-109h-447zM665 398c0 35 -60 33 -76 48v-83c0 -11 7 -20 21 -20c34 0 55 26 55 55zM327 485c69 -24 114 -55 134 -105v182
h-267c9 -27 38 -43 110 -69z" />
    <glyph glyph-name="bnK_TT_RA" horiz-adv-x="706" 
d="M71 954l133 21c-2 -9 -3 -18 -3 -27c0 -40 20 -82 106 -82h120c109 0 205 -59 205 -177c0 -6 0 -12 -1 -18h95v-109h-282v-17c171 -9 233 -95 233 -171c0 -96 -66 -144 -125 -163l-62 100c28 5 64 21 64 63c0 39 -40 55 -110 58v-211l-16 -3c-83 -19 -137 -59 -137 -133
c0 -55 38 -96 120 -96c59 0 86 21 86 51c0 18 -14 30 -36 30c-14 0 -30 -5 -39 -12l-49 93c20 17 54 31 95 31c83 0 151 -50 151 -144c0 -54 -25 -96 -67 -124v-288h-123c-6 57 -35 81 -107 81c-21 0 -38 -1 -58 -1c-159 0 -215 103 -215 208l128 29c0 -54 15 -120 100 -120
c25 0 40 1 58 1c35 0 69 -8 101 -40h4c-8 26 -12 63 -13 92h-16c-168 0 -246 101 -246 207c0 57 20 101 50 134l-170 74v118c46 46 144 106 270 128v25h-335v109h518v9c0 54 -33 70 -98 70h-99c-172 0 -232 91 -232 179c0 8 1 17 2 25zM319 293h5c-4 36 -8 84 -9 126
c-54 -13 -101 -36 -139 -65z" />
    <glyph glyph-name="bnNN_TT_RA" horiz-adv-x="912" 
d="M279 954l133 21c-2 -9 -3 -18 -3 -27c0 -40 20 -82 106 -82h120c109 0 205 -59 205 -177c0 -6 0 -12 -1 -18h93v-109h-370v-278c0 -28 19 -47 55 -47c60 0 118 46 118 106c0 31 -18 46 -44 46c-13 0 -29 -6 -37 -16l-57 107c22 20 66 36 102 36c90 0 168 -55 168 -175
c0 -55 -24 -108 -65 -149v-343h-123c-6 57 -35 81 -107 81c-21 0 -68 -1 -88 -1c-159 0 -215 103 -215 208l128 29c0 -54 15 -120 100 -120c25 0 70 1 88 1c35 0 69 -8 101 -40h4c-10 33 -13 85 -14 115c-19 -5 -39 -7 -59 -7c-127 0 -189 69 -189 167v11
c0 117 -20 255 -155 255c-70 0 -111 -37 -111 -98c0 -50 33 -82 87 -82c31 0 56 14 74 29l44 -119c-30 -23 -76 -37 -121 -37c-144 0 -221 96 -221 208c0 127 84 221 232 221c76 0 131 -27 167 -68h4v69h278v9c0 54 -33 70 -98 70h-99c-172 0 -232 91 -232 179
c0 8 1 17 2 25z" />
    <glyph glyph-name="bnTT_TT_RA" horiz-adv-x="656" 
d="M-3 954l133 21c-2 -9 -3 -18 -3 -27c0 -40 20 -82 106 -82h120c109 0 205 -59 205 -177c0 -6 0 -12 -1 -18h118v-109h-395v-251c0 -33 29 -47 64 -47c60 0 109 30 109 75c0 30 -18 45 -44 45c-13 0 -29 -6 -37 -16l-57 107c22 20 66 36 102 36c90 0 168 -56 168 -172
c0 -24 -4 -47 -12 -68c27 -37 40 -81 40 -126c0 -71 -27 -129 -74 -169v-339h-123c-6 57 -35 81 -107 81c-21 0 -38 -1 -58 -1c-159 0 -215 103 -215 208l128 29c0 -54 15 -120 100 -120c25 0 40 1 58 1c35 0 69 -8 101 -40h4c-11 36 -14 94 -14 122v6c-19 -3 -39 -5 -60 -5
c-149 0 -270 78 -341 206l99 89c56 -109 132 -170 241 -170c76 0 123 39 123 103c0 7 -1 14 -2 20c-36 -19 -80 -29 -128 -29c-140 0 -199 74 -199 163v262h-166v109h444v9c0 54 -33 70 -98 70h-99c-172 0 -232 91 -232 179c0 8 1 17 2 25z" />
    <glyph glyph-name="bnN_TT_RA" horiz-adv-x="833" 
d="M200 954l133 21c-2 -9 -3 -18 -3 -27c0 -40 20 -82 106 -82h120c109 0 205 -59 205 -177c0 -6 0 -12 -1 -18h93v-109h-370v-298c0 -28 13 -47 45 -47c63 0 128 62 128 124c0 35 -18 50 -44 50c-13 0 -29 -6 -37 -16l-57 107c22 20 66 36 102 36c90 0 168 -56 168 -176
c0 -61 -31 -129 -85 -178v-334h-123c-6 57 -35 81 -107 81c-21 0 -48 -1 -68 -1c-159 0 -215 103 -215 208l128 29c0 -54 15 -120 100 -120c25 0 50 1 68 1c35 0 69 -8 101 -40h4c-9 31 -13 79 -14 109c-20 -5 -40 -7 -62 -7c-85 0 -136 41 -156 99c-28 92 -75 205 -154 205
c-31 0 -53 -17 -53 -47c0 -18 8 -32 18 -44l-107 -38c-19 22 -35 52 -35 92c0 91 61 153 163 153c76 0 126 -36 157 -78l4 1c-5 32 -8 76 -8 122v7h-364v109h647v9c0 54 -33 70 -98 70h-99c-172 0 -232 91 -232 179c0 8 1 17 2 25z" />
    <glyph glyph-name="bnL_TT_RA" horiz-adv-x="1047" 
d="M419 954l133 21c-2 -9 -3 -18 -3 -27c0 -40 20 -82 106 -82h120c109 0 205 -59 205 -177c0 -6 0 -12 -1 -18h89v-109h-366v-278c0 -28 19 -47 55 -47c60 0 118 46 118 106c0 31 -18 46 -44 46c-13 0 -29 -6 -37 -16l-57 107c22 20 66 36 102 36c90 0 168 -55 168 -175
c0 -39 -13 -78 -35 -112v-382h-123c-6 57 -35 81 -107 81c-21 0 -78 -1 -98 -1c-159 0 -215 103 -215 208l128 29c0 -54 15 -120 100 -120c25 0 80 1 98 1c35 0 69 -8 101 -40h4c-11 36 -14 94 -14 122v4c-28 -10 -58 -16 -89 -16c-127 0 -189 69 -189 167v52
c-9 19 -33 35 -63 35c-41 0 -69 -30 -69 -81v-32h-128v32c0 58 -27 78 -61 78s-67 -26 -67 -79c0 -65 47 -104 109 -104c20 0 41 4 58 12l17 -120c-23 -7 -50 -11 -83 -11c-150 0 -239 95 -239 220c0 130 93 205 192 205c82 0 127 -45 139 -81h4c10 44 54 83 110 83
c40 0 68 -16 76 -24h5v95h-588v109h866v9c0 54 -33 70 -98 70h-99c-172 0 -232 91 -232 179c0 8 1 17 2 25z" />
    <glyph glyph-name="bnSS_TT_RA" horiz-adv-x="620" 
d="M18 954l133 21c-2 -9 -3 -18 -3 -27c0 -40 20 -82 106 -82h100c109 0 205 -59 205 -177c0 -6 0 -12 -1 -18h82v-109h-100c14 -28 22 -61 22 -100c0 -124 -80 -202 -194 -217c-87 -17 -147 -54 -147 -131c0 -55 38 -96 120 -96c59 0 86 21 86 51c0 18 -14 30 -36 30
c-14 0 -30 -5 -39 -12l-49 93c20 17 54 31 95 31c83 0 151 -50 151 -144c0 -34 -10 -63 -28 -87v-334h-123c-6 57 -35 81 -107 81c-21 0 -48 -1 -68 -1c-159 0 -215 103 -215 208l128 29c0 -54 15 -120 100 -120c25 0 50 1 68 1c35 0 69 -8 101 -40h4c-9 30 -13 75 -14 106
c-17 -3 -35 -5 -54 -5c-168 0 -246 101 -246 207c0 81 41 137 92 171c-55 37 -89 98 -89 179c0 39 8 72 22 100h-140v109h445v9c0 54 -33 70 -98 70h-79c-172 0 -232 91 -232 179c0 8 1 17 2 25zM330 359c16 0 32 3 45 9l-142 134c-5 -12 -7 -25 -7 -40
c0 -62 44 -103 104 -103zM330 565c-18 0 -34 -4 -48 -10l143 -139c6 14 9 29 9 46c0 62 -44 103 -104 103z" />
    <glyph glyph-name="bnS_TT_RA" horiz-adv-x="701" 
d="M220 975c-2 -9 -3 -18 -3 -27c0 -40 20 -82 106 -82h120c109 0 205 -59 205 -177c0 -6 0 -12 -1 -18h74v-109h-82c4 -20 6 -38 6 -56c0 -91 -55 -153 -146 -162c-97 -16 -176 -65 -176 -150c0 -55 38 -96 120 -96c59 0 86 21 86 51c0 18 -14 30 -36 30
c-14 0 -30 -5 -39 -12l-49 93c20 17 54 31 95 31c83 0 151 -50 151 -144c0 -55 -26 -98 -70 -126v-295h-123c-6 57 -35 81 -107 81c-21 0 -68 -1 -88 -1c-159 0 -215 103 -215 208l128 29c0 -54 15 -120 100 -120c25 0 70 1 88 1c35 0 69 -8 101 -40h4c-9 29 -12 71 -14 101
h-12c-168 0 -246 101 -246 207c0 107 68 171 136 202c-11 12 -20 27 -29 45c-29 -46 -75 -88 -147 -88c-49 0 -108 21 -147 70l67 86c26 -28 50 -44 80 -44c48 0 71 39 80 99h-257v109h534v9c0 54 -33 70 -98 70h-99c-172 0 -232 91 -232 179c0 8 1 17 2 25zM518 518
c0 19 -3 34 -8 44h-133c4 -59 33 -107 85 -107c39 0 56 29 56 63z" />
    <glyph glyph-name="bnNN_TTH_RA" horiz-adv-x="916" 
d="M879 237c0 -69 -24 -130 -67 -174v-337h-123c-6 57 -35 81 -107 81c-21 0 -98 -1 -118 -1c-159 0 -215 103 -215 208l128 29c0 -54 15 -120 100 -120c25 0 100 1 118 1c35 0 69 -8 101 -40h4c-10 32 -13 82 -14 112c-18 -3 -38 -5 -58 -5c-174 0 -283 133 -283 288
c15 4 30 8 44 13c0 108 -14 269 -138 269c-52 0 -89 -29 -89 -84c0 -43 31 -73 77 -73c20 0 41 6 54 14l25 -109c-23 -11 -54 -19 -91 -19c-123 0 -193 86 -193 188c0 115 75 203 216 203c159 0 262 -119 265 -304c21 28 32 62 32 103v76c-120 108 -126 194 -126 239
c0 87 52 155 139 170c15 2 27 3 54 3l26 -120c-6 1 -12 1 -17 1c-43 0 -64 -25 -64 -61c0 -40 17 -76 47 -117h330v-109h-243c97 -105 186 -205 186 -325zM639 350c-31 -80 -94 -122 -138 -137c6 -36 44 -102 129 -102c66 0 116 52 116 125c0 74 -43 129 -91 188
c-2 -28 -8 -53 -16 -74z" />
    <glyph glyph-name="bnNN_DD_RA" horiz-adv-x="768" 
d="M73 498c0 106 65 177 194 177c77 0 135 -27 175 -82c17 26 32 52 47 78h68c66 -38 133 -104 133 -187c0 -41 -10 -82 -36 -120c31 -29 54 -71 54 -120c0 -46 -13 -85 -35 -115v-380h-123c-6 57 -41 81 -113 81c-21 0 -162 -1 -182 -1c-159 0 -225 103 -225 208l128 29
c0 -54 25 -120 110 -120c25 0 164 1 182 1c35 0 75 -8 107 -40h4c-11 36 -14 94 -14 122v14c-37 -12 -78 -18 -118 -18c-186 0 -311 84 -385 225l97 71c68 -131 175 -174 289 -174c94 0 149 37 149 97c0 16 -3 31 -10 43c-24 -14 -51 -26 -83 -38l-67 110
c88 32 146 68 146 128c0 20 -8 37 -19 50c-13 -20 -32 -51 -49 -72h-106c-13 55 -52 96 -113 96c-53 0 -78 -26 -78 -64c0 -40 26 -65 68 -65c27 0 49 12 65 25l38 -108c-26 -20 -64 -33 -106 -33c-116 0 -192 74 -192 182z" />
    <glyph glyph-name="bnN_DD_RA" horiz-adv-x="827" 
d="M-20 562v109h867v-109h-345v-187c0 -27 11 -33 25 -33c27 0 107 43 168 86c54 -33 100 -106 100 -188c0 -70 -27 -135 -77 -182v-343h-123c-6 57 -39 81 -111 81c-21 0 -167 -1 -187 -1c-159 0 -222 103 -222 208l128 29c0 -54 22 -120 107 -120c25 0 169 1 187 1
c35 0 73 -8 105 -40h4c-10 34 -14 88 -14 118c-28 -7 -58 -11 -90 -11c-164 0 -302 105 -362 238l106 83c66 -146 163 -197 256 -197c100 0 160 61 160 128c0 14 -3 28 -9 40c-32 -25 -88 -55 -147 -55c-54 0 -92 20 -116 53c-67 79 -111 129 -179 129
c-32 0 -53 -17 -53 -45c0 -20 8 -34 18 -46l-108 -39c-19 22 -34 53 -34 93c0 91 61 153 163 153c80 0 137 -37 172 -80h7c-5 32 -8 74 -8 119v8h-388z" />
    <glyph glyph-name="bnL_DD_RA" horiz-adv-x="987" 
d="M1007 562h-354v-171c0 -27 11 -33 25 -33c27 0 107 43 168 86c54 -33 100 -106 100 -188c0 -72 -29 -138 -81 -185v-351h-123c-6 57 -35 81 -107 81c-21 0 -188 -1 -208 -1c-159 0 -215 103 -215 208l128 29c0 -54 15 -120 100 -120c25 0 190 1 208 1c35 0 69 -8 101 -40
h4c-11 36 -14 94 -14 122v6c-27 -7 -55 -10 -86 -10c-144 0 -252 76 -312 187l103 91c42 -106 129 -154 209 -154c100 0 160 61 160 128c0 14 -3 28 -9 40c-32 -25 -88 -55 -147 -55c-90 0 -137 54 -143 138c-8 18 -31 33 -57 33c-38 0 -63 -29 -63 -77v-31h-117v31
c0 55 -26 74 -56 74c-35 0 -62 -25 -62 -79c0 -62 33 -95 88 -95c14 0 19 0 32 2l10 -112c-13 -3 -34 -4 -49 -4c-136 0 -206 87 -206 207c0 126 84 198 175 198c75 0 112 -42 126 -77h5c10 42 50 79 101 79c36 0 61 -15 69 -24h4v66h-534v109h1027v-109z" />
    <glyph glyph-name="bnNN_DDH_RA" horiz-adv-x="912" 
d="M562 562v-278c0 -28 19 -47 55 -47c60 0 118 46 118 106c0 31 -18 46 -44 46c-13 0 -29 -6 -37 -16l-57 107c22 20 66 36 102 36c90 0 168 -55 168 -175c0 -55 -24 -108 -65 -149v-343h-123c-6 57 -35 81 -107 81c-21 0 -38 -1 -58 -1c-159 0 -215 103 -215 208l128 29
c0 -54 15 -120 100 -120c25 0 40 1 58 1c35 0 69 -8 101 -40h4c-10 33 -13 85 -14 115c-19 -5 -39 -7 -59 -7c-127 0 -189 69 -189 167v11c0 117 -20 255 -155 255c-70 0 -111 -37 -111 -98c0 -50 33 -82 87 -82c31 0 56 14 74 29l44 -119c-30 -23 -76 -37 -121 -37
c-144 0 -221 96 -221 208c0 127 84 221 232 221c76 0 131 -27 167 -68h4v69h504v-109h-370z" />
    <glyph glyph-name="bnK_T_RA" horiz-adv-x="993" 
d="M1013 562h-1033v109h1033v-109zM363 237c101 36 153 78 153 126c0 29 -19 48 -56 48c-57 0 -97 -56 -107 -94l-103 65c26 87 108 147 208 147c79 0 132 -32 160 -79c42 40 94 55 145 55c109 0 196 -78 196 -191c0 -105 -73 -182 -171 -182c-36 0 -64 7 -86 18l23 107
c11 -5 30 -8 43 -8c44 0 64 30 64 65c0 45 -33 70 -77 70c-52 0 -94 -45 -141 -120c-2 -2 -4 -5 -5 -8c35 -29 62 -70 62 -128c0 -65 -27 -117 -73 -152v-308h-123c-6 57 -35 81 -107 81c-21 0 -108 -1 -128 -1c-159 0 -215 103 -215 208l128 29c0 -54 15 -120 100 -120
c25 0 110 1 128 1c35 0 69 -8 101 -40h4c-9 29 -13 73 -14 104c-11 -1 -24 -2 -36 -2c-240 0 -352 229 -408 472l119 48c48 -225 142 -396 289 -396c65 0 102 36 102 82c0 16 -6 32 -18 47c-21 -13 -46 -25 -74 -37z" />
    <glyph glyph-name="bnN_T_RA" horiz-adv-x="855" 
d="M-20 671h895v-109h-303c9 -14 17 -34 19 -65c13 2 27 3 42 3c99 0 142 -61 142 -126v-474h-118c0 82 -51 98 -182 108c-196 14 -284 90 -284 206c0 47 18 87 38 114l114 -43c-13 -15 -25 -38 -25 -71c0 -56 46 -89 167 -98c123 -9 148 -24 183 -47h4
c-12 49 -18 117 -18 172v113c0 24 -12 35 -37 35c-54 0 -104 -39 -104 -90c0 -23 10 -39 34 -39c18 0 32 10 39 17l39 -96c-22 -20 -62 -28 -96 -28c-94 0 -138 61 -138 137c0 13 1 26 4 39c-92 12 -143 74 -200 74c-33 0 -49 -20 -49 -45c0 -20 8 -34 18 -46l-109 -38
c-18 18 -35 52 -35 94c0 85 51 155 159 155c109 0 164 -73 226 -73c39 0 58 24 58 56s-20 56 -58 56h-425v109z" />
    <glyph glyph-name="bnP_T_RA" horiz-adv-x="779" 
d="M160 529c46 -13 87 -44 112 -92l115 73c-27 34 -64 54 -115 54c-52 0 -88 -18 -112 -35zM68 446l-60 103c49 65 144 131 254 131c112 0 170 -56 200 -95l3 2c-24 59 -25 127 -25 163v23h131v-102h227v-109h-227v-192c94 -3 135 -63 135 -126v-474h-118
c0 82 -51 98 -182 108c-196 14 -284 90 -284 206c0 47 18 87 38 114l114 -43c-13 -15 -25 -38 -25 -71c0 -56 46 -89 167 -98c123 -9 148 -24 183 -47h4c-12 49 -18 117 -18 172v113c0 24 -12 35 -37 35c-54 0 -104 -39 -104 -90c0 -23 10 -39 34 -39c18 0 32 10 39 17
l39 -96c-22 -20 -62 -28 -96 -28c-94 0 -138 61 -138 137c0 74 44 144 119 182c-1 20 -4 40 -7 58l-284 -183l-65 100l85 54c-11 22 -27 41 -47 54c-15 10 -32 18 -55 21z" />
    <glyph glyph-name="bnS_T_RA" horiz-adv-x="883" 
d="M78 501c26 -28 50 -44 80 -44c48 0 71 45 80 105h-260v109h925v-109h-263c4 -20 6 -38 6 -56v-6h15c99 0 142 -61 142 -126v-474h-118c0 82 -51 98 -182 108c-196 14 -284 90 -284 206c0 47 18 87 38 114l114 -43c-13 -15 -25 -38 -25 -71c0 -56 46 -89 167 -98
c123 -9 148 -24 183 -47h4c-12 49 -18 117 -18 172v113c0 24 -12 35 -37 35c-54 0 -104 -39 -104 -90c0 -23 10 -39 34 -39c18 0 32 10 39 17l39 -96c-22 -20 -62 -28 -96 -28c-94 0 -138 61 -138 137c0 19 3 39 9 57c-53 10 -95 37 -123 92c-26 -57 -75 -94 -147 -94
c-49 0 -108 21 -147 70zM519 518c0 19 -3 34 -8 44h-133c4 -59 33 -107 85 -107c39 0 56 29 56 63z" />
    <glyph glyph-name="bnN_TH_RA" horiz-adv-x="671" 
d="M-20 671h711v-109h-100c10 -16 19 -41 19 -79c0 -35 -10 -76 -38 -108c25 -33 39 -76 39 -125c0 -113 -77 -170 -170 -183v-4c38 -9 66 -19 129 -55l69 -41l-88 -88c-12 7 -23 14 -34 21v-181h-123c-6 57 -35 81 -107 81c-21 0 -32 -1 -52 -1c-149 0 -205 90 -205 195
l128 29c0 -54 14 -107 90 -107c25 0 34 1 52 1c35 0 69 -8 101 -40h4c-8 27 -12 67 -13 97c-69 39 -102 49 -152 55v112h57c115 0 185 34 185 109c0 47 -25 77 -69 77c-28 0 -48 -13 -48 -40c0 -20 11 -36 37 -45l-88 -66c-55 21 -81 68 -81 123c0 33 11 65 33 90
c-18 8 -35 14 -52 14c-33 0 -49 -20 -49 -45c0 -20 8 -34 18 -46l-109 -38c-18 18 -35 52 -35 94c0 85 51 155 159 155c109 0 164 -73 226 -73c39 0 58 24 58 56s-20 56 -58 56h-444v109z" />
    <glyph glyph-name="bnG_D_RA" horiz-adv-x="924" 
d="M434 671h510v-109h-383v-167c49 48 141 95 217 123l101 -62c-31 -81 -41 -185 -41 -246v-309h-123c-6 57 -35 81 -107 81c-21 0 -68 -1 -88 -1c-159 0 -215 103 -215 208l128 29c0 -54 15 -120 100 -120c25 0 70 1 88 1c35 0 69 -8 101 -40h4c-11 36 -14 94 -14 122v20
c0 91 9 125 25 161c-62 -36 -114 -74 -184 -147l-132 47v129c0 108 -54 166 -147 166c-47 0 -88 -18 -115 -44c17 4 35 5 49 5c70 0 142 -44 142 -135c0 -70 -45 -140 -121 -195l-95 94c54 34 85 71 85 106c0 24 -19 46 -61 46c-15 0 -36 -3 -54 -8l-90 98
c40 70 129 154 253 154c79 0 134 -29 172 -69h4c-7 18 -9 38 -9 58v4z" />
    <glyph glyph-name="bnD_D_RA" horiz-adv-x="862" 
d="M217 182l-142 51v329h-95v109h902v-109h-667v-181c46 54 123 109 207 139l108 -62c-22 -56 -38 -136 -38 -181v-6c46 54 138 122 222 152l106 -62c-31 -81 -41 -193 -41 -284v-291h-137c-6 57 -35 81 -107 81c-21 0 -108 -1 -128 -1c-159 0 -215 103 -215 208l128 29
c0 -54 15 -120 100 -120c25 0 110 1 128 1c35 0 69 -8 101 -40h4c-11 36 -14 94 -14 122v10c0 91 11 150 27 186c-50 -32 -115 -99 -161 -167l-144 56v20c0 82 10 151 23 186c-52 -33 -121 -103 -167 -175z" />
    <glyph glyph-name="bnN_D_RA" horiz-adv-x="866" 
d="M-20 562v109h906v-109h-384v-167c49 48 141 95 217 123l101 -62c-31 -81 -41 -193 -41 -258v-287h-123c-6 57 -35 81 -107 81c-21 0 -118 -1 -129 -1c-168 0 -239 100 -239 205l128 32c3 -63 30 -120 123 -120c17 0 112 1 130 1c35 0 69 -8 101 -40h4
c-11 36 -14 84 -14 112v20c0 91 9 125 25 161c-62 -36 -114 -74 -184 -147l-121 47c-47 69 -100 127 -162 127c-32 0 -53 -17 -53 -45c0 -20 8 -34 18 -46l-108 -39c-19 22 -34 53 -34 93c0 91 64 153 166 153c82 0 142 -39 176 -84l4 1c-5 32 -8 76 -8 122v18h-392z" />
    <glyph glyph-name="bnB_D_RA" horiz-adv-x="853" 
d="M753 -179h-129c-6 57 -35 81 -107 81c-21 0 -136 -1 -156 -1c-159 0 -215 103 -215 208l128 29c0 -54 15 -120 100 -120c25 0 138 1 156 1c35 0 69 -8 101 -40h4c-11 36 -14 94 -14 122v61c0 56 10 124 26 160c-56 -36 -138 -140 -184 -217l-412 170v98
c36 38 143 121 280 163v26h-351v109h893v-109h-402v-242c46 54 133 128 217 158l106 -62c-31 -81 -41 -163 -41 -254v-341zM331 286v131c-49 -21 -104 -55 -131 -76z" />
    <glyph glyph-name="bnM_D_RA" horiz-adv-x="841" 
d="M-20 671h881v-109h-282c10 -16 19 -41 19 -79c0 -59 -28 -136 -126 -153v-78c50 46 139 109 223 139l106 -62c-31 -81 -41 -164 -41 -234v-304h-129c-6 57 -38 81 -110 81c-21 0 -117 -1 -137 -1c-159 0 -227 102 -227 207l128 29c0 -54 27 -119 112 -119
c25 0 115 1 133 1c39 0 76 -8 108 -40h4c-11 36 -14 94 -14 122v17c0 57 6 101 22 137c-56 -36 -115 -89 -186 -171l-132 48v247c-52 22 -89 54 -130 54c-33 0 -49 -20 -49 -45c0 -20 8 -34 18 -46l-109 -38c-18 18 -35 52 -35 94c0 64 29 120 90 143c-4 19 -10 37 -19 51
h-118v109zM412 450c39 0 58 24 58 56s-20 56 -58 56h-172c5 -15 9 -31 12 -48c68 -20 112 -64 160 -64z" />
    <glyph glyph-name="bnL_D_RA" horiz-adv-x="1073" 
d="M1093 562h-395v-167c49 48 141 95 217 123l101 -62c-31 -81 -41 -204 -41 -264v-291h-123c-6 57 -35 81 -107 81c-21 0 -88 -1 -108 -1c-159 0 -215 103 -215 208l128 29c0 -54 15 -120 100 -120c25 0 90 1 108 1c35 0 69 -8 101 -40h4c-10 33 -14 86 -14 116v26
c0 91 9 125 25 161c-62 -36 -114 -74 -184 -147l-127 47v82h-1c-9 19 -32 35 -58 35c-41 0 -64 -32 -64 -81v-32h-128v32c0 58 -27 78 -61 78s-64 -26 -64 -84c0 -60 32 -99 94 -99c20 0 41 4 58 12l17 -120c-23 -7 -50 -11 -83 -11c-150 0 -224 95 -224 220
c0 130 90 205 189 205c78 0 120 -38 139 -77h4c13 44 49 79 105 79c35 0 60 -15 71 -24h6v85h-583v109h1113v-109z" />
    <glyph glyph-name="bnN_DH_RA" horiz-adv-x="810" 
d="M-20 562v109h850v-109h-316v-178c101 42 159 58 159 58l90 -74s-20 -46 -20 -219v-128h-127v129c0 72 7 119 17 150c-27 -10 -67 -26 -119 -50v-535h-123c-6 57 -35 81 -107 81c-21 0 -38 -1 -58 -1c-159 0 -215 103 -215 208l128 29c0 -54 15 -120 100 -120
c25 0 40 1 58 1c35 0 69 -8 101 -40h4c-7 22 -10 51 -12 78l-259 113v119c77 48 148 88 212 121c-36 44 -75 75 -120 75c-32 0 -53 -17 -53 -45c0 -20 8 -34 18 -46l-108 -39c-19 22 -34 53 -34 93c0 91 64 153 166 153c82 0 142 -39 176 -84l4 1c-5 32 -8 76 -8 122v28
h-404zM389 77h5c-4 32 -7 74 -8 113c-36 -18 -76 -38 -118 -61z" />
    <glyph glyph-name="bnM_P_RA" horiz-adv-x="1102" 
d="M405 450c39 0 58 24 58 56s-20 56 -58 56h-171c5 -15 9 -32 12 -49c67 -19 111 -63 159 -63zM589 529c48 -13 90 -47 115 -99l113 79c-27 34 -65 55 -116 55c-52 0 -88 -18 -112 -35zM1000 -53h-126c-6 57 -35 81 -107 81c-38 0 -116 -2 -157 -2
c-159 0 -215 102 -215 207l128 29c0 -54 15 -120 100 -120c38 0 124 3 157 3c35 0 69 -8 101 -40h4c-11 36 -14 94 -14 122v78c0 32 -2 63 -8 93l-260 -183l-65 100l66 46c-8 17 -18 33 -30 46c-21 -44 -66 -80 -149 -80c-112 0 -167 76 -230 76c-33 0 -49 -20 -49 -45
c0 -20 8 -34 18 -46l-109 -38c-18 18 -35 52 -35 94c0 64 29 120 90 143c-3 19 -9 37 -18 51h-112v109h525c14 -10 26 -21 36 -33c44 25 95 42 150 42c112 0 170 -56 200 -95l3 2c-24 59 -25 127 -25 163v23h131v-102h100v-109h-100v-615z" />
    <glyph glyph-name="bnSS_P_RA" horiz-adv-x="991" 
d="M276 565c-17 0 -33 -3 -47 -10l144 -139c5 14 8 29 8 46c0 63 -43 103 -105 103zM276 351c19 0 37 4 52 12l-147 139c-5 -12 -7 -25 -7 -40c0 -66 42 -111 102 -111zM500 529c57 -16 107 -61 127 -131l117 87c-27 48 -69 79 -132 79c-52 0 -88 -18 -112 -35zM911 -53
h-126c-6 57 -35 81 -107 81c-38 0 -116 -2 -157 -2c-137 0 -195 71 -209 159l125 41c7 -44 30 -84 97 -84c38 0 124 3 157 3c35 0 69 -8 101 -40h4c-11 36 -14 94 -14 122v78c0 20 -1 40 -3 59l-233 -172l-71 94l58 43c-5 28 -15 52 -32 71c-25 -104 -112 -164 -225 -164
c-134 0 -231 84 -231 226c0 39 8 72 23 100h-88v109h296c59 0 114 -15 156 -46c45 33 108 55 170 55c112 0 170 -56 200 -95l3 2c-24 59 -25 127 -25 163v23h131v-102h100v-109h-100v-615z" />
    <glyph glyph-name="bnS_P_RA" horiz-adv-x="1139" 
d="M512 562h-133c4 -59 33 -107 85 -107c39 0 56 29 56 63c0 19 -3 34 -8 44zM648 529c48 -13 90 -47 115 -98l113 78c-27 34 -65 55 -116 55c-52 0 -88 -18 -112 -35zM1059 -10h-126c-6 57 -35 81 -107 81c-38 0 -126 -2 -167 -2c-137 0 -195 71 -209 159l125 41
c7 -44 30 -84 97 -84c38 0 134 3 167 3c35 0 69 -8 101 -40h4c-11 36 -14 94 -14 122v35c0 32 -3 64 -8 93l-250 -173l-71 94l69 48c-9 22 -24 40 -45 52c-28 -48 -79 -76 -148 -76c-75 0 -136 33 -171 96c-26 -57 -75 -94 -147 -94c-49 0 -108 21 -147 70l67 86
c26 -28 50 -44 80 -44c48 0 71 45 80 105h-259v109h620c6 -8 10 -17 15 -24c40 20 86 33 135 33c112 0 170 -56 200 -95l3 2c-24 59 -25 127 -25 163v23h131v-102h100v-109h-100v-572z" />
    <glyph glyph-name="bnL_PH_RA" horiz-adv-x="1177" 
d="M-20 562v109h1214v-109h-539v-157l33 -44v-84l-101 -80l177 -69h4c-7 50 -12 140 -12 195v157c38 21 102 38 165 38c124 0 223 -70 223 -200c0 -113 -73 -166 -131 -190l-69 108c30 8 71 32 71 84s-36 78 -83 78c-13 0 -27 -3 -39 -7v-626h-133c-6 57 -35 81 -107 81
c-38 0 -88 -2 -129 -2c-137 0 -195 71 -209 159l125 41c7 -44 30 -84 97 -84c38 0 96 3 129 3c35 0 69 -8 101 -40h4c-7 23 -11 56 -13 83l-323 127v104l112 88l-32 45c-14 18 -31 34 -58 34c-38 0 -63 -29 -63 -77v-31h-117v31c0 55 -26 74 -56 74c-31 0 -62 -25 -62 -75
c0 -62 38 -99 93 -99c9 0 18 1 26 2l8 -113c-12 -2 -26 -3 -41 -3c-136 0 -211 90 -211 210c0 123 84 195 175 195c75 0 115 -43 126 -77h5c10 42 50 79 101 79c36 0 61 -15 69 -24h5v66h-535z" />
    <glyph glyph-name="bnS_PH_RA" horiz-adv-x="1127" 
d="M80 501c26 -28 50 -44 80 -44c48 0 71 45 80 105h-260v109h1167v-109h-505c4 -20 6 -38 6 -56c0 -44 -13 -82 -37 -110l33 -54v-89l-106 -76l177 -69h4c-7 50 -12 140 -12 195v177c38 21 102 38 165 38c124 0 223 -70 223 -200c0 -113 -73 -166 -131 -190l-69 108
c30 8 71 32 71 84s-36 78 -83 78c-13 0 -27 -3 -39 -7v-641h-133c-6 57 -35 81 -107 81c-38 0 -88 -2 -129 -2c-137 0 -195 71 -209 159l125 41c7 -44 30 -84 97 -84c38 0 96 3 129 3c35 0 69 -8 101 -40h4c-7 22 -10 52 -12 78l-324 127v107l127 94l-18 30
c-6 -1 -11 -1 -17 -1c-75 0 -135 25 -171 96c-26 -57 -75 -94 -147 -94c-49 0 -108 21 -147 70zM521 518c0 19 -3 34 -8 44h-133c4 -59 33 -107 85 -107c39 0 56 29 56 63z" />
    <glyph glyph-name="bnM_PH_RA" horiz-adv-x="1071" 
d="M-20 671h1110v-109h-507c10 -22 18 -48 18 -79c0 -38 -12 -84 -47 -117l33 -54v-89l-106 -76l177 -69h4c-7 50 -12 140 -12 195v177c38 21 102 38 165 38c124 0 223 -70 223 -200c0 -113 -73 -166 -131 -190l-69 108c30 8 71 32 71 84s-36 78 -83 78c-13 0 -27 -3 -39 -7
v-644h-133c-6 57 -35 81 -107 81c-38 0 -88 -2 -129 -2c-137 0 -195 71 -209 159l125 41c7 -44 30 -84 97 -84c38 0 96 3 129 3c35 0 69 -8 101 -40h4c-7 23 -11 54 -12 81l-324 127v107l127 94l-27 43c-108 3 -162 76 -224 76c-33 0 -49 -20 -49 -45c0 -20 8 -34 18 -46
l-109 -38c-18 18 -35 52 -35 94c0 64 29 120 90 143c-3 19 -9 37 -18 51h-122v109zM415 450c39 0 58 24 58 56s-20 56 -58 56h-171c5 -15 9 -32 12 -49c67 -19 111 -63 159 -63z" />
    <glyph glyph-name="bnM_B_RA" horiz-adv-x="640" 
d="M-20 671h680v-109h-78c10 -16 19 -41 19 -79c0 -43 -15 -97 -63 -129v-572h-133c-6 57 -35 81 -107 81c-31 0 -43 -2 -74 -2c-137 0 -195 71 -209 159l125 41c7 -44 30 -84 97 -84c34 0 41 3 74 3c35 0 69 -8 101 -40h4c-6 21 -10 50 -12 75l-265 117v129
c34 28 94 68 163 104c-36 19 -65 38 -97 38c-33 0 -49 -20 -49 -45c0 -16 5 -28 12 -38l-108 -40c-16 19 -30 50 -30 88c0 64 29 120 90 143c-3 19 -9 37 -18 51h-122v109zM413 141h5c-5 41 -9 98 -9 145c-55 -23 -101 -52 -145 -80zM415 450c39 0 58 24 58 56
s-20 56 -58 56h-171c5 -15 9 -32 12 -49c67 -19 111 -63 159 -63z" />
    <glyph glyph-name="bnD_BH_RA" horiz-adv-x="637" 
d="M657 562h-414v-144c41 35 116 77 190 102l96 -61c-27 -70 -27 -132 -27 -209v-19c37 -42 72 -110 72 -222v-314h-123c-6 57 -35 81 -107 81c-38 0 -68 -2 -109 -2c-137 0 -195 71 -209 159l125 41c7 -44 30 -84 97 -84c38 0 76 3 109 3c35 0 69 -8 101 -40h4
c-11 36 -14 94 -14 122v38c0 40 -8 78 -18 92h-4c-13 -42 -59 -107 -157 -107c-105 0 -162 68 -162 148c0 41 12 67 19 81l129 -17c-9 -15 -15 -36 -15 -54c0 -25 13 -41 41 -41c41 0 72 45 94 129v7c0 47 7 97 21 128c-49 -31 -108 -71 -161 -121l-125 42v262h-130v109h677
v-109z" />
    <glyph glyph-name="bnB_BH_RA" horiz-adv-x="637" 
d="M657 562h-175v-376c42 -39 88 -110 88 -238v-313h-123c-6 57 -35 81 -107 81c-38 0 -88 -2 -129 -2c-137 0 -195 71 -209 159l125 41c7 -44 30 -84 97 -84c38 0 96 3 129 3c35 0 69 -8 101 -40h4c-11 36 -14 94 -14 122v37c0 40 -8 78 -18 92h-4
c-13 -42 -63 -119 -160 -119c-114 0 -171 68 -171 148c0 41 12 67 19 81l129 -17c-9 -15 -15 -36 -15 -54c0 -25 15 -41 43 -41c40 0 64 34 83 91l-295 112v132c97 77 198 129 298 165v20h-373v109h677v-109zM357 256h5c-5 43 -9 103 -9 151v9c-58 -26 -122 -62 -167 -93z
" />
    <glyph glyph-name="bnM_BH_RA" horiz-adv-x="699" 
d="M-20 671h739v-109h-137c10 -16 19 -41 19 -79c0 -42 -14 -95 -59 -127c54 -51 102 -146 102 -267v-312h-123c-6 57 -35 81 -107 81c-38 0 -88 -2 -129 -2c-137 0 -195 71 -209 159l125 41c7 -44 30 -84 97 -84c38 0 96 3 129 3c35 0 69 -8 101 -40h4
c-11 36 -14 94 -14 122v36c0 40 -8 78 -18 92h-4c-13 -42 -59 -107 -157 -107c-105 0 -162 68 -162 148c0 41 12 67 19 81l129 -17c-9 -15 -15 -36 -15 -54c0 -25 13 -41 41 -41c41 0 72 45 95 132h-11c-112 0 -167 76 -230 76c-33 0 -49 -20 -49 -45c0 -16 5 -28 12 -38
l-108 -40c-16 19 -30 50 -30 88c0 64 29 120 90 143c-3 19 -9 37 -18 51h-122v109zM415 450c39 0 58 24 58 56s-20 56 -58 56h-171c5 -15 9 -32 12 -49c67 -19 111 -63 159 -63z" />
    <glyph glyph-name="bnK_BA" horiz-adv-x="740" 
d="M760 562h-306v-30c170 -11 232 -116 232 -200c0 -102 -57 -163 -125 -183l-62 100c34 9 64 36 64 83c0 45 -39 79 -109 86v-489l51 -22l-82 -94l-368 162v127c29 24 78 58 135 89l-135 59v126c46 46 144 119 270 146v40h-345v109h780v-109zM329 -16h5c-5 41 -9 98 -9 145
c-55 -23 -101 -52 -145 -80zM329 259h5c-5 40 -9 96 -9 143c-56 -19 -106 -49 -145 -78z" />
    <glyph glyph-name="bnKH_BA" horiz-adv-x="675" 
d="M562 -192l-473 174v132c27 24 74 55 128 86l-184 55v123c194 11 259 63 259 126c0 13 -2 23 -6 29c-20 -43 -62 -83 -140 -83c-91 0 -154 58 -154 140c0 42 14 73 26 88h130c-22 -30 -31 -51 -31 -79c0 -24 15 -43 45 -43c40 0 66 42 91 115h72c40 -33 88 -93 88 -177
c0 -91 -50 -145 -166 -176v-4l223 -67l3 2c-5 69 -8 122 -8 219v305h130v-102h100v-109h-100v-640l48 -18zM478 -33c-5 43 -9 103 -9 151v6l-87 26c-61 -25 -116 -58 -165 -90l256 -93h5z" />
    <glyph glyph-name="bnG_BA" horiz-adv-x="616" 
d="M536 773v-102h100v-109h-100v-633l51 -22l-82 -94l-368 162v127c51 43 164 113 273 153v136c0 108 -54 166 -147 166c-47 0 -88 -18 -115 -44c17 4 35 5 49 5c81 0 143 -53 143 -144c0 -64 -32 -132 -103 -185l-106 84c44 31 77 63 77 103c0 24 -21 43 -63 43
c-15 0 -34 -2 -52 -7l-90 112c40 70 129 154 253 154c79 0 134 -29 172 -69h4c-16 44 -23 96 -23 146v18h127zM411 -16h5c-5 41 -9 98 -9 145c-55 -23 -101 -52 -145 -80z" />
    <glyph glyph-name="bnC_BA" horiz-adv-x="557" 
d="M577 562h-362c13 -21 43 -35 104 -57l29 -10c95 -33 150 -82 150 -173c0 -48 -17 -94 -46 -132v-289l51 -22l-82 -94l-368 162v127c19 16 46 36 79 56c-35 28 -52 70 -52 121v311h-100v109h597v-109zM211 426h-4s7 -50 7 -132v-41c0 -24 10 -39 44 -39
c51 0 108 51 108 107c0 33 -23 46 -61 59l-20 7c-39 14 -59 26 -74 39zM332 -44c-5 41 -9 98 -9 145c-55 -23 -101 -52 -145 -80l149 -65h5z" />
    <glyph glyph-name="bnCH_BA" horiz-adv-x="617" 
d="M189 562c7 -25 62 -30 112 -53c23 8 52 11 71 11c109 0 196 -71 196 -196c0 -101 -67 -186 -213 -208v-4c41 -10 77 -25 125 -47l112 -51l-83 -97l-56 28v-108l51 -22l-82 -94l-368 162v127c22 19 57 43 97 67c-28 7 -54 11 -90 15v110h146c159 0 225 56 225 124
c0 39 -15 66 -52 74v-5c0 -85 -72 -159 -175 -159c-93 0 -148 45 -148 120v206h-77v109h657v-109h-448zM261 398c0 35 -60 33 -76 48v-83c0 -11 7 -20 21 -20c34 0 55 26 55 55zM328 -108h5c-4 33 -7 75 -8 115c-12 6 -23 11 -33 16c-42 -21 -78 -43 -113 -66z" />
    <glyph glyph-name="bnJ_BA" horiz-adv-x="889" 
d="M790 -229l51 -22l-82 -94l-368 162v127c50 43 161 111 269 151v34c0 74 12 149 41 210c-133 15 -206 92 -235 158c-53 -40 -77 -68 -77 -97c0 -13 6 -24 39 -28l105 -13c34 -34 62 -80 62 -140c0 -96 -68 -190 -224 -190c-194 0 -326 161 -355 354l127 46
c17 -153 100 -275 226 -275c68 0 91 24 91 62c0 19 -6 28 -10 34l-83 10c-90 11 -126 51 -126 113c0 84 61 143 119 189h-380v109h929v-109h-342c19 -53 78 -105 195 -105h33l48 -104c-37 -66 -53 -152 -53 -235v-347zM670 -174c-5 41 -10 98 -10 145
c-54 -23 -101 -52 -144 -80l149 -65h5z" />
    <glyph glyph-name="bnTT_BA" horiz-adv-x="559" 
d="M3 954l133 21c-2 -9 -3 -18 -3 -27c0 -40 20 -82 106 -82h43c109 0 205 -59 205 -177c0 -6 0 -12 -1 -18h93v-109h-370v-278c0 -28 19 -47 55 -47c60 0 118 46 118 106c0 31 -18 46 -44 46c-13 0 -29 -6 -37 -16l-57 107c22 20 66 36 102 36c90 0 168 -55 168 -175
c0 -39 -13 -78 -35 -112v-302l51 -22l-82 -94l-368 162v127c16 13 37 29 63 46c-46 29 -68 77 -68 136v280h-95v109h373v9c0 54 -33 70 -98 70h-22c-172 0 -232 91 -232 179c0 8 1 17 2 25zM354 -18h5c-5 41 -9 98 -9 145c-55 -23 -101 -52 -145 -80z" />
    <glyph glyph-name="bnNN_BA" horiz-adv-x="639" 
d="M314 383l31 -107c-29 -18 -65 -27 -108 -27c-137 0 -209 93 -209 206c0 127 85 221 229 221c94 0 154 -42 188 -89l5 3c-15 48 -20 96 -20 159v24h129v-102h100v-109h-100v-607l51 -22l-82 -94l-368 162v127c50 42 159 110 266 150v21c0 117 -18 252 -153 252
c-69 0 -108 -41 -108 -96c0 -49 29 -85 91 -85c18 0 39 4 58 13zM434 10h5c-6 40 -12 89 -13 144c-53 -23 -98 -51 -141 -79z" />
    <glyph glyph-name="bnDD_BA" horiz-adv-x="726" 
d="M746 562h-348v-101c0 -27 11 -33 25 -33c27 0 91 40 152 83c54 -33 100 -106 100 -188c0 -89 -42 -160 -116 -201v-239l51 -22l-82 -94l-368 162v127c20 17 49 38 84 59c-128 58 -201 190 -202 342l131 30c0 -208 112 -279 223 -279c17 0 34 2 48 5c12 4 24 7 35 11
c39 17 63 49 63 91c0 14 -3 28 -9 40c-32 -25 -77 -52 -132 -52c-92 0 -142 61 -142 153v106h-279v109h766v-109zM434 -62h5c-5 41 -9 98 -9 145c-55 -23 -101 -52 -145 -80z" />
    <glyph glyph-name="bnT_BA" horiz-adv-x="668" 
d="M-20 671h708v-109h-708v109zM123 494c38 -161 116 -299 243 -299c86 0 129 60 129 131c0 48 -20 88 -60 88c-22 0 -38 -15 -38 -39c0 -20 8 -35 32 -49l-81 -75c-49 23 -80 68 -80 127c0 94 71 150 161 150c124 0 190 -98 190 -204c0 -74 -26 -136 -71 -179v-263l51 -22
l-82 -94l-368 162v127c19 17 48 37 82 57c-121 61 -186 199 -218 316zM428 -63c-5 41 -9 98 -9 145c-55 -23 -101 -52 -145 -80l149 -65h5z" />
    <glyph glyph-name="bnTH_BA" horiz-adv-x="646" 
d="M170 475l-112 -38c-15 21 -26 45 -26 83c0 94 72 159 179 159c98 0 185 -63 185 -177c0 -67 -35 -133 -133 -168v-4l174 -67h4s-5 46 -5 138v372h130v-102h100v-109h-100v-607l50 -21l-81 -94l-427 178v129c25 21 64 49 111 76l-169 67v108c140 2 224 31 224 107
c0 36 -24 63 -61 63c-34 0 -55 -23 -55 -54c0 -18 6 -30 12 -39zM437 9h5c-4 37 -8 86 -9 129l-71 29c-48 -22 -90 -47 -129 -73z" />
    <glyph glyph-name="bnD_BA" horiz-adv-x="590" 
d="M610 562h-395v-177c49 48 141 95 217 123l101 -62c-31 -81 -41 -193 -41 -284v-252l51 -22l-82 -94l-368 162v127c51 43 164 113 274 153c4 52 13 91 24 116c-62 -36 -114 -74 -184 -147l-127 47v310h-100v109h630v-109zM367 -35h5c-5 41 -9 98 -9 145
c-55 -23 -101 -52 -145 -80z" />
    <glyph glyph-name="bnDH_BA" horiz-adv-x="580" 
d="M161 519c0 -36 37 -49 67 -49c48 0 98 22 141 48v153h231v-109h-100v-621l52 -20l-80 -96l-431 161v129c25 21 64 48 111 75l-111 35v120l18 10c41 23 76 35 76 35v5c-55 10 -111 51 -111 128c0 99 72 162 174 162c39 0 84 -9 113 -32l-34 -102c-23 13 -44 17 -61 17
c-30 0 -55 -15 -55 -49zM380 -12c-4 38 -8 89 -9 134l-61 19c-49 -22 -93 -50 -136 -78l201 -75h5zM376 246l3 2c-6 32 -10 82 -10 135l-167 -85z" />
    <glyph glyph-name="bnN_BA" horiz-adv-x="582" 
d="M-20 562v109h622v-109h-100v-554l51 -22l-82 -94l-368 162v127c44 37 133 94 227 134c-36 43 -74 74 -119 74c-32 0 -53 -17 -53 -45c0 -20 8 -34 18 -46l-108 -39c-19 22 -34 53 -34 93c0 91 64 153 166 153c82 0 142 -39 176 -84l4 1c-5 32 -8 76 -8 122v18h-392z
M377 63h5c-5 41 -9 98 -9 145c-55 -23 -101 -52 -145 -80z" />
    <glyph glyph-name="bnP_BA" horiz-adv-x="651" 
d="M160 529c46 -13 87 -44 112 -92l115 73c-27 34 -64 54 -115 54c-52 0 -88 -18 -112 -35zM68 446l-60 103c49 65 144 131 254 131c112 0 170 -56 200 -95l3 2c-24 59 -25 127 -25 163v23h131v-102h100v-109h-100v-574l51 -22l-82 -94l-368 162v127c50 43 161 111 270 151
c0 31 -3 61 -8 88l-284 -183l-65 100l85 54c-11 22 -27 41 -47 54c-15 10 -32 18 -55 21zM446 43h5c-5 41 -9 98 -9 145c-55 -23 -101 -52 -145 -80z" />
    <glyph glyph-name="bnB_BA" horiz-adv-x="571" 
d="M461 -198l-411 155v132c44 34 91 66 139 94l-139 52v132c97 77 211 139 312 175v20h-382v109h611v-109h-100v-645l50 -19zM371 -36c-5 43 -9 103 -9 151v3l-23 8c-58 -29 -120 -66 -156 -92l183 -70h5zM371 242c-5 43 -9 103 -9 151v23c-65 -31 -139 -75 -180 -104
l184 -70h5z" />
    <glyph glyph-name="bnM_BA" horiz-adv-x="640" 
d="M-20 671h680v-109h-78c10 -16 19 -41 19 -79c0 -43 -15 -97 -63 -129v-298l51 -22l-82 -94l-368 162v129c38 33 112 80 193 119c-50 22 -87 53 -127 53c-33 0 -49 -20 -49 -45c0 -20 8 -34 18 -46l-109 -38c-18 18 -35 52 -35 94c0 64 29 120 90 143c-3 19 -9 37 -18 51
h-122v109zM413 111h5c-5 41 -9 98 -9 145c-55 -23 -101 -52 -145 -80zM415 450c39 0 58 24 58 56s-20 56 -58 56h-171c5 -15 9 -32 12 -49c67 -19 111 -63 159 -63z" />
    <glyph glyph-name="bnL_BA" horiz-adv-x="761" 
d="M-20 562v109h801v-109h-100v-591l51 -22l-82 -94l-368 162v129c50 43 162 111 270 152v56c-9 19 -32 34 -61 34c-40 0 -68 -29 -68 -79v-31h-124v31c0 54 -28 76 -61 76c-37 0 -64 -28 -64 -80c0 -72 45 -92 96 -98l-40 -114c-119 11 -190 95 -190 213
c0 126 91 199 187 199c80 0 123 -44 135 -79h4c10 43 53 81 107 81c39 0 66 -16 74 -23h5v78h-572zM561 26c-5 41 -9 98 -9 145c-55 -23 -101 -52 -145 -80l149 -65h5z" />
    <glyph glyph-name="bnSH_BA" horiz-adv-x="657" 
d="M30 291v111c12 -2 24 -3 38 -3c53 0 87 24 87 82c0 53 -29 81 -92 81h-83v109h90c61 0 109 -18 145 -51c34 34 76 54 131 54c69 0 101 -28 115 -43h4c-7 28 -13 75 -13 105v37h125v-102h100v-109h-100v-605l51 -22l-82 -94l-368 162v129c50 43 162 111 270 152v165
c0 77 -35 112 -92 112c-50 0 -81 -27 -81 -81c0 -52 39 -79 88 -79c10 0 20 1 30 3v-112c-8 -2 -21 -4 -37 -4c-55 0 -105 21 -140 57c-37 -38 -86 -60 -141 -60c-18 0 -34 3 -45 6zM452 12h5c-5 41 -9 98 -9 145c-55 -23 -101 -52 -145 -80z" />
    <glyph glyph-name="bnSS_BA" horiz-adv-x="552" 
d="M45 462c0 39 8 72 22 100h-87v109h592v-109h-87c15 -28 23 -61 23 -100c0 -59 -17 -108 -46 -145v-280l51 -22l-82 -94l-368 162v129c19 16 48 36 81 57c-61 37 -99 104 -99 193zM342 92c-5 38 -9 90 -9 135v10c-55 -23 -102 -52 -145 -80l149 -65h5zM174 462
c0 -66 42 -111 102 -111c19 0 36 4 51 12l-147 139c-4 -12 -6 -25 -6 -40zM276 565c-18 0 -33 -3 -47 -10l144 -139c5 14 8 29 8 46c0 63 -43 103 -105 103z" />
    <glyph glyph-name="bnS_BA" horiz-adv-x="689" 
d="M80 501c26 -28 50 -44 80 -44c48 0 71 45 80 105h-260v109h729v-109h-67c4 -20 6 -38 6 -56c0 -66 -29 -117 -80 -143v-288l51 -22l-82 -94l-368 162v129c39 33 115 82 198 121c-24 15 -44 37 -60 68c-26 -57 -75 -94 -147 -94c-49 0 -108 21 -147 70zM521 518
c0 19 -3 34 -8 44h-133c4 -59 33 -107 85 -107c39 0 56 29 56 63zM448 130c-5 41 -9 98 -9 145c-55 -23 -101 -52 -145 -80l149 -65h5z" />
    <glyph glyph-name="bnH_BA" horiz-adv-x="516" 
d="M-20 671h556v-109h-556v109zM260 191v-4c34 -8 79 -19 132 -44l126 -60l-75 -86c-12 6 -24 12 -35 17v-110l46 -20l-68 -81l-342 149v109c24 21 64 48 111 74c-31 11 -57 16 -85 17v106h60c104 0 168 32 168 101c0 40 -21 65 -58 65c-25 0 -45 -15 -45 -40
c0 -18 8 -33 30 -43l-88 -61c-50 28 -66 66 -66 108c0 81 60 143 165 143c109 0 185 -67 185 -171c0 -103 -77 -157 -161 -169zM294 -46h4c-3 34 -6 79 -7 119c-3 2 -6 3 -9 5c-44 -20 -83 -44 -119 -67z" />
    <glyph glyph-name="bnK_SS_BA" horiz-adv-x="973" 
d="M993 562h-295v-112h10c150 0 214 -80 214 -181c0 -97 -66 -151 -123 -171l-67 101c28 7 64 33 64 72c0 43 -28 58 -80 58h-18v-520l51 -22l-82 -94l-368 162v129c38 32 111 79 192 118c-33 24 -73 41 -116 48c-21 -60 -67 -87 -108 -87c-48 0 -90 30 -90 86
c0 45 34 84 86 103c-9 37 -29 66 -57 86c-23 -45 -62 -65 -98 -65c-48 0 -90 30 -90 86c0 49 34 86 85 101c-8 44 -30 77 -55 102h-68v109h1013v-109zM573 -136h5c-4 35 -7 81 -9 123c-1 7 -3 13 -5 20c-48 -21 -99 -52 -140 -78zM576 172c-7 46 -12 105 -13 156h-30
c-132 0 -196 61 -196 195v39h-147c19 -30 33 -68 36 -110c75 -27 143 -95 157 -191c98 -11 167 -55 193 -89zM524 449h38v113h-96v-44c0 -61 28 -69 58 -69z" />
    <glyph glyph-name="bnC_CH_BA" horiz-adv-x="1021" 
d="M195 416h-4s7 -50 7 -132v-29c0 -24 10 -39 44 -39c51 0 97 48 97 98c0 33 -18 45 -56 58l-14 5c-39 14 -59 26 -74 39zM593 562c7 -25 62 -30 112 -53c23 8 52 11 71 11c109 0 196 -71 196 -196c0 -101 -67 -186 -213 -208v-4c41 -10 77 -25 125 -47l112 -51l-83 -97
l-56 28v-108l51 -22l-82 -94l-368 162v127c22 19 57 43 97 67c-28 7 -54 11 -90 15v110h146c159 0 225 56 225 124c0 39 -15 66 -52 74v-5c0 -85 -72 -159 -175 -159c-70 0 -119 26 -138 70c-5 -107 -98 -208 -231 -208c-117 0 -176 64 -176 158v306h-84v109h1061v-109h-448
zM665 398c0 35 -60 33 -76 48v-83c0 -11 7 -20 21 -20c34 0 55 26 55 55zM732 -108h5c-4 33 -7 75 -8 115c-12 6 -23 11 -33 16c-42 -21 -78 -43 -113 -66zM326 485c70 -24 116 -56 135 -108v185h-268c9 -27 38 -43 110 -69z" />
    <glyph glyph-name="bnJ_J_BA" horiz-adv-x="1172" 
d="M710 99c49 0 70 24 70 57c0 17 -5 25 -9 30l-58 6c-79 9 -115 50 -115 104c0 30 11 59 27 85c-109 7 -183 60 -207 115c-47 -36 -65 -61 -65 -86c0 -12 4 -23 34 -26l91 -8c30 -31 55 -71 55 -125v-5c32 -87 93 -147 177 -147zM-20 562v109h1212v-109h-684
c25 -51 78 -81 196 -81h169c36 -65 77 -105 186 -105h29l42 -92c-33 -58 -47 -135 -47 -207v-316l45 -20l-66 -83l-335 145v119c33 27 160 107 243 144v19c0 65 11 132 37 186c-89 14 -172 45 -212 122c-31 -20 -67 -51 -67 -76c0 -12 6 -22 34 -25l86 -9
c30 -31 55 -71 55 -124c0 -85 -60 -170 -191 -170c-104 0 -187 51 -243 129c-33 -27 -79 -45 -139 -45c-172 0 -288 142 -314 312l113 42c15 -136 88 -244 199 -244c61 0 82 32 82 66c0 17 -5 25 -8 30l-60 6c-80 9 -117 53 -117 110c0 70 43 128 89 167h-334zM975 -190
c-4 37 -6 87 -6 129c-49 -24 -99 -53 -125 -72l127 -57h4z" />
    <glyph glyph-name="bnT_T_BA" horiz-adv-x="692" 
d="M712 562h-732v109h732v-109zM323 250c97 35 147 75 147 120c0 28 -18 47 -54 47c-54 0 -93 -54 -102 -91l-98 63c25 82 103 140 198 140c118 0 176 -76 176 -163c0 -35 -10 -68 -33 -100c39 -28 72 -70 72 -132c0 -72 -34 -127 -90 -159v-201l51 -22l-82 -94l-368 162
v129c19 16 46 36 79 56c-107 81 -168 231 -204 388l115 47c47 -216 134 -378 274 -378c62 0 98 34 98 78c0 19 -10 40 -29 56c-20 -12 -43 -24 -70 -35zM419 -171c-4 32 -7 75 -8 114h-3c-19 0 -37 1 -54 4c-32 -16 -61 -34 -89 -53l149 -65h5z" />
    <glyph glyph-name="bnS_T_BA" horiz-adv-x="736" 
d="M89 501c26 -28 50 -44 80 -44c48 0 71 45 80 105h-269v109h776v-109h-105c4 -20 6 -38 6 -56c0 -46 -14 -85 -40 -113c34 -37 52 -89 52 -147c0 -86 -34 -154 -92 -197v-221l51 -22l-82 -94l-368 162v129c16 14 39 30 66 47c-72 47 -122 122 -153 199l98 69
c45 -122 120 -204 223 -204c85 0 133 56 133 134c0 51 -20 90 -60 90c-22 0 -41 -15 -41 -39c0 -20 13 -39 36 -46l-78 -74c-49 19 -84 69 -84 130c0 33 10 61 28 84c-11 13 -21 28 -30 46c-26 -57 -75 -94 -147 -94c-49 0 -108 21 -147 70zM530 518c0 19 -3 34 -8 44h-133
c4 -59 33 -107 85 -107c39 0 56 29 56 63zM457 -117c-4 34 -7 78 -8 119c-12 -1 -24 -2 -36 -2c-7 0 -14 0 -21 1c-32 -17 -61 -35 -89 -53l149 -65h5z" />
    <glyph glyph-name="bnD_D_BA" horiz-adv-x="862" 
d="M208 185l-133 48v329h-95v109h902v-109h-667v-181c46 54 123 109 207 139l108 -62c-22 -56 -38 -136 -38 -181v-6c46 54 138 122 222 152l106 -62c-31 -81 -41 -193 -41 -284v-270l51 -22l-82 -94l-379 162v127c51 43 163 112 272 152c3 60 13 102 25 130
c-50 -32 -123 -96 -169 -164l-136 53v20c0 82 10 151 23 186c-52 -33 -126 -102 -176 -172zM643 -135h5c-5 39 -8 93 -9 139c-51 -20 -97 -47 -142 -76z" />
    <glyph glyph-name="bnD_DH_BA" horiz-adv-x="772" 
d="M792 562h-587v-147c75 50 139 81 217 103l101 -62c-11 -29 -19 -61 -26 -96c92 38 144 52 144 52l90 -74s-20 -46 -20 -219v-128h-127v129c0 72 7 118 17 149c-27 -10 -67 -27 -118 -49c-1 -17 -1 -33 -1 -48v-397l51 -22l-75 -88l-359 157v119c31 19 61 37 90 54l-90 39
v119c98 61 187 109 262 146c5 33 12 60 20 78c-63 -33 -106 -59 -174 -102l-137 50v237h-90v109h812v-109zM357 -170h5c-3 27 -6 60 -7 92l-32 14c-29 -14 -60 -31 -92 -51zM357 47h5c-4 32 -7 73 -8 112c-37 -18 -76 -38 -118 -61z" />
    <glyph glyph-name="bnN_DH_BA" horiz-adv-x="798" 
d="M-20 562v109h838v-109h-316v-178c101 42 159 58 159 58l90 -74s-20 -46 -20 -219v-128h-127v129c0 72 7 119 17 150c-27 -11 -67 -27 -119 -50v-445l51 -22l-75 -88l-359 157v119c31 19 61 37 90 54l-90 39v119c79 49 153 90 218 123c-38 48 -78 83 -126 83
c-32 0 -53 -17 -53 -45c0 -20 8 -34 18 -46l-108 -39c-19 22 -34 53 -34 93c0 91 64 153 166 153c82 0 142 -39 176 -84l4 1c-5 32 -8 76 -8 122v18h-392zM377 -140h5c-3 27 -6 60 -7 92l-29 13c-28 -14 -64 -34 -95 -50zM377 77h5c-4 32 -7 73 -8 112
c-38 -19 -80 -40 -118 -60z" />
    <glyph glyph-name="bnN_T_BA" horiz-adv-x="684" 
d="M414 -127h5c-4 32 -7 74 -8 114c-14 -2 -28 -3 -43 -3c-9 0 -17 0 -25 1c-27 -15 -53 -31 -78 -47zM-20 671h724v-109h-108c10 -16 19 -41 19 -79c0 -35 -10 -78 -40 -109c32 -37 49 -88 49 -144c0 -82 -31 -148 -85 -191v-221l51 -22l-82 -94l-368 162v129
c15 12 34 27 58 42c-60 40 -106 98 -139 159l98 71c46 -96 121 -167 210 -167c85 0 133 56 133 134c0 51 -20 90 -60 90c-22 0 -41 -15 -41 -39c0 -20 13 -39 36 -46l-78 -74c-49 19 -84 69 -84 130c0 31 9 59 25 81c-28 16 -53 29 -79 29c-33 0 -49 -20 -49 -45
c0 -20 8 -34 18 -46l-109 -38c-18 18 -35 52 -35 94c0 85 51 155 159 155c109 0 164 -73 226 -73c39 0 58 24 58 56s-20 56 -58 56h-449v109z" />
    <glyph glyph-name="bnN_D_BA" horiz-adv-x="875" 
d="M-20 562v109h915v-109h-385v-177c49 48 141 95 217 123l101 -62c-31 -81 -41 -193 -41 -284v-252l51 -22l-82 -94l-368 162v127c51 43 164 113 274 153c4 52 13 91 24 116c-62 -36 -114 -74 -184 -147l-127 47c-49 74 -99 137 -164 137c-32 0 -53 -17 -53 -45
c0 -20 8 -34 18 -46l-108 -39c-19 22 -34 53 -34 93c0 91 64 153 166 153c82 0 142 -39 176 -84l4 1c-5 32 -8 76 -8 122v18h-392zM662 -35h5c-5 41 -9 98 -9 145c-55 -23 -101 -52 -145 -80z" />
    <glyph glyph-name="bnTTA_mI" horiz-adv-x="858" 
d="M561 821c32 0 58 -2 80 -8c-54 54 -142 89 -249 89c-35 0 -64 -4 -87 -12c7 -34 31 -69 107 -69h149zM80 0v562h-100v109h100v91c0 170 111 250 307 250c223 0 420 -131 420 -323c0 -6 0 -12 -1 -18h72v-109h-370v-348c0 -28 13 -47 45 -47c63 0 128 62 128 124
c0 35 -18 50 -44 50c-13 0 -29 -6 -37 -16l-57 107c22 20 66 36 102 36c90 0 168 -56 168 -176c0 -116 -112 -252 -273 -252c-114 0 -166 74 -166 163v359h-155v-562h-139zM219 671h479v10c0 45 -43 48 -82 48h-194c-121 0 -173 41 -193 95c-7 -17 -10 -37 -10 -59v-94z" />
    <glyph glyph-name="bnK_TTA_mI" horiz-adv-x="1023" 
d="M641 821c29 0 56 -4 81 -10c-80 55 -202 91 -310 91c-40 0 -74 -6 -102 -18c14 -32 51 -63 122 -63h209zM937 -11c0 -112 -103 -182 -231 -182c-176 0 -260 109 -260 228c0 76 30 133 72 173l-169 73v118c46 46 144 106 270 128v35h-400v-562h-139v562h-100v109h100v79
c0 170 131 262 327 262c223 0 510 -122 510 -323c0 -6 0 -12 -1 -18h127v-109h-295v-27c171 -9 233 -95 233 -171c0 -96 -66 -144 -125 -163l-62 100c28 5 64 21 64 63c0 39 -40 55 -110 58v-227c-100 -19 -166 -69 -166 -158c0 -61 42 -103 124 -103c61 0 99 24 99 58
c0 20 -15 33 -39 33c-15 0 -32 -6 -42 -14l-53 105c22 20 58 36 102 36c90 0 164 -57 164 -163zM628 283c-4 36 -8 84 -9 126c-54 -13 -101 -36 -139 -65l143 -61h5zM219 671h589v10c0 45 -73 48 -112 48h-254c-118 0 -179 39 -207 91c-10 -20 -16 -42 -16 -67v-82z" />
    </font>
</defs>
</svg>
